<?xml version="1.0" encoding="utf-8"?>
<!-- Generator: Adobe Illustrator 23.0.1, SVG Export Plug-In . SVG Version: 6.00 Build 0)  -->
<svg version="1.1" id="Layer_1" xmlns="http://www.w3.org/2000/svg" xmlns:xlink="http://www.w3.org/1999/xlink" x="0px" y="0px"
	 viewBox="0 0 56.7 56.7" style="enable-background:new 0 0 56.7 56.7;" xml:space="preserve">
<style type="text/css">
	.st0{fill:#DAE1E7;}
</style>
<g>
	<path class="st0" d="M28.3,3.7c-13.6,0-24.6,11-24.6,24.6s11,24.6,24.6,24.6C41.9,53,53,41.9,53,28.3S41.9,3.7,28.3,3.7z
		 M42.1,40.3c0,1.1-0.9,2-2,2H16.6c-1.1,0-2-0.9-2-2V16.6c0-1.1,0.9-2,2-2H40c1.1,0,2,0.9,2,2L42.1,40.3L42.1,40.3z"/>
	<path class="st0" d="M33.1,25c-2.2,0-3.2,1.2-3.7,2.1l0,0l0,0l0,0v-1.8h-4.1c0.1,1.2,0,12.5,0,12.5h4.1v-7c0-0.4,0-0.7,0.1-1
		c0.3-0.7,1-1.5,2.1-1.5c1.5,0,2.1,1.1,2.1,2.8v6.7h4.2v-7.2C37.9,26.8,35.8,25,33.1,25z"/>
	<path class="st0" d="M20.9,19.3c-1.4,0-2.3,0.9-2.3,2.2c0,1.2,0.9,2.2,2.3,2.2l0,0c1.4,0,2.3-1,2.3-2.2
		C23.2,20.2,22.3,19.3,20.9,19.3z"/>
	<rect x="18.8" y="25.3" class="st0" width="4.2" height="12.5"/>
</g>
</svg>
