<?xml version="1.0" encoding="utf-8"?>
<!-- Generator: Adobe Illustrator 23.0.1, SVG Export Plug-In . SVG Version: 6.00 Build 0)  -->
<svg version="1.1" id="Layer_1" xmlns="http://www.w3.org/2000/svg" xmlns:xlink="http://www.w3.org/1999/xlink" x="0px" y="0px"
	 viewBox="0 0 56.7 56.7" style="enable-background:new 0 0 56.7 56.7;" xml:space="preserve">
<style type="text/css">
	.st0{fill:#DAE1E7;}
</style>
<path class="st0" d="M28.6,4.2C15,4.2,4,15.2,4,28.8s11,24.6,24.6,24.6s24.6-11,24.6-24.6S42.2,4.2,28.6,4.2z M23.1,40.5
	C23.1,40.5,23.1,40.6,23.1,40.5C23.1,40.6,23,40.6,23.1,40.5l-8.6-4.2c-0.1-0.1-0.3-0.3-0.3-0.4V16.4l8.8,4.4v19.7H23.1z M24.1,31.2
	v-8.9L32,35.1L24.1,31.2z M27.7,26l6.1-9.8l8.9,4.4l-9.1,14.8L27.7,26z M42.9,40.5C42.9,40.5,42.9,40.6,42.9,40.5
	C42.8,40.6,42.8,40.6,42.9,40.5l-8.6-4.2l8.6-13.9V40.5z"/>
</svg>
