<?xml version="1.0" encoding="utf-8"?>
<!-- Generator: Adobe Illustrator 20.1.0, SVG Export Plug-In . SVG Version: 6.00 Build 0)  -->
<svg version="1.1" id="Layer_1" xmlns="http://www.w3.org/2000/svg" xmlns:xlink="http://www.w3.org/1999/xlink" x="0px" y="0px"
	 viewBox="0 0 1920 1080" style="enable-background:new 0 0 1920 1080;" xml:space="preserve">
<style type="text/css">
	.st0{enable-background:new    ;}
	.st1{fill:#929292;}
	.st2{clip-path:url(#SVGID_2_);enable-background:new    ;}
	.st3{fill:#888888;}
	.st4{fill:#8C8C8C;}
	.st5{fill:#919191;}
	.st6{fill:#969696;}
	.st7{fill:#9B9B9B;}
	.st8{clip-path:url(#SVGID_4_);enable-background:new    ;}
	.st9{fill:#7E7E7E;}
	.st10{fill:#838383;}
	.st11{clip-path:url(#SVGID_6_);enable-background:new    ;}
	.st12{fill:#DDDDDD;}
	.st13{clip-path:url(#SVGID_8_);enable-background:new    ;}
	.st14{clip-path:url(#SVGID_10_);enable-background:new    ;}
	.st15{clip-path:url(#SVGID_12_);enable-background:new    ;}
	.st16{fill:#003B63;}
	.st17{fill:#006BB3;}
	.st18{clip-path:url(#SVGID_14_);enable-background:new    ;}
	.st19{fill:#003D66;}
	.st20{clip-path:url(#SVGID_16_);enable-background:new    ;}
	.st21{fill:#004472;}
	.st22{fill:#00426E;}
	.st23{fill:#003F6A;}
	.st24{clip-path:url(#SVGID_18_);enable-background:new    ;}
	.st25{clip-path:url(#SVGID_20_);enable-background:new    ;}
	.st26{clip-path:url(#SVGID_22_);enable-background:new    ;}
	.st27{clip-path:url(#SVGID_24_);enable-background:new    ;}
	.st28{display:none;fill:none;stroke:#41A7F6;stroke-width:20;stroke-miterlimit:10;}
</style>
<g>
	<g>
		<g class="st0">
			<g>
				<rect x="463.6" y="255.8" class="st1" width="991.1" height="32.1"/>
			</g>
			<g class="st0">
				<defs>
					<path id="SVGID_1_" class="st0" d="M463.6,255.8v32.1c-35.2,0-63.8,21.9-63.8,48.9l0-32.1C399.8,277.7,428.4,255.8,463.6,255.8
						z"/>
				</defs>
				<clipPath id="SVGID_2_">
					<use xlink:href="#SVGID_1_"  style="overflow:visible;"/>
				</clipPath>
				<g class="st2">
					<path class="st3" d="M463.6,255.8v32.1c-2.9,0-5.8,0.2-8.7,0.4v-32.1C457.8,256,460.7,255.8,463.6,255.8"/>
					<path class="st4" d="M454.9,256.3v32.1c-3.6,0.4-7,1-10.4,1.8V258C447.9,257.2,451.4,256.6,454.9,256.3"/>
					<path class="st5" d="M444.5,258v32.1c-3.9,0.9-7.6,2.2-11.2,3.6v-32.1C436.9,260.2,440.6,259,444.5,258"/>
					<path class="st6" d="M433.4,261.7v32.1c-6.4,2.7-12.2,6.1-17.1,10.3v-32.1C421.2,267.8,426.9,264.3,433.4,261.7"/>
					<path class="st7" d="M416.3,271.9v32.1c-2.7,2.2-5,4.7-7.1,7.3v-32.1C411.2,276.6,413.6,274.2,416.3,271.9"/>
					<path class="st6" d="M409.2,279.2v32.1c-3.7,4.6-6.4,9.6-7.9,15v-32.1C402.8,288.8,405.5,283.8,409.2,279.2"/>
					<path class="st5" d="M401.3,294.2v32.1c-0.9,3-1.4,6.1-1.5,9.3v-32.1C399.9,300.3,400.4,297.2,401.3,294.2"/>
					<path class="st4" d="M399.8,303.5v32.1c0,0.4,0,0.8,0,1.2v-32.1C399.8,304.3,399.8,303.9,399.8,303.5"/>
				</g>
			</g>
			<g class="st0">
				<defs>
					<path id="SVGID_3_" class="st0" d="M1518.6,304.7v32.1c0-27-28.6-48.9-63.8-48.9v-32.1C1489.9,255.8,1518.6,277.7,1518.6,304.7
						z"/>
				</defs>
				<clipPath id="SVGID_4_">
					<use xlink:href="#SVGID_3_"  style="overflow:visible;"/>
				</clipPath>
				<g class="st8">
					<path class="st9" d="M1518.6,304.7v32.1c0-23.2-21.1-42.6-49.4-47.6v-32.1C1497.4,262.1,1518.6,281.5,1518.6,304.7"/>
					<path class="st10" d="M1469.2,257.1v32.1c-4-0.7-8-1.1-12.2-1.2v-32.1C1461.1,255.9,1465.2,256.4,1469.2,257.1"/>
					<path class="st3" d="M1456.9,255.8V288c-0.7,0-1.5,0-2.2,0v-32.1C1455.5,255.8,1456.2,255.8,1456.9,255.8"/>
				</g>
			</g>
			<g class="st0">
				<defs>
					<path id="SVGID_5_" class="st0" d="M463.6,794v32.1c-35.2,0-63.8-21.9-63.8-48.9v-32.1C399.8,772.1,428.4,794,463.6,794z"/>
				</defs>
				<clipPath id="SVGID_6_">
					<use xlink:href="#SVGID_5_"  style="overflow:visible;"/>
				</clipPath>
				<g class="st11">
					<path class="st3" d="M463.6,794v32.1c-0.7,0-1.5,0-2.2,0v-32.1C462.1,794,462.9,794,463.6,794"/>
					<path class="st10" d="M461.4,793.9v32.1c-4.2-0.1-8.3-0.5-12.2-1.2v-32.1C453.1,793.4,457.2,793.8,461.4,793.9"/>
					<path class="st9" d="M449.2,792.7v32.1c-28.3-5-49.4-24.5-49.4-47.6v-32.1C399.8,768.3,420.9,787.7,449.2,792.7"/>
				</g>
			</g>
			<g>
				<path class="st12" d="M1454.7,255.8c35.2,0,63.8,21.9,63.8,48.9v440.4c0,27-28.6,48.9-63.8,48.9H463.6
					c-35.2,0-63.8-21.9-63.8-48.9V304.7c0-27,28.6-48.9,63.8-48.9H1454.7z"/>
			</g>
			<g class="st0">
				<defs>
					<path id="SVGID_7_" class="st0" d="M1518.6,745.1v32.1c0,27-28.6,48.9-63.8,48.9V794C1489.9,794,1518.6,772.1,1518.6,745.1z"/>
				</defs>
				<clipPath id="SVGID_8_">
					<use xlink:href="#SVGID_7_"  style="overflow:visible;"/>
				</clipPath>
				<g class="st13">
					<path class="st4" d="M1518.6,745.1v32.1c0,0.4,0,0.8,0,1.2v-32.1C1518.6,745.9,1518.6,745.5,1518.6,745.1"/>
					<path class="st5" d="M1518.5,746.3v32.1c-0.1,3.2-0.6,6.3-1.5,9.3v-32.1C1518,752.6,1518.4,749.4,1518.5,746.3"/>
					<path class="st6" d="M1517.1,755.6v32.1c-1.5,5.4-4.2,10.4-7.9,15v-32.1C1512.8,766,1515.6,761,1517.1,755.6"/>
					<path class="st7" d="M1509.2,770.6v32.1c-2.1,2.6-4.5,5-7.1,7.3v-32.1C1504.7,775.6,1507.1,773.2,1509.2,770.6"/>
					<path class="st6" d="M1502.1,777.9V810c-4.9,4.1-10.6,7.6-17.1,10.3v-32.1C1491.4,785.5,1497.2,782,1502.1,777.9"/>
					<path class="st5" d="M1485,788.1v32.1c-3.5,1.5-7.3,2.7-11.2,3.6v-32.1C1477.7,790.8,1481.5,789.6,1485,788.1"/>
					<path class="st4" d="M1473.8,791.8v32.1c-3.4,0.8-6.8,1.4-10.4,1.8v-32.1C1467,793.2,1470.5,792.6,1473.8,791.8"/>
					<path class="st3" d="M1463.4,793.5v32.1c-2.8,0.3-5.7,0.4-8.7,0.4V794C1457.7,794,1460.6,793.8,1463.4,793.5"/>
				</g>
			</g>
			<g>
				<rect x="463.6" y="794" class="st1" width="991.1" height="32.1"/>
			</g>
			<g class="st0">
				<defs>
					<path id="SVGID_9_" class="st0" d="M463.6,809.3v32.1c-46.2,0-83.8-28.8-83.8-64.2l0-32.1C379.8,780.5,417.4,809.3,463.6,809.3
						z"/>
				</defs>
				<clipPath id="SVGID_10_">
					<use xlink:href="#SVGID_9_"  style="overflow:visible;"/>
				</clipPath>
				<g class="st14">
					<path class="st3" d="M463.6,809.3v32.1c-1,0-1.9,0-2.9,0v-32.1C461.7,809.3,462.6,809.3,463.6,809.3"/>
					<path class="st10" d="M460.7,809.3v32.1c-5.5-0.1-10.9-0.7-16.1-1.6v-32.1C449.9,808.6,455.2,809.1,460.7,809.3"/>
					<path class="st9" d="M444.7,807.6v32.1c-37.1-6.6-64.9-32.1-64.9-62.6v-32.1C379.8,775.5,407.6,801.1,444.7,807.6"/>
				</g>
			</g>
			<g>
				<rect x="463.6" y="809.3" class="st1" width="991.1" height="32.1"/>
			</g>
			<g class="st0">
				<defs>
					<path id="SVGID_11_" class="st0" d="M1538.6,745.1v32.1c0,35.4-37.6,64.2-83.8,64.2v-32.1
						C1501,809.3,1538.6,780.5,1538.6,745.1z"/>
				</defs>
				<clipPath id="SVGID_12_">
					<use xlink:href="#SVGID_11_"  style="overflow:visible;"/>
				</clipPath>
				<g class="st15">
					<path class="st4" d="M1538.6,745.1v32.1c0,0.5,0,1,0,1.5v-32.1C1538.6,746.1,1538.6,745.6,1538.6,745.1"/>
					<path class="st5" d="M1538.5,746.6v32.1c-0.1,4.2-0.8,8.3-1.9,12.2v-32.1C1537.8,754.9,1538.4,750.8,1538.5,746.6"/>
					<path class="st6" d="M1536.6,758.8V791c-2,7.1-5.6,13.7-10.4,19.7v-32.1C1531.1,772.6,1534.6,765.9,1536.6,758.8"/>
					<path class="st7" d="M1526.2,778.6v32.1c-2.7,3.4-5.9,6.6-9.4,9.6v-32.1C1520.4,785.2,1523.5,782,1526.2,778.6"/>
					<path class="st6" d="M1516.9,788.1v32.1c-6.4,5.4-14,10-22.4,13.5v-32.1C1502.9,798.1,1510.5,793.5,1516.9,788.1"/>
					<path class="st5" d="M1494.5,801.6v32.1c-4.7,1.9-9.6,3.5-14.7,4.8v-32.1C1484.9,805.1,1489.8,803.5,1494.5,801.6"/>
					<path class="st4" d="M1479.8,806.4v32.1c-4.4,1.1-9,1.8-13.7,2.3v-32.1C1470.8,808.2,1475.4,807.4,1479.8,806.4"/>
					<path class="st3" d="M1466.1,808.7v32.1c-3.7,0.4-7.5,0.6-11.4,0.6v-32.1C1458.6,809.3,1462.4,809.1,1466.1,808.7"/>
				</g>
			</g>
			<g>
				<path class="st12" d="M1454.7,240.5c46.2,0,83.8,28.8,83.8,64.2v440.4c0,35.4-37.6,64.2-83.8,64.2H463.6
					c-46.2,0-83.8-28.8-83.8-64.2V304.7c0-35.4,37.6-64.2,83.8-64.2H1454.7z M1518.6,745.1V304.7c0-27-28.6-48.9-63.8-48.9H463.6
					c-35.2,0-63.8,21.9-63.8,48.9v440.4c0,27,28.6,48.9,63.8,48.9h991.1C1489.9,794,1518.6,772,1518.6,745.1"/>
			</g>
		</g>
	</g>
</g>
<g>
	<g>
		<g class="st0">
			<g>
				<rect x="550.8" y="343.4" class="st16" width="70" height="17.1"/>
			</g>
			<g>
				<rect x="550.8" y="343.4" class="st17" width="70" height="363.6"/>
			</g>
			<g>
				<rect x="550.8" y="707" class="st16" width="70" height="17.1"/>
			</g>
			<g>
				<path class="st17" d="M550.8,324.6h90v401.2h-90c-11,0-20-8.4-20-18.8V343.4C530.8,333,539.8,324.6,550.8,324.6z M620.8,707
					V343.4h-70V707H620.8"/>
			</g>
			<g>
				<rect x="550.8" y="725.8" class="st16" width="90" height="17.1"/>
			</g>
			<g class="st0">
				<defs>
					<path id="SVGID_13_" class="st0" d="M550.8,725.8v17.1c-11,0-20-8.4-20-18.8l0-17.1C530.8,717.4,539.8,725.8,550.8,725.8z"/>
				</defs>
				<clipPath id="SVGID_14_">
					<use xlink:href="#SVGID_13_"  style="overflow:visible;"/>
				</clipPath>
				<g class="st18">
					<path class="st19" d="M550.8,725.8v17.1c-11,0-20-8.4-20-18.8V707C530.8,717.4,539.8,725.8,550.8,725.8"/>
				</g>
			</g>
		</g>
	</g>
</g>
<g>
	<g>
		<g class="st0">
			<g>
				<rect x="802.8" y="343.4" class="st16" width="70" height="17.1"/>
			</g>
			<g>
				<rect x="802.8" y="707" class="st16" width="70" height="17.1"/>
			</g>
			<g>
				<path class="st17" d="M872.7,324.6c11,0,20,8.4,20,18.8V707c0,10.4-9,18.8-20,18.8h-90V324.6H872.7z M872.7,707V343.4h-70V707
					H872.7"/>
			</g>
			<g>
				<polygon class="st17" points="872.7,343.4 872.8,707 802.8,707 802.8,343.4 				"/>
			</g>
			<g class="st0">
				<defs>
					<path id="SVGID_15_" class="st0" d="M892.7,707v17.1c0,10.4-9,18.8-20,18.8v-17.1C883.8,725.8,892.7,717.4,892.7,707z"/>
				</defs>
				<clipPath id="SVGID_16_">
					<use xlink:href="#SVGID_15_"  style="overflow:visible;"/>
				</clipPath>
				<g class="st20">
					<path class="st21" d="M892.7,707v17.1c0,2.9-0.7,5.6-1.9,8.1v-17.1C892,712.6,892.7,709.9,892.7,707"/>
					<path class="st22" d="M890.8,715.1v17.1c-0.8,1.6-1.8,3-3,4.3v-17.1C889,718.1,890,716.6,890.8,715.1"/>
					<path class="st23" d="M887.8,719.4v17.1c-1.2,1.3-2.6,2.4-4.1,3.3v-17.1C885.2,721.8,886.6,720.7,887.8,719.4"/>
					<path class="st19" d="M883.7,722.7v17.1c-3.1,1.9-6.9,3.1-11,3.1v-17.1C876.8,725.8,880.6,724.7,883.7,722.7"/>
				</g>
			</g>
			<g>
				<rect x="782.8" y="725.8" class="st16" width="90" height="17.1"/>
			</g>
		</g>
	</g>
</g>
<g>
	<g>
		<g class="st0">
			<g>
				<rect x="1011" y="471.5" class="st16" width="70" height="17.1"/>
			</g>
			<g>
				<rect x="1011" y="701.8" class="st16" width="70" height="17.1"/>
			</g>
			<g>
				<path class="st17" d="M991,452.8h110v267.8h-90c-11,0-20-8.4-20-18.8V452.8z M1081,701.8V471.5h-70v230.3H1081"/>
			</g>
			<g>
				<rect x="1011" y="471.5" class="st17" width="70" height="230.3"/>
			</g>
			<g>
				<rect x="1011" y="720.6" class="st16" width="90" height="17.1"/>
			</g>
			<g class="st0">
				<defs>
					<path id="SVGID_17_" class="st0" d="M1011,720.6v17.1c-11,0-20-8.4-20-18.8v-17.1C991,712.2,1000,720.6,1011,720.6z"/>
				</defs>
				<clipPath id="SVGID_18_">
					<use xlink:href="#SVGID_17_"  style="overflow:visible;"/>
				</clipPath>
				<g class="st24">
					<path class="st19" d="M1011,720.6v17.1c-11,0-20-8.4-20-18.8v-17.1C991,712.2,1000,720.6,1011,720.6"/>
				</g>
			</g>
		</g>
	</g>
</g>
<g>
	<g>
		<g class="st0">
			<g>
				<rect x="1311.8" y="550.3" class="st16" width="70" height="17.1"/>
			</g>
			<g>
				<rect x="1311.8" y="704.3" class="st16" width="70" height="17.1"/>
			</g>
			<g>
				<path class="st17" d="M1291.8,531.5h110v172.8c0,10.4-9,18.8-20,18.8h-90V531.5z M1381.8,704.3v-154h-70v154H1381.8"/>
			</g>
			<g>
				<polygon class="st17" points="1381.8,550.3 1381.8,704.3 1311.8,704.3 1311.8,550.3 				"/>
			</g>
			<g class="st0">
				<defs>
					<path id="SVGID_19_" class="st0" d="M1401.8,704.3v17.1c0,10.4-9,18.8-20,18.8V723C1392.8,723,1401.8,714.6,1401.8,704.3z"/>
				</defs>
				<clipPath id="SVGID_20_">
					<use xlink:href="#SVGID_19_"  style="overflow:visible;"/>
				</clipPath>
				<g class="st25">
					<path class="st21" d="M1401.8,704.3v17.1c0,2.9-0.7,5.6-1.9,8.1v-17.1C1401.1,709.9,1401.8,707.1,1401.8,704.3"/>
					<path class="st22" d="M1399.9,712.3v17.1c-0.8,1.6-1.8,3-3,4.3v-17.1C1398,715.3,1399.1,713.9,1399.9,712.3"/>
					<path class="st23" d="M1396.8,716.6v17.1c-1.2,1.3-2.6,2.4-4.1,3.3V720C1394.3,719,1395.6,717.9,1396.8,716.6"/>
					<path class="st19" d="M1392.8,720v17.1c-3.1,1.9-6.9,3.1-11,3.1V723C1385.8,723,1389.6,721.9,1392.8,720"/>
				</g>
			</g>
			<g>
				<rect x="1291.8" y="723" class="st16" width="90" height="17.1"/>
			</g>
		</g>
	</g>
</g>
<g>
	<g>
		<g class="st0">
			<g>
				<rect x="1011" y="340.5" class="st16" width="370.8" height="17.1"/>
			</g>
			<g>
				<polygon class="st17" points="1381.8,340.5 1381.8,406.3 1011,406.3 1011,340.5 				"/>
			</g>
			<g>
				<rect x="1011" y="406.3" class="st16" width="370.8" height="17.1"/>
			</g>
			<g>
				<path class="st17" d="M1381.8,321.7c11,0,20,8.4,20,18.8v84.6H991v-84.6c0-10.4,9-18.8,20-18.8H1381.8z M1381.8,340.5H1011v65.8
					h370.8V340.5"/>
			</g>
			<g>
				<rect x="991" y="425.1" class="st16" width="410.8" height="17.1"/>
			</g>
		</g>
	</g>
</g>
<g>
	<g>
		<g class="st0">
			<g>
				<rect x="1011" y="641.3" class="st16" width="370.8" height="17.1"/>
			</g>
			<g>
				<rect x="1011" y="707.1" class="st16" width="370.8" height="17.1"/>
			</g>
			<g>
				<polygon class="st17" points="1381.8,641.3 1381.8,707.1 1011,707.1 1011,641.3 				"/>
			</g>
			<g class="st0">
				<defs>
					<path id="SVGID_21_" class="st0" d="M1011,725.9V743c-11,0-20-8.4-20-18.8v-17.1C991,717.4,1000,725.9,1011,725.9z"/>
				</defs>
				<clipPath id="SVGID_22_">
					<use xlink:href="#SVGID_21_"  style="overflow:visible;"/>
				</clipPath>
				<g class="st26">
					<path class="st19" d="M1011,725.9V743c-11,0-20-8.4-20-18.8v-17.1C991,717.4,1000,725.9,1011,725.9"/>
				</g>
			</g>
			<g class="st0">
				<defs>
					<path id="SVGID_23_" class="st0" d="M1401.8,707.1v17.1c0,10.4-9,18.8-20,18.8v-17.1C1392.8,725.9,1401.8,717.4,1401.8,707.1z"
						/>
				</defs>
				<clipPath id="SVGID_24_">
					<use xlink:href="#SVGID_23_"  style="overflow:visible;"/>
				</clipPath>
				<g class="st27">
					<path class="st21" d="M1401.8,707.1v17.1c0,2.9-0.7,5.6-1.9,8.1v-17.1C1401.1,712.7,1401.8,710,1401.8,707.1"/>
					<path class="st22" d="M1399.9,715.1v17.1c-0.8,1.6-1.8,3-3,4.3v-17.1C1398,718.2,1399.1,716.7,1399.9,715.1"/>
					<path class="st23" d="M1396.8,719.5v17.1c-1.2,1.3-2.6,2.4-4.1,3.3v-17.1C1394.3,721.9,1395.6,720.7,1396.8,719.5"/>
					<path class="st19" d="M1392.8,722.8v17.1c-3.1,1.9-6.9,3.1-11,3.1v-17.1C1385.8,725.9,1389.6,724.7,1392.8,722.8"/>
				</g>
			</g>
			<g>
				<path class="st17" d="M1381.8,622.5c11,0,20,8.4,20,18.8v65.8c0,10.4-9,18.8-20,18.8H1011c-11,0-20-8.4-20-18.8v-65.8
					c0-10.4,9-18.8,20-18.8H1381.8z M1381.8,641.3H1011v65.8h370.8V641.3"/>
			</g>
			<g>
				<rect x="1011" y="725.9" class="st16" width="370.8" height="17.1"/>
			</g>
		</g>
	</g>
</g>
<g>
	<g>
		<g class="st0">
			<g>
				<rect x="676.8" y="343.7" class="st16" width="70" height="17.1"/>
			</g>
			<g>
				<rect x="676.8" y="343.7" class="st17" width="70" height="164.8"/>
			</g>
			<g>
				<rect x="676.8" y="508.5" class="st16" width="70" height="17.1"/>
			</g>
			<g>
				<path class="st17" d="M656.8,324.9h110v202.4h-110V324.9z M746.8,508.5V343.7h-70v164.8H746.8"/>
			</g>
			<g>
				<rect x="656.8" y="527.3" class="st16" width="110" height="17.1"/>
			</g>
		</g>
	</g>
</g>
<ellipse class="st28" cx="1013.8" cy="521.7" rx="618.7" ry="368.5"/>
</svg>
