<?xml version="1.0" standalone="no"?>
<!DOCTYPE svg PUBLIC "-//W3C//DTD SVG 20010904//EN"
 "http://www.w3.org/TR/2001/REC-SVG-20010904/DTD/svg10.dtd">
<svg version="1.0" xmlns="http://www.w3.org/2000/svg"
 width="960.000000pt" height="960.000000pt" viewBox="0 0 960.000000 960.000000"
 preserveAspectRatio="xMidYMid meet">
<g transform="translate(0.000000,960.000000) scale(0.100000,-0.100000)"
fill="#000000" stroke="none">
<path d="M4945 9224 c-36 -8 -152 -15 -290 -18 -267 -5 -265 -5 -469 -105 -78
-38 -163 -74 -191 -80 -60 -14 -146 -51 -140 -61 5 -8 -27 -22 -85 -38 -112
-31 -247 -79 -263 -95 -10 -10 -22 -15 -27 -12 -5 3 -11 2 -14 -3 -3 -5 -19
-7 -36 -4 -25 4 -32 0 -37 -16 -4 -17 -11 -20 -34 -15 -28 5 -64 -11 -97 -44
-7 -7 -20 -13 -27 -13 -22 0 -61 -60 -75 -115 -6 -27 -14 -57 -16 -66 -3 -9
-19 -19 -36 -23 -33 -6 -78 -41 -78 -60 0 -6 5 -5 12 2 15 15 28 16 28 2 0 -5
-10 -12 -22 -16 -26 -6 -74 -66 -108 -134 -13 -25 -33 -58 -46 -73 -13 -16
-24 -39 -24 -52 0 -14 -10 -48 -21 -77 -31 -77 -59 -169 -49 -163 12 8 21 -11
14 -29 -8 -21 -21 -20 -27 2 -3 9 -5 3 -6 -15 0 -17 -5 -34 -10 -38 -11 -6
-12 -14 -15 -103 -2 -51 -6 -65 -24 -78 -12 -8 -22 -23 -22 -33 0 -11 -7 -21
-15 -25 -17 -6 -20 -51 -5 -61 8 -5 7 -11 -1 -21 -7 -8 -9 -30 -7 -52 4 -23 0
-45 -8 -56 -7 -10 -10 -24 -8 -31 3 -7 1 -16 -5 -20 -17 -10 -13 -105 7 -203
19 -88 21 -156 9 -247 -6 -44 -5 -47 5 -22 14 32 33 37 23 5 -4 -13 -9 -58
-10 -101 -2 -44 -9 -93 -14 -110 -13 -41 -11 -76 5 -70 9 3 12 -4 10 -23 -2
-15 5 -52 16 -82 14 -40 17 -70 14 -113 -7 -68 6 -112 29 -103 11 5 14 2 9
-10 -3 -9 -10 -14 -14 -11 -19 12 -19 -15 0 -33 27 -25 17 -50 -23 -54 -17 -2
-32 -7 -33 -13 -5 -16 133 -100 163 -100 25 -1 28 -5 29 -33 0 -17 8 -40 18
-51 10 -11 15 -25 10 -32 -4 -8 -3 -10 5 -5 8 5 10 0 7 -20 -3 -15 0 -36 6
-48 7 -12 11 -33 10 -48 -2 -21 1 -26 13 -21 9 3 14 11 11 18 -2 7 -2 16 2 19
3 4 7 14 8 24 1 9 6 27 9 40 6 16 3 22 -9 22 -10 0 -13 -5 -9 -16 4 -12 2 -15
-8 -12 -18 7 -12 38 12 61 20 18 26 47 10 47 -5 0 -4 15 2 35 11 37 -6 121
-23 110 -4 -3 -6 4 -3 15 3 11 0 26 -6 34 -9 11 -9 15 1 19 10 3 8 8 -5 18
-13 11 -16 22 -11 47 4 17 10 32 15 32 5 0 4 12 -2 27 -5 14 -8 32 -5 40 3 7
-1 13 -9 13 -8 0 -15 -4 -15 -10 0 -5 -8 -10 -17 -10 -15 0 -15 1 2 13 13 10
15 16 6 21 -6 4 -9 16 -6 26 3 10 -1 35 -9 55 -16 38 -13 61 6 49 7 -4 8 -2 4
5 -4 6 10 31 33 59 22 26 36 48 31 50 -9 3 27 64 43 70 4 2 7 8 7 14 0 5 10
23 21 40 15 21 24 26 29 18 6 -9 11 -7 19 8 7 14 8 23 1 27 -5 3 -10 15 -10
26 0 10 -5 19 -11 19 -7 0 -9 10 -7 25 3 14 1 25 -3 25 -15 0 -10 23 16 72 25
48 22 64 -12 51 -15 -5 -16 -4 -7 8 7 8 15 33 19 56 4 24 10 45 14 47 4 3 6
21 5 41 -2 21 6 53 20 83 26 52 41 127 24 116 -5 -4 -2 5 7 20 10 15 15 29 12
33 -4 3 14 32 39 65 26 33 44 62 41 65 -3 2 7 18 21 35 15 16 27 35 27 41 1
21 19 42 60 73 22 16 45 36 52 44 10 12 15 13 32 3 18 -12 48 -8 61 6 12 15
131 37 188 35 34 -1 62 1 62 5 0 15 107 40 193 45 49 4 99 9 112 12 13 3 31 1
42 -4 21 -12 123 5 123 20 0 5 12 0 26 -11 34 -27 44 -26 44 2 0 20 2 20 25
-10 33 -41 76 -56 104 -37 25 18 41 11 41 -17 0 -10 6 -20 13 -20 28 -3 53 4
69 18 14 13 17 12 23 -6 6 -19 38 -29 70 -21 6 2 37 4 69 6 33 2 64 8 70 14 6
6 6 10 0 10 -5 0 4 7 20 15 15 8 38 12 50 9 14 -3 36 4 61 22 26 18 55 28 81
29 25 1 54 11 73 24 17 12 36 19 41 16 6 -4 17 -1 25 5 11 9 15 9 15 1 0 -17
41 -13 56 7 13 16 14 16 8 0 -3 -10 -1 -18 4 -18 22 0 66 22 82 40 25 29 33
25 25 -12 -7 -33 -7 -33 13 -15 13 12 32 18 54 16 18 -2 44 3 58 11 14 7 38
13 53 12 25 -2 84 10 123 25 8 3 14 -1 14 -11 0 -9 8 -16 20 -16 24 0 27 18 5
26 -12 5 -13 10 -4 20 13 16 33 19 24 4 -11 -19 18 -50 42 -44 23 6 33 -11 11
-18 -26 -9 5 -27 57 -33 31 -4 58 -11 61 -16 3 -5 14 -9 25 -9 10 0 19 -4 19
-9 0 -5 14 -12 31 -16 17 -4 40 -12 52 -18 44 -24 117 -81 117 -92 0 -6 16
-25 35 -40 24 -20 31 -32 22 -37 -9 -5 -6 -12 9 -23 31 -21 66 -83 51 -88 -8
-3 -7 -10 5 -23 9 -10 20 -32 24 -47 3 -16 13 -31 21 -34 11 -4 12 -8 3 -13
-9 -5 -4 -24 18 -68 20 -43 26 -64 19 -71 -8 -8 0 -21 24 -43 40 -37 83 -98
59 -83 -8 5 -25 10 -38 11 l-23 3 25 -20 c14 -11 26 -28 26 -37 0 -12 -3 -13
-12 -4 -24 24 -29 11 -8 -18 12 -16 26 -30 32 -30 7 0 6 5 -1 14 -19 23 4 28
24 6 10 -11 13 -20 8 -20 -6 0 -14 -7 -17 -16 -3 -8 -2 -13 3 -10 11 7 29 -12
101 -105 14 -18 34 -42 45 -54 43 -47 61 -100 30 -89 -20 8 -19 4 11 -63 15
-32 32 -76 39 -98 7 -22 18 -39 25 -37 7 1 9 -5 5 -17 -3 -12 3 -29 18 -47 24
-30 41 -63 39 -76 -1 -5 2 -8 8 -8 5 0 10 -4 10 -10 0 -21 -20 -9 -26 15 -3
14 -10 25 -14 25 -5 0 -12 9 -15 20 -6 19 -45 29 -45 12 0 -19 26 -62 38 -62
6 0 13 -8 13 -17 4 -51 7 -65 19 -76 10 -9 11 -7 6 10 -4 13 -2 24 6 29 14 9
51 14 43 6 -3 -3 3 -11 13 -19 15 -13 14 -14 -10 -8 -16 3 -28 1 -28 -5 0 -5
3 -10 8 -10 4 0 15 -14 24 -30 9 -17 13 -30 7 -30 -6 0 -8 -4 -5 -8 2 -4 7
-32 11 -62 3 -29 8 -57 11 -62 9 -15 37 -8 70 17 18 14 36 25 41 25 4 0 24 14
43 31 34 30 34 30 9 25 -19 -4 -29 -1 -33 10 -8 21 -8 39 1 30 11 -10 36 94
34 139 -1 22 -6 42 -12 43 -5 2 -14 13 -21 25 -10 20 -10 21 6 8 16 -14 16
-12 0 29 -24 58 -24 135 -2 152 14 11 16 28 14 113 -4 114 -11 183 -19 192 -3
3 3 13 15 22 17 15 19 21 9 39 -6 12 -9 32 -6 44 3 13 -1 39 -9 59 -29 70 -28
107 2 77 9 -9 12 -7 12 10 0 13 -7 25 -16 29 -9 3 -12 8 -5 12 23 15 -19 221
-54 261 -19 22 -58 187 -51 216 7 28 -14 76 -51 116 -14 14 -25 29 -24 32 3
21 0 36 -9 36 -6 0 -20 9 -32 20 -18 16 -19 20 -5 20 8 0 19 -4 22 -10 3 -5
11 -10 17 -10 7 0 5 7 -4 18 -19 23 -40 73 -33 80 2 3 0 11 -7 19 -8 10 -7 17
6 26 16 12 12 18 -39 67 -32 29 -59 58 -60 64 -12 44 -19 56 -37 56 -17 0 -19
5 -15 26 10 52 -67 154 -116 154 -22 0 -41 12 -78 52 -27 29 -49 56 -49 60 0
4 -4 8 -9 8 -4 0 -11 20 -13 45 -7 56 -18 69 -87 103 -31 15 -69 42 -84 60
-20 22 -38 32 -58 32 -16 0 -46 9 -66 20 -21 11 -44 20 -51 20 -7 0 -51 20
-99 45 -47 25 -97 45 -110 45 -13 0 -38 7 -56 16 -18 10 -61 18 -102 19 -38 2
-98 12 -132 24 -34 12 -73 21 -85 21 -26 1 -106 26 -193 62 -78 33 -127 38
-200 22z m1411 -659 c-8 -23 -25 -9 -19 16 4 13 9 17 16 10 5 -5 7 -17 3 -26z
m119 -65 c3 -5 2 -10 -4 -10 -5 0 -13 5 -16 10 -3 6 -2 10 4 10 5 0 13 -4 16
-10z m-3415 -100 c0 -5 -4 -10 -10 -10 -5 0 -10 5 -10 10 0 6 5 10 10 10 6 0
10 -4 10 -10z m10 -50 c0 -5 -4 -10 -10 -10 -5 0 -10 5 -10 10 0 6 5 10 10 10
6 0 10 -4 10 -10z m2640 -234 c0 -2 -7 -9 -15 -16 -13 -11 -14 -10 -9 4 5 14
24 23 24 12z m65 -96 c3 -5 1 -10 -4 -10 -6 0 -11 5 -11 10 0 6 2 10 4 10 3 0
8 -4 11 -10z m89 -46 c5 -14 4 -15 -9 -4 -17 14 -19 20 -6 20 5 0 12 -7 15
-16z m-3124 -444 c0 -5 -4 -10 -10 -10 -5 0 -10 5 -10 10 0 6 5 10 10 10 6 0
10 -4 10 -10z m4160 -300 c0 -5 -2 -10 -4 -10 -3 0 -8 5 -11 10 -3 6 -1 10 4
10 6 0 11 -4 11 -10z m-3848 -112 c-6 -6 -15 -8 -19 -4 -4 4 -1 11 7 16 19 12
27 3 12 -12z m3456 -63 c-3 -3 -9 2 -12 12 -6 14 -5 15 5 6 7 -7 10 -15 7 -18z
m27 -45 c3 -5 1 -10 -4 -10 -6 0 -11 5 -11 10 0 6 2 10 4 10 3 0 8 -4 11 -10z
m-3815 -276 c-18 -21 -24 -10 -9 18 8 14 14 18 17 10 2 -7 -2 -19 -8 -28z
m-29 -47 c-10 -9 -11 -8 -5 6 3 10 9 15 12 12 3 -3 0 -11 -7 -18z m4187 -350
c6 3 12 0 12 -6 0 -20 -29 -11 -40 12 -9 19 -9 20 2 6 7 -9 19 -14 26 -12z"/>
<path d="M6497 6949 c4 -13 8 -18 11 -10 2 7 -1 18 -6 23 -8 8 -9 4 -5 -13z"/>
<path d="M2961 6526 c-6 -7 -9 -21 -5 -30 4 -11 1 -16 -10 -16 -17 0 -22 -25
-7 -35 12 -7 33 31 37 67 4 32 1 34 -15 14z"/>
<path d="M5390 6509 c-36 -3 -81 -11 -100 -17 -19 -6 -57 -10 -85 -10 -57 1
-82 -9 -145 -55 -63 -47 -61 -73 5 -98 69 -26 156 -24 278 7 56 14 127 32 157
39 44 11 181 18 305 16 72 -2 155 -10 185 -20 41 -13 143 -15 120 -2 -8 5 -44
11 -80 15 -48 4 -68 11 -78 25 -10 15 -21 18 -47 14 -19 -3 -45 -3 -58 1 -20
5 -23 10 -19 36 3 19 -1 31 -9 35 -28 9 -90 12 -95 4 -3 -5 5 -9 18 -9 14 0
33 -7 44 -15 35 -27 -53 -18 -144 15 -85 30 -112 32 -252 19z"/>
<path d="M5845 6478 c6 -16 65 -23 65 -7 0 5 -6 9 -12 9 -7 0 -23 3 -36 6 -17
5 -21 3 -17 -8z"/>
<path d="M3879 6446 c-2 -3 -54 -7 -114 -10 -180 -8 -304 -23 -330 -40 -13 -9
-33 -16 -43 -16 -26 0 -42 -19 -42 -48 0 -6 -44 -31 -109 -62 -22 -10 -25 -30
-4 -30 15 0 15 -3 -6 -19 -31 -24 -22 -51 16 -51 48 0 93 18 114 44 18 23 28
26 86 26 36 0 102 9 147 20 103 24 360 22 440 -4 77 -25 100 -21 147 24 39 38
41 41 25 58 -9 10 -16 26 -16 34 0 35 -73 60 -188 64 -45 1 -90 5 -100 8 -10
4 -20 4 -23 2z"/>
<path d="M6628 6364 c-3 -3 -4 -27 -1 -54 2 -29 -1 -51 -7 -55 -7 -5 -5 -12 7
-22 17 -13 16 -14 -10 -8 -26 5 -28 4 -22 -15 14 -43 13 -90 -1 -90 -16 0 -19
-16 -5 -24 14 -9 19 -54 8 -65 -8 -8 -7 -15 2 -23 10 -11 11 -9 5 7 -6 18 -5
18 16 -3 12 -13 24 -21 26 -19 4 4 -6 52 -22 106 -9 30 13 20 27 -13 7 -16 7
-13 3 14 -8 53 -7 70 10 135 13 52 13 61 1 75 -8 9 -15 24 -15 33 0 17 -14 30
-22 21z"/>
<path d="M3276 6321 c-4 -5 3 -7 14 -4 23 6 26 13 6 13 -8 0 -17 -4 -20 -9z"/>
<path d="M5245 6271 c-60 -21 -95 -44 -128 -80 -20 -23 -37 -44 -37 -47 0 -13
56 8 79 29 l24 22 -17 -32 c-23 -45 -2 -44 51 2 23 19 51 35 62 35 36 0 23
-20 -30 -45 -76 -35 -162 -156 -131 -187 14 -14 134 3 140 20 3 9 -3 11 -22 6
-19 -5 -32 0 -51 17 -31 30 -31 39 -2 39 14 0 32 12 45 30 25 33 77 64 92 55
6 -3 10 -16 10 -28 0 -12 11 -40 24 -61 13 -22 22 -46 19 -53 -4 -10 16 -13
91 -13 121 0 152 13 161 68 8 46 25 82 39 82 18 0 56 -30 56 -44 0 -14 108
-38 115 -26 7 11 -35 45 -100 80 -131 71 -148 80 -162 80 -7 0 -18 11 -23 25
-11 28 -37 33 -46 10 -4 -8 -10 -15 -15 -15 -5 0 -9 7 -9 15 0 8 -7 15 -15 15
-9 0 -12 -6 -8 -16 4 -12 0 -15 -18 -12 -13 1 -23 7 -21 13 2 5 -5 12 -15 16
-25 9 -134 9 -158 0z m149 -33 c-3 -4 -9 -8 -15 -8 -5 0 -9 4 -9 8 0 5 7 9 15
9 8 0 12 -4 9 -9z m94 -98 c10 0 13 -3 6 -10 -11 -11 -54 -2 -54 12 0 6 7 7
16 4 9 -3 23 -6 32 -6z m62 -26 c0 -17 -22 -14 -28 4 -2 7 3 12 12 12 9 0 16
-7 16 -16z m-130 -15 c0 -25 -33 -22 -38 4 -2 12 3 17 17 17 15 0 21 -6 21
-21z m-250 -104 c0 -9 -6 -12 -15 -9 -8 4 -12 10 -9 15 8 14 24 10 24 -6z"/>
<path d="M3915 6199 c-262 -39 -394 -96 -456 -195 -27 -45 -20 -52 17 -16 46
44 60 53 77 46 15 -5 15 -9 2 -34 -8 -16 -31 -41 -50 -56 -41 -31 -44 -44 -10
-44 14 0 25 -4 25 -9 0 -5 31 -9 69 -8 54 2 67 5 59 14 -8 10 -15 10 -32 2
-16 -9 -19 -9 -9 1 6 7 26 15 44 19 30 6 31 8 16 23 -24 23 -21 34 12 57 38
27 47 26 56 -6 3 -15 15 -39 26 -54 10 -15 19 -34 19 -42 0 -8 7 -18 16 -21
28 -11 121 -6 189 9 36 9 71 13 76 9 13 -8 162 -6 184 2 26 10 17 39 -27 90
-24 27 -47 52 -53 56 -6 5 -6 11 2 19 10 10 18 10 38 1 23 -11 24 -10 13 8 -7
10 -16 16 -20 14 -4 -3 -8 -1 -8 4 0 16 13 21 31 12 25 -14 33 4 15 33 -45 67
-159 91 -321 66z m-110 -60 c0 -7 -8 -15 -17 -17 -18 -3 -25 18 -11 32 10 10
28 1 28 -15z m188 4 c22 -13 -11 -22 -61 -17 -72 7 -85 11 -77 24 6 10 120 4
138 -7z m-297 -24 c5 -8 9 -7 14 1 9 14 40 6 40 -10 0 -5 -9 -10 -19 -10 -10
0 -21 -6 -24 -13 -5 -12 -104 -67 -120 -67 -4 0 -7 9 -7 20 0 11 7 20 15 20 8
0 15 9 15 20 0 11 12 26 28 34 33 18 49 20 58 5z m406 -22 c4 -7 2 -14 -4 -16
-7 -2 -14 1 -16 8 -2 6 -12 11 -22 11 -10 0 -22 5 -26 12 -5 8 2 9 26 4 19 -3
37 -12 42 -19z m-182 -69 c0 -6 -7 -7 -16 -4 -9 3 -20 6 -25 6 -5 0 -9 4 -9 9
0 4 11 6 25 3 14 -2 25 -9 25 -14z m65 -8 c0 -8 -10 -16 -22 -18 -18 -3 -23 2
-23 18 0 16 5 21 23 18 12 -2 22 -10 22 -18z m130 0 c28 -17 55 -62 55 -90 0
-4 -20 -5 -44 -3 -26 3 -46 1 -50 -6 -10 -15 -46 -14 -46 2 1 6 7 23 15 37 8
14 14 37 15 53 0 32 12 34 55 7z m-277 -23 c4 -20 -25 -34 -40 -19 -15 15 -1
44 19 40 10 -2 19 -11 21 -21z m367 -27 c3 -5 1 -10 -4 -10 -6 0 -11 5 -11 10
0 6 2 10 4 10 3 0 8 -4 11 -10z"/>
<path d="M7047 6211 c-18 -6 -18 -8 -2 -21 22 -18 43 -62 38 -77 -3 -7 0 -13
6 -13 24 0 74 -62 78 -98 2 -21 8 -67 14 -105 8 -50 8 -80 -1 -119 -12 -49
-37 -91 -50 -83 -3 2 -7 -15 -9 -37 -1 -23 -8 -69 -16 -102 -19 -79 -18 -100
1 -56 9 19 17 40 18 45 1 6 4 15 8 20 3 6 25 69 48 140 53 163 53 216 3 403
-24 90 -73 128 -136 103z"/>
<path d="M5791 6196 c22 -22 84 -66 93 -66 17 1 -65 70 -82 70 -9 0 -13 -2
-11 -4z"/>
<path d="M3168 6133 c6 -2 18 -2 25 0 6 3 1 5 -13 5 -14 0 -19 -2 -12 -5z"/>
<path d="M2597 6048 c-18 -14 -22 -35 -31 -143 -4 -38 -9 -96 -11 -128 -7 -75
11 -136 66 -223 44 -69 64 -72 36 -6 -41 96 -47 135 -37 212 19 151 24 176 36
207 16 37 26 45 48 37 12 -5 13 -10 5 -26 -6 -10 -9 -29 -7 -40 3 -18 6 -16
20 14 l17 36 -32 36 c-35 39 -78 48 -110 24z"/>
<path d="M7093 5869 c10 -116 29 -146 23 -35 -3 49 -11 94 -17 100 -9 8 -10
-7 -6 -65z"/>
<path d="M2730 5870 c0 -5 5 -10 10 -10 6 0 10 5 10 10 0 6 -4 10 -10 10 -5 0
-10 -4 -10 -10z"/>
<path d="M6770 5806 c-10 -35 -9 -51 1 -80 7 -20 16 -36 20 -36 4 0 14 -16 23
-35 10 -20 21 -33 26 -30 6 3 7 -1 4 -9 -3 -9 -2 -16 4 -16 19 0 21 31 6 77
-10 30 -14 63 -10 90 5 38 3 44 -23 63 -16 11 -31 20 -34 20 -2 0 -10 -20 -17
-44z"/>
<path d="M2975 5810 c-4 -6 -11 -7 -17 -4 -5 4 -8 -1 -6 -10 4 -24 20 -22 30
3 8 22 4 28 -7 11z"/>
<path d="M4213 5775 c-3 -9 -3 -18 0 -21 10 -10 47 7 47 22 0 19 -39 18 -47
-1z"/>
<path d="M4121 5741 c-18 -11 -4 -18 43 -22 25 -3 41 1 44 9 2 7 -6 12 -21 12
-14 0 -31 2 -39 5 -7 3 -19 1 -27 -4z"/>
<path d="M2896 5692 c-3 -5 -4 -50 -3 -100 2 -69 5 -92 15 -92 8 0 12 5 10 12
-2 6 6 21 19 34 30 30 29 57 -2 111 -27 45 -31 48 -39 35z"/>
<path d="M6910 5465 c0 -24 -37 -73 -60 -80 -28 -9 -25 -22 7 -28 30 -6 86 13
98 33 8 13 -3 85 -12 76 -3 -3 -12 -1 -20 5 -10 9 -13 8 -13 -6z"/>
<path d="M2830 5391 c0 -5 -9 -11 -20 -14 -11 -3 -19 -9 -18 -14 2 -4 -3 -22
-10 -39 -12 -28 -11 -36 3 -64 15 -29 19 -31 65 -29 51 3 85 -14 76 -37 -6
-16 8 -26 57 -43 50 -17 65 -4 43 35 -26 49 -53 74 -78 74 -29 0 -49 13 -52
32 -3 22 -50 108 -58 108 -5 0 -8 -4 -8 -9z"/>
<path d="M6694 5358 c-54 -65 -50 -99 10 -74 25 10 40 25 47 46 6 16 15 30 21
30 5 0 6 5 3 10 -11 18 -61 11 -81 -12z"/>
<path d="M6974 5269 c-19 -22 -19 -22 3 -10 24 12 39 31 25 31 -5 0 -17 -10
-28 -21z"/>
<path d="M2740 5162 c0 -10 63 -72 73 -72 16 0 5 23 -22 51 -29 28 -51 37 -51
21z"/>
<path d="M4333 4980 c-25 -10 -30 -39 -13 -70 9 -16 18 -19 54 -14 27 4 46 2
50 -5 10 -15 36 -14 36 2 0 20 -61 85 -85 91 -11 2 -30 1 -42 -4z"/>
<path d="M4868 4975 c-30 -17 -33 -29 -18 -70 15 -39 37 -42 73 -7 18 16 41
32 51 34 23 4 29 18 17 37 -13 20 -91 24 -123 6z"/>
<path d="M5370 4234 c-30 -7 -81 -13 -112 -14 -32 0 -58 -4 -58 -10 0 -6 58
-9 155 -7 85 1 155 5 155 9 0 9 -28 24 -60 31 -14 2 -50 -1 -80 -9z"/>
<path d="M4255 4229 c-22 -6 -83 -14 -137 -19 -88 -8 -159 -29 -158 -48 1 -4
7 -18 15 -32 12 -23 19 -25 92 -26 43 0 97 -4 120 -8 35 -7 44 -5 59 13 10 11
23 21 30 21 6 0 19 9 29 20 10 11 27 20 37 20 11 0 28 5 39 11 17 9 21 7 26
-10 4 -16 9 -19 18 -11 8 7 21 7 36 1 13 -5 29 -9 34 -11 6 -1 17 -7 25 -14
21 -17 79 -40 86 -33 3 3 26 -1 51 -8 41 -12 48 -12 79 6 19 10 39 19 44 19 5
0 20 11 34 25 15 15 36 25 54 25 16 0 36 7 43 17 13 15 10 16 -38 9 -39 -5
-61 -3 -82 8 -21 12 -62 16 -153 16 -67 -1 -149 0 -180 0 -31 0 -73 -6 -94
-15 -39 -16 -62 -12 -45 9 12 14 4 27 -13 25 -6 -1 -29 -5 -51 -10z"/>
<path d="M5170 4210 c0 -5 5 -10 10 -10 6 0 10 5 10 10 0 6 -4 10 -10 10 -5 0
-10 -4 -10 -10z"/>
<path d="M6480 3568 c0 -184 -10 -233 -64 -340 -20 -38 -36 -77 -36 -87 0 -11
-6 -21 -12 -24 -10 -4 -10 -7 0 -18 14 -15 17 -99 3 -99 -18 0 -27 -74 -16
-127 4 -17 2 -21 -10 -16 -13 4 -15 0 -9 -21 4 -16 1 -32 -6 -41 -7 -8 -14
-29 -16 -47 -2 -17 -8 -36 -13 -42 -4 -6 -9 -26 -9 -45 0 -18 -8 -41 -17 -51
-9 -10 -15 -24 -14 -32 5 -24 -11 -117 -21 -123 -6 -4 -8 -10 -5 -15 10 -16
-19 -76 -55 -115 -31 -34 -86 -103 -185 -234 -11 -14 -24 -31 -30 -38 -5 -7
-28 -33 -50 -59 -22 -26 -73 -80 -112 -119 -40 -40 -73 -78 -73 -86 0 -8 -9
-20 -19 -26 -11 -7 -44 -45 -74 -85 -82 -110 -154 -178 -212 -202 -17 -7 -39
-25 -48 -40 -10 -14 -36 -39 -58 -55 -22 -16 -52 -47 -66 -68 -14 -21 -43 -58
-64 -82 -22 -24 -39 -52 -39 -62 0 -19 -63 -83 -83 -85 -7 0 -20 -2 -29 -2
-13 -2 -16 -10 -12 -34 3 -31 -13 -107 -26 -118 -3 -3 -26 -72 -50 -153 -24
-81 -47 -150 -52 -153 -4 -3 -8 -14 -8 -25 0 -23 -27 -25 -58 -3 -12 8 -30 14
-40 13 -9 -1 -24 -1 -32 0 -12 1 -12 4 3 12 20 12 23 29 5 29 -7 0 -21 7 -31
14 -15 12 -17 20 -9 48 8 30 7 35 -14 45 -27 13 -27 13 -15 -20 8 -20 6 -27
-7 -32 -9 -3 -18 -2 -20 4 -2 5 -10 7 -19 4 -13 -5 -15 -2 -11 15 4 12 2 22
-3 22 -5 0 -9 -5 -9 -11 0 -5 -4 -7 -10 -4 -5 3 -10 15 -10 26 0 14 -6 19 -17
17 -10 -1 -24 1 -30 5 -9 5 -13 2 -13 -9 0 -13 -3 -14 -14 -5 -11 9 -15 5 -19
-19 -4 -16 -10 -30 -15 -30 -4 0 -36 29 -71 64 -61 62 -63 65 -92 172 -17 60
-34 129 -38 154 -5 25 -16 71 -25 102 -9 32 -18 72 -21 89 -3 18 -11 41 -18
53 -6 11 -13 28 -14 36 -7 54 -11 68 -21 93 -6 15 -16 27 -22 27 -6 0 -8 5 -5
11 9 13 -14 99 -31 119 -7 8 -25 44 -40 80 -15 36 -41 82 -57 103 -16 20 -26
37 -22 37 3 0 -3 13 -14 29 -12 16 -21 33 -21 38 0 5 -11 20 -25 33 -14 13
-25 28 -25 33 0 5 -14 28 -31 52 -26 36 -31 50 -26 79 6 35 -6 58 -17 34 -3
-7 -4 -4 -1 8 3 12 -3 29 -17 44 -15 16 -18 25 -10 28 18 6 15 27 -8 47 -11
10 -20 24 -20 30 0 7 -6 25 -14 40 -8 15 -12 33 -9 40 2 8 -1 24 -8 37 -7 13
-13 33 -14 45 0 12 -8 30 -17 40 -9 10 -20 34 -23 52 -3 19 -15 53 -25 77 -11
24 -20 48 -20 54 0 7 -9 23 -20 37 -11 14 -20 32 -20 39 0 7 -12 35 -26 61
-34 60 -90 223 -104 304 -6 35 -13 73 -16 84 -2 11 -9 45 -15 75 -6 30 -15 62
-19 71 -4 8 -13 72 -20 142 -7 70 -17 127 -22 127 -5 0 -45 -37 -89 -82 -81
-84 -175 -216 -244 -343 -96 -175 -481 -748 -563 -837 -15 -17 -51 -36 -91
-48 -36 -12 -75 -26 -86 -31 -96 -43 -251 -109 -258 -109 -5 0 -21 -9 -36 -19
-30 -22 -66 -35 -331 -128 -261 -91 -328 -115 -470 -168 -69 -26 -142 -53
-163 -59 l-38 -12 83 -99 c113 -137 348 -376 494 -504 322 -282 632 -492 1004
-680 559 -283 1086 -435 1740 -503 163 -17 695 -16 860 1 636 65 1169 217
1709 487 396 197 707 407 1042 700 109 96 449 439 449 454 0 5 -73 45 -162 91
-90 45 -201 103 -248 129 -47 26 -137 73 -200 105 -120 61 -377 201 -396 216
-6 5 -25 37 -42 72 -70 142 -157 328 -197 423 -24 55 -68 150 -98 210 -30 60
-78 159 -107 219 -95 200 -185 340 -285 441 -74 76 -187 164 -210 164 -3 0 -5
-73 -5 -162z m-2744 -1473 c14 -13 12 -15 -10 -13 -26 2 -32 9 -19 21 9 10 13
9 29 -8z m24 -47 c0 -5 12 -25 26 -43 14 -19 23 -39 19 -45 -3 -6 5 -24 19
-41 14 -17 26 -42 26 -55 0 -14 9 -34 20 -46 11 -12 20 -31 20 -43 0 -12 3
-25 6 -28 13 -13 41 -106 30 -100 -6 4 -5 0 1 -9 7 -8 10 -18 6 -21 -3 -4 -1
-7 6 -7 7 0 10 -4 7 -9 -3 -5 1 -12 10 -15 9 -3 14 -12 11 -19 -2 -6 2 -25 10
-41 8 -15 10 -25 4 -22 -6 4 -11 3 -11 -3 0 -5 5 -13 10 -16 6 -3 17 -20 26
-37 14 -27 14 -30 1 -25 -13 5 -12 -1 4 -28 13 -21 16 -36 10 -40 -10 -6 -27
26 -50 98 -7 20 -16 37 -20 37 -4 0 -29 39 -55 88 -26 48 -67 112 -91 142 -50
62 -95 136 -95 156 0 8 6 14 14 14 12 0 12 5 -1 31 -12 23 -13 33 -4 38 9 6 9
15 2 35 -6 14 -10 37 -9 50 2 18 7 22 25 18 13 -2 23 -9 23 -14z m276 -757
c-3 -5 1 -14 8 -20 10 -8 13 -23 9 -45 -3 -20 -1 -36 6 -40 16 -10 14 -26 -4
-26 -9 0 -16 14 -20 38 -3 20 -8 49 -10 63 -2 15 -1 29 2 33 9 9 15 7 9 -3z
m28 -215 c2 -14 -1 -23 -5 -20 -5 3 -9 17 -9 31 0 32 11 24 14 -11z m-74 -16
c0 -5 -2 -10 -4 -10 -3 0 -8 5 -11 10 -3 6 -1 10 4 10 6 0 11 -4 11 -10z m178
-205 c94 -40 138 -135 97 -214 -30 -59 -134 -67 -201 -16 -76 58 -94 131 -48
192 41 54 86 65 152 38z m793 -142 c-8 -15 -10 -15 -11 -2 0 17 10 32 18 25 2
-3 -1 -13 -7 -23z m810 -333 c5 0 9 -15 7 -33 -1 -18 2 -38 6 -45 11 -19 -4
-82 -21 -82 -7 0 -13 -6 -12 -12 3 -28 -2 -38 -19 -38 -31 0 -55 36 -60 91 -7
77 29 136 76 123 8 -2 18 -4 23 -4z m-2091 -31 c0 -5 -4 -9 -10 -9 -5 0 -10 7
-10 16 0 8 5 12 10 9 6 -3 10 -10 10 -16z"/>
<path d="M3670 3443 c0 -14 150 -166 250 -253 41 -36 86 -75 100 -88 60 -56
210 -164 270 -194 63 -32 175 -74 305 -114 83 -25 255 -30 370 -10 177 31 293
75 435 166 8 6 24 14 35 19 12 5 27 16 34 25 11 14 11 16 -2 16 -9 0 -23 -8
-33 -17 -9 -10 -24 -18 -33 -20 -8 -1 -17 -7 -19 -12 -2 -6 -11 -11 -20 -11
-9 0 -28 -9 -42 -20 -14 -11 -40 -20 -57 -20 -18 0 -33 -4 -33 -10 0 -5 -7
-10 -16 -10 -9 0 -32 -10 -52 -22 -28 -17 -40 -19 -62 -11 -22 8 -29 7 -38 -7
-7 -12 -21 -16 -47 -15 -19 1 -39 5 -42 9 -12 11 -48 6 -71 -10 -13 -9 -30
-13 -40 -9 -28 11 -134 27 -179 26 -24 0 -43 4 -43 9 0 6 -10 10 -22 10 -13 0
-43 14 -68 30 -26 18 -58 30 -77 30 -20 0 -36 7 -43 18 -8 11 -13 13 -16 5 -3
-7 -12 -9 -20 -6 -7 3 -11 9 -8 14 3 5 -6 13 -20 19 -14 5 -26 14 -26 20 0 5
-15 10 -33 10 -37 0 -77 24 -77 46 0 10 -7 13 -22 9 -17 -4 -35 6 -72 40 -27
25 -55 45 -63 45 -7 0 -13 6 -13 13 0 6 -18 23 -40 37 -22 13 -40 28 -40 32 0
4 -7 8 -16 8 -8 0 -12 -4 -9 -10 3 -5 1 -10 -4 -10 -6 0 -11 5 -11 10 0 6 -6
10 -12 10 -7 0 -22 14 -33 30 -11 17 -26 28 -32 25 -7 -2 -16 1 -20 8 -5 7
-28 25 -53 41 -25 16 -62 48 -82 70 -20 23 -37 36 -38 29z"/>
<path d="M4875 1051 c-3 -5 -1 -12 5 -16 5 -3 10 1 10 9 0 18 -6 21 -15 7z"/>
<path d="M4740 690 c0 -5 5 -10 11 -10 5 0 7 5 4 10 -3 6 -8 10 -11 10 -2 0
-4 -4 -4 -10z"/>
<path d="M4840 610 c0 -5 5 -10 11 -10 5 0 7 5 4 10 -3 6 -8 10 -11 10 -2 0
-4 -4 -4 -10z"/>
</g>
</svg>
