<?xml version="1.0" standalone="no"?>
<!DOCTYPE svg PUBLIC "-//W3C//DTD SVG 20010904//EN"
 "http://www.w3.org/TR/2001/REC-SVG-20010904/DTD/svg10.dtd">
<svg version="1.0" xmlns="http://www.w3.org/2000/svg"
 width="960.000000pt" height="960.000000pt" viewBox="0 0 960.000000 960.000000"
 preserveAspectRatio="xMidYMid meet">
<g transform="translate(0.000000,960.000000) scale(0.100000,-0.100000)"
fill="#000000" stroke="none">
<path d="M4640 9318 c-14 -6 -38 -18 -55 -26 -16 -7 -62 -18 -102 -22 -39 -5
-85 -16 -102 -24 -16 -9 -47 -16 -68 -16 -22 0 -66 -7 -98 -16 -57 -15 -98
-14 -137 1 -14 5 -18 2 -18 -12 0 -11 -11 -30 -25 -43 -23 -22 -26 -22 -43 -7
-12 11 -22 13 -32 7 -8 -5 -41 -10 -72 -10 -46 0 -61 -4 -78 -22 -20 -21 -28
-23 -125 -19 -78 2 -117 -1 -154 -14 -53 -17 -54 -19 -63 -104 -2 -19 -13 -27
-48 -38 -25 -8 -57 -14 -72 -14 -19 1 -28 -4 -28 -14 0 -8 -5 -15 -11 -15 -19
0 -98 -73 -103 -96 -4 -15 -16 -26 -34 -30 -15 -3 -42 -13 -60 -22 -38 -20
-202 -177 -202 -195 0 -7 -11 -33 -25 -59 -30 -57 -30 -54 -4 -61 29 -8 21
-43 -9 -40 -27 3 -134 -102 -153 -151 -7 -17 -18 -38 -25 -46 -18 -22 -19 -77
-1 -133 9 -29 11 -49 5 -53 -5 -3 -2 -12 8 -19 22 -16 12 -45 -17 -45 -12 0
-23 8 -26 20 -6 23 -16 25 -32 6 -8 -10 -6 -19 9 -39 11 -14 20 -27 20 -30 0
-13 -69 -47 -84 -41 -21 8 -22 -26 -1 -67 12 -21 13 -34 5 -48 -5 -11 -10 -30
-10 -42 0 -13 -10 -33 -22 -46 l-22 -23 27 -28 c34 -36 34 -46 -3 -72 -57 -40
-87 -145 -56 -192 16 -25 13 -58 -5 -58 -5 0 -9 -9 -9 -19 0 -10 -9 -38 -20
-62 -25 -57 -25 -68 1 -62 19 5 21 3 17 -26 -3 -17 -1 -34 4 -37 4 -3 8 3 8
14 0 26 45 66 66 58 10 -4 14 -12 10 -22 -4 -9 -11 -37 -18 -63 -6 -25 -15
-51 -20 -57 -5 -7 -2 -27 8 -49 13 -31 14 -46 4 -83 -6 -27 -7 -48 -2 -51 5
-3 12 -85 16 -181 5 -121 12 -188 23 -217 16 -44 27 -53 36 -30 3 6 6 2 6 -10
1 -13 -3 -23 -8 -23 -6 0 -11 -14 -13 -32 -3 -27 -9 -33 -45 -45 -58 -20 -134
-104 -157 -174 -25 -78 -49 -246 -43 -305 3 -28 24 -96 47 -150 22 -55 58
-146 80 -204 100 -271 138 -346 219 -433 82 -88 263 -143 346 -105 30 14 71
-4 81 -35 4 -14 9 -16 17 -8 14 14 30 15 22 1 -3 -5 -2 -10 3 -10 6 0 10 -10
10 -22 1 -40 14 -93 25 -100 7 -4 6 -12 -2 -22 -15 -17 -7 -51 9 -41 5 3 10 1
10 -4 0 -6 -4 -11 -10 -11 -14 0 -12 -54 5 -125 8 -33 14 -60 14 -60 0 0 3
-19 7 -42 3 -24 11 -43 16 -43 5 0 8 -15 7 -33 -2 -18 0 -37 4 -43 3 -6 7 -28
9 -50 1 -21 7 -43 12 -47 8 -6 8 -10 0 -13 -13 -5 5 -105 20 -116 6 -4 11 -27
11 -53 0 -29 4 -44 11 -41 8 3 12 -12 12 -42 1 -74 11 -212 20 -273 5 -31 7
-88 5 -127 -3 -48 0 -72 7 -72 6 0 8 -5 4 -12 -8 -12 -8 -29 2 -165 4 -61 2
-73 -10 -73 -9 0 -36 -11 -61 -25 -25 -14 -50 -23 -56 -20 -15 10 -79 -23 -79
-40 0 -8 -9 -29 -20 -47 -14 -23 -20 -51 -20 -89 0 -41 -5 -63 -20 -82 -23
-29 -24 -40 -9 -65 8 -13 9 -30 1 -63 -24 -96 -39 -140 -48 -140 -5 0 -11 22
-14 48 l-6 48 -13 -30 c-16 -37 -17 -55 -7 -129 6 -47 5 -57 -6 -54 -7 3 -18
27 -24 54 l-11 49 -11 -40 c-15 -55 -30 -139 -38 -208 -7 -62 -34 -107 -63
-107 -10 0 -26 -10 -37 -21 -56 -63 -126 -93 -163 -70 -11 7 -2 15 35 35 27
14 46 25 42 26 -18 1 -126 -32 -163 -50 -23 -11 -47 -20 -53 -20 -15 0 -16
-16 -2 -25 21 -13 8 -33 -42 -67 -75 -49 -84 -51 -131 -27 -30 16 -42 18 -45
9 -4 -12 -21 -28 -57 -54 -16 -12 -17 -16 -6 -30 11 -13 11 -19 0 -32 -19 -23
-119 -90 -148 -99 -14 -4 -51 -24 -84 -44 l-59 -36 -4 -84 c-2 -53 -9 -92 -19
-107 -9 -15 -18 -57 -21 -107 -3 -45 -11 -91 -18 -103 -8 -11 -21 -58 -30
-103 -8 -46 -21 -90 -27 -97 -14 -18 -26 -164 -13 -164 5 0 32 -19 59 -41 l50
-41 7 73 c5 40 12 87 18 104 5 16 14 63 20 104 6 41 19 88 29 105 11 18 21 61
25 101 3 39 13 88 21 110 8 22 14 60 15 85 0 25 6 70 14 100 7 30 17 71 20 91
8 45 11 47 109 89 59 26 80 31 89 22 9 -9 9 -18 0 -38 -9 -17 -10 -55 -6 -120
5 -68 4 -97 -5 -108 -8 -9 -14 -54 -16 -108 -2 -51 -11 -113 -19 -137 -29 -79
-25 -84 47 -76 73 8 87 21 87 84 0 25 5 75 11 111 6 36 12 85 14 110 6 97 18
160 32 171 8 7 50 13 101 13 l87 1 -2 -167 c-2 -142 0 -168 12 -168 9 0 15 10
15 25 0 29 17 34 27 8 4 -10 13 -22 21 -27 20 -12 -3 -26 -45 -26 -40 0 -43
-5 -49 -82 -2 -34 -12 -75 -23 -93 -35 -60 -35 -146 1 -118 18 14 57 23 74 16
18 -7 18 -47 0 -62 -8 -7 -12 -20 -9 -30 3 -13 -2 -20 -19 -24 -57 -16 -87 0
-57 30 6 6 8 16 5 22 -14 21 -24 10 -31 -32 -4 -23 -11 -49 -15 -58 -9 -16
-24 -269 -25 -399 l0 -75 70 -37 c39 -21 72 -38 75 -38 3 0 5 100 6 222 0 250
16 443 39 492 8 17 16 50 17 72 1 21 10 59 21 84 15 35 19 66 18 140 -1 67 3
103 14 124 8 15 15 35 15 42 0 8 5 14 11 14 6 0 9 -7 6 -14 -5 -13 7 -14 77
-9 80 6 84 5 96 -17 9 -17 11 -51 6 -122 -8 -110 -5 -123 25 -107 17 9 97 14
146 10 6 -1 30 -24 53 -53 35 -45 39 -53 26 -66 -12 -12 -10 -20 15 -57 16
-24 36 -45 44 -49 9 -3 15 -18 15 -36 0 -18 9 -39 23 -52 l22 -23 -32 -3 c-34
-3 -40 -12 -45 -77 -3 -28 0 -30 52 -43 81 -19 84 -19 95 5 12 29 19 29 39 -2
9 -14 35 -37 57 -51 53 -33 85 -103 92 -202 6 -74 11 -92 28 -92 18 0 89 -53
102 -75 6 -12 24 -45 39 -72 15 -28 33 -53 41 -56 20 -8 53 14 79 52 13 19 28
34 33 34 6 0 15 -36 21 -79 7 -44 14 -88 17 -99 3 -11 9 -41 12 -68 7 -50 19
-61 30 -26 4 11 17 25 30 31 29 13 22 38 -10 38 -33 0 -40 17 -19 41 28 31 57
21 62 -21 2 -19 10 -42 18 -50 14 -13 15 -6 9 70 -9 125 -15 169 -25 175 -5 3
-5 17 1 33 21 55 59 56 128 1 63 -50 121 -124 121 -154 0 -27 24 -49 72 -64
20 -7 42 -19 48 -27 7 -7 20 -14 30 -14 22 0 206 -79 240 -102 19 -14 36 -16
80 -12 66 8 80 22 73 74 -5 36 -3 40 21 50 15 5 41 10 57 10 16 0 38 6 50 12
17 11 22 10 39 -12 11 -14 19 -30 17 -37 -1 -6 -37 -48 -81 -92 -85 -88 -103
-95 -185 -71 -19 5 -36 8 -38 6 -2 -2 2 -26 8 -55 10 -46 18 -56 42 -52 4 1
10 -6 13 -14 9 -22 51 -18 65 6 9 17 17 20 41 15 17 -3 36 -12 42 -20 9 -12
39 -12 191 -1 227 16 275 23 275 41 0 8 10 14 23 14 12 0 28 4 35 9 7 4 36 4
65 -1 57 -10 193 7 208 26 32 38 79 106 79 114 0 5 9 17 21 27 l20 19 -23 18
c-20 15 -21 20 -10 35 6 10 23 41 36 68 26 55 59 90 74 81 5 -3 15 -27 23 -53
12 -43 14 -45 20 -23 3 14 4 37 2 51 -4 21 0 28 25 38 17 7 43 11 59 9 28 -3
28 -3 28 53 0 31 6 63 13 72 9 10 10 17 2 22 -11 7 -13 75 -4 124 4 17 18 42
33 57 34 34 61 105 48 126 -16 25 15 123 39 123 10 0 24 -10 30 -23 11 -23 11
-22 18 9 8 44 33 69 68 69 37 0 37 18 -3 120 -28 74 -48 96 -64 70 -11 -18
-41 -10 -55 15 -11 21 -10 30 11 72 13 26 32 58 42 70 16 18 17 25 7 44 -7 12
-15 45 -19 73 -5 43 -9 51 -33 57 -30 8 -39 -6 -43 -63 -2 -16 -11 -40 -21
-54 -30 -42 -31 -44 -75 -137 -23 -49 -51 -100 -64 -115 -23 -28 -43 -77 -28
-71 4 2 30 15 57 29 l48 25 19 -24 c24 -29 24 -45 2 -36 -42 17 -52 16 -63 -5
-9 -18 -8 -25 5 -40 26 -29 -1 -34 -43 -8 -20 13 -46 28 -57 34 -25 13 -24 45
6 160 11 45 19 95 17 110 l-3 29 -17 -31 c-25 -46 -48 -115 -48 -145 0 -15 -6
-32 -14 -38 -8 -7 -12 -20 -9 -30 2 -10 -7 -41 -21 -69 -40 -80 -32 -200 9
-146 13 17 16 17 25 4 19 -30 4 -80 -20 -65 -8 5 -11 4 -7 -1 7 -12 -22 -74
-36 -74 -6 0 -8 20 -5 50 l5 51 -22 -21 c-12 -11 -28 -20 -36 -20 -8 -1 -31
-16 -53 -35 -35 -31 -38 -38 -33 -70 4 -24 -1 -54 -14 -89 -22 -58 -63 -93
-136 -117 -59 -19 -143 -69 -143 -85 0 -19 -44 -36 -95 -38 -28 -1 -40 -5 -40
-16 0 -20 -18 -32 -26 -18 -13 21 -102 -48 -152 -116 -12 -16 -17 -10 -48 50
-22 46 -64 100 -124 164 -50 52 -110 121 -133 153 -45 60 -102 171 -102 197 0
15 46 60 61 60 23 0 195 171 205 205 4 11 23 40 43 65 49 61 80 105 91 132 11
26 27 51 53 87 9 13 17 32 17 42 0 9 6 30 14 46 57 111 81 174 93 238 3 16 11
41 17 55 7 14 28 68 46 120 18 52 36 99 41 104 5 6 9 18 9 28 0 10 4 26 10 36
21 39 69 150 76 178 4 16 15 40 24 54 10 14 38 64 62 111 25 47 57 102 71 121
15 19 27 42 27 51 0 10 5 17 10 17 6 0 10 7 10 15 0 15 11 31 68 95 17 21 32
41 32 45 0 18 37 84 67 119 18 22 31 42 28 44 -2 3 3 12 13 21 9 9 28 36 41
61 13 25 29 50 36 55 7 6 21 35 31 65 11 30 21 57 24 60 3 3 7 15 7 28 1 12 9
29 17 38 18 17 21 28 7 19 -5 -3 -12 -1 -16 5 -3 5 0 10 7 10 24 0 67 199 78
360 6 80 12 170 15 200 3 30 6 74 8 97 2 22 8 48 15 56 7 8 21 38 31 68 10 30
30 76 44 102 15 27 26 52 25 55 -1 4 3 17 10 30 7 12 10 22 7 22 -3 0 0 10 7
23 6 12 13 29 13 37 1 8 9 41 18 72 8 32 11 58 6 58 -5 0 -9 -9 -9 -19 0 -11
-6 -26 -12 -33 -7 -7 -14 -24 -16 -38 -1 -14 -3 -31 -4 -37 -1 -7 -6 -13 -11
-13 -5 0 -6 16 -2 37 6 33 5 35 -9 24 -9 -7 -13 -18 -10 -23 4 -6 -4 -5 -16 2
-18 9 -24 9 -30 0 -4 -7 -17 -10 -28 -8 -22 6 -39 -27 -18 -36 6 -3 -1 -3 -16
0 -17 4 -28 2 -28 -5 0 -6 9 -11 20 -11 24 0 25 -8 3 -39 -9 -14 -11 -21 -5
-17 7 4 12 3 12 -2 0 -10 -23 -22 -41 -22 -5 0 -9 8 -9 17 0 15 -2 14 -15 -3
-17 -22 -19 -44 -5 -44 5 0 7 7 4 15 -4 10 -2 13 8 10 20 -8 11 -52 -10 -52
-40 0 -43 56 -5 106 16 21 26 45 24 59 -2 18 2 23 16 20 15 -3 18 3 15 35 -2
23 1 37 9 37 8 0 8 4 1 13 -15 18 7 97 28 98 10 0 11 2 3 6 -20 7 -16 43 5 44
11 1 8 4 -8 8 -31 10 -40 5 -40 -19 0 -10 -7 -26 -16 -34 -8 -9 -13 -19 -11
-24 3 -4 -1 -16 -9 -26 -13 -19 -14 -19 -31 0 -10 11 -14 15 -10 8 9 -14 -1
-64 -14 -64 -5 0 -22 -14 -39 -32 -17 -17 -33 -28 -37 -25 -3 4 -13 -2 -21
-14 -19 -28 -18 -120 3 -131 11 -7 13 -14 5 -28 -16 -29 -13 -93 4 -87 10 4
13 -1 10 -16 -2 -12 -2 -16 2 -9 3 6 15 12 25 12 11 0 17 4 14 10 -3 6 1 7 9
4 16 -6 21 -22 18 -56 -1 -10 4 -18 10 -18 7 0 3 -7 -8 -15 -10 -8 -15 -15
-11 -15 4 0 -5 -11 -20 -25 -17 -15 -21 -23 -10 -19 27 10 20 -11 -9 -25 -16
-7 -24 -17 -21 -25 3 -8 -1 -17 -9 -20 -24 -9 -26 -7 -14 13 12 23 -3 37 -18
18 -6 -7 -15 -25 -21 -40 -6 -15 -18 -27 -26 -27 -11 0 -15 -7 -13 -22 2 -16
-2 -22 -11 -20 -12 3 -12 0 -1 -12 8 -11 9 -16 1 -16 -6 0 -11 -9 -11 -19 0
-11 -9 -22 -19 -26 -12 -3 -18 -12 -15 -20 3 -7 -8 -28 -25 -47 -24 -26 -30
-29 -31 -15 0 14 -7 18 -27 15 -40 -4 -45 -49 -8 -66 14 -6 25 -16 25 -22 0
-7 -7 -4 -16 5 -9 9 -21 14 -28 12 -6 -2 -17 3 -24 12 -11 14 -12 13 -7 -6 4
-13 2 -23 -3 -23 -5 0 -12 -9 -15 -21 -3 -12 -10 -18 -16 -14 -7 4 -10 -3 -8
-17 1 -17 -3 -23 -22 -24 -26 -2 -44 -22 -36 -41 18 -46 18 -48 5 -36 -8 7
-14 27 -14 46 -1 30 -4 33 -33 35 -18 2 -33 -2 -33 -8 0 -5 9 -10 19 -10 10 0
22 -7 25 -16 9 -25 -4 -32 -19 -11 -11 15 -15 16 -27 4 -7 -8 -24 -20 -38 -27
-23 -13 -24 -14 -5 -21 20 -8 20 -8 0 -10 -11 -1 -27 -2 -36 -1 -12 1 -15 -4
-12 -18 8 -29 -17 -17 -47 24 -29 40 -58 37 -67 -5 -6 -34 -23 -29 -23 7 0 30
-5 30 -34 -1 -13 -14 -30 -25 -39 -25 -11 0 -14 -7 -10 -22 l5 -23 -16 22
c-11 14 -23 20 -33 16 -11 -4 -14 -3 -9 5 5 8 0 12 -13 12 -11 0 -22 8 -24 18
-3 12 -5 11 -6 -6 0 -13 -5 -20 -11 -17 -5 3 -37 7 -70 7 -47 1 -60 5 -60 17
0 14 -2 14 -9 1 -6 -8 -8 -17 -5 -22 4 -7 -27 -28 -42 -28 -3 0 -4 15 -1 34
l6 35 -35 -20 c-38 -21 -84 -17 -84 7 0 8 -9 14 -20 14 -12 0 -20 7 -20 18 0
13 -2 14 -9 3 -5 -7 -14 -10 -21 -6 -9 6 -9 9 1 16 10 6 8 9 -7 9 -13 0 -24
-8 -27 -20 -3 -11 -12 -20 -21 -20 -20 0 -20 9 1 32 10 11 12 18 4 18 -6 0
-17 -12 -24 -26 l-12 -27 -5 24 c-5 19 -13 24 -39 25 -33 0 -58 24 -46 44 8
12 -5 13 -24 1 -22 -14 -52 5 -44 27 4 9 11 21 17 25 7 5 3 6 -8 3 -12 -4 -26
1 -38 13 -21 23 -44 19 -51 -10 -3 -10 -10 -19 -16 -19 -6 0 -8 6 -5 14 7 17
-32 41 -41 26 -3 -5 -12 -10 -18 -10 -7 0 -4 5 5 11 14 8 15 15 7 35 -8 22 -6
30 13 45 12 11 24 15 28 10 3 -6 11 -6 19 -2 9 6 6 10 -11 15 -17 6 -19 9 -8
13 21 9 40 30 33 37 -4 3 5 6 18 6 23 0 65 19 44 20 -24 1 23 20 50 20 39 0
76 10 71 19 -3 4 5 8 17 8 28 3 68 24 62 34 -3 4 20 5 50 2 51 -5 55 -4 48 13
-7 18 -6 18 11 1 10 -10 25 -16 32 -13 8 3 14 1 14 -4 0 -6 4 -10 10 -10 5 0
9 6 7 13 -1 7 8 11 26 10 20 -1 27 2 24 11 -4 9 2 12 17 9 13 -3 29 1 37 9 8
7 29 13 47 13 23 0 32 4 32 17 0 13 7 16 31 13 21 -3 29 0 26 8 -2 7 -13 11
-23 9 -18 -2 -18 -2 -1 9 14 8 22 7 36 -5 16 -15 17 -14 14 17 l-4 32 15 -25
c8 -14 15 -19 16 -12 0 9 5 10 19 2 27 -14 30 -13 24 10 -6 22 24 53 40 43 5
-3 6 9 2 26 -4 20 -3 31 5 31 6 0 8 5 5 10 -5 8 -12 7 -22 -2 -12 -10 -18 -9
-29 7 -8 10 -14 22 -14 27 0 4 -6 8 -14 8 -8 0 -16 7 -20 15 -3 8 -10 15 -17
15 -6 0 1 -14 16 -31 14 -17 23 -34 21 -37 -6 -5 -43 37 -62 70 -8 15 -25 20
-77 23 -37 2 -67 1 -67 -3 0 -4 -15 -8 -32 -8 -18 -1 -76 -4 -129 -6 -85 -4
-96 -2 -91 11 5 14 4 14 -13 1 -10 -8 -16 -10 -12 -4 4 6 -2 19 -13 29 -19 18
-20 17 -20 -4 0 -12 4 -19 10 -16 6 3 10 -1 10 -9 0 -12 -10 -15 -41 -14 -22
1 -43 7 -45 13 -3 7 -16 10 -30 7 -13 -2 -24 0 -24 6 0 7 13 9 31 7 39 -5 73
29 58 57 -7 13 -2 20 23 32 17 9 40 16 51 16 11 0 28 6 36 13 17 15 108 33
213 42 68 7 133 23 190 49 39 17 117 36 173 42 140 15 224 28 255 40 19 7 64
15 100 17 36 3 73 8 83 12 9 4 23 2 31 -4 11 -9 18 -8 30 5 16 15 18 15 29 0
10 -14 16 -15 38 -4 25 11 27 17 25 70 -1 56 -2 58 -33 69 -17 5 -49 11 -72
12 -26 1 -37 5 -31 12 9 11 -21 55 -39 55 -6 0 -11 5 -11 10 0 14 37 13 42 -2
3 -7 12 -9 23 -5 22 9 16 16 -21 23 -72 14 -73 14 -67 -20 l5 -31 -31 34 c-33
35 -58 36 -26 1 26 -29 -3 -27 -40 2 l-28 22 5 -22 c4 -12 2 -22 -3 -22 -5 0
-9 4 -9 8 0 10 -52 30 -68 24 -6 -2 -12 -11 -12 -20 0 -13 2 -14 9 -4 6 10 10
10 20 -2 10 -11 10 -19 0 -34 -13 -21 -24 -16 -47 23 -10 17 -11 15 -6 -15 4
-22 2 -30 -3 -22 -9 12 -43 7 -43 -7 0 -4 -66 -6 -147 -5 -80 2 -164 -1 -187
-6 -57 -12 -140 -23 -162 -21 -12 1 -26 51 -15 51 4 0 15 14 24 30 10 17 25
30 33 30 8 0 14 5 14 10 0 15 40 12 41 -2 0 -7 5 -3 11 9 8 18 16 20 44 16 31
-5 34 -4 34 21 0 14 4 26 9 26 14 0 6 64 -11 89 -9 13 -14 30 -11 39 5 11 2
14 -10 9 -11 -4 -14 -2 -10 9 3 8 12 13 20 9 11 -4 14 0 11 13 -7 24 8 52 27
52 8 0 15 6 15 14 0 7 16 21 35 30 19 9 46 31 59 49 32 41 61 157 36 142 -5
-3 -10 -1 -10 5 0 6 -4 8 -10 5 -5 -3 -10 -2 -10 2 0 5 -20 8 -45 8 -25 -1
-45 3 -45 7 0 4 -7 5 -15 1 -10 -3 -15 -1 -13 8 3 13 -43 20 -52 7 -3 -3 -19
-8 -35 -10 -17 -2 -33 -7 -36 -11 -3 -4 -17 -9 -30 -10 -13 -1 -30 -7 -37 -14
-16 -15 -38 -17 -47 -3 -3 6 -17 10 -30 10 -26 0 -86 29 -97 47 -5 6 -31 14
-59 18 -29 4 -67 14 -86 21 -18 8 -33 11 -33 8 0 -16 -29 20 -35 44 -4 15 -12
31 -18 35 -9 7 -9 10 0 13 7 3 9 12 6 20 -3 8 -1 14 4 14 12 0 10 37 -2 47 -4
5 -5 2 0 -6 5 -9 3 -12 -6 -9 -8 3 -13 13 -11 22 4 24 -16 46 -35 39 -11 -4
-14 -2 -9 5 4 7 2 12 -3 12 -6 0 -11 -7 -11 -15 0 -9 -9 -15 -24 -15 -16 0
-28 -9 -37 -28 -8 -16 -17 -30 -21 -30 -5 -1 -8 -4 -8 -7 0 -7 -29 -35 -64
-62 -16 -13 -26 -23 -23 -23 4 0 -9 -16 -28 -35 -19 -19 -35 -39 -35 -45 0 -5
-7 -10 -15 -10 -8 0 -15 -5 -15 -10 0 -6 -17 -27 -37 -47 -21 -20 -37 -40 -36
-44 2 -5 -7 -13 -18 -19 -11 -7 -29 -19 -40 -28 -11 -9 -23 -17 -27 -17 -21
-1 -49 -30 -44 -47 4 -17 -12 -24 -42 -19 -4 1 -15 -4 -23 -11 -9 -7 -27 -11
-42 -10 -28 2 -60 -13 -48 -24 3 -4 15 -1 24 7 16 13 17 12 4 -3 -14 -19 -57
-26 -46 -8 3 6 -1 10 -9 10 -9 0 -16 -6 -16 -13 0 -7 -9 -13 -20 -14 -11 -1
-20 2 -20 7 0 5 -7 7 -15 4 -8 -4 -15 -2 -15 3 0 12 -51 37 -69 34 -8 -1 -10
2 -6 9 4 7 -5 4 -20 -6 -21 -14 -26 -14 -25 -3 5 31 -1 49 -15 49 -8 0 -15 5
-15 10 0 6 -5 10 -11 10 -5 0 -8 -4 -4 -9 3 -5 1 -12 -5 -16 -6 -3 -14 4 -19
17 -8 17 -10 19 -10 5 -1 -13 -7 -16 -26 -11 -17 4 -25 2 -25 -7 0 -11 -3 -11
-10 1 -5 8 -10 11 -10 6 0 -5 -9 -1 -20 9 -15 14 -20 15 -20 4 -1 -8 -9 3 -19
25 -12 25 -20 34 -24 25 -4 -10 -6 -10 -6 -1 -1 6 -10 12 -21 12 -11 0 -19 6
-17 13 1 6 -6 11 -15 9 -12 -2 -16 3 -13 18 2 13 0 18 -7 14 -5 -4 -13 -2 -17
3 -3 6 -24 20 -46 32 -22 11 -32 21 -23 21 10 0 17 10 20 28 5 39 -1 62 -17
56 -7 -3 -16 0 -21 7 -4 8 -3 10 4 5 15 -9 15 4 2 40 -8 21 -7 29 6 39 16 11
16 13 -2 23 -15 9 -16 11 -3 12 12 0 15 8 13 31 -2 18 0 28 6 24 6 -3 10 -1
10 4 0 6 -8 11 -17 12 -14 0 -12 3 5 10 13 5 21 13 17 18 -6 10 32 51 47 51 4
0 8 7 8 15 0 8 5 15 11 15 5 0 7 5 4 10 -4 6 -3 10 2 9 18 -3 33 2 33 10 0 17
47 61 64 61 10 0 14 5 11 10 -3 6 -2 10 4 10 5 0 16 6 23 13 20 18 130 53 157
49 13 -2 25 -12 28 -22 4 -15 14 -18 54 -17 33 2 50 -2 54 -12 12 -32 405 8
405 41 0 5 6 8 13 6 18 -3 57 12 57 22 0 5 7 7 15 4 12 -5 14 -2 8 12 -6 17
-5 17 11 5 15 -12 17 -12 14 0 -2 8 3 13 11 11 11 -2 12 0 2 11 -13 16 3 27
40 27 11 0 17 5 14 10 -3 6 2 18 11 28 17 16 18 16 11 -1 -6 -15 -3 -16 21
-10 15 4 37 7 50 8 12 0 22 6 22 14 0 8 7 11 19 8 10 -2 25 -1 33 4 11 6 24 2
42 -12 l27 -21 6 21 c3 11 9 21 14 21 5 0 9 8 9 18 0 10 4 22 10 28 9 9 13 38
24 160 3 28 13 70 22 94 14 35 15 43 3 51 -10 6 -10 9 -1 9 6 0 12 7 12 15 0
8 -4 15 -10 15 -5 0 -10 9 -10 20 0 11 -3 19 -7 19 -22 -4 -33 3 -33 20 0 32
-18 40 -124 55 -11 2 -22 9 -25 17 -3 8 -19 15 -35 17 -26 3 -28 1 -17 -12 12
-15 10 -15 -22 -1 -20 8 -45 15 -56 15 -10 0 -22 7 -25 15 -4 12 -10 13 -25 6
-10 -6 -36 -10 -58 -8 -30 2 -38 -1 -37 -15 1 -14 -2 -15 -17 -5 -11 7 -19 16
-19 22 0 7 -34 10 -90 10 -60 0 -90 -4 -90 -11 0 -8 -23 -12 -62 -12 -63 -1
-153 -8 -153 -12 0 -1 -20 -3 -45 -4 -25 -1 -56 -9 -69 -18 -23 -16 -22 -16
20 -12 43 5 43 5 19 -10 -30 -18 -70 -21 -70 -4 0 6 -6 4 -13 -7 -8 -10 -19
-15 -26 -11 -8 6 -11 2 -9 -10 2 -15 -2 -18 -22 -16 -14 2 -26 8 -28 13 -2 5
-19 9 -37 9 -25 0 -34 -5 -38 -21 -3 -12 -10 -18 -17 -14 -8 5 -6 12 5 25 11
12 14 26 10 39 -3 12 -3 21 2 21 5 0 8 17 7 37 -1 21 2 45 7 55 6 10 5 19 -1
23 -6 4 -7 13 -1 23 14 28 11 153 -4 199 -8 23 -12 55 -9 71 3 16 -1 45 -10
66 -9 21 -14 42 -11 47 14 21 -8 58 -37 64 -29 7 -30 9 -25 45 4 32 2 39 -14
43 -10 3 -19 11 -19 19 0 11 2 11 9 0 7 -11 9 -11 14 2 5 11 1 16 -13 16 -11
0 -20 5 -20 11 0 5 -4 8 -9 5 -11 -7 -63 19 -54 27 3 4 2 7 -3 7 -5 0 -7 29
-6 65 3 48 0 65 -9 65 -7 0 1 15 19 33 18 18 32 41 32 50 0 9 5 17 10 17 6 0
10 7 10 15 0 8 3 14 8 13 4 -2 19 8 32 21 14 13 18 21 10 17 -8 -4 -3 4 13 18
15 14 27 29 27 33 0 5 9 14 20 21 11 7 20 18 20 25 0 7 14 28 31 45 18 18 29
35 25 39 -9 9 32 35 44 28 6 -3 10 -1 10 4 0 6 -4 11 -10 11 -5 0 -10 5 -10
10 0 6 10 10 23 10 12 0 33 7 45 16 17 12 20 19 12 34 -8 15 -5 19 25 24 18 4
45 4 58 1 14 -4 28 -2 31 4 11 17 56 13 56 -4 0 -20 72 -10 115 17 17 10 42
18 56 18 14 0 36 9 49 20 14 12 31 18 42 14 10 -3 18 -1 18 4 0 5 12 7 27 4
23 -4 25 -2 18 14 -10 25 -25 88 -21 91 1 2 13 -19 25 -45 29 -61 57 -81 77
-55 7 10 14 25 14 33 0 8 7 3 16 -12 15 -30 28 -35 39 -17 4 6 13 8 21 5 8 -3
14 -1 14 4 0 16 19 11 42 -10 29 -27 46 -25 54 7 6 24 8 25 20 9 16 -23 27 -4
19 34 -7 33 8 41 21 13 10 -23 11 -30 13 -50 1 -12 4 -14 11 -7 7 7 5 23 -7
50 -18 44 -33 144 -21 144 4 0 8 -7 8 -15 0 -36 23 -115 33 -115 7 0 21 30 31
68 29 106 37 132 43 132 9 0 -8 -94 -24 -130 -9 -19 -15 -39 -14 -44 1 -4 -2
-13 -7 -20 -5 -6 -7 -19 -3 -29 6 -16 9 -14 23 15 9 18 20 42 23 53 7 19 7 20
14 1 7 -18 8 -18 24 5 21 29 21 22 2 -24 -19 -45 -20 -110 -2 -105 6 3 15 18
19 34 7 28 7 28 4 -4 -3 -31 -1 -33 22 -27 20 5 23 3 18 -11 -5 -12 -2 -15 10
-10 9 3 27 -3 42 -14 17 -14 38 -20 62 -18 20 1 41 -1 46 -5 6 -3 32 10 59 29
27 18 53 34 59 33 6 0 1 -7 -11 -16 -27 -18 -31 -38 -5 -28 9 4 22 8 29 9 7 1
16 6 20 11 4 4 2 5 -4 1 -7 -4 -13 -3 -13 2 0 10 38 46 60 56 8 4 4 -2 -9 -14
-18 -15 -21 -24 -13 -32 14 -14 60 14 71 45 5 13 17 29 27 37 16 14 16 13 5
-7 -13 -25 -7 -30 14 -10 8 6 21 18 30 25 8 7 15 29 16 50 0 20 4 46 9 57 7
16 9 10 11 -25 2 -46 2 -55 -8 -102 -5 -27 -4 -28 41 -28 25 0 45 3 43 8 -1 4
8 20 20 35 18 24 25 27 40 17 15 -10 15 -11 1 -6 -10 3 -22 -4 -32 -19 l-15
-23 47 2 c28 2 66 14 94 30 26 14 54 26 63 26 9 0 14 4 11 9 -3 4 6 19 19 31
14 13 25 32 25 42 0 9 9 32 20 50 11 18 20 46 20 62 0 26 -6 20 -52 -50 -28
-43 -53 -81 -54 -83 -2 -1 -8 -1 -14 1 -6 2 5 20 25 41 20 21 33 42 29 48 -3
6 0 18 8 27 33 40 70 162 72 236 1 13 9 20 28 22 19 2 25 -1 22 -11 -3 -8 -12
-11 -20 -8 -12 4 -14 0 -8 -23 4 -16 8 -31 10 -33 2 -2 -4 -21 -13 -43 -10
-25 -14 -55 -10 -85 5 -47 0 -64 -46 -163 -20 -44 -69 -100 -87 -100 -5 0 -12
-5 -15 -10 -4 -7 2 -9 17 -6 12 3 36 8 52 10 16 3 36 12 46 21 9 8 27 15 39
15 12 0 20 4 17 9 -3 5 1 14 9 21 8 7 15 18 15 25 0 7 7 18 15 25 20 16 19 34
-1 26 -15 -6 -15 4 3 52 11 27 -16 10 -36 -23 -11 -19 -26 -35 -32 -35 -8 0
-7 6 3 18 25 29 38 74 48 171 5 51 11 96 14 98 3 3 12 -11 20 -31 8 -20 16
-36 18 -36 2 0 4 27 3 59 0 33 5 65 11 71 9 9 12 5 12 -15 0 -38 9 -41 37 -15
14 13 26 19 26 14 1 -5 3 -25 5 -44 2 -19 9 -60 15 -90 6 -30 11 -62 11 -70
-1 -40 -11 -120 -16 -128 -3 -6 -4 -16 -1 -24 3 -7 -8 -22 -25 -33 -46 -31
-35 -36 20 -9 31 15 54 34 60 48 5 13 14 27 20 31 6 4 5 -9 -4 -30 -9 -21 -16
-39 -16 -41 0 -2 -7 -4 -15 -4 -7 0 -18 -6 -22 -14 -4 -7 -18 -18 -30 -25 -41
-21 -27 -34 31 -29 42 3 53 2 49 -9 -3 -7 -13 -14 -22 -14 -9 -1 -20 -2 -26
-4 -5 -1 -16 -3 -24 -3 -9 -1 -4 -10 13 -23 14 -11 30 -17 36 -14 5 3 10 2 10
-3 0 -12 120 -34 171 -31 28 2 43 -1 42 -8 -1 -6 15 -14 37 -18 45 -8 63 -25
28 -26 l-23 0 21 -11 c21 -10 39 -61 28 -79 -3 -5 2 -9 10 -9 8 0 17 -4 20 -9
4 -5 -4 -7 -16 -4 -19 4 -18 0 11 -25 l35 -30 -27 3 c-15 2 -27 -1 -27 -6 0
-5 6 -9 13 -9 8 0 22 -9 32 -20 10 -11 26 -20 37 -20 10 0 18 -5 18 -11 0 -6
-9 -8 -20 -4 -14 4 -22 1 -26 -10 -5 -12 -14 -15 -33 -11 l-26 6 24 -20 c13
-11 21 -26 17 -35 -3 -8 4 -21 17 -30 19 -13 20 -17 7 -25 -12 -9 -9 -15 20
-40 30 -25 32 -29 14 -30 -15 0 -20 -6 -19 -22 1 -13 0 -27 -3 -33 -13 -22
-10 -59 6 -71 14 -10 15 -16 5 -32 -9 -15 -9 -22 0 -31 6 -6 12 -25 13 -42 1
-24 -1 -27 -12 -18 -11 9 -14 8 -14 -5 0 -9 7 -16 16 -16 13 0 13 -2 1 -14
-12 -13 -15 -100 -6 -211 8 -103 56 -282 119 -440 13 -33 61 -232 58 -241 -4
-13 22 -154 34 -186 6 -15 11 -42 12 -60 2 -19 7 -32 14 -31 7 2 12 -9 12 -25
1 -15 7 -38 15 -52 8 -14 14 -37 15 -52 0 -15 4 -30 10 -33 5 -3 8 -23 5 -43
l-5 -37 14 30 15 30 -4 -43 c-7 -83 88 -176 142 -137 15 11 15 15 2 28 -38 43
-41 49 -35 83 5 22 13 34 23 34 15 0 14 2 -2 13 -12 10 -14 16 -7 21 7 4 12
18 12 31 0 19 -9 28 -35 39 -44 19 -49 60 -10 78 14 6 25 15 25 20 0 5 12 25
27 44 21 28 32 34 56 32 26 -3 32 -9 43 -47 7 -24 16 -64 19 -89 3 -25 8 -49
11 -54 8 -12 32 -10 37 5 7 21 36 -11 39 -45 l3 -31 28 43 c17 26 27 56 27 78
0 21 4 43 9 51 6 10 3 19 -10 30 -14 11 -22 38 -29 91 -11 85 -30 144 -53 167
-11 11 -32 15 -70 14 -48 -1 -57 2 -71 24 -21 32 -22 52 -1 35 8 -7 15 -8 15
-3 0 5 14 14 30 20 33 12 41 43 11 43 -10 0 -21 9 -24 20 -4 17 -2 20 13 15
17 -5 18 -2 10 27 -5 18 -11 62 -14 98 -2 36 -7 89 -11 118 -9 63 8 71 32 15
20 -47 30 -22 13 34 -43 147 -45 161 -38 278 3 45 5 50 26 48 20 -3 22 0 16
25 -4 15 -18 41 -31 58 -16 21 -23 44 -23 75 0 73 -18 161 -47 230 -21 50 -28
87 -33 169 -5 83 -12 118 -35 170 -16 39 -35 112 -46 180 -10 63 -18 116 -18
118 -1 1 -6 2 -11 2 -7 0 -7 -7 0 -20 14 -27 -13 -39 -38 -17 -31 27 -99 56
-119 51 -15 -4 -28 3 -47 29 -14 18 -26 41 -26 50 0 11 -18 18 -69 28 -94 16
-96 18 -77 64 9 20 16 47 16 59 0 16 3 18 9 7 7 -10 18 -4 50 27 43 41 51 62
26 62 -8 0 -15 -7 -15 -15 0 -8 -5 -15 -11 -15 -6 0 -9 6 -6 13 3 7 -4 19 -15
26 -14 9 -18 19 -14 35 3 13 2 37 -3 52 -5 16 -14 48 -21 71 -11 36 -19 44
-49 54 -20 6 -43 18 -52 25 -13 11 -24 9 -76 -16 -53 -24 -63 -26 -74 -14 -17
20 -31 17 -24 -5 4 -14 -3 -25 -24 -40 -36 -26 -41 -26 -41 -3 0 10 -5 23 -11
29 -7 7 -3 18 15 38 22 24 25 34 20 69 -4 22 -14 49 -23 60 -17 20 -83 56
-102 56 -6 0 -37 23 -69 50 -32 28 -82 61 -111 75 -30 14 -67 34 -84 45 -16
10 -54 26 -84 36 -30 9 -68 25 -85 35 -18 11 -50 19 -74 19 -23 0 -71 9 -105
21 -46 16 -98 22 -200 26 -76 4 -140 10 -143 14 -7 12 -54 10 -84 -3z m-140
-79 c0 -5 -4 -9 -10 -9 -5 0 -10 7 -10 16 0 8 5 12 10 9 6 -3 10 -10 10 -16z
m250 -45 c0 -9 -5 -14 -12 -12 -18 6 -21 28 -4 28 9 0 16 -7 16 -16z m-372
-52 c4 -14 -27 -16 -47 -3 -8 5 -11 16 -7 26 6 15 9 16 28 3 12 -8 24 -20 26
-26z m312 -7 c0 -8 -4 -15 -10 -15 -5 0 -10 7 -10 15 0 8 5 15 10 15 6 0 10
-7 10 -15z m-765 -46 c-3 -4 -12 -6 -20 -3 -8 4 -13 10 -10 15 3 4 12 6 20 3
8 -4 13 -10 10 -15z m492 -155 c-10 -10 -37 16 -37 34 0 13 4 12 22 -5 12 -13
19 -25 15 -29z m273 -10 c0 -8 -4 -12 -10 -9 -5 3 -10 13 -10 21 0 8 5 12 10
9 6 -3 10 -13 10 -21z m1058 8 c18 -14 21 -23 16 -51 -7 -31 -8 -33 -21 -16
-7 11 -13 27 -13 37 0 10 -4 18 -10 18 -5 0 -10 7 -10 15 0 19 10 19 38 -3z
m-722 -99 c23 -54 43 -177 43 -253 -1 -76 -6 -64 -39 100 -37 183 -38 232 -4
153z m64 -7 c0 -5 7 -14 17 -21 10 -7 13 -17 8 -25 -6 -10 -10 -9 -17 4 -5 9
-13 14 -19 11 -5 -4 -9 5 -9 19 0 13 -3 33 -6 43 -6 16 -5 16 9 -2 9 -11 17
-24 17 -29z m80 34 c0 -6 -5 -19 -12 -30 -9 -15 -9 -29 0 -67 19 -72 23 -248
8 -323 l-13 -65 1 100 c1 55 -5 154 -12 220 -10 86 -10 128 -3 148 10 26 31
38 31 17z m-450 -21 c0 -5 -4 -9 -10 -9 -5 0 -10 7 -10 16 0 8 5 12 10 9 6 -3
10 -10 10 -16z m180 -41 c0 -38 -3 -49 -10 -38 -16 25 -11 90 7 90 2 0 3 -24
3 -52z m90 -25 c0 -37 -14 -43 -30 -14 -11 22 -13 74 -3 85 11 11 32 -36 33
-71z m527 55 c-3 -8 -6 -5 -6 6 -1 11 2 17 5 13 3 -3 4 -12 1 -19z m-227 -8
c0 -5 -5 -10 -11 -10 -5 0 -7 5 -4 10 3 6 8 10 11 10 2 0 4 -4 4 -10z m61 -23
c-8 -8 -11 -7 -11 4 0 9 3 19 7 23 4 4 9 2 11 -4 3 -7 -1 -17 -7 -23z m-141
-6 c0 -26 -10 -51 -21 -51 -5 0 -9 16 -9 35 0 24 5 35 15 35 8 0 15 -9 15 -19z
m820 0 c0 -20 -36 -36 -46 -20 -10 17 5 39 26 39 13 0 20 -7 20 -19z m-747
-28 c3 -5 8 -71 12 -148 6 -130 6 -138 -9 -118 -11 14 -14 31 -10 48 3 14 3
42 -2 63 -6 31 -9 15 -20 -91 -9 -88 -18 -132 -28 -143 -9 -8 -16 -20 -16 -25
0 -5 -4 -9 -9 -9 -5 0 -2 19 6 43 9 23 21 103 28 177 7 74 13 127 14 118 0
-10 5 -18 11 -18 10 0 3 54 -11 81 -5 9 -5 19 -2 23 9 8 31 8 36 -1z m-2093
-19 c0 -9 -7 -14 -17 -12 -25 5 -28 28 -4 28 12 0 21 -6 21 -16z m2422 -16
c-6 -6 -15 -9 -18 -5 -4 3 -4 14 0 23 5 13 9 15 18 6 9 -9 9 -15 0 -24z m88
-9 c0 -16 -4 -29 -9 -29 -11 0 -24 48 -16 61 11 17 25 -1 25 -32z m-1301 -68
c1 -24 1 -24 -14 -5 -8 10 -14 39 -14 64 l1 45 13 -40 c8 -22 14 -51 14 -64z
m818 42 l-16 -38 0 41 c-1 44 7 60 22 45 6 -6 4 -24 -6 -48z m270 10 c-3 -10
-5 -2 -5 17 0 19 2 27 5 18 2 -10 2 -26 0 -35z m-1397 -12 c0 -9 -7 -3 -15 13
-19 36 -19 47 0 22 8 -11 15 -27 15 -35z m1244 17 c3 -14 -1 -29 -9 -38 -13
-13 -15 -10 -15 23 0 41 14 50 24 15z m68 -26 c-6 -15 -10 -42 -11 -60 0 -20
-9 -44 -25 -63 -31 -37 -33 -27 -6 42 12 29 18 59 15 67 -3 8 2 26 12 41 20
31 30 13 15 -27z m-1165 -9 c-3 -10 -5 -4 -5 12 0 17 2 24 5 18 2 -7 2 -21 0
-30z m750 5 c-3 -7 -5 -2 -5 12 0 14 2 19 5 13 2 -7 2 -19 0 -25z m-508 -48
c1 -13 0 -13 -9 0 -5 8 -9 24 -9 35 l0 20 9 -20 c5 -11 9 -27 9 -35z m-592
-64 c37 -73 55 -126 40 -120 -12 5 -108 191 -107 209 1 16 40 -36 67 -89z
m1112 42 l-1 -43 -8 35 c-8 32 -6 50 6 50 2 0 4 -19 3 -42z m449 8 c-2 -19 0
-32 4 -30 18 11 6 -28 -35 -113 -14 -31 -66 -90 -67 -77 0 7 11 22 25 35 13
13 25 30 25 37 0 7 10 32 21 54 14 28 18 43 10 46 -20 7 -10 82 11 82 6 0 8
-15 6 -34z m-2408 0 c32 -3 53 -72 25 -82 -20 -8 -95 36 -95 56 0 23 22 42 40
34 8 -3 22 -7 30 -8z m1333 -147 c-4 -4 -6 31 -3 79 l5 87 3 -79 c2 -44 -1
-83 -5 -87z m967 134 c0 -19 -3 -24 -10 -17 -6 6 -8 18 -4 27 9 24 14 21 14
-10z m600 -2 c0 -5 -7 -14 -15 -21 -12 -10 -15 -10 -15 2 0 8 3 18 7 21 9 10
23 9 23 -2z m-1412 -72 c-3 -20 -5 -19 -9 9 -3 20 -2 29 4 23 5 -5 7 -19 5
-32z m229 -11 c-3 -7 -5 -2 -5 12 0 14 2 19 5 13 2 -7 2 -19 0 -25z m-913 -58
c8 -63 -1 -62 -15 2 -5 24 -12 52 -15 63 -6 18 -4 18 9 5 8 -8 18 -40 21 -70z
m2116 60 c0 -5 -5 -10 -11 -10 -5 0 -7 5 -4 10 3 6 8 10 11 10 2 0 4 -4 4 -10z
m-3014 -63 c6 -25 4 -28 -12 -25 -20 4 -29 30 -20 55 8 21 22 7 32 -30z m1804
6 c-11 -17 -11 -17 -6 0 3 10 6 24 7 30 0 9 2 9 5 0 3 -7 0 -20 -6 -30z m260
-13 c2 -95 -4 -159 -16 -180 l-14 -25 7 30 c4 17 7 71 7 122 1 51 4 89 8 85 5
-5 8 -19 8 -32z m370 21 c-16 -31 -32 -36 -18 -7 6 14 15 26 20 26 5 0 4 -9
-2 -19z m-61 -37 c-10 -12 -10 -15 1 -12 7 2 15 -3 18 -11 3 -10 0 -12 -11 -8
-16 6 -26 -11 -31 -56 -3 -29 -34 -87 -46 -87 -15 0 -12 9 10 37 22 29 27 79
8 86 -10 3 -8 9 5 24 9 11 17 23 17 28 0 5 8 17 18 28 15 17 17 17 20 3 2 -9
-2 -24 -9 -32z m671 37 c0 -5 -13 -19 -30 -31 -19 -13 -30 -30 -30 -45 0 -13
-8 -30 -18 -37 -10 -7 -29 -33 -43 -58 -28 -51 -69 -78 -82 -55 -10 19 12 63
23 45 9 -15 30 -5 30 14 0 7 14 25 30 39 18 16 30 37 30 51 0 31 46 86 71 86
10 0 19 -4 19 -9z m-2397 -46 c10 -14 14 -25 10 -25 -16 0 -53 31 -53 45 0 20
21 9 43 -20z m774 -32 c-3 -10 -5 -2 -5 17 0 19 2 27 5 18 2 -10 2 -26 0 -35z
m1627 1 c-30 -38 -51 -46 -33 -11 18 34 41 57 50 51 5 -3 -3 -21 -17 -40z
m-2040 20 c3 -8 2 -12 -4 -9 -6 3 -10 10 -10 16 0 14 7 11 14 -7z m1896 -23
c-13 -25 -27 -34 -34 -22 -7 10 20 41 35 41 6 0 6 -7 -1 -19z m219 -7 c-14
-18 -24 -11 -15 11 3 9 11 13 16 10 8 -5 7 -11 -1 -21z m-3161 -5 c-2 -6 -8
-10 -13 -10 -5 0 -11 4 -13 10 -2 6 4 11 13 11 9 0 15 -5 13 -11z m657 -19
c10 -11 15 -20 11 -20 -4 0 -2 -9 4 -20 7 -14 8 -20 0 -20 -6 0 -16 11 -22 25
-6 14 -15 25 -20 25 -4 0 -8 7 -8 15 0 21 13 19 35 -5z m172 -17 c-3 -10 -5
-4 -5 12 0 17 2 24 5 18 2 -7 2 -21 0 -30z m874 10 c-8 -15 -10 -15 -11 -2 0
17 10 32 18 25 2 -3 -1 -13 -7 -23z m-732 -30 c1 -7 -3 -13 -9 -13 -5 0 -10
15 -9 33 0 27 2 29 9 12 5 -11 9 -26 9 -32z m368 0 c-3 -10 -5 -2 -5 17 0 19
2 27 5 18 2 -10 2 -26 0 -35z m780 5 c-3 -7 -5 -2 -5 12 0 14 2 19 5 13 2 -7
2 -19 0 -25z m-173 -22 c-3 -21 -9 -35 -11 -32 -3 3 -2 21 1 42 4 20 10 34 12
31 3 -3 2 -21 -2 -41z m276 -21 c-6 -19 -15 -35 -19 -35 -5 0 -1 21 7 47 9 26
17 42 20 35 2 -6 -2 -28 -8 -47z m1030 35 c0 -5 -5 -10 -11 -10 -5 0 -7 5 -4
10 3 6 8 10 11 10 2 0 4 -4 4 -10z m-994 -36 c-4 -9 -9 -15 -11 -12 -3 3 -3
13 1 22 4 9 9 15 11 12 3 -3 3 -13 -1 -22z m970 13 c9 3 14 -1 14 -11 0 -19
-46 -40 -63 -29 -7 3 -9 3 -5 -2 4 -4 -3 -16 -16 -26 -24 -19 -51 -26 -44 -11
25 51 34 62 49 62 10 0 24 6 31 14 7 8 14 10 16 6 2 -5 10 -6 18 -3z m-2137
-42 c0 -5 -4 -3 -9 5 -5 8 -9 22 -9 30 0 16 17 -16 18 -35z m333 13 c-9 -9
-12 -7 -12 12 0 19 3 21 12 12 9 -9 9 -15 0 -24z m-1520 7 c-2 -5 -9 -9 -14
-7 -6 1 -16 -2 -24 -9 -17 -14 -39 -2 -25 15 12 14 68 15 63 1z m1328 -27 c0
-31 -3 -39 -11 -31 -7 7 -8 24 -4 42 9 43 15 39 15 -11z m1850 -3 c-7 -8 -17
-15 -22 -15 -6 0 -5 7 2 15 7 8 17 15 22 15 6 0 5 -7 -2 -15z m-1800 -27 c0
-23 -3 -29 -11 -21 -6 6 -8 20 -4 32 9 30 15 26 15 -11z m66 -14 c-3 -8 -13
-14 -23 -14 -17 1 -17 1 0 11 12 7 16 17 12 32 -5 20 -5 20 5 4 7 -10 9 -25 6
-33z m924 42 c0 -2 -8 -10 -17 -17 -16 -13 -17 -12 -4 4 13 16 21 21 21 13z
m-1579 -19 c-1 -12 -15 -9 -19 4 -3 6 1 10 8 8 6 -3 11 -8 11 -12z m2339 -16
c-10 -20 -47 -37 -57 -28 -8 9 7 28 31 37 33 13 38 12 26 -9z m465 -21 c24
-16 48 -30 53 -30 13 0 42 -45 42 -65 0 -27 -26 -16 -43 20 -11 23 -21 33 -32
29 -15 -6 -95 50 -95 67 0 18 32 9 75 -21z m-537 -7 c-2 -10 -11 -19 -21 -21
-16 -3 -17 -1 -7 17 13 25 33 28 28 4z m123 -26 c-10 -9 -11 -8 -5 6 3 10 9
15 12 12 3 -3 0 -11 -7 -18z m-1192 10 c-2 -1 -14 -11 -26 -21 -13 -11 -23
-16 -23 -13 0 10 31 37 42 37 6 0 9 -1 7 -3z m1331 -89 c0 -6 -6 -5 -15 2 -8
7 -15 14 -15 16 0 2 7 1 15 -2 8 -4 15 -11 15 -16z m308 -2 c3 -12 -1 -17 -10
-14 -7 3 -15 13 -16 22 -3 12 1 17 10 14 7 -3 15 -13 16 -22z m-308 -71 c10
-12 10 -15 -3 -15 -8 0 -20 7 -27 15 -10 12 -10 15 3 15 8 0 20 -7 27 -15z
m-3463 -131 c5 -15 -28 -27 -40 -15 -5 5 -6 14 -2 21 8 13 37 9 42 -6z m-39
-136 c-6 -18 -28 -21 -28 -4 0 9 7 16 16 16 9 0 14 -5 12 -12z m3557 -188 c3
-5 -1 -10 -10 -10 -9 0 -13 5 -10 10 3 6 8 10 10 10 2 0 7 -4 10 -10z m-3655
-139 c0 -17 -12 -41 -21 -41 -10 0 -12 33 -2 43 9 10 23 9 23 -2z m694 -57 c3
-8 2 -12 -4 -9 -6 3 -10 10 -10 16 0 14 7 11 14 -7z m116 -155 c0 -6 -4 -7
-10 -4 -5 3 -10 11 -10 16 0 6 5 7 10 4 6 -3 10 -11 10 -16z m3344 -255 c9
-24 7 -28 -9 -14 -17 14 -20 30 -6 30 5 0 12 -7 15 -16z m-3024 -278 c0 -3 -4
-8 -10 -11 -5 -3 -10 -1 -10 4 0 6 5 11 10 11 6 0 10 -2 10 -4z m3020 -27 c0
-6 -4 -7 -10 -4 -5 3 -10 11 -10 16 0 6 5 7 10 4 6 -3 10 -11 10 -16z m-2513
-5 c-3 -3 -12 -4 -19 -1 -8 3 -5 6 6 6 11 1 17 -2 13 -5z m-743 -39 c17 -13
18 -15 3 -15 -9 0 -17 4 -17 10 0 5 -7 6 -17 3 -11 -4 -14 -3 -9 5 9 15 17 15
40 -3z m133 -1 c-3 -3 -12 -4 -19 -1 -8 3 -5 6 6 6 11 1 17 -2 13 -5z m2953
-424 c0 -5 -4 -10 -10 -10 -5 0 -10 5 -10 10 0 6 5 10 10 10 6 0 10 -4 10 -10z
m-2540 -24 c0 -11 -19 -15 -25 -6 -3 5 1 10 9 10 9 0 16 -2 16 -4z m2533 -17
c4 -16 3 -18 -9 -8 -16 13 -19 29 -5 29 5 0 11 -9 14 -21z m-3486 -295 c-3 -3
-12 -4 -19 -1 -8 3 -5 6 6 6 11 1 17 -2 13 -5z m0 -160 c-3 -3 -12 -4 -19 -1
-8 3 -5 6 6 6 11 1 17 -2 13 -5z m5 -42 c3 -11 0 -19 -7 -19 -7 0 -10 8 -7 19
2 10 6 18 7 18 1 0 5 -8 7 -18z m32 -47 c-4 -8 -11 -12 -16 -9 -6 4 -5 10 3
15 19 12 19 11 13 -6z m11 -62 c0 -15 -4 -29 -10 -30 -5 -2 -10 2 -9 7 1 6 2
22 3 36 2 34 17 23 16 -13z m-30 18 c3 -5 1 -12 -5 -16 -5 -3 -10 1 -10 9 0
18 6 21 15 7z m1390 -1 c4 -6 11 -8 16 -5 5 4 9 0 8 -7 -1 -19 -33 -71 -43
-69 -4 1 -14 -6 -21 -16 -7 -10 -17 -15 -21 -11 -4 4 -13 3 -20 -3 -16 -13
-44 -5 -44 11 0 6 4 9 9 6 5 -4 7 2 4 12 -3 13 9 30 38 55 42 38 63 45 74 27z
m-1332 -85 c-3 -9 -8 -14 -10 -11 -3 3 -2 9 2 15 9 16 15 13 8 -4z m7 -31 c0
-8 -19 -13 -24 -6 -3 5 1 9 9 9 8 0 15 -2 15 -3z m-10 -49 c7 -9 8 -15 2 -15
-5 0 -12 7 -16 15 -3 8 -4 15 -2 15 2 0 9 -7 16 -15z m23 -85 c8 0 8 -3 0 -11
-17 -17 -29 -4 -27 28 4 45 7 50 11 16 2 -18 9 -33 16 -33z m2 -40 c3 -5 1
-10 -4 -10 -6 0 -11 5 -11 10 0 6 2 10 4 10 3 0 8 -4 11 -10z m1058 -16 c9 -3
13 -14 10 -27 -4 -17 -3 -19 6 -7 17 25 23 -8 17 -109 -5 -92 -9 -102 -51
-128 -11 -6 -19 -16 -17 -22 1 -7 -9 -4 -23 5 -19 12 -28 14 -38 5 -8 -6 -16
-8 -20 -5 -12 12 -47 -8 -47 -27 0 -11 5 -17 10 -14 6 3 10 -1 10 -9 0 -8 -4
-18 -10 -21 -5 -3 -10 1 -10 9 0 20 -19 31 -33 17 -15 -15 -32 -14 -20 2 15
18 12 46 -3 40 -8 -3 -12 -10 -11 -16 1 -7 -10 -11 -28 -10 -27 2 -28 1 -13
-11 10 -7 15 -16 12 -19 -3 -3 -15 4 -26 15 l-20 20 36 51 c47 69 231 267 247
267 4 0 14 -3 22 -6z m850 -206 c4 -12 4 -24 1 -27 -6 -7 -24 20 -24 37 0 21
17 13 23 -10z m-23 -90 c0 -16 -3 -19 -11 -11 -6 6 -8 16 -5 22 11 17 16 13
16 -11z m-916 -13 c-7 -16 -24 -21 -24 -6 0 8 7 13 27 20 1 1 0 -6 -3 -14z
m36 -10 c0 -8 -7 -15 -16 -15 -14 0 -14 3 -4 15 7 8 14 15 16 15 2 0 4 -7 4
-15z m915 -15 c-3 -5 -12 -10 -18 -10 -7 0 -6 4 3 10 19 12 23 12 15 0z
m-1828 -6 c-3 -3 -12 -4 -19 -1 -8 3 -5 6 6 6 11 1 17 -2 13 -5z m1002 -13 c9
-6 6 -8 -13 -8 -14 0 -23 3 -20 8 7 11 15 11 33 0z m1298 -77 c-3 -3 -12 -4
-19 -1 -8 3 -5 6 6 6 11 1 17 -2 13 -5z m173 -40 c0 -2 -9 0 -20 6 -11 6 -20
13 -20 16 0 2 9 0 20 -6 11 -6 20 -13 20 -16z m-1979 -137 c-15 -15 -14 -27 3
-27 8 0 14 -11 15 -27 1 -52 13 -103 22 -97 8 5 13 -16 10 -43 -1 -7 10 -20
24 -29 18 -11 25 -24 22 -36 -3 -10 0 -18 8 -18 7 0 14 -8 17 -17 5 -24 -27
-120 -35 -106 -4 7 -2 15 4 18 5 4 8 13 5 21 -3 7 -1 16 5 19 13 8 2 25 -17
25 -8 0 -14 -7 -14 -16 0 -8 -5 -12 -10 -9 -6 4 -7 12 -3 18 10 16 11 47 2 47
-4 0 -9 -5 -11 -11 -2 -7 -11 -5 -23 7 -17 17 -17 19 -2 22 9 2 17 7 17 12 0
4 -8 6 -18 3 -24 -6 -48 22 -34 40 11 14 1 50 -13 45 -6 -2 -14 7 -20 20 -6
13 -16 20 -24 17 -11 -4 -11 -3 -2 9 7 8 10 20 6 26 -3 5 2 10 12 10 16 1 16
2 3 13 -8 7 -16 23 -17 37 -1 21 4 26 25 28 15 1 29 7 30 12 2 6 8 7 14 4 6
-4 6 -10 -1 -17z m2304 -177 c3 -5 1 -10 -4 -10 -6 0 -11 5 -11 10 0 6 2 10 4
10 3 0 8 -4 11 -10z m115 -16 c0 -8 -4 -12 -10 -9 -5 3 -10 13 -10 21 0 8 5
12 10 9 6 -3 10 -13 10 -21z m-174 -69 c1 -8 -4 -11 -11 -8 -8 2 -11 11 -8 19
6 16 16 11 19 -11z m-1390 -44 c-4 -5 -13 -8 -21 -5 -11 5 -12 9 -2 19 13 15
33 3 23 -14z m1460 -78 c-4 -9 0 -13 11 -11 12 2 18 -4 19 -19 1 -24 -10 -30
-21 -12 -4 6 -13 8 -21 5 -16 -6 -19 20 -4 29 8 5 7 11 -1 21 -10 12 -9 13 5
8 10 -4 15 -13 12 -21z m-1769 11 c-3 -3 -12 -4 -19 -1 -8 3 -5 6 6 6 11 1 17
-2 13 -5z m-393 -29 c-6 -16 -24 -21 -24 -7 0 11 11 22 21 22 5 0 6 -7 3 -15z
m-544 -15 c0 -5 -5 -10 -11 -10 -5 0 -7 5 -4 10 3 6 8 10 11 10 2 0 4 -4 4
-10z m1085 0 c3 -5 -1 -10 -10 -10 -9 0 -13 5 -10 10 3 6 8 10 10 10 2 0 7 -4
10 -10z m536 -26 c-5 -16 -10 -21 -10 -12 -1 18 10 51 15 45 2 -1 -1 -16 -5
-33z m-477 12 c-11 -8 -34 -18 -50 -21 l-29 -7 30 21 c17 11 39 21 50 21 19 0
19 0 -1 -14z m1604 -43 c-14 -13 -16 -13 -21 1 -4 10 -1 16 8 16 8 0 15 6 16
13 0 9 2 8 6 -1 3 -8 -1 -21 -9 -29z m-2138 -49 c0 -4 -9 1 -20 11 -11 10 -20
23 -20 28 0 6 9 1 20 -11 11 -12 20 -24 20 -28z m1190 5 c0 -6 -4 -7 -10 -4
-5 3 -10 11 -10 16 0 6 5 7 10 4 6 -3 10 -11 10 -16z m-303 -11 c-3 -8 -6 -5
-6 6 -1 11 2 17 5 13 3 -3 4 -12 1 -19z m33 -97 c0 -6 -4 -13 -10 -16 -5 -3
-10 1 -10 9 0 9 5 16 10 16 6 0 10 -4 10 -9z m-630 -221 c0 -5 -5 -10 -11 -10
-5 0 -7 5 -4 10 3 6 8 10 11 10 2 0 4 -4 4 -10z m40 -62 c0 -12 -14 -10 -28 4
-19 19 -14 29 8 16 11 -7 20 -16 20 -20z m1477 -2 c-4 -9 1 -17 11 -19 12 -3
11 -5 -5 -6 -17 -1 -23 5 -23 19 0 11 5 20 11 20 6 0 9 -6 6 -14z m-1525 -18
c-7 -7 -12 -8 -12 -2 0 6 3 14 7 17 3 4 9 5 12 2 2 -3 -1 -11 -7 -17z m1588
-18 c0 -5 -4 -10 -10 -10 -5 0 -10 5 -10 10 0 6 5 10 10 10 6 0 10 -4 10 -10z
m-1365 -21 c12 -19 -3 -22 -27 -5 l-22 16 21 0 c12 0 25 -5 28 -11z m1070
-139 c3 -5 1 -10 -4 -10 -6 0 -11 5 -11 10 0 6 2 10 4 10 3 0 8 -4 11 -10z
m109 -5 c3 -8 1 -15 -4 -15 -6 0 -10 7 -10 15 0 8 2 15 4 15 2 0 6 -7 10 -15z
m-289 -24 c3 -5 1 -12 -5 -16 -5 -3 -10 1 -10 9 0 18 6 21 15 7z m-462 -21
c-6 -21 -21 -35 -29 -27 -4 4 25 47 32 47 1 0 0 -9 -3 -20z m603 -28 c-9 -8
-26 10 -26 26 1 15 2 15 15 -2 8 -11 13 -21 11 -24z m-655 5 c-13 -13 -26 -3
-16 12 3 6 11 8 17 5 6 -4 6 -10 -1 -17z m569 -2 c0 -12 -29 -3 -34 10 -4 13
-2 14 14 5 11 -6 20 -13 20 -15z m-145 5 c3 -5 1 -10 -4 -10 -6 0 -11 5 -11
10 0 6 2 10 4 10 3 0 8 -4 11 -10z m-309 -28 c-17 -16 -18 -16 -5 5 7 12 15
20 18 17 3 -2 -3 -12 -13 -22z m-1787 -789 c8 -30 6 -50 -11 -106 -19 -65 -22
-69 -35 -51 -11 14 -13 36 -10 86 9 105 37 141 56 71z m-62 -372 c3 -34 1 -51
-5 -47 -5 3 -13 35 -17 70 -3 35 -13 85 -20 110 -8 27 -11 61 -7 83 5 34 8 28
25 -62 10 -55 21 -124 24 -154z m140 156 c27 -61 42 -167 24 -167 -6 0 -24 21
-41 48 -25 39 -30 58 -30 110 0 78 17 82 47 9z m253 -122 c34 -42 76 -81 93
-89 36 -15 61 -40 86 -86 17 -32 35 -45 105 -76 30 -14 50 -35 88 -96 32 -50
56 -78 68 -78 19 0 140 -97 140 -112 0 -10 -42 -72 -52 -76 -4 -2 -14 -24 -22
-50 -29 -87 -82 -90 -146 -10 -24 31 -40 61 -40 77 0 15 -7 36 -15 47 -8 10
-15 27 -15 36 0 11 -11 20 -27 24 -16 3 -31 6 -35 7 -13 4 -98 121 -98 137 0
8 -8 23 -17 32 -57 52 -116 143 -128 196 -3 17 -18 48 -32 69 -14 20 -29 47
-34 60 -5 13 -15 23 -24 23 -8 0 -15 6 -15 14 0 13 16 22 46 25 6 0 39 -33 74
-74z m-522 -18 c7 -18 12 -44 12 -56 0 -32 -58 -131 -76 -131 -12 0 -13 -8 -8
-35 6 -35 6 -35 -30 -35 -39 0 -43 9 -26 55 7 19 16 25 32 23 21 -3 23 1 23
42 1 25 9 68 19 95 10 28 20 56 22 63 6 22 20 13 32 -21z m404 -108 c20 -41
40 -92 44 -114 7 -37 6 -39 -10 -26 -47 39 -96 147 -96 212 0 28 29 -5 62 -72z
m-184 -11 c58 -68 57 -65 29 -127 -14 -31 -28 -65 -32 -76 -6 -19 -7 -19 -20
-1 -8 10 -22 51 -31 92 -17 69 -17 76 -1 109 9 19 19 35 22 35 4 0 18 -14 33
-32z m-152 -83 c7 -19 14 -45 14 -57 0 -26 -42 -112 -70 -143 -12 -13 -16 -30
-13 -51 5 -30 3 -31 -59 -52 -69 -23 -94 -27 -102 -14 -2 4 1 32 7 62 15 65
40 83 105 77 l44 -5 -7 48 c-6 41 -2 55 26 108 18 34 34 62 36 62 2 0 11 -16
19 -35z m-400 -46 c3 -5 1 -9 -5 -9 -5 0 -8 -9 -6 -19 3 -16 -9 -23 -66 -42
-38 -12 -71 -20 -75 -17 -3 4 -3 16 1 27 5 16 15 21 43 21 28 0 33 3 22 10
-13 9 -12 13 7 29 22 18 67 18 79 0z m882 -103 c11 -22 22 -56 26 -75 5 -30 4
-32 -11 -20 -21 18 -83 148 -83 174 1 18 3 17 24 -9 13 -15 33 -47 44 -70z
m-140 5 c23 -27 42 -56 42 -65 0 -20 -51 -136 -59 -136 -4 0 -28 23 -54 51
-46 50 -46 51 -33 82 26 61 34 82 40 100 8 26 19 21 64 -32z m-253 -92 l37
-60 -30 -57 c-17 -31 -37 -58 -44 -60 -9 -2 -24 18 -38 47 -19 42 -21 55 -12
78 6 15 16 47 22 71 6 23 14 42 19 42 4 0 25 -27 46 -61z m523 -114 c34 -47
71 -160 57 -173 -9 -9 -61 53 -85 103 -10 22 -22 60 -26 84 -9 57 8 53 54 -14z
m-100 -2 c48 -63 55 -81 47 -139 -3 -30 -10 -56 -14 -59 -11 -6 -101 86 -101
104 0 29 24 131 31 131 4 0 21 -17 37 -37z m636 5 c123 -48 180 -87 286 -191
16 -15 43 -56 60 -90 17 -34 42 -77 55 -95 28 -40 57 -133 53 -170 -2 -17 -10
-28 -21 -30 -15 -3 -17 -1 -9 15 8 14 6 29 -5 53 -60 139 -137 274 -164 287
-31 16 -35 9 -15 -22 10 -15 15 -34 12 -42 -6 -14 -8 -14 -24 1 -10 9 -28 16
-39 16 -24 0 -34 12 -53 59 -12 30 -12 35 4 46 15 12 13 16 -27 49 -48 39
-104 66 -139 66 -17 0 -19 -3 -10 -12 13 -13 16 -54 4 -62 -10 -6 -37 15 -45
36 -3 10 0 24 9 33 14 13 13 16 -10 27 -17 7 -26 19 -26 35 0 30 8 29 104 -9z
m-1774 -18 c0 -5 -5 -10 -11 -10 -5 0 -7 5 -4 10 3 6 8 10 11 10 2 0 4 -4 4
-10z m889 -72 c20 -22 39 -47 43 -54 9 -14 -87 -134 -107 -134 -11 0 -75 81
-75 95 0 18 77 135 89 135 8 0 30 -19 50 -42z m-576 -35 c4 -3 2 -12 -4 -20
-9 -10 -15 -10 -25 -2 -8 6 -14 15 -14 20 0 10 34 12 43 2z m-356 -69 c1 -20
7 -40 14 -45 20 -12 -3 -32 -32 -27 -14 2 -27 13 -32 28 -11 33 7 80 31 80 14
0 18 -8 19 -36z m1462 -59 c23 -30 44 -69 48 -87 3 -18 10 -41 14 -50 12 -23
-6 -32 -25 -12 -44 44 -106 158 -106 195 0 25 32 3 69 -46z m450 16 c50 -36
66 -68 66 -137 0 -64 -1 -66 -42 -105 -48 -45 -81 -50 -130 -19 -43 26 -61 55
-74 122 -10 49 -9 61 7 95 34 68 111 88 173 44z m-2269 10 c0 -12 -28 -22 -34
-12 -3 5 -3 11 1 15 9 9 33 7 33 -3z m1704 -64 c24 -35 52 -115 43 -123 -2 -3
-20 15 -40 39 -23 28 -36 55 -37 78 -4 62 -4 62 34 6z m-184 -77 c0 -16 -116
-110 -135 -110 -6 0 -25 19 -42 41 l-32 42 62 68 62 69 43 -47 c23 -26 42 -54
42 -63z m-1550 70 c0 -5 -8 -10 -17 -10 -15 0 -16 2 -3 10 19 12 20 12 20 0z
m1975 -72 c4 -18 17 -63 30 -100 13 -38 20 -68 17 -68 -13 0 -42 34 -42 50 0
9 -4 20 -10 26 -14 14 -25 124 -12 124 6 0 13 -15 17 -32z m-1224 -5 c-6 -21
-16 -30 -45 -36 -20 -5 -39 -8 -40 -6 -2 2 -1 19 1 37 5 30 7 32 48 32 42 0
43 -1 36 -27z m-733 -35 c-6 -18 -28 -21 -28 -4 0 9 7 16 16 16 9 0 14 -5 12
-12z m-50 -10 c-6 -18 -28 -21 -28 -4 0 9 7 16 16 16 9 0 14 -5 12 -12z m1993
-133 c20 -31 26 -85 10 -85 -11 0 -72 74 -90 107 -6 12 -11 37 -11 55 l1 33
36 -40 c19 -22 44 -53 54 -70z m-2011 65 c0 -5 -9 -10 -21 -10 -11 0 -17 5
-14 10 3 6 13 10 21 10 8 0 14 -4 14 -10z m2446 -3 c6 -16 -20 -69 -29 -60 -9
8 -9 58 0 66 10 11 23 8 29 -6z m-704 -37 c42 -45 48 -74 18 -90 -24 -13 -41
-5 -34 15 4 8 -7 28 -25 46 -25 25 -29 34 -21 50 6 10 13 19 17 19 3 0 23 -18
45 -40z m-49 -71 c20 -17 28 -32 24 -43 -7 -18 -37 -22 -37 -6 0 6 -8 29 -19
50 -10 21 -16 42 -13 45 4 3 9 0 11 -7 2 -7 18 -25 34 -39z m-87 -6 c-10 -10
-19 5 -10 18 6 11 8 11 12 0 2 -7 1 -15 -2 -18z m1044 23 c0 -3 -4 -8 -10 -11
-5 -3 -10 -1 -10 4 0 6 5 11 10 11 6 0 10 -2 10 -4z m-336 -52 c4 -9 4 -19 2
-21 -8 -8 -26 8 -26 23 0 19 16 18 24 -2z m66 -3 c15 -28 13 -31 -20 -31 -31
0 -39 17 -18 38 17 17 26 15 38 -7z m248 -9 c5 -31 -22 -38 -64 -19 -54 26
-45 46 19 44 35 -2 43 -6 45 -25z m82 18 c0 -5 -7 -10 -15 -10 -8 0 -15 5 -15
10 0 6 7 10 15 10 8 0 15 -4 15 -10z m-2705 -10 c-3 -5 -15 -10 -26 -10 -10 0
-19 5 -19 10 0 6 12 10 26 10 14 0 23 -4 19 -10z m1978 -22 c7 -25 3 -33 -12
-23 -13 8 -15 45 -2 45 5 0 11 -10 14 -22z m-307 1 c8 -14 -14 -29 -32 -22
-16 6 -7 33 11 33 8 0 17 -5 21 -11z m476 -6 c9 -10 18 -29 21 -43 3 -14 11
-40 18 -57 11 -26 11 -35 1 -45 -11 -11 -17 -8 -32 12 -17 23 -24 43 -37 118
-6 35 6 41 29 15z m-227 -69 c14 -22 22 -25 50 -21 68 11 102 -50 67 -120 -37
-71 -82 -94 -134 -69 -17 9 -38 16 -47 16 -20 0 -68 59 -77 94 -8 33 22 49 42
21 20 -27 28 -11 10 17 -15 23 -13 38 6 38 4 0 8 -6 8 -14 0 -23 29 -41 43
-27 9 9 7 16 -13 31 -24 18 -24 19 -6 39 25 27 30 26 51 -5z m-1195 -68 c0
-10 -10 -14 -30 -14 -33 1 -40 14 -12 21 32 9 42 7 42 -7z m2021 -43 c6 -16
22 -52 37 -81 33 -65 25 -73 -63 -70 l-60 3 -27 55 c-15 30 -28 67 -28 82 0
23 5 27 33 31 86 10 97 8 108 -20z m-2078 -8 c-3 -8 -9 -15 -14 -15 -10 0 -12
24 -3 33 11 11 24 -3 17 -18z m1799 -44 c10 -29 23 -60 29 -67 7 -8 9 -18 5
-21 -11 -11 -41 12 -44 35 -2 11 -11 23 -20 26 -9 3 -23 9 -29 12 -18 8 -16
-31 2 -46 18 -15 20 -30 4 -30 -33 0 -102 112 -85 139 2 3 30 6 63 6 l58 0 17
-54z m1475 15 c-5 -16 -57 -20 -57 -4 0 8 13 13 30 14 18 1 29 -3 27 -10z
m-1838 -90 c26 -27 23 -45 -15 -112 -32 -54 -62 -80 -102 -88 -45 -8 -87 32
-49 48 9 3 7 9 -5 19 -10 8 -18 22 -18 33 0 18 57 84 73 84 5 0 20 9 34 20 34
26 55 25 82 -4z m1736 -46 c-3 -5 -10 -10 -16 -10 -5 0 -9 5 -9 10 0 6 7 10
16 10 8 0 12 -4 9 -10z m-65 -60 c-8 -5 -17 -7 -19 -4 -3 3 1 9 9 14 8 5 17 7
19 4 3 -3 -1 -9 -9 -14z m-813 -82 c29 -29 53 -57 53 -63 0 -11 -83 -45 -111
-45 -29 0 -129 124 -113 140 9 8 45 16 94 19 17 1 40 -14 77 -51z m763 48 c0
-2 -7 -7 -16 -10 -8 -3 -12 -2 -9 4 6 10 25 14 25 6z m-1175 -62 c17 -58 25
-114 16 -114 -23 0 -61 89 -61 145 0 32 33 10 45 -31z m-417 13 c35 -27 -7
-50 -47 -25 -15 9 -17 15 -8 29 10 17 30 16 55 -4z m1166 -269 c-4 -29 -8 -60
-8 -68 -1 -8 -8 -18 -16 -22 -19 -9 -70 -10 -70 -2 0 15 87 144 97 144 2 0 1
-24 -3 -52z m-54 26 c0 -8 -17 -36 -39 -62 -21 -26 -44 -57 -50 -69 -13 -26
-61 -32 -61 -9 0 17 103 141 122 149 22 9 28 7 28 -9z"/>
<path d="M3900 4945 c-8 -9 -8 -15 -2 -15 12 0 26 19 19 26 -2 2 -10 -2 -17
-11z"/>
<path d="M3795 4320 c3 -5 11 -10 16 -10 6 0 7 5 4 10 -3 6 -11 10 -16 10 -6
0 -7 -4 -4 -10z"/>
<path d="M3972 1759 c2 -7 10 -15 17 -17 8 -3 12 1 9 9 -2 7 -10 15 -17 17 -8
3 -12 -1 -9 -9z"/>
<path d="M2836 2063 c-6 -14 -5 -15 5 -6 7 7 10 15 7 18 -3 3 -9 -2 -12 -12z"/>
<path d="M4326 1545 c-3 -9 0 -15 9 -15 16 0 20 16 6 24 -5 3 -11 -1 -15 -9z"/>
<path d="M4090 1392 c0 -30 8 -43 52 -81 21 -18 33 -21 57 -16 17 4 31 13 31
20 0 21 -19 28 -36 14 -23 -19 -57 16 -49 52 5 22 2 27 -17 33 -36 9 -38 8
-38 -22z"/>
<path d="M3857 933 c-23 -6 -47 -54 -47 -93 0 -32 6 -36 29 -21 12 8 12 12 2
25 -18 21 6 81 26 64 7 -6 13 -22 13 -35 0 -32 21 -25 33 10 6 19 5 32 -3 42
-13 15 -21 16 -53 8z"/>
<path d="M5630 8553 c-14 -23 -18 -39 -11 -41 6 -2 11 -10 11 -18 0 -17 16
-19 22 -1 6 17 10 97 4 97 -2 0 -14 -17 -26 -37z"/>
<path d="M5642 8458 c-19 -32 -36 -118 -24 -118 21 1 54 55 61 99 10 61 -7 69
-37 19z"/>
<path d="M6280 8335 c14 -8 35 -14 48 -15 25 0 77 -24 105 -48 27 -23 32 -7 7
25 -28 36 -71 53 -134 53 -49 -1 -50 -1 -26 -15z"/>
<path d="M5619 8303 c-13 -17 -13 -17 6 -3 11 8 22 16 24 17 2 2 0 3 -6 3 -6
0 -17 -8 -24 -17z"/>
<path d="M5551 8241 c-8 -6 -9 -11 -3 -15 6 -3 14 -1 17 5 9 14 2 20 -14 10z"/>
<path d="M5611 8211 c-10 -6 -10 -10 -1 -16 7 -4 19 0 28 9 14 13 14 16 2 16
-8 0 -21 -4 -29 -9z"/>
<path d="M5910 8070 c-13 -8 -13 -10 2 -10 9 0 20 5 23 10 8 13 -5 13 -25 0z"/>
<path d="M5911 8021 c-21 -14 19 -31 71 -31 l43 1 -39 19 c-44 22 -55 24 -75
11z"/>
<path d="M3299 7318 c-5 -9 -5 -48 -1 -43 3 2 10 1 16 -4 7 -6 12 0 13 20 2
20 -2 29 -12 29 -8 0 -16 -1 -16 -2z"/>
<path d="M5424 6772 c-6 -4 -10 -19 -10 -34 2 -27 -5 -27 -36 0 -18 15 -24 8
-19 -20 2 -13 -27 -9 -36 5 -18 28 -42 40 -57 28 -8 -7 -47 -13 -88 -16 -45
-2 -72 -7 -70 -14 1 -6 -5 -11 -13 -11 -25 0 -29 -1 -42 -12 -7 -5 -22 -7 -35
-3 -17 5 -19 4 -8 -4 21 -15 5 -25 -19 -11 -14 7 -21 7 -21 0 0 -5 -6 -10 -13
-10 -25 0 -50 -37 -43 -63 4 -16 0 -29 -9 -37 -13 -10 -13 -14 1 -27 12 -13
13 -18 3 -24 -10 -6 -9 -15 4 -41 15 -30 25 -71 33 -137 6 -45 47 -110 79
-123 16 -7 36 -11 43 -10 6 2 12 -4 12 -13 0 -23 47 -38 110 -36 57 2 141 -13
175 -32 40 -21 102 -30 198 -28 83 1 102 5 120 21 l21 20 -32 0 c-25 0 -30 3
-27 20 4 22 -2 24 -39 10 -21 -8 -27 -6 -35 9 -15 28 14 64 45 57 17 -5 26 -2
30 9 8 21 25 19 18 -2 -5 -15 -4 -16 5 -3 16 23 13 37 -9 43 -11 3 -18 1 -14
-4 9 -15 -33 -10 -45 5 -16 19 -5 23 49 21 27 0 45 -6 45 -13 0 -7 3 -12 8
-12 4 0 9 0 12 0 3 0 1 10 -6 22 -10 18 -9 20 5 15 9 -4 16 -2 16 3 0 17 26
11 56 -12 22 -17 26 -18 14 -4 -14 18 -13 18 10 11 14 -4 27 -11 30 -15 3 -5
20 -6 39 -4 19 2 49 0 68 -5 29 -8 33 -7 33 10 0 10 6 18 13 17 6 -2 11 3 9
11 -4 19 37 61 54 54 10 -4 12 0 7 13 -4 12 -3 15 6 10 8 -6 11 -2 9 10 -2 11
2 18 8 17 9 -2 9 10 1 74 -2 12 -9 28 -16 37 -7 9 -11 23 -7 31 4 11 -2 15
-24 15 -29 0 -64 25 -55 40 3 5 -7 13 -22 18 l-28 10 35 2 35 1 -45 19 c-25
10 -39 19 -31 19 8 1 12 3 10 6 -3 2 -20 1 -37 -4 -18 -5 -32 -6 -32 -2 0 10
-68 13 -83 4 -8 -5 -1 -10 18 -14 30 -7 30 -7 3 -8 -15 0 -30 4 -33 9 -3 6
-15 10 -25 10 -10 0 -23 7 -28 16 -7 13 -13 14 -31 5 -20 -11 -21 -10 -17 11
4 23 2 23 -89 23 -51 0 -88 -3 -82 -7 13 -8 10 -9 -39 -13 -26 -2 -31 1 -26
17 3 13 10 17 26 13 17 -5 18 -4 6 4 -18 13 -31 13 -46 3z m183 -58 c-3 -3
-12 -4 -19 -1 -8 3 -5 6 6 6 11 1 17 -2 13 -5z m-244 -31 c-7 -2 -19 -2 -25 0
-7 3 -2 5 12 5 14 0 19 -2 13 -5z m50 -9 c-6 -18 -19 -18 -26 -1 -3 7 3 13 14
14 12 1 16 -3 12 -13z m517 -10 c0 -8 -4 -12 -10 -9 -5 3 -10 10 -10 16 0 5 5
9 10 9 6 0 10 -7 10 -16z m-333 -397 c-2 -6 -9 -13 -17 -15 -7 -3 -10 0 -6 7
11 17 -10 13 -25 -6 -11 -13 -11 -17 -1 -20 6 -3 12 -8 12 -13 0 -12 -25 -7
-44 9 -12 10 -23 11 -47 2 -28 -10 -34 -8 -46 9 -18 26 -35 16 -33 -18 3 -42
1 -52 -11 -52 -5 0 -8 4 -4 9 3 5 0 21 -7 36 -16 35 -3 45 62 51 29 2 56 7 61
10 5 3 9 1 9 -4 0 -6 7 -13 16 -16 12 -5 15 -2 10 9 -3 9 -2 13 4 10 5 -3 15
1 22 9 15 16 52 3 45 -17z m38 -17 c3 -5 2 -10 -4 -10 -5 0 -13 5 -16 10 -3 6
-2 10 4 10 5 0 13 -4 16 -10z"/>
<path d="M5660 6189 c0 -5 7 -9 15 -9 8 0 18 0 22 -1 4 0 9 3 10 8 2 4 -8 9
-22 9 -14 1 -25 -2 -25 -7z"/>
<path d="M6400 6065 c0 -8 4 -15 10 -15 5 0 7 7 4 15 -4 8 -8 15 -10 15 -2 0
-4 -7 -4 -15z"/>
<path d="M4485 5981 c-3 -6 2 -14 11 -19 15 -8 14 -11 -7 -30 -26 -25 -23 -34
9 -25 17 4 21 11 17 24 -5 14 0 22 17 28 l23 9 -28 11 c-34 13 -34 13 -42 2z"/>
<path d="M4465 5950 c-3 -5 -1 -10 4 -10 6 0 11 5 11 10 0 6 -2 10 -4 10 -3 0
-8 -4 -11 -10z"/>
<path d="M4518 5896 c-10 -7 -18 -19 -18 -25 0 -20 22 -7 31 17 10 26 10 26
-13 8z"/>
<path d="M4470 5875 c0 -8 5 -15 10 -15 6 0 10 7 10 15 0 8 -4 15 -10 15 -5 0
-10 -7 -10 -15z"/>
<path d="M4480 5833 c0 -5 5 -15 10 -23 8 -13 10 -13 10 2 0 9 6 19 13 21 6 3
2 6 -10 6 -13 1 -23 -2 -23 -6z"/>
<path d="M5175 5640 c-2 -3 13 -32 32 -65 20 -33 39 -71 43 -85 3 -14 13 -25
21 -25 8 0 18 -6 22 -13 5 -7 12 -10 16 -8 5 3 19 -6 31 -19 13 -14 29 -25 35
-25 12 0 65 -51 65 -63 0 -11 63 -66 76 -67 6 0 18 -8 25 -17 21 -25 100 -73
122 -73 10 0 33 -11 51 -25 18 -14 36 -25 40 -25 7 0 60 -36 82 -55 6 -5 28
-23 48 -39 39 -31 89 -125 101 -190 7 -42 25 -33 20 10 -1 13 2 21 6 18 5 -3
9 6 9 20 0 14 5 26 10 26 6 0 10 5 10 11 0 5 -5 7 -11 3 -8 -5 -10 1 -6 18 5
18 1 30 -13 43 -11 10 -17 22 -14 27 9 14 -65 120 -87 125 -10 3 -16 10 -12
16 3 6 1 7 -6 3 -14 -9 -43 12 -35 25 5 9 -9 13 -33 10 -7 -1 -13 2 -13 7 0 6
-15 17 -32 27 -52 26 -75 40 -91 53 -12 10 -16 10 -21 -3 -3 -8 -11 -15 -18
-15 -9 0 -10 3 -2 8 7 4 8 15 3 27 -4 11 -8 17 -8 12 -1 -4 -19 2 -41 13 -23
12 -38 25 -35 30 4 6 2 10 -3 10 -14 0 -52 36 -52 49 0 6 -8 15 -17 18 -10 4
-41 31 -69 61 -49 51 -79 75 -116 88 -10 3 -15 10 -13 15 3 4 -13 13 -35 19
-22 6 -40 14 -40 18 0 9 -40 11 -45 2z"/>
<path d="M6707 5585 c-15 -19 -34 -35 -41 -35 -17 0 -56 -43 -56 -63 0 -50 70
-4 106 69 15 30 25 57 22 59 -2 2 -16 -11 -31 -30z"/>
<path d="M6431 5571 c-26 -26 -27 -41 -1 -41 23 0 42 31 30 49 -6 10 -12 9
-29 -8z"/>
<path d="M6362 5415 c0 -16 2 -22 5 -12 2 9 2 23 0 30 -3 6 -5 -1 -5 -18z"/>
<path d="M3900 5234 c0 -8 5 -12 10 -9 6 4 8 11 5 16 -9 14 -15 11 -15 -7z"/>
<path d="M6553 5186 c-29 -16 -53 -34 -53 -38 0 -9 63 22 94 47 35 27 12 22
-41 -9z"/>
<path d="M6446 5130 c-16 -5 -33 -7 -37 -4 -10 6 -59 -17 -59 -28 0 -13 32
-10 83 8 68 23 78 43 13 24z"/>
<path d="M5075 5081 c-6 -11 9 -23 19 -14 9 9 7 23 -3 23 -6 0 -12 -4 -16 -9z"/>
<path d="M5730 5061 c0 -11 53 -51 68 -51 22 0 21 18 -1 32 -31 21 -67 31 -67
19z"/>
<path d="M5185 5050 c-3 -5 -1 -10 4 -10 6 0 11 5 11 10 0 6 -2 10 -4 10 -3 0
-8 -4 -11 -10z"/>
<path d="M5145 5040 c3 -5 10 -10 16 -10 5 0 9 5 9 10 0 6 -7 10 -16 10 -8 0
-12 -4 -9 -10z"/>
<path d="M5330 5026 c0 -2 7 -7 16 -10 8 -3 12 -2 9 4 -6 10 -25 14 -25 6z"/>
<path d="M5720 4979 c0 -4 11 -6 25 -6 14 0 25 3 25 8 0 5 -11 8 -25 7 -14 -1
-25 -5 -25 -9z"/>
<path d="M5175 4960 c-3 -5 1 -13 10 -16 22 -9 29 1 11 15 -10 8 -16 9 -21 1z"/>
<path d="M5770 4951 c0 -21 20 -61 31 -61 9 0 9 3 0 14 -9 11 -6 12 14 8 23
-4 30 -13 26 -34 0 -5 4 -8 9 -8 6 0 10 5 10 11 0 6 8 8 18 5 12 -4 10 0 -6
14 -13 11 -21 23 -18 28 2 4 -7 9 -22 10 -14 1 -31 7 -36 12 -13 13 -26 13
-26 1z"/>
<path d="M5668 4913 c7 -3 16 -2 19 1 4 3 -2 6 -13 5 -11 0 -14 -3 -6 -6z"/>
<path d="M5747 4814 c4 -10 0 -13 -13 -8 -14 4 -16 3 -5 -4 7 -5 17 -15 21
-22 5 -8 9 -3 12 14 3 15 0 27 -8 30 -8 3 -11 0 -7 -10z"/>
<path d="M6130 4709 c0 -5 5 -7 10 -4 6 3 10 8 10 11 0 2 -4 4 -10 4 -5 0 -10
-5 -10 -11z"/>
<path d="M6182 4678 c7 -13 11 -27 9 -33 -1 -5 4 -4 11 4 10 11 10 14 1 18 -7
3 -13 11 -13 19 0 8 -5 14 -10 14 -7 0 -6 -8 2 -22z"/>
<path d="M6332 4610 c0 -14 2 -19 5 -12 2 6 2 18 0 25 -3 6 -5 1 -5 -13z"/>
<path d="M5820 4562 c0 -5 7 -15 15 -22 8 -7 15 -8 15 -2 0 5 -7 15 -15 22 -8
7 -15 8 -15 2z"/>
<path d="M6215 4480 c-3 -5 1 -13 10 -16 22 -9 29 1 11 15 -10 8 -16 9 -21 1z"/>
<path d="M3236 4391 c-4 -7 -5 -15 -2 -18 9 -9 19 4 14 18 -4 11 -6 11 -12 0z"/>
<path d="M4672 4304 c9 -9 21 -15 27 -13 6 2 -2 10 -17 17 -25 11 -25 11 -10
-4z"/>
<path d="M5060 4275 c0 -9 6 -12 15 -9 8 4 12 10 9 15 -8 14 -24 10 -24 -6z"/>
<path d="M5225 4140 c3 -5 8 -10 11 -10 2 0 4 5 4 10 0 6 -5 10 -11 10 -5 0
-7 -4 -4 -10z"/>
<path d="M5906 4135 c4 -8 8 -15 10 -15 2 0 4 7 4 15 0 8 -4 15 -10 15 -5 0
-7 -7 -4 -15z"/>
<path d="M5930 4106 c0 -2 7 -7 16 -10 8 -3 12 -2 9 4 -6 10 -25 14 -25 6z"/>
<path d="M4482 3651 c2 -7 7 -12 11 -12 12 1 9 15 -3 20 -7 2 -11 -2 -8 -8z"/>
<path d="M4570 3610 c0 -5 7 -7 15 -4 8 4 15 8 15 10 0 2 -7 4 -15 4 -8 0 -15
-4 -15 -10z"/>
<path d="M5580 3610 c0 -5 5 -10 10 -10 6 0 10 5 10 10 0 6 -4 10 -10 10 -5 0
-10 -4 -10 -10z"/>
<path d="M6228 3134 c-3 -281 -1 -345 10 -356 8 -8 13 -1 18 30 4 23 10 42 13
42 14 0 33 -128 41 -270 11 -181 -1 -302 -46 -480 -18 -74 -36 -155 -40 -180
-8 -51 -23 -85 -65 -143 -30 -41 -37 -67 -19 -67 14 0 74 96 88 140 37 114 62
224 113 505 6 33 19 96 30 140 10 45 19 90 19 100 0 11 4 26 9 34 7 11 12 7
25 -15 l15 -29 1 33 c0 25 4 32 19 32 16 0 21 -8 23 -37 3 -35 4 -33 12 19 11
74 3 104 -29 112 -22 6 -25 12 -25 52 0 37 4 47 20 51 28 7 25 29 -7 61 -31
30 -55 88 -47 114 3 10 -8 29 -29 50 -18 18 -49 56 -69 83 -20 28 -46 59 -57
70 l-22 19 -1 -110z"/>
<path d="M6521 2559 c-20 -26 -28 -29 -54 -23 l-30 6 6 -68 c4 -38 7 -88 7
-112 0 -57 16 -51 53 19 16 30 37 70 48 88 16 27 19 45 14 78 -3 24 -9 43 -13
42 -4 0 -18 -14 -31 -30z"/>
<path d="M6680 2446 c0 -17 37 -46 58 -46 13 0 139 -51 174 -70 10 -6 26 -10
35 -10 37 0 118 -38 118 -55 0 -22 111 -71 129 -56 25 21 235 -52 237 -82 2
-43 11 -83 28 -120 10 -23 21 -54 25 -69 3 -16 11 -28 17 -28 7 0 8 11 4 30
-9 39 0 50 33 41 17 -5 33 -20 44 -42 l17 -34 -6 55 c-3 30 -10 63 -14 72 -15
29 -10 48 13 48 16 0 19 3 11 11 -11 11 -103 52 -153 69 -14 4 -87 37 -162 74
-76 36 -142 66 -147 66 -6 0 -25 8 -43 18 -37 21 -237 95 -313 116 -94 26
-105 27 -105 12z m430 -180 c0 -3 -4 -8 -10 -11 -5 -3 -10 -1 -10 4 0 6 5 11
10 11 6 0 10 -2 10 -4z"/>
<path d="M6690 2352 c0 -28 41 -56 76 -53 18 1 35 -2 39 -8 12 -21 35 -12 35
14 0 19 -7 26 -27 31 -16 3 -48 12 -72 20 -55 17 -51 18 -51 -4z"/>
<path d="M7570 2200 c19 -11 42 -19 50 -19 8 0 -5 8 -29 19 -55 25 -67 25 -21
0z"/>
<path d="M7092 2133 c4 -36 12 -71 18 -78 6 -7 30 -15 53 -17 23 -3 51 -8 61
-13 17 -8 19 -5 13 30 -7 45 -39 125 -49 125 -5 0 -8 -4 -8 -9 0 -14 -52 -23
-63 -12 -8 8 -7 11 1 11 23 0 12 25 -11 26 -23 2 -23 0 -15 -63z"/>
<path d="M6745 2154 c12 -70 13 -71 63 -77 26 -3 54 -7 62 -9 12 -2 15 7 13
41 -1 25 -8 50 -15 57 -7 7 -39 16 -71 19 l-58 7 6 -38z"/>
<path d="M6539 2138 c-12 -18 -46 -58 -75 -88 -42 -44 -53 -64 -59 -100 -4
-25 -13 -71 -21 -104 -8 -32 -13 -61 -10 -64 9 -8 105 106 159 190 9 15 24 56
32 90 26 110 16 137 -26 76z"/>
<path d="M7625 2070 c3 -5 13 -10 21 -10 8 0 12 5 9 10 -3 6 -13 10 -21 10 -8
0 -12 -4 -9 -10z"/>
<path d="M7780 2014 c0 -3 9 -21 20 -39 17 -27 26 -32 59 -32 49 0 61 -8 61
-39 0 -13 5 -24 10 -24 6 0 10 -5 10 -11 0 -7 -17 -10 -45 -7 -53 4 -55 -4
-25 -71 17 -35 24 -42 41 -38 12 3 33 1 46 -4 25 -9 25 -10 7 -30 -11 -12 -28
-25 -40 -29 -19 -7 -20 -15 -17 -77 2 -37 10 -89 18 -115 7 -26 17 -80 20
-120 4 -40 16 -92 26 -116 l19 -43 45 37 c25 21 45 41 45 44 -1 12 -17 31 -26
29 -5 -2 -25 0 -45 4 -35 7 -36 9 -36 52 0 25 4 45 9 45 4 0 8 5 8 10 0 6 -7
10 -15 10 -8 0 -15 5 -15 10 0 12 30 13 47 2 6 -4 14 -24 18 -44 4 -21 13 -42
21 -49 12 -10 13 -4 9 32 -2 24 -7 73 -10 108 -3 35 -10 69 -15 76 -6 7 -13
53 -17 104 -5 76 -12 103 -40 158 -18 37 -33 79 -33 94 0 22 -8 30 -47 47 -56
23 -113 37 -113 26z m215 -412 c-2 -2 -20 4 -40 13 -41 16 -40 19 2 45 l28 17
6 -36 c4 -20 6 -37 4 -39z"/>
<path d="M8150 2001 c0 -5 53 -27 118 -50 64 -23 149 -57 187 -75 39 -19 80
-37 92 -41 37 -10 34 12 -5 28 -40 18 -261 103 -302 117 -71 24 -90 28 -90 21z"/>
<path d="M1870 1907 c-69 -35 -154 -73 -190 -86 -36 -13 -87 -36 -115 -51 -27
-15 -81 -39 -120 -54 -109 -43 -225 -99 -225 -109 0 -16 51 2 155 54 55 27
140 62 188 79 49 16 110 42 135 57 44 27 130 70 212 107 37 17 98 51 108 60
20 20 -40 -3 -148 -57z"/>
<path d="M6784 1907 c4 -23 10 -45 14 -48 4 -4 36 -9 71 -12 l63 -5 -6 41 c-4
23 -11 46 -15 50 -5 5 -37 10 -71 12 l-62 4 6 -42z"/>
<path d="M7145 1883 c9 -51 20 -60 88 -66 54 -5 57 -4 57 16 -1 12 -7 35 -13
51 -12 28 -17 30 -76 33 l-63 4 7 -38z"/>
<path d="M8175 1893 c4 -10 12 -36 18 -58 5 -22 21 -73 34 -114 13 -40 27
-109 30 -152 3 -44 9 -79 13 -79 8 0 60 54 60 63 0 4 -11 7 -25 7 -14 0 -25 4
-25 9 0 13 29 22 54 15 13 -3 27 0 34 8 16 20 -1 130 -27 176 -12 20 -26 49
-32 63 -7 19 -28 35 -68 53 -69 31 -76 32 -66 9z m85 -58 c0 -8 -7 -15 -15
-15 -16 0 -20 12 -8 23 11 12 23 8 23 -8z m35 -175 c-3 -5 -1 -10 4 -10 6 0
11 -5 11 -11 0 -8 -5 -8 -15 1 -17 14 -20 30 -4 30 5 0 7 -4 4 -10z"/>
<path d="M7494 1875 c-3 -7 3 -30 13 -51 17 -36 22 -39 58 -39 22 0 50 -4 63
-8 19 -7 22 -5 22 15 0 13 -8 38 -18 57 -16 31 -21 33 -75 36 -41 3 -60 0 -63
-10z"/>
<path d="M7650 1735 c0 -5 5 -17 10 -25 5 -8 10 -10 10 -5 0 6 -5 17 -10 25
-5 8 -10 11 -10 5z"/>
<path d="M6826 1721 c-3 -4 0 -28 7 -52 l13 -44 69 2 70 2 -3 31 c-5 61 -16
70 -87 70 -35 0 -66 -4 -69 -9z"/>
<path d="M1668 1678 c-51 -23 -68 -37 -73 -56 -4 -15 -15 -44 -24 -67 -10 -22
-22 -69 -25 -104 -5 -38 -15 -76 -27 -92 -25 -36 -24 -44 8 -69 18 -14 35 -19
50 -15 23 5 32 -8 13 -20 -8 -5 -7 -11 1 -21 10 -12 16 -4 35 43 13 32 24 68
24 80 0 24 22 113 39 156 6 15 13 46 16 67 2 21 11 58 19 81 8 24 14 44 13 46
-2 1 -33 -12 -69 -29z m-58 -273 c0 -26 -14 -31 -39 -16 -9 6 -11 18 -7 35 6
23 9 25 26 16 12 -6 20 -21 20 -35z"/>
<path d="M7199 1705 c-9 -8 6 -72 21 -90 7 -8 21 -15 32 -15 10 0 34 -6 53
-14 19 -8 37 -11 40 -6 8 13 -12 91 -27 106 -14 14 -109 30 -119 19z"/>
<path d="M6099 1669 c-31 -40 -84 -156 -64 -139 8 7 15 18 15 25 0 7 8 23 19
36 25 33 63 100 58 105 -2 2 -15 -10 -28 -27z"/>
<path d="M6515 1645 c-15 -31 -26 -57 -24 -59 2 -2 30 1 62 7 l59 11 -6 39
c-9 51 -12 57 -40 57 -18 0 -29 -13 -51 -55z"/>
<path d="M7610 1681 c-30 -3 -54 -10 -53 -16 1 -5 5 -26 8 -45 10 -52 21 -60
81 -60 36 0 54 -4 54 -12 0 -9 4 -8 10 2 6 8 7 29 4 45 -8 37 -34 96 -43 93
-3 -1 -31 -4 -61 -7z"/>
<path d="M1323 1558 c-18 -11 -33 -23 -33 -27 0 -10 49 -56 54 -50 4 5 18 99
14 98 -2 0 -18 -10 -35 -21z"/>
<path d="M7716 1474 l5 -42 -47 9 c-26 5 -50 7 -52 4 -6 -5 9 -71 27 -120 6
-16 13 -43 16 -58 3 -15 10 -25 15 -22 5 3 7 19 3 35 -6 34 -2 36 32 14 17
-11 27 -29 31 -55 4 -22 11 -42 15 -45 9 -5 13 -44 5 -44 -2 0 -20 7 -41 16
-20 8 -40 13 -43 10 -10 -11 20 -118 39 -137 25 -25 31 -24 67 6 30 25 33 52
9 83 -12 15 -24 73 -37 172 -11 84 -28 165 -41 195 -6 14 -7 7 -3 -21z"/>
<path d="M6884 1454 c3 -26 12 -57 20 -68 7 -12 17 -36 20 -54 4 -17 12 -32
17 -32 12 0 12 37 -1 45 -21 13 -8 25 28 25 50 0 65 -11 57 -43 -4 -14 -3 -32
1 -39 5 -7 9 -25 9 -40 0 -31 -15 -35 -58 -19 -19 8 -27 6 -31 -4 -7 -18 13
-137 25 -149 5 -6 9 -26 9 -45 0 -46 10 -61 41 -61 61 1 73 -4 80 -37 3 -18 5
-34 3 -36 -2 -2 -23 -1 -46 2 -34 5 -43 11 -48 31 -12 45 -21 -70 -11 -125 15
-78 34 -145 40 -145 3 0 13 4 21 10 12 8 12 11 -3 28 -9 10 -17 22 -17 27 0
11 83 -4 91 -17 8 -13 0 -48 -12 -48 -5 0 -9 -7 -9 -15 0 -8 4 -15 9 -15 5 0
16 -3 25 -6 14 -5 15 5 11 84 -5 95 -9 121 -31 188 -7 23 -16 77 -19 120 -4
44 -18 124 -31 179 -13 55 -28 133 -34 174 -16 117 -23 125 -99 129 l-64 3 7
-47z m186 -404 c0 -6 -7 -22 -16 -36 -13 -19 -20 -22 -30 -13 -15 12 -19 41
-7 52 10 11 53 8 53 -3z"/>
<path d="M6580 1463 c-30 -8 -59 -18 -64 -23 -11 -11 3 -87 20 -105 12 -12 19
-12 49 1 19 8 43 14 54 14 11 0 22 4 25 9 7 11 -9 100 -20 110 -5 5 -34 2 -64
-6z"/>
<path d="M7246 1471 c-6 -10 11 -107 23 -127 13 -26 31 -128 31 -183 0 -25 12
-77 25 -116 14 -38 25 -78 25 -87 0 -9 5 -29 11 -45 10 -27 11 -27 21 -8 6 11
11 21 12 22 1 1 15 5 31 8 29 7 29 7 10 -8 -20 -16 -19 -16 7 -17 24 0 46 -15
36 -25 -2 -2 -27 -6 -56 -8 -29 -2 -55 -6 -58 -9 -6 -7 6 -81 16 -98 6 -9 25
-1 71 30 35 24 65 44 67 46 2 1 -3 15 -11 31 -15 28 -31 115 -42 226 -3 32
-12 69 -20 81 -9 13 -18 47 -22 75 -3 28 -10 51 -16 51 -5 0 -7 -13 -5 -30 4
-25 1 -30 -17 -30 -11 0 -26 -5 -33 -12 -18 -18 -39 9 -45 60 -6 46 -8 44 68
46 28 1 30 3 27 36 -5 57 -22 73 -91 86 -34 6 -63 8 -65 5z m172 -258 c-2 -13
-15 -19 -47 -21 -39 -3 -43 -1 -32 12 11 13 32 21 69 25 8 0 12 -7 10 -16z
m12 -198 c0 -9 -6 -15 -14 -13 -8 2 -22 -6 -30 -17 -13 -19 -15 -19 -21 -2
-12 28 2 47 35 47 20 0 30 -5 30 -15z"/>
<path d="M2952 1337 c-6 -7 -12 -30 -14 -51 l-3 -39 70 2 c40 2 73 8 77 14 4
7 8 29 8 50 l0 37 -64 0 c-39 0 -68 -5 -74 -13z"/>
<path d="M2209 1283 c-13 -28 -23 -73 -24 -108 -3 -76 -15 -157 -26 -170 -7
-10 -12 -79 -10 -162 1 -39 4 -43 64 -83 l62 -42 7 94 c13 158 17 335 8 313
-5 -11 -9 -32 -9 -47 -1 -28 -22 -50 -29 -30 -5 16 -52 16 -52 0 0 -6 -3 -9
-6 -6 -3 4 -3 31 1 62 l7 55 54 7 c61 7 71 18 76 79 l3 39 -51 -3 c-50 -2 -51
-2 -47 23 8 40 -4 31 -28 -21z"/>
<path d="M5793 1274 c-22 -20 -23 -24 -8 -19 11 4 28 9 37 12 21 6 32 33 13
33 -8 0 -27 -12 -42 -26z"/>
<path d="M6560 1275 c0 -8 4 -15 9 -15 5 0 11 7 15 15 3 9 0 15 -9 15 -8 0
-15 -7 -15 -15z"/>
<path d="M6627 1217 l-59 -10 7 -46 c12 -76 16 -80 87 -74 35 3 67 9 71 13 16
14 -23 133 -42 129 -3 -1 -32 -6 -64 -12z"/>
<path d="M7680 1220 c0 -13 18 -22 24 -11 3 5 -1 11 -9 15 -8 3 -15 1 -15 -4z"/>
<path d="M5700 1105 c-53 -27 -161 -130 -208 -198 -18 -26 -30 -47 -27 -47 9
0 172 126 213 164 33 31 78 94 71 101 -2 1 -24 -7 -49 -20z"/>
<path d="M2935 1111 c-32 -7 -42 -29 -44 -92 l-1 -35 60 4 c53 4 60 2 60 -14
1 -35 26 38 33 94 l6 52 -42 -1 c-23 -1 -55 -4 -72 -8z"/>
<path d="M6367 1041 c-2 -10 -1 -25 4 -32 5 -8 9 -22 9 -31 0 -15 -7 -16 -52
-11 l-51 6 7 -68 c4 -37 11 -76 16 -85 5 -10 12 -80 15 -157 8 -190 10 -197
65 -201 25 -2 50 -8 56 -13 17 -14 5 -56 -19 -63 -17 -4 -18 -7 -7 -20 7 -9
18 -16 25 -16 6 0 17 -10 23 -22 17 -35 5 191 -15 277 -19 81 -25 91 -42 71
-9 -11 -8 -17 4 -29 22 -23 19 -27 -17 -20 -53 10 -61 21 -54 74 4 26 2 58 -3
72 -11 29 3 47 22 28 6 -6 20 -12 32 -12 17 -1 17 -2 2 -6 -14 -4 -16 -8 -6
-19 6 -8 17 -14 24 -14 16 0 12 169 -4 199 -6 11 -11 38 -11 60 0 43 -14 63
-23 32z"/>
<path d="M6726 1031 c-4 -6 0 -23 8 -38 l15 -28 0 25 c1 31 -14 57 -23 41z"/>
<path d="M6620 1006 c0 -24 12 -41 22 -30 8 7 -3 54 -13 54 -5 0 -9 -11 -9
-24z"/>
<path d="M2890 927 c0 -18 -4 -58 -10 -88 -12 -67 -13 -137 -3 -308 l8 -134
69 -29 c38 -15 73 -28 78 -28 9 0 1 100 -13 145 -10 33 -13 194 -6 265 3 25 2
81 -3 125 -4 44 -8 67 -9 52 -2 -40 -18 -67 -36 -61 -9 4 -15 0 -15 -10 0 -16
-38 -42 -47 -32 -3 3 -1 12 5 19 9 10 9 16 0 25 -8 8 -8 15 2 27 10 12 10 18
0 30 -6 8 -9 19 -5 25 3 5 1 10 -4 10 -6 0 -11 -15 -11 -33z"/>
<path d="M5698 938 c-21 -33 -29 -58 -18 -58 11 0 50 54 50 69 0 18 -17 12
-32 -11z"/>
<path d="M6745 940 c-4 -7 -24 -8 -54 -4 -32 4 -51 2 -55 -5 -14 -23 6 -119
31 -153 14 -18 23 -25 20 -16 -6 18 19 27 59 20 17 -3 21 -11 22 -45 1 -55 7
-95 15 -104 16 -16 4 -23 -38 -23 -44 0 -45 1 -46 33 -1 17 -1 40 0 50 1 9 -3
17 -9 17 -14 0 -5 -222 11 -252 10 -18 18 -20 70 -16 32 2 61 6 63 9 4 4 -4
70 -23 184 -6 33 -15 109 -20 168 -10 102 -30 163 -46 137z"/>
<path d="M3245 828 c-4 -14 -8 -94 -11 -179 -6 -230 -6 -238 1 -315 l6 -72 65
-21 c35 -11 66 -21 69 -21 7 0 6 172 -1 323 -5 101 -9 125 -19 117 -17 -14
-95 -1 -95 16 0 14 81 30 99 20 5 -4 14 1 19 11 12 23 21 108 13 121 -3 5 -36
13 -73 17 -65 7 -67 7 -73 -17z m95 -262 c10 -28 4 -36 -30 -36 -34 0 -40 7
-33 41 4 21 9 25 30 21 13 -2 28 -14 33 -26z"/>
<path d="M5584 812 c-21 -15 -61 -36 -89 -46 -62 -24 -139 -74 -184 -120 -35
-36 -33 -48 4 -23 11 8 53 24 94 36 80 24 109 40 150 82 34 35 74 89 68 95 -2
2 -21 -8 -43 -24z"/>
<path d="M6397 723 c-13 -13 -7 -32 8 -27 8 4 15 12 15 20 0 15 -12 19 -23 7z"/>
<path d="M7040 605 c0 -43 1 -45 21 -35 26 14 24 73 -3 78 -15 3 -18 -4 -18
-43z"/>
<path d="M5335 520 c-3 -5 -2 -10 4 -10 5 0 13 5 16 10 3 6 2 10 -4 10 -5 0
-13 -4 -16 -10z"/>
<path d="M3609 488 c-1 -18 -2 -101 -4 -185 l-3 -151 63 -16 c84 -21 84 -21
76 16 -6 29 -11 33 -46 36 -21 1 -41 4 -43 7 -8 8 -24 82 -28 128 l-3 47 42 0
c24 0 48 -5 54 -11 22 -22 35 1 28 50 -10 66 -18 77 -74 95 -64 21 -61 21 -62
-16z"/>
<path d="M6094 435 c-3 -8 -1 -27 4 -42 10 -27 10 -26 11 15 1 43 -5 54 -15
27z"/>
<path d="M6345 388 c10 -78 13 -85 30 -62 22 29 3 114 -27 114 -5 0 -6 -23 -3
-52z"/>
<path d="M6025 410 c3 -5 11 -10 16 -10 6 0 7 5 4 10 -3 6 -11 10 -16 10 -6 0
-7 -4 -4 -10z"/>
<path d="M6040 370 c0 -5 5 -10 10 -10 6 0 10 5 10 10 0 6 -4 10 -10 10 -5 0
-10 -4 -10 -10z"/>
<path d="M5987 305 c-8 -48 5 -151 18 -149 6 1 40 9 76 19 l66 17 -5 52 c-6
63 -19 93 -35 77 -6 -6 -32 -11 -58 -11 -37 0 -48 4 -51 18 -3 9 -7 -1 -11
-23z"/>
<path d="M6353 285 c-8 -23 0 -26 37 -13 30 10 32 12 14 19 -30 12 -44 10 -51
-6z"/>
<path d="M4094 236 c5 -22 2 -24 -54 -35 l-60 -12 0 -58 0 -59 63 -11 c103
-18 98 -22 91 62 -4 39 -10 76 -15 82 -5 5 -9 19 -9 32 0 13 -5 23 -11 23 -7
0 -9 -9 -5 -24z"/>
<path d="M4365 199 c-9 -14 3 -123 17 -155 11 -25 23 -30 32 -16 8 14 91 8 89
-6 -2 -6 1 -12 6 -12 24 0 21 110 -5 161 -10 21 -20 26 -56 27 -23 1 -50 4
-59 7 -10 3 -20 1 -24 -6z"/>
<path d="M4840 171 c0 -5 5 -13 10 -16 6 -3 10 -2 10 4 0 5 -4 13 -10 16 -5 3
-10 2 -10 -4z"/>
</g>
</svg>
