<?xml version="1.0" standalone="no"?>
<!DOCTYPE svg PUBLIC "-//W3C//DTD SVG 20010904//EN"
 "http://www.w3.org/TR/2001/REC-SVG-20010904/DTD/svg10.dtd">
<svg version="1.0" xmlns="http://www.w3.org/2000/svg"
 width="960.000000pt" height="960.000000pt" viewBox="0 0 960.000000 960.000000"
 preserveAspectRatio="xMidYMid meet">
<g transform="translate(0.000000,960.000000) scale(0.100000,-0.100000)"
fill="#000000" stroke="none">
<path d="M4971 9239 c-32 -13 -255 -28 -351 -23 -41 2 -86 4 -100 4 -76 3
-187 -32 -305 -96 -98 -54 -181 -87 -262 -104 -28 -6 -63 -22 -77 -35 -33 -30
-79 -53 -125 -61 -66 -11 -220 -66 -241 -87 -16 -14 -35 -19 -67 -19 -36 1
-46 -2 -50 -18 -4 -15 -11 -18 -34 -13 -28 5 -64 -11 -97 -44 -7 -7 -20 -13
-27 -13 -25 0 -66 -66 -78 -126 -15 -74 -20 -81 -54 -81 -29 0 -83 -51 -83
-78 0 -8 -12 -27 -26 -42 -14 -15 -38 -50 -51 -78 -14 -27 -36 -64 -49 -81
-13 -17 -24 -43 -24 -58 0 -15 -9 -48 -21 -73 -35 -78 -52 -143 -39 -157 11
-14 4 -46 -10 -46 -5 0 -11 8 -13 18 -2 9 -3 4 -2 -12 1 -16 -5 -43 -14 -60
-9 -17 -17 -56 -17 -86 -2 -78 -2 -77 -24 -83 -12 -3 -20 -14 -20 -25 0 -11
-7 -22 -15 -26 -18 -6 -20 -37 -3 -54 8 -8 8 -15 -2 -27 -8 -9 -11 -30 -7 -53
2 -21 0 -47 -6 -58 -28 -50 -31 -143 -8 -251 20 -94 22 -146 7 -253 -5 -39 -5
-41 5 -17 6 15 15 27 21 27 6 0 8 -11 3 -27 -3 -16 -7 -63 -8 -106 -2 -75 -2
-77 15 -55 10 13 18 18 18 11 0 -21 -42 -93 -51 -87 -5 3 -8 -6 -7 -20 2 -18
6 -22 14 -15 8 7 12 -3 12 -37 1 -26 9 -58 18 -72 13 -19 15 -41 12 -96 -4
-57 -1 -75 11 -86 9 -8 18 -14 22 -13 3 1 6 -27 7 -62 0 -63 0 -64 -28 -67
-29 -3 -28 -4 28 -45 31 -24 64 -43 72 -43 17 0 39 44 50 99 6 29 5 32 -5 18
-19 -27 -24 -20 -14 19 7 25 7 39 -1 49 -8 9 -8 20 -2 31 6 11 6 27 0 45 -6
18 -6 34 1 48 14 24 14 78 2 86 -12 7 -3 105 11 122 5 6 11 24 14 39 l5 27
-20 -24 c-11 -13 -20 -19 -21 -12 0 6 5 15 10 18 6 3 10 14 10 23 0 9 11 32
24 51 13 20 26 48 30 62 5 22 2 25 -16 25 -30 -1 -36 30 -8 37 12 3 26 19 33
36 6 17 15 31 19 31 4 0 8 6 8 14 0 8 9 30 19 48 11 18 23 51 27 73 3 22 14
48 22 58 20 23 42 84 42 119 0 15 5 30 10 33 14 9 1 27 -13 18 -7 -3 -4 3 6
14 22 25 29 73 15 90 -7 9 -3 16 18 23 21 8 25 13 15 19 -10 7 -11 13 -2 30 7
11 16 21 21 21 6 0 10 5 10 11 0 6 11 25 26 41 14 17 23 36 20 43 -2 7 6 22
20 34 13 11 24 27 24 35 0 12 76 93 126 135 9 8 34 14 55 14 22 0 39 4 39 9 0
4 9 8 19 8 11 0 21 4 23 9 2 6 53 12 113 14 61 2 119 8 130 14 42 22 93 32
175 34 47 1 90 6 97 11 7 6 28 5 52 -2 42 -11 106 -5 128 12 8 6 21 3 37 -7
25 -17 26 -17 26 4 0 29 11 27 40 -9 26 -32 64 -41 107 -26 19 6 25 3 33 -19
8 -20 16 -25 37 -23 16 2 34 9 41 15 10 10 19 9 40 -4 15 -10 30 -21 33 -26 4
-5 17 -3 30 4 13 7 41 12 62 10 28 -1 46 5 68 24 17 14 34 25 37 26 73 5 97
10 113 25 13 11 33 17 54 16 20 -2 52 7 77 20 49 25 94 33 104 17 4 -7 15 -2
30 12 21 20 24 20 24 5 0 -25 46 -13 82 21 l26 25 11 -21 c10 -18 18 -20 54
-15 23 4 44 10 47 14 3 3 25 6 50 7 71 1 168 32 200 65 38 38 48 36 15 -4 -29
-34 -26 -39 28 -52 19 -4 26 -3 22 4 -11 18 13 11 51 -15 20 -14 45 -25 54
-25 10 0 23 -7 30 -15 7 -8 19 -15 27 -15 12 0 13 -3 4 -14 -16 -19 2 -30 35
-22 17 5 24 2 24 -8 0 -8 12 -17 28 -21 30 -6 112 -73 112 -92 0 -6 13 -23 30
-36 18 -16 28 -32 24 -40 -3 -9 2 -18 14 -21 10 -4 25 -19 33 -34 8 -15 21
-32 29 -39 12 -10 12 -12 1 -13 -10 0 -11 -3 -2 -13 6 -8 13 -24 15 -38 3 -13
5 -26 6 -29 2 -3 2 -8 1 -12 0 -4 9 -13 22 -19 32 -17 44 -38 41 -68 -1 -14 3
-32 9 -40 10 -12 9 -14 -8 -7 -17 6 -17 4 4 -18 20 -21 22 -26 8 -26 -21 0
-22 -14 -1 -31 9 -7 33 -38 53 -69 57 -85 56 -84 38 -77 -14 5 -14 3 1 -23 9
-16 19 -24 23 -19 11 18 119 -136 119 -169 0 -10 9 -34 19 -55 28 -56 35 -88
16 -81 -8 4 -15 10 -15 15 0 5 -5 9 -11 9 -6 0 -1 -13 10 -29 12 -16 21 -35
21 -41 0 -8 8 -10 21 -7 14 4 19 2 16 -8 -3 -7 -1 -17 5 -23 8 -8 8 -15 0 -24
-14 -17 -3 -34 23 -40 14 -2 20 -11 20 -30 -1 -15 4 -26 10 -25 5 1 10 -7 10
-17 0 -11 6 -21 13 -24 6 -2 12 -12 12 -21 0 -22 33 -54 45 -44 4 5 4 -2 1
-14 -5 -15 -3 -23 4 -23 8 0 10 -8 7 -22 -4 -12 -2 -27 4 -34 8 -9 5 -11 -11
-7 -18 5 -19 3 -11 -20 6 -15 9 -53 8 -86 -1 -33 2 -63 6 -67 8 -9 98 37 141
71 26 21 26 22 5 21 -13 -1 -24 7 -30 22 -6 16 -5 22 6 22 10 0 16 16 21 50 4
28 10 50 15 50 5 0 9 5 9 11 0 5 -4 8 -9 5 -4 -3 -6 6 -3 20 3 16 -2 33 -15
47 -30 33 -37 48 -18 41 11 -5 14 -2 9 12 -4 11 -9 23 -12 28 -8 15 -13 79 -7
104 3 12 12 22 20 22 12 0 13 19 10 108 -4 119 -7 146 -19 180 -6 19 -3 27 13
39 12 8 18 19 14 26 -4 6 -8 32 -9 57 -1 25 -10 66 -20 92 -19 49 -15 69 10
49 16 -13 32 2 21 20 -9 13 -14 49 -19 127 -4 67 -25 119 -63 158 -14 14 -23
36 -23 56 -1 18 -7 51 -15 73 -17 47 -19 91 -5 100 6 4 3 17 -10 35 -11 15
-20 32 -20 37 0 5 -11 20 -25 33 -13 12 -24 25 -23 29 2 21 -4 41 -12 41 -6 0
-20 9 -32 20 -16 15 -18 20 -7 20 8 0 21 -6 28 -12 10 -11 10 -7 0 17 -7 17
-17 35 -22 42 -5 7 -10 31 -11 54 -2 33 -10 50 -41 83 -21 22 -44 57 -51 76
-6 19 -21 40 -33 45 -18 8 -21 16 -17 38 10 47 -70 147 -116 147 -42 0 -148
110 -148 154 0 51 -21 78 -86 111 -34 16 -73 45 -88 63 -22 26 -35 32 -66 32
-21 0 -43 6 -49 14 -7 8 -27 18 -44 21 -18 4 -69 27 -114 51 -46 24 -94 44
-108 44 -14 0 -40 8 -58 17 -19 10 -59 17 -102 19 -40 1 -97 11 -132 23 -34
11 -72 21 -84 21 -28 0 -71 14 -174 56 -90 36 -158 48 -194 33z m1385 -664
c-8 -23 -25 -9 -19 16 4 13 9 17 16 10 5 -5 7 -17 3 -26z m119 -65 c3 -5 2
-10 -4 -10 -5 0 -13 5 -16 10 -3 6 -2 10 4 10 5 0 13 -4 16 -10z m-3407 -42
c-3 -7 -13 -15 -24 -17 -16 -3 -17 -1 -5 13 16 19 34 21 29 4z m-8 -58 c0 -5
-2 -10 -4 -10 -3 0 -8 5 -11 10 -3 6 -1 10 4 10 6 0 11 -4 11 -10z m10 -50 c0
-5 -4 -10 -10 -10 -5 0 -10 5 -10 10 0 6 5 10 10 10 6 0 10 -4 10 -10z m3165
-630 c3 -5 2 -10 -4 -10 -5 0 -13 5 -16 10 -3 6 -2 10 4 10 5 0 13 -4 16 -10z
m-3495 -190 c0 -5 -4 -10 -10 -10 -5 0 -10 5 -10 10 0 6 5 10 10 10 6 0 10 -4
10 -10z m4155 -120 c3 -5 1 -10 -4 -10 -6 0 -11 5 -11 10 0 6 2 10 4 10 3 0 8
-4 11 -10z m10 -180 c3 -5 2 -10 -4 -10 -5 0 -13 5 -16 10 -3 6 -2 10 4 10 5
0 13 -4 16 -10z m-335 -81 c0 -6 -4 -7 -10 -4 -5 3 -10 11 -10 16 0 6 5 7 10
4 6 -3 10 -11 10 -16z m-3656 -164 c-6 -16 -24 -21 -24 -7 0 11 11 22 21 22 5
0 6 -7 3 -15z m-24 -74 c0 -21 -13 -41 -26 -41 -8 0 -14 5 -14 10 0 6 5 10 10
10 6 0 9 3 9 8 -3 14 1 22 11 22 6 0 10 -4 10 -9z m10 -91 c0 -5 -4 -10 -10
-10 -5 0 -10 -6 -10 -13 0 -7 -6 -22 -14 -33 -14 -18 -15 -18 -12 8 3 28 22
58 37 58 5 0 9 -4 9 -10z m3972 -479 c2 7 8 6 17 -5 12 -14 10 -16 -12 -16
-17 0 -26 7 -30 23 -6 20 -5 21 7 4 9 -11 15 -14 18 -6z"/>
<path d="M5720 8009 c0 -5 14 -9 32 -9 36 0 31 12 -7 16 -14 1 -25 -2 -25 -7z"/>
<path d="M6380 7220 c0 -5 5 -10 11 -10 5 0 7 5 4 10 -3 6 -8 10 -11 10 -2 0
-4 -4 -4 -10z"/>
<path d="M3016 7004 c-5 -14 -4 -15 9 -4 17 14 19 20 6 20 -5 0 -12 -7 -15
-16z"/>
<path d="M2998 6968 c15 -15 16 -45 2 -50 -6 -2 -13 -18 -15 -35 -5 -41 14
-35 38 10 18 33 15 64 -7 79 -18 12 -31 9 -18 -4z"/>
<path d="M2956 6809 c-9 -11 -16 -25 -14 -31 2 -6 12 2 22 17 21 33 17 42 -8
14z"/>
<path d="M6636 6585 c4 -8 10 -12 15 -9 11 6 2 24 -11 24 -5 0 -7 -7 -4 -15z"/>
<path d="M6723 6535 c7 -14 16 -25 20 -25 9 0 -9 36 -22 44 -5 4 -4 -5 2 -19z"/>
<path d="M5380 6512 c-14 -2 -47 -10 -73 -19 -30 -9 -64 -13 -87 -9 -48 7 -75
-2 -137 -50 -71 -54 -81 -74 -35 -74 15 0 34 -6 41 -12 19 -20 193 -16 271 6
134 38 188 47 304 51 74 2 123 8 130 16 8 9 3 10 -24 6 -19 -3 -29 -3 -22 0
22 9 13 31 -15 36 -118 23 -177 38 -187 46 -11 9 -104 11 -166 3z"/>
<path d="M6681 6474 c0 -11 3 -14 6 -6 3 7 2 16 -1 19 -3 4 -6 -2 -5 -13z"/>
<path d="M3790 6433 c-14 -2 -49 -15 -79 -29 -30 -14 -60 -23 -67 -20 -15 6
-114 -21 -129 -35 -5 -5 7 -9 33 -9 54 0 53 -13 -3 -34 -87 -34 -58 -46 45
-20 55 14 240 16 378 4 107 -9 147 -9 150 -1 2 6 13 11 25 11 12 0 28 9 35 20
10 17 9 23 -10 38 -12 9 -32 27 -44 38 -18 18 -40 23 -121 28 -54 4 -118 8
-143 10 -25 2 -56 2 -70 -1z"/>
<path d="M6008 6383 c7 -3 16 -2 19 1 4 3 -2 6 -13 5 -11 0 -14 -3 -6 -6z"/>
<path d="M5215 6257 c-47 -26 -95 -66 -95 -81 0 -5 10 0 23 12 22 21 47 29 47
16 0 -3 -5 -14 -10 -25 -7 -11 -7 -19 -1 -19 5 0 11 3 13 8 6 14 69 53 88 55
11 1 20 5 20 9 0 4 7 8 15 8 18 0 19 -9 1 -32 -13 -18 -82 -68 -93 -68 -4 0
-73 -71 -73 -75 0 -1 14 0 30 3 17 2 35 12 40 22 11 20 74 60 96 60 9 0 14
-10 14 -28 0 -16 14 -50 32 -76 l31 -48 98 4 c105 4 129 14 129 55 0 36 28 83
50 83 10 0 27 -11 37 -24 16 -20 75 -46 106 -46 19 0 -16 40 -55 63 -85 49
-153 84 -179 90 -14 4 -31 18 -38 33 -11 25 -12 26 -31 9 -11 -10 -26 -15 -34
-12 -9 4 -18 2 -21 -2 -3 -5 -20 -9 -37 -9 -18 1 -39 -1 -47 -3 -8 -2 -16 4
-19 13 -2 12 5 18 25 21 15 2 -6 4 -47 5 -60 1 -83 -3 -115 -21z m271 -107 c8
0 14 -4 14 -9 0 -5 -13 -9 -30 -9 -19 1 -30 6 -30 16 0 9 6 12 16 8 9 -3 22
-6 30 -6z m62 -23 c2 -10 -3 -17 -11 -17 -16 0 -30 24 -19 34 10 10 27 1 30
-17z m-129 4 c8 -5 11 -16 6 -30 -8 -26 -17 -26 -39 -2 -27 30 -2 54 33 32z"/>
<path d="M3278 6239 c-10 -5 -18 -14 -18 -20 0 -13 51 0 70 17 12 12 11 14
-10 14 -14 0 -33 -5 -42 -11z"/>
<path d="M7053 6222 c-9 -5 5 -24 43 -61 38 -37 52 -56 43 -61 -8 -6 -5 -10 9
-14 33 -11 44 -61 46 -224 1 -67 2 -71 13 -45 22 51 12 146 -31 308 -22 83
-77 126 -123 97z"/>
<path d="M3998 6208 c-7 -4 -2 -9 14 -13 15 -4 29 -13 32 -21 7 -19 42 -18 50
2 3 9 4 19 1 24 -7 11 -83 17 -97 8z"/>
<path d="M6613 6176 c1 -20 9 -39 20 -45 20 -13 21 -10 5 40 -14 48 -29 51
-25 5z"/>
<path d="M5810 6196 c0 -2 12 -12 28 -21 l27 -18 -19 21 c-17 20 -36 29 -36
18z"/>
<path d="M4120 6180 c0 -9 41 -30 58 -30 9 1 -41 39 -50 40 -5 0 -8 -5 -8 -10z"/>
<path d="M3820 6135 c-7 -8 -18 -15 -24 -15 -26 1 -160 -78 -213 -126 -47 -43
-56 -55 -45 -65 10 -11 20 -9 57 11 24 13 46 32 48 41 5 20 66 61 82 56 5 -2
13 -19 18 -39 5 -19 21 -51 37 -69 27 -33 30 -34 94 -32 36 1 83 7 105 13 33
9 42 17 60 59 11 28 21 59 21 70 0 12 5 21 10 21 13 0 86 -46 95 -60 3 -5 14
-10 23 -9 13 0 11 4 -8 17 -13 9 -37 29 -53 43 -16 15 -41 33 -55 40 -15 7
-33 18 -40 23 -7 5 -48 11 -89 13 -42 2 -84 8 -94 13 -12 7 -21 5 -29 -5z m78
-81 c32 -9 27 -24 -8 -24 -20 0 -30 5 -30 15 0 17 4 18 38 9z m97 -18 c0 -30
-31 -44 -51 -24 -24 24 -11 50 23 46 20 -2 28 -9 28 -22z m-147 -23 c4 -25
-27 -46 -52 -37 -16 6 -22 45 -9 58 16 15 58 1 61 -21z"/>
<path d="M6610 6091 c16 -31 32 -36 18 -7 -6 14 -15 26 -20 26 -5 0 -4 -9 2
-19z"/>
<path d="M2618 6063 c-10 -2 -20 -14 -23 -26 -10 -46 -23 -142 -19 -148 2 -4
-1 -42 -6 -85 -9 -71 -8 -82 11 -121 24 -49 32 -52 21 -8 -5 15 -4 58 0 94 5
36 10 91 11 122 2 40 12 71 35 111 37 67 32 77 -30 61z"/>
<path d="M5135 6040 c-3 -5 1 -10 10 -10 9 0 13 5 10 10 -3 6 -8 10 -10 10 -2
0 -7 -4 -10 -10z"/>
<path d="M5115 6010 c-13 -22 21 -40 57 -29 38 11 43 15 23 22 -8 4 -15 2 -15
-3 0 -16 -32 -11 -45 7 -9 13 -14 13 -20 3z"/>
<path d="M4198 5973 c-10 -2 -18 -11 -18 -18 0 -7 -3 -21 -6 -30 -6 -14 -1
-16 31 -13 21 2 40 9 43 17 3 9 -2 11 -17 6 -15 -5 -21 -2 -21 9 0 9 5 16 10
16 6 0 10 5 10 10 0 10 -3 11 -32 3z"/>
<path d="M6782 5844 c-5 -11 -12 -33 -15 -51 -5 -26 -2 -36 18 -51 14 -11 25
-27 25 -35 0 -8 7 -20 15 -27 13 -10 15 -9 15 9 0 11 -4 21 -9 21 -4 0 -4 24
0 52 8 48 6 55 -15 77 -23 22 -24 23 -34 5z"/>
<path d="M2910 5671 c0 -5 5 -13 10 -16 6 -3 10 -2 10 4 0 5 -4 13 -10 16 -5
3 -10 2 -10 -4z"/>
<path d="M7111 5576 c-6 -27 -10 -51 -7 -53 7 -7 28 76 23 90 -2 6 -9 -10 -16
-37z"/>
<path d="M6897 5410 c-14 -11 -30 -20 -36 -20 -6 0 -11 -4 -11 -10 0 -13 46
-13 71 0 19 11 27 50 10 50 -4 0 -20 -9 -34 -20z"/>
<path d="M6687 5360 c-9 -11 -19 -31 -23 -45 -5 -20 -2 -25 12 -25 28 0 42 12
63 53 l19 37 -27 0 c-15 0 -34 -9 -44 -20z"/>
<path d="M2827 5283 c-24 -23 15 -49 47 -31 16 9 16 11 -1 24 -20 15 -36 18
-46 7z"/>
<path d="M2943 5263 c-20 -7 -15 -23 7 -23 11 0 20 4 20 9 0 13 -12 19 -27 14z"/>
<path d="M2980 5195 c0 -14 37 -31 47 -22 8 9 -5 24 -27 30 -13 3 -20 0 -20
-8z"/>
<path d="M4885 4990 c-35 -14 -47 -34 -35 -64 15 -40 36 -42 75 -7 20 17 42
31 50 31 25 0 17 30 -11 40 -30 12 -51 12 -79 0z"/>
<path d="M4334 4976 c-30 -23 -7 -51 42 -51 22 0 45 -4 52 -8 23 -16 12 15
-17 44 -33 33 -48 36 -77 15z"/>
<path d="M5366 4239 c-64 -15 -55 -19 44 -19 67 0 91 3 83 11 -15 15 -81 20
-127 8z"/>
<path d="M4610 4200 c0 -8 -15 -10 -51 -5 -63 9 -64 -9 -3 -40 46 -24 110 -29
174 -13 75 19 92 42 38 52 -74 14 -158 17 -158 6z"/>
<path d="M4051 4188 c-52 -9 -61 -14 -61 -39 0 -13 7 -19 23 -19 13 0 27 3 31
8 4 4 24 7 44 8 39 1 142 21 150 29 20 19 -101 28 -187 13z"/>
<path d="M6480 3577 c0 -176 -11 -244 -55 -326 -35 -68 -48 -120 -46 -180 1
-30 -3 -57 -9 -61 -6 -3 -13 -36 -17 -73 -3 -37 -10 -67 -15 -67 -5 0 -7 -8
-4 -18 4 -10 -3 -40 -14 -65 -12 -26 -24 -70 -27 -98 -3 -28 -12 -56 -19 -63
-7 -7 -15 -37 -17 -67 -3 -30 -12 -74 -21 -98 -9 -24 -16 -51 -16 -61 0 -9
-10 -25 -21 -36 -12 -10 -46 -50 -75 -89 -115 -151 -155 -200 -164 -203 -6 -2
-10 -9 -10 -15 0 -12 -44 -60 -147 -162 -40 -39 -73 -74 -73 -78 0 -3 -12 -19
-26 -34 -15 -15 -45 -52 -67 -82 -60 -82 -68 -90 -122 -144 -27 -27 -64 -55
-82 -63 -17 -8 -44 -30 -58 -49 -15 -19 -42 -44 -61 -56 -19 -11 -47 -40 -63
-62 -17 -23 -46 -60 -65 -81 -20 -22 -36 -43 -36 -48 0 -4 -8 -8 -17 -8 -12 0
-14 -3 -6 -8 20 -13 -2 -35 -26 -27 -22 7 -24 32 -2 27 20 -4 12 8 -11 17 -12
4 -38 5 -59 1 -29 -5 -36 -4 -32 7 6 17 -14 17 -20 1 -4 -10 -8 -9 -16 2 -5 8
-13 11 -16 8 -4 -4 -19 -2 -33 3 -29 11 -46 0 -37 -24 5 -10 16 -14 37 -12 24
4 29 1 24 -11 -3 -9 -6 -20 -6 -25 0 -5 -7 -9 -15 -9 -8 0 -15 7 -15 15 0 16
-40 13 -92 -7 -15 -5 -31 -7 -36 -4 -5 3 -9 -1 -9 -9 0 -8 5 -15 11 -16 6 -1
0 -5 -14 -10 -18 -6 -11 -7 24 -3 l48 6 -20 -23 c-14 -14 -28 -20 -41 -16 -27
7 -39 -13 -18 -28 24 -17 21 -25 -8 -25 -14 0 -25 -5 -25 -11 0 -6 -14 -22
-30 -36 -29 -24 -30 -27 -14 -44 9 -10 14 -24 12 -31 -3 -8 -9 -5 -17 10 -12
22 -41 31 -41 12 0 -5 -18 -10 -40 -10 -22 0 -40 -4 -40 -10 0 -5 -4 -10 -10
-10 -17 0 -49 -38 -56 -67 -7 -29 -23 -45 -35 -37 -32 19 -98 163 -106 229 -1
11 -11 54 -23 95 -12 41 -27 102 -35 136 -7 33 -20 77 -29 98 -9 21 -15 47
-14 59 1 20 -71 213 -93 247 -5 8 -12 22 -15 30 -26 61 -68 140 -75 140 -5 0
-9 5 -9 11 0 6 -13 31 -30 56 -16 24 -30 48 -30 52 0 4 -9 16 -20 26 -26 24
-51 75 -43 88 3 6 1 7 -5 3 -16 -10 -45 51 -40 86 4 21 1 27 -9 24 -8 -4 -13
3 -13 18 0 12 -9 31 -20 41 -24 22 -27 47 -4 38 14 -5 14 -3 3 16 -8 11 -19
21 -26 21 -7 0 -13 7 -13 15 0 8 -4 23 -9 33 -13 27 -41 118 -41 134 0 8 -11
36 -25 62 -14 26 -25 56 -25 66 0 10 -5 22 -10 25 -5 3 -10 16 -10 28 0 12
-12 40 -25 62 -14 22 -25 46 -25 53 0 7 -16 47 -35 88 -19 41 -35 77 -35 81 0
4 -12 36 -26 71 -14 36 -36 112 -49 171 -23 101 -56 349 -57 419 0 17 -3 34
-7 37 -10 6 -171 -160 -213 -220 -19 -27 -61 -95 -93 -150 -99 -169 -129 -218
-168 -275 -21 -30 -95 -143 -165 -250 -120 -182 -243 -352 -274 -378 -8 -6
-54 -25 -104 -43 -49 -17 -93 -35 -99 -39 -5 -4 -27 -13 -47 -19 -20 -7 -64
-25 -98 -42 -33 -16 -67 -29 -75 -29 -7 0 -16 -4 -19 -9 -9 -14 -190 -87 -351
-140 -82 -27 -163 -55 -180 -62 -16 -6 -70 -26 -120 -44 -98 -35 -123 -44
-231 -86 -39 -14 -85 -30 -102 -34 -18 -3 -32 -10 -32 -14 0 -17 175 -216 320
-365 1085 -1109 2610 -1620 4150 -1391 783 116 1556 444 2190 928 218 167 469
398 652 600 l79 88 -148 76 c-81 41 -209 108 -283 148 -74 40 -196 104 -270
143 -191 99 -303 161 -316 175 -21 23 -200 389 -229 468 -7 20 -47 106 -88
190 -41 85 -105 217 -142 293 -96 199 -166 305 -270 412 -73 74 -188 164 -210
164 -3 0 -5 -73 -5 -163z m-2690 -1607 c0 -5 -2 -10 -4 -10 -3 0 -8 5 -11 10
-3 6 -1 10 4 10 6 0 11 -4 11 -10z m5 -53 c25 -41 27 -57 7 -57 -18 0 -11 -10
10 -14 24 -3 38 -17 38 -37 0 -10 -4 -19 -10 -19 -5 0 -10 -5 -10 -11 0 -5 3
-8 8 -5 10 6 36 -15 50 -41 15 -28 15 -36 0 -27 -8 5 -9 2 -5 -10 13 -34 -5
-36 -39 -4 -43 40 -72 90 -55 96 8 3 7 10 -3 24 -8 11 -12 27 -9 36 4 10 2 13
-5 8 -7 -4 -12 -1 -12 8 0 8 5 18 10 21 6 4 4 12 -5 21 -19 19 -20 55 -2 48 7
-2 22 -19 32 -37z m985 -920 c0 -8 -16 -18 -35 -24 -44 -14 -45 -3 -2 18 17 9
33 17 35 18 1 0 2 -5 2 -12z m-557 -164 c73 -70 82 -144 26 -205 -28 -29 -32
-30 -93 -26 -51 3 -71 10 -101 32 -68 52 -85 140 -38 196 35 42 58 51 117 45
40 -4 57 -12 89 -42z m1498 -518 c0 -19 1 -18 11 3 11 22 28 30 28 13 0 -5 -3
-23 -6 -40 -7 -34 -20 -41 -27 -13 -3 9 -5 0 -6 -21 -1 -31 -4 -38 -18 -35
-14 2 -19 15 -21 50 -3 53 14 100 29 77 5 -8 9 -23 10 -34z"/>
<path d="M3835 1710 c3 -5 11 -10 16 -10 6 0 7 5 4 10 -3 6 -11 10 -16 10 -6
0 -7 -4 -4 -10z"/>
<path d="M4100 3066 c0 -2 7 -9 15 -16 9 -7 15 -8 15 -2 0 5 -7 12 -15 16 -8
3 -15 4 -15 2z"/>
<path d="M4150 3020 c0 -6 4 -9 9 -5 6 3 14 -2 19 -11 5 -8 18 -21 29 -27 12
-7 54 -31 95 -54 40 -23 118 -56 173 -73 55 -18 109 -36 120 -41 29 -13 150
-29 222 -29 91 0 288 44 277 61 -3 5 -18 2 -34 -6 -20 -10 -41 -13 -67 -8 -21
3 -47 6 -58 5 -124 -12 -236 -8 -295 9 -36 10 -81 21 -102 24 -20 3 -74 25
-120 48 -45 24 -102 49 -125 56 -24 8 -43 20 -43 27 0 6 -15 14 -32 16 -18 3
-41 8 -50 13 -12 4 -18 3 -18 -5z"/>
<path d="M5231 2897 c-6 -8 -29 -19 -51 -26 -22 -6 -40 -16 -40 -21 0 -13 -2
-13 56 6 56 19 76 32 68 45 -8 13 -20 11 -33 -4z"/>
<path d="M4846 1215 c4 -8 8 -15 10 -15 2 0 4 7 4 15 0 8 -4 15 -10 15 -5 0
-7 -7 -4 -15z"/>
<path d="M4710 1091 c0 -25 6 -27 13 -6 4 8 2 17 -3 20 -6 4 -10 -3 -10 -14z"/>
</g>
</svg>
