<?xml version="1.0" standalone="no"?>
<!DOCTYPE svg PUBLIC "-//W3C//DTD SVG 20010904//EN"
 "http://www.w3.org/TR/2001/REC-SVG-20010904/DTD/svg10.dtd">
<svg version="1.0" xmlns="http://www.w3.org/2000/svg"
 width="960.000000pt" height="960.000000pt" viewBox="0 0 960.000000 960.000000"
 preserveAspectRatio="xMidYMid meet">
<g transform="translate(0.000000,960.000000) scale(0.100000,-0.100000)"
fill="#000000" stroke="none">
<path d="M4470 9589 c-834 -56 -1650 -338 -2360 -814 -590 -396 -1121 -970
-1482 -1600 -560 -978 -757 -2167 -543 -3277 117 -604 339 -1160 675 -1689
119 -187 278 -399 299 -399 17 0 65 37 199 155 37 33 104 89 147 125 43 36
117 99 165 140 48 41 96 82 106 90 114 90 158 129 197 175 34 39 66 63 120 88
40 19 102 59 138 89 113 95 213 148 498 265 91 37 102 47 125 108 79 216 153
367 286 590 27 44 59 109 73 145 14 36 28 74 33 85 8 22 19 -29 28 -145 8 -96
36 -291 51 -357 3 -13 11 -20 19 -17 9 3 20 -17 35 -68 36 -116 96 -270 122
-310 13 -19 32 -49 41 -64 32 -52 93 -133 165 -217 68 -78 304 -313 368 -367
17 -14 43 -36 60 -50 16 -14 26 -19 21 -12 -4 7 -1 12 9 12 9 0 14 -4 10 -9
-3 -5 -1 -12 5 -16 5 -3 10 -1 10 4 0 6 11 11 25 11 16 0 23 -4 19 -13 -3 -9
4 -13 26 -11 16 1 30 -2 30 -7 0 -5 7 -9 16 -9 8 0 13 -4 10 -8 -2 -4 4 -13
15 -20 12 -8 19 -8 19 -2 0 6 10 2 22 -10 21 -19 33 -24 51 -21 5 1 11 -8 14
-19 3 -11 8 -20 12 -20 4 0 23 -13 42 -30 19 -16 40 -34 47 -40 7 -6 10 -15 7
-21 -4 -5 -1 -9 4 -9 6 0 11 -8 11 -19 0 -25 22 -41 49 -36 19 3 21 2 11 -10
-14 -17 -3 -38 16 -31 8 3 11 0 7 -10 -3 -9 1 -14 12 -14 9 0 14 4 11 8 -2 4
6 9 19 10 13 1 27 -4 31 -10 5 -8 2 -9 -9 -5 -23 9 -21 -6 2 -27 18 -17 20
-17 30 1 10 17 10 17 11 0 0 -16 2 -17 15 -3 8 8 15 21 15 30 0 8 9 18 21 21
17 6 18 9 7 23 -9 11 -9 14 -1 9 7 -5 26 -1 43 8 27 14 30 14 30 0 0 -8 5 -15
10 -15 6 0 10 7 10 15 0 8 9 15 21 15 18 0 18 -2 -8 -26 -15 -14 -23 -23 -18
-20 6 2 17 1 25 -4 10 -6 26 -2 48 12 25 15 36 18 41 9 12 -19 61 4 61 29 0
25 25 37 44 21 16 -13 26 -5 27 23 0 12 3 15 6 9 2 -7 10 -13 15 -13 6 0 8 3
5 7 -11 10 13 32 29 26 8 -3 15 1 15 8 1 8 3 24 4 37 1 12 -3 22 -9 22 -6 0
-2 7 8 15 10 8 23 12 29 8 6 -4 7 4 3 21 -4 15 -7 57 -7 92 -1 52 -3 63 -14
54 -9 -8 -11 -4 -7 15 2 15 -3 43 -13 64 -9 22 -15 51 -12 69 3 17 2 33 -1 37
-17 17 -9 111 8 100 5 -3 11 -1 14 4 5 8 49 17 122 26 35 5 185 73 242 110 47
32 69 65 42 65 -5 0 -10 -3 -10 -7 0 -5 -14 -16 -30 -25 -17 -9 -30 -13 -30
-8 0 6 -5 10 -11 10 -5 0 -7 -6 -4 -13 4 -6 0 -4 -9 7 -8 10 -19 15 -25 11 -7
-4 -11 4 -11 20 0 18 4 24 13 20 6 -4 3 1 -7 9 -26 21 -37 20 -30 -1 5 -16 4
-16 -10 1 -11 13 -24 17 -47 14 -30 -5 -31 -4 -13 10 18 13 17 14 -11 7 -31
-7 -45 -20 -45 -44 0 -7 -6 -11 -15 -7 -8 3 -15 1 -15 -5 0 -6 -9 -8 -20 -4
-11 3 -25 3 -31 -1 -17 -10 -90 -13 -83 -3 3 5 -3 10 -13 10 -10 1 -4 4 12 8
19 5 38 2 53 -7 14 -9 22 -10 22 -3 0 6 -7 11 -15 11 -8 0 -12 6 -9 13 3 8 -2
20 -10 27 -13 10 -17 9 -25 -11 -8 -20 -10 -21 -10 -5 -1 11 -4 16 -8 13 -3
-4 -12 -2 -20 4 -10 9 -13 8 -13 -1 0 -7 -8 -10 -20 -7 -12 3 -23 -1 -29 -10
-7 -13 -9 -13 -14 1 -4 9 -13 13 -22 10 -14 -6 -13 -8 2 -20 15 -11 15 -13 3
-14 -12 0 -13 -2 -1 -9 9 -6 10 -11 2 -15 -10 -6 -15 6 -12 27 0 4 -5 7 -13 7
-9 0 -12 7 -9 20 6 22 -12 28 -20 8 -3 -8 -6 -7 -6 4 -1 10 8 18 22 20 24 3
22 21 -3 25 -8 1 -16 7 -18 12 -2 6 -10 11 -19 11 -10 0 -14 9 -11 29 2 19 -6
41 -20 60 -12 17 -22 42 -22 56 0 14 -4 25 -10 25 -5 0 -7 -8 -3 -17 3 -10 3
-15 -1 -12 -4 4 -8 16 -11 28 -2 11 -7 26 -11 33 -4 7 -3 8 4 4 7 -4 12 -1 12
8 0 8 3 22 7 32 4 12 3 15 -5 10 -7 -4 -12 -1 -12 8 0 8 -16 22 -35 31 -19 10
-37 25 -40 35 -4 12 -13 16 -28 13 -18 -4 -19 -3 -7 6 13 9 13 11 -2 11 -16 0
-23 -11 -19 -32 0 -5 -4 -8 -9 -8 -6 0 -10 4 -10 10 0 5 -7 6 -17 3 -10 -4
-14 -2 -10 4 8 13 -37 38 -52 28 -6 -3 -9 -9 -7 -13 3 -6 -24 -7 -67 -3 -5 1
-5 6 -1 13 5 8 2 9 -9 5 -9 -3 -19 -2 -22 2 -2 5 5 12 18 15 21 6 21 7 4 20
-16 13 -16 15 -2 30 9 9 12 16 5 16 -6 0 -8 5 -5 10 4 6 10 8 15 5 4 -3 10 2
14 10 3 8 12 15 21 15 8 0 15 5 15 11 0 7 10 9 25 7 17 -4 29 0 35 11 7 13 9
12 7 -7 -1 -16 -6 -22 -18 -19 -15 4 -16 1 -7 -24 5 -16 12 -29 15 -29 3 0 3
7 0 15 -4 8 -2 17 3 20 6 4 10 2 10 -4 0 -5 7 -17 16 -25 12 -13 18 -13 29 -3
7 6 11 15 8 19 -2 4 3 5 12 2 12 -5 14 -2 8 12 -6 17 -5 17 10 5 15 -12 17
-11 17 3 0 9 -4 16 -9 16 -5 0 -3 14 6 30 8 17 19 28 24 25 5 -4 6 1 3 9 -3 9
-1 16 5 16 6 0 11 -4 11 -10 0 -5 5 -10 11 -10 5 0 7 5 4 11 -5 7 5 9 30 5 32
-5 36 -4 31 11 -4 10 -4 14 0 10 4 -4 13 -2 21 4 7 6 22 9 34 6 14 -4 19 -2
16 7 -4 9 2 11 19 8 13 -2 22 -9 21 -14 -1 -6 4 -13 12 -16 9 -3 11 0 6 8 -6
9 -4 12 6 8 19 -7 62 9 54 21 -3 5 0 13 6 16 5 4 8 13 5 21 -4 9 2 14 15 14
14 0 19 -5 16 -14 -4 -10 -1 -13 8 -9 8 3 18 -2 21 -11 3 -9 11 -13 16 -10 6
4 1 14 -13 25 -13 10 -18 19 -11 19 6 0 12 9 12 21 0 11 -4 18 -9 15 -5 -3
-11 4 -14 15 -3 12 -10 18 -16 15 -6 -4 -7 -14 -4 -23 4 -11 3 -14 -5 -9 -7 4
-12 13 -12 19 0 12 -43 55 -47 47 -1 -3 -5 -2 -9 3 -4 4 -2 7 5 7 9 0 9 4 -1
14 -10 11 -16 11 -27 2 -12 -9 -13 -8 -6 3 6 11 2 13 -19 9 -14 -3 -26 -1 -26
4 0 5 -5 6 -10 3 -6 -4 -10 -3 -9 2 1 4 1 23 0 42 -1 35 -16 35 -16 0 0 -10
-4 -19 -10 -18 -5 1 -9 4 -8 8 13 53 14 61 4 61 -6 0 -10 3 -10 8 4 25 -2 34
-15 23 -11 -9 -17 -4 -29 21 -9 18 -17 28 -17 22 0 -14 -60 -16 -60 -2 0 5 -6
8 -14 5 -8 -3 -17 1 -20 9 -3 8 -12 14 -20 14 -7 0 -16 9 -19 20 -5 18 -1 19
42 17 25 -2 53 -7 61 -12 8 -5 17 -10 20 -11 3 0 13 -4 23 -9 11 -4 28 -3 40
4 27 14 165 19 190 7 12 -6 17 -4 17 8 0 9 -7 16 -15 16 -14 0 -61 39 -50 41
3 1 10 3 15 4 6 1 16 3 23 4 7 1 3 7 -7 13 -15 8 -21 8 -24 0 -2 -7 -12 -12
-23 -12 -21 0 -27 -20 -6 -21 17 -1 -24 -17 -47 -18 -11 -1 -16 4 -13 13 4 10
-7 15 -43 20 -26 4 -59 15 -73 26 -20 16 -30 18 -52 10 -14 -5 -44 -10 -65
-10 -31 0 -44 6 -65 33 -15 17 -24 27 -21 20 4 -6 1 -15 -4 -18 -17 -11 -60
-13 -60 -4 0 5 -6 9 -13 9 -22 0 -57 36 -57 58 0 11 -4 24 -10 27 -17 11 -11
50 11 63 26 17 57 7 90 -29 32 -36 40 -36 62 1 11 17 27 30 38 30 29 0 77 -27
89 -51 9 -16 14 -18 26 -8 8 6 14 21 14 34 0 12 8 30 19 39 27 25 129 15 178
-18 l36 -25 28 28 c39 39 139 60 175 36 24 -15 28 -15 70 5 39 19 49 20 74 10
17 -7 30 -16 30 -21 0 -14 26 -11 39 5 27 32 90 23 104 -16 3 -10 10 -8 26 6
22 20 22 20 48 -7 25 -24 26 -28 13 -53 -8 -14 -36 -37 -63 -50 -52 -27 -58
-48 -13 -50 29 -1 60 31 49 50 -3 6 0 6 7 -1 9 -9 19 -9 33 -2 10 6 30 9 43 6
18 -3 32 4 52 27 15 17 36 33 47 34 10 2 37 16 60 31 38 27 104 52 173 66 23
5 32 3 33 -7 0 -7 5 0 11 15 5 16 7 31 4 34 -10 10 -224 9 -286 -1 -30 -4 -66
-8 -80 -7 -222 17 -361 15 -520 -5 -69 -9 -227 -6 -247 4 -11 6 -40 13 -65 15
-24 2 -65 13 -90 25 -37 16 -46 25 -50 50 -3 23 -1 29 11 24 10 -4 13 -1 8 11
-4 11 -1 17 7 17 7 0 19 6 25 14 12 14 53 26 104 29 15 1 32 9 37 17 8 12 11
13 19 1 6 -9 11 -10 15 -2 4 6 12 9 17 5 5 -3 17 0 26 7 12 11 17 11 27 -1 7
-9 28 -15 56 -15 43 0 45 1 42 28 -2 15 1 27 7 27 6 0 12 -12 12 -27 1 -16 3
-21 6 -11 2 9 0 34 -6 54 -8 29 -7 40 2 47 8 6 8 10 1 13 -6 3 -9 25 -7 54 1
29 -3 60 -12 77 -8 15 -15 34 -15 40 0 7 -3 12 -7 11 -5 -1 -18 4 -30 12 -18
11 -20 17 -10 29 9 12 9 13 0 7 -8 -4 -17 2 -24 18 -6 13 -21 27 -33 30 -16 5
-18 8 -8 14 10 7 6 14 -15 28 -15 10 -31 19 -35 19 -3 0 -9 3 -13 7 -4 4 -13
4 -21 1 -9 -3 -14 0 -12 8 2 8 -3 13 -9 12 -16 -4 -17 9 -1 25 9 9 9 12 0 12
-7 0 -12 -5 -12 -11 0 -5 -4 -8 -9 -5 -5 3 -8 -2 -7 -11 1 -14 -7 -17 -36 -17
-62 2 -68 3 -68 15 0 5 4 8 9 5 4 -3 19 3 31 14 13 11 29 21 37 21 27 3 32 4
40 13 4 5 3 6 -4 2 -6 -3 -15 -1 -18 5 -14 21 4 20 26 -2 14 -14 20 -17 16 -7
-4 11 3 20 24 29 20 8 26 15 18 19 -7 5 -12 41 -12 104 0 78 -3 99 -16 106
-10 6 -12 12 -6 17 14 11 13 73 -1 73 -6 0 -10 14 -9 30 1 22 -4 34 -17 41
-15 8 -17 14 -8 24 8 10 8 15 0 20 -7 4 -10 16 -7 26 3 11 2 17 -2 14 -4 -2
-7 24 -6 58 1 34 -2 70 -8 81 -7 14 -6 17 5 11 10 -6 11 -5 1 5 -10 11 -10 17
1 29 10 12 12 30 7 68 -4 29 -4 50 1 47 4 -3 8 -1 8 5 0 5 -5 13 -11 16 -6 4
-8 13 -5 21 5 13 -6 19 -27 15 -5 -1 -6 3 -3 8 4 5 2 13 -4 16 -6 4 -10 19 -9
33 5 61 -1 103 -13 96 -7 -4 -8 -3 -4 5 4 6 0 14 -8 17 -9 3 -13 10 -10 15 6
11 24 12 23 2 -3 -19 2 -27 10 -14 5 8 3 24 -5 40 -12 23 -12 28 3 38 15 12
15 13 0 18 -10 3 -25 7 -34 10 -12 4 -14 8 -5 17 7 7 12 17 12 23 0 5 -4 4 -8
-3 -10 -16 -45 -4 -35 12 4 6 -1 5 -10 -3 -16 -12 -20 -11 -38 8 -12 12 -28
20 -36 17 -8 -3 -24 1 -36 9 -11 8 -31 12 -43 9 -16 -4 -26 0 -34 16 -8 15 -8
20 -1 16 6 -4 11 -3 11 3 0 5 -10 11 -22 13 -13 2 -22 9 -20 16 1 6 -2 12 -8
12 -5 0 -10 -7 -10 -15 0 -18 -26 -20 -33 -2 -4 9 -6 9 -6 -1 -1 -10 -6 -10
-22 -2 -11 6 -33 8 -50 5 -18 -4 -29 -3 -29 5 0 7 -6 8 -19 0 -30 -15 -44 -12
-38 9 3 14 -1 18 -17 17 -11 -1 -26 5 -32 13 -8 10 -13 11 -18 3 -4 -7 -2 -12
4 -12 6 0 8 -5 5 -10 -4 -6 -12 -4 -21 5 -9 8 -20 13 -25 10 -5 -4 -9 -1 -9 5
0 6 -5 8 -12 3 -7 -4 -41 -6 -74 -4 -35 1 -65 -2 -68 -8 -4 -5 -14 -7 -22 -4
-14 5 -12 8 7 19 22 12 22 13 4 14 -11 0 -31 -6 -45 -13 -14 -8 -34 -11 -45
-7 -22 8 -63 1 -71 -11 -9 -15 -54 -10 -60 6 -10 25 -25 17 -18 -10 5 -20 1
-26 -28 -38 -18 -8 -36 -10 -39 -5 -3 5 -11 -3 -19 -17 -7 -14 -20 -25 -28
-25 -12 0 -12 2 -1 17 12 15 12 16 -4 10 -10 -4 -23 -7 -28 -7 -5 0 -9 -7 -9
-15 0 -19 -9 -19 -31 1 -16 14 -18 14 -29 -6 -9 -16 -15 -19 -23 -11 -17 17
-31 13 -17 -4 8 -10 9 -15 2 -15 -7 0 -15 15 -20 33 -4 17 -13 32 -19 32 -6 0
-14 3 -17 8 -3 4 -3 5 1 2 8 -6 33 14 33 27 0 6 -6 6 -14 -1 -17 -14 -32 2
-20 21 5 8 0 9 -14 6 -15 -4 -22 -2 -22 8 0 17 5 17 33 2 33 -18 51 -19 37 -3
-8 10 -8 15 1 20 8 6 7 10 -2 16 -21 13 -29 11 -29 -8 0 -15 -2 -14 -16 3 -8
10 -12 13 -8 5 5 -9 3 -12 -4 -7 -7 4 -12 12 -12 17 0 6 -7 17 -15 26 -14 14
-18 13 -38 -3 -12 -10 -24 -20 -26 -21 -2 -1 2 -11 10 -20 13 -16 12 -17 -3
-4 -10 7 -18 9 -18 3 0 -5 -20 -9 -45 -8 -26 0 -40 5 -35 10 10 10 2 66 -11
80 -5 6 -9 15 -9 20 0 6 4 5 9 -3 10 -15 41 -8 41 9 0 6 -4 8 -10 5 -18 -11
-49 14 -45 36 3 14 -6 30 -28 50 -17 16 -28 29 -24 29 3 0 2 12 -4 27 -8 21
-6 30 12 49 12 13 27 34 34 46 6 13 16 22 21 21 5 -1 10 7 10 17 0 18 -19 21
-33 5 -4 -4 -2 -5 5 -1 6 4 12 3 12 -3 0 -15 -18 -23 -25 -11 -4 6 -10 8 -14
6 -11 -7 -5 74 8 107 6 16 8 34 4 40 -4 6 0 8 10 4 17 -6 27 11 27 49 0 16 -6
24 -17 25 -16 0 -16 1 1 8 11 4 20 17 21 29 1 12 -3 18 -8 15 -6 -4 -8 0 -5 8
6 15 -16 41 -29 37 -5 -2 -9 7 -11 19 -3 18 0 22 14 16 12 -4 15 -3 10 6 -5 7
0 21 10 32 17 19 17 20 -4 26 -25 6 -31 47 -9 56 20 8 14 44 -12 68 -17 16
-20 24 -11 29 7 5 10 15 7 23 -8 21 13 98 29 104 10 4 11 10 4 24 -8 15 -4 25
24 52 18 19 37 45 41 58 9 27 23 42 48 52 9 3 22 18 29 32 6 14 15 25 20 25 4
0 8 11 8 25 0 14 4 25 9 25 4 0 21 12 36 26 22 20 35 25 57 20 22 -4 33 0 50
19 22 25 48 33 48 15 0 -16 32 -11 45 7 12 16 14 16 30 0 13 -13 20 -15 30 -7
10 8 16 7 24 -7 6 -10 11 -14 11 -9 0 5 6 4 13 -2 13 -11 97 -4 97 8 0 10 49
0 56 -11 3 -5 10 -9 15 -9 6 0 7 5 4 10 -3 6 3 10 14 10 12 0 21 4 21 8 0 5
26 9 58 10 31 1 69 3 85 5 15 3 30 0 33 -4 3 -5 13 -9 22 -8 11 0 12 3 5 6
-21 8 -15 21 16 36 25 12 33 12 62 0 19 -8 35 -14 37 -13 10 3 52 -14 52 -22
0 -12 62 1 71 14 9 14 69 20 69 8 0 -6 7 -10 15 -10 8 0 15 4 15 10 0 5 15 1
33 -9 34 -19 79 -21 112 -5 24 13 34 12 63 -4 18 -11 22 -10 22 2 0 7 6 16 14
19 10 4 13 -1 11 -18 -1 -14 1 -22 6 -20 4 3 11 0 14 -6 4 -6 18 -8 30 -5 13
3 27 2 30 -4 3 -6 17 -8 31 -6 13 3 24 0 24 -5 0 -5 -5 -9 -12 -9 -6 0 -8 -3
-5 -7 4 -3 16 2 26 11 11 10 24 16 28 13 16 -10 93 15 93 29 0 8 4 14 10 14 6
0 5 -10 -2 -25 -13 -29 -2 -47 15 -24 7 8 20 18 30 22 9 4 27 23 39 43 15 26
23 33 27 22 4 -9 19 -14 40 -13 36 1 53 18 77 72 21 50 36 52 33 5 -4 -50 5
-61 30 -38 11 10 25 15 30 11 21 -13 50 6 69 46 13 25 23 36 27 29 5 -8 15 -3
30 16 27 34 41 28 24 -10 -9 -19 -19 -26 -33 -24 -12 1 -21 -2 -21 -7 0 -6 3
-9 6 -8 4 1 5 -7 2 -17 -3 -11 -10 -20 -16 -20 -7 0 -6 -5 2 -12 11 -10 14
-10 18 0 3 6 11 12 19 12 8 0 13 3 13 8 -5 29 3 32 32 11 31 -22 32 -22 45 -3
7 10 18 24 23 31 6 6 13 23 16 36 4 14 14 28 22 31 8 4 13 13 9 21 -3 8 -1 17
4 20 6 4 15 -6 20 -22 17 -45 40 -89 40 -76 0 6 14 16 30 22 19 6 30 17 30 29
0 10 3 22 8 26 4 4 18 53 32 109 20 81 29 103 44 105 14 3 18 0 14 -14 -31
-107 -33 -117 -20 -121 15 -6 16 -57 1 -84 -16 -31 14 -59 62 -59 21 0 39 -5
42 -12 3 -10 7 -10 20 1 9 7 14 17 11 22 -3 5 0 9 7 9 14 0 38 30 39 47 0 6 5
24 10 39 8 19 14 24 21 17 7 -7 7 -17 -2 -31 -10 -16 -10 -23 0 -36 11 -13 8
-24 -14 -65 -44 -80 -26 -91 100 -65 69 14 73 44 5 44 -27 0 -50 4 -50 9 0 20
43 40 72 34 24 -5 30 -2 35 15 2 11 13 22 24 25 22 6 25 -3 7 -21 -9 -9 -6
-12 13 -12 24 0 49 -16 49 -32 0 -4 -16 -15 -35 -24 -39 -18 -43 -29 -20 -54
14 -15 12 -18 -22 -28 -21 -6 -51 -14 -67 -17 -22 -5 -26 -9 -17 -18 8 -8 57
-12 149 -13 160 -1 162 -1 162 -14 0 -5 -17 -12 -37 -15 -81 -14 -80 -26 3
-54 45 -15 75 -43 62 -56 -3 -4 -21 -7 -40 -8 -46 -3 -41 -19 8 -32 66 -16
101 -59 39 -47 -18 3 -25 0 -25 -12 0 -9 -8 -16 -17 -16 -14 -1 -11 -6 12 -25
17 -14 35 -25 40 -25 11 0 25 -19 57 -81 11 -21 24 -36 29 -33 5 3 9 0 9 -5 0
-6 -4 -11 -10 -11 -15 0 -12 -27 5 -54 14 -21 14 -24 1 -29 -13 -5 -14 -11 -2
-39 17 -41 11 -58 -20 -58 -29 0 -42 -25 -26 -51 7 -10 12 -32 12 -48 0 -19 6
-30 18 -33 10 -3 19 -13 19 -22 0 -10 -6 -15 -14 -12 -7 3 -13 -1 -13 -9 0 -9
-9 -15 -21 -15 -16 0 -19 -4 -14 -17 17 -42 32 -102 28 -107 -3 -3 0 -19 6
-36 10 -30 9 -32 -20 -42 -22 -7 -27 -13 -18 -19 7 -4 16 -6 20 -3 4 2 9 -5
12 -16 3 -13 0 -20 -9 -20 -8 0 -13 5 -12 11 2 6 -4 13 -14 14 -15 3 -15 -1
-2 -49 8 -28 19 -58 24 -67 5 -9 6 -20 2 -23 -13 -14 -11 -47 3 -52 11 -5 12
-10 6 -18 -7 -8 -5 -21 5 -41 8 -15 12 -30 9 -33 -3 -3 0 -11 6 -18 6 -8 9
-21 5 -29 -3 -10 -2 -13 5 -10 6 4 7 -3 3 -19 -4 -16 -2 -26 5 -26 6 0 11 -5
11 -11 0 -6 18 -28 40 -49 45 -44 48 -50 20 -50 -25 0 -25 -8 -3 -40 23 -32
28 -71 11 -83 -9 -6 -8 -7 5 -3 12 4 17 0 17 -14 0 -13 -5 -17 -15 -14 -11 5
-10 -3 5 -34 25 -51 33 -56 49 -30 10 16 10 19 -1 12 -7 -4 -5 2 5 13 9 11 17
25 17 31 0 7 7 12 15 12 30 0 57 35 49 64 -4 16 -2 26 5 26 6 0 11 7 11 15 0
8 5 15 11 15 7 0 9 10 7 25 -9 43 41 33 100 -20 54 -49 77 -94 117 -230 45
-158 34 -280 -50 -537 -24 -74 -55 -179 -69 -234 -27 -107 -84 -280 -111 -338
-24 -51 -83 -100 -173 -145 -95 -48 -92 -40 -92 -250 0 -177 -21 -363 -55
-491 -29 -107 -111 -281 -211 -445 -112 -184 -194 -326 -194 -335 0 -6 30 -76
66 -157 36 -82 79 -182 95 -225 16 -42 37 -79 45 -82 40 -15 150 -36 191 -36
54 0 153 -24 208 -52 22 -10 72 -32 110 -48 143 -57 497 -231 568 -279 81 -55
126 -77 237 -117 92 -33 217 -95 288 -142 29 -19 99 -49 155 -67 201 -63 274
-111 420 -277 38 -43 72 -78 76 -78 10 0 151 188 240 321 112 167 195 311 300
519 615 1218 677 2645 171 3925 -73 183 -239 520 -335 680 -221 366 -463 672
-767 971 -981 963 -2314 1455 -3688 1363z m234 -1124 c3 -8 1 -15 -4 -15 -6 0
-10 7 -10 15 0 8 2 15 4 15 2 0 6 -7 10 -15z m583 -162 c-3 -10 -5 -4 -5 12 0
17 2 24 5 18 2 -7 2 -21 0 -30z m933 -20 c0 -5 -7 -17 -15 -27 -21 -28 -8 -38
37 -31 54 10 42 -8 -17 -25 -62 -17 -73 -5 -45 49 20 36 41 54 40 34z m-613
-35 c-3 -8 -6 -5 -6 6 -1 11 2 17 5 13 3 -3 4 -12 1 -19z m-690 -54 c3 -9 2
-19 -4 -23 -5 -3 -13 -15 -18 -26 -8 -18 -9 -17 -13 8 -6 49 20 80 35 41z
m464 -27 c-8 -8 -11 -5 -11 9 0 27 14 41 18 19 2 -9 -1 -22 -7 -28z m481 1
c-7 -7 -12 -8 -12 -2 0 14 12 26 19 19 2 -3 -1 -11 -7 -17z m-757 -90 c-16
-23 -17 -22 -9 12 4 19 8 44 10 55 4 34 7 32 11 -7 3 -25 -2 -46 -12 -60z
m461 26 c-12 -32 -23 -12 -13 24 10 31 13 33 15 14 2 -13 1 -30 -2 -38z m524
52 c0 -11 -19 -15 -25 -6 -3 5 1 10 9 10 9 0 16 -2 16 -4z m65 -16 c-3 -5 -11
-10 -16 -10 -6 0 -7 5 -4 10 3 6 11 10 16 10 6 0 7 -4 4 -10z m225 -35 c-7 -8
-18 -15 -24 -15 -6 0 -2 7 8 15 25 19 32 19 16 0z m-1040 -35 c0 -5 7 -7 15
-4 8 4 15 1 15 -5 0 -6 -11 -11 -25 -11 -16 0 -25 6 -25 15 0 8 5 15 10 15 6
0 10 -4 10 -10z m1244 -1032 c-9 -14 -24 2 -24 25 1 21 1 21 15 3 8 -10 12
-23 9 -28z m-3364 22 c0 -5 -8 -10 -17 -10 -15 0 -16 2 -3 10 19 12 20 12 20
0z m3390 -101 c0 -6 -4 -7 -10 -4 -5 3 -10 11 -10 16 0 6 5 7 10 4 6 -3 10
-11 10 -16z m-65 -109 c3 -5 1 -10 -4 -10 -6 0 -11 5 -11 10 0 6 2 10 4 10 3
0 8 -4 11 -10z m45 -291 c0 -6 -4 -7 -10 -4 -5 3 -10 11 -10 16 0 6 5 7 10 4
6 -3 10 -11 10 -16z m-3470 -65 c0 -10 -5 -12 -12 -8 -9 5 -8 2 1 -10 12 -14
12 -19 1 -29 -10 -9 -11 -9 -6 1 10 17 -9 15 -24 -3 -10 -12 -8 -16 11 -24 14
-6 18 -10 8 -10 -8 -1 -25 -10 -37 -21 -12 -12 -22 -16 -22 -11 0 5 5 13 10
16 6 3 10 14 10 23 0 9 6 29 14 44 11 20 11 28 3 32 -7 2 -4 5 6 5 9 1 17 6
17 12 0 5 5 7 10 4 6 -3 10 -13 10 -21z m255 -14 c3 -5 1 -10 -4 -10 -6 0 -11
5 -11 10 0 6 2 10 4 10 3 0 8 -4 11 -10z m-115 -39 c0 -5 -11 -11 -25 -13 -14
-3 -25 -3 -25 -1 0 3 34 19 48 22 1 1 2 -3 2 -8z m-120 -22 c0 -5 -4 -9 -8 -9
-5 0 -9 7 -9 15 0 8 4 12 9 9 4 -3 8 -9 8 -15z m100 -9 c0 -5 -8 -10 -17 -10
-15 0 -16 2 -3 10 19 12 20 12 20 0z m80 -50 c0 -5 -7 -7 -15 -4 -8 4 -15 8
-15 10 0 2 7 4 15 4 8 0 15 -4 15 -10z m410 -4 c0 -2 -8 -10 -17 -17 -16 -13
-17 -12 -4 4 13 16 21 21 21 13z m-665 -26 c-3 -5 -12 -10 -18 -10 -7 0 -6 4
3 10 19 12 23 12 15 0z m-44 -53 c-10 -9 -11 -8 -5 6 3 10 9 15 12 12 3 -3 0
-11 -7 -18z m-571 -17 c0 -5 0 -12 0 -15 -1 -11 27 -33 45 -36 19 -4 91 -98
78 -101 -27 -5 -40 -1 -58 15 -25 24 -77 47 -105 47 -11 0 -23 7 -26 15 -4 8
-10 13 -15 10 -16 -10 19 46 37 60 22 17 44 19 44 5z m638 -35 c-3 -3 -9 2
-12 12 -6 14 -5 15 5 6 7 -7 10 -15 7 -18z m-66 -27 c0 -7 2 -17 3 -23 2 -5 3
-18 4 -27 0 -10 6 -18 11 -18 7 0 7 6 1 18 -7 14 -6 19 4 19 8 0 14 -3 13 -6
-3 -27 3 -33 17 -21 19 16 29 7 31 -25 0 -15 -5 -25 -13 -25 -7 0 -13 7 -13
15 0 8 -7 15 -15 15 -9 0 -14 -9 -13 -22 0 -13 -1 -30 -3 -38 -3 -10 4 -15 21
-15 24 0 40 -11 40 -29 0 -4 -7 -5 -16 -2 -15 6 -15 4 -3 -10 11 -14 11 -18
-4 -29 -9 -6 -16 -14 -14 -16 1 -2 -2 1 -8 7 -5 6 -16 9 -24 6 -10 -3 -11 2
-6 19 7 21 6 22 -8 11 -8 -7 -13 -21 -10 -31 3 -11 -1 -18 -10 -18 -18 0 -11
30 13 52 16 14 19 14 33 0 19 -18 34 -20 18 -2 -6 8 -8 17 -4 20 3 4 -6 7 -20
7 -19 0 -25 4 -21 14 6 16 -29 31 -46 21 -14 -9 -13 38 2 53 15 15 32 16 23 2
-3 -5 -1 -10 4 -10 16 0 13 30 -2 36 -8 3 -12 15 -11 27 1 12 3 25 3 30 2 12
21 8 23 -5z m-672 -14 c0 -8 -5 -12 -10 -9 -6 4 -8 11 -5 16 9 14 15 11 15 -7z
m823 -31 c-7 -2 -13 -11 -13 -18 0 -17 -32 -13 -38 5 -3 7 0 10 5 7 5 -3 15
-2 23 4 8 5 20 8 25 8 6 0 4 -3 -2 -6z m607 -3 c0 -5 -2 -10 -4 -10 -3 0 -8 5
-11 10 -3 6 -1 10 4 10 6 0 11 -4 11 -10z m-160 -15 c0 -9 -6 -12 -15 -9 -8 4
-12 10 -9 15 8 14 24 10 24 -6z m30 -5 c-7 -4 -10 -15 -7 -23 4 -11 0 -13 -13
-10 -17 5 -17 7 -5 20 8 8 15 19 15 24 0 6 5 7 11 3 8 -5 7 -9 -1 -14z m400
10 c13 -9 13 -11 0 -20 -8 -5 -22 -9 -31 -7 -9 1 -22 -3 -30 -9 -22 -19 -88
-34 -95 -23 -10 17 28 39 48 28 13 -7 18 -6 18 4 0 7 12 18 28 24 36 14 44 15
62 3z m153 -17 c4 -2 7 -8 7 -12 0 -7 -24 -7 -92 -2 -15 2 -8 20 10 24 17 4
59 -2 75 -10z m-1033 -19 c0 -2 -7 -4 -15 -4 -8 0 -15 4 -15 10 0 5 7 7 15 4
8 -4 15 -8 15 -10z m-27 -21 c4 -3 2 -12 -4 -19 -6 -7 -7 -19 -3 -26 5 -7 10
-24 12 -38 4 -29 19 -41 40 -32 10 4 13 1 8 -7 -5 -7 -15 -10 -23 -7 -8 4 -11
2 -7 -5 4 -6 0 -15 -7 -20 -11 -7 -10 -9 4 -9 19 0 23 -15 5 -26 -7 -5 -8 -3
-3 7 5 8 0 7 -12 -3 -30 -27 -50 -23 -27 5 19 22 19 22 -2 4 -24 -20 -27 -45
-5 -43 9 1 18 4 21 8 10 13 43 13 48 -1 3 -8 0 -11 -6 -7 -6 3 -13 2 -17 -4
-3 -5 1 -10 9 -10 9 0 16 -4 16 -10 0 -13 -3 -13 -35 2 -20 9 -28 9 -38 -2 -9
-10 -9 -13 1 -17 6 -3 9 -10 6 -15 -4 -7 -2 -8 5 -4 6 4 9 12 6 17 -4 5 0 9 8
9 8 0 17 -6 20 -14 6 -15 -19 -31 -42 -27 -23 4 13 -27 45 -39 21 -8 29 -8 36
2 6 10 8 10 9 -2 1 -8 0 -19 -1 -25 -1 -5 1 -7 5 -3 4 3 7 10 7 15 0 4 3 13 8
18 5 6 11 36 14 67 6 48 4 58 -11 67 -15 9 -14 10 9 9 15 -1 25 -5 22 -9 -2
-4 4 -13 14 -20 16 -13 16 -13 2 5 -18 23 -18 19 -2 39 9 10 10 17 2 22 -5 3
-10 12 -10 18 0 8 3 8 8 2 16 -22 79 6 65 28 -3 6 -1 7 5 3 5 -3 12 -3 15 1 2
5 2 2 1 -4 -5 -21 7 -15 43 22 36 37 49 42 55 23 3 -9 10 -8 22 5 11 11 26 15
41 11 12 -3 26 -1 29 5 4 6 13 11 19 11 7 0 1 -9 -13 -20 -18 -13 -28 -16 -37
-8 -9 7 -13 7 -13 -1 0 -11 13 -15 38 -12 11 2 11 -2 1 -21 -11 -21 -11 -22 4
-10 13 11 15 10 10 -7 -3 -10 -14 -22 -26 -25 -17 -4 -18 -7 -7 -20 9 -12 9
-16 1 -16 -7 0 -9 -5 -5 -12 4 -7 3 -8 -5 -4 -6 4 -9 12 -6 17 4 5 1 9 -4 9
-6 0 -11 -7 -11 -16 0 -8 -5 -12 -11 -8 -8 4 -9 0 -4 -15 4 -13 2 -21 -5 -21
-14 0 -34 -21 -38 -38 -2 -10 3 -10 20 0 13 7 27 18 31 23 5 6 7 3 3 -7 -4
-15 2 -16 57 -12 70 5 103 10 115 18 4 2 13 -4 20 -15 7 -10 8 -19 3 -19 -15
0 -1 -38 16 -45 21 -7 31 4 14 14 -11 7 -8 12 10 22 22 11 23 11 10 -4 -9 -12
-10 -17 -2 -17 8 0 10 -8 6 -21 -6 -19 -5 -20 8 -8 10 9 12 18 6 26 -7 7 -6
14 0 18 18 10 34 46 20 43 -6 -2 -13 3 -14 10 -2 7 -1 8 2 2 2 -5 10 -7 16 -3
6 3 30 6 53 4 23 -1 45 3 49 9 4 6 3 10 -2 9 -20 -4 -23 2 -8 17 13 14 14 19
3 25 -10 7 -10 10 1 21 9 9 15 10 18 2 17 -48 59 -59 210 -55 54 1 66 5 87 28
13 14 32 46 41 70 l17 45 32 -31 c17 -17 40 -44 50 -61 18 -31 18 -31 -3 -37
-12 -3 -21 -9 -21 -14 0 -5 7 -6 15 -3 9 4 15 0 15 -8 0 -10 10 -13 30 -12 39
3 80 -17 80 -38 0 -13 -5 -15 -27 -9 -32 9 -51 5 -75 -17 -10 -8 -18 -12 -18
-8 0 4 -12 1 -27 -8 -33 -17 -78 -34 -113 -42 -76 -17 -100 -20 -111 -13 -7 4
-22 1 -35 -7 -15 -10 -24 -12 -29 -5 -3 6 -12 11 -18 11 -8 0 -8 -3 1 -9 11
-7 11 -9 -2 -14 -8 -3 -18 -2 -21 3 -11 18 -32 10 -31 -11 1 -30 55 -52 81
-33 10 7 23 10 29 6 14 -9 99 -9 106 0 3 4 20 8 38 10 18 1 32 5 32 8 0 3 9 6
20 6 11 0 20 -4 20 -8 0 -4 7 -8 15 -8 8 0 15 -6 15 -12 0 -9 4 -8 10 2 7 11
10 11 10 2 0 -9 5 -10 16 -4 13 7 24 2 45 -23 31 -35 35 -45 18 -45 -6 0 -18
-7 -26 -16 -14 -13 -14 -20 -4 -36 9 -14 9 -23 1 -33 -6 -8 -12 -27 -12 -44
-1 -17 -5 -28 -10 -25 -5 3 -12 -3 -15 -15 -3 -12 -12 -21 -19 -21 -8 0 -14
-8 -14 -17 0 -15 -2 -16 -10 -3 -8 12 -10 12 -10 1 0 -11 -5 -10 -20 4 -11 10
-20 16 -21 14 0 -2 -2 -12 -4 -21 -2 -10 1 -18 6 -18 5 0 9 5 9 12 0 6 3 9 6
5 8 -8 -35 -68 -45 -62 -5 2 -6 -7 -3 -20 4 -25 12 -25 45 3 13 12 17 12 17 2
0 -7 3 -10 7 -7 3 4 12 2 19 -4 8 -6 20 -9 27 -6 8 3 13 -3 13 -14 0 -12 -4
-15 -10 -9 -16 16 -37 11 -35 -7 1 -10 0 -20 -1 -23 -16 -43 0 -68 20 -30 8
15 8 20 -2 21 -10 0 -10 2 1 6 11 5 11 7 0 15 -10 7 -8 8 8 5 14 -3 28 3 41
18 17 19 18 25 6 46 -10 20 -14 21 -19 8 -4 -10 -15 -15 -31 -13 -38 4 -39 10
-4 23 20 6 29 15 24 22 -4 7 -1 10 7 7 8 -2 18 -14 24 -26 5 -12 13 -22 17
-22 14 0 8 -24 -12 -50 -21 -27 -26 -45 -10 -35 6 3 10 -1 10 -9 0 -9 -6 -16
-14 -16 -7 0 -19 -7 -26 -15 -7 -8 -21 -15 -31 -15 -13 0 -19 -7 -19 -21 0
-11 -4 -17 -10 -14 -5 3 -10 1 -10 -4 0 -6 -7 -11 -16 -11 -11 0 -14 -6 -9
-21 6 -19 5 -20 -14 -9 -18 9 -22 8 -28 -7 -11 -29 -35 -52 -49 -46 -8 3 -14
0 -14 -6 0 -19 -2 -26 -12 -44 -5 -10 -12 -16 -15 -13 -3 3 0 12 6 20 10 12 9
15 -8 13 -12 -1 -21 -5 -21 -10 0 -4 -4 -5 -10 -2 -5 3 -10 0 -10 -7 0 -9 -14
-13 -40 -13 -26 0 -39 4 -36 11 3 7 -3 10 -14 7 -10 -3 -18 -13 -17 -23 1 -10
5 -16 9 -14 4 3 8 1 8 -4 0 -5 -11 -14 -25 -20 -14 -6 -25 -16 -25 -22 0 -5
-11 -10 -24 -10 -22 0 -42 -23 -38 -43 1 -4 -9 -5 -23 -3 -14 3 -23 1 -21 -3
3 -4 2 -12 -2 -17 -8 -13 -75 -46 -67 -34 3 4 -6 3 -19 -3 -13 -7 -22 -15 -20
-19 3 -5 1 -8 -4 -8 -6 0 -9 -16 -8 -36 2 -39 -6 -48 -44 -48 -20 -1 -24 -5
-22 -23 2 -15 -1 -21 -10 -19 -7 2 -25 7 -40 10 -19 4 -26 11 -22 21 4 8 10
12 16 9 14 -9 60 5 53 16 -4 6 1 7 11 3 12 -4 15 -3 10 5 -4 7 -1 12 7 12 10
0 14 9 13 25 0 16 -6 23 -14 20 -7 -3 -10 0 -7 6 9 14 -14 39 -31 32 -23 -9
-16 -22 9 -16 15 4 19 2 12 -5 -5 -5 -19 -12 -30 -15 -19 -5 -19 -5 2 -12 l22
-7 -27 -28 c-18 -18 -29 -24 -34 -16 -5 7 -8 7 -8 -3 0 -7 -6 -11 -13 -8 -9 3
-13 -2 -12 -15 1 -13 14 -25 34 -34 32 -13 39 -39 16 -56 -6 -5 -5 -8 3 -8 6
0 12 -9 12 -21 0 -15 -5 -19 -16 -15 -9 3 -12 2 -9 -5 4 -5 15 -7 25 -4 14 4
17 1 15 -12 -2 -10 -4 -21 -4 -25 -1 -4 -7 -5 -15 -2 -8 3 -17 0 -21 -6 -4 -7
0 -10 11 -8 14 2 20 -5 24 -30 3 -18 10 -34 15 -35 6 -1 9 -5 8 -9 -2 -4 5 -5
15 -1 14 5 15 3 5 -8 -18 -19 -16 -28 5 -22 10 2 24 -3 31 -11 12 -14 10 -16
-15 -17 -17 -1 -22 -3 -11 -6 9 -2 17 -11 17 -18 0 -8 6 -18 14 -22 21 -13 27
-65 9 -79 -12 -8 -13 -13 -5 -18 7 -4 12 -2 12 3 0 25 19 8 43 -36 14 -27 30
-47 36 -45 6 1 10 -1 9 -5 -2 -5 0 -8 4 -8 4 0 15 -10 23 -22 17 -24 40 -32
32 -10 -2 6 -10 11 -17 9 -11 -3 -11 0 -1 12 7 8 19 12 27 9 8 -3 14 0 14 7 0
6 -4 9 -9 6 -5 -3 -15 2 -22 11 -12 14 -12 16 2 11 9 -4 22 -1 28 5 8 8 11 7
11 -5 0 -9 5 -20 12 -24 7 -5 9 -2 4 7 -4 8 6 -1 22 -18 15 -18 35 -33 43 -33
11 0 12 -2 1 -9 -11 -7 -11 -9 2 -14 9 -4 16 -13 16 -21 0 -8 10 -18 21 -21
15 -5 18 -9 9 -15 -8 -5 -4 -9 13 -14 25 -6 46 -56 23 -56 -6 0 -4 -4 4 -9 8
-6 19 -7 25 -4 5 4 7 3 3 -2 -4 -4 -2 -15 5 -23 8 -11 8 -14 0 -9 -6 4 -14 3
-18 -3 -3 -5 -1 -10 5 -10 6 0 9 -4 6 -9 -4 -5 0 -12 6 -15 7 -3 1 -4 -14 -2
-16 2 -28 -1 -28 -5 0 -5 -4 -9 -10 -9 -5 0 -6 7 -3 17 4 11 3 14 -6 9 -6 -4
-10 -20 -8 -34 2 -15 0 -38 -4 -52 -7 -23 -7 -23 -8 8 -2 55 -16 35 -16 -22 0
-30 4 -52 9 -48 5 3 6 -11 3 -33 -5 -28 -3 -35 5 -27 8 8 15 7 24 -6 17 -21
18 -36 2 -26 -6 4 -8 3 -4 -4 3 -6 1 -12 -6 -15 -7 -2 -5 -3 5 -2 9 2 17 -3
17 -9 0 -7 10 -18 23 -24 21 -10 21 -11 -8 -12 -30 -2 -30 -2 -5 -10 14 -4 18
-9 10 -9 -13 -1 -13 -2 0 -11 13 -8 12 -10 -4 -10 -20 0 -20 0 -1 -14 11 -8
23 -12 26 -10 4 2 10 -3 13 -12 3 -8 10 -12 16 -9 5 3 7 0 4 -9 -3 -8 4 -33
15 -57 26 -52 26 -49 -3 -47 -14 1 -22 6 -20 10 3 5 10 5 16 2 13 -8 -1 38
-14 47 -5 3 -9 9 -8 13 1 4 -1 12 -4 19 -3 6 -4 3 -3 -8 1 -11 -3 -19 -10 -18
-7 2 -10 -4 -6 -13 4 -11 8 -12 13 -4 5 8 9 7 13 -3 4 -12 -2 -15 -29 -14 -32
1 -34 3 -34 38 0 21 -4 40 -9 43 -5 4 -7 -3 -4 -14 7 -27 -9 -25 -33 2 -13 16
-14 19 -3 10 15 -11 17 -9 15 13 -1 26 -20 40 -39 28 -7 -4 -6 0 1 10 8 9 10
22 6 28 -5 9 -10 7 -16 -7 -6 -14 -7 -11 -3 9 4 19 2 26 -5 22 -5 -3 -10 1
-10 10 0 8 -9 23 -20 32 -14 13 -16 19 -7 25 9 6 9 8 0 8 -7 0 -13 8 -13 18
-1 15 -2 15 -15 -2 -15 -19 -15 -19 -15 1 0 12 7 28 15 36 13 13 13 16 -1 27
-12 11 -13 10 -8 -4 3 -9 1 -16 -5 -16 -6 0 -11 6 -11 14 0 7 -16 24 -35 37
-19 13 -35 30 -35 37 0 6 -6 12 -14 12 -7 0 -22 12 -32 27 -9 15 -19 22 -21
16 -6 -18 -33 -3 -33 19 0 10 -4 16 -10 13 -10 -6 -14 12 -11 50 2 17 0 17 -8
5 -9 -13 -11 -12 -12 5 -1 17 -2 17 -6 3 -5 -21 -24 -23 -41 -6 -9 9 -12 9
-12 -1 0 -11 -3 -11 -15 -1 -14 12 -14 15 1 31 10 11 12 19 6 19 -7 0 -11 4
-10 9 2 4 -8 18 -22 29 -14 12 -19 21 -12 22 6 0 12 -4 12 -10 0 -5 7 -7 15
-4 10 4 14 14 10 28 -2 11 -2 15 1 9 8 -17 21 -16 21 1 0 16 -13 15 -44 -2
-19 -11 -22 -10 -17 3 3 8 9 13 13 11 4 -3 12 3 18 13 9 14 6 22 -13 40 -18
17 -24 19 -24 8 0 -8 7 -17 15 -21 20 -7 19 -26 -1 -26 -9 0 -13 5 -9 13 4 6
-1 3 -11 -8 -10 -13 -15 -14 -11 -5 2 9 -4 26 -14 39 -14 17 -19 19 -19 8 0
-22 -20 -32 -31 -16 -7 11 -9 11 -9 1 0 -8 -5 -10 -12 -6 -7 4 -10 3 -5 -1 11
-13 45 -16 52 -5 3 6 11 10 16 10 6 0 8 -4 5 -8 -3 -5 1 -20 9 -35 8 -15 12
-27 9 -27 -9 0 -33 27 -29 32 2 2 -5 4 -15 4 -21 0 -26 -11 -10 -21 6 -3 10
-14 10 -24 0 -10 7 -24 15 -31 8 -7 16 -22 16 -34 1 -12 5 -7 9 14 4 19 8 27
9 18 0 -9 9 -22 19 -28 16 -11 16 -11 0 -6 -12 4 -18 0 -19 -12 0 -9 -2 -25
-4 -35 -2 -9 0 -15 5 -12 13 8 40 -6 40 -19 0 -8 14 -12 36 -11 19 0 37 -2 40
-6 2 -4 -11 -6 -29 -5 -17 2 -35 -2 -39 -8 -12 -17 -9 -26 5 -20 15 5 17 -33
3 -55 -7 -11 -6 -12 5 -5 21 13 47 15 54 5 3 -5 1 -12 -5 -16 -5 -3 -10 -11
-10 -17 0 -7 4 -7 14 1 10 9 17 7 27 -6 12 -14 12 -16 0 -8 -11 6 -13 4 -8 -8
3 -9 0 -23 -9 -31 -12 -13 -12 -15 5 -13 11 0 17 5 15 9 -3 4 0 8 5 8 6 0 11
5 11 11 0 15 30 43 38 35 3 -4 0 -11 -7 -15 -7 -5 -10 -14 -7 -20 4 -6 10 -9
14 -7 4 2 7 -9 8 -25 1 -16 -2 -29 -6 -29 -4 0 -7 -7 -7 -15 0 -12 3 -12 16
-2 12 10 14 9 8 -6 -4 -11 -1 -24 8 -33 17 -18 20 -44 4 -44 -5 0 -8 -4 -4
-10 3 -5 13 -7 23 -4 15 5 15 5 -1 -6 -9 -6 -22 -8 -28 -4 -7 4 -9 -2 -7 -17
1 -12 10 -25 18 -27 13 -5 13 -3 1 11 -7 10 -11 17 -8 17 3 0 12 3 21 6 11 4
16 1 16 -10 0 -9 7 -19 15 -22 8 -4 15 -14 15 -24 0 -10 7 -21 16 -24 8 -3 12
-2 9 3 -3 5 -1 12 4 15 8 5 21 -15 21 -33 0 -4 -13 -8 -30 -8 -29 0 -33 5 -31
37 0 10 -1 11 -5 2 -8 -17 -44 -36 -44 -22 0 5 7 10 15 10 8 0 15 5 15 11 0 5
-4 7 -10 4 -5 -3 -10 -2 -10 2 0 12 -56 44 -64 36 -3 -3 -6 -1 -6 5 0 6 -12 9
-28 7 -20 -3 -29 1 -29 11 0 8 4 14 8 14 4 0 15 3 25 7 13 5 15 3 9 -8 -4 -8
-5 -11 0 -7 4 4 16 3 26 -3 11 -5 19 -8 19 -5 0 2 3 12 6 21 5 13 1 15 -19 11
-15 -3 -31 1 -37 10 -9 10 -17 11 -31 3 -10 -5 -18 -13 -18 -17 4 -23 -3 -34
-17 -28 -9 4 -23 1 -30 -5 -11 -9 -14 -6 -12 15 2 27 13 35 20 14 2 -6 10 -8
16 -4 7 4 10 16 7 27 -4 12 -1 21 9 25 9 3 14 10 11 15 -8 12 -36 -1 -29 -15
3 -6 -6 3 -21 19 -14 17 -30 29 -35 27 -14 -3 -12 21 3 37 8 10 8 12 0 7 -6
-3 -16 2 -22 11 -10 17 -10 17 -11 1 0 -10 -4 -18 -10 -18 -5 0 -10 -8 -11
-17 0 -12 -2 -13 -6 -5 -3 7 1 19 7 27 12 14 4 20 -22 16 -4 0 -6 8 -5 18 0
11 7 17 14 14 7 -3 10 -10 6 -16 -4 -6 -1 -7 8 -1 8 4 25 8 39 7 21 -1 21 -1
3 3 -17 4 -21 11 -17 32 4 25 3 26 -9 7 -6 -11 -21 -20 -32 -20 -12 0 -21 -9
-25 -25 -5 -21 -7 -22 -13 -8 -3 10 -2 20 3 23 10 6 8 23 -8 51 -8 16 -8 24 0
32 9 9 9 12 -2 12 -7 0 -10 3 -7 6 4 4 -3 15 -15 25 -11 11 -18 19 -14 19 4 0
0 7 -8 16 -19 18 -21 34 -5 34 7 0 0 10 -15 21 -15 12 -25 27 -22 34 3 8 -1
19 -9 25 -7 6 -15 23 -18 38 -3 15 -8 39 -11 55 -6 27 8 39 17 15 3 -7 5 -4 4
8 -1 16 -6 20 -21 16 -13 -3 -17 -1 -12 6 4 7 1 12 -6 12 -9 0 -14 15 -15 45
-1 25 -7 54 -13 64 -7 13 -7 22 0 26 6 4 4 12 -5 22 -9 9 -13 23 -10 31 3 8 0
19 -7 23 -8 5 -9 11 -1 21 6 7 9 27 7 44 -4 33 -28 87 -35 79 -3 -2 -6 11 -7
30 -2 31 0 35 21 35 14 0 24 6 24 15 0 8 -4 15 -9 15 -4 0 -8 -4 -8 -10 0 -5
-7 -10 -16 -10 -8 0 -13 4 -9 9 3 5 1 12 -5 16 -18 11 -7 108 13 106 36 -4 30
13 -8 22 -15 4 -13 5 8 6 17 1 27 7 27 16 0 8 4 15 8 15 5 0 9 14 10 31 1 28
25 60 55 73 8 3 8 8 -3 15 -8 5 -18 7 -24 4 -5 -3 -6 -1 -2 6 4 6 12 8 18 5 7
-5 8 -2 2 7 -9 15 -11 20 -13 44 0 8 -6 15 -12 15 -6 0 -8 -7 -5 -16 3 -9 3
-21 -1 -27 -11 -18 -22 26 -11 46 11 21 1 60 -13 51 -5 -3 -7 -10 -4 -15 3 -5
-2 -6 -11 -2 -10 4 -15 2 -11 -3 3 -6 -3 -10 -13 -11 -12 -1 -20 6 -23 20 -4
18 -4 18 -6 -5 0 -15 4 -30 9 -33 6 -4 8 -11 5 -16 -4 -5 0 -9 7 -9 8 -1 7 -5
-5 -14 -11 -9 -14 -16 -7 -19 6 -3 5 -4 -2 -3 -7 2 -12 11 -10 21 2 9 -1 14
-7 11 -6 -4 -8 7 -5 29 2 21 0 35 -6 35 -6 0 -9 4 -6 9 4 5 0 12 -6 14 -7 3
-4 6 7 6 11 1 16 5 10 9 -5 4 -15 21 -21 39 -10 26 -9 31 2 26 8 -3 11 -9 8
-14 -3 -5 0 -9 6 -9 8 0 9 7 5 18 -4 9 -8 27 -10 40 -1 12 -6 26 -10 30 -5 4
-5 -1 -2 -10 4 -12 2 -15 -7 -12 -15 6 -10 44 6 44 5 0 7 12 5 28 -3 21 -9 26
-24 24 -24 -3 -39 24 -18 32 10 3 12 0 8 -12 -4 -13 -3 -14 6 -6 13 12 -1 64
-17 64 -12 0 -11 32 2 50 9 12 8 13 -4 3 -12 -9 -20 -7 -39 13 -13 13 -28 21
-34 17 -5 -3 -7 -1 -3 5 3 5 2 12 -4 14 -6 2 -12 14 -15 28 -3 14 -9 26 -15
28 -5 2 -10 12 -10 22 0 10 -7 21 -16 24 -13 5 -15 1 -12 -18 3 -14 2 -30 -2
-37 -4 -6 -9 7 -12 29 -2 24 2 48 9 58 12 16 13 16 13 -4 0 -13 6 -22 15 -22
8 0 15 -9 15 -20 0 -11 5 -20 10 -20 6 0 10 6 10 14 0 7 14 16 30 20 24 4 30
11 30 31 0 17 -4 24 -11 19 -8 -4 -8 0 0 15 10 18 9 20 -6 14 -15 -5 -16 -3
-5 8 15 16 16 29 1 29 -5 0 -7 -4 -4 -10 3 -5 -1 -10 -10 -10 -9 0 -13 -5 -9
-11 4 -6 10 -26 14 -44 7 -29 5 -34 -14 -37 -11 -2 -29 4 -38 14 -16 16 -15
17 14 13 30 -4 30 -4 12 17 -11 12 -13 18 -7 14 9 -5 11 -2 7 8 -7 19 -24 11
-24 -11 0 -10 -6 -13 -16 -9 -9 3 -20 6 -25 6 -16 0 -10 40 7 47 11 4 12 8 4
13 -15 9 -4 30 15 30 21 0 28 -19 15 -35 -10 -12 -10 -15 0 -15 6 0 14 9 17
19 3 13 12 18 24 16 15 -3 19 2 19 21 0 14 4 22 10 19 7 -4 7 3 0 19 -5 14 -7
26 -3 26 4 0 -2 7 -13 15 -16 12 -12 17 12 14 4 0 11 5 16 13 6 9 7 5 3 -11
-5 -16 -4 -21 4 -17 16 10 14 36 -4 42 -8 4 -13 10 -10 14 8 14 -26 41 -44 35
-11 -3 -22 5 -34 25 -14 23 -15 28 -4 24 8 -3 19 -14 24 -26 9 -20 9 -20 28
-2 17 17 18 17 12 2 -4 -12 -2 -18 8 -18 18 0 19 14 4 43 -12 22 -12 22 10 3
11 -11 21 -14 21 -8 0 6 -5 14 -10 17 -15 9 9 48 26 41 8 -3 14 -1 14 4 0 6
-5 10 -10 10 -7 0 -7 7 1 21 6 12 7 24 3 28 -8 5 -9 17 -5 44 1 9 15 9 24 0z
m-548 -23 c3 -5 1 -10 -4 -10 -6 0 -11 5 -11 10 0 6 2 10 4 10 3 0 8 -4 11
-10z m575 -23 c0 -16 -3 -17 -15 -7 -8 7 -15 16 -15 20 0 3 7 7 15 7 8 0 15
-9 15 -20z m1015 10 c13 -10 15 -16 6 -21 -17 -11 -41 0 -41 19 0 19 11 19 35
2z m-1640 -52 c10 -31 29 -67 42 -81 13 -14 23 -28 23 -31 0 -13 47 -53 63
-53 29 0 20 -20 -32 -69 -49 -46 -63 -74 -47 -99 5 -8 2 -20 -8 -31 -9 -10
-13 -21 -9 -25 15 -15 11 -38 -5 -32 -15 5 -15 4 1 -8 18 -14 24 -46 8 -46 -5
0 -12 8 -14 18 -4 13 -5 12 -6 -5 0 -12 9 -29 20 -37 19 -13 24 -13 36 0 8 8
18 12 23 9 5 -3 10 -1 12 4 1 5 12 11 23 13 14 2 19 -2 17 -14 -5 -34 33 -6
52 38 10 24 22 44 27 44 5 0 9 6 9 14 0 22 23 35 48 25 12 -5 22 -13 22 -19 0
-6 -4 -8 -10 -5 -5 3 -10 -3 -10 -15 0 -12 5 -18 10 -15 6 3 10 -5 10 -19 0
-13 5 -26 10 -28 6 -2 12 -13 13 -26 0 -12 5 -22 9 -22 4 0 8 -7 8 -15 0 -8 9
-23 20 -32 11 -10 20 -26 20 -36 0 -11 5 -15 11 -11 7 4 6 -3 -2 -17 -16 -30
-20 -49 -9 -49 13 0 30 -53 26 -77 -3 -13 -1 -23 5 -23 5 0 9 -9 9 -19 0 -11
5 -23 11 -26 6 -4 8 -13 5 -21 -3 -7 -1 -16 5 -20 6 -3 8 -12 6 -18 -3 -7 4
-18 15 -25 14 -9 19 -21 17 -45 -2 -19 4 -45 15 -61 10 -15 14 -25 10 -22 -5
3 -9 -8 -9 -24 -1 -27 8 -38 18 -21 2 4 2 0 0 -8 -11 -37 -11 -50 -2 -50 6 0
9 -6 6 -12 -2 -7 -1 -22 3 -33 5 -12 3 -28 -5 -38 -11 -16 -15 -16 -48 -2 -23
9 -51 12 -85 8 -160 -19 -347 75 -430 216 -36 62 -72 151 -60 151 5 0 6 5 3
10 -12 19 18 5 44 -20 37 -36 84 -24 90 23 2 11 -32 40 -70 60 -57 30 -65 39
-94 112 -26 65 -28 79 -26 198 0 71 3 133 6 137 12 20 37 159 36 205 -1 45 13
102 29 115 3 3 13 17 23 33 26 40 41 33 62 -28z m1555 46 c0 -14 -18 -23 -30
-16 -6 4 -8 11 -5 16 8 12 35 12 35 0z m-800 -61 c0 -5 -5 -10 -11 -10 -5 0
-7 5 -4 10 3 6 8 10 11 10 2 0 4 -4 4 -10z m1275 -109 c3 -5 2 -12 -3 -15 -5
-3 -9 1 -9 9 0 17 3 19 12 6z m-1538 -58 c-33 -34 -47 -40 -47 -22 0 5 5 7 10
4 6 -3 10 4 10 15 0 16 5 20 15 16 8 -3 15 -1 15 5 0 6 -10 13 -22 17 -21 5
-21 6 -2 12 10 4 27 2 36 -4 16 -9 14 -14 -15 -43z m-312 26 c11 -16 1 -19
-13 -3 -7 8 -8 14 -3 14 5 0 13 -5 16 -11z m260 -9 c3 -5 -1 -10 -10 -10 -9 0
-13 5 -10 10 3 6 8 10 10 10 2 0 7 -4 10 -10z m225 -18 c0 -5 -7 -9 -15 -9 -8
0 -15 4 -15 9 0 4 7 8 15 8 8 0 15 -4 15 -8z m-18 -44 c-2 -10 -6 -18 -7 -18
-1 0 -5 8 -7 18 -3 11 0 19 7 19 7 0 10 -8 7 -19z m-187 -47 c-6 -5 -21 -12
-35 -16 -24 -7 -24 -7 -5 9 21 16 56 23 40 7z m965 -21 c0 -5 -5 -10 -11 -10
-5 0 -7 5 -4 10 3 6 8 10 11 10 2 0 4 -4 4 -10z m507 -32 c-3 -8 -6 -5 -6 6
-1 11 2 17 5 13 3 -3 4 -12 1 -19z m-73 -13 c-4 -8 -11 -12 -16 -9 -6 4 -5 10
3 15 19 12 19 11 13 -6z m46 1 c-7 -7 -14 -6 -21 1 -9 9 -7 12 9 10 14 -1 18
-5 12 -11z m-6 -27 c-8 -14 -34 -10 -34 5 0 9 7 12 20 9 11 -3 17 -9 14 -14z
m-1524 -65 c0 -16 -15 -32 -26 -27 -21 8 -17 29 6 29 11 0 20 -1 20 -2z m-602
-40 c-10 -10 -28 6 -28 24 0 15 1 15 17 -1 9 -9 14 -19 11 -23z m30 -69 c1
-20 8 -56 17 -81 8 -24 15 -52 14 -62 -1 -9 -8 6 -18 33 -9 28 -19 55 -22 60
-16 25 -20 68 -7 76 7 5 13 9 14 9 0 0 1 -16 2 -35z m2312 -79 c0 -2 -8 -10
-17 -17 -16 -13 -17 -12 -4 4 13 16 21 21 21 13z m-1547 -58 c-7 -13 -41 15
-36 29 4 11 9 10 23 -4 10 -10 16 -21 13 -25z m1472 32 c3 -5 -1 -10 -10 -10
-9 0 -13 5 -10 10 3 6 8 10 10 10 2 0 7 -4 10 -10z m-1445 -100 c0 -5 -2 -10
-4 -10 -3 0 -8 5 -11 10 -3 6 -1 10 4 10 6 0 11 -4 11 -10z m1625 -170 c3 -6
-1 -7 -9 -4 -18 7 -21 14 -7 14 6 0 13 -4 16 -10z m-175 -54 c0 -3 -4 -8 -10
-11 -5 -3 -10 -1 -10 4 0 6 5 11 10 11 6 0 10 -2 10 -4z m-720 -191 c0 -2 -9
-3 -19 -2 -11 0 -18 5 -15 9 4 6 34 0 34 -7z m-130 -49 c0 -2 -8 -10 -17 -17
-16 -13 -17 -12 -4 4 13 16 21 21 21 13z m-120 -196 c0 -5 -2 -10 -4 -10 -3 0
-8 5 -11 10 -3 6 -1 10 4 10 6 0 11 -4 11 -10z m690 -90 c0 -5 -5 -10 -11 -10
-5 0 -7 5 -4 10 3 6 8 10 11 10 2 0 4 -4 4 -10z m170 6 c0 -3 -4 -8 -10 -11
-5 -3 -10 -1 -10 4 0 6 5 11 10 11 6 0 10 -2 10 -4z m184 -30 c21 8 22 -19 1
-36 -12 -10 -15 -10 -15 4 0 14 -3 14 -20 4 -18 -11 -18 -13 -3 -19 10 -3 13
-8 6 -12 -6 -4 -17 0 -24 9 -10 13 -10 17 0 24 10 5 10 9 1 15 -7 4 -13 -1
-17 -14 -6 -24 -33 -29 -33 -6 0 19 61 46 76 33 6 -4 19 -6 28 -2z m33 -46
c-3 -11 -1 -20 4 -20 5 0 9 -5 9 -11 0 -8 -4 -9 -13 0 -8 6 -17 8 -20 5 -4 -4
-1 5 6 20 14 31 21 34 14 6z m-157 -10 c-6 -11 -13 -20 -16 -20 -2 0 0 9 6 20
6 11 13 20 16 20 2 0 0 -9 -6 -20z m-1340 0 c0 -5 -2 -10 -4 -10 -3 0 -8 5
-11 10 -3 6 -1 10 4 10 6 0 11 -4 11 -10z m1040 -26 c0 -8 -19 -13 -24 -6 -3
5 1 9 9 9 8 0 15 -2 15 -3z m40 -14 c6 -11 7 -20 2 -20 -6 0 -12 9 -15 20 -3
11 -3 20 -1 20 2 0 8 -9 14 -20z m85 -18 c-3 -3 -11 0 -18 7 -9 10 -8 11 6 5
10 -3 15 -9 12 -12z m-1161 -41 c-2 -3 -12 3 -22 13 -16 17 -16 18 5 5 12 -7
20 -15 17 -18z m26 -28 c0 -6 -6 -15 -12 -19 -7 -4 -10 -4 -6 1 4 4 1 13 -8
19 -13 10 -13 12 5 12 12 0 21 -6 21 -13z m20 -73 c0 -5 -5 -10 -11 -10 -5 0
-7 5 -4 10 3 6 8 10 11 10 2 0 4 -4 4 -10z m605 -29 c3 -5 1 -12 -5 -16 -5 -3
-10 1 -10 9 0 18 6 21 15 7z m537 -31 c19 -37 16 -50 -13 -50 -23 0 -38 32
-31 67 6 31 23 25 44 -17z m-1145 -7 c-4 -3 -1 -13 6 -22 10 -14 10 -14 -4 -4
-12 10 -18 10 -27 1 -9 -9 -12 -9 -12 0 0 6 8 16 18 21 20 12 28 14 19 4z m17
-72 c22 -23 24 -29 12 -34 -8 -3 -18 -1 -22 5 -4 7 -3 8 4 4 23 -14 12 7 -15
30 -16 13 -23 24 -17 24 5 0 23 -13 38 -29z m248 -50 c-5 -13 -6 -13 -10 0 -3
7 -9 23 -15 34 l-10 20 20 -20 c11 -11 18 -27 15 -34z m578 15 c0 -8 -5 -18
-12 -22 -7 -4 -8 -3 -4 4 4 7 1 12 -9 12 -9 0 -13 5 -10 10 9 15 35 12 35 -4z
m-830 -26 c0 -5 -2 -10 -4 -10 -3 0 -8 5 -11 10 -3 6 -1 10 4 10 6 0 11 -4 11
-10z m861 -36 c-12 -9 -18 -9 -23 -1 -16 25 -9 36 16 24 21 -10 22 -13 7 -23z
m-812 -1 c-1 -22 -2 -23 -6 -8 -3 11 -10 23 -17 27 -7 5 -5 8 7 8 12 0 17 -7
16 -27z m911 -1 c0 -5 -9 -19 -20 -32 -22 -25 -24 -31 -12 -29 18 3 32 -2 32
-11 0 -6 -11 -8 -25 -4 -15 4 -32 1 -40 -6 -9 -7 -15 -8 -15 -2 0 5 7 13 16
16 13 5 14 9 4 21 -6 8 -10 20 -7 27 4 8 6 7 6 -4 1 -25 18 -22 37 7 17 26 24
31 24 17z m-935 -12 c3 -5 1 -10 -4 -10 -6 0 -11 5 -11 10 0 6 2 10 4 10 3 0
8 -4 11 -10z m273 -25 c-3 -3 -9 2 -12 12 -6 14 -5 15 5 6 7 -7 10 -15 7 -18z
m-248 -16 c-5 -9 -6 -19 -3 -23 3 -3 1 -6 -5 -6 -7 0 -12 3 -13 8 0 4 -2 14
-4 22 -1 10 5 16 15 16 14 0 16 -4 10 -17z m933 -7 c-6 -15 -4 -15 15 2 12 11
22 17 22 13 0 -3 3 -12 6 -21 3 -9 1 -16 -6 -16 -6 0 -8 6 -5 13 4 6 0 4 -8
-5 -8 -10 -20 -18 -27 -18 -7 0 -10 3 -7 6 3 4 2 14 -3 24 -10 18 -3 33 11 24
4 -2 5 -12 2 -22z m-913 -36 c0 -2 -7 -7 -16 -10 -8 -3 -12 -2 -9 4 6 10 25
14 25 6z m890 -2 c0 -8 -19 -13 -24 -6 -3 5 1 9 9 9 8 0 15 -2 15 -3z m-40
-34 c0 -5 -2 -10 -4 -10 -3 0 -8 5 -11 10 -3 6 -1 10 4 10 6 0 11 -4 11 -10z
m-63 -17 c-10 -9 -56 -10 -51 -1 3 4 17 8 31 8 15 0 23 -3 20 -7z m117 -1 c2
-4 -4 -8 -14 -8 -10 0 -16 4 -14 8 3 4 9 8 14 8 5 0 11 -4 14 -8z m-187 -34
c-3 -8 -6 -5 -6 6 -1 11 2 17 5 13 3 -3 4 -12 1 -19z m130 0 c-3 -8 -6 -5 -6
6 -1 11 2 17 5 13 3 -3 4 -12 1 -19z m-50 -32 c-3 -7 0 -20 6 -27 10 -11 9
-11 -5 0 -15 11 -15 41 -1 41 3 0 3 -6 0 -14z m-620 -140 c-18 -14 -18 -14 0
-19 11 -3 7 -4 -8 -4 -23 1 -25 4 -15 19 6 10 18 18 26 18 12 -1 11 -3 -3 -14z
m47 -66 c-6 -5 -24 21 -24 34 0 6 6 1 14 -10 8 -10 12 -21 10 -24z m113 4 c-3
-3 -12 -4 -19 -1 -8 3 -5 6 6 6 11 1 17 -2 13 -5z m-398 -52 c-4 -2 -5 -11 -2
-20 6 -14 5 -15 -9 -2 -9 8 -12 17 -7 18 5 2 9 16 10 30 l1 27 7 -25 c4 -14 4
-26 0 -28z m355 -13 c-9 -15 -34 -10 -28 5 3 8 12 12 20 9 8 -3 11 -9 8 -14z
m526 6 c0 -8 -2 -15 -4 -15 -2 0 -6 7 -10 15 -3 8 -1 15 4 15 6 0 10 -7 10
-15z m297 -12 c-4 -3 -2 -12 5 -20 8 -11 7 -12 -6 -7 -9 3 -16 9 -16 13 0 9
11 21 18 21 3 0 2 -3 -1 -7z m-274 -48 c-3 -8 -13 -15 -22 -15 -14 0 -14 2 -1
10 13 9 13 10 0 10 -13 0 -13 2 0 9 18 12 31 5 23 -14z m537 16 c0 -12 -39
-25 -47 -17 -4 3 1 6 10 6 10 0 17 5 17 10 0 6 5 10 10 10 6 0 10 -4 10 -9z
m-165 -11 c-3 -5 -12 -10 -18 -10 -7 0 -6 4 3 10 19 12 23 12 15 0z m-1245
-39 c-10 -19 -1 -51 16 -51 8 0 14 -7 14 -15 0 -22 -7 -19 -40 18 -31 33 -39
53 -17 41 10 -6 10 -4 0 7 -23 24 -16 39 11 26 17 -8 22 -16 16 -26z m380 19
c0 -5 -7 -10 -15 -10 -8 0 -15 5 -15 10 0 6 7 10 15 10 8 0 15 -4 15 -10z
m110 -12 c0 -11 -12 -10 -30 2 -12 7 -10 9 8 7 12 0 22 -5 22 -9z m110 -16
c21 -22 27 -37 10 -27 -5 3 -10 1 -10 -4 0 -6 6 -11 13 -11 6 -1 2 -6 -10 -13
-17 -9 -19 -16 -12 -29 8 -14 7 -16 -7 -11 -17 6 -17 5 -1 -17 9 -14 17 -29
17 -35 -1 -5 -8 4 -17 20 -10 17 -16 38 -14 48 2 17 -13 24 -22 10 -2 -5 -2
-3 -1 4 2 6 -2 14 -9 16 -7 2 -8 8 -4 13 4 5 11 4 15 -1 11 -15 32 -17 30 -2
-4 19 -18 25 -50 20 -27 -4 -29 -3 -19 15 19 36 60 37 91 4z m-545 -40 c-8 -9
-42 10 -42 22 0 12 5 11 23 -2 12 -9 21 -19 19 -20z m708 3 c-3 -9 -8 -14 -10
-11 -3 3 -2 9 2 15 9 16 15 13 8 -4z m-318 -15 c4 -6 1 -9 -7 -8 -7 2 -12 -3
-10 -10 1 -8 -2 -11 -8 -7 -8 5 -7 11 1 21 14 17 16 17 24 4z m200 0 c-9 -14
-45 -32 -45 -23 0 7 24 22 48 32 2 0 0 -3 -3 -9z m176 -37 c12 -16 12 -17 -2
-6 -9 7 -20 9 -24 5 -5 -4 -5 -1 -1 6 9 16 11 15 27 -5z m-761 -49 c-5 -12 -8
-24 -7 -26 1 -2 -3 2 -9 9 -6 7 -16 13 -23 13 -6 0 -11 7 -11 16 0 11 5 14 16
10 12 -4 15 -2 10 9 -4 12 -2 13 13 3 15 -9 17 -17 11 -34z m486 19 c-4 -4
-12 -1 -19 7 -9 10 -9 11 1 6 7 -4 12 -2 13 6 0 11 2 11 6 0 3 -7 2 -16 -1
-19z m78 12 c-4 -8 -8 -15 -10 -15 -2 0 -4 7 -4 15 0 8 4 15 10 15 5 0 7 -7 4
-15z m-520 -24 c0 -12 6 -21 13 -21 8 0 11 -5 8 -10 -4 -6 -2 -17 4 -23 7 -10
3 -16 -18 -24 -27 -10 -29 -9 -34 21 -7 42 3 88 17 83 6 -2 11 -14 10 -26z
m411 9 c3 -5 1 -10 -4 -10 -6 0 -11 5 -11 10 0 6 2 10 4 10 3 0 8 -4 11 -10z
m905 -40 c0 -5 -4 -10 -10 -10 -5 0 -10 5 -10 10 0 6 5 10 10 10 6 0 10 -4 10
-10z m-905 -21 c11 -16 1 -19 -13 -3 -7 8 -8 14 -3 14 5 0 13 -5 16 -11z m68
-4 c-3 -9 -8 -14 -10 -11 -3 3 -2 9 2 15 9 16 15 13 8 -4z m357 -11 c0 -2 -7
-4 -15 -4 -8 0 -15 4 -15 10 0 5 7 7 15 4 8 -4 15 -8 15 -10z m-770 -44 c0
-14 -15 -19 -29 -10 -17 10 -5 31 14 23 8 -3 15 -9 15 -13z m490 10 c0 -5 -5
-10 -11 -10 -5 0 -7 5 -4 10 3 6 8 10 11 10 2 0 4 -4 4 -10z m12 -72 c-7 -7
-12 -8 -12 -2 0 6 3 14 7 17 3 4 9 5 12 2 2 -3 -1 -11 -7 -17z"/>
<path d="M3080 6129 c0 -5 5 -7 10 -4 6 3 10 8 10 11 0 2 -4 4 -10 4 -5 0 -10
-5 -10 -11z"/>
<path d="M3016 6091 c-19 -7 -19 -8 0 -13 13 -3 21 0 21 8 0 8 -1 14 -1 13 -1
0 -10 -4 -20 -8z"/>
<path d="M3430 6010 c0 -5 5 -10 11 -10 5 0 7 5 4 10 -3 6 -8 10 -11 10 -2 0
-4 -4 -4 -10z"/>
<path d="M3926 5875 c4 -8 1 -15 -5 -15 -6 0 -11 -8 -10 -17 0 -11 3 -13 6 -6
3 9 11 9 29 -3 23 -15 24 -15 24 4 0 11 -11 27 -25 36 -21 14 -24 14 -19 1z"/>
<path d="M3980 5840 c0 -5 5 -10 11 -10 5 0 7 5 4 10 -3 6 -8 10 -11 10 -2 0
-4 -4 -4 -10z"/>
<path d="M3537 5816 c-6 -16 2 -28 14 -20 12 7 11 34 0 34 -5 0 -11 -6 -14
-14z"/>
<path d="M3600 5820 c0 -5 5 -10 11 -10 5 0 7 5 4 10 -3 6 -8 10 -11 10 -2 0
-4 -4 -4 -10z"/>
<path d="M3490 5810 c-9 -6 -10 -10 -3 -10 6 0 15 5 18 10 8 12 4 12 -15 0z"/>
<path d="M3126 5742 c-7 -12 12 -38 21 -28 4 5 2 11 -5 13 -6 3 -10 9 -6 14 3
5 3 9 0 9 -3 0 -7 -4 -10 -8z"/>
<path d="M3909 5697 c6 -8 7 -18 3 -22 -4 -5 -1 -5 6 -1 10 6 10 11 1 22 -6 8
-14 14 -16 14 -3 0 0 -6 6 -13z"/>
<path d="M3090 5640 c6 -11 16 -20 23 -19 9 0 9 2 0 6 -7 2 -13 11 -13 19 0 8
-5 14 -10 14 -7 0 -7 -6 0 -20z"/>
<path d="M4347 5640 c3 -11 9 -20 15 -20 5 0 4 9 -2 20 -6 11 -12 20 -14 20
-2 0 -2 -9 1 -20z"/>
<path d="M3180 5610 c0 -5 5 -10 10 -10 6 0 10 5 10 10 0 6 -4 10 -10 10 -5 0
-10 -4 -10 -10z"/>
<path d="M4345 5600 c-3 -5 1 -10 10 -10 9 0 13 5 10 10 -3 6 -8 10 -10 10 -2
0 -7 -4 -10 -10z"/>
<path d="M3173 5564 c3 -3 2 -17 -3 -30 -7 -17 -6 -24 3 -24 6 0 12 14 13 30
1 17 -3 30 -9 30 -6 0 -8 -3 -4 -6z"/>
<path d="M3162 5485 c-11 -12 -10 -15 2 -15 8 0 17 -6 19 -12 3 -7 6 -1 6 15
1 30 -7 34 -27 12z"/>
<path d="M3030 5480 c0 -5 5 -10 11 -10 5 0 7 5 4 10 -3 6 -8 10 -11 10 -2 0
-4 -4 -4 -10z"/>
<path d="M3115 5470 c-3 -5 -3 -10 1 -10 4 0 -1 -9 -11 -20 -17 -18 -17 -20
-2 -14 11 4 23 -2 36 -17 l18 -23 -5 34 c-5 38 -27 67 -37 50z"/>
<path d="M3150 5364 c0 -8 5 -12 10 -9 6 4 8 11 5 16 -9 14 -15 11 -15 -7z"/>
<path d="M3170 5092 c0 -5 7 -9 15 -9 8 0 12 4 9 9 -3 4 -9 8 -15 8 -5 0 -9
-4 -9 -8z"/>
<path d="M3317 5067 c-3 -9 -2 -17 3 -17 6 0 10 -8 10 -17 0 -15 2 -16 10 -3
12 19 13 43 1 36 -5 -4 -11 -1 -13 6 -3 8 -7 6 -11 -5z"/>
<path d="M3531 4970 c-11 -34 0 -46 26 -31 10 6 14 11 8 11 -5 0 -4 4 2 8 9 6
8 12 -6 24 -18 16 -20 15 -30 -12z"/>
<path d="M3896 4978 c3 -5 10 -6 15 -3 13 9 11 12 -6 12 -8 0 -12 -4 -9 -9z"/>
<path d="M3628 4914 c-16 -8 -28 -11 -28 -7 0 4 -6 -2 -14 -13 -14 -19 -15
-19 -34 3 l-19 23 -12 -23 c-6 -12 -9 -14 -7 -4 3 9 2 17 -2 18 -43 5 -50 4
-46 -3 3 -4 0 -8 -7 -8 -7 0 -9 -3 -6 -7 4 -3 1 -13 -5 -22 -9 -11 -6 -10 9 2
21 19 21 18 17 -10 -3 -15 -6 -35 -7 -44 -1 -9 -7 -15 -14 -12 -7 3 -11 8 -8
12 2 4 -2 8 -10 8 -13 0 -13 -3 0 -23 11 -17 12 -24 2 -27 -8 -4 -7 -6 3 -6
13 -1 13 -2 0 -11 -11 -8 -8 -9 13 -4 22 5 27 3 27 -14 0 -41 69 -31 71 11 1
17 2 18 6 4 2 -9 9 -15 14 -12 5 4 9 1 9 -4 0 -6 5 -11 10 -11 6 0 10 6 10 13
-1 18 -38 59 -48 53 -5 -3 -9 1 -9 8 0 8 8 11 19 8 10 -2 18 -8 18 -13 0 -5 9
0 20 11 12 12 25 18 30 15 10 -6 14 13 11 48 -2 12 5 17 21 17 13 0 18 3 12 8
-6 4 -13 12 -15 19 -3 8 -11 7 -31 -3z m-115 -45 c7 -1 15 -1 20 0 4 0 7 -6 7
-15 0 -14 -2 -14 -16 -3 -14 11 -18 10 -30 -6 -8 -10 -14 -14 -14 -9 0 6 5 15
12 22 8 8 9 12 1 12 -7 0 -9 9 -5 23 l7 22 3 -22 c2 -13 9 -24 15 -24z m87 2
c0 -12 -39 -21 -45 -11 -3 5 5 11 17 13 13 2 24 5 26 6 1 0 2 -3 2 -8z m-100
-72 c0 -6 -4 -7 -10 -4 -5 3 -10 11 -10 16 0 6 5 7 10 4 6 -3 10 -11 10 -16z
m21 -2 c-10 -9 -11 -8 -5 6 3 10 9 15 12 12 3 -3 0 -11 -7 -18z"/>
<path d="M3750 4909 c0 -5 5 -7 10 -4 6 3 10 8 10 11 0 2 -4 4 -10 4 -5 0 -10
-5 -10 -11z"/>
<path d="M3715 4900 c4 -6 11 -8 16 -5 14 9 11 15 -7 15 -8 0 -12 -5 -9 -10z"/>
<path d="M3307 4863 c-10 -9 -9 -23 1 -23 5 0 9 7 9 15 0 17 -1 18 -10 8z"/>
<path d="M3658 4858 c6 -6 8 -17 5 -24 -3 -8 0 -14 7 -14 6 0 8 5 5 10 -3 6
-2 10 3 10 23 0 18 25 -5 27 -17 1 -22 -2 -15 -9z"/>
<path d="M3359 4854 c5 -3 7 -13 4 -23 -3 -14 2 -20 21 -23 31 -6 35 7 6 15
-11 3 -19 11 -18 17 2 7 -3 14 -10 16 -7 1 -8 0 -3 -2z"/>
<path d="M3378 4778 c5 -5 16 -8 23 -6 8 3 3 7 -10 11 -17 4 -21 3 -13 -5z"/>
<path d="M3360 4764 c0 -6 7 -19 16 -30 14 -18 14 -18 3 6 -14 31 -19 36 -19
24z"/>
<path d="M3226 4711 c-3 -5 1 -11 9 -15 8 -3 15 -1 15 4 0 13 -18 22 -24 11z"/>
<path d="M3220 4670 c0 -5 5 -10 10 -10 6 0 10 5 10 10 0 6 -4 10 -10 10 -5 0
-10 -4 -10 -10z"/>
<path d="M3230 4561 c0 -6 4 -12 8 -15 5 -3 9 1 9 9 0 8 -4 15 -9 15 -4 0 -8
-4 -8 -9z"/>
<path d="M3595 4400 c-3 -5 -1 -10 4 -10 6 0 11 5 11 10 0 6 -2 10 -4 10 -3 0
-8 -4 -11 -10z"/>
<path d="M3414 4288 c-4 -7 -3 -8 4 -4 7 4 12 2 12 -3 0 -6 -4 -11 -10 -11 -5
0 -10 -5 -10 -11 0 -8 5 -8 15 1 17 14 20 40 6 40 -6 0 -13 -5 -17 -12z"/>
<path d="M3447 4221 c-3 -12 -1 -23 3 -26 4 -3 6 -15 3 -28 -3 -16 -2 -18 5
-9 5 8 13 14 18 15 5 1 7 7 5 12 -2 6 -4 16 -5 23 -1 7 -7 17 -13 23 -7 7 -12
4 -16 -10z"/>
<path d="M3435 4179 c-4 -6 -5 -12 -2 -15 2 -3 7 2 10 11 7 17 1 20 -8 4z"/>
<path d="M3596 4017 c3 -10 9 -15 12 -12 3 3 0 11 -7 18 -10 9 -11 8 -5 -6z"/>
<path d="M3885 4021 c-3 -5 -2 -12 3 -15 5 -3 9 1 9 9 0 17 -3 19 -12 6z"/>
<path d="M3650 4006 c0 -2 7 -9 15 -16 9 -7 15 -8 15 -2 0 5 -7 12 -15 16 -8
3 -15 4 -15 2z"/>
<path d="M3920 3980 c0 -5 5 -10 11 -10 5 0 7 5 4 10 -3 6 -8 10 -11 10 -2 0
-4 -4 -4 -10z"/>
<path d="M3585 3960 c-3 -6 1 -7 9 -4 18 7 21 14 7 14 -6 0 -13 -4 -16 -10z"/>
<path d="M3625 3950 c3 -5 8 -10 11 -10 2 0 4 5 4 10 0 6 -5 10 -11 10 -5 0
-7 -4 -4 -10z"/>
<path d="M4000 3878 c0 -4 4 -8 9 -8 6 0 12 4 15 8 3 5 -1 9 -9 9 -8 0 -15 -4
-15 -9z"/>
<path d="M3500 3836 c0 -2 8 -10 18 -17 15 -13 16 -12 3 4 -13 16 -21 21 -21
13z"/>
<path d="M3476 3785 c4 -8 11 -15 16 -15 6 0 5 6 -2 15 -7 8 -14 15 -16 15 -2
0 -1 -7 2 -15z"/>
<path d="M3590 3731 c0 -6 5 -11 11 -11 6 0 9 -6 6 -13 -3 -8 1 -14 8 -14 10
0 11 5 4 18 -11 22 -29 34 -29 20z"/>
<path d="M3634 3679 c-4 -8 1 -9 16 -4 17 5 21 4 15 -5 -5 -9 -4 -11 3 -6 7 4
12 11 12 17 0 13 -37 11 -46 -2z"/>
<path d="M3701 3681 c-7 -5 -12 -13 -10 -18 2 -5 12 -1 22 9 18 19 12 24 -12
9z"/>
<path d="M3591 3653 c1 -22 2 -23 6 -8 3 11 10 23 17 27 7 5 5 8 -6 8 -13 0
-18 -7 -17 -27z"/>
<path d="M3970 3655 c0 -8 4 -15 10 -15 5 0 7 7 4 15 -4 8 -8 15 -10 15 -2 0
-4 -7 -4 -15z"/>
<path d="M4060 3458 c0 -4 7 -8 15 -8 8 0 15 4 15 8 0 5 -7 9 -15 9 -8 0 -15
-4 -15 -9z"/>
<path d="M2488 5420 c-32 -73 -7 -125 64 -132 66 -7 76 22 36 102 -41 81 -74
91 -100 30z"/>
<path d="M2716 5373 c-3 -3 -6 -15 -6 -26 0 -11 -7 -25 -16 -32 -17 -12 -11
-60 7 -50 5 3 6 0 4 -8 -4 -9 13 -23 51 -41 69 -34 85 -26 65 32 -25 67 -87
142 -105 125z"/>
<path d="M3850 3400 c20 -13 33 -13 25 0 -3 6 -14 10 -23 10 -15 0 -15 -2 -2
-10z"/>
<path d="M6218 7853 c-10 -2 -18 -8 -18 -13 0 -17 25 -24 84 -25 45 -1 53 1
35 8 -13 5 -35 14 -49 20 -34 15 -33 15 -52 10z"/>
<path d="M3280 6955 c-7 -9 -8 -15 -2 -15 5 0 12 7 16 15 3 8 4 15 2 15 -2 0
-9 -7 -16 -15z"/>
<path d="M3248 6893 c6 -2 18 -2 25 0 6 3 1 5 -13 5 -14 0 -19 -2 -12 -5z"/>
<path d="M3187 6774 c-3 -4 -2 -15 4 -25 7 -15 6 -17 -6 -13 -8 4 -15 1 -15
-7 0 -7 3 -9 6 -6 4 3 16 2 27 -4 14 -8 18 -8 13 0 -4 6 -9 21 -11 32 -5 26
-9 31 -18 23z"/>
<path d="M3397 6663 c-11 -10 -8 -43 3 -43 6 0 10 11 10 25 0 26 -2 29 -13 18z"/>
<path d="M3310 6615 c-18 -10 -20 -14 -8 -15 9 0 20 5 23 10 4 6 11 7 17 4 7
-4 8 -2 4 4 -9 14 -5 15 -36 -3z"/>
<path d="M3374 6613 c19 -23 14 -29 -22 -24 -9 2 -12 -4 -7 -18 7 -24 -9 -35
-41 -27 -16 4 -22 11 -18 19 5 9 4 9 -6 0 -13 -12 -4 -37 11 -28 5 4 9 2 9 -4
0 -7 8 -7 23 -2 12 4 28 6 36 3 9 -3 11 1 7 16 -5 15 -1 24 14 32 17 9 20 8
20 -12 0 -19 -2 -20 -10 -8 -8 13 -10 12 -10 -4 0 -12 5 -16 16 -12 9 3 19 6
24 6 4 0 10 11 13 25 3 21 1 25 -13 23 -10 -2 -28 6 -41 17 l-24 20 19 -22z"/>
<path d="M3450 6525 c-10 -12 -9 -16 4 -21 9 -4 20 -4 23 0 4 3 -2 6 -12 6
-14 0 -15 3 -5 15 7 8 10 15 7 15 -2 0 -10 -7 -17 -15z"/>
<path d="M3264 6511 c0 -10 6 -18 13 -18 7 0 13 6 13 13 0 6 -6 14 -13 17 -7
3 -13 -3 -13 -12z"/>
<path d="M3315 6512 c-5 -4 -12 -16 -13 -27 -4 -23 0 -20 17 13 12 24 12 26
-4 14z"/>
<path d="M3268 6473 c7 -3 16 -2 19 1 4 3 -2 6 -13 5 -11 0 -14 -3 -6 -6z"/>
<path d="M5420 6419 c0 -5 5 -9 10 -9 6 0 10 -4 10 -9 0 -5 -25 -13 -55 -16
-45 -6 -62 -14 -87 -41 -17 -18 -35 -31 -39 -28 -4 2 -11 -1 -15 -7 -4 -7 -3
-9 3 -6 6 4 17 -1 24 -10 12 -14 11 -15 -7 -9 -14 4 -26 1 -34 -9 -8 -10 -9
-15 -1 -15 6 0 11 -7 11 -15 0 -8 14 -41 31 -72 17 -32 32 -60 33 -63 0 -3 4
-4 8 -3 4 2 0 -9 -7 -24 -13 -24 -12 -29 8 -49 15 -15 25 -19 33 -13 16 13 26
-15 15 -45 -14 -35 20 -59 87 -62 54 -2 84 -20 59 -36 -9 -6 -8 -8 2 -8 9 0
11 -7 8 -23 -11 -42 -6 -44 153 -70 67 -12 168 -10 115 1 -10 2 -29 11 -42 19
-13 8 -30 13 -38 9 -10 -3 -17 3 -21 20 -5 19 -9 22 -15 12 -8 -11 -10 -11
-18 0 -4 8 -20 15 -35 15 -32 2 -32 5 -3 17 17 7 18 9 5 9 -10 1 -18 9 -19 19
0 14 -2 14 -9 -3 -5 -11 -9 -15 -9 -9 -1 7 -13 15 -27 18 -19 5 -24 11 -20 23
8 21 -10 33 -52 33 -20 0 -32 5 -30 11 2 6 7 10 12 9 5 -1 15 13 23 31 11 28
15 30 30 18 9 -8 22 -28 29 -46 l14 -32 86 -3 c119 -4 182 14 200 58 8 18 14
43 14 54 0 12 7 20 18 20 22 0 82 -37 82 -51 0 -6 8 -8 19 -4 10 3 30 1 45 -4
18 -7 26 -7 26 0 0 6 5 7 10 4 6 -4 8 -10 5 -15 -3 -5 4 -8 16 -7 18 1 17 4
-13 28 -39 32 -225 129 -245 129 -14 0 -43 23 -43 33 0 20 84 12 145 -13 11
-4 34 -13 51 -20 17 -6 57 -38 88 -69 52 -54 109 -91 122 -78 3 3 -7 19 -23
35 -15 17 -42 45 -59 64 -51 54 -123 93 -189 102 -95 13 -115 18 -115 33 0 10
7 14 20 10 11 -3 18 -1 15 3 -6 10 280 4 295 -5 6 -4 10 -1 10 4 0 6 9 11 20
11 37 0 18 35 -20 37 -60 4 -108 11 -119 17 -15 9 -3 28 12 20 7 -3 1 4 -13
15 -14 11 -32 21 -41 21 -8 0 -24 7 -35 15 -25 19 -71 19 -90 0 -17 -17 -44
-20 -44 -5 0 18 -43 32 -106 35 -35 2 -67 -1 -69 -6 -5 -7 -62 -6 -182 5 -18
2 -33 -1 -33 -5z m318 -227 c2 -7 -6 -12 -17 -12 -21 0 -27 11 -14 24 9 9 26
2 31 -12z m71 -86 c9 -10 8 -15 -2 -19 -19 -7 -41 8 -33 22 10 15 21 14 35 -3z
m-99 -11 c0 -8 -6 -15 -14 -15 -17 0 -28 14 -19 24 12 12 33 6 33 -9z m-320
-59 c0 -3 -4 -8 -10 -11 -5 -3 -10 -1 -10 4 0 6 5 11 10 11 6 0 10 -2 10 -4z
m18 -104 c6 -18 -15 -14 -22 4 -4 10 -1 14 6 12 6 -2 14 -10 16 -16z m142 -53
c0 -5 -4 -9 -10 -9 -5 0 -10 7 -10 16 0 8 5 12 10 9 6 -3 10 -10 10 -16z"/>
<path d="M4540 6349 c0 -5 5 -7 10 -4 6 3 10 8 10 11 0 2 -4 4 -10 4 -5 0 -10
-5 -10 -11z"/>
<path d="M6863 6274 c-37 -18 -50 -44 -29 -56 35 -20 54 -73 64 -179 9 -97 22
-143 46 -161 5 -3 9 -54 8 -113 -1 -59 2 -104 6 -100 4 3 7 10 8 13 0 4 8 24
17 44 10 21 17 44 17 52 0 9 9 39 21 68 23 59 22 97 -5 238 -19 102 -52 187
-77 200 -24 13 -39 12 -76 -6z"/>
<path d="M5640 5888 c0 -4 7 -8 15 -8 8 0 15 4 15 8 0 5 -7 9 -15 9 -8 0 -15
-4 -15 -9z"/>
<path d="M6681 5834 c0 -11 3 -14 6 -6 3 7 2 16 -1 19 -3 4 -6 -2 -5 -13z"/>
<path d="M6660 5717 c0 -19 16 -31 24 -18 3 5 -1 14 -9 21 -12 10 -15 10 -15
-3z"/>
<path d="M5450 5266 c0 -7 7 -19 15 -26 8 -7 15 -18 15 -26 0 -7 6 -19 13 -26
7 -7 16 -21 20 -31 4 -9 14 -20 23 -24 21 -8 72 -62 79 -85 3 -9 14 -20 24
-23 11 -3 24 -18 30 -33 18 -42 133 -160 163 -167 16 -4 26 -11 23 -15 -9 -15
6 -38 29 -44 26 -6 110 -93 120 -123 4 -12 16 -25 27 -28 10 -4 19 -12 19 -18
1 -16 31 -52 51 -59 25 -10 51 -100 46 -157 -7 -72 7 -83 28 -22 21 64 11 213
-17 248 -5 7 -7 17 -3 23 3 5 0 10 -7 10 -10 0 -9 3 2 10 10 6 26 -1 56 -26
52 -41 57 -42 38 -5 -18 37 -72 95 -102 110 -12 7 -20 16 -17 22 4 5 -1 9 -10
9 -8 0 -18 7 -21 15 -3 8 -16 17 -27 21 -12 3 -39 19 -59 35 -20 16 -42 29
-47 29 -6 0 -10 3 -10 8 3 18 -2 24 -14 14 -10 -8 -16 -6 -26 10 -7 11 -8 17
-2 13 6 -3 11 -2 11 2 0 16 -66 74 -74 66 -5 -5 -5 3 -1 17 7 23 7 24 -10 10
-11 -8 -16 -10 -12 -3 4 7 0 16 -10 22 -10 6 -12 11 -5 11 21 0 13 17 -10 24
-13 3 -32 19 -43 36 -11 16 -25 30 -32 30 -7 0 -19 12 -27 28 -8 15 -15 23
-16 19 0 -5 -14 1 -30 13 -33 23 -180 100 -192 100 -5 0 -8 -6 -8 -14z"/>
<path d="M5360 4955 c-14 -16 -3 -20 19 -6 8 5 9 11 3 15 -5 3 -15 -1 -22 -9z"/>
<path d="M5367 4103 c-11 -12 -36 -18 -74 -19 -62 -2 -103 -11 -103 -25 0 -4
12 -9 28 -11 16 -2 27 -9 27 -18 0 -12 -13 -15 -61 -15 -52 0 -63 -3 -78 -23
-10 -13 -15 -26 -11 -30 3 -3 9 -2 13 4 7 10 19 10 84 0 25 -3 48 1 74 15 21
10 44 19 51 19 7 0 13 7 13 16 0 9 -5 12 -12 8 -7 -5 -8 -3 -4 5 5 7 15 10 23
7 25 -10 57 4 69 29 10 20 9 27 -5 39 -15 14 -19 14 -34 -1z"/>
<path d="M4510 3340 c0 -6 -5 -8 -12 -4 -9 5 -9 2 1 -9 7 -9 10 -17 5 -17 -14
-1 28 -30 43 -30 20 0 16 14 -12 44 -14 15 -25 22 -25 16z"/>
<path d="M6016 3109 c-8 -30 -31 -119 -51 -199 -47 -188 -170 -603 -238 -800
-129 -373 -148 -433 -177 -570 -17 -80 -35 -174 -40 -210 -5 -36 -11 -78 -14
-95 -8 -47 -9 -162 -1 -255 3 -47 8 -125 11 -174 2 -48 8 -105 13 -125 5 -20
13 -62 17 -95 4 -36 10 -53 14 -45 13 23 40 196 40 257 0 31 7 89 15 127 9 39
20 90 25 116 5 25 16 65 25 90 8 24 22 80 30 124 8 44 23 107 35 139 11 33 20
69 20 80 0 28 112 248 151 297 30 38 49 49 49 30 0 -18 20 -64 26 -59 3 3 7
37 10 74 3 38 9 85 14 104 5 19 11 100 14 180 3 91 13 180 26 240 11 52 27
172 35 265 8 94 14 171 15 172 0 1 7 0 15 -3 10 -4 15 0 15 13 0 11 -3 23 -6
26 -4 4 -8 35 -9 69 -1 35 -11 94 -23 132 -12 37 -22 80 -22 95 0 56 -18 56
-34 0z"/>
<path d="M6346 1842 c-8 -13 10 -52 24 -52 14 0 12 23 -3 45 -10 12 -16 14
-21 7z"/>
<path d="M5280 1581 c0 -7 -4 -9 -10 -6 -5 3 -10 0 -10 -9 0 -8 6 -17 13 -19
9 -4 8 -6 -2 -6 -8 -1 -20 -9 -27 -18 -13 -16 -13 -14 -9 14 4 26 2 31 -10 27
-8 -4 -15 -11 -15 -18 0 -6 -5 -4 -10 4 -8 11 -9 8 -6 -13 3 -16 10 -35 17
-43 11 -14 2 -19 -24 -15 -5 1 -5 -4 -1 -11 13 -20 13 -38 1 -35 -7 1 -11 -7
-10 -18 1 -10 -3 -28 -9 -38 -5 -11 -6 -17 -1 -14 10 6 10 -33 0 -50 -3 -5 0
-19 9 -29 14 -18 15 -18 5 3 -15 29 5 42 27 17 16 -17 16 -17 -3 -4 -12 8 -10
4 5 -12 14 -14 32 -28 40 -32 9 -3 6 -5 -6 -2 -17 3 -21 -1 -20 -18 1 -16 7
-22 25 -21 13 0 26 -5 28 -12 3 -7 -4 -9 -19 -6 -29 8 -23 1 25 -26 28 -16 43
-19 55 -11 15 8 15 10 -3 10 -11 1 -14 4 -7 7 6 2 9 10 5 16 -4 7 1 6 10 -2
16 -13 17 -12 7 14 -6 16 -9 34 -6 42 3 7 0 13 -7 13 -8 0 -8 3 2 9 11 7 11
15 3 40 -6 17 -8 31 -4 31 4 0 9 11 10 26 1 15 -2 23 -8 19 -6 -4 -8 -11 -5
-16 4 -5 1 -9 -5 -9 -8 0 -10 9 -6 24 4 15 1 26 -6 28 -15 5 -19 90 -5 99 5 4
2 17 -6 30 -9 13 -16 28 -16 32 1 5 -2 11 -5 15 -3 3 -6 0 -6 -7z m-60 -61 c0
-5 -2 -10 -4 -10 -3 0 -8 5 -11 10 -3 6 -1 10 4 10 6 0 11 -4 11 -10z m-5
-109 c3 -5 2 -12 -3 -15 -5 -3 -9 1 -9 9 0 17 3 19 12 6z m105 -181 c0 -5 -2
-10 -4 -10 -3 0 -8 5 -11 10 -3 6 -1 10 4 10 6 0 11 -4 11 -10z"/>
<path d="M5121 1326 c-10 -12 -8 -17 11 -27 13 -6 20 -8 16 -4 -4 4 -3 16 3
26 12 23 -12 27 -30 5z"/>
<path d="M5280 1151 c0 -6 4 -13 10 -16 6 -3 7 1 4 9 -7 18 -14 21 -14 7z"/>
<path d="M5310 1080 c0 -5 5 -10 10 -10 6 0 10 5 10 10 0 6 -4 10 -10 10 -5 0
-10 -4 -10 -10z"/>
<path d="M5100 996 c0 -28 19 -76 30 -76 4 0 7 21 6 47 -1 37 -5 48 -18 51
-13 3 -18 -3 -18 -22z"/>
</g>
</svg>
