<?xml version="1.0" standalone="no"?>
<!DOCTYPE svg PUBLIC "-//W3C//DTD SVG 20010904//EN"
 "http://www.w3.org/TR/2001/REC-SVG-20010904/DTD/svg10.dtd">
<svg version="1.0" xmlns="http://www.w3.org/2000/svg"
 width="960.000000pt" height="960.000000pt" viewBox="0 0 960.000000 960.000000"
 preserveAspectRatio="xMidYMid meet">
<g transform="translate(0.000000,960.000000) scale(0.100000,-0.100000)"
fill="#000000" stroke="none">
<path d="M4985 9193 c-33 -7 -161 -15 -285 -17 -263 -6 -317 -17 -458 -95 -85
-47 -223 -101 -259 -101 -18 0 -83 -35 -93 -51 -8 -12 -99 -49 -123 -49 -12 0
-51 -11 -87 -24 -125 -45 -151 -58 -146 -73 4 -10 1 -11 -12 -5 -9 4 -35 5
-57 2 -32 -4 -41 -10 -43 -27 -3 -23 -22 -33 -22 -12 0 20 -59 1 -98 -31 -20
-16 -42 -30 -48 -30 -23 0 -74 -106 -74 -156 0 -26 -17 -40 -49 -42 -13 0 -34
-11 -47 -23 -26 -25 -33 -49 -9 -29 9 7 18 10 21 7 10 -10 -6 -27 -27 -27 -10
0 -19 -4 -19 -9 0 -6 -12 -23 -26 -38 -15 -15 -39 -54 -54 -85 -15 -31 -37
-69 -49 -84 -12 -15 -21 -36 -21 -48 0 -11 -19 -68 -41 -126 -23 -58 -44 -123
-48 -145 -4 -22 -15 -56 -25 -76 -13 -29 -15 -44 -7 -79 10 -46 10 -47 -43
-88 -16 -12 -26 -22 -22 -22 4 0 2 -8 -3 -18 -7 -13 -6 -27 4 -45 9 -18 10
-29 3 -33 -6 -4 -8 -25 -5 -50 3 -27 0 -50 -8 -61 -7 -9 -11 -23 -8 -29 2 -7
0 -15 -6 -19 -17 -10 -13 -96 9 -203 19 -94 20 -134 6 -252 l-7 -55 16 34 c20
43 31 34 15 -13 -6 -20 -9 -48 -6 -64 4 -15 2 -49 -4 -77 -22 -107 -24 -129
-9 -123 11 4 14 -5 12 -43 -1 -36 3 -51 15 -58 14 -8 18 -29 20 -108 4 -142 5
-151 25 -165 28 -20 12 -48 -27 -48 -43 0 -85 -42 -66 -65 8 -10 9 -15 1 -15
-6 0 -11 -4 -11 -10 0 -10 42 -7 73 5 12 5 26 1 40 -13 20 -18 46 -30 72 -33
23 -2 45 -21 45 -39 0 -10 7 -26 16 -34 8 -9 13 -20 9 -25 -3 -5 -1 -12 5 -16
5 -3 10 -21 10 -40 0 -19 4 -36 9 -39 5 -3 12 -33 16 -66 4 -33 11 -62 15 -65
13 -8 33 53 26 80 -4 17 -2 25 6 25 9 0 9 3 2 8 -12 8 -13 131 -1 150 5 6 5
17 1 23 -4 7 -8 42 -10 78 -6 132 -13 164 -35 167 -5 1 -11 2 -14 3 -3 0 4 10
16 22 15 15 19 28 14 46 -4 19 -3 23 7 17 7 -5 5 4 -5 19 -10 15 -13 27 -7 27
7 0 9 8 5 20 -5 14 -2 20 9 20 14 0 21 12 17 33 -1 4 6 24 14 44 8 20 13 44
10 54 -3 9 -1 20 5 24 6 3 8 11 4 16 -3 6 3 20 14 32 11 12 23 33 27 46 7 22
3 20 -30 -12 -29 -28 -36 -42 -32 -59 6 -23 -16 -58 -37 -58 -6 0 -5 5 2 12
20 20 13 32 -7 14 -11 -10 -17 -24 -14 -32 7 -20 -20 -14 -28 6 -4 10 1 17 15
21 11 3 20 11 19 17 -2 7 2 11 8 9 14 -3 26 18 39 70 7 27 19 47 33 54 20 11
21 11 8 -5 -8 -9 -11 -19 -8 -22 8 -9 49 35 42 46 -3 6 7 29 23 52 39 57 48
86 28 94 -12 5 -13 10 -5 25 10 20 -4 28 -16 9 -3 -5 -12 -10 -18 -10 -9 0 -9
2 0 8 6 4 12 27 11 50 0 31 5 47 18 57 12 9 14 14 6 15 -9 0 -12 12 -8 45 3
26 2 45 -4 45 -18 0 -11 29 12 50 20 19 20 20 3 20 -14 0 -16 3 -8 11 8 8 9
20 2 36 -8 21 -6 26 11 30 11 3 20 12 20 20 0 8 -5 11 -12 8 -7 -4 -5 0 6 9
13 11 19 28 19 58 0 24 5 46 11 50 7 5 8 8 0 8 -17 0 -9 42 12 59 25 21 119
177 119 199 0 9 11 22 24 28 13 7 39 26 57 43 19 18 35 27 39 21 9 -14 51 -12
67 3 17 18 80 31 145 31 29 -1 50 3 47 8 -7 11 3 10 28 -3 17 -9 23 -8 30 4 4
9 23 19 41 22 17 4 37 11 42 15 10 8 190 22 235 19 70 -5 130 -1 144 10 13 11
20 9 42 -8 28 -22 50 -28 39 -11 -10 16 11 12 25 -5 7 -8 30 -20 51 -27 34
-10 42 -9 59 7 18 17 19 16 26 -11 9 -38 19 -43 60 -34 26 6 34 5 34 -6 0 -10
12 -12 45 -9 24 2 49 6 55 10 5 3 18 2 27 -3 10 -6 26 -6 39 -2 15 6 24 5 27
-3 3 -7 14 -1 29 17 14 16 29 26 35 23 12 -7 94 32 124 59 13 11 33 17 54 16
22 -2 46 6 71 23 23 16 40 22 42 15 3 -8 8 -7 19 1 10 9 17 9 21 2 18 -28 121
-5 151 33 11 14 22 20 26 15 3 -6 -3 -18 -15 -28 -27 -23 -25 -31 5 -25 14 2
25 9 25 14 0 5 20 7 45 5 25 -3 45 -1 45 3 0 11 35 22 79 26 19 1 56 6 83 9
32 5 48 3 48 -4 0 -6 9 -11 20 -11 11 0 20 5 20 11 0 6 5 7 13 2 6 -4 21 -6
32 -5 18 2 19 2 3 -8 -31 -19 -20 -29 42 -36 33 -4 60 -11 60 -15 0 -5 11 -9
24 -9 14 0 27 -4 30 -9 3 -5 17 -12 30 -15 33 -8 146 -76 146 -87 0 -5 7 -9
15 -9 8 0 15 -6 15 -13 0 -8 9 -22 20 -32 11 -10 20 -24 20 -31 0 -7 6 -19 13
-26 25 -27 47 -68 36 -68 -7 0 -5 -9 5 -25 9 -14 14 -30 11 -35 -3 -5 2 -13
12 -18 14 -8 15 -13 4 -25 -9 -12 -10 -21 -1 -37 6 -12 10 -29 8 -38 -2 -9 5
-22 17 -29 11 -7 15 -12 8 -13 -16 0 -5 -35 18 -56 23 -21 24 -34 2 -34 -15 0
-15 -2 0 -17 13 -15 13 -21 2 -36 -16 -22 -11 -38 28 -94 16 -23 26 -46 23
-52 -6 -8 -1 -21 21 -60 2 -2 9 2 17 8 12 10 17 8 26 -8 6 -12 19 -21 30 -21
10 0 22 -5 26 -11 4 -8 0 -9 -15 -4 -17 5 -20 3 -14 -12 4 -10 11 -21 17 -25
7 -5 3 -8 -9 -8 -14 0 -16 -3 -8 -11 7 -7 17 -8 25 -3 19 12 39 14 32 3 -3 -5
-1 -9 4 -9 5 0 9 -7 9 -15 0 -11 -4 -12 -14 -3 -20 16 -25 5 -13 -26 5 -15 7
-32 4 -38 -3 -5 2 -8 12 -6 12 2 18 -2 16 -11 -4 -17 24 -75 56 -114 21 -28
22 -28 22 -6 0 22 0 22 15 3 19 -25 19 -48 0 -40 -21 8 -13 -53 8 -66 9 -4 21
-25 26 -45 9 -33 8 -39 -19 -70 -35 -40 -34 -34 -14 -81 27 -64 38 -156 22
-186 -10 -18 -12 -17 -29 15 -15 29 -18 31 -25 16 -3 -10 -1 -30 6 -45 7 -15
14 -49 15 -77 2 -27 8 -79 14 -115 6 -36 13 -81 15 -100 6 -47 17 -72 35 -87
20 -16 39 -17 24 -2 -13 13 -6 42 8 33 6 -3 7 5 3 20 -4 17 -2 26 6 26 8 0 10
12 5 40 -5 28 -3 40 5 40 8 0 10 12 5 39 -5 28 -2 42 9 53 8 9 12 18 9 22 -3
3 0 24 7 46 11 34 16 39 37 34 18 -5 22 -3 17 10 -3 9 -12 16 -20 16 -7 0 -18
9 -24 19 -15 28 -12 35 7 20 15 -12 16 -12 10 6 -5 14 1 11 18 -10 14 -16 29
-43 33 -60 10 -39 56 -48 79 -16 8 12 19 19 24 16 5 -4 9 -2 9 2 0 8 20 19 90
52 14 6 44 10 68 8 27 -2 42 1 42 8 0 34 -154 50 -184 19 -9 -8 -16 -12 -16
-7 0 5 4 13 9 19 16 15 39 186 30 218 -5 16 -6 32 -4 37 3 4 -2 35 -11 69 -12
47 -13 64 -4 75 7 8 9 19 5 25 -3 5 1 10 9 10 14 0 16 16 16 103 0 56 -6 128
-14 159 -8 33 -9 59 -4 60 19 7 20 87 2 154 -13 51 -15 69 -6 72 16 5 15 42 0
42 -10 0 -10 2 0 8 9 6 11 23 7 58 -9 67 -42 186 -56 194 -17 11 -51 138 -54
200 -3 65 -9 83 -44 130 -26 35 -28 38 -30 65 0 8 -6 15 -11 15 -6 0 -20 9
-32 20 -14 13 -17 20 -8 20 7 0 22 -7 32 -17 10 -9 18 -11 18 -5 0 6 -5 14
-10 17 -13 8 -42 76 -35 83 3 3 0 11 -6 19 -9 10 -8 17 2 29 11 14 6 23 -44
68 -33 30 -59 63 -63 80 -4 16 -15 31 -26 34 -15 4 -19 11 -15 30 4 18 -5 42
-28 78 -37 57 -59 74 -99 74 -14 0 -28 5 -32 12 -5 7 -10 4 -16 -11 -4 -12
-12 -20 -18 -16 -6 4 -6 15 1 32 9 23 5 30 -31 64 -30 28 -40 45 -40 68 0 55
-20 82 -85 112 -33 15 -75 44 -93 63 -23 26 -41 36 -61 36 -16 0 -42 7 -58 15
-15 8 -57 27 -93 42 -36 15 -76 34 -90 44 -14 9 -45 20 -70 24 -25 4 -57 13
-71 21 -15 7 -62 15 -105 18 -44 2 -92 11 -109 19 -16 9 -48 18 -70 20 -59 7
-117 24 -190 57 -89 40 -146 48 -220 33z m822 -255 c-3 -8 -6 -5 -6 6 -1 11 2
17 5 13 3 -3 4 -12 1 -19z m698 -468 c3 -5 2 -10 -4 -10 -5 0 -13 5 -16 10 -3
6 -2 10 4 10 5 0 13 -4 16 -10z m-3415 -100 c0 -5 -4 -10 -10 -10 -5 0 -10 5
-10 10 0 6 5 10 10 10 6 0 10 -4 10 -10z m-25 -20 c3 -5 1 -10 -4 -10 -6 0
-11 5 -11 10 0 6 2 10 4 10 3 0 8 -4 11 -10z m35 -30 c0 -5 -4 -10 -10 -10 -5
0 -10 5 -10 10 0 6 5 10 10 10 6 0 10 -4 10 -10z m580 -181 c0 -6 -4 -7 -10
-4 -5 3 -10 11 -10 16 0 6 5 7 10 4 6 -3 10 -11 10 -16z m2060 -53 c0 -2 -7
-9 -15 -16 -13 -11 -14 -10 -9 4 5 14 24 23 24 12z m-50 -51 c-7 -9 -15 -13
-19 -10 -3 3 1 10 9 15 21 14 24 12 10 -5z m-467 -80 c-3 -9 -8 -14 -10 -11
-3 3 -2 9 2 15 9 16 15 13 8 -4z m-2373 -49 c0 -15 -14 -35 -21 -30 -15 9 -10
34 6 34 8 0 15 -2 15 -4z m-80 -406 c0 -5 -4 -10 -10 -10 -5 0 -10 5 -10 10 0
6 5 10 10 10 6 0 10 -4 10 -10z m3594 -396 c5 -14 4 -15 -9 -4 -17 14 -19 20
-6 20 5 0 12 -7 15 -16z m155 -198 c8 -9 8 -16 2 -20 -6 -4 -15 3 -21 14 -12
23 2 27 19 6z m21 -52 c0 -8 -4 -12 -10 -9 -5 3 -10 1 -10 -6 0 -7 -2 -10 -5
-7 -8 7 5 38 16 38 5 0 9 -7 9 -16z m16 -63 c0 -16 -3 -17 -14 -9 -12 10 -7
19 13 28 1 0 1 -9 1 -19z m-3806 -82 c-7 -11 -14 -19 -16 -16 -7 7 7 37 17 37
6 0 5 -9 -1 -21z m3866 -46 c-7 -7 -26 7 -26 19 0 6 6 6 15 -2 9 -7 13 -15 11
-17z m-3895 -6 c-10 -9 -11 -8 -5 6 3 10 9 15 12 12 3 -3 0 -11 -7 -18z m239
-145 c0 -13 -12 -22 -22 -16 -10 6 -1 24 13 24 5 0 9 -4 9 -8z m-10 -82 c0 -5
-5 -10 -11 -10 -5 0 -7 5 -4 10 3 6 8 10 11 10 2 0 4 -4 4 -10z m-150 -144 c0
-3 -4 -8 -10 -11 -5 -3 -10 -1 -10 4 0 6 5 11 10 11 6 0 10 -2 10 -4z"/>
<path d="M3430 7740 c0 -5 7 -10 15 -10 8 0 15 5 15 10 0 6 -7 10 -15 10 -8 0
-15 -4 -15 -10z"/>
<path d="M6285 7130 c3 -5 11 -10 16 -10 6 0 7 5 4 10 -3 6 -11 10 -16 10 -6
0 -7 -4 -4 -10z"/>
<path d="M3135 6970 c3 -5 10 -10 16 -10 5 0 9 5 9 10 0 6 -7 10 -16 10 -8 0
-12 -4 -9 -10z"/>
<path d="M3088 6586 c-18 -13 -18 -39 2 -75 17 -33 30 -24 30 22 0 55 -9 69
-32 53z"/>
<path d="M6480 6581 c0 -6 4 -13 10 -16 6 -3 7 1 4 9 -7 18 -14 21 -14 7z"/>
<path d="M5558 6514 c-2 -2 -46 -6 -98 -9 -52 -4 -120 -11 -150 -17 -30 -6
-65 -12 -78 -14 -105 -12 -201 -67 -221 -126 -9 -24 -7 -32 9 -46 11 -9 20
-22 20 -29 0 -6 10 -13 23 -15 12 -2 22 -7 21 -13 0 -15 20 -34 30 -27 18 10
-8 -23 -36 -46 -15 -13 -28 -34 -28 -45 0 -12 -9 -37 -20 -55 -28 -45 -26 -74
7 -89 41 -19 48 -17 79 32 44 70 63 51 24 -25 -19 -38 -21 -87 -4 -84 95 16
113 15 124 -5 8 -17 8 -21 -4 -21 -8 0 -16 -10 -18 -22 -3 -19 -10 -22 -56
-23 -31 -1 -58 -7 -67 -16 -13 -13 -9 -21 34 -67 28 -29 58 -52 69 -52 33 0
51 11 45 26 -3 9 1 14 12 14 9 0 19 -9 22 -20 4 -16 14 -20 46 -20 30 0 38 3
30 11 -14 14 -5 42 9 32 7 -4 9 3 6 18 -3 20 0 24 20 25 13 1 25 4 28 7 8 8
-8 37 -17 31 -5 -3 -9 -1 -9 4 0 15 28 34 39 28 5 -4 12 -2 15 3 9 15 -27 36
-61 36 -32 -1 -46 12 -20 19 6 2 26 7 43 13 25 8 35 7 53 -9 15 -12 22 -25 18
-38 -6 -23 3 -26 21 -8 16 16 15 45 0 52 -7 3 -1 3 14 0 15 -3 58 4 98 16 53
16 70 26 70 40 0 28 103 48 163 32 25 -6 36 -5 48 8 15 16 13 19 -30 38 -25
12 -77 40 -116 62 -38 22 -82 45 -97 51 -35 14 -39 45 -5 35 12 -4 49 -14 82
-22 44 -12 75 -30 123 -70 35 -30 67 -54 72 -54 4 0 16 -3 26 -7 36 -14 -41
71 -99 108 -66 43 -192 76 -322 84 -88 6 -189 15 -192 19 -8 8 20 29 48 36 19
4 61 15 94 24 73 20 355 23 355 5 0 -8 25 -10 84 -6 79 5 133 -1 181 -23 11
-5 41 -11 67 -13 l47 -4 -42 33 c-23 18 -51 41 -62 52 -21 20 -166 92 -185 92
-6 0 -38 14 -72 31 -49 24 -68 30 -97 24 -79 -14 -128 -16 -168 -7 -23 5 -44
8 -45 6z m62 -308 c0 -3 -4 -8 -10 -11 -5 -3 -10 -1 -10 4 0 6 5 11 10 11 6 0
10 -2 10 -4z m-100 -106 c0 -5 -2 -10 -4 -10 -3 0 -8 5 -11 10 -3 6 -1 10 4
10 6 0 11 -4 11 -10z m-166 -31 c3 -17 15 -43 26 -59 11 -16 16 -31 11 -34 -5
-3 -37 -3 -70 1 l-62 6 3 36 c2 27 11 40 37 58 44 30 47 29 55 -8z m376 6 c10
-12 7 -20 -18 -45 -36 -36 -48 -38 -47 -7 2 60 36 87 65 52z m-290 -5 c0 -5
-4 -10 -9 -10 -6 0 -13 5 -16 10 -3 6 1 10 9 10 9 0 16 -4 16 -10z m-324 -16
c-3 -9 -6 -18 -6 -20 0 -2 -7 -4 -15 -4 -18 0 -19 12 -3 28 17 17 31 15 24 -4z
m114 -55 c11 -19 10 -20 -9 -9 -12 6 -21 15 -21 20 0 18 19 11 30 -11z"/>
<path d="M3749 6426 c-7 -7 -100 -17 -158 -17 -36 0 -70 -8 -100 -23 -25 -13
-59 -26 -74 -30 -16 -4 -31 -16 -36 -29 -6 -15 -17 -22 -40 -23 -39 -2 -68
-24 -32 -24 12 0 19 -4 16 -10 -3 -5 -14 -10 -24 -10 -9 0 -28 -10 -41 -22
-21 -20 -22 -22 -5 -28 16 -6 15 -8 -9 -27 -31 -25 -32 -29 -8 -42 19 -10 150
11 161 26 18 24 46 35 103 39 35 3 87 12 116 21 77 22 384 16 409 -10 9 -9 15
-19 12 -22 -3 -2 -66 -16 -140 -30 -160 -29 -242 -53 -302 -88 -44 -26 -106
-88 -127 -126 -17 -33 11 -27 45 9 35 36 50 38 51 6 1 -18 -8 -32 -32 -48 -38
-26 -48 -64 -14 -55 11 3 20 1 20 -4 0 -5 16 -9 35 -9 19 0 35 -4 35 -10 0 -6
9 -6 25 0 14 5 32 7 40 4 8 -4 22 -3 32 0 14 6 14 8 -3 21 -18 14 -17 14 9 15
l29 0 -31 25 c-34 29 -32 44 8 68 l28 16 31 -59 31 -60 -35 0 c-39 0 -48 -26
-11 -35 33 -8 247 -1 247 8 0 6 25 6 125 -3 18 -1 17 -3 -5 -12 -14 -5 -36
-11 -50 -12 -14 0 -24 -6 -22 -13 1 -7 -5 -13 -13 -13 -8 0 -15 -5 -15 -11 0
-7 11 -8 29 -4 18 4 32 2 37 -6 5 -9 2 -10 -9 -6 -21 8 -35 -32 -16 -44 8 -5
10 -9 4 -9 -5 0 -4 -4 3 -9 7 -4 14 -18 15 -29 1 -23 21 -30 32 -12 3 6 14 10
23 10 16 -1 16 -2 0 -14 -24 -18 -23 -26 3 -26 19 0 20 -2 8 -17 -13 -15 -12
-15 11 -3 14 7 41 26 61 41 36 29 59 37 59 21 0 -4 -6 -14 -12 -21 -10 -11
-10 -13 0 -7 8 5 12 -2 13 -21 1 -15 1 -31 0 -35 0 -5 6 -8 16 -8 17 0 93 76
85 85 -9 9 21 55 35 55 8 0 12 4 8 10 -3 5 4 19 16 31 12 12 22 35 23 53 1 28
-1 31 -27 28 -22 -2 -28 1 -27 15 1 10 2 29 1 43 -1 18 -4 21 -13 12 -8 -8 -8
-15 2 -27 11 -14 7 -19 -13 -16 -4 1 -17 -15 -28 -34 -13 -21 -29 -35 -41 -35
-11 0 -35 -7 -53 -16 -30 -14 -36 -14 -64 0 -16 9 -37 16 -46 16 -18 0 -19 11
-2 33 8 11 30 17 72 19 54 3 60 5 63 26 2 14 -10 41 -32 71 -20 27 -36 51 -36
55 0 16 23 2 67 -39 26 -25 53 -45 60 -45 17 0 46 57 33 65 -6 3 -10 15 -10
26 0 11 -25 46 -55 78 -33 35 -55 67 -55 80 0 24 -21 51 -39 51 -24 0 -9 21
19 27 30 5 42 34 20 48 -5 3 -10 18 -10 31 0 37 -51 78 -103 83 -23 2 -121 4
-217 5 -96 1 -178 4 -181 9 -3 4 -7 5 -10 3z m171 -310 c0 -3 -4 -8 -10 -11
-5 -3 -10 -1 -10 4 0 6 5 11 10 11 6 0 10 -2 10 -4z m40 -6 c0 -5 -7 -10 -16
-10 -8 0 -12 5 -9 10 3 6 10 10 16 10 5 0 9 -4 9 -10z m45 0 c3 -5 -1 -10 -10
-10 -9 0 -13 5 -10 10 3 6 8 10 10 10 2 0 7 -4 10 -10z m-175 -4 c0 -3 -4 -8
-10 -11 -5 -3 -10 -1 -10 4 0 6 5 11 10 11 6 0 10 -2 10 -4z m-117 -30 c9 -7
17 -18 17 -24 0 -12 -68 -37 -77 -28 -4 3 -1 6 5 6 7 0 12 11 12 23 0 38 13
45 43 23z m62 4 c3 -5 1 -10 -4 -10 -6 0 -11 5 -11 10 0 6 2 10 4 10 3 0 8 -4
11 -10z m564 -69 c10 -10 25 -21 32 -23 10 -3 7 -8 -8 -17 -29 -15 -63 4 -63
36 0 28 14 29 39 4z m-704 0 c3 -5 1 -12 -5 -16 -5 -3 -10 1 -10 9 0 18 6 21
15 7z m315 -11 c0 -5 -4 -10 -10 -10 -5 0 -10 5 -10 10 0 6 5 10 10 10 6 0 10
-4 10 -10z m56 -1 c10 -17 -13 -36 -27 -22 -12 12 -4 33 11 33 5 0 12 -5 16
-11z m168 -53 c6 -14 7 -29 3 -32 -7 -7 -109 -25 -114 -21 -1 2 6 21 17 42 11
22 20 48 20 58 0 18 1 18 33 -1 17 -12 36 -32 41 -46z m-314 4 c-21 -13 -44 8
-28 27 10 12 14 12 27 -2 14 -14 14 -17 1 -25z"/>
<path d="M7087 6192 c-31 -4 -45 -25 -29 -45 6 -7 13 -35 16 -62 6 -57 30
-203 51 -318 20 -104 18 -184 -5 -290 -32 -144 -60 -188 -164 -260 -29 -20
-33 -44 -12 -72 12 -16 18 -17 39 -8 13 6 31 25 38 42 8 17 17 31 21 31 10 0
135 278 144 320 5 26 17 69 24 85 5 11 21 56 36 100 23 71 25 90 20 171 -8
122 -46 252 -82 281 -30 23 -54 30 -97 25z m111 -393 c2 -31 -17 -38 -26 -9
-3 8 0 10 8 5 9 -5 10 -2 5 14 -3 11 -3 21 2 21 5 0 10 -14 11 -31z m-8 -59
c0 -5 -4 -10 -10 -10 -5 0 -10 5 -10 10 0 6 5 10 10 10 6 0 10 -4 10 -10z"/>
<path d="M3185 6110 c-4 -6 7 -10 24 -10 17 0 31 5 31 10 0 6 -11 10 -24 10
-14 0 -28 -4 -31 -10z"/>
<path d="M2639 6032 c-51 -4 -59 -29 -65 -206 -3 -83 -6 -156 -7 -162 -1 -14
36 -96 76 -166 6 -13 14 -25 17 -28 3 -3 5 -9 5 -15 2 -31 19 -111 25 -120 4
-5 10 -19 13 -30 2 -11 3 32 2 95 -2 93 -8 130 -29 193 -22 65 -24 84 -17 120
6 23 8 43 6 46 -3 2 0 10 6 17 5 7 12 36 14 65 5 56 24 92 26 49 1 -14 0 -29
-1 -35 -2 -12 -3 -82 -1 -112 2 -46 21 -21 22 30 0 54 17 116 18 70 1 -14 7
-23 17 -23 13 0 15 7 10 38 -3 20 -7 42 -8 47 0 6 2 20 6 32 5 16 -1 29 -27
56 -38 38 -54 43 -108 39z"/>
<path d="M6870 5934 c0 -8 5 -12 10 -9 6 4 8 11 5 16 -9 14 -15 11 -15 -7z"/>
<path d="M4470 5868 c0 -4 4 -8 9 -8 6 0 12 4 15 8 3 5 -1 9 -9 9 -8 0 -15 -4
-15 -9z"/>
<path d="M6815 5823 c-4 -10 -18 -49 -30 -87 l-23 -70 35 -33 c30 -27 34 -35
23 -48 -8 -10 -9 -15 -2 -15 6 0 9 -7 6 -15 -5 -12 -2 -14 12 -8 15 5 17 4 8
-8 -6 -8 -14 -27 -18 -44 -4 -16 -9 -38 -12 -47 -4 -12 0 -18 11 -18 22 0 16
-39 -8 -54 -13 -8 -20 -8 -26 3 -20 31 -122 -96 -107 -134 15 -39 156 17 156
62 0 13 8 15 44 10 97 -14 157 40 156 138 -1 78 -4 86 -38 101 -19 7 -36 23
-39 34 -3 11 -12 20 -21 20 -8 0 -12 3 -9 7 4 3 2 12 -4 19 -11 14 -13 50 -5
102 4 29 1 34 -22 43 -15 6 -39 22 -53 35 -24 23 -27 24 -34 7z m55 -364 c0
-4 -5 -11 -12 -15 -7 -4 -8 -3 -4 4 4 7 1 12 -8 12 -9 0 -16 4 -16 9 0 5 9 7
20 4 11 -3 20 -9 20 -14z"/>
<path d="M5050 5800 c0 -5 7 -7 15 -4 8 4 15 8 15 10 0 2 -7 4 -15 4 -8 0 -15
-4 -15 -10z"/>
<path d="M2541 5774 c0 -11 3 -14 6 -6 3 7 2 16 -1 19 -3 4 -6 -2 -5 -13z"/>
<path d="M5400 5726 c0 -7 9 -16 20 -19 23 -6 26 3 8 21 -16 16 -28 15 -28 -2z"/>
<path d="M2706 5695 c-3 -8 -1 -15 4 -15 6 0 10 7 10 15 0 8 -2 15 -4 15 -2 0
-6 -7 -10 -15z"/>
<path d="M2991 5673 c0 -31 2 -34 9 -18 12 28 12 55 0 55 -5 0 -10 -17 -9 -37z"/>
<path d="M5262 5703 c-17 -7 -5 -23 18 -23 13 0 17 5 14 15 -6 16 -11 17 -32
8z"/>
<path d="M2914 5638 c-4 -18 -8 -49 -10 -68 -13 -140 -22 -168 -54 -175 -36
-8 -45 -20 -55 -70 -19 -100 4 -138 80 -134 48 3 65 -5 65 -32 0 -22 32 -38
93 -46 31 -5 37 -3 37 13 0 11 -16 40 -35 67 -28 38 -41 47 -65 47 -24 0 -31
5 -36 28 -3 15 -10 37 -16 49 -6 12 -8 29 -5 37 4 9 7 18 7 21 3 21 33 91 48
113 36 50 37 71 6 129 -16 29 -34 53 -41 53 -6 0 -15 -15 -19 -32z"/>
<path d="M4324 5189 c-14 -28 -23 -54 -20 -57 7 -6 5 -9 44 47 30 41 33 61 12
61 -6 0 -21 -23 -36 -51z"/>
<path d="M2720 5230 c0 -14 43 -125 56 -145 8 -12 11 -30 8 -40 -5 -13 -3 -16
7 -13 7 2 21 -5 31 -16 14 -17 17 -18 18 -5 0 9 6 19 14 22 26 10 3 59 -43 92
-24 16 -54 48 -67 70 -13 22 -24 38 -24 35z"/>
<path d="M4336 4951 c-17 -18 -17 -25 -6 -65 7 -25 10 -52 7 -60 -12 -30 15
-28 43 3 16 17 31 31 34 31 3 0 24 -10 46 -21 23 -12 43 -19 47 -16 12 13 -10
61 -45 98 -46 50 -97 62 -126 30z"/>
<path d="M4897 4952 c-38 -23 -44 -54 -17 -92 26 -37 49 -38 88 -5 17 14 39
25 50 25 44 0 33 63 -14 80 -37 15 -75 12 -107 -8z"/>
<path d="M3190 4835 c0 -11 5 -27 10 -35 8 -12 10 -12 10 5 0 11 -5 27 -10 35
-8 12 -10 12 -10 -5z"/>
<path d="M6545 4820 c-18 -8 -17 -9 8 -9 16 -1 26 3 22 9 -3 6 -7 10 -8 9 -1
0 -11 -4 -22 -9z"/>
<path d="M4602 4768 c7 -19 38 -22 38 -4 0 10 -9 16 -21 16 -12 0 -19 -5 -17
-12z"/>
<path d="M3171 4719 c-18 -6 -31 -12 -28 -15 8 -8 77 7 77 17 0 11 -4 10 -49
-2z"/>
<path d="M4176 4475 c-11 -8 -16 -15 -10 -15 5 0 18 7 28 15 11 8 16 15 10 15
-5 0 -18 -7 -28 -15z"/>
<path d="M4130 4461 c0 -6 5 -13 10 -16 6 -3 10 1 10 9 0 9 -4 16 -10 16 -5 0
-10 -4 -10 -9z"/>
<path d="M4470 4241 c-14 -5 -37 -6 -52 -3 -15 2 -49 -3 -75 -11 -106 -35
-160 -47 -198 -46 -47 2 -113 -15 -140 -35 -19 -14 -19 -16 -3 -43 16 -26 21
-28 88 -30 39 -1 90 -9 113 -17 23 -9 60 -17 82 -18 39 -3 40 -2 37 28 -3 37
19 51 43 28 11 -11 19 -13 28 -6 18 15 68 12 74 -5 5 -13 33 -29 73 -41 8 -2
32 -3 52 -3 27 1 43 -5 55 -19 14 -16 30 -20 86 -20 59 0 71 3 92 25 14 13 25
20 25 15 0 -10 27 -2 45 12 6 4 24 19 41 33 18 14 39 25 48 25 9 0 16 5 16 10
0 17 50 33 109 35 45 2 58 -1 72 -18 13 -16 20 -19 30 -10 19 15 164 33 264
33 59 0 86 4 94 14 10 12 2 18 -46 36 -51 19 -63 20 -98 9 -49 -15 -158 -18
-256 -7 -118 13 -299 18 -299 8 0 -5 -7 -7 -15 -4 -8 3 -46 1 -84 -6 -63 -10
-76 -9 -143 10 -88 27 -125 31 -158 21z m555 -31 c3 -5 1 -10 -4 -10 -6 0 -11
5 -11 10 0 6 2 10 4 10 3 0 8 -4 11 -10z"/>
<path d="M4937 4057 c-3 -8 1 -14 9 -14 8 0 14 6 14 14 0 7 -4 13 -9 13 -5 0
-11 -6 -14 -13z"/>
<path d="M4347 4043 c-4 -3 -7 -12 -7 -20 0 -15 26 -18 34 -4 7 11 -18 33 -27
24z"/>
<path d="M6510 3538 c0 -167 -9 -225 -46 -303 -17 -39 -53 -95 -65 -105 -16
-13 -19 -49 -4 -63 17 -17 21 -93 5 -99 -5 -1 -10 -38 -11 -80 -1 -45 -5 -75
-10 -72 -6 3 -7 -5 -4 -19 4 -14 2 -28 -4 -32 -6 -3 -9 -11 -6 -16 4 -5 0 -12
-9 -15 -8 -3 -13 -14 -11 -27 3 -11 0 -26 -6 -34 -6 -7 -8 -20 -5 -29 8 -20
-23 -86 -36 -78 -5 3 -3 -7 6 -24 8 -16 12 -33 8 -37 -4 -3 -7 -10 -8 -13 0
-4 -3 -14 -6 -22 -3 -8 -14 -42 -24 -75 -12 -39 -33 -76 -59 -105 -23 -25 -59
-70 -80 -100 -22 -30 -45 -59 -52 -63 -7 -4 -13 -15 -13 -23 0 -8 -7 -17 -15
-20 -8 -4 -15 -13 -15 -20 0 -8 -26 -41 -57 -72 -32 -32 -68 -71 -80 -87 -13
-17 -32 -42 -44 -57 -11 -16 -27 -28 -35 -28 -13 0 -15 -4 -18 -37 -1 -6 -15
-22 -31 -35 -57 -44 -63 -51 -58 -65 3 -8 -14 -32 -43 -59 -154 -141 -188
-170 -213 -179 -15 -5 -44 -29 -65 -53 -22 -23 -51 -50 -65 -58 -15 -9 -33
-29 -40 -45 -7 -15 -32 -50 -55 -76 -24 -26 -46 -60 -49 -74 -4 -14 -27 -45
-52 -68 -25 -23 -45 -46 -45 -51 0 -6 -4 -10 -8 -10 -14 0 -31 -86 -25 -123 4
-25 0 -44 -10 -60 -8 -13 -29 -75 -45 -138 -36 -136 -60 -185 -91 -182 -13 2
-21 -3 -21 -11 0 -8 -6 -21 -13 -28 -7 -7 -19 -29 -26 -48 -21 -55 -34 -80
-42 -80 -5 0 -6 7 -3 15 4 8 1 15 -5 15 -6 0 -20 18 -32 41 -11 23 -16 38 -10
34 14 -8 14 5 1 25 -7 11 -10 11 -10 2 0 -7 -5 -10 -11 -6 -6 3 -8 15 -6 26 4
15 1 18 -14 13 -13 -4 -19 -2 -19 9 0 8 -5 18 -12 22 -8 5 -9 2 -5 -9 3 -10 2
-17 -3 -17 -5 0 -10 9 -12 20 -2 12 -7 21 -13 22 -5 1 -21 15 -35 31 -14 16
-70 75 -126 131 -56 55 -108 115 -116 131 -8 17 -27 84 -42 150 -31 133 -42
178 -61 245 -8 25 -19 65 -25 90 -7 25 -16 54 -20 65 -26 64 -32 84 -34 115
-2 14 -8 35 -15 48 -6 12 -9 22 -6 22 3 0 -6 18 -21 39 -14 22 -23 45 -19 50
3 6 2 11 -4 11 -6 0 -14 12 -17 27 -8 30 -41 90 -61 111 -7 7 -13 19 -13 26 0
7 -11 25 -25 40 -14 15 -25 31 -25 37 0 5 -4 9 -9 9 -5 0 -15 16 -21 35 -6 19
-24 48 -40 65 -18 20 -26 37 -23 50 4 14 0 20 -11 20 -9 0 -16 5 -16 10 0 6 4
10 8 10 4 0 8 9 8 20 0 11 -4 20 -9 20 -4 0 -6 4 -3 8 3 5 -5 17 -16 27 -21
17 -21 18 -2 32 16 12 17 15 4 23 -8 5 -17 10 -20 10 -11 0 -34 75 -33 104 0
19 -8 37 -21 48 -11 9 -15 17 -9 18 13 0 -17 91 -39 117 -6 7 -8 19 -5 27 3 7
-2 24 -11 37 -9 13 -16 26 -14 29 4 10 -10 40 -19 40 -5 0 -9 6 -9 14 0 7 -7
19 -15 26 -9 7 -14 18 -11 25 2 6 -11 43 -30 81 -18 38 -34 73 -34 77 0 4 -9
29 -21 54 -11 25 -27 75 -34 112 -8 36 -21 89 -29 116 -14 48 -46 318 -46 390
0 19 -4 35 -9 35 -13 0 -162 -158 -207 -220 -22 -30 -60 -90 -85 -133 -44 -78
-148 -247 -204 -332 -225 -343 -293 -444 -351 -519 -67 -87 -71 -89 -139 -111
-38 -13 -115 -42 -170 -65 -55 -23 -122 -51 -150 -62 -27 -11 -55 -24 -61 -29
-22 -18 -167 -72 -604 -225 -233 -81 -386 -140 -389 -148 -6 -15 208 -252 368
-408 573 -558 1265 -958 2026 -1172 665 -188 1386 -234 2025 -130 52 8 110 17
128 20 18 3 30 9 28 13 -3 4 5 6 18 4 48 -10 354 64 601 144 410 133 818 331
1180 572 280 187 539 404 788 660 92 95 167 176 167 180 0 3 -66 40 -148 81
-81 41 -181 93 -222 116 -41 22 -138 74 -215 114 -77 40 -195 102 -262 139
l-123 66 -44 85 c-53 102 -180 376 -191 411 -15 50 -297 614 -340 681 -59 90
-164 216 -218 259 -42 35 -135 99 -143 99 -2 0 -4 -73 -4 -162z m-2757 -1371
c4 3 7 1 7 -4 0 -6 -6 -13 -12 -15 -17 -6 17 -72 50 -98 12 -10 22 -26 22 -36
1 -24 23 -54 41 -55 9 0 10 -2 3 -5 -14 -6 -7 -42 11 -64 7 -8 16 -26 20 -40
12 -42 38 -100 46 -100 4 0 13 -15 20 -32 7 -18 15 -37 17 -42 3 -5 -2 -6 -9
-2 -8 4 -6 1 4 -7 10 -8 20 -27 23 -42 3 -16 9 -35 13 -44 5 -9 11 -31 14 -49
3 -18 10 -39 17 -46 6 -8 10 -18 9 -22 -1 -5 3 -22 10 -39 7 -16 14 -45 17
-64 2 -19 9 -40 16 -48 11 -13 24 -64 35 -133 3 -19 9 -39 13 -45 4 -5 11 -28
14 -50 4 -22 17 -59 28 -82 12 -24 19 -46 15 -49 -4 -4 -24 4 -44 18 -21 13
-46 27 -55 31 -10 3 -19 20 -22 39 -35 242 -69 378 -110 431 -13 17 -35 55
-48 82 -13 28 -56 94 -97 147 -83 108 -147 213 -116 188 10 -8 16 -10 13 -5
-9 15 -20 269 -12 289 6 15 8 15 24 1 9 -8 20 -12 23 -8z m-1563 -847 c0 -5
-4 -10 -10 -10 -5 0 -10 5 -10 10 0 6 5 10 10 10 6 0 10 -4 10 -10z m5330
-122 c0 -6 -7 -7 -16 -4 -9 4 -23 1 -31 -5 -7 -7 -17 -9 -21 -5 -4 4 1 14 11
21 19 14 57 9 57 -7z m-2120 -37 c0 -11 -5 -23 -11 -27 -16 -9 -30 18 -17 33
15 19 28 16 28 -6z m-1470 -13 c-14 -6 -35 -14 -48 -19 -14 -6 -20 -14 -16
-22 5 -9 4 -9 -6 0 -10 9 -10 15 -2 26 7 8 9 17 5 20 -3 4 16 7 43 6 44 0 46
-2 24 -11z m70 2 c0 -5 -9 -10 -20 -10 -11 0 -20 5 -20 10 0 6 9 10 20 10 11
0 20 -4 20 -10z m3445 -10 c3 -5 -1 -10 -9 -10 -9 0 -16 5 -16 10 0 6 4 10 9
10 6 0 13 -4 16 -10z m-2096 -39 c22 -31 27 -66 11 -76 -5 -3 -10 2 -10 12 0
10 -9 32 -20 48 -11 17 -20 33 -20 38 0 16 20 5 39 -22z m2066 -11 c3 -5 1
-10 -4 -10 -6 0 -11 5 -11 10 0 6 2 10 4 10 3 0 8 -4 11 -10z m-3553 -49 c-17
-28 -32 -32 -32 -9 0 11 41 51 46 45 3 -3 -3 -19 -14 -36z m163 -19 c-9 -9
-35 8 -35 24 0 16 2 16 20 -1 11 -10 18 -20 15 -23z m3355 28 c0 -5 -4 -10
-10 -10 -5 0 -10 5 -10 10 0 6 5 10 10 10 6 0 10 -4 10 -10z m-3366 -58 c9
-15 -12 -35 -29 -28 -14 5 -15 9 -5 21 14 17 26 19 34 7z m116 -44 c0 -5 -11
-1 -25 8 -14 9 -25 18 -25 20 0 2 11 -2 25 -8 14 -6 25 -15 25 -20z m-133 -50
c-3 -8 -6 -5 -6 6 -1 11 2 17 5 13 3 -3 4 -12 1 -19z m231 -85 c54 -40 86 -91
85 -133 -5 -118 -107 -162 -213 -91 -47 31 -63 52 -79 104 -12 34 -10 41 14
83 15 25 36 49 48 55 34 14 115 4 145 -18z m2187 -113 c3 -5 1 -10 -4 -10 -6
0 -11 5 -11 10 0 6 2 10 4 10 3 0 8 -4 11 -10z m-45 -26 c0 -8 -4 -12 -10 -9
-5 3 -10 10 -10 16 0 5 5 9 10 9 6 0 10 -7 10 -16z m-50 -24 c0 -5 -2 -10 -4
-10 -3 0 -8 5 -11 10 -3 6 -1 10 4 10 6 0 11 -4 11 -10z m-40 -40 c0 -5 -2
-10 -4 -10 -3 0 -8 5 -11 10 -3 6 -1 10 4 10 6 0 11 -4 11 -10z m-3340 -30 c0
-5 -5 -10 -11 -10 -5 0 -7 5 -4 10 3 6 8 10 11 10 2 0 4 -4 4 -10z m50 -34 c0
-3 -4 -8 -10 -11 -5 -3 -10 -1 -10 4 0 6 5 11 10 11 6 0 10 -2 10 -4z m40 -40
c0 -3 -4 -8 -10 -11 -5 -3 -10 -1 -10 4 0 6 5 11 10 11 6 0 10 -2 10 -4z m691
-173 c25 -28 34 -64 18 -74 -24 -15 -39 -10 -39 14 0 13 -4 27 -9 33 -5 5 -10
23 -11 39 -3 51 1 62 13 33 7 -14 20 -34 28 -45z m1154 30 c-11 -70 -15 -83
-26 -83 -13 0 -5 57 13 96 16 34 20 30 13 -13z m948 -43 c21 -40 19 -138 -2
-164 -21 -25 -86 -21 -105 6 -24 34 -21 133 5 170 30 42 77 37 102 -12z"/>
<path d="M3700 3415 c0 -15 129 -146 225 -230 44 -39 96 -85 115 -102 74 -67
187 -153 230 -176 25 -13 62 -34 82 -45 21 -12 99 -42 174 -68 116 -39 153
-47 248 -53 196 -12 431 38 580 125 45 26 95 55 112 63 46 24 121 91 101 91
-9 0 -17 -5 -17 -11 0 -7 -10 -9 -26 -5 -19 5 -33 2 -48 -12 -11 -11 -36 -25
-53 -33 -18 -8 -33 -17 -33 -20 0 -11 -52 -22 -92 -20 -24 2 -38 -2 -38 -9 0
-8 -15 -11 -44 -8 -37 2 -46 0 -50 -15 -3 -14 -10 -17 -26 -12 -23 7 -66 -10
-85 -32 -5 -7 -30 -13 -55 -13 -25 1 -61 0 -80 0 -100 -2 -201 9 -224 24 -17
10 -27 12 -32 5 -9 -14 -54 -2 -73 20 -10 11 -36 20 -65 23 -30 4 -52 12 -58
22 -12 21 -25 20 -31 -1 -4 -15 -6 -15 -12 5 -4 12 -15 22 -26 22 -11 0 -22 7
-26 15 -4 11 -15 14 -37 11 -34 -5 -76 21 -76 47 0 9 -8 13 -22 10 -16 -3 -35
7 -62 31 -21 20 -53 40 -70 44 -21 6 -30 14 -28 26 2 13 -2 15 -22 10 -16 -4
-26 -2 -26 5 0 6 -5 11 -10 11 -13 0 -19 5 -80 58 -44 39 -49 42 -71 42 -5 0
-7 5 -4 11 4 6 -2 13 -14 16 -12 3 -21 9 -21 14 0 5 -5 9 -12 9 -6 0 -36 26
-65 58 -29 31 -53 52 -53 47z"/>
<path d="M5612 3060 c-7 -12 -8 -20 -2 -20 5 0 13 -1 17 -2 3 -2 8 7 9 20 5
27 -7 29 -24 2z"/>
<path d="M5020 854 c-7 -16 -13 -42 -16 -59 -3 -18 4 -8 16 24 11 30 18 57 15
59 -2 3 -9 -8 -15 -24z"/>
<path d="M4960 650 c-15 -55 -7 -63 9 -9 7 22 10 43 7 46 -2 3 -10 -14 -16
-37z"/>
<path d="M4936 573 c-6 -14 -5 -15 5 -6 7 7 10 15 7 18 -3 3 -9 -2 -12 -12z"/>
</g>
</svg>
