<?xml version="1.0" standalone="no"?>
<!DOCTYPE svg PUBLIC "-//W3C//DTD SVG 20010904//EN"
 "http://www.w3.org/TR/2001/REC-SVG-20010904/DTD/svg10.dtd">
<svg version="1.0" xmlns="http://www.w3.org/2000/svg"
 width="960.000000pt" height="960.000000pt" viewBox="0 0 960.000000 960.000000"
 preserveAspectRatio="xMidYMid meet">
<g transform="translate(0.000000,960.000000) scale(0.100000,-0.100000)"
fill="#000000" stroke="none">
<path d="M4460 9590 c-1152 -89 -2197 -559 -3009 -1354 -828 -811 -1312 -1823
-1433 -2996 -17 -162 -17 -726 0 -880 91 -836 333 -1528 769 -2195 111 -169
251 -355 267 -355 18 0 90 53 156 114 30 28 104 92 164 141 60 50 150 126 200
169 50 44 129 110 176 147 47 37 104 90 127 117 29 35 64 60 120 88 42 21 105
62 138 89 106 89 222 151 470 252 60 25 114 52 120 61 14 24 51 114 85 205 29
77 158 324 234 447 22 36 54 103 72 150 18 46 36 86 41 87 4 2 8 -16 9 -40 1
-23 4 -67 7 -97 3 -30 9 -86 12 -125 4 -38 10 -83 15 -100 5 -16 11 -52 15
-80 10 -78 16 -94 30 -89 10 4 24 -25 49 -103 50 -156 76 -224 100 -258 12
-16 30 -47 41 -68 11 -21 30 -48 43 -59 12 -12 22 -25 22 -30 0 -5 4 -14 10
-21 24 -30 68 -83 100 -119 42 -48 312 -319 331 -333 8 -6 29 -22 47 -37 18
-15 41 -25 51 -23 14 3 18 -1 14 -11 -6 -16 13 -19 23 -3 4 7 9 7 13 1 9 -14
51 -25 51 -13 0 6 7 8 15 5 8 -4 13 -10 10 -15 -7 -11 33 -32 50 -25 7 2 19
-2 26 -10 10 -12 14 -12 20 -2 6 9 9 7 9 -8 0 -24 29 -54 53 -54 9 0 17 -6 17
-14 0 -8 7 -17 16 -20 8 -3 12 -2 9 4 -8 12 5 13 24 1 7 -5 11 -13 8 -18 -8
-12 22 -55 33 -48 4 3 13 -9 19 -26 6 -17 14 -28 19 -25 5 3 29 10 53 15 41 9
43 9 24 -6 -20 -15 -20 -15 3 -10 15 3 22 1 22 -9 0 -8 5 -13 11 -12 6 2 14
-3 16 -10 3 -7 -1 -10 -10 -6 -8 3 -18 0 -23 -7 -5 -9 -2 -10 9 -6 9 3 18 1
21 -6 3 -9 5 -9 5 0 1 7 15 9 41 6 24 -3 40 -2 40 5 0 12 38 23 45 12 3 -5 -1
-11 -7 -13 -7 -3 -8 -6 -2 -6 6 -1 19 7 30 17 17 17 20 17 32 3 10 -12 15 -13
18 -3 7 14 54 17 54 2 0 -6 3 -9 8 -9 4 1 10 0 15 -1 19 -6 33 -5 39 5 5 6 8
6 8 -2 0 -7 7 -13 15 -13 20 0 19 30 -2 47 -17 14 -17 14 1 9 10 -4 25 -1 32
5 7 6 18 8 23 5 5 -4 12 -2 16 4 3 5 16 10 28 10 35 1 81 44 74 69 -3 15 2 28
16 42 13 12 18 23 12 27 -12 9 -16 44 -4 36 5 -3 9 2 9 10 0 9 -4 16 -8 16 -5
0 -8 13 -7 30 1 17 -4 31 -13 35 -11 4 -12 8 -3 19 8 9 8 15 2 18 -6 1 -12 14
-13 28 -2 14 -10 30 -18 37 -8 7 -11 13 -6 13 4 0 -2 9 -15 20 -13 10 -19 19
-12 20 6 0 14 -6 17 -12 3 -7 3 -1 0 14 -4 19 -2 28 7 28 8 0 5 6 -7 16 -17
14 -17 15 -1 10 11 -3 16 -2 12 4 -3 6 0 10 7 10 9 0 9 3 -2 10 -13 8 -13 13
-2 31 10 15 10 19 1 14 -7 -5 -10 -4 -5 3 6 11 82 30 151 39 42 5 67 15 181
69 74 35 122 74 91 74 -10 0 -17 -4 -17 -10 0 -5 -9 -10 -20 -10 -11 0 -20 -4
-20 -10 0 -5 -8 -10 -17 -10 -15 0 -16 2 -3 10 9 6 11 10 3 10 -7 0 -10 7 -7
18 5 13 4 14 -4 3 -15 -21 -30 -5 -26 29 2 16 -1 30 -7 30 -6 0 -7 -4 -4 -10
3 -5 1 -10 -5 -10 -6 0 -13 7 -16 15 -4 10 -16 13 -39 10 -27 -3 -33 -1 -28
11 4 10 0 12 -11 8 -9 -3 -16 -14 -16 -23 -1 -42 -50 -66 -79 -39 -11 10 -13
10 -7 1 4 -8 1 -13 -8 -13 -9 0 -16 -8 -16 -17 0 -16 -14 -10 -16 8 -1 5 -2
11 -3 14 0 3 -10 1 -21 -5 -11 -6 -19 -14 -16 -18 2 -4 -4 -8 -15 -8 -21 0
-27 16 -6 17 6 0 4 4 -6 8 -10 4 -18 10 -17 15 2 11 -50 37 -60 31 -5 -3 -11
1 -13 7 -3 8 -6 5 -6 -6 -1 -12 4 -16 14 -12 25 9 17 -10 -10 -24 -29 -15 -55
-1 -55 31 0 11 -7 19 -16 19 -8 0 -13 4 -10 9 6 10 -42 34 -54 26 -4 -3 -10 1
-13 9 -4 10 0 12 14 9 10 -3 20 -1 20 3 6 39 5 55 -4 61 -6 3 -7 1 -3 -5 4 -7
2 -12 -4 -12 -7 0 -9 7 -6 17 4 9 1 20 -6 25 -10 6 -10 8 0 8 6 0 12 7 12 15
0 18 -16 20 -23 3 -3 -7 -4 1 -2 19 2 21 0 30 -8 27 -8 -3 -17 13 -23 38 -6
24 -15 52 -19 63 -8 18 -7 19 8 6 10 -8 20 -11 24 -7 3 3 1 6 -5 6 -6 0 -12
10 -14 23 -3 19 -9 22 -48 23 -62 1 -70 2 -70 15 0 5 4 8 8 5 19 -11 62 -14
68 -4 5 7 0 9 -14 6 -12 -3 -29 0 -39 7 -9 7 -23 11 -30 8 -7 -3 -13 1 -13 8
0 10 -2 11 -8 2 -4 -6 -19 -10 -33 -10 -21 2 -24 6 -21 24 4 23 -11 32 -23 13
-3 -5 -15 -10 -27 -10 -18 0 -19 -2 -7 -18 12 -15 11 -15 -8 1 -21 18 -22 18
-33 -2 -6 -12 -8 -25 -5 -30 6 -11 -14 -9 -32 2 -17 11 -17 29 0 25 7 -2 12 0
12 4 0 4 9 14 20 23 20 16 20 16 -2 10 -13 -4 -24 -2 -24 4 -1 6 -3 16 -4 21
-1 6 -3 13 -4 18 -1 4 -6 0 -11 -8 -6 -9 -10 -10 -10 -3 0 6 5 15 10 18 6 3
10 11 10 16 0 6 -4 8 -8 5 -5 -3 -9 0 -9 7 0 7 7 13 16 14 40 3 59 8 56 13 -6
9 19 35 34 35 8 0 16 5 18 12 3 7 -4 9 -19 6 -19 -5 -21 -3 -10 8 10 11 16 11
34 0 18 -11 20 -11 15 3 -10 25 3 19 13 -6 l9 -23 7 24 7 23 14 -23 c9 -16 12
-17 8 -5 -4 16 -3 17 9 6 13 -10 20 -7 39 14 28 30 39 33 30 9 -4 -11 -3 -14
5 -9 7 4 12 14 12 22 0 8 5 15 10 15 6 1 16 2 23 3 6 1 11 8 9 16 -1 10 4 8
16 -5 22 -24 39 -29 39 -10 0 8 -4 12 -8 9 -4 -2 -10 0 -13 5 -7 10 13 9 31
-2 6 -4 14 -3 17 2 4 5 2 12 -4 16 -5 3 -10 12 -10 18 0 7 4 6 10 -3 8 -12 10
-12 10 5 0 18 1 18 16 -3 8 -12 20 -22 26 -22 7 0 3 7 -8 15 -11 9 -13 13 -4
10 15 -5 53 -13 103 -22 22 -4 27 -2 27 16 0 14 -5 19 -15 15 -8 -4 -12 -11
-8 -17 4 -6 1 -7 -7 -2 -10 6 -9 11 4 21 10 7 24 10 32 7 17 -6 17 -2 4 31 -7
19 -6 26 3 26 8 0 7 4 -3 10 -10 6 -11 10 -2 10 26 0 10 21 -33 41 -25 12 -45
27 -45 35 0 9 -9 13 -25 12 -28 -3 -33 -16 -9 -25 8 -3 13 -12 10 -19 -6 -15
28 -29 45 -18 7 4 9 3 6 -3 -4 -6 0 -16 8 -23 8 -7 12 -16 9 -21 -10 -16 -24
-9 -24 11 0 13 -7 20 -19 20 -10 0 -24 7 -31 15 -7 8 -9 15 -5 15 3 0 -3 12
-14 26 -12 15 -21 34 -21 43 0 14 -2 14 -9 2 -8 -12 -11 -10 -15 10 -3 13 -5
31 -4 39 0 8 0 28 0 45 -2 21 -5 26 -13 18 -12 -12 -57 2 -71 22 -4 5 -8 -1
-9 -15 l0 -25 -11 23 c-6 12 -17 22 -25 22 -7 0 -16 7 -20 16 -3 8 -11 13 -18
10 -7 -2 -21 5 -32 16 -10 12 -12 18 -5 14 15 -9 15 -1 2 24 -7 13 -7 21 0 25
5 3 10 0 10 -7 0 -8 16 -14 48 -16 30 -1 52 -8 60 -19 6 -9 12 -12 12 -5 0 7
11 12 25 12 14 0 24 -3 24 -7 -3 -20 2 -27 10 -14 7 10 36 15 106 17 53 1 99
4 102 7 2 3 -12 11 -31 18 -43 15 -48 39 -8 39 22 1 24 2 11 10 -12 7 -26 5
-45 -5 -16 -8 -23 -15 -16 -15 23 0 12 -18 -15 -23 -18 -3 -34 0 -45 10 -10 9
-38 19 -64 24 -26 5 -52 16 -58 25 -9 12 -17 13 -39 5 -42 -16 -98 -13 -119 6
-15 13 -23 14 -43 5 -15 -7 -26 -8 -30 -1 -4 5 -10 7 -14 4 -5 -2 -23 5 -41
18 -57 39 -77 147 -30 162 24 7 79 -23 98 -54 17 -28 27 -26 42 8 6 16 21 31
33 33 30 6 76 -14 97 -42 20 -27 40 -19 40 15 0 13 8 31 17 41 24 24 125 14
177 -17 33 -19 40 -20 50 -8 15 20 53 37 106 49 62 13 76 12 94 -6 15 -14 20
-13 62 8 l46 22 41 -22 c34 -19 43 -20 56 -8 39 33 89 26 104 -16 3 -10 10 -8
26 6 22 20 22 20 48 -7 24 -23 25 -29 14 -53 -14 -32 -1 -47 37 -41 12 3 25 0
28 -5 10 -16 25 4 19 25 -5 18 -4 19 5 7 9 -13 13 -12 29 7 11 13 27 23 38 23
10 0 31 12 48 26 16 14 49 30 72 37 24 6 43 14 43 18 0 3 22 9 50 13 34 5 53
13 60 26 10 18 5 19 -153 14 -89 -2 -178 -4 -197 -5 -19 0 -78 2 -130 5 -131
8 -227 8 -280 1 -95 -12 -167 -18 -217 -18 -33 1 -51 -3 -47 -9 4 -6 -1 -6
-13 1 -11 6 -23 8 -26 5 -2 -3 -32 2 -65 11 -55 14 -76 18 -137 27 -11 2 -26
8 -32 15 -7 6 -22 9 -33 6 -12 -3 -20 0 -20 6 0 7 -4 9 -10 6 -5 -3 -18 -1
-29 5 -14 7 -22 7 -26 -1 -5 -7 -11 -5 -18 5 -7 8 -21 16 -32 18 -12 2 -20 11
-20 23 1 11 6 19 13 18 7 -2 12 1 12 6 0 5 25 7 55 5 38 -3 55 -1 55 7 0 7 9
9 26 5 16 -4 23 -3 20 3 -4 5 -2 12 4 16 5 3 10 0 10 -7 0 -9 3 -10 8 -2 4 6
23 15 42 19 19 4 38 12 41 17 4 7 14 6 27 -1 17 -9 23 -8 31 6 6 12 20 16 45
15 20 -2 36 2 36 7 0 6 19 1 42 -9 37 -17 45 -17 59 -4 8 8 16 20 17 27 0 6 3
21 6 32 2 11 5 28 5 38 1 12 5 16 14 11 9 -6 9 -5 0 7 -6 8 -10 29 -9 48 1 20
-3 35 -11 38 -7 3 -13 10 -13 15 0 6 8 7 17 4 15 -6 15 -5 2 11 -8 10 -21 30
-28 45 -8 15 -17 25 -21 23 -4 -3 -15 10 -24 28 -8 17 -16 28 -17 22 0 -5 -4
1 -8 15 -4 14 -14 24 -21 22 -7 -2 -17 3 -21 10 -13 21 -10 28 9 21 10 -3 8 1
-7 12 -13 10 -38 21 -55 25 -17 4 -30 12 -29 18 4 15 -44 16 -53 1 -4 -8 -9
-7 -15 2 -6 11 -12 10 -27 -4 -18 -16 -20 -16 -26 -2 -3 9 -10 14 -15 11 -5
-3 -11 1 -15 9 -3 10 1 15 11 15 15 0 15 2 0 18 -10 10 -15 21 -11 24 8 9 44
-3 38 -13 -10 -17 5 -9 25 12 11 12 17 29 14 38 -3 10 -2 12 4 5 4 -6 21 -14
37 -18 22 -6 27 -4 23 7 -3 8 0 20 6 27 9 10 9 11 0 6 -7 -4 -13 -2 -13 3 0 6
5 11 10 11 6 0 10 9 10 21 0 11 4 28 9 38 6 10 6 23 0 32 -6 9 -9 10 -9 2 0
-7 -7 -10 -15 -7 -8 4 -12 10 -9 15 3 5 -1 9 -8 9 -8 1 -5 7 7 16 11 8 19 20
17 26 -2 7 3 6 13 -2 13 -11 15 -10 9 4 -3 9 -11 16 -16 16 -6 0 -7 18 -4 45
7 47 -4 59 -24 28 -10 -16 -11 -16 -5 2 15 47 18 78 7 71 -8 -5 -10 -2 -6 8 5
14 -5 21 -28 17 -4 0 -5 11 -2 24 2 14 0 25 -6 25 -5 0 -10 4 -10 10 0 5 6 7
14 4 7 -3 16 2 19 10 4 11 1 13 -11 9 -14 -5 -15 -3 -5 7 8 9 9 19 2 32 -6 12
-6 18 0 18 7 0 7 9 0 27 -5 14 -8 32 -5 38 2 7 0 18 -4 25 -5 8 -3 22 6 34 12
17 11 22 -4 40 -9 11 -12 16 -5 13 6 -4 14 -3 18 3 4 6 -6 11 -22 11 -23 1
-24 3 -6 6 20 4 22 9 17 46 -8 52 -11 56 -22 27 l-9 -24 -5 22 c-4 12 -3 20 2
17 4 -3 10 4 13 15 4 15 0 20 -16 20 -13 0 -17 3 -11 8 16 10 12 68 -4 64 -8
-1 -11 2 -7 8 3 6 10 8 15 5 12 -7 -6 53 -20 71 -14 16 -4 37 13 28 9 -5 9 -4
0 6 -8 9 -9 19 -2 31 11 22 -27 65 -66 75 -14 3 -30 14 -35 23 -8 14 -9 14
-10 -4 0 -16 -2 -17 -9 -5 -6 8 -8 17 -5 21 2 4 -14 5 -36 3 -23 -2 -39 0 -35
5 8 14 -9 21 -25 11 -17 -11 -45 24 -34 43 4 6 3 9 -1 4 -5 -4 -17 0 -27 10
-17 15 -18 15 -18 -2 0 -11 -5 -15 -14 -12 -8 3 -17 1 -20 -6 -3 -9 -5 -9 -5
0 -2 21 -39 35 -62 23 -15 -9 -24 -8 -35 1 -12 10 -20 10 -34 2 -19 -13 -40 0
-40 25 0 7 -4 10 -10 7 -17 -11 -50 -14 -50 -5 0 4 5 10 11 12 7 2 -30 4 -82
3 -52 0 -100 -4 -108 -9 -10 -7 -12 -5 -6 5 6 11 5 11 -5 2 -13 -12 -40 -7
-52 11 -5 8 -10 8 -18 0 -6 -6 -31 -9 -57 -6 -32 3 -44 1 -39 -7 5 -7 -6 -11
-33 -11 -30 0 -41 4 -41 15 0 8 -4 15 -10 15 -13 0 -13 -17 0 -25 7 -4 7 -13
0 -26 -6 -11 -15 -17 -20 -14 -5 3 -17 1 -27 -4 -10 -5 -27 -13 -38 -16 l-20
-7 20 -8 c11 -4 24 -4 29 1 16 15 24 10 19 -11 -5 -18 -11 -20 -47 -14 -50 7
-52 9 -36 29 8 9 8 15 2 15 -6 0 -14 -5 -17 -10 -4 -6 -11 -7 -17 -4 -6 4 -8
3 -5 -2 3 -6 1 -16 -4 -24 -8 -13 -13 -11 -30 10 -11 14 -18 19 -14 13 3 -7 1
-13 -5 -13 -6 0 -9 -4 -5 -9 3 -6 -4 -8 -17 -5 -13 3 -29 6 -36 8 -7 1 -18 8
-25 16 -10 10 -9 11 2 5 10 -6 12 -4 7 4 -4 6 -15 9 -24 7 -14 -5 -17 1 -17
29 -1 39 10 46 20 14 4 -11 9 -18 12 -16 2 3 -1 15 -7 27 -8 15 -18 20 -31 17
-10 -3 -19 -1 -19 5 0 6 -11 7 -27 3 -52 -13 -72 -13 -66 1 3 8 9 11 14 8 5
-3 9 -1 9 5 0 17 -18 21 -24 5 -3 -8 -10 -13 -15 -9 -5 3 -13 0 -17 -6 -4 -7
-3 -10 2 -7 5 3 17 -3 26 -14 17 -17 17 -18 -8 -18 -16 0 -23 4 -18 12 4 7 3
8 -4 4 -6 -4 -8 -14 -5 -23 4 -10 2 -14 -4 -10 -16 10 -44 -3 -36 -16 3 -6 1
-7 -6 -3 -6 4 -9 11 -6 16 3 4 -4 10 -15 13 -17 4 -18 8 -7 31 7 14 17 24 22
22 6 -2 10 12 11 30 0 18 -3 31 -8 28 -4 -3 -8 13 -8 35 0 23 -3 41 -7 41 -5
0 -9 15 -10 33 -2 19 -11 39 -24 50 -13 10 -23 28 -25 40 -1 12 -4 28 -6 34
-1 7 10 23 26 36 24 19 28 29 22 50 -4 19 -11 25 -23 20 -12 -5 -14 -3 -8 7 5
8 8 29 7 48 -2 18 1 38 5 45 8 13 10 19 12 43 1 10 7 14 17 10 8 -3 12 -2 9 3
-3 5 0 13 7 17 7 5 4 10 -11 16 -17 6 -21 12 -13 21 5 6 8 22 6 35 -2 12 1 22
6 22 6 0 10 -5 10 -12 0 -6 2 -9 5 -6 12 12 -21 60 -49 74 -17 8 -23 12 -13 9
14 -4 17 -1 13 13 -6 17 6 44 18 43 15 -2 16 0 4 22 -19 35 -21 76 -4 83 24 9
19 31 -9 38 -28 7 -36 46 -10 46 17 0 19 9 5 30 -5 9 -5 19 1 26 5 7 8 28 6
48 -4 32 1 43 38 84 23 26 52 66 64 90 12 23 27 42 34 42 7 0 24 14 36 31 13
18 17 28 10 24 -9 -5 -8 -1 3 11 9 10 18 26 20 34 5 22 68 52 100 48 21 -4 34
2 53 24 22 24 28 26 45 16 15 -10 22 -10 32 0 13 13 62 17 55 5 -3 -5 5 -9 16
-9 20 -2 55 -9 67 -15 3 -1 19 -2 36 -3 21 -1 30 3 27 12 -3 6 -2 12 1 12 6 0
15 -4 67 -31 12 -6 19 -6 16 -2 -8 13 59 36 83 28 11 -3 25 -3 32 2 20 12 96
14 103 3 10 -16 25 -12 19 5 -4 10 4 19 22 26 41 17 64 20 64 10 0 -6 21 -13
46 -17 25 -3 48 -13 51 -20 3 -8 9 -14 15 -14 5 0 7 4 4 9 -3 5 1 14 9 21 13
11 14 10 9 -5 -6 -16 -5 -16 24 -1 36 18 68 21 77 6 5 -8 11 -7 21 0 10 9 20
7 43 -10 25 -17 34 -19 52 -9 15 7 19 8 15 0 -4 -6 -2 -11 3 -11 6 0 11 5 11
10 0 6 6 9 13 8 6 -2 11 2 10 8 -1 8 17 11 55 10 48 -1 58 -4 62 -21 3 -11 10
-20 15 -20 6 0 15 -4 22 -8 6 -4 14 -1 17 5 4 10 8 9 18 -2 25 -29 170 -13
188 21 6 10 15 19 21 19 5 0 3 -13 -6 -30 -9 -16 -12 -30 -8 -29 24 2 71 40
88 72 19 35 43 53 32 23 -8 -20 38 -26 63 -9 11 8 32 38 47 66 22 45 27 49 34
32 4 -11 5 -35 2 -54 -4 -25 -2 -32 7 -29 7 2 15 14 17 27 5 33 18 54 36 57
18 2 34 -29 18 -34 -16 -5 -13 -22 4 -22 8 0 26 21 39 48 22 41 32 43 27 5 -1
-7 2 -13 8 -13 5 0 8 11 6 25 -1 14 0 23 3 20 3 -3 14 2 24 12 24 21 34 10 19
-23 -10 -22 -8 -28 11 -44 36 -30 44 -24 44 30 0 28 6 56 13 63 11 10 13 3 8
-36 -4 -40 -2 -46 9 -36 8 6 14 17 14 24 0 7 9 24 21 39 19 24 19 26 2 27 -16
0 -16 1 2 9 31 13 34 12 41 -25 8 -43 28 -62 49 -45 8 6 18 9 23 6 12 -7 46
86 64 173 13 64 39 113 54 99 4 -4 -1 -35 -11 -69 -15 -56 -15 -63 -1 -71 16
-9 13 -53 -6 -90 -14 -29 22 -56 71 -55 23 1 41 -1 41 -5 0 -5 4 -8 10 -8 5 0
7 7 3 16 -4 10 1 17 14 20 20 6 28 17 52 78 8 20 15 26 22 19 8 -8 8 -17 0
-31 -17 -31 -14 -35 19 -28 32 6 39 -4 16 -23 -11 -9 -15 -9 -19 1 -3 8 -6 5
-7 -7 0 -11 -12 -38 -25 -60 -14 -22 -25 -43 -25 -47 0 -12 101 -8 139 5 38
13 56 40 25 37 -44 -5 -94 1 -94 10 0 6 13 19 30 28 16 9 30 23 30 30 0 7 -4
11 -9 8 -5 -3 -12 1 -15 10 -3 8 -2 12 4 9 6 -3 10 2 11 12 0 15 2 14 9 -4 6
-15 15 -21 25 -17 11 5 14 2 9 -10 -3 -9 -10 -16 -15 -16 -5 0 -9 -4 -9 -10 0
-21 39 -10 42 13 2 14 11 23 27 25 19 3 23 0 19 -16 -4 -16 0 -21 23 -26 37
-7 37 -31 0 -51 -41 -21 -45 -31 -21 -55 18 -18 19 -20 2 -20 -10 0 -22 -4
-27 -9 -6 -5 -25 -11 -44 -13 -40 -3 -55 -27 -19 -29 13 -1 79 -3 148 -3 69
-1 131 -3 138 -4 26 -4 10 -21 -25 -27 -90 -16 -91 -22 -4 -54 68 -25 84 -47
45 -62 -15 -5 -32 -8 -39 -7 -8 2 -14 -1 -14 -7 -1 -5 19 -15 44 -22 74 -18
98 -53 37 -53 -16 0 -32 -8 -39 -19 -10 -16 -8 -22 12 -35 13 -9 28 -16 32
-16 12 -1 63 -71 63 -86 0 -7 8 -17 17 -23 15 -8 15 -11 3 -26 -12 -14 -11
-20 3 -45 13 -21 14 -29 5 -33 -11 -3 -11 -11 0 -39 6 -19 12 -42 12 -52 0
-10 -5 -16 -12 -13 -7 2 -23 1 -36 -4 -19 -7 -21 -12 -12 -28 5 -11 11 -36 12
-55 2 -26 8 -36 19 -36 10 0 19 -10 21 -25 4 -17 1 -25 -8 -25 -8 0 -14 -4
-14 -10 0 -5 -7 -7 -15 -4 -8 4 -15 1 -15 -6 0 -6 -5 -8 -12 -4 -9 5 -8 2 1
-9 13 -16 16 -30 25 -102 2 -16 7 -38 11 -47 5 -12 2 -20 -8 -24 -9 -3 -13
-12 -10 -20 3 -8 10 -11 17 -7 8 5 8 3 0 -8 -7 -8 -8 -22 -3 -34 11 -28 11
-35 -1 -35 -5 0 -10 6 -10 14 0 15 -28 42 -35 34 -9 -9 26 -108 38 -108 8 0 7
-3 -2 -9 -12 -8 -12 -12 -2 -24 8 -10 10 -28 5 -52 -5 -29 -3 -39 12 -51 13
-11 15 -17 7 -20 -9 -4 -10 -10 -1 -24 11 -17 13 -17 25 -2 11 15 12 14 13
-11 0 -16 -4 -26 -9 -23 -14 9 -19 -17 -8 -41 11 -26 23 -29 31 -10 4 8 5 7 5
-3 -2 -32 2 -42 27 -65 23 -22 26 -54 3 -40 -5 4 -9 -1 -9 -10 0 -9 4 -14 9
-11 9 6 22 -29 26 -69 1 -11 3 -24 5 -30 1 -5 2 -19 1 -30 -1 -17 -3 -18 -11
-5 -17 27 -10 0 11 -41 22 -45 27 -45 35 -4 4 24 3 26 -10 16 -11 -9 -16 -9
-22 0 -4 8 -3 9 4 5 7 -4 12 -2 12 4 0 7 7 10 15 6 8 -3 18 0 22 7 5 7 20 18
36 26 21 11 27 21 27 48 0 18 3 33 8 33 12 0 31 50 25 66 -9 25 51 16 93 -14
21 -16 51 -51 65 -78 37 -67 78 -203 89 -291 12 -91 -11 -222 -70 -403 -22
-69 -54 -174 -70 -235 -64 -241 -109 -358 -157 -407 -20 -21 -76 -58 -124 -83
-61 -31 -88 -51 -93 -67 -3 -13 -6 -93 -6 -178 0 -233 -32 -454 -85 -596 -32
-84 -141 -290 -220 -414 -69 -108 -155 -258 -155 -270 0 -6 25 -66 56 -133 31
-67 71 -162 90 -212 20 -49 42 -97 50 -107 18 -19 129 -44 231 -52 44 -3 95
-14 130 -29 32 -14 105 -45 163 -69 195 -83 489 -227 562 -276 93 -62 115 -74
213 -107 92 -32 234 -101 309 -151 30 -20 106 -52 176 -74 165 -54 229 -91
318 -187 41 -43 92 -97 114 -120 22 -24 43 -43 48 -43 4 0 51 58 103 128 528
712 835 1514 929 2422 17 162 17 726 0 880 -69 630 -213 1144 -472 1675 -457
939 -1255 1736 -2195 2194 -518 253 -1036 402 -1620 467 -166 18 -669 26 -835
14z m249 -1138 c1 -7 -3 -10 -9 -7 -5 3 -10 18 -9 33 0 24 1 25 9 7 5 -11 9
-26 9 -33z m958 -34 c-3 -8 -6 -5 -6 6 -1 11 2 17 5 13 3 -3 4 -12 1 -19z
m-377 -88 c0 -27 -3 -50 -7 -50 -5 0 -6 22 -5 50 5 65 12 65 12 0z m-583 -2
c-3 -8 -6 -5 -6 6 -1 11 2 17 5 13 3 -3 4 -12 1 -19z m1513 -53 c0 -8 -4 -15
-10 -15 -5 0 -10 -9 -10 -20 0 -23 12 -25 42 -9 14 8 23 8 31 0 7 -7 0 -15
-26 -26 -41 -17 -73 -19 -82 -6 -9 15 26 91 41 91 8 0 14 -7 14 -15z m-1087
-15 c-3 -12 -8 -19 -11 -16 -5 6 5 36 12 36 2 0 2 -9 -1 -20z m487 -4 c0 -8
-4 -18 -10 -21 -5 -3 -10 3 -10 14 0 12 5 21 10 21 6 0 10 -6 10 -14z m-700
-67 c0 -10 -4 -19 -9 -19 -5 0 -12 -10 -16 -22 -7 -21 -8 -20 -12 10 -4 34 12
66 28 56 5 -3 9 -14 9 -25z m472 -4 c-2 -14 -8 -25 -13 -25 -5 0 -9 11 -9 25
0 14 6 25 14 25 9 0 12 -8 8 -25z m470 -17 c-7 -7 -12 -8 -12 -2 0 14 12 26
19 19 2 -3 -1 -11 -7 -17z m-757 -93 l-16 -30 6 43 c7 45 12 70 16 87 1 6 4
-8 6 -30 3 -25 -2 -52 -12 -70z m1290 43 c-7 -17 -47 -38 -73 -38 -9 1 2 10
26 21 23 11 42 25 42 31 0 6 2 9 5 6 3 -3 3 -12 0 -20z m-1204 -51 c-1 -12
-15 -9 -19 4 -3 6 1 10 8 8 6 -3 11 -8 11 -12z m1379 -783 c0 -8 -4 -14 -8
-14 -4 0 -8 9 -8 19 0 11 4 17 8 15 4 -3 8 -12 8 -20z m10 -28 c0 -11 -19 -15
-25 -6 -3 5 1 10 9 10 9 0 16 -2 16 -4z m-2 -186 c13 -35 -2 -50 -18 -19 -10
18 -8 49 4 49 2 0 9 -13 14 -30z m-3428 -55 c-7 -9 -15 -13 -17 -11 -7 7 7 26
19 26 6 0 6 -6 -2 -15z m3466 -72 c-4 -4 -11 -1 -16 7 -16 25 -11 35 7 17 9
-9 13 -20 9 -24z m-1 -403 c3 -6 -4 -10 -17 -10 -18 0 -20 2 -8 10 19 12 18
12 25 0z m-3492 -53 c9 -26 12 -45 7 -42 -5 3 -12 0 -16 -6 -4 -7 -3 -9 3 -6
6 4 25 -7 43 -23 18 -17 28 -30 22 -30 -5 0 -15 7 -22 15 -17 20 -26 19 -26
-4 0 -11 5 -17 13 -14 9 4 11 0 7 -11 -8 -22 -34 -2 -35 28 -1 18 -2 18 -6 3
-4 -17 -6 -17 -17 -2 -11 15 -12 14 -12 -9 0 -20 4 -25 15 -21 9 3 12 3 8 -1
-4 -4 -1 -14 6 -22 9 -13 9 -14 0 -8 -8 4 -13 2 -13 -7 0 -9 -9 -12 -30 -9
-16 2 -27 8 -24 14 3 5 14 6 24 3 10 -3 22 0 26 6 5 9 2 10 -12 5 -10 -4 -15
-4 -11 0 11 11 -13 33 -29 27 -8 -3 -14 -12 -14 -20 0 -8 -5 -11 -10 -8 -6 4
-8 11 -5 16 4 5 1 9 -4 9 -6 0 -11 4 -11 9 0 5 10 7 22 3 14 -3 19 -2 14 6 -4
7 -3 12 2 12 5 0 12 9 15 21 5 17 9 19 25 10 14 -7 19 -7 19 4 0 7 -6 11 -13
8 -18 -7 -28 16 -14 32 7 8 9 15 4 15 -5 0 -1 5 9 11 9 5 17 17 17 26 0 23 5
15 23 -40z m97 -7 c0 -5 -4 -10 -10 -10 -5 0 -10 5 -10 10 0 6 5 10 10 10 6 0
10 -4 10 -10z m177 -55 c0 -8 -4 -15 -9 -15 -5 0 -6 -4 -3 -10 8 -13 -5 -13
-25 0 -13 8 -13 10 1 10 9 0 19 7 23 15 3 8 7 15 9 15 2 0 4 -7 4 -15z m390
-30 c0 -8 -4 -12 -9 -9 -5 3 -6 10 -3 15 9 13 12 11 12 -6z m73 0 c-7 -8 -24
-15 -39 -14 -23 0 -24 1 -6 8 11 5 23 7 27 5 4 -3 9 0 13 6 3 5 9 10 12 10 3
0 0 -7 -7 -15z m-547 -53 c-6 -24 -18 -28 -29 -10 -4 7 -3 8 4 4 14 -9 16 13
3 34 -15 22 -1 34 15 12 7 -10 10 -29 7 -40z m22 48 c3 -5 -1 -10 -10 -10 -9
0 -13 5 -10 10 3 6 8 10 10 10 2 0 7 -4 10 -10z m-65 -14 c0 -3 -4 -8 -10 -11
-5 -3 -10 -1 -10 4 0 6 5 11 10 11 6 0 10 -2 10 -4z m135 -27 c-4 -5 -1 -9 5
-9 7 0 5 -6 -4 -15 -8 -8 -21 -15 -28 -15 -9 1 -9 4 3 13 9 7 15 20 13 30 -1
9 2 15 7 11 5 -3 7 -10 4 -15z m81 -25 c7 3 15 2 18 -2 2 -4 -12 -13 -32 -19
-31 -10 -34 -9 -19 2 15 11 16 13 2 19 -8 3 -15 10 -15 16 0 6 7 4 16 -5 9 -9
23 -14 30 -11z m-320 1 c18 -13 18 -14 -4 -8 -12 3 -25 9 -28 14 -8 14 10 11
32 -6z m73 -23 c14 -11 13 -11 -6 -2 -13 6 -23 18 -22 28 0 14 2 14 6 2 4 -8
13 -21 22 -28z m-112 -4 c-3 -8 -6 -5 -6 6 -1 11 2 17 5 13 3 -3 4 -12 1 -19z
m197 7 c-7 -17 -34 -21 -34 -4 0 5 4 8 9 4 5 -3 12 -1 16 5 9 15 15 12 9 -5z
m-274 -5 c13 7 19 6 23 -4 4 -10 0 -13 -14 -11 -10 2 -19 -1 -19 -6 0 -6 -5
-7 -12 -3 -7 4 -8 3 -4 -4 4 -7 2 -12 -5 -12 -7 0 -10 -3 -7 -6 4 -3 16 0 28
6 15 8 20 8 16 1 -4 -6 -2 -11 3 -11 6 0 11 6 12 13 0 8 2 8 5 1 3 -7 15 -10
27 -7 20 4 21 3 5 -10 -24 -19 -23 -30 2 -17 29 16 43 3 38 -36 -3 -24 0 -34
10 -34 9 0 12 6 8 16 -4 10 -1 14 6 11 7 -2 12 -14 10 -25 -2 -16 2 -22 14
-22 16 0 16 -1 -2 -16 -16 -13 -16 -15 -1 -10 20 6 23 -10 3 -29 -8 -9 -17
-10 -23 -4 -6 6 -10 4 -10 -6 0 -8 6 -15 14 -15 11 0 11 -4 2 -21 -6 -12 -7
-19 -1 -15 11 7 22 -27 17 -55 -2 -10 1 -19 6 -19 6 0 7 -5 4 -10 -5 -8 -11
-8 -20 0 -10 9 -13 7 -11 -7 2 -10 11 -17 19 -17 9 1 15 -3 14 -10 -1 -6 7 -9
18 -8 20 4 44 29 45 47 0 6 -5 3 -10 -5 -6 -9 -10 -10 -10 -3 0 7 6 16 13 20
7 4 21 19 31 33 17 23 17 24 11 3 -3 -13 -1 -31 5 -40 8 -15 9 -14 4 8 -4 21
-1 28 18 34 47 15 48 14 37 -6 -9 -18 -8 -19 10 -7 11 6 19 17 18 22 -1 6 4
10 11 9 6 -2 12 2 12 8 0 5 13 15 30 20 16 6 28 15 25 19 -3 4 5 6 17 2 16 -4
19 -2 13 8 -5 8 -4 11 3 6 6 -3 9 -16 7 -29 -4 -20 -3 -21 9 -4 15 19 31 23
20 5 -6 -10 -4 -10 7 0 18 17 32 15 25 -3 -3 -8 -1 -15 4 -15 6 0 10 -5 10
-11 0 -5 -5 -7 -12 -3 -8 5 -9 0 -6 -14 4 -12 3 -20 -2 -17 -4 3 -11 -7 -15
-22 -5 -22 -8 -24 -17 -12 -7 11 -9 9 -5 -9 4 -18 2 -22 -9 -18 -11 4 -11 0 2
-19 9 -14 12 -25 6 -25 -5 0 -13 8 -16 17 -6 15 -9 14 -19 -7 -7 -14 -24 -31
-37 -38 -20 -10 -21 -12 -5 -10 11 1 25 -1 32 -5 6 -4 14 -3 17 2 3 5 21 6 40
1 19 -4 37 -5 40 -2 3 3 21 6 40 7 18 0 41 9 50 18 23 23 24 22 21 -16 -2 -23
1 -34 10 -34 8 0 12 4 10 8 -3 4 2 10 11 13 8 3 12 2 9 -4 -3 -6 -1 -10 5 -10
7 0 9 -7 6 -17 -6 -15 -4 -14 14 2 11 10 17 21 13 24 -5 3 -9 14 -11 24 -2 12
4 17 20 18 29 2 28 2 63 -7 27 -6 28 -5 17 8 -9 11 -10 18 -2 23 17 10 1 25
-28 26 -29 1 -24 3 21 14 22 4 27 10 23 23 -4 9 8 1 26 -20 23 -25 45 -38 73
-43 43 -8 157 -7 190 1 24 6 60 58 70 102 3 18 10 32 14 32 4 0 26 -16 49 -35
33 -29 41 -42 39 -65 -1 -20 -6 -28 -14 -25 -7 2 -13 -2 -13 -10 0 -9 6 -12
15 -9 8 4 15 1 15 -5 0 -6 15 -11 34 -11 19 0 38 -4 41 -10 3 -5 19 -10 35
-10 16 0 32 -4 35 -10 3 -5 -1 -10 -9 -10 -8 0 -20 -8 -25 -17 -6 -10 -11 -13
-11 -7 0 26 -72 10 -152 -32 -16 -9 -28 -13 -28 -9 0 3 -14 -2 -30 -10 -17 -9
-35 -13 -40 -10 -6 3 -10 2 -10 -2 0 -5 -12 -10 -26 -11 -14 -1 -33 -6 -42
-11 -10 -5 -22 -5 -33 2 -26 16 -38 -2 -14 -20 20 -16 20 -16 0 -8 -11 4 -31
10 -44 13 -20 4 -22 2 -16 -17 5 -16 2 -21 -12 -21 -15 0 -16 -2 -3 -10 12 -7
18 -3 27 18 10 23 18 23 14 0 0 -4 6 -5 14 -2 8 4 15 2 15 -4 0 -9 14 -9 82 2
58 9 63 10 69 19 11 15 59 18 59 4 0 -14 11 -16 118 -20 40 -1 76 3 80 8 4 6
16 9 27 9 11 -1 26 -2 33 -3 7 -1 10 -6 6 -12 -4 -8 -9 -7 -15 2 -6 10 -9 11
-9 2 0 -7 -7 -13 -16 -13 -8 0 -13 -4 -10 -8 2 -4 1 -14 -3 -21 -6 -10 -10 -9
-14 4 -5 10 -3 14 5 9 7 -4 8 -3 4 5 -10 16 -26 4 -19 -14 3 -8 0 -15 -7 -15
-6 0 -8 -4 -5 -10 3 -5 0 -7 -8 -4 -8 3 -17 -2 -21 -11 -3 -10 -11 -13 -18 -9
-9 6 -9 3 1 -9 11 -14 11 -18 -3 -23 -19 -7 -22 -44 -3 -44 6 0 4 -5 -6 -11
-14 -8 -15 -14 -7 -24 8 -10 5 -18 -15 -33 -14 -11 -25 -24 -25 -30 0 -5 -9
-12 -21 -15 -12 -3 -18 -10 -14 -17 4 -7 0 -10 -11 -8 -11 2 -18 -2 -17 -9 3
-12 -9 -17 -29 -14 -5 0 -8 -3 -8 -9 0 -15 53 -25 58 -12 2 7 11 12 20 12 15
0 15 2 2 11 -12 8 -9 10 13 6 15 -2 27 0 27 4 0 5 -5 9 -12 9 -6 0 -1 9 12 20
13 11 18 20 12 20 -7 0 -12 4 -12 10 0 5 7 6 17 3 10 -4 14 -2 9 5 -3 6 -2 14
4 17 6 4 10 3 9 -2 -3 -9 8 -40 23 -68 10 -18 9 -19 -5 -6 -10 7 -17 21 -17
29 0 29 -24 -5 -26 -38 -2 -26 1 -30 24 -30 20 0 23 -3 12 -9 -8 -6 -19 -7
-25 -5 -5 3 -2 -1 8 -9 16 -13 16 -15 2 -21 -12 -4 -14 -10 -5 -26 9 -16 8
-18 -5 -14 -10 4 -15 0 -15 -11 0 -9 4 -13 10 -10 6 4 7 -2 1 -17 -5 -15 -16
-23 -32 -23 -13 0 -24 -5 -24 -10 0 -6 -10 -22 -23 -35 -19 -21 -24 -22 -32
-10 -7 10 -10 11 -10 3 0 -7 -7 -13 -15 -13 -17 0 -21 -16 -5 -22 6 -2 6 -8 0
-18 -8 -12 -12 -13 -19 -2 -11 18 -43 -12 -34 -34 3 -8 2 -14 -3 -13 -5 1 -12
0 -16 -1 -5 -1 -14 -3 -20 -4 -7 -1 -13 -11 -12 -23 0 -12 -3 -20 -8 -17 -4 3
-11 -2 -14 -10 -4 -11 -11 -13 -31 -5 -22 8 -24 7 -18 -13 5 -18 4 -20 -4 -8
-10 13 -12 13 -21 0 -5 -8 -10 -10 -10 -5 0 6 -5 3 -10 -5 -8 -12 -10 -11 -10
7 0 30 -17 38 -30 14 -8 -16 -8 -20 2 -16 7 2 21 -6 30 -19 11 -15 12 -23 5
-23 -7 0 -20 -4 -29 -8 -13 -5 -15 -2 -11 14 7 26 -7 27 -40 1 -14 -11 -30
-20 -37 -20 -6 0 -9 -4 -6 -9 7 -11 -22 -23 -37 -15 -7 3 -4 -1 6 -9 27 -22
20 -37 -18 -37 -21 0 -35 -5 -35 -12 0 -9 -4 -8 -10 2 -8 12 -10 11 -10 -7 0
-13 -4 -23 -10 -23 -5 0 -10 5 -10 10 0 19 -21 10 -32 -15 -13 -28 -30 -34
-22 -7 5 15 4 15 -5 1 -6 -9 -11 -31 -13 -51 -1 -20 -7 -35 -14 -35 -7 0 -11
5 -7 10 3 5 -2 5 -13 -1 -11 -5 -26 -12 -34 -16 -8 -3 -5 -4 8 -2 12 2 22 0
22 -5 0 -5 -7 -9 -15 -9 -8 0 -15 -4 -15 -10 0 -5 -6 -10 -14 -10 -17 0 -28
-38 -14 -47 7 -3 8 -1 4 5 -4 7 -2 12 4 12 6 0 8 5 4 12 -4 7 -3 8 4 4 6 -4 9
-21 7 -39 -3 -18 -3 -26 1 -19 9 18 24 4 17 -16 -3 -9 -13 -26 -22 -36 -12
-15 -13 -20 -3 -23 10 -4 10 -8 1 -19 -9 -11 -6 -16 15 -25 19 -9 23 -15 14
-21 -10 -6 -10 -8 1 -8 8 0 11 -7 8 -20 -4 -17 -2 -20 15 -14 13 4 18 2 14 -4
-3 -6 -2 -14 4 -17 8 -5 8 -11 1 -19 -8 -9 -6 -18 4 -32 8 -10 14 -26 15 -34
0 -24 72 -160 82 -154 4 3 8 1 8 -5 0 -6 7 -7 17 -4 11 4 14 3 9 -5 -4 -7 -3
-12 2 -12 15 0 22 26 9 39 -8 8 -5 11 12 11 12 0 32 5 44 11 18 9 20 9 10 -2
-17 -17 -16 -30 1 -23 7 3 16 -2 20 -11 3 -9 10 -14 15 -11 5 3 11 -4 14 -15
3 -12 10 -18 16 -15 5 4 11 -3 13 -14 2 -12 7 -20 13 -20 9 1 29 -38 27 -53
-1 -4 1 -6 5 -6 5 1 10 0 13 -1 3 -1 15 -3 28 -4 25 -3 30 9 7 18 -8 3 -15 1
-15 -5 0 -5 -6 -4 -14 3 -17 16 -12 27 12 23 9 -1 11 0 4 2 -7 3 -10 9 -7 14
4 5 -1 9 -10 9 -9 0 -13 -4 -10 -10 3 -5 1 -10 -4 -10 -19 0 -12 17 14 34 20
13 25 14 25 3 0 -10 9 -13 28 -11 15 2 21 1 15 -2 -17 -8 -17 -25 0 -18 8 3
20 -2 27 -11 7 -9 9 -15 4 -14 -21 4 -24 -2 -9 -25 10 -15 12 -27 6 -30 -5 -4
-12 -2 -16 4 -8 13 -31 -8 -32 -30 -1 -11 6 -15 25 -14 18 0 27 6 27 17 0 9 5
16 10 14 6 -1 9 -5 7 -9 -1 -5 2 -8 8 -8 15 0 12 16 -5 30 -8 7 -12 16 -9 21
3 5 -1 9 -8 9 -7 0 -2 7 10 16 12 8 28 13 35 11 7 -3 5 -6 -5 -6 -11 -1 -18
-9 -18 -22 0 -11 5 -17 10 -14 6 4 8 10 6 14 -3 4 1 8 8 8 8 0 12 -7 8 -15 -3
-10 -1 -13 6 -8 7 4 27 -5 46 -21 34 -26 34 -28 18 -48 -9 -11 -10 -14 -2 -7
17 14 34 16 25 2 -3 -6 4 -15 17 -20 18 -8 14 -9 -19 -4 -40 5 -43 3 -49 -22
-5 -20 -2 -31 11 -40 23 -17 5 -26 -42 -20 -21 2 -34 -2 -37 -11 -3 -8 -1 -11
4 -8 6 3 10 1 10 -4 0 -15 -27 -14 -33 2 -3 7 -6 5 -6 -5 -1 -11 -8 -16 -20
-13 -19 4 -23 -17 -6 -32 4 -4 5 -2 0 6 -5 10 -4 12 4 7 6 -4 9 -12 6 -17 -4
-5 -1 -9 4 -9 6 0 11 8 11 18 0 14 2 15 10 2 8 -13 10 -12 10 3 0 9 7 17 15
17 8 0 15 6 16 13 0 9 2 9 6 -1 4 -10 10 -9 27 5 21 18 21 18 3 -3 -19 -23
-14 -35 11 -28 10 3 1 -4 -18 -14 -25 -14 -39 -17 -47 -10 -9 7 -14 6 -19 -5
-3 -10 -12 -13 -22 -9 -15 5 -16 4 -2 -13 12 -15 12 -17 1 -10 -11 6 -13 4 -8
-9 4 -10 7 -22 7 -27 0 -6 6 -7 13 -3 8 5 8 3 -2 -9 -7 -9 -18 -14 -25 -10 -6
4 -14 8 -18 8 -11 0 -22 15 -10 15 10 0 22 26 28 58 2 11 -8 16 -27 14 -3 -1
-5 9 -4 22 2 13 -3 23 -10 23 -7 0 -12 -8 -10 -19 6 -27 15 -39 26 -33 5 4 9
-5 9 -19 0 -14 -5 -26 -11 -26 -6 0 -9 7 -6 14 4 9 1 13 -6 10 -14 -5 -17 -64
-4 -64 5 0 6 -4 3 -9 -4 -5 3 -7 14 -4 14 4 20 0 20 -11 0 -9 -5 -16 -11 -16
-5 0 -7 4 -4 10 3 6 -1 7 -10 3 -12 -4 -13 -8 -5 -13 6 -4 12 -11 11 -16 0 -5
9 -8 21 -6 14 1 19 -2 14 -13 -3 -8 0 -14 7 -12 7 1 11 -4 9 -11 -1 -8 2 -11
7 -8 5 3 12 -2 17 -12 8 -20 8 -19 0 -55 -4 -17 -3 -26 3 -23 11 7 8 -20 -4
-31 -4 -4 -5 -3 -2 3 4 6 -5 16 -18 22 -15 7 -25 8 -25 2 0 -6 6 -10 14 -10
10 0 13 -7 11 -20 -2 -11 0 -18 5 -15 6 3 7 -1 4 -9 -3 -9 -11 -16 -17 -16 -6
0 -1 -10 11 -23 19 -18 24 -20 32 -7 5 8 6 18 4 22 -3 5 0 7 7 6 6 -2 14 3 17
11 3 10 -1 13 -15 9 -18 -5 -19 -3 -9 18 8 17 12 19 14 9 2 -8 7 -13 11 -11 4
3 12 -4 19 -15 10 -16 9 -19 -3 -19 -8 0 -15 -5 -15 -11 0 -6 7 -9 14 -6 10 4
13 1 9 -8 -4 -11 -10 -12 -24 -4 -15 7 -19 6 -19 -6 0 -8 -6 -15 -12 -16 -59
-3 -97 -32 -76 -57 8 -9 7 -11 -5 -6 -17 6 -18 28 -3 53 7 11 5 13 -8 8 -11
-5 -15 -3 -10 5 5 8 2 9 -10 5 -9 -4 -14 -3 -11 2 3 5 0 13 -6 16 -6 4 -8 17
-5 29 6 25 -8 54 -18 37 -10 -16 -33 -13 -33 4 0 11 4 12 13 4 9 -8 11 -5 7
12 -3 12 -14 24 -25 26 -10 3 -18 10 -18 15 0 5 4 6 10 3 13 -8 0 26 -17 43
-7 7 -13 22 -13 33 0 27 -19 61 -30 54 -5 -3 -12 0 -16 6 -4 8 -3 9 4 5 17
-10 15 9 -2 24 -8 6 -12 18 -9 26 3 8 0 14 -7 14 -6 0 -9 -4 -6 -8 2 -4 1 -14
-5 -22 -6 -11 -9 -8 -9 13 0 15 -5 27 -11 27 -8 0 -7 6 2 17 9 11 10 14 2 9
-8 -4 -11 -2 -8 7 7 17 -83 100 -101 93 -8 -3 -11 0 -7 10 3 10 0 12 -10 9 -8
-4 -17 1 -20 9 -8 20 -27 21 -27 1 0 -8 -9 -19 -19 -24 -28 -15 -42 7 -24 39
l14 25 -4 -27 c-3 -20 0 -28 10 -28 8 0 13 6 10 13 -2 6 0 22 4 34 6 16 5 21
-5 17 -7 -3 -16 2 -19 10 -7 19 -31 22 -24 4 2 -7 -3 -19 -12 -26 -9 -8 -10
-10 -2 -6 11 5 13 1 9 -20 -4 -22 0 -32 23 -48 15 -12 26 -25 23 -29 -2 -4 7
-6 21 -3 14 2 25 1 26 -3 3 -30 9 -47 21 -54 10 -7 10 -13 2 -27 -13 -21 6
-82 26 -82 6 0 8 5 4 12 -4 6 -3 8 4 5 15 -10 2 -47 -17 -48 -13 -1 -13 -2 2
-6 9 -2 15 -9 12 -14 -4 -5 -1 -9 5 -9 6 0 8 -4 5 -10 -3 -5 -1 -10 5 -10 6 0
8 -4 5 -10 -3 -5 -2 -10 3 -10 5 0 12 -10 16 -22 4 -18 8 -20 18 -10 17 17 26
15 33 -8 4 -11 11 -18 16 -14 5 3 8 2 7 -3 -1 -4 4 -25 12 -45 10 -27 17 -35
26 -28 8 7 15 5 24 -5 10 -12 9 -15 -6 -16 -11 -1 -23 -1 -27 0 -5 1 -6 -3 -2
-9 3 -6 12 -7 18 -3 9 5 9 3 0 -8 -7 -8 -8 -20 -4 -28 7 -11 11 -9 20 5 6 11
11 13 11 6 0 -7 5 -10 12 -6 7 4 8 3 4 -5 -4 -6 -12 -9 -17 -6 -9 6 -12 -3
-12 -37 0 -10 -4 -15 -10 -11 -6 4 -7 1 -3 -6 5 -7 15 -10 25 -6 14 5 14 4 -1
-11 -23 -23 -53 -2 -38 26 14 26 13 29 -10 27 -21 -1 -28 -31 -10 -42 6 -4 7
-13 1 -24 -7 -13 -5 -20 9 -29 14 -9 20 -8 23 1 3 7 10 0 16 -15 12 -32 22
-37 16 -9 -4 19 17 23 32 6 4 -4 3 -5 -4 -1 -6 3 -14 2 -18 -4 -3 -5 2 -10 12
-10 12 -1 8 -5 -12 -15 -16 -7 -25 -14 -18 -14 13 -1 63 -44 63 -55 0 -4 -4
-5 -9 -2 -5 4 -11 0 -14 -6 -3 -7 -10 0 -17 17 -7 17 -14 24 -17 18 -5 -14
-24 -18 -22 -5 3 18 -2 32 -18 48 -17 17 -17 18 0 11 9 -3 17 -2 17 3 0 6 -9
10 -21 10 -11 0 -17 5 -14 10 3 6 1 10 -6 10 -14 0 -49 29 -49 40 0 4 7 7 15
7 8 0 15 -4 15 -9 0 -5 5 -6 11 -2 17 10 -18 26 -63 29 l-38 2 27 -36 28 -36
-30 19 c-49 32 -57 43 -37 52 9 4 20 6 25 6 4 -1 7 2 7 8 0 6 9 6 25 0 15 -6
26 -6 30 0 4 6 -2 10 -12 11 -16 0 -16 1 2 9 16 7 14 8 -12 7 -18 -1 -33 -5
-33 -9 0 -4 -11 -7 -24 -6 -13 1 -22 7 -19 14 2 6 -3 14 -12 18 -14 5 -16 1
-10 -25 5 -20 4 -29 -3 -25 -5 3 -9 20 -8 37 2 28 0 30 -23 24 -20 -4 -22 -3
-11 5 8 5 11 10 6 10 -5 0 -2 8 5 17 12 15 12 16 -3 10 -10 -3 -18 -2 -18 3 0
6 5 10 10 10 6 0 10 8 10 17 0 13 -3 14 -12 5 -7 -7 -21 -12 -33 -12 -16 0
-17 2 -5 9 8 6 18 7 22 5 4 -3 8 2 8 11 0 9 -3 14 -7 12 -5 -3 -18 -1 -30 4
-25 9 -32 49 -9 49 32 0 25 49 -7 50 -5 0 -5 5 -2 10 3 6 1 10 -4 10 -6 0 -11
-5 -11 -11 0 -5 -6 -7 -12 -4 -7 4 -4 -1 6 -9 11 -9 25 -16 30 -17 6 0 2 -4
-9 -8 -22 -9 -57 -3 -50 8 2 4 -4 14 -14 23 -16 13 -20 13 -40 -4 -13 -10 -19
-18 -15 -18 5 0 10 -11 10 -26 2 -23 1 -24 -12 -7 -7 10 -14 24 -14 31 0 6 -4
12 -10 12 -5 0 -10 4 -10 9 0 4 11 8 25 7 13 -1 24 3 24 9 0 5 8 13 18 17 15
7 14 8 -4 4 -16 -3 -23 1 -23 12 0 10 -14 25 -32 35 -23 14 -28 21 -20 29 15
15 15 28 1 28 -5 0 -7 -5 -3 -12 4 -6 3 -8 -4 -4 -6 4 -12 -5 -15 -21 l-4 -28
-2 27 c0 18 6 32 18 40 16 10 18 15 8 27 -9 12 -9 13 1 7 6 -4 12 -3 12 2 0
15 -28 23 -36 10 -4 -7 -3 -8 4 -4 8 5 10 1 5 -9 -4 -13 -8 -14 -13 -4 -5 7
-6 19 -2 27 4 12 -1 14 -22 10 -19 -4 -29 -1 -33 9 -5 12 -7 12 -14 1 -6 -10
-11 -10 -20 -1 -18 18 14 28 41 13 12 -6 24 -9 28 -6 3 3 -1 6 -8 6 -7 0 -10
3 -7 6 3 4 1 16 -5 28 -10 18 -9 19 4 9 8 -7 18 -10 22 -6 4 4 4 0 1 -9 -4 -9
-2 -19 3 -22 8 -5 9 13 3 47 0 4 -11 8 -23 8 -17 1 -19 2 -5 6 9 2 17 12 17
21 0 15 -2 15 -11 2 -9 -12 -10 -11 -6 7 3 12 0 24 -7 26 -18 7 -52 -26 -48
-45 2 -13 -3 -18 -19 -18 -22 0 -22 0 -3 14 18 14 18 15 2 21 -10 4 -18 14
-18 22 0 8 -4 11 -10 8 -5 -3 -10 -1 -10 6 0 6 -8 19 -18 28 -10 9 -21 25 -25
36 -7 20 -7 20 8 1 8 -11 15 -15 15 -8 0 7 7 9 17 5 13 -5 15 -2 10 11 -4 10
-7 25 -7 34 0 14 -2 15 -9 2 -6 -8 -7 -18 -5 -22 3 -4 0 -8 -6 -8 -7 0 -10 6
-7 14 3 8 -1 17 -9 20 -8 3 -18 16 -23 28 -7 18 -4 25 13 35 20 11 20 12 -7
18 -22 6 -27 12 -24 26 3 11 1 17 -4 13 -5 -3 -9 4 -9 15 0 10 6 21 13 24 10
4 10 7 0 18 -7 7 -13 18 -13 23 0 6 5 3 11 -8 9 -15 13 -16 20 -5 4 8 14 14
21 14 7 0 13 14 14 33 1 28 -2 32 -25 32 -14 0 -21 -4 -15 -8 6 -4 13 -15 17
-24 5 -14 1 -18 -15 -18 -16 0 -18 3 -9 14 9 10 8 15 -4 20 -8 3 -15 1 -15 -4
0 -6 -5 -10 -12 -10 -6 0 -3 10 8 21 19 21 19 22 -3 15 -17 -6 -23 -3 -23 8 0
10 6 13 18 10 14 -5 14 -3 -2 10 -12 9 -15 16 -7 16 9 0 8 5 -3 16 -20 20 -20
20 5 20 16 0 20 -5 16 -24 -3 -16 0 -22 8 -18 7 2 15 -4 18 -15 3 -10 11 -19
17 -19 10 0 10 3 1 14 -9 11 -8 15 4 20 14 5 14 8 3 20 -9 9 -13 30 -11 62 5
75 4 99 -7 102 -6 2 -10 10 -10 18 0 8 -4 14 -8 14 -5 0 -9 6 -9 13 0 6 -3 22
-7 35 -4 13 -3 22 3 22 7 0 7 8 2 23 -23 59 -21 90 7 116 25 23 26 24 4 19
-12 -3 -22 -2 -22 3 0 5 11 9 24 9 24 0 32 13 42 70 9 47 10 65 5 75 -3 6 1 3
10 -7 15 -15 18 -16 23 -2 4 10 2 13 -6 8 -8 -5 -9 -2 -5 10 5 11 3 15 -5 10
-8 -5 -9 -2 -5 10 4 10 3 15 -3 11 -14 -9 -29 37 -19 57 6 11 4 18 -6 21 -9 4
-12 1 -9 -7 3 -8 1 -17 -5 -21 -6 -3 -11 1 -11 11 0 13 -3 14 -14 4 -15 -12
-11 -44 4 -35 5 3 3 -6 -3 -19 -7 -14 -20 -27 -29 -30 -15 -3 -16 -1 -7 15 6
12 6 19 0 19 -5 0 -8 13 -6 30 2 16 0 32 -5 35 -6 4 -7 -2 -3 -12 4 -12 3 -15
-5 -8 -16 15 -19 60 -4 57 10 -2 10 2 2 18 -6 11 -8 20 -5 20 4 0 3 5 -1 11
-4 8 -9 7 -16 -2 -6 -10 -7 -7 -3 9 4 15 2 22 -7 22 -10 0 -9 3 2 10 8 5 10
10 5 10 -6 0 -11 9 -11 20 0 11 3 20 7 20 4 0 9 9 12 20 3 11 1 17 -4 14 -5
-3 -15 8 -22 25 -7 17 -15 29 -18 27 -3 -3 -6 5 -6 17 -1 12 -7 23 -12 25 -5
2 -7 10 -4 18 3 7 9 11 14 8 13 -7 11 18 -2 36 -9 13 -10 12 -5 -2 9 -31 -18
-20 -32 12 -8 17 -21 30 -30 30 -13 0 -14 2 -4 9 10 6 10 10 -3 21 -11 9 -12
15 -5 20 7 4 1 16 -14 33 -14 15 -27 23 -30 19 -6 -11 5 -28 24 -35 11 -4 10
-6 -5 -6 -17 -1 -17 -3 -5 -11 8 -5 10 -10 4 -10 -21 0 -36 29 -39 75 -1 25 1
45 5 45 4 0 5 11 2 25 -2 14 1 32 8 40 9 10 9 15 1 15 -14 0 -9 33 8 53 10 12
10 17 -1 24 -14 9 -21 43 -8 43 4 0 5 11 2 25 -3 18 0 25 11 25 9 0 19 -4 22
-10 3 -5 1 -10 -5 -10 -6 0 -8 -5 -4 -12 5 -8 11 -6 20 6 7 10 18 15 26 11 7
-3 3 2 -9 13 -13 11 -23 29 -23 40 0 15 -5 19 -20 15 -27 -7 -25 12 2 31 12 9
18 16 11 16 -13 0 -2 60 12 63 6 1 11 -11 13 -27 3 -21 0 -26 -10 -21 -10 6
-11 5 0 -6 6 -7 12 -21 12 -31 0 -10 5 -18 10 -18 6 0 10 5 10 11 0 5 4 8 9 4
5 -3 12 -1 16 5 3 5 0 10 -7 11 -7 0 -4 5 7 10 17 8 16 9 -8 5 -15 -2 -26 -1
-23 1 2 3 0 19 -5 36 -6 22 -5 33 4 39 8 5 5 8 -9 8 -11 0 -25 -5 -32 -10 -6
-6 -10 -7 -7 -4 3 4 -1 14 -8 22 -8 11 -8 14 0 9 6 -4 15 -3 18 3 5 8 11 7 21
-1 8 -7 14 -7 14 -1 0 13 -26 23 -45 16 -24 -10 -19 42 6 59 11 8 17 17 12 20
-8 5 -9 26 -4 76 1 8 7 11 18 7 16 -6 16 -5 0 12 -10 11 -17 26 -15 33 4 19
22 39 26 28 2 -5 11 -5 22 1z m490 0 c0 -5 -5 -10 -11 -10 -5 0 -7 5 -4 10 3
6 8 10 11 10 2 0 4 -4 4 -10z m-375 -18 c-3 -3 -11 0 -18 7 -9 10 -8 11 6 5
10 -3 15 -9 12 -12z m52 -10 c-10 -10 -14 -22 -10 -27 5 -4 2 -5 -5 -1 -11 6
-10 12 4 27 9 10 19 19 22 19 3 0 -2 -8 -11 -18z m206 -7 c-7 -21 -12 -19 -10
4 0 11 5 18 9 15 4 -3 5 -11 1 -19z m-934 -1 c2 -2 -3 -4 -11 -4 -25 0 -10
-37 18 -44 13 -4 31 -21 40 -39 9 -17 26 -38 36 -45 14 -11 16 -17 8 -27 -11
-13 -38 -10 -50 5 -18 22 -73 50 -101 52 -19 1 -40 6 -46 11 -9 6 -18 5 -26
-2 -15 -12 -27 -5 -27 16 0 7 7 13 15 13 9 0 19 9 23 20 15 41 92 69 121 44z
m681 -8 c0 -3 -4 -8 -10 -11 -5 -3 -10 -1 -10 4 0 6 5 11 10 11 6 0 10 -2 10
-4z m1580 -37 c0 -5 -4 -9 -8 -9 -5 0 -9 7 -9 15 0 8 4 12 9 9 4 -3 8 -9 8
-15z m-1540 -4 c0 -8 -4 -15 -10 -15 -5 0 -7 7 -4 15 4 8 8 15 10 15 2 0 4 -7
4 -15z m440 -68 c0 -5 8 -6 18 -3 12 4 11 1 -6 -13 -13 -11 -20 -26 -16 -34 3
-10 -3 -20 -18 -28 -13 -6 -27 -17 -31 -23 -5 -7 -7 -3 -5 9 2 15 -2 19 -17
17 -18 -2 -18 -1 -3 8 11 7 15 17 11 28 -6 14 -4 15 8 5 8 -7 20 -8 28 -4 9 6
7 10 -10 14 -18 5 -20 9 -10 21 13 16 51 18 51 3z m134 -2 c-4 -8 -10 -15 -16
-15 -5 0 -7 4 -4 9 4 5 0 12 -6 14 -7 3 -3 6 9 6 16 1 21 -3 17 -14z m266 -5
c13 -9 13 -11 0 -20 -8 -5 -25 -10 -37 -10 -13 0 -23 -4 -23 -10 0 -5 -9 -10
-20 -10 -11 0 -20 -4 -20 -8 0 -12 -53 -7 -58 6 -4 14 35 35 49 26 6 -4 14 -2
18 2 7 11 51 32 66 33 6 0 17 -4 25 -9z m149 -14 c25 -16 8 -26 -34 -22 -54 6
-73 15 -54 27 15 10 69 6 88 -5z m-972 -58 c-3 -8 -6 -5 -6 6 -1 11 2 17 5 13
3 -3 4 -12 1 -19z m-687 2 c0 -5 -5 -10 -11 -10 -5 0 -7 5 -4 10 3 6 8 10 11
10 2 0 4 -4 4 -10z m60 -5 c10 -12 9 -15 -7 -15 -11 0 -20 7 -20 15 0 8 4 15
7 15 4 0 13 -7 20 -15z m1585 -18 c13 -10 15 -16 6 -21 -17 -11 -41 0 -41 19
0 19 11 19 35 2z m-1645 -22 c0 -23 17 -69 33 -90 39 -52 82 -95 91 -92 16 5
34 -16 28 -32 -7 -17 -81 -91 -92 -91 -4 0 -10 -11 -12 -25 -5 -23 2 -30 25
-26 4 1 3 -7 -2 -18 -6 -10 -7 -21 -4 -25 3 -3 2 -6 -4 -6 -14 0 -10 -97 5
-112 8 -8 17 -7 36 6 31 20 56 21 56 1 0 -29 20 -15 39 28 11 23 30 56 43 73
22 30 24 30 48 15 16 -10 24 -23 22 -33 -2 -11 3 -18 13 -18 9 0 13 4 10 10
-3 6 1 7 10 3 12 -4 13 -8 5 -13 -17 -10 4 -22 24 -14 18 7 20 -3 7 -25 -11
-17 -51 -5 -51 15 0 22 -16 17 -17 -6 -1 -11 3 -19 9 -17 6 1 12 -9 13 -22 1
-14 7 -27 14 -29 6 -2 8 -9 4 -15 -4 -6 0 -8 10 -4 9 3 19 2 22 -4 4 -5 3 -9
-2 -8 -24 4 -22 -4 7 -37 29 -34 30 -37 15 -54 -16 -18 -16 -21 1 -59 9 -22
20 -38 24 -36 4 2 7 -2 7 -10 0 -8 -4 -15 -8 -15 -5 0 -6 -7 -3 -15 4 -8 11
-12 16 -9 6 4 5 -2 -1 -14 -8 -14 -8 -23 -1 -27 6 -4 9 -13 8 -20 -2 -8 6 -21
17 -29 12 -9 15 -15 7 -16 -7 0 -10 -5 -7 -10 4 -6 11 -8 16 -5 9 6 13 -20 10
-70 -1 -21 1 -26 7 -16 7 10 11 10 17 1 4 -7 1 -16 -6 -21 -10 -6 -11 -9 -1
-9 8 0 10 -9 6 -27 -4 -22 -3 -25 5 -13 7 10 11 11 11 3 0 -23 -4 -28 -20 -25
-12 2 -12 1 -1 -6 7 -6 10 -15 7 -21 -4 -6 0 -11 11 -12 16 0 16 -1 -2 -9 -14
-6 -15 -9 -5 -9 12 -1 15 -13 15 -50 0 -53 -7 -57 -67 -33 -14 6 -51 8 -82 5
-119 -12 -269 42 -359 131 -54 54 -121 173 -133 237 -4 19 -15 45 -26 58 -20
26 -24 51 -8 51 6 0 13 -13 17 -30 3 -16 12 -30 19 -30 8 0 14 -4 14 -10 0 -5
14 -23 31 -40 27 -25 35 -28 47 -17 13 9 14 9 8 0 -4 -8 -1 -13 8 -13 9 0 19
12 22 26 5 21 1 31 -22 50 -16 13 -33 23 -37 24 -5 0 -22 9 -37 20 -42 30 -83
150 -84 247 -2 87 8 184 24 258 6 28 13 79 15 115 2 36 4 70 5 75 0 6 14 34
30 63 24 41 36 52 55 52 20 0 25 -5 25 -25z m1270 21 c0 -3 -4 -8 -10 -11 -5
-3 -10 -1 -10 4 0 6 5 11 10 11 6 0 10 -2 10 -4z m47 -2 c-3 -3 -12 -4 -19 -1
-8 3 -5 6 6 6 11 1 17 -2 13 -5z m243 -3 c0 -14 -18 -23 -30 -16 -6 4 -8 11
-5 16 8 12 35 12 35 0z m-1858 -131 c-2 -16 -6 -30 -8 -30 -2 0 -4 14 -4 30 0
17 4 30 8 30 5 0 7 -13 4 -30z m2345 -37 c-4 -3 -1 -13 6 -21 10 -13 9 -14 -3
-7 -8 6 -19 10 -24 10 -5 0 -11 6 -13 13 -3 7 4 12 18 12 12 0 19 -3 16 -7z
m-1853 -25 c-3 -5 0 -16 8 -25 9 -12 9 -15 1 -9 -8 4 -13 2 -13 -6 0 -7 -7 0
-15 16 -20 38 -19 45 5 39 11 -3 17 -9 14 -15z m-504 -9 c0 -6 -4 -7 -10 -4
-5 3 -10 11 -10 16 0 6 5 7 10 4 6 -3 10 -11 10 -16z m0 -65 c0 -8 -4 -12 -10
-9 -5 3 -10 10 -10 16 0 5 5 9 10 9 6 0 10 -7 10 -16z m536 -13 c-4 -6 -14
-11 -22 -11 -12 0 -12 3 -2 20 7 11 16 16 21 11 5 -5 6 -14 3 -20z m-516 -61
c0 -10 3 -25 6 -34 3 -9 1 -16 -5 -16 -6 0 -11 9 -11 21 0 11 -5 29 -10 39 -8
16 -8 18 5 14 8 -4 15 -14 15 -24z m57 -2 c-3 -8 -6 -5 -6 6 -1 11 2 17 5 13
3 -3 4 -12 1 -19z m23 -33 c0 -8 -4 -15 -8 -15 -5 0 -9 7 -9 15 0 8 4 15 9 15
4 0 8 -7 8 -15z m-24 -87 c3 -13 13 -31 22 -40 8 -10 11 -18 6 -18 -5 0 -3 -4
3 -8 7 -4 14 -28 17 -52 2 -25 11 -69 19 -98 8 -29 11 -55 7 -57 -8 -5 -27 43
-55 135 -9 30 -23 67 -31 82 -16 29 -19 78 -5 78 5 0 13 -10 17 -22z m2128
-48 c-6 -6 -10 -3 -10 10 0 13 4 16 10 10 7 -7 7 -13 0 -20z m-1495 -40 c11
-24 11 -24 -3 -6 -9 11 -16 24 -16 30 0 12 5 7 19 -24z m-32 14 c-3 -3 -12 -4
-19 -1 -8 3 -5 6 6 6 11 1 17 -2 13 -5z m93 -48 c0 -2 -7 -7 -16 -10 -8 -3
-12 -2 -9 4 6 10 25 14 25 6z m1651 -31 c5 4 9 1 9 -4 0 -6 8 -11 19 -11 10 0
25 -7 32 -17 13 -15 12 -15 -8 -4 -15 7 -23 8 -23 1 0 -5 -9 -1 -20 10 -24 24
-42 26 -33 4 5 -14 3 -15 -15 -5 -11 6 -27 8 -35 5 -8 -3 -18 -1 -22 5 -3 7 0
8 9 5 9 -3 16 -1 16 6 0 7 8 9 20 5 15 -5 20 -2 20 12 1 17 1 17 11 0 6 -9 14
-15 20 -12z m-1661 -5 c0 -5 -5 -10 -11 -10 -5 0 -7 5 -4 10 3 6 8 10 11 10 2
0 4 -4 4 -10z m1507 -16 c-3 -3 -12 -4 -19 -1 -8 3 -5 6 6 6 11 1 17 -2 13 -5z
m125 -43 c10 0 10 2 1 6 -7 2 -13 9 -13 14 0 6 8 5 20 -1 11 -6 20 -8 20 -5 0
4 5 3 11 -1 7 -4 -2 -12 -21 -20 -29 -13 -34 -12 -47 3 -13 16 -14 16 -9 1 3
-9 -2 -19 -10 -22 -24 -9 -44 -7 -44 5 0 6 7 9 14 6 10 -4 13 -1 10 8 -3 7 3
16 15 20 12 3 21 12 22 18 0 7 4 2 9 -10 5 -13 15 -23 22 -22z m38 35 c0 -3
-4 -8 -10 -11 -5 -3 -10 -1 -10 4 0 6 5 11 10 11 6 0 10 -2 10 -4z m-157 -31
c-3 -8 -13 -15 -22 -15 -14 0 -14 2 -1 10 13 9 13 10 0 10 -13 0 -13 2 0 9 18
12 31 5 23 -14z m212 -5 c3 -5 -1 -10 -9 -10 -9 0 -16 5 -16 10 0 6 4 10 9 10
6 0 13 -4 16 -10z m-195 -24 c0 -3 -4 -8 -10 -11 -5 -3 -10 -1 -10 4 0 6 5 11
10 11 6 0 10 -2 10 -4z m130 0 c0 -2 -7 -7 -16 -10 -8 -3 -12 -2 -9 4 6 10 25
14 25 6z m-52 -20 c-7 -8 -15 -12 -17 -11 -5 6 10 25 20 25 5 0 4 -6 -3 -14z
m-168 -37 c11 -7 12 -12 3 -15 -7 -3 -9 -12 -6 -20 3 -9 -1 -14 -12 -14 -9 0
-13 4 -10 10 3 5 1 19 -5 30 -12 23 4 28 30 9z m-1420 -73 c0 -2 -8 -10 -17
-17 -16 -13 -17 -12 -4 4 13 16 21 21 21 13z m1840 -31 c0 -5 -5 -3 -10 5 -5
8 -10 20 -10 25 0 6 5 3 10 -5 5 -8 10 -19 10 -25z m-320 -132 c0 -19 -13 -9
-16 12 -1 8 2 13 7 9 5 -3 9 -12 9 -21z m36 12 c-8 -8 -18 -15 -22 -15 -3 0
-1 7 6 15 7 8 17 15 22 15 5 0 3 -7 -6 -15z m20 -14 c-4 -5 -1 -11 6 -13 8 -3
6 -7 -5 -11 -17 -6 -24 12 -10 26 9 10 15 8 9 -2z m-656 -155 c0 -3 -4 -8 -10
-11 -5 -3 -10 -1 -10 4 0 6 5 11 10 11 6 0 10 -2 10 -4z m-730 -91 c0 -5 -5
-3 -10 5 -5 8 -10 20 -10 25 0 6 5 3 10 -5 5 -8 10 -19 10 -25z m17 -21 c-3
-3 -12 -4 -19 -1 -8 3 -5 6 6 6 11 1 17 -2 13 -5z m-22 -44 c3 -5 1 -10 -4
-10 -6 0 -11 5 -11 10 0 6 2 10 4 10 3 0 8 -4 11 -10z m1224 -241 c-11 -22
-15 -23 -25 -7 -4 6 -3 8 3 5 16 -10 23 18 10 34 -10 11 -9 11 5 0 14 -10 15
-18 7 -32z m81 16 c9 5 11 4 6 -3 -8 -14 -46 -16 -46 -4 0 16 14 22 21 11 4
-6 12 -8 19 -4z m-182 -13 c2 -7 -2 -10 -12 -6 -9 3 -16 11 -16 16 0 13 23 5
28 -10z m-308 -12 c0 -5 -2 -10 -4 -10 -3 0 -8 5 -11 10 -3 6 -1 10 4 10 6 0
11 -4 11 -10z m289 -7 c-1 -5 0 -10 1 -13 10 -19 4 -60 -8 -60 -10 0 -12 -7
-8 -25 5 -19 3 -23 -9 -19 -8 4 -21 1 -28 -4 -9 -8 -17 -8 -27 0 -13 8 -12 9
2 5 9 -3 24 3 34 14 22 24 3 26 -40 4 -22 -11 -26 -12 -17 -2 6 8 7 17 3 21
-4 5 0 7 8 6 8 -1 28 -2 43 -1 23 1 27 5 22 20 -3 11 -1 22 4 25 6 4 8 13 4
21 -3 8 0 15 6 15 6 0 10 -3 10 -7z m-1109 -22 c0 -5 3 -16 6 -25 3 -9 2 -16
-4 -16 -5 0 -12 11 -14 25 -3 14 -1 25 3 25 5 0 9 -4 9 -9z m1240 5 c0 -2 -7
-7 -16 -10 -8 -3 -12 -2 -9 4 6 10 25 14 25 6z m-213 -13 c-4 -3 -2 -12 4 -20
7 -8 8 -13 1 -13 -12 0 -23 26 -15 34 4 3 9 6 11 6 3 0 2 -3 -1 -7z m331 -6
c8 -9 7 -16 -6 -23 -14 -9 -17 -7 -18 12 -2 27 8 31 24 11z m-188 -15 c0 -11
-7 -18 -20 -18 -18 0 -18 2 -3 18 9 10 18 18 20 18 1 0 3 -8 3 -18z m-190 2
c0 -8 -19 -13 -24 -6 -3 5 1 9 9 9 8 0 15 -2 15 -3z m-75 -44 c-3 -5 -10 -10
-16 -10 -5 0 -9 5 -9 10 0 6 7 10 16 10 8 0 12 -4 9 -10z m279 -10 c-5 -5 -23
-5 -44 0 l-35 10 38 -5 c23 -2 37 0 37 7 0 6 3 8 7 5 4 -4 2 -11 -3 -17z
m-197 -26 c-3 -3 -12 -4 -19 -1 -8 3 -5 6 6 6 11 1 17 -2 13 -5z m-322 -74 c3
-5 1 -10 -4 -10 -6 0 -11 5 -11 10 0 6 2 10 4 10 3 0 8 -4 11 -10z m5 -91 c0
-13 -47 -11 -56 2 -4 8 0 9 15 4 13 -4 21 -2 21 5 0 6 5 8 10 5 6 -3 10 -10
10 -16z m522 4 c34 -40 32 -85 -3 -76 -26 7 -38 32 -32 66 6 31 14 34 35 10z
m-1162 -238 c0 -8 -2 -15 -4 -15 -2 0 -6 7 -10 15 -3 8 -1 15 4 15 6 0 10 -7
10 -15z m915 5 c3 -5 2 -10 -4 -10 -5 0 -13 5 -16 10 -3 6 -2 10 4 10 5 0 13
-4 16 -10z m142 -84 c-4 -10 -1 -13 8 -9 8 3 12 10 9 15 -4 6 3 5 15 -2 12 -6
19 -15 16 -21 -4 -5 -1 -9 5 -9 14 0 -18 -34 -34 -35 -13 -2 -41 26 -41 40 0
12 14 35 22 35 3 0 3 -7 0 -14z m126 -9 c7 4 5 -2 -3 -12 -9 -11 -10 -16 -2
-11 6 4 12 2 12 -3 0 -20 35 -11 45 12 7 14 17 21 30 19 23 -4 56 -32 38 -32
-7 0 -15 5 -18 10 -4 6 -11 8 -16 4 -6 -4 -6 -11 2 -20 8 -10 8 -14 0 -14 -17
0 -13 -37 5 -44 19 -7 9 -26 -14 -25 -14 0 -13 2 3 8 l20 8 -20 6 c-11 3 -37
5 -57 4 -20 -1 -36 2 -35 7 1 6 -7 11 -18 13 -15 3 -17 2 -6 -5 9 -7 10 -12 2
-16 -6 -4 -11 -3 -11 3 0 5 -7 16 -15 24 -13 13 -13 16 0 21 8 3 15 0 15 -5 0
-6 9 -9 20 -6 11 3 20 1 20 -4 0 -5 8 -9 18 -9 16 1 15 2 -2 15 -10 8 -23 12
-28 9 -8 -5 -38 19 -38 30 0 3 7 6 15 6 8 0 15 6 16 13 0 9 2 9 6 -1 2 -6 10
-9 16 -5z m224 -1 c-3 -8 -1 -16 6 -19 6 -2 4 -6 -6 -10 -12 -4 -17 -1 -17 11
0 15 -2 15 -10 2 -5 -8 -10 -10 -10 -4 0 12 21 34 33 34 5 0 7 -6 4 -14z
m-1237 -50 c0 -2 -7 -9 -15 -16 -13 -11 -14 -10 -9 4 5 14 24 23 24 12z m383
-27 c-8 -8 -13 -7 -18 2 -5 8 -4 10 3 5 7 -4 12 -2 12 5 0 7 3 9 7 6 4 -4 2
-12 -4 -18z m967 4 c12 10 12 9 2 -4 -13 -17 -52 -15 -52 3 0 5 8 5 18 -1 13
-7 23 -6 32 2z m39 -20 c-3 -20 2 -24 16 -13 17 14 45 7 44 -12 0 -10 -2 -10
-6 0 -2 6 -9 12 -14 12 -4 0 -6 -7 -3 -15 5 -12 1 -13 -27 -3 -44 14 -46 17
-29 28 18 12 20 12 19 3z m-450 -30 c-6 -7 -15 -13 -20 -13 -5 0 -6 6 -3 13 3
8 11 14 19 14 11 0 12 -4 4 -14z m-86 -62 c3 -13 0 -18 -7 -15 -7 3 -13 11
-13 19 0 22 14 18 20 -4z m-43 -112 c0 -6 -4 -8 -9 -5 -5 4 -11 3 -14 -1 -2
-5 -2 -2 0 5 1 8 -3 23 -11 34 -14 19 -14 19 -25 1 -9 -16 -10 -16 -11 -1 0
27 23 28 48 2 12 -14 22 -30 22 -35z m-691 19 c12 -3 12 -6 -2 -11 -9 -3 -17
-2 -17 3 0 6 -8 10 -17 11 -11 0 -13 3 -5 6 6 2 10 10 6 16 -3 7 0 5 8 -4 7
-9 20 -18 27 -21z m-200 -5 c8 -16 8 -24 -1 -29 -6 -4 -8 -3 -4 4 9 15 -7 23
-24 11 -11 -6 -12 -9 -2 -9 7 0 10 -4 7 -10 -3 -5 -1 -10 5 -10 7 0 8 -6 1
-19 -12 -22 -5 -31 26 -31 13 0 22 -4 18 -10 -3 -5 -12 -7 -19 -4 -7 3 -16 -2
-19 -10 -6 -14 4 -21 26 -17 12 2 8 -11 -8 -23 -13 -9 -9 -11 18 -10 31 2 34
0 30 -25 -2 -14 -5 -35 -6 -46 -1 -11 -6 -23 -10 -26 -5 -3 0 -9 11 -12 18 -4
20 -2 11 20 -6 18 -6 22 3 17 8 -5 9 -2 5 10 -4 11 -3 15 4 11 6 -4 8 -13 5
-20 -3 -9 3 -15 16 -17 12 -2 24 -10 26 -18 4 -12 3 -13 -10 -2 -13 10 -15 9
-10 -13 2 -14 9 -25 14 -25 5 0 6 5 2 12 -4 7 -3 8 5 4 6 -4 9 -11 6 -16 -3
-5 -1 -11 5 -15 5 -3 10 -11 10 -17 0 -6 -7 -5 -17 3 -16 13 -17 12 -4 -4 13
-16 15 -16 32 -1 17 15 18 15 13 -10 -3 -17 1 -28 10 -32 11 -4 13 -12 5 -30
-6 -18 -6 -23 3 -18 6 4 8 3 4 -4 -5 -9 -25 -10 -66 -3 -3 1 2 6 10 11 13 8
12 10 -3 10 -10 0 -15 5 -12 10 3 6 -1 11 -9 11 -9 1 -22 2 -28 3 -7 1 -12 11
-12 23 1 13 -2 20 -7 18 -12 -8 -60 44 -62 66 -1 11 -5 19 -9 19 -4 0 -8 5 -8
10 0 6 7 10 17 10 15 0 14 2 -2 20 -9 10 -22 18 -27 17 -6 -1 -12 14 -14 33
-7 55 -9 64 -18 78 -4 7 -5 24 -2 38 4 14 3 30 -1 37 -15 24 -11 37 12 37 13
0 27 5 30 11 8 12 8 12 24 -18z m515 8 c3 -5 -1 -14 -9 -21 -11 -9 -14 -8 -12
9 1 22 12 28 21 12z m586 -11 c0 -5 -5 -10 -11 -10 -5 0 -7 5 -4 10 3 6 8 10
11 10 2 0 4 -4 4 -10z m-880 -30 c0 -4 -9 -6 -21 -3 -15 4 -17 8 -8 14 14 8
29 3 29 -11z m890 -5 c5 3 7 -3 5 -12 -4 -27 7 -39 17 -17 7 18 8 18 7 -1 -1
-11 -1 -23 0 -27 0 -5 1 -11 0 -14 0 -4 5 -10 11 -14 9 -5 10 -16 4 -32 l-9
-25 -23 24 c-14 14 -18 23 -10 23 10 0 9 3 -1 9 -8 5 -16 17 -17 25 -1 9 2 14
7 10 5 -3 8 4 6 15 -3 22 -17 41 -17 24 0 -6 -12 -10 -27 -10 l-28 0 28 11
c15 5 27 15 28 20 0 6 3 5 6 -2 2 -6 8 -10 13 -7z m-1085 -35 c-3 -5 -16 -10
-28 -9 -20 1 -20 2 3 9 14 4 26 8 28 9 2 1 0 -3 -3 -9z m1050 0 c3 -5 -1 -10
-10 -10 -9 0 -13 5 -10 10 3 6 8 10 10 10 2 0 7 -4 10 -10z m-805 -21 c0 -5 5
-7 12 -3 6 4 3 -5 -8 -19 -10 -15 -22 -27 -26 -27 -14 0 -9 12 10 26 10 8 12
13 5 14 -15 0 -18 20 -3 20 6 0 10 -5 10 -11z m805 -17 c-3 -3 -11 0 -18 7 -9
10 -8 11 6 5 10 -3 15 -9 12 -12z m-771 -17 c-4 -8 -13 -15 -22 -15 -13 0 -12
3 4 15 24 18 25 18 18 0z m786 -1 c0 -8 -19 -13 -24 -6 -3 5 1 9 9 9 8 0 15
-2 15 -3z m-753 -33 c7 0 10 -8 6 -17 -4 -12 -8 -13 -13 -3 -5 6 -17 9 -29 6
-13 -3 -21 0 -21 8 0 7 10 11 23 10 12 -1 27 -3 34 -4z m36 -50 c5 -1 6 -5 2
-10 -3 -6 -14 -9 -25 -8 -10 1 -17 4 -14 8 2 4 -2 10 -8 13 -7 2 -2 3 12 1 14
-2 29 -4 33 -4z m611 -3 c-3 -4 -9 -8 -15 -8 -5 0 -9 4 -9 8 0 5 7 9 15 9 8 0
12 -4 9 -9z m-599 -28 c-3 -5 -12 -10 -18 -10 -7 0 -6 4 3 10 19 12 23 12 15
0z m595 -20 c0 -5 -8 -10 -17 -10 -15 0 -16 2 -3 10 19 12 20 12 20 0z m-56
-22 c-1 -13 -3 -27 -3 -33 -1 -5 -6 -2 -12 8 -6 9 -15 15 -20 12 -5 -4 -6 -11
-3 -17 4 -7 2 -8 -4 -4 -7 4 -12 1 -12 -6 0 -8 -11 -15 -25 -16 -14 -1 -25 3
-25 8 0 6 7 10 16 10 8 0 13 4 9 10 -3 5 -13 6 -23 3 -16 -6 -16 -6 0 10 9 9
25 17 35 16 17 0 17 -1 -1 -8 -17 -6 -17 -8 -3 -14 8 -3 21 1 27 8 7 8 16 13
20 10 4 -3 10 2 14 10 8 22 13 18 10 -7z m56 -9 c11 -8 12 -12 2 -16 -6 -2 -9
-10 -5 -16 3 -7 2 -8 -3 -4 -5 5 -9 12 -9 15 0 4 -4 13 -8 20 -10 15 3 16 23
1z m284 -14 c-4 -8 -11 -15 -16 -15 -6 0 -5 6 2 15 7 8 14 15 16 15 2 0 1 -7
-2 -15z m-651 -10 c-3 -9 -8 -14 -10 -11 -3 3 -2 9 2 15 9 16 15 13 8 -4z m69
-57 c-6 -6 -12 -6 -17 3 -5 8 -4 10 3 5 7 -4 12 0 13 11 0 12 2 13 6 5 3 -8 1
-18 -5 -24z m578 22 c-8 -5 -19 -10 -25 -10 -5 0 -3 5 5 10 8 5 20 10 25 10 6
0 3 -5 -5 -10z m70 0 c-8 -5 -17 -7 -21 -4 -4 2 -10 0 -14 -6 -3 -5 -11 -10
-18 -10 -19 0 24 26 46 27 17 2 18 0 7 -7z m-398 -6 c9 -9 -3 -44 -13 -38 -5
3 -7 10 -4 15 4 5 1 9 -4 9 -6 0 -11 5 -11 10 0 11 23 14 32 4z m-337 -72 c-3
-3 -11 0 -18 7 -9 10 -8 11 6 5 10 -3 15 -9 12 -12z m-415 -36 c0 -3 -4 -8
-10 -11 -5 -3 -10 -1 -10 4 0 6 5 11 10 11 6 0 10 -2 10 -4z m593 -87 c-9 -9
-12 -7 -10 9 1 14 5 18 11 12 7 -7 6 -14 -1 -21z m722 11 c3 -6 -1 -7 -9 -4
-18 7 -21 14 -7 14 6 0 13 -4 16 -10z m-635 -56 c0 -8 -19 -13 -24 -6 -3 5 1
9 9 9 8 0 15 -2 15 -3z m110 -58 c0 -3 -4 -8 -10 -11 -5 -3 -10 -1 -10 4 0 6
5 11 10 11 6 0 10 -2 10 -4z m40 -31 c7 -8 8 -15 2 -15 -5 0 -15 7 -22 15 -7
8 -8 15 -2 15 5 0 15 -7 22 -15z m680 -105 c0 -5 -4 -10 -10 -10 -5 0 -10 5
-10 10 0 6 5 10 10 10 6 0 10 -4 10 -10z m-90 -761 c0 -6 -4 -7 -10 -4 -5 3
-10 11 -10 16 0 6 5 7 10 4 6 -3 10 -11 10 -16z m-60 -3 c0 -11 -19 -15 -25
-6 -3 5 1 10 9 10 9 0 16 -2 16 -4z m50 -31 c0 -12 -19 -12 -23 0 -4 9 -1 12
9 8 7 -3 14 -7 14 -8z"/>
<path d="M3033 6235 c4 -8 2 -17 -3 -20 -17 -10 -11 -21 18 -34 15 -7 24 -9
19 -5 -4 4 0 15 8 24 17 19 9 30 -29 44 -13 5 -17 2 -13 -9z"/>
<path d="M3113 6224 c-7 -4 -9 -14 -3 -33 5 -20 4 -28 -5 -28 -7 0 -10 8 -7
19 2 10 -1 18 -8 18 -7 0 -10 -6 -7 -14 3 -7 1 -19 -4 -25 -5 -6 -6 -9 -3 -6
4 2 15 0 25 -6 16 -8 21 -5 29 15 9 25 10 67 0 65 -3 0 -10 -3 -17 -5z m14
-36 c-3 -8 -6 -5 -6 6 -1 11 2 17 5 13 3 -3 4 -12 1 -19z"/>
<path d="M3076 6125 c-9 -26 -7 -32 5 -12 6 10 9 21 6 23 -2 3 -7 -2 -11 -11z"/>
<path d="M3116 6114 c-8 -21 9 -25 21 -5 9 14 8 18 -3 18 -7 0 -15 -6 -18 -13z"/>
<path d="M3070 6079 c0 -5 -4 -8 -9 -5 -10 7 -9 -19 1 -30 10 -9 48 15 48 31
0 8 -9 15 -20 15 -11 0 -20 -5 -20 -11z"/>
<path d="M3094 5990 c0 -13 4 -16 10 -10 7 7 7 13 0 20 -6 6 -10 3 -10 -10z"/>
<path d="M3185 5880 c5 -15 3 -20 -3 -16 -6 3 -13 2 -17 -4 -3 -5 1 -10 9 -10
9 0 16 -7 16 -16 0 -8 4 -13 9 -10 5 3 11 -1 15 -9 3 -8 1 -17 -4 -20 -4 -3
-10 1 -13 7 -2 7 -4 1 -4 -14 0 -15 3 -25 8 -22 5 3 9 -1 9 -8 0 -17 26 33 28
52 0 8 3 24 5 36 3 11 1 27 -3 35 -8 11 -12 10 -25 -6 -15 -19 -15 -19 -13 -1
2 10 -3 21 -11 24 -10 3 -11 -2 -6 -18z m40 -30 c-3 -5 -12 -10 -18 -10 -7 0
-6 4 3 10 19 12 23 12 15 0z"/>
<path d="M3936 5862 c-2 -4 -1 -14 4 -21 10 -17 31 -5 23 14 -6 16 -19 20 -27
7z"/>
<path d="M3152 5837 c10 -8 14 -18 10 -22 -4 -5 -1 -5 6 -1 17 10 15 14 -10
26 -21 10 -21 10 -6 -3z"/>
<path d="M3024 5802 c3 -5 0 -12 -6 -15 -10 -3 -10 -7 0 -20 11 -12 11 -19 0
-36 -7 -11 -19 -22 -28 -24 -8 -1 4 -8 28 -14 34 -9 42 -8 42 3 0 8 -6 11 -17
7 -11 -4 -9 1 7 17 14 14 19 25 12 28 -6 2 -8 11 -5 19 5 12 2 15 -10 10 -11
-4 -14 -2 -11 7 3 8 0 17 -7 22 -7 4 -10 3 -5 -4z"/>
<path d="M2980 5775 c0 -16 22 -45 31 -40 15 10 11 23 -11 35 -11 6 -20 8 -20
5z"/>
<path d="M3950 5681 c0 -5 9 -7 20 -4 11 3 20 7 20 9 0 2 -9 4 -20 4 -11 0
-20 -4 -20 -9z"/>
<path d="M3038 5643 c7 -3 16 -2 19 1 4 3 -2 6 -13 5 -11 0 -14 -3 -6 -6z"/>
<path d="M2975 5571 c-3 -6 3 -9 14 -8 11 0 17 5 15 9 -7 11 -22 10 -29 -1z"/>
<path d="M3000 5541 c0 -6 5 -13 10 -16 6 -3 10 1 10 9 0 9 -4 16 -10 16 -5 0
-10 -4 -10 -9z"/>
<path d="M3116 5455 c-5 -14 17 -28 28 -18 10 10 7 21 -8 26 -8 3 -17 0 -20
-8z"/>
<path d="M3150 5359 c0 -5 5 -7 10 -4 6 3 10 8 10 11 0 2 -4 4 -10 4 -5 0 -10
-5 -10 -11z"/>
<path d="M3110 5311 c0 -10 19 -25 25 -20 1 2 -3 10 -11 17 -8 7 -14 8 -14 3z"/>
<path d="M4325 5300 c-3 -6 1 -7 9 -4 18 7 21 14 7 14 -6 0 -13 -4 -16 -10z"/>
<path d="M3136 5272 c-3 -5 1 -9 9 -9 8 0 12 4 9 9 -3 4 -7 8 -9 8 -2 0 -6 -4
-9 -8z"/>
<path d="M4285 5210 c-3 -5 -1 -10 4 -10 6 0 11 5 11 10 0 6 -2 10 -4 10 -3 0
-8 -4 -11 -10z"/>
<path d="M3157 5144 c-3 -5 1 -15 9 -22 16 -14 18 -5 5 17 -5 7 -11 9 -14 5z"/>
<path d="M4080 5000 c0 -5 5 -10 11 -10 5 0 7 5 4 10 -3 6 -8 10 -11 10 -2 0
-4 -4 -4 -10z"/>
<path d="M3471 4897 c-8 -10 -7 -14 4 -14 8 0 15 6 15 14 0 7 -2 13 -4 13 -2
0 -9 -6 -15 -13z"/>
<path d="M3627 4899 c7 -7 15 -10 18 -7 3 3 -2 9 -12 12 -14 6 -15 5 -6 -5z"/>
<path d="M3650 4866 c0 -2 7 -9 15 -16 9 -7 15 -8 15 -2 0 5 -7 12 -15 16 -8
3 -15 4 -15 2z"/>
<path d="M3600 4846 c0 -8 4 -17 9 -20 5 -4 7 3 4 14 -6 23 -13 26 -13 6z"/>
<path d="M3620 4850 c0 -5 5 -10 10 -10 6 0 10 5 10 10 0 6 -4 10 -10 10 -5 0
-10 -4 -10 -10z"/>
<path d="M3550 4842 c0 -5 9 -17 20 -27 11 -10 20 -15 20 -12 0 4 -9 16 -20
27 -11 11 -20 16 -20 12z"/>
<path d="M3495 4830 c-3 -5 -1 -10 5 -10 6 0 8 -11 5 -27 -4 -20 -3 -23 3 -9
7 17 10 15 25 -15 9 -19 17 -29 17 -22 0 6 -10 29 -22 49 -19 33 -20 37 -5 31
11 -4 16 -3 12 3 -8 13 -32 13 -40 0z"/>
<path d="M3451 4781 c-8 -5 -9 -11 -3 -15 5 -3 12 1 16 9 6 17 6 18 -13 6z"/>
<path d="M3476 4771 c-3 -5 1 -12 10 -15 22 -8 25 -4 9 11 -8 7 -16 9 -19 4z"/>
<path d="M3587 4750 c3 -11 9 -22 13 -25 5 -3 6 4 3 15 -3 11 -9 22 -13 25 -5
3 -6 -4 -3 -15z"/>
<path d="M3626 4755 c-3 -8 -1 -15 4 -15 6 0 10 7 10 15 0 8 -2 15 -4 15 -2 0
-6 -7 -10 -15z"/>
<path d="M3226 4715 c4 -8 11 -15 16 -15 6 0 5 6 -2 15 -7 8 -14 15 -16 15 -2
0 -1 -7 2 -15z"/>
<path d="M3220 4669 c0 -5 5 -7 10 -4 6 3 10 8 10 11 0 2 -4 4 -10 4 -5 0 -10
-5 -10 -11z"/>
<path d="M3241 4607 c-8 -10 -7 -14 2 -14 8 0 14 6 14 14 0 7 -1 13 -2 13 -2
0 -8 -6 -14 -13z"/>
<path d="M3453 4216 c0 -8 6 -12 14 -9 7 3 10 9 7 14 -8 14 -21 11 -21 -5z"/>
<path d="M3695 4220 c3 -5 8 -10 11 -10 2 0 4 5 4 10 0 6 -5 10 -11 10 -5 0
-7 -4 -4 -10z"/>
<path d="M3258 4148 c4 -31 2 -39 -7 -33 -10 6 -11 3 -2 -11 16 -29 48 -64 58
-64 4 0 8 -27 7 -60 -1 -41 2 -60 10 -57 14 5 15 28 3 45 -7 9 -6 17 3 25 10
9 11 9 6 0 -4 -7 -1 -21 5 -32 10 -15 10 -24 -4 -44 -9 -14 -13 -28 -9 -32 4
-4 7 -11 7 -16 0 -5 3 -9 8 -9 4 0 12 0 18 0 7 0 9 11 5 30 -3 19 -2 29 4 25
6 -3 10 3 10 15 0 11 -7 23 -15 26 -8 4 -12 11 -8 17 3 6 1 7 -5 3 -6 -4 -11
1 -11 11 -1 52 -14 83 -35 83 -15 0 -17 3 -8 9 11 7 11 9 -2 14 -17 7 -22 47
-6 47 6 0 10 5 10 10 0 6 -6 9 -12 8 -7 -2 -12 2 -11 9 1 6 -4 13 -11 16 -11
4 -13 -3 -8 -35z m98 -259 c3 -6 1 -16 -6 -22 -10 -9 -11 -9 -5 2 4 8 2 17 -6
22 -9 6 -10 9 -2 9 6 0 15 -5 19 -11z"/>
<path d="M3455 4181 c-3 -6 3 -9 14 -8 11 0 17 5 15 9 -7 11 -22 10 -29 -1z"/>
<path d="M3300 4120 c0 -5 5 -10 11 -10 5 0 7 5 4 10 -3 6 -8 10 -11 10 -2 0
-4 -4 -4 -10z"/>
<path d="M3533 4102 c-2 -10 -13 -19 -24 -19 -13 -1 -17 2 -12 10 5 9 2 8 -9
0 -8 -7 -18 -11 -22 -8 -3 3 -2 0 4 -7 12 -15 40 -19 40 -7 0 6 4 8 9 5 12 -8
8 -30 -9 -52 -10 -13 -10 -15 -1 -7 7 6 20 9 28 6 12 -5 12 -7 1 -15 -10 -8
-9 -9 4 -5 9 3 22 -1 30 -10 11 -14 10 -16 -15 -11 -27 5 -27 5 -11 -14 11
-11 21 -15 27 -9 5 5 17 7 26 4 14 -4 14 -3 1 6 -8 6 -10 11 -5 11 6 0 2 5 -8
11 -9 6 -14 16 -11 22 4 7 4 9 -1 5 -4 -4 -14 -1 -21 7 -18 17 -19 49 -1 39 8
-6 8 -3 -2 9 -7 9 -11 24 -7 32 3 8 3 15 0 15 -3 0 -8 -8 -11 -18z"/>
<path d="M3836 4088 c3 -4 9 -8 15 -8 5 0 9 4 9 8 0 5 -7 9 -15 9 -8 0 -12 -4
-9 -9z"/>
<path d="M3270 4042 c0 -5 7 -15 15 -22 8 -7 15 -9 15 -6 0 4 -7 14 -15 22 -8
9 -15 11 -15 6z"/>
<path d="M4208 3959 c-16 -16 -16 -20 -2 -34 8 -8 12 -19 9 -25 -3 -5 -2 -10
4 -10 15 0 23 18 11 25 -5 3 -10 15 -10 26 0 11 5 17 10 14 6 -3 10 -2 10 4 0
18 -15 18 -32 0z"/>
<path d="M3600 3941 c0 -7 -4 -10 -9 -7 -5 4 -16 3 -25 0 -12 -5 -13 -8 -3
-18 7 -7 19 -15 27 -19 9 -3 10 -6 3 -6 -17 -1 -17 -18 0 -24 21 -8 14 31 -9
48 -19 15 -19 16 1 13 11 -2 26 -10 33 -18 8 -8 11 -9 7 -2 -4 7 0 12 9 12 8
0 18 4 21 10 3 6 -1 7 -10 4 -8 -4 -22 -1 -30 6 -11 9 -15 9 -15 1z"/>
<path d="M4250 3940 c0 -5 5 -10 11 -10 5 0 7 5 4 10 -3 6 -8 10 -11 10 -2 0
-4 -4 -4 -10z"/>
<path d="M4107 3902 c-19 -21 -13 -32 15 -32 12 0 17 6 15 20 -5 29 -12 32
-30 12z"/>
<path d="M4176 3898 c3 -4 9 -8 15 -8 5 0 9 4 9 8 0 5 -7 9 -15 9 -8 0 -12 -4
-9 -9z"/>
<path d="M3388 3893 c7 -3 16 -2 19 1 4 3 -2 6 -13 5 -11 0 -14 -3 -6 -6z"/>
<path d="M4154 3881 c3 -3 -2 -15 -10 -25 -12 -17 -16 -17 -30 -5 -16 13 -16
12 -3 -11 8 -14 19 -29 24 -33 6 -5 1 -7 -11 -4 -12 2 -21 -1 -21 -8 0 -14 14
-14 35 -1 10 6 10 11 1 22 -11 13 -6 18 15 15 5 -1 6 6 2 15 -5 13 -2 15 14
11 11 -3 18 -1 15 3 -3 5 1 10 7 12 7 3 1 7 -14 10 -15 3 -26 2 -24 -1z"/>
<path d="M4020 3836 c0 -9 40 -13 46 -5 3 5 -6 9 -20 9 -14 0 -26 -2 -26 -4z"/>
<path d="M4215 3820 c3 -5 11 -10 16 -10 6 0 7 5 4 10 -3 6 -11 10 -16 10 -6
0 -7 -4 -4 -10z"/>
<path d="M4025 3800 c-3 -5 -1 -10 4 -10 6 0 11 5 11 10 0 6 -2 10 -4 10 -3 0
-8 -4 -11 -10z"/>
<path d="M4047 3781 c-4 -17 -3 -21 5 -13 5 5 8 16 6 23 -3 8 -7 3 -11 -10z"/>
<path d="M4011 3751 c-9 -6 -11 -15 -6 -27 5 -11 8 -28 8 -40 0 -16 5 -20 24
-18 34 3 36 7 13 32 -22 23 -27 37 -9 26 8 -4 8 0 0 15 -13 24 -12 23 -30 12z"/>
<path d="M4180 3741 c0 -6 5 -13 12 -17 6 -4 8 -3 4 4 -3 5 0 13 6 15 8 3 6 6
-4 6 -10 1 -18 -3 -18 -8z"/>
<path d="M4061 3704 c0 -11 3 -14 6 -6 3 7 2 16 -1 19 -3 4 -6 -2 -5 -13z"/>
<path d="M3502 3665 c0 -16 2 -22 5 -12 2 9 2 23 0 30 -3 6 -5 -1 -5 -18z"/>
<path d="M3520 3655 c0 -7 30 -13 34 -7 3 4 -4 9 -15 9 -10 1 -19 0 -19 -2z"/>
<path d="M4051 3651 c-8 -6 -9 -11 -3 -15 6 -3 14 -1 17 5 9 14 2 20 -14 10z"/>
<path d="M3521 3624 c0 -11 3 -14 6 -6 3 7 2 16 -1 19 -3 4 -6 -2 -5 -13z"/>
<path d="M3560 3630 c0 -5 5 -10 10 -10 6 0 10 5 10 10 0 6 -4 10 -10 10 -5 0
-10 -4 -10 -10z"/>
<path d="M4040 3616 c0 -2 7 -7 16 -10 8 -3 12 -2 9 4 -6 10 -25 14 -25 6z"/>
<path d="M3575 3600 c-3 -5 -1 -10 4 -10 6 0 11 5 11 10 0 6 -2 10 -4 10 -3 0
-8 -4 -11 -10z"/>
<path d="M3600 3580 c0 -11 4 -20 9 -20 5 0 7 9 4 20 -3 11 -7 20 -9 20 -2 0
-4 -9 -4 -20z"/>
<path d="M4090 3540 c0 -6 4 -9 9 -6 5 4 12 1 14 -4 3 -6 4 -5 3 2 -3 15 -26
23 -26 8z"/>
<path d="M4155 3501 c-3 -5 -1 -12 5 -16 5 -3 10 1 10 9 0 18 -6 21 -15 7z"/>
<path d="M3685 3476 c-22 -16 -13 -51 10 -42 8 3 15 1 15 -4 0 -6 5 -10 11
-10 5 0 8 4 5 9 -6 10 18 34 26 26 2 -3 5 1 5 9 0 8 -8 11 -19 8 -10 -2 -18 1
-18 7 0 15 -12 14 -35 -3z"/>
<path d="M3775 3470 c-3 -5 -1 -10 4 -10 6 0 11 5 11 10 0 6 -2 10 -4 10 -3 0
-8 -4 -11 -10z"/>
<path d="M3798 3468 c0 -7 -2 -17 -3 -23 -2 -5 -3 -16 -4 -24 -1 -9 -9 -11
-26 -7 -17 4 -25 2 -26 -6 0 -7 -2 -21 -4 -30 -2 -10 1 -18 7 -18 6 0 7 8 4
17 -4 10 -4 14 0 10 4 -4 13 -2 21 4 10 9 13 6 13 -12 0 -19 -2 -21 -10 -9 -7
11 -10 12 -10 2 0 -17 19 -36 45 -45 18 -6 18 -5 -2 9 -17 13 -20 20 -13 39 5
13 6 26 3 29 -4 3 1 6 10 6 13 0 15 5 8 23 -4 12 -6 28 -4 35 3 6 2 12 -1 12
-3 0 -7 -6 -8 -12z"/>
<path d="M4070 3394 c0 -2 9 -8 20 -14 11 -6 20 -7 20 -2 0 6 -9 12 -20 15
-11 3 -20 3 -20 1z"/>
<path d="M3816 3367 c3 -10 9 -15 12 -12 3 3 0 11 -7 18 -10 9 -11 8 -5 -6z"/>
<path d="M4068 3358 c-5 -12 -1 -21 11 -28 15 -7 20 -6 25 7 4 9 4 18 1 21 -3
3 -5 0 -5 -6 0 -19 -18 -14 -22 6 -3 16 -4 16 -10 0z"/>
<path d="M3726 3343 c-6 -6 39 -33 56 -33 13 0 -13 24 -34 32 -9 4 -19 4 -22
1z"/>
<path d="M3885 3311 c-10 -17 12 -21 25 -6 10 12 10 15 -3 15 -9 0 -18 -4 -22
-9z"/>
<path d="M3625 6090 c3 -5 8 -10 11 -10 2 0 4 5 4 10 0 6 -5 10 -11 10 -5 0
-7 -4 -4 -10z"/>
<path d="M3595 6080 c3 -5 8 -10 11 -10 2 0 4 5 4 10 0 6 -5 10 -11 10 -5 0
-7 -4 -4 -10z"/>
<path d="M2570 5506 c0 -2 7 -7 16 -10 8 -3 12 -2 9 4 -6 10 -25 14 -25 6z"/>
<path d="M2513 5436 c-11 -6 -19 -19 -17 -29 1 -10 -2 -14 -8 -11 -19 12 -1
-79 18 -93 10 -7 34 -13 55 -13 33 0 37 3 41 31 3 18 -1 36 -9 45 -8 7 -18 27
-24 43 -12 35 -28 43 -56 27z"/>
<path d="M2713 5348 c-1 -13 -9 -28 -18 -34 -16 -12 -21 -39 -5 -29 6 3 10 1
10 -5 0 -6 5 -8 10 -5 6 3 10 -1 10 -10 0 -10 -5 -14 -12 -10 -7 4 -4 0 7 -9
11 -8 25 -19 30 -23 25 -20 69 -33 78 -24 14 14 -11 80 -50 129 -38 47 -58 53
-60 20z"/>
<path d="M4276 3841 c-3 -5 0 -11 7 -13 17 -7 38 2 31 13 -7 12 -31 12 -38 0z"/>
<path d="M4460 3843 c0 -5 5 -15 10 -23 7 -12 9 -10 7 8 -1 19 -17 33 -17 15z"/>
<path d="M4441 3783 c0 -11 3 -13 6 -5 2 6 9 10 14 6 5 -3 9 0 9 5 0 6 -7 11
-15 11 -8 0 -15 -8 -14 -17z"/>
<path d="M3271 3464 c0 -11 3 -14 6 -6 3 7 2 16 -1 19 -3 4 -6 -2 -5 -13z"/>
<path d="M3330 3391 c0 -5 7 -12 16 -15 14 -5 15 -4 4 9 -14 17 -20 19 -20 6z"/>
<path d="M4420 3470 c0 -13 18 -22 24 -11 3 5 -1 11 -9 15 -8 3 -15 1 -15 -4z"/>
<path d="M4435 3430 c3 -5 11 -10 16 -10 6 0 7 5 4 10 -3 6 -11 10 -16 10 -6
0 -7 -4 -4 -10z"/>
<path d="M5452 8045 c-9 -20 -9 -23 3 -18 8 3 15 14 15 24 0 25 -5 24 -18 -6z"/>
<path d="M4705 7950 c-3 -5 -1 -10 4 -10 6 0 11 5 11 10 0 6 -2 10 -4 10 -3 0
-8 -4 -11 -10z"/>
<path d="M6215 7840 c-19 -7 -19 -8 5 -18 33 -13 55 -5 39 14 -13 16 -16 16
-44 4z"/>
<path d="M6510 6719 c0 -5 5 -7 10 -4 6 3 10 8 10 11 0 2 -4 4 -10 4 -5 0 -10
-5 -10 -11z"/>
<path d="M3275 6511 c-3 -5 -1 -12 5 -16 5 -3 10 1 10 9 0 18 -6 21 -15 7z"/>
<path d="M3394 6503 c5 -8 1 -13 -11 -13 -15 0 -16 -2 -3 -10 21 -13 38 6 21
23 -11 10 -13 10 -7 0z"/>
<path d="M3352 6471 c7 -11 16 -17 20 -15 5 3 2 12 -6 20 -21 20 -28 17 -14
-5z"/>
<path d="M3470 6470 c-9 -6 -10 -10 -3 -10 6 0 15 5 18 10 8 12 4 12 -15 0z"/>
<path d="M3976 6448 c3 -4 11 -5 19 -1 21 7 19 12 -4 10 -11 0 -18 -5 -15 -9z"/>
<path d="M5639 6419 c-8 -5 -55 -6 -106 -2 -81 5 -93 4 -93 -10 0 -11 -17 -19
-55 -28 -30 -7 -55 -16 -55 -21 0 -4 -6 -8 -14 -8 -20 0 -46 -39 -39 -58 5
-11 2 -14 -11 -9 -11 5 -15 3 -10 -5 5 -8 2 -9 -9 -5 -14 5 -16 2 -11 -21 4
-15 14 -36 24 -47 10 -11 16 -25 13 -32 -2 -6 1 -15 8 -19 8 -4 9 -3 5 4 -4 7
-2 12 4 12 6 0 9 -8 6 -17 -6 -20 6 -46 20 -43 5 1 10 -3 12 -9 2 -6 -3 -11
-12 -11 -21 0 -21 -34 1 -59 15 -18 19 -18 37 -5 25 17 40 18 29 2 -18 -29
-31 -78 -21 -84 6 -4 14 -1 18 5 5 9 10 8 19 -3 7 -8 9 -21 5 -28 -6 -10 -5
-11 8 -1 8 7 17 11 19 9 2 -2 20 -7 39 -10 19 -3 36 -10 39 -17 2 -7 9 1 16
17 10 25 9 31 -8 47 -11 9 -29 17 -41 17 -12 0 -16 4 -11 8 6 4 15 16 21 26
18 33 31 29 54 -18 l22 -45 97 0 c100 0 168 15 181 40 4 8 10 31 14 52 5 24
12 37 23 37 20 0 85 -39 79 -48 -2 -4 18 -8 46 -9 39 -1 48 2 46 14 -3 18
-201 123 -230 123 -10 0 -18 5 -18 10 0 6 -6 10 -14 10 -8 0 -18 6 -22 13 -4
6 -4 9 1 5 4 -4 14 -3 21 3 12 10 37 8 94 -6 79 -20 151 -61 185 -105 36 -47
88 -77 93 -55 2 8 -3 21 -10 30 -35 40 -78 83 -78 78 0 -3 -8 2 -19 11 -33 30
-85 51 -131 55 -25 1 -49 6 -55 9 -5 4 -21 7 -35 7 -18 0 -25 5 -25 20 0 19 7
20 115 22 63 1 139 -2 168 -6 28 -4 52 -4 52 1 0 4 9 8 21 8 11 0 19 5 17 12
-4 12 -35 21 -80 22 -16 1 -28 6 -28 11 0 6 -5 3 -10 -5 -6 -9 -10 -11 -10 -3
0 7 -6 10 -14 7 -18 -7 -30 27 -14 39 10 6 9 7 -4 4 -9 -3 -19 1 -22 9 -3 8
-14 14 -25 14 -11 0 -26 7 -35 15 -18 19 -64 15 -77 -6 -5 -8 -9 -10 -9 -6 0
4 -9 3 -19 -2 -15 -9 -20 -7 -24 11 -4 15 -11 19 -26 15 -11 -3 -21 -2 -23 3
-5 11 -103 20 -119 9z m116 -169 c3 -6 -4 -10 -17 -10 -18 0 -20 2 -8 10 19
12 18 12 25 0z m-11 -55 c4 -11 -1 -15 -19 -15 -25 0 -39 12 -28 24 12 11 41
6 47 -9z m65 -89 c9 -10 8 -15 -2 -19 -19 -7 -41 8 -33 22 10 15 21 14 35 -3z
m-99 -11 c0 -8 -6 -15 -14 -15 -17 0 -28 14 -19 24 12 12 33 6 33 -9z"/>
<path d="M3208 6413 c7 -3 16 -2 19 1 4 3 -2 6 -13 5 -11 0 -14 -3 -6 -6z"/>
<path d="M6863 6270 c-40 -24 -41 -36 -4 -77 25 -29 30 -45 41 -145 10 -86 19
-123 37 -156 22 -36 24 -50 19 -95 -7 -50 4 -111 16 -91 14 24 61 179 64 212
3 35 -6 90 -44 246 -17 69 -55 126 -84 126 -7 0 -28 -9 -45 -20z"/>
<path d="M5591 5894 c0 -11 3 -14 6 -6 3 7 2 16 -1 19 -3 4 -6 -2 -5 -13z"/>
<path d="M5555 5880 c10 -11 15 -23 12 -27 -4 -3 -7 -1 -7 5 0 7 -9 12 -20 12
-15 0 -20 -7 -20 -29 0 -28 22 -47 40 -36 5 3 11 1 15 -5 4 -6 11 -8 16 -5 5
4 9 1 9 -5 0 -7 12 -9 30 -6 17 2 30 1 30 -3 0 -4 24 -8 53 -10 l52 -2 -23 21
c-12 12 -27 18 -33 15 -6 -4 -20 1 -31 12 -20 16 -21 17 -15 1 10 -29 -7 -20
-25 13 -14 24 -22 29 -39 24 -14 -5 -19 -3 -15 3 3 6 2 13 -4 17 -6 4 -8 11
-5 16 4 5 -4 9 -16 9 -21 0 -22 -1 -4 -20z"/>
<path d="M5648 5883 c7 -3 16 -2 19 1 4 3 -2 6 -13 5 -11 0 -14 -3 -6 -6z"/>
<path d="M6681 5834 c0 -11 3 -14 6 -6 3 7 2 16 -1 19 -3 4 -6 -2 -5 -13z"/>
<path d="M5778 5773 c7 -3 16 -2 19 1 4 3 -2 6 -13 5 -11 0 -14 -3 -6 -6z"/>
<path d="M5465 5268 c-9 -22 63 -138 81 -131 8 3 14 0 14 -6 0 -6 15 -26 33
-45 17 -19 41 -46 52 -61 11 -15 37 -46 58 -69 20 -24 37 -48 37 -55 0 -6 4
-11 10 -11 14 0 59 -48 51 -56 -3 -4 2 -4 12 -1 9 4 17 2 17 -3 0 -6 6 -10 14
-10 8 0 17 -7 20 -16 3 -8 10 -12 16 -9 6 3 7 -1 4 -9 -6 -15 6 -21 29 -17 4
1 10 -7 14 -16 3 -10 19 -32 36 -50 16 -17 35 -42 41 -55 7 -13 19 -23 27 -22
8 1 16 -7 16 -18 1 -10 9 -25 17 -34 9 -8 16 -19 16 -24 0 -4 9 -10 20 -13 28
-7 42 -50 46 -141 2 -43 5 -80 7 -83 10 -10 35 93 31 130 -5 50 -11 94 -14
105 -1 4 -2 11 -1 15 1 4 -7 25 -18 47 -16 34 -17 40 -4 45 16 6 29 -2 76 -44
15 -14 27 -20 27 -14 0 19 -80 113 -106 125 -13 6 -24 15 -24 20 0 5 -5 6 -10
3 -6 -4 -10 -3 -9 2 5 20 -15 43 -36 43 -13 0 -25 3 -27 8 -1 4 -22 20 -45 36
-24 16 -43 32 -43 37 0 5 -7 6 -15 3 -8 -4 -15 -1 -15 6 0 7 -7 10 -14 7 -10
-4 -13 -1 -9 8 3 8 9 12 14 9 5 -3 6 2 3 10 -7 19 -20 21 -28 4 -3 -7 -4 -4
-3 8 3 28 -20 54 -41 47 -15 -6 -15 -5 -3 10 8 10 11 20 7 24 -3 3 -6 1 -6 -5
0 -7 -5 -12 -11 -12 -5 0 -7 5 -4 11 4 6 -2 13 -13 16 -11 3 -19 10 -16 17 3
7 -7 18 -21 26 -14 7 -25 19 -25 26 0 8 -13 20 -30 29 -16 9 -30 22 -30 30 0
8 -4 16 -10 16 -5 1 -14 2 -19 3 -6 0 -19 11 -31 24 -20 21 -32 26 -57 23 -7
-1 -13 3 -13 9 0 6 -12 16 -27 22 -16 7 -36 18 -45 26 -15 13 -18 13 -23 0z"/>
<path d="M5366 4953 c-6 -14 -5 -15 5 -6 7 7 10 15 7 18 -3 3 -9 -2 -12 -12z"/>
<path d="M4667 4429 c-4 -16 -3 -18 9 -8 7 6 11 15 8 20 -8 13 -11 11 -17 -12z"/>
<path d="M5540 4141 c0 -5 -8 -8 -17 -7 -10 0 -18 -6 -18 -14 0 -11 9 -14 30
-12 35 4 50 16 41 31 -9 13 -36 15 -36 2z"/>
<path d="M5367 4103 c-11 -12 -36 -18 -74 -19 -62 -2 -103 -11 -103 -25 0 -4
12 -9 27 -11 17 -2 29 -10 31 -20 3 -16 -5 -18 -62 -18 -63 0 -88 -12 -68 -32
7 -7 17 -6 32 2 17 9 21 9 15 0 -5 -8 5 -10 37 -8 24 2 42 8 41 14 -1 6 5 11
13 12 8 1 21 3 29 4 14 1 19 11 16 31 -1 6 22 11 42 8 4 0 7 3 7 8 0 5 14 14
30 20 33 11 37 22 17 39 -10 9 -18 7 -30 -5z"/>
<path d="M4795 3950 c3 -5 8 -10 11 -10 2 0 4 5 4 10 0 6 -5 10 -11 10 -5 0
-7 -4 -4 -10z"/>
<path d="M5057 3649 c7 -7 15 -10 18 -7 3 3 -2 9 -12 12 -14 6 -15 5 -6 -5z"/>
<path d="M4648 3423 c-12 -3 -17 -13 -16 -29 2 -24 22 -33 33 -14 4 6 11 8 16
5 5 -4 9 -2 9 4 0 17 -18 21 -24 5 -3 -8 -11 -12 -18 -8 -8 5 -4 13 11 26 23
18 21 20 -11 11z"/>
<path d="M4460 3330 c0 -5 8 -10 18 -11 14 0 14 -2 -3 -9 -16 -7 -17 -9 -3 -9
26 -1 31 17 8 29 -13 7 -20 7 -20 0z"/>
<path d="M4605 3260 c3 -5 8 -10 11 -10 2 0 4 5 4 10 0 6 -5 10 -11 10 -5 0
-7 -4 -4 -10z"/>
<path d="M6012 3098 c-6 -24 -15 -63 -20 -88 -21 -101 -73 -287 -176 -630 -31
-104 -122 -372 -192 -570 -34 -98 -46 -145 -83 -325 -48 -242 -55 -337 -37
-555 4 -52 9 -126 10 -165 4 -98 27 -230 37 -213 13 23 30 136 35 228 5 86 45
296 69 360 7 19 20 75 30 124 9 49 25 112 36 140 10 28 19 61 19 74 0 45 144
305 185 334 6 4 17 -8 27 -30 12 -27 17 -32 18 -17 2 11 1 24 0 30 -1 5 3 44
9 85 6 41 13 111 16 155 11 183 17 235 35 325 21 105 26 144 35 270 9 131 14
153 31 146 12 -5 14 -1 8 17 -5 12 -7 40 -6 61 2 22 -9 80 -22 130 -14 50 -27
104 -28 120 -4 45 -24 42 -36 -6z"/>
<path d="M4886 2888 c3 -5 10 -6 15 -3 13 9 11 12 -6 12 -8 0 -12 -4 -9 -9z"/>
<path d="M5030 2840 c-8 -5 -11 -12 -7 -16 4 -4 13 -2 19 4 15 15 7 24 -12 12z"/>
<path d="M5065 2830 c-3 -5 -1 -10 4 -10 6 0 11 5 11 10 0 6 -2 10 -4 10 -3 0
-8 -4 -11 -10z"/>
<path d="M5016 2022 c-3 -5 1 -9 9 -9 8 0 12 4 9 9 -3 4 -7 8 -9 8 -2 0 -6 -4
-9 -8z"/>
<path d="M4523 1986 c0 -8 6 -12 14 -9 7 3 10 9 7 14 -8 14 -21 11 -21 -5z"/>
<path d="M4677 1953 c-11 -11 -8 -20 8 -20 8 0 15 6 15 14 0 14 -12 17 -23 6z"/>
<path d="M4624 1895 c-18 -14 -18 -14 4 -8 12 3 22 9 22 14 0 12 -3 11 -26 -6z"/>
<path d="M6350 1833 c0 -23 16 -48 23 -37 5 10 -9 54 -18 54 -3 0 -5 -8 -5
-17z"/>
<path d="M5272 1550 c14 -22 24 -19 15 5 -4 8 -11 15 -17 15 -6 0 -6 -7 2 -20z"/>
<path d="M5257 1524 c-4 -4 1 -13 11 -20 22 -17 29 -17 29 1 0 8 -5 11 -10 8
-5 -3 -12 0 -16 6 -4 6 -10 8 -14 5z"/>
<path d="M5210 1500 c0 -5 7 -10 16 -10 8 0 12 5 9 10 -3 6 -10 10 -16 10 -5
0 -9 -4 -9 -10z"/>
<path d="M5251 1481 c-8 -5 -20 -7 -26 -5 -7 3 -15 -2 -18 -11 -5 -12 -1 -14
21 -8 14 3 32 6 38 6 7 0 10 6 7 14 -6 15 -4 15 -22 4z"/>
<path d="M5231 1439 c-19 -7 -21 -12 -12 -23 10 -11 8 -17 -6 -26 -15 -10 -15
-11 -1 -6 12 3 15 1 11 -10 -6 -17 -30 -19 -36 -1 -4 9 -6 9 -6 0 -1 -7 9 -18
21 -24 21 -12 22 -12 3 -19 -18 -6 -18 -7 3 -12 12 -4 20 -3 17 2 -3 4 3 14
12 21 13 11 17 11 20 2 3 -7 11 -13 19 -13 12 0 13 4 3 23 -11 20 -11 21 5 8
15 -13 19 -13 26 0 7 10 3 16 -10 21 -27 10 -25 17 3 10 19 -5 20 -3 9 11 -8
9 -19 14 -27 11 -7 -3 -16 -1 -20 5 -3 6 1 11 10 11 9 0 13 5 10 10 -7 12 -22
12 -54 -1z m23 -35 c4 -16 2 -32 -4 -38 -8 -8 -9 -7 -5 6 4 9 2 26 -5 37 -6
12 -7 21 -1 21 5 0 12 -12 15 -26z"/>
<path d="M5310 1311 c-7 -14 -6 -21 3 -24 9 -4 9 -6 -1 -6 -8 -1 -16 8 -19 19
-8 30 -47 20 -51 -13 -2 -19 1 -27 12 -27 9 0 16 5 16 12 0 6 7 3 15 -8 8 -11
15 -14 15 -6 0 6 6 12 14 12 8 0 17 7 20 16 4 10 2 13 -6 8 -7 -5 -9 0 -6 14
7 27 2 28 -12 3z"/>
<path d="M5265 1240 c-3 -5 4 -14 16 -20 28 -15 33 -8 9 13 -11 9 -22 12 -25
7z"/>
<path d="M5108 1014 c-7 -7 -2 -42 11 -76 l9 -23 7 26 c12 48 -6 95 -27 73z"/>
</g>
</svg>
