<?xml version="1.0" standalone="no"?>
<!DOCTYPE svg PUBLIC "-//W3C//DTD SVG 20010904//EN"
 "http://www.w3.org/TR/2001/REC-SVG-20010904/DTD/svg10.dtd">
<svg version="1.0" xmlns="http://www.w3.org/2000/svg"
 width="960.000000pt" height="960.000000pt" viewBox="0 0 960.000000 960.000000"
 preserveAspectRatio="xMidYMid meet">
<g transform="translate(0.000000,960.000000) scale(0.100000,-0.100000)"
fill="#000000" stroke="none">
<path d="M4460 9590 c-1152 -89 -2197 -559 -3009 -1354 -828 -811 -1312 -1823
-1433 -2996 -17 -162 -17 -726 0 -880 90 -828 333 -1525 758 -2178 110 -168
263 -372 280 -372 17 0 111 67 134 95 15 18 193 170 294 251 28 22 78 65 111
95 33 31 101 87 150 126 50 39 109 93 132 121 31 37 63 60 116 85 40 19 102
59 138 89 117 98 186 135 534 280 60 25 60 25 92 104 18 43 38 94 44 114 25
76 137 294 241 468 27 45 62 117 78 159 15 43 32 79 37 80 5 2 9 -16 10 -39 1
-46 8 -121 18 -208 4 -30 8 -66 10 -80 4 -31 24 -148 30 -176 3 -12 13 -24 22
-26 12 -3 24 -26 36 -69 29 -103 89 -261 111 -294 12 -16 29 -46 40 -65 10
-19 28 -46 41 -60 12 -14 31 -38 41 -55 9 -16 26 -39 35 -50 41 -46 99 -111
115 -126 9 -10 20 -21 24 -25 177 -183 228 -232 243 -235 10 -2 19 -8 19 -14
2 -13 50 -51 60 -47 5 1 8 -2 8 -8 0 -5 7 -7 15 -4 8 4 22 1 30 -6 8 -7 15 -9
15 -4 0 5 4 4 8 -3 10 -16 48 -21 44 -5 -2 10 2 10 19 2 11 -7 18 -14 15 -17
-10 -11 32 -33 49 -27 10 4 22 -1 30 -12 14 -18 14 -18 15 1 0 16 2 17 9 5 6
-8 7 -18 4 -23 -6 -11 37 -48 48 -41 5 3 13 -5 18 -18 6 -13 10 -17 10 -11 1
10 7 10 26 1 14 -6 24 -16 22 -22 -2 -6 6 -19 18 -31 12 -11 27 -30 34 -43 14
-27 41 -29 48 -3 5 19 43 37 43 20 0 -5 -6 -9 -12 -9 -9 0 -8 -3 2 -10 9 -6
20 -5 30 3 12 9 13 9 3 -3 -18 -19 -16 -31 2 -24 12 5 14 2 8 -12 -6 -17 -5
-18 12 -4 17 14 18 13 13 -11 -5 -25 12 -33 37 -17 12 7 47 -16 38 -25 -3 -4
2 -7 12 -7 15 0 15 2 4 16 -17 20 3 34 42 29 20 -2 28 2 32 16 4 13 10 17 22
13 13 -5 14 -9 3 -15 -10 -6 -10 -11 0 -21 9 -9 12 -9 12 0 0 7 7 12 16 12 10
0 14 6 11 15 -4 8 -2 17 3 20 5 3 7 11 4 19 -3 7 1 13 9 13 9 0 12 -7 9 -19
-5 -20 24 -26 30 -6 4 10 10 10 32 0 15 -7 24 -8 21 -2 -3 5 -1 10 4 10 6 0
11 -5 11 -11 0 -5 6 -7 12 -3 7 5 19 9 28 10 42 5 75 15 78 24 2 5 10 10 18
10 8 0 11 6 7 17 -4 11 -3 14 5 9 7 -4 12 -1 12 9 0 9 -4 14 -8 11 -5 -3 -9 1
-9 9 0 8 7 17 16 20 18 5 23 80 7 104 -7 10 -6 12 3 6 10 -6 10 -2 0 16 -8 13
-14 35 -14 49 0 15 -7 25 -15 25 -8 0 -16 9 -19 20 -3 16 -1 17 11 8 11 -10
14 -8 14 8 0 10 -7 19 -14 19 -8 0 -12 6 -9 14 3 8 -2 16 -14 19 -19 5 -27 27
-9 27 6 0 10 7 10 15 0 8 5 15 12 15 6 0 3 7 -8 16 -15 12 -16 15 -2 10 22 -7
16 31 -9 50 -17 12 -16 13 3 8 12 -3 25 0 29 7 6 8 4 10 -5 4 -8 -5 -11 -4 -6
3 5 9 65 26 136 38 67 12 86 17 95 24 6 4 26 13 45 19 19 6 60 27 90 46 48 30
52 35 29 35 -15 0 -29 -7 -33 -16 -3 -8 -11 -12 -17 -8 -8 4 -7 9 2 15 9 5 5
10 -13 14 -27 7 -47 35 -25 35 7 0 1 9 -13 19 -28 22 -60 23 -76 2 -9 -11 -12
-12 -19 -1 -5 9 -4 11 3 6 7 -4 12 -3 12 3 0 24 -20 19 -36 -9 -19 -32 -50
-39 -73 -18 -11 10 -13 10 -7 1 4 -8 1 -13 -8 -13 -10 0 -16 -9 -16 -22 0 -25
-16 -13 -22 16 -3 19 -3 19 -18 1 -12 -15 -12 -17 -1 -10 10 5 12 4 7 -4 -4
-6 -16 -9 -26 -6 -10 3 -21 1 -25 -5 -3 -5 -11 -10 -17 -10 -6 0 -1 9 12 20
l23 20 -22 0 c-14 0 -20 -4 -15 -12 5 -7 3 -8 -5 -3 -7 4 -11 15 -8 25 7 27
-15 31 -44 9 -13 -10 -29 -19 -35 -19 -17 0 -47 37 -39 50 3 6 3 10 -2 9 -20
-3 -33 2 -31 14 2 6 -3 11 -9 9 -7 -1 -13 3 -13 9 0 6 -9 8 -21 4 -14 -5 -19
-3 -15 3 3 6 0 13 -6 16 -7 4 -3 4 10 2 17 -3 22 -1 18 9 -6 18 10 30 18 13 2
-7 4 -3 2 9 -1 12 -6 26 -11 30 -4 5 -5 2 -1 -4 4 -8 1 -13 -8 -13 -10 0 -13
6 -10 15 5 12 2 13 -12 8 -18 -7 -18 -6 -1 11 9 9 17 22 17 27 0 20 -21 49
-36 49 -8 0 -12 4 -9 10 4 6 -1 7 -12 4 -17 -5 -17 -5 -1 9 16 13 16 17 -4 75
-11 34 -25 59 -29 56 -16 -10 -33 8 -18 18 11 8 11 9 -1 5 -8 -2 -14 -10 -13
-16 4 -14 -34 -14 -43 0 -3 6 0 15 7 20 10 6 8 9 -8 9 -13 0 -23 -4 -23 -9 0
-9 -60 -34 -67 -27 -2 2 10 10 27 18 29 14 30 16 10 21 -11 3 -36 3 -55 1 -21
-3 -39 1 -49 11 -13 14 -16 13 -26 -5 -6 -11 -8 -24 -5 -29 6 -11 -14 -9 -32
2 -18 11 -16 30 2 24 21 -9 27 7 10 29 -20 26 -19 33 8 44 21 8 20 9 -5 7 -16
-1 -28 -5 -28 -9 0 -4 -5 -8 -10 -8 -6 0 -3 11 5 24 12 18 13 26 4 32 -8 5 -9
3 -4 -6 5 -9 4 -11 -4 -6 -8 5 -7 13 4 28 13 19 12 23 -7 40 -25 21 -38 23
-38 6 -1 -15 -18 11 -18 26 0 5 -6 13 -14 18 -9 7 -7 8 7 3 34 -11 40 -11 37
3 -1 8 2 11 8 7 6 -3 8 -11 5 -16 -4 -5 0 -9 7 -9 9 0 9 -3 -2 -10 -9 -6 -10
-10 -3 -10 6 0 14 4 18 10 11 19 37 -2 31 -26 -4 -16 -1 -24 11 -27 14 -4 12
-5 -4 -6 -25 -1 -30 -15 -11 -27 7 -4 8 -3 4 4 -4 7 -1 12 8 12 21 0 30 18 16
35 -10 12 -9 15 9 15 12 0 21 6 21 15 0 9 10 16 23 16 118 7 118 7 100 -7 -17
-12 -17 -13 1 -10 22 3 68 45 61 56 -3 4 2 11 11 14 9 3 12 2 9 -5 -4 -6 4 -8
22 -6 15 3 27 9 26 15 -2 6 4 9 12 6 11 -5 14 -1 9 12 -4 12 -3 15 3 7 4 -6
22 -15 38 -18 25 -6 28 -5 18 6 -7 7 -13 18 -13 24 0 5 5 3 10 -5 8 -12 10
-12 10 5 0 18 1 18 16 -3 8 -12 20 -22 26 -22 7 0 3 7 -8 15 -17 13 -16 14 13
6 22 -7 33 -6 37 2 3 8 5 8 5 -1 1 -7 6 -10 11 -7 6 3 10 1 10 -4 0 -6 5 -11
10 -11 6 0 10 8 8 18 -2 11 3 17 14 16 10 -1 15 3 11 9 -4 6 0 8 10 4 10 -3
17 -2 17 3 0 6 -10 10 -22 11 -19 0 -20 2 -5 7 16 7 16 9 -3 44 -14 27 -16 38
-7 41 10 5 -10 9 -29 6 -4 0 -11 5 -15 13 -7 10 -9 10 -9 0 0 -7 -5 -10 -12
-6 -7 4 -8 3 -4 -5 4 -6 12 -9 17 -6 5 4 9 1 9 -6 0 -7 3 -9 7 -6 3 4 12 -5
20 -20 9 -18 10 -30 3 -37 -5 -5 -10 -7 -10 -3 0 4 -10 3 -22 -3 -20 -9 -21
-9 -7 2 21 17 20 48 -1 48 -10 0 -23 7 -30 15 -7 8 -9 15 -5 15 3 0 -3 12 -14
26 -12 15 -21 34 -21 43 0 13 -2 13 -9 2 -7 -11 -11 -8 -17 10 -4 13 -8 38 -8
54 -1 20 -6 29 -15 27 -7 -1 -19 3 -27 9 -11 9 -14 8 -14 -2 -1 -8 -8 0 -16
16 -8 17 -12 22 -10 13 3 -10 1 -20 -3 -23 -12 -7 -33 20 -23 30 4 5 -1 5 -11
2 -14 -5 -20 -2 -24 13 -6 21 -23 28 -23 9 0 -6 -7 -3 -16 6 -9 9 -14 18 -11
22 3 3 2 16 -3 29 -6 14 -6 26 0 29 6 4 10 2 10 -4 0 -6 23 -13 50 -17 28 -4
52 -10 55 -14 2 -4 16 -5 30 -3 15 3 22 10 18 17 -5 8 -3 8 8 0 22 -17 68 -22
131 -15 32 4 60 3 62 -1 3 -5 3 -3 2 4 -2 8 -21 14 -52 14 -54 2 -87 12 -79
24 3 5 -13 11 -35 15 -22 4 -50 15 -64 26 -20 15 -30 17 -51 9 -36 -14 -98
-13 -113 2 -6 6 -31 11 -55 10 -62 -4 -105 28 -128 95 -17 50 -17 53 0 74 23
29 59 20 102 -26 39 -41 45 -43 55 -12 18 60 59 66 114 15 35 -31 60 -31 60 1
0 56 95 69 187 26 42 -19 54 -21 60 -11 22 38 169 70 194 43 15 -15 42 -12 76
11 26 16 68 10 96 -15 15 -15 19 -15 35 0 39 36 89 29 105 -15 3 -10 10 -8 26
6 22 20 22 20 48 -7 25 -24 26 -28 13 -52 -17 -32 -10 -39 48 -40 26 -1 42 0
35 2 -13 5 -6 33 9 33 5 0 6 -4 3 -10 -3 -5 -2 -10 4 -10 6 0 15 9 21 20 6 11
20 20 31 20 11 0 31 11 45 24 15 13 45 29 68 36 22 8 45 17 50 22 6 4 22 8 37
8 15 0 31 5 34 10 4 6 11 7 17 4 9 -6 27 12 28 28 0 6 -248 2 -362 -5 -26 -2
-45 -1 -43 3 2 3 -26 5 -63 4 -36 -1 -77 2 -91 6 -14 4 -50 4 -78 0 -29 -3
-53 -3 -53 1 0 4 -15 3 -32 -1 -18 -5 -42 -9 -53 -9 -11 0 -51 -3 -90 -8 -38
-4 -89 -7 -112 -7 -23 0 -37 -4 -30 -8 16 -10 9 -10 -54 3 -30 5 -65 12 -79
14 -14 2 -37 8 -51 13 -15 6 -29 8 -32 6 -3 -3 -15 -1 -26 6 -16 8 -21 8 -21
-2 0 -6 -9 -2 -20 9 -12 14 -27 19 -40 16 -11 -3 -20 0 -20 6 0 6 -8 8 -17 4
-17 -6 -17 -5 0 14 10 12 14 24 9 27 -5 3 -12 -4 -15 -15 -4 -14 -11 -20 -21
-16 -8 3 -18 1 -22 -5 -4 -7 -9 -6 -14 3 -19 30 -70 17 -73 -18 -1 -13 -6 -19
-15 -16 -7 3 -9 9 -4 12 5 3 8 17 7 30 -2 26 30 65 45 56 6 -4 10 -2 10 3 0 5
25 8 55 7 32 -2 55 1 55 7 0 6 9 8 19 5 12 -3 22 1 25 9 3 8 9 14 13 13 4 -1
11 0 16 1 17 6 28 8 52 9 15 1 25 7 25 16 0 14 3 14 24 0 23 -15 25 -15 28 2
2 12 13 18 38 19 19 1 47 4 62 7 15 2 25 1 23 -3 -8 -12 35 -19 59 -10 13 4
23 14 24 22 1 7 3 28 5 45 2 18 6 35 9 39 4 3 3 18 -2 34 -5 17 -4 32 3 39 7
7 5 12 -6 17 -9 3 -17 11 -17 16 0 6 8 7 17 4 15 -6 15 -5 2 11 -8 10 -21 30
-28 45 -8 15 -17 25 -21 23 -4 -3 -15 10 -24 28 -8 17 -16 28 -17 22 0 -5 -4
1 -8 15 -4 14 -14 24 -21 22 -7 -2 -17 3 -21 10 -13 19 -11 30 4 23 6 -4 1 3
-12 14 -13 12 -36 21 -52 21 -20 0 -29 5 -29 16 0 12 -6 15 -22 9 -13 -3 -32
-7 -43 -9 -11 -1 -25 -5 -31 -9 -7 -4 -15 0 -18 9 -3 8 -10 13 -15 10 -5 -3
-11 1 -15 9 -3 8 -1 17 5 21 6 4 6 11 -2 20 -12 15 -10 16 34 16 21 1 29 7 33
25 4 14 9 21 13 16 3 -6 15 -12 26 -15 15 -4 24 2 33 20 6 14 9 22 5 18 -3 -3
-13 0 -20 6 -12 10 -14 8 -11 -7 1 -10 -3 -19 -10 -21 -7 -1 -8 0 -3 2 12 6 2
44 -12 44 -12 0 0 14 14 16 5 1 12 2 15 3 4 0 0 9 -7 19 -13 15 -12 16 4 3 9
-7 16 -20 15 -29 -2 -8 3 -17 9 -19 9 -3 12 7 10 35 -1 28 -5 38 -13 31 -7 -6
-16 -4 -24 6 -11 13 -10 14 4 9 18 -7 19 14 1 29 -7 6 -6 10 1 13 7 3 10 14 7
24 -3 11 -9 17 -14 14 -5 -3 -9 0 -9 7 0 6 8 9 19 6 19 -5 22 7 8 30 -5 9 -3
11 6 7 10 -4 14 2 12 18 -4 34 -4 35 -21 13 -15 -20 -15 -20 -11 0 2 11 8 28
12 39 4 10 4 21 -2 25 -5 3 -12 14 -16 24 -4 10 -11 16 -16 12 -6 -3 -8 3 -6
15 2 11 0 22 -6 25 -15 10 -10 25 6 19 8 -4 15 -1 15 5 0 6 -5 11 -12 11 -9 0
-9 3 -1 11 14 14 5 41 -11 32 -6 -4 -5 1 2 10 16 19 7 77 -11 77 -7 0 -6 4 3
10 8 5 11 12 7 16 -4 4 -2 13 5 21 9 12 7 14 -13 10 -13 -2 -18 -2 -11 0 7 3
10 9 7 14 -4 5 1 9 11 9 13 0 14 3 4 15 -7 8 -9 15 -4 16 5 0 0 4 -11 9 -18 8
-18 9 5 10 14 1 20 4 15 6 -6 2 -9 20 -7 39 4 34 -13 51 -20 19 -2 -10 -7 -4
-15 16 -11 29 -10 30 5 18 9 -8 13 -8 9 -1 -4 6 -1 14 5 16 7 3 3 6 -9 6 -20
1 -21 4 -13 26 11 28 3 58 -12 49 -5 -3 -4 3 4 15 11 17 10 25 -6 51 -14 25
-15 34 -6 45 7 8 9 15 6 15 -4 0 -3 8 2 18 7 12 4 23 -10 37 -20 20 -20 20
-14 -2 5 -15 3 -23 -4 -23 -8 0 -11 11 -8 30 4 24 1 30 -14 30 -10 0 -27 9
-38 20 -14 14 -20 16 -20 6 0 -8 -8 -13 -17 -11 -10 2 -20 4 -23 4 -3 1 2 6
10 11 12 8 10 10 -10 11 -14 1 -31 1 -37 0 -7 -1 -13 5 -13 14 0 12 -4 13 -18
6 -14 -7 -21 -5 -30 10 -7 11 -10 25 -6 31 5 7 2 8 -6 3 -8 -5 -18 -1 -28 11
-14 18 -14 18 -9 -3 4 -19 2 -21 -13 -13 -10 5 -21 15 -24 22 -3 7 -3 2 0 -10
l6 -24 -22 22 c-14 14 -28 19 -38 15 -36 -15 -52 -17 -52 -6 0 15 -27 14 -34
-1 -3 -9 -10 -7 -24 8 -12 14 -28 21 -45 19 -14 -2 -31 2 -36 9 -11 13 -167
16 -187 3 -6 -3 -22 0 -37 8 -15 7 -29 10 -32 6 -2 -5 -23 -6 -46 -4 -29 4
-39 2 -35 -6 12 -20 -75 -13 -91 7 -13 15 -13 15 -3 -6 9 -17 8 -27 0 -37 -7
-8 -15 -14 -18 -13 -9 2 -64 -13 -76 -20 -5 -3 -1 -9 10 -12 10 -4 25 -3 32 3
16 13 24 5 16 -17 -5 -13 -15 -15 -48 -10 -50 7 -52 9 -36 29 8 10 9 15 1 15
-6 0 -11 -5 -11 -11 0 -6 -7 -8 -16 -5 -8 3 -13 2 -10 -2 2 -4 0 -14 -5 -22
-8 -13 -13 -11 -30 10 -11 14 -18 19 -14 13 3 -7 1 -13 -6 -13 -7 0 -4 -7 7
-15 17 -13 16 -14 -13 -5 -18 4 -38 12 -45 16 -10 6 -10 5 -1 -7 10 -12 6 -16
-20 -24 -30 -10 -32 -9 -33 17 -1 23 1 25 13 12 19 -19 22 -18 20 5 0 11 -4
19 -7 19 -23 -2 -40 4 -35 12 3 6 0 10 -7 10 -9 0 -9 3 2 10 8 5 10 10 4 10
-28 0 -42 -45 -19 -62 6 -5 5 -8 -2 -8 -7 0 -13 -8 -13 -17 0 -14 -3 -14 -12
-5 -8 8 -9 15 -3 20 17 12 16 32 -2 39 -15 6 -15 7 3 14 16 6 15 8 -8 8 -16 1
-28 -4 -28 -10 0 -6 -8 -8 -17 -5 -14 4 -18 0 -19 -19 -1 -14 2 -23 6 -20 9 6
8 -8 -4 -44 -6 -18 -10 -21 -17 -10 -11 18 -11 32 0 24 5 -3 12 -1 16 5 3 5
-3 10 -14 10 -22 0 -28 14 -11 25 5 3 7 12 4 20 -5 12 -8 12 -21 -1 -12 -11
-18 -12 -23 -4 -6 9 -9 9 -14 1 -13 -21 -27 -1 -15 21 10 18 9 20 -6 14 -12
-4 -16 -2 -12 8 4 10 1 13 -7 10 -8 -3 -17 0 -22 7 -4 8 -3 10 4 5 7 -4 12 -2
12 3 0 6 -5 11 -12 11 -6 0 -8 3 -5 6 4 4 13 2 20 -5 12 -9 14 -4 10 31 -2 25
-1 38 4 31 6 -8 14 -9 23 -3 10 7 11 10 3 10 -7 0 -13 11 -13 25 0 14 -5 25
-11 25 -8 0 -8 5 1 15 9 10 9 15 1 15 -6 0 -11 14 -11 30 0 18 -9 39 -22 52
-12 12 -23 31 -24 42 -1 12 -4 27 -6 33 -1 7 9 23 24 35 21 18 26 29 21 51 -5
27 -6 27 -31 11 l-26 -17 23 29 c12 16 19 30 14 31 -10 4 -4 73 6 73 4 0 7 10
8 22 1 12 12 30 24 39 l22 16 -22 6 c-18 4 -21 10 -16 38 3 18 11 39 17 46 7
9 7 13 -1 13 -6 0 -10 5 -9 12 2 6 -6 14 -17 16 -11 2 -24 9 -30 14 -7 8 -4 9
9 4 14 -5 17 -2 12 9 -7 19 3 47 15 39 9 -5 8 23 -2 41 -13 25 -10 73 5 78 24
10 19 21 -15 34 -27 10 -29 14 -19 33 6 11 16 18 21 14 7 -4 6 2 -1 15 -8 17
-9 26 0 36 6 8 9 28 6 46 -5 34 13 71 49 101 12 9 32 38 45 64 14 26 32 49 41
51 9 3 22 17 29 31 37 79 46 92 57 92 7 0 13 5 13 10 0 6 7 10 15 10 8 0 15 4
15 9 0 9 42 7 58 -3 5 -3 17 3 27 14 10 11 14 20 9 20 -5 0 -1 5 8 11 12 7 23
6 37 -3 16 -10 23 -10 33 0 16 16 62 16 52 0 -5 -10 -4 -10 6 -1 10 9 18 8 36
-4 13 -8 24 -12 24 -8 0 4 6 2 14 -4 11 -10 21 -9 46 4 19 10 36 13 43 7 24
-17 114 -11 102 7 -2 5 11 5 30 1 19 -4 36 -5 39 -2 3 3 32 7 63 9 32 2 60 9
61 14 2 5 12 9 21 9 10 0 21 3 25 7 11 11 46 14 46 4 0 -5 19 -12 43 -16 23
-4 51 -15 61 -24 11 -9 16 -11 13 -5 -4 7 0 17 8 24 13 11 14 10 8 -6 -6 -17
-4 -17 29 3 31 18 39 19 61 8 17 -9 28 -10 35 -3 7 7 20 4 39 -10 22 -15 33
-18 47 -10 14 8 21 7 27 -3 7 -11 9 -11 9 -1 0 7 5 10 10 7 6 -3 10 1 10 10 0
9 6 15 13 12 6 -2 24 -1 39 4 32 9 42 1 25 -19 -9 -12 -5 -11 15 2 26 17 27
17 30 -6 2 -13 8 -23 13 -23 6 0 15 -4 22 -8 6 -4 13 -1 16 5 3 10 7 10 19 0
9 -7 23 -9 33 -6 10 4 21 1 26 -7 6 -10 9 -10 9 -2 0 9 7 10 22 4 29 -10 87 8
99 31 5 10 14 18 20 18 6 0 6 -7 -1 -19 -18 -34 -11 -41 23 -23 17 10 41 35
52 55 21 39 35 47 35 22 0 -22 53 -19 73 3 10 10 17 21 17 25 0 3 10 23 22 43
19 32 23 35 29 18 4 -10 5 -34 2 -51 -3 -22 -1 -33 7 -33 7 0 10 7 6 15 -3 8
-2 15 2 15 4 0 13 14 19 30 11 29 30 36 45 15 11 -15 10 -37 -2 -30 -5 3 -10
1 -10 -4 0 -6 7 -11 15 -11 16 0 58 74 48 84 -4 3 -3 6 2 6 4 0 14 -8 21 -17
13 -17 14 -17 7 1 -4 13 -3 17 5 12 6 -3 18 4 26 16 13 18 16 19 21 6 4 -9 1
-26 -5 -38 -9 -18 -8 -24 12 -40 36 -30 44 -24 44 30 0 52 23 97 25 50 2 -32
2 -31 -7 -55 -11 -32 13 -5 36 41 12 23 16 40 10 42 -5 2 -10 8 -10 13 0 6 5
7 11 3 6 -3 15 -1 20 7 6 10 11 6 18 -14 6 -16 11 -34 11 -41 0 -24 28 -40 45
-26 8 6 18 9 23 6 11 -7 45 84 62 169 13 63 34 105 50 105 14 0 12 -24 -6 -81
-15 -46 -15 -51 -1 -62 14 -10 15 -19 6 -57 -15 -67 0 -90 57 -83 32 3 44 1
45 -9 0 -7 4 -3 9 10 5 12 15 22 23 22 13 0 22 14 46 74 8 20 15 26 22 19 8
-8 8 -17 0 -31 -13 -25 0 -36 29 -27 14 5 20 2 20 -9 0 -9 -4 -16 -10 -16 -5
0 -13 -1 -17 -2 -7 -3 -63 -103 -63 -113 0 -10 105 -4 139 8 54 19 49 34 -10
36 -29 0 -55 3 -58 7 -3 3 10 19 29 35 19 15 30 29 24 29 -7 0 -15 7 -18 16
-3 8 -2 12 4 9 6 -3 10 2 10 12 1 17 1 17 11 1 5 -10 16 -15 24 -12 19 8 19
-6 -1 -34 -12 -18 -13 -22 -1 -22 8 0 19 11 25 25 14 31 52 35 52 5 0 -13 7
-20 20 -20 10 0 24 -8 29 -19 9 -16 6 -21 -19 -31 -47 -19 -55 -35 -31 -59 12
-12 17 -22 11 -22 -20 -3 -25 -4 -39 -13 -8 -5 -27 -9 -42 -8 -19 0 -29 -4
-29 -13 0 -9 6 -12 15 -9 8 4 21 1 28 -4 11 -9 181 -9 214 0 14 3 53 -13 53
-22 0 -5 -17 -12 -37 -15 -90 -16 -91 -22 -4 -54 51 -19 81 -44 67 -58 -5 -5
-34 -11 -58 -12 -34 -2 -17 -19 25 -26 69 -12 100 -55 39 -55 -16 0 -32 -8
-39 -19 -10 -16 -8 -22 12 -35 13 -9 28 -16 33 -16 13 0 62 -73 62 -93 0 -9 7
-17 15 -17 18 0 19 -12 3 -28 -10 -10 -8 -19 5 -42 10 -17 13 -30 8 -30 -14 0
-14 -37 -1 -45 15 -9 13 -66 -2 -64 -42 5 -46 0 -41 -43 3 -24 6 -51 7 -60 0
-10 8 -18 17 -18 23 0 29 -41 9 -58 -11 -10 -11 -11 -1 -6 10 5 12 3 7 -5 -6
-9 -11 -9 -24 1 -12 10 -16 10 -19 0 -3 -6 -10 -9 -16 -5 -7 4 -6 -1 2 -10 8
-10 15 -27 17 -40 2 -12 8 -44 13 -72 6 -34 5 -54 -2 -63 -6 -8 -7 -16 -1 -20
12 -9 15 -82 3 -82 -5 0 -9 6 -9 14 0 14 -27 42 -35 35 -8 -8 17 -89 26 -83 5
3 6 -2 3 -10 -4 -9 -1 -16 6 -16 10 0 10 -3 1 -14 -9 -11 -9 -16 -1 -21 8 -5
10 -24 7 -50 -4 -32 -2 -45 9 -49 7 -3 13 -13 11 -23 -1 -10 2 -18 8 -18 5 0
9 4 7 8 -1 5 2 6 8 2 5 -3 10 -17 10 -31 0 -14 -4 -23 -9 -20 -14 9 -19 -17
-8 -41 11 -26 23 -29 31 -10 3 8 5 7 4 -3 -3 -27 12 -58 37 -74 14 -9 25 -24
25 -34 0 -15 -2 -15 -11 -2 -8 11 -9 6 -4 -20 3 -19 6 -44 6 -54 0 -11 4 -27
9 -37 11 -20 3 -52 -12 -43 -5 3 1 -14 13 -37 18 -34 24 -40 27 -25 2 11 -3
23 -13 29 -14 8 -15 11 -4 18 20 13 31 11 24 -3 -4 -7 2 -4 12 7 10 11 30 26
46 34 20 11 27 22 27 44 0 16 9 42 20 57 11 16 17 35 14 44 -14 38 79 6 124
-41 32 -34 56 -85 86 -183 58 -183 52 -287 -34 -555 -27 -82 -60 -195 -74
-250 -49 -196 -104 -339 -149 -391 -23 -27 -69 -58 -125 -88 -106 -54 -102
-44 -102 -255 0 -174 -20 -350 -53 -481 -38 -145 -104 -277 -315 -626 -51 -83
-92 -159 -92 -168 0 -9 4 -24 10 -34 17 -29 120 -263 151 -344 16 -42 37 -79
47 -83 40 -17 131 -34 177 -35 66 0 164 -24 223 -54 26 -13 81 -37 122 -54
142 -56 479 -222 552 -270 94 -63 120 -76 226 -113 101 -36 176 -72 287 -139
47 -29 117 -60 170 -76 105 -31 235 -94 285 -137 19 -17 57 -55 83 -86 79 -91
98 -111 117 -121 16 -8 32 8 113 118 528 712 835 1514 929 2422 17 162 17 726
0 880 -69 630 -213 1144 -472 1675 -457 939 -1255 1736 -2195 2194 -518 253
-1036 402 -1620 467 -166 18 -669 26 -835 14z m249 -1138 c1 -7 -3 -10 -9 -7
-5 3 -10 18 -9 33 0 24 1 25 9 7 5 -11 9 -26 9 -33z m958 -34 c-3 -8 -6 -5 -6
6 -1 11 2 17 5 13 3 -3 4 -12 1 -19z m-960 -50 c-3 -8 -6 -5 -6 6 -1 11 2 17
5 13 3 -3 4 -12 1 -19z m585 -75 c-10 -31 -17 -9 -13 39 l5 53 6 -40 c3 -22 4
-46 2 -52z m-585 35 c-3 -8 -6 -5 -6 6 -1 11 2 17 5 13 3 -3 4 -12 1 -19z
m1493 2 c0 -5 -5 -10 -11 -10 -5 0 -7 5 -4 10 3 6 8 10 11 10 2 0 4 -4 4 -10z
m20 -54 c0 -8 -5 -16 -12 -18 -7 -3 -9 -12 -5 -22 5 -12 13 -16 25 -11 41 17
55 18 50 4 -8 -25 -85 -54 -107 -40 -12 8 -12 16 3 55 17 43 46 63 46 32z
m-1087 -16 c-3 -12 -8 -19 -11 -16 -5 6 5 36 12 36 2 0 2 -9 -1 -20z m487 -4
c0 -8 -4 -18 -10 -21 -5 -3 -10 3 -10 14 0 12 5 21 10 21 6 0 10 -6 10 -14z
m515 -6 c3 -5 -1 -10 -10 -10 -9 0 -13 5 -10 10 3 6 8 10 10 10 2 0 7 -4 10
-10z m-1218 -56 c2 -10 -6 -30 -17 -44 l-20 -25 0 32 c0 40 9 65 24 60 6 -2
12 -12 13 -23z m475 -9 c-2 -14 -8 -25 -13 -25 -5 0 -9 11 -9 25 0 14 6 25 14
25 9 0 12 -8 8 -25z m473 -14 c-3 -6 -11 -11 -17 -11 -6 0 -6 6 2 15 14 17 26
13 15 -4z m-760 -98 l-16 -28 7 43 c6 44 11 69 15 87 1 6 4 -9 6 -32 3 -26 -2
-53 -12 -70z m1290 45 c-7 -17 -47 -38 -73 -38 -9 0 1 10 23 21 22 12 42 26
44 31 1 5 5 7 7 5 3 -2 2 -11 -1 -19z m-1201 -59 c-8 -13 -24 -1 -24 18 0 13
3 13 15 3 8 -7 12 -16 9 -21z m-134 -59 c0 -5 -5 -10 -11 -10 -5 0 -7 5 -4 10
3 6 8 10 11 10 2 0 4 -4 4 -10z m1510 -716 c0 -8 -4 -14 -8 -14 -4 0 -8 9 -8
19 0 11 4 17 8 15 4 -3 8 -12 8 -20z m10 -28 c0 -11 -19 -15 -25 -6 -3 5 1 10
9 10 9 0 16 -2 16 -4z m-3410 -166 c0 -5 -5 -10 -11 -10 -5 0 -7 5 -4 10 3 6
8 10 11 10 2 0 4 -4 4 -10z m3408 -20 c13 -35 -2 -50 -18 -19 -10 18 -8 49 4
49 2 0 9 -13 14 -30z m-3425 -55 c-22 -17 -30 -11 -13 10 7 8 17 12 22 9 5 -3
1 -12 -9 -19z m3463 -72 c-4 -4 -11 -1 -16 7 -16 25 -11 35 7 17 9 -9 13 -20
9 -24z m-1 -403 c3 -5 -1 -10 -10 -10 -9 0 -13 5 -10 10 3 6 8 10 10 10 2 0 7
-4 10 -10z m-3480 -79 c5 -15 4 -21 -3 -17 -6 3 -13 2 -17 -3 -3 -6 3 -8 13
-6 13 2 24 -5 32 -21 8 -13 17 -24 22 -24 5 0 6 -4 3 -10 -3 -5 0 -10 7 -10
10 0 10 -2 -1 -9 -8 -5 -20 -7 -27 -4 -19 7 -26 -14 -6 -23 9 -4 21 -8 26 -8
5 -1 10 -7 12 -14 1 -7 0 -8 -2 -3 -3 5 -16 8 -29 5 -21 -4 -26 1 -35 34 -6
23 -16 39 -25 39 -21 0 -19 -17 3 -18 13 0 12 -3 -5 -11 -13 -6 -23 -15 -23
-21 0 -5 6 -4 14 2 11 9 16 9 22 0 5 -8 3 -9 -6 -4 -10 6 -12 4 -7 -8 3 -9 0
-18 -9 -21 -9 -4 -12 -2 -8 5 3 6 -1 10 -12 9 -35 -4 -44 0 -59 30 -19 36 -19
41 0 34 10 -4 15 0 15 11 0 9 3 14 8 11 4 -2 12 7 19 20 6 13 7 21 2 18 -12
-7 12 47 28 64 7 7 13 19 13 25 1 13 22 -33 35 -72z m765 -51 c0 -5 -2 -10 -4
-10 -3 0 -8 5 -11 10 -3 6 -1 10 4 10 6 0 11 -4 11 -10z m-116 -11 c-7 -13 35
-9 71 6 18 8 18 7 6 -8 -8 -11 -28 -17 -52 -17 -37 0 -48 8 -32 23 10 11 15 8
7 -4z m-564 -74 c0 -8 7 -15 15 -15 8 0 15 -5 15 -11 0 -6 -7 -9 -15 -5 -8 3
-14 2 -13 -2 1 -4 -2 -15 -7 -25 -4 -10 -3 -28 3 -41 8 -18 7 -22 -8 -23 -13
-1 -16 4 -12 24 4 20 2 24 -9 18 -8 -5 -3 4 11 19 14 15 23 31 22 34 -2 4 -8
15 -13 25 -6 11 -6 17 1 17 5 0 10 -7 10 -15z m-52 -35 c7 0 12 -4 12 -10 0
-13 -17 -13 -25 0 -4 6 -11 8 -16 4 -5 -3 -6 -10 -3 -16 4 -7 2 -8 -4 -4 -7 4
-12 19 -12 33 0 25 1 25 18 10 10 -10 24 -17 30 -17z m-97 8 c1 -5 3 -12 4
-18 1 -5 3 -14 4 -18 0 -4 22 -7 48 -7 39 2 43 0 29 -10 -15 -11 -14 -14 6
-28 15 -11 17 -15 6 -11 -10 4 -18 1 -18 -5 0 -10 22 -16 45 -11 6 1 4 -4 -2
-11 -20 -20 -15 -39 10 -40 16 -1 18 -2 5 -6 -10 -2 -18 -8 -18 -13 0 -5 7 -7
15 -4 11 5 13 2 9 -10 -3 -9 -10 -16 -15 -16 -10 0 -7 -29 5 -49 6 -10 5 -12
-2 -7 -14 9 -15 -3 -3 -24 6 -8 7 -19 3 -25 -11 -17 -11 -35 0 -35 6 0 6 -6
-2 -15 -7 -8 -17 -12 -23 -8 -6 4 -7 1 -3 -6 5 -7 14 -10 22 -7 8 3 13 0 11
-7 -3 -17 35 -9 50 11 7 10 12 22 13 27 0 6 -5 3 -10 -5 -5 -8 -10 -10 -10 -5
0 13 42 51 52 47 4 -1 5 4 2 11 -2 7 4 13 16 14 12 1 18 -2 14 -9 -5 -7 -2 -8
7 -2 27 17 40 14 28 -7 -9 -18 -8 -19 10 -7 22 14 23 27 1 45 -13 10 -11 11 8
6 12 -3 22 -10 22 -17 0 -6 5 -3 11 7 5 9 16 17 23 17 8 0 16 6 19 14 4 9 14
12 28 9 17 -5 20 -3 14 7 -5 9 -4 11 4 6 6 -4 9 -11 6 -16 -3 -5 -1 -11 5 -15
5 -3 10 -1 10 4 0 6 12 11 26 11 19 0 25 -4 20 -15 -3 -8 -1 -15 4 -15 6 0 10
-5 10 -11 0 -5 -5 -7 -11 -3 -8 5 -10 -1 -6 -18 5 -19 2 -28 -10 -32 -9 -4
-13 -9 -10 -12 3 -4 -1 -13 -9 -22 -9 -8 -13 -23 -11 -33 3 -11 1 -19 -4 -19
-5 0 -9 5 -9 12 0 6 -9 3 -20 -7 -11 -10 -20 -23 -20 -29 0 -6 5 -4 10 4 8 13
10 13 10 -2 0 -10 7 -15 18 -13 9 1 27 -1 38 -6 12 -4 25 -5 28 -1 4 3 20 7
35 8 16 1 41 10 56 20 26 17 26 17 20 -8 -7 -26 8 -47 20 -28 3 5 11 10 16 10
6 0 7 -4 4 -10 -3 -5 -4 -10 -1 -10 2 0 11 -3 20 -6 13 -5 15 -1 10 25 -6 28
-4 31 17 32 34 2 31 2 58 -6 19 -6 23 -4 18 9 -3 8 -1 18 4 22 6 3 9 15 6 25
-3 11 -1 19 5 19 6 0 7 8 4 18 -4 9 8 1 26 -19 23 -25 45 -38 73 -43 44 -8
158 -8 190 0 24 6 60 58 70 102 8 38 12 39 47 8 33 -28 68 -112 43 -102 -8 3
-15 2 -15 -3 0 -9 31 -22 68 -27 13 -1 29 -8 36 -13 7 -6 36 -12 64 -13 54 -3
61 -9 15 -14 -15 -2 -33 -11 -40 -20 -7 -10 -13 -13 -13 -7 0 15 -82 5 -101
-13 -9 -8 -19 -11 -23 -7 -4 4 -10 2 -14 -4 -9 -14 -101 -45 -113 -38 -5 4 -9
1 -9 -4 0 -6 -12 -11 -27 -11 -16 0 -35 -4 -42 -9 -9 -6 -22 -6 -32 0 -24 12
-35 -7 -12 -20 16 -9 16 -10 1 -11 -9 0 -20 5 -23 10 -8 13 -45 13 -45 -1 0
-6 8 -8 19 -4 13 4 24 -1 34 -15 7 -11 16 -17 20 -14 3 3 29 7 57 8 32 2 55 8
61 17 7 12 9 12 9 -1 0 -12 2 -12 8 -2 11 16 62 26 62 12 0 -5 11 -10 24 -10
14 0 28 -5 31 -10 4 -7 13 -6 27 1 15 8 19 8 14 0 -4 -6 -3 -11 3 -11 5 0 13
5 16 10 5 8 11 8 20 0 13 -11 65 -4 65 9 0 4 14 6 30 5 21 -1 30 3 30 13 0 8
7 21 15 29 8 9 15 13 15 11 0 -3 3 -13 6 -21 5 -12 2 -15 -10 -10 -9 3 -16 1
-16 -5 0 -6 6 -11 13 -11 12 -1 -19 -22 -38 -26 -5 -1 -21 -5 -35 -7 -14 -3
-26 -6 -28 -6 -2 -1 0 -6 3 -11 5 -8 12 -7 23 2 13 11 14 11 10 -2 -2 -8 -15
-17 -29 -21 -13 -4 -19 -7 -13 -8 6 -1 11 -8 11 -16 0 -20 -7 -19 -23 3 -12
16 -12 16 -9 -3 2 -11 4 -22 6 -25 3 -7 7 -23 8 -37 0 -7 8 -13 16 -13 8 0 15
-4 15 -9 0 -4 -11 -6 -24 -4 -18 4 -23 10 -20 32 2 19 -3 31 -19 40 -20 13
-21 13 -8 -2 11 -14 11 -18 -2 -23 -17 -6 -19 -44 -2 -44 5 0 4 -4 -3 -9 -18
-11 -16 -17 8 -41 11 -11 27 -17 37 -14 11 3 14 2 8 -3 -5 -4 -16 -19 -23 -31
-12 -21 -11 -27 5 -45 11 -12 12 -17 3 -12 -30 18 -56 14 -57 -8 -1 -12 1 -17
5 -12 9 13 35 18 27 5 -3 -5 0 -10 7 -10 8 0 9 -3 3 -8 -5 -4 -11 -15 -12 -25
0 -10 1 -16 4 -13 3 3 12 -2 21 -10 13 -14 13 -17 1 -25 -11 -7 -11 -9 -1 -9
7 0 10 -4 7 -10 -3 -5 -13 -10 -21 -10 -8 0 -12 5 -9 10 3 6 1 10 -5 10 -6 0
-8 4 -5 10 3 6 -1 7 -9 4 -9 -3 -16 -13 -16 -21 0 -8 4 -11 10 -8 6 4 7 -2 1
-17 -6 -16 -15 -22 -30 -20 -12 2 -21 -2 -21 -10 0 -7 -12 -24 -26 -37 -21
-20 -27 -22 -35 -10 -7 11 -9 10 -9 -5 0 -12 -5 -16 -15 -12 -8 3 -15 1 -15
-3 0 -5 4 -11 10 -13 6 -2 6 -8 0 -18 -8 -12 -12 -13 -19 -2 -12 19 -42 -13
-34 -35 4 -11 3 -14 -5 -9 -7 4 -12 2 -12 -4 0 -7 -6 -10 -14 -7 -16 6 -30
-19 -19 -35 3 -7 1 -8 -5 -4 -6 3 -15 -2 -21 -11 -6 -10 -11 -14 -11 -9 0 5
-9 1 -20 -9 -11 -10 -20 -13 -20 -7 0 7 -5 12 -11 12 -6 0 -9 -9 -6 -20 4 -17
-6 -33 -23 -35 -3 -1 -16 -5 -29 -9 -15 -5 -27 -4 -35 4 -8 10 -8 11 1 6 13
-7 28 10 16 17 -5 3 -22 -6 -38 -19 -17 -13 -24 -24 -16 -24 8 0 11 -3 7 -7
-4 -5 -16 -8 -27 -8 -10 0 -18 -4 -16 -10 1 -5 5 -9 10 -8 4 2 7 -1 7 -7 0
-11 -47 -26 -68 -22 -15 4 -42 -22 -42 -40 -1 -9 -5 -7 -14 5 -13 17 -15 16
-34 -8 -20 -25 -40 -35 -26 -13 4 7 3 8 -5 4 -6 -4 -11 -13 -10 -19 4 -37 -2
-68 -13 -61 -8 5 -9 2 -5 -9 3 -9 1 -19 -5 -23 -6 -4 -8 -3 -5 2 3 6 2 16 -4
24 -7 13 -9 12 -9 -2 0 -10 -7 -18 -15 -18 -8 0 -15 -7 -15 -16 0 -9 -5 -12
-12 -8 -6 4 -8 3 -4 -4 3 -5 3 -12 -1 -15 -5 -2 -3 -2 4 -1 8 2 11 -7 8 -29
-3 -18 -2 -26 1 -19 5 10 9 10 20 1 22 -18 17 -38 -7 -34 -12 3 -19 2 -16 -2
4 -3 2 -14 -4 -24 -11 -22 0 -25 21 -6 7 7 6 1 -3 -12 -18 -27 -8 -50 22 -52
12 0 11 -2 -4 -9 -11 -5 -14 -9 -7 -9 6 -1 12 -11 13 -23 0 -22 1 -22 9 -3 7
17 12 11 9 -11 0 -4 5 -10 12 -15 10 -6 10 -11 0 -23 -11 -13 -11 -17 1 -21 7
-3 15 -18 16 -33 3 -35 63 -153 81 -160 8 -3 17 0 19 8 3 8 10 1 17 -16 l12
-29 -1 32 c-1 17 -3 31 -6 31 -19 -1 -30 4 -30 13 0 6 9 8 20 4 13 -4 20 -2
20 7 1 8 6 6 15 -6 9 -12 22 -17 34 -13 11 3 20 2 19 -2 -5 -15 23 -50 36 -45
8 3 17 0 22 -7 5 -8 3 -10 -7 -4 -8 4 -4 -2 9 -14 12 -12 22 -26 22 -31 0 -6
7 -10 16 -10 8 0 13 4 9 9 -3 6 3 8 15 6 11 -2 22 0 25 6 9 14 25 11 19 -5 -4
-10 2 -12 22 -8 16 3 25 1 21 -5 -8 -13 34 -36 59 -31 14 2 18 -2 16 -16 -2
-10 1 -15 7 -11 7 4 8 0 4 -11 -4 -12 -3 -15 6 -10 17 11 51 -22 44 -42 -4
-15 -3 -15 6 -2 10 13 13 13 26 -4 8 -11 15 -26 15 -34 0 -8 6 -12 15 -9 8 4
17 2 20 -3 3 -6 15 -6 30 0 20 8 25 6 25 -6 0 -10 6 -14 14 -11 10 4 12 -3 10
-25 -3 -22 0 -29 12 -26 8 2 15 6 15 10 -1 10 44 58 54 58 4 0 1 -7 -6 -16
-11 -14 -10 -16 6 -13 11 2 26 0 34 -5 10 -7 6 -15 -19 -36 -34 -29 -33 -56 1
-47 11 3 19 0 19 -6 0 -6 6 -2 14 9 8 10 18 16 22 12 4 -5 -3 -17 -16 -28 -16
-14 -26 -17 -31 -9 -5 8 -8 8 -13 0 -11 -18 -36 -13 -29 5 5 13 2 15 -17 9
-17 -5 -21 -4 -16 6 4 8 0 5 -8 -5 -9 -11 -16 -15 -16 -8 0 6 -7 9 -17 5 -10
-4 -14 -2 -9 5 3 6 2 13 -3 16 -5 3 -12 -2 -16 -12 -6 -16 -7 -16 -21 2 -8 11
-20 21 -27 22 -6 2 -23 5 -36 8 -37 8 -45 -3 -19 -27 13 -12 24 -26 25 -30 2
-15 13 -21 13 -8 0 7 5 9 10 6 6 -3 10 -2 10 4 0 6 7 8 15 5 8 -4 15 -10 15
-16 0 -5 -5 -6 -10 -3 -6 4 -17 1 -25 -5 -17 -14 -21 -35 -5 -25 6 3 7 -1 3
-10 -5 -13 -7 -14 -14 -3 -7 10 -9 10 -9 -2 0 -12 -2 -13 -9 -1 -5 8 -14 10
-21 6 -9 -6 -11 -4 -6 4 5 7 14 10 22 7 16 -6 17 -4 8 18 -8 22 -34 20 -34 -1
0 -15 -2 -15 -9 -4 -8 12 -14 12 -33 3 l-23 -12 25 5 c23 5 23 5 6 -6 -17 -11
-23 -8 -48 22 -15 18 -28 29 -28 24 0 -6 -5 -3 -11 5 -9 12 -10 11 -6 -8 3
-13 -1 -25 -10 -31 -13 -7 -13 -9 1 -14 9 -4 15 -3 14 1 -1 4 2 15 7 25 6 14
10 15 15 6 10 -15 -9 -61 -21 -53 -14 8 -10 -13 4 -28 7 -7 16 -20 20 -28 4
-8 11 -22 17 -30 10 -16 31 -66 36 -87 1 -6 -6 -13 -16 -16 -19 -5 -34 -57
-17 -57 8 0 8 -3 0 -11 -8 -8 -17 -8 -34 1 -22 10 -22 10 -6 -4 10 -8 17 -22
15 -33 -4 -26 25 -23 37 4 5 13 14 23 20 23 5 0 3 5 -5 10 -13 8 -12 10 3 10
9 0 17 -7 17 -15 0 -8 -4 -15 -10 -15 -5 0 -10 -4 -10 -9 0 -5 9 -7 19 -4 25
6 32 -33 13 -64 -12 -19 -12 -23 -1 -23 11 0 11 -2 -1 -10 -8 -5 -11 -12 -8
-16 4 -4 3 -15 -2 -25 -7 -11 -6 -19 0 -22 6 -3 5 -4 -2 -3 -7 2 -12 11 -10
21 3 14 -1 16 -17 12 -12 -3 -21 -1 -21 4 0 5 5 9 12 9 6 0 9 2 6 5 -3 3 -13
3 -22 -1 -13 -5 -14 -9 -5 -20 6 -8 15 -11 20 -8 5 3 9 0 9 -5 0 -6 -4 -12
-10 -12 -5 -1 -15 -2 -20 -3 -6 0 -15 -8 -20 -16 -7 -10 -10 -11 -10 -2 0 7
-11 18 -25 24 -27 12 -32 37 -13 56 7 7 8 12 2 12 -5 0 -16 -6 -23 -12 -10
-11 -11 -9 -5 6 6 15 4 17 -6 11 -9 -6 -11 -4 -6 4 5 7 14 10 22 7 8 -3 14 -4
14 -2 0 3 3 13 6 23 4 11 3 14 -3 6 -4 -6 -17 -13 -28 -15 -20 -3 -21 -1 -24
55 -1 10 -6 15 -11 12 -6 -3 -14 5 -20 19 -6 16 -17 26 -30 26 -11 0 -20 5
-20 11 0 6 6 9 14 6 10 -4 12 0 9 14 -3 10 -9 17 -13 14 -8 -5 -25 42 -21 62
1 6 -9 19 -21 27 -13 9 -23 24 -23 34 0 10 -7 16 -17 16 -11 -1 -18 5 -18 15
0 9 -5 22 -11 28 -6 6 -9 19 -7 29 2 12 -12 34 -39 61 -46 45 -73 56 -81 34
-3 -9 1 -11 17 -6 11 3 21 2 21 -3 0 -17 -13 -21 -31 -11 -16 8 -19 6 -19 -11
0 -11 5 -20 11 -20 5 0 7 5 3 12 -5 7 -3 8 6 3 10 -6 9 -11 -4 -20 -16 -12
-16 -14 0 -29 10 -11 13 -23 8 -34 -17 -39 4 -64 46 -56 l25 4 -23 -10 c-13
-5 -29 -7 -35 -4 -7 4 -5 1 3 -7 8 -8 20 -21 27 -29 11 -13 12 -13 7 1 -3 10
-1 20 4 23 20 12 20 -36 0 -56 -11 -11 -17 -23 -13 -26 3 -4 10 0 15 8 6 8 10
10 10 4 0 -5 -5 -15 -12 -22 -9 -9 -8 -12 5 -12 10 0 20 -6 23 -14 3 -8 12
-12 20 -9 8 3 14 0 14 -7 0 -6 5 -8 12 -4 7 5 8 3 3 -6 -5 -8 -2 -18 9 -26 10
-7 17 -15 16 -18 0 -3 2 -17 6 -31 5 -19 9 -23 19 -15 9 7 16 6 25 -5 10 -12
9 -15 -6 -16 -11 -1 -23 -1 -27 0 -5 1 -6 -3 -2 -9 3 -6 12 -7 18 -3 9 5 9 3
0 -8 -7 -9 -8 -20 -4 -28 7 -11 11 -9 20 6 5 11 7 23 4 27 -3 3 2 6 12 6 14 0
15 -3 5 -15 -8 -10 -9 -15 -2 -15 6 0 9 -7 5 -16 -4 -11 -8 -12 -13 -4 -5 8
-9 7 -13 -4 -4 -11 -1 -16 11 -17 12 0 10 -3 -7 -10 -19 -8 -22 -12 -12 -22 9
-9 14 -9 21 3 5 8 10 10 10 4 0 -6 -7 -17 -15 -24 -13 -11 -20 -9 -42 11 -14
13 -23 18 -18 10 6 -11 4 -13 -9 -8 -11 4 -15 3 -11 -4 4 -6 12 -8 19 -6 6 3
18 -3 26 -11 13 -14 12 -15 -3 -9 -9 3 -19 2 -22 -3 -4 -6 0 -10 9 -10 8 0 17
-6 19 -12 3 -8 6 -6 6 5 1 15 5 16 21 7 18 -10 31 2 13 13 -5 2 -3 2 4 1 6 -2
14 2 16 9 2 7 3 3 1 -7 -2 -11 2 -27 9 -35 9 -11 9 -13 0 -8 -6 4 -14 3 -18
-3 -3 -5 2 -10 12 -10 10 0 25 -5 33 -10 11 -8 8 -9 -12 -4 -38 8 -51 -3 -30
-26 9 -11 22 -20 29 -20 7 0 13 -9 13 -21 0 -13 4 -18 12 -13 6 4 8 3 5 -4
-11 -17 -48 -1 -59 27 -6 15 -12 21 -15 14 -5 -14 -24 -18 -21 -5 6 22 -15 52
-37 52 -13 0 -26 4 -30 9 -3 6 9 8 27 7 18 -2 25 -1 15 1 -9 2 -15 9 -12 14 4
5 0 9 -8 9 -20 0 -62 47 -46 52 10 3 10 6 1 12 -16 10 -33 -35 -20 -51 6 -7
18 -13 27 -14 9 0 11 -3 4 -5 -6 -3 -27 5 -46 18 -31 20 -35 27 -32 61 3 32 1
36 -11 26 -12 -10 -13 -9 -8 5 4 11 1 16 -11 16 -16 0 -16 -2 -1 -25 16 -24
16 -25 -4 -25 -15 0 -20 7 -20 26 0 18 -4 25 -14 21 -8 -3 -17 1 -20 9 -3 8 0
14 6 14 6 0 8 3 5 7 -4 3 -2 12 4 20 8 9 8 13 1 13 -6 0 -16 -9 -22 -20 -6
-11 -15 -20 -21 -20 -6 0 -3 7 5 16 9 8 16 18 16 22 0 3 -5 1 -12 -6 -14 -14
-52 -16 -43 -2 3 5 0 10 -7 10 -10 0 -10 2 -1 8 19 12 -2 36 -26 29 -14 -3
-21 0 -21 8 0 7 -3 21 -7 31 -5 13 -3 15 8 9 8 -5 7 0 -3 10 -23 25 -31 15
-18 -20 9 -25 9 -26 -5 -15 -8 7 -15 19 -15 28 0 8 -3 12 -7 9 -6 -7 -29 20
-33 38 -1 6 -8 14 -16 18 -8 5 -12 12 -9 18 4 5 1 9 -5 9 -6 0 -8 5 -5 10 4 6
2 17 -4 24 -9 10 -8 15 5 20 11 4 15 2 11 -8 -4 -10 -1 -13 9 -9 13 5 12 9 -6
28 -14 15 -18 25 -11 30 14 8 14 25 0 25 -5 0 -7 -5 -3 -12 4 -7 3 -8 -4 -4
-16 10 -15 -17 0 -32 9 -9 8 -12 -5 -12 -23 0 -23 45 1 62 22 16 22 40 0 44
-11 1 -15 -3 -12 -14 5 -14 4 -14 -6 1 -6 9 -8 22 -4 29 5 7 -1 9 -20 6 -19
-4 -29 -1 -33 9 -5 12 -7 12 -14 1 -6 -10 -11 -10 -20 -1 -17 17 18 30 42 15
16 -10 17 -8 9 21 l-9 32 23 -28 c21 -27 23 -27 21 -6 -2 29 -41 45 -61 24
-18 -18 -25 -19 -22 -3 2 6 -7 14 -19 17 -19 5 -20 8 -8 24 13 18 14 18 25 -2
6 -12 15 -21 21 -21 6 0 8 4 5 9 -3 4 7 6 22 3 15 -3 24 -2 21 2 -4 4 -17 9
-29 11 -31 6 -38 15 -12 15 15 0 20 4 15 15 -5 14 -7 14 -24 -1 -19 -17 -44
-11 -33 8 4 7 2 8 -5 4 -6 -4 -9 -11 -6 -16 5 -9 -25 -23 -33 -15 -3 2 1 12 9
22 9 11 10 14 2 9 -7 -4 -13 -4 -13 1 0 4 -11 21 -25 37 -27 32 -34 56 -10 36
8 -7 15 -10 15 -7 0 13 -24 57 -31 57 -6 0 -19 34 -25 65 -1 6 -3 12 -4 15 -8
20 -9 70 -2 70 6 0 15 13 20 30 6 16 8 29 4 29 -20 -3 -23 3 -11 18 13 15 11
16 -16 9 -29 -7 -29 -7 -11 13 17 19 17 19 -3 14 -15 -4 -21 -1 -21 11 0 9 6
13 13 10 8 -3 14 2 14 10 0 8 -6 12 -15 8 -10 -3 -13 -1 -8 6 3 6 2 13 -4 17
-16 10 -11 26 8 23 9 -2 25 -20 35 -40 10 -21 22 -38 27 -38 6 0 10 -4 10 -10
0 -5 -8 -7 -17 -4 -15 5 -16 4 -3 -5 8 -6 16 -25 16 -43 1 -18 3 -46 5 -63 3
-22 0 -29 -11 -27 -11 2 -11 -1 2 -11 10 -8 15 -17 11 -20 -3 -4 -1 -7 5 -7 6
0 14 -10 17 -21 6 -17 9 -19 16 -8 10 16 12 7 11 -44 0 -15 2 -26 6 -24 4 2
17 -7 29 -20 12 -13 18 -23 12 -23 -6 0 -8 -4 -5 -9 4 -5 1 -11 -6 -13 -8 -3
-7 -11 5 -28 13 -19 17 -21 17 -7 0 9 -6 17 -12 17 -8 1 -6 6 5 14 22 17 22
33 -2 46 -11 5 -20 18 -20 28 -1 51 -14 82 -35 83 -11 0 -15 3 -8 6 10 4 10 7
-1 17 -8 6 -18 21 -22 33 -5 19 -3 22 12 17 17 -5 17 -5 0 6 -9 6 -15 15 -12
21 4 5 1 9 -5 9 -6 0 -8 5 -3 13 4 6 8 26 9 44 2 24 -3 34 -17 38 -23 8 -25
21 -3 29 12 5 10 10 -13 31 -15 14 -21 23 -13 20 24 -8 26 118 3 145 -18 21
-21 32 -28 105 -6 71 -15 109 -27 116 -7 5 -7 8 0 13 6 4 15 -2 21 -11 9 -16
10 -16 11 -1 0 9 6 19 13 22 6 3 4 4 -7 3 -23 -2 -31 29 -9 37 11 4 13 2 9 -9
-4 -10 1 -15 14 -15 13 0 20 7 20 20 0 11 3 20 8 20 4 0 8 11 8 25 1 14 -2 22
-7 19 -5 -3 -8 6 -7 20 1 13 6 24 11 23 5 -1 16 9 25 23 10 14 12 21 4 16 -17
-10 -44 52 -31 75 6 12 4 19 -7 23 -8 3 -12 2 -9 -4 3 -6 3 -15 -1 -21 -5 -8
-9 -8 -14 1 -10 17 -31 3 -24 -15 4 -8 10 -12 15 -9 5 3 4 -6 -3 -20 -6 -14
-18 -26 -27 -27 -12 0 -11 -2 3 -8 19 -7 19 -8 -2 -13 -12 -4 -20 -3 -17 2 3
4 -5 21 -17 36 -15 19 -16 24 -5 15 20 -16 22 -4 6 36 -16 39 -21 86 -9 78 6
-3 10 -1 10 4 0 6 -7 11 -15 11 -8 0 -15 7 -15 16 0 14 2 15 17 3 15 -13 15
-12 2 9 -8 12 -16 22 -20 22 -3 0 -6 7 -6 15 0 8 5 15 10 15 5 0 4 7 -3 15 -7
8 -8 15 -2 15 5 0 12 9 15 20 3 11 1 17 -4 14 -5 -3 -15 8 -22 25 -7 17 -15
29 -18 27 -3 -3 -6 4 -6 16 -1 12 -7 24 -14 28 -6 4 -8 13 -5 19 4 6 12 9 17
6 12 -8 11 17 -2 35 -9 13 -10 12 -5 -2 9 -31 -18 -20 -32 12 -8 17 -20 30
-28 30 -7 0 -11 6 -8 14 3 8 0 17 -6 21 -9 6 -9 10 1 16 12 8 -13 12 -48 8
-22 -2 -24 141 -1 168 7 9 7 13 -1 13 -17 0 -13 36 5 51 13 11 13 15 2 23 -15
13 -20 46 -7 46 6 0 5 8 -1 19 -7 15 -6 23 6 35 8 9 18 16 21 16 4 0 3 -3 0
-7 -4 -3 -2 -12 4 -20 9 -10 8 -13 0 -13 -7 0 -9 -5 -5 -11 13 -22 25 9 18 50
-4 24 -10 39 -13 34 -3 -4 -12 -9 -18 -11 -21 -4 -14 26 9 42 12 9 18 16 11
16 -7 0 -8 11 -3 33 4 17 11 31 16 30 5 0 15 5 22 13 16 17 0 19 -30 3 -13 -7
-18 -7 -14 -1 3 6 2 13 -4 17 -14 9 -12 67 4 87 7 10 17 14 22 10 4 -4 4 0 -1
8 -6 8 -10 24 -9 35 3 55 4 57 21 51 16 -6 16 -5 0 12 -28 31 -12 67 29 67 13
0 25 -3 25 -7z m469 2 c0 -5 -5 -10 -11 -10 -5 0 -7 5 -4 10 3 6 8 10 11 10 2
0 4 -4 4 -10z m-114 -21 c3 -6 1 -16 -6 -22 -10 -9 -12 -8 -7 5 3 9 1 19 -6
22 -9 3 -9 5 0 5 6 1 15 -4 19 -10z m-951 -9 c11 -5 14 -9 8 -9 -24 -2 -13
-30 17 -46 16 -8 36 -28 44 -43 8 -16 22 -34 30 -41 11 -9 13 -18 6 -30 -6
-13 -3 -20 11 -29 23 -15 25 -32 3 -32 -9 0 -21 14 -27 30 -7 18 -19 30 -29
30 -10 0 -18 3 -18 8 0 16 -68 52 -98 52 -17 0 -34 5 -37 10 -4 7 -13 7 -26 0
-15 -9 -21 -7 -25 5 -7 17 14 48 27 39 5 -3 9 1 9 9 0 15 55 55 75 55 6 1 19
-3 30 -8z m1245 -100 c0 -5 -5 -10 -11 -10 -5 0 -7 5 -4 10 3 6 8 10 11 10 2
0 4 -4 4 -10z m-66 -15 c-5 -12 -2 -14 12 -8 16 6 17 5 6 -9 -9 -11 -10 -18
-2 -23 15 -9 12 -25 -5 -25 -8 0 -15 -4 -15 -10 0 -5 -6 -10 -14 -10 -8 0 -22
-7 -30 -16 -15 -14 -16 -13 -16 6 0 12 -4 19 -10 15 -11 -7 -60 4 -60 14 0 3
11 7 25 7 15 1 22 -2 19 -8 -4 -6 -1 -8 7 -6 8 3 13 11 11 18 -5 20 26 58 50
63 13 2 24 5 25 6 1 0 0 -6 -3 -14z m129 -11 c-7 -18 -27 -13 -31 9 -2 11 2
14 17 10 12 -3 17 -11 14 -19z m267 -4 c13 -9 13 -11 0 -20 -8 -5 -25 -10 -37
-10 -13 0 -23 -4 -23 -10 0 -5 -9 -10 -20 -10 -11 0 -20 -4 -20 -8 0 -12 -53
-7 -58 6 -5 15 33 33 55 25 10 -3 15 -2 10 3 -5 5 7 14 25 20 42 16 49 16 68
4z m149 -14 c25 -16 8 -26 -34 -22 -54 6 -73 15 -54 27 15 10 69 6 88 -5z
m-502 -2 c-3 -3 -12 -4 -19 -1 -8 3 -5 6 6 6 11 1 17 -2 13 -5z m-467 -49 c0
-9 -6 -12 -15 -9 -8 4 -12 10 -9 15 8 14 24 10 24 -6z m-687 -38 c-5 -32 3
-51 52 -123 10 -16 29 -40 42 -52 20 -22 24 -22 43 -9 22 15 64 12 54 -5 -3
-5 0 -16 8 -25 9 -12 9 -15 1 -9 -8 4 -13 2 -13 -6 0 -7 -6 -2 -13 11 -6 14
-19 26 -27 29 -12 3 -12 2 -3 -8 6 -7 9 -19 6 -28 -8 -20 -82 -92 -95 -92 -5
0 -8 -12 -6 -27 2 -17 8 -27 16 -25 10 2 10 -2 3 -17 -6 -10 -7 -21 -4 -25 3
-3 1 -6 -6 -6 -8 0 -11 -15 -7 -51 4 -51 23 -79 38 -56 4 7 8 8 8 3 0 -6 5 -5
12 2 15 15 48 16 48 2 0 -5 7 -10 15 -10 8 0 15 6 15 14 0 7 16 38 36 68 36
55 37 55 64 41 22 -10 27 -18 22 -36 -5 -18 -3 -20 9 -10 10 8 20 9 29 3 11
-7 12 -10 2 -10 -7 0 -10 -5 -7 -10 4 -6 15 -8 26 -5 22 7 23 2 9 -26 -9 -16
-14 -17 -30 -6 -11 6 -20 17 -20 24 0 7 -5 13 -10 13 -7 0 -6 -8 2 -22 7 -13
11 -26 10 -30 -1 -5 6 -8 15 -8 14 0 15 -2 4 -9 -9 -6 -10 -11 -2 -15 6 -4 9
-11 6 -16 -3 -4 1 -8 8 -7 51 2 100 -5 89 -11 -7 -5 -10 -16 -6 -25 3 -10 1
-17 -6 -17 -6 0 -8 5 -4 12 5 8 2 9 -10 5 -10 -4 -15 -3 -11 3 7 11 -35 31
-48 23 -4 -3 6 -20 23 -40 29 -32 30 -36 15 -52 -14 -16 -14 -21 0 -55 9 -20
20 -34 25 -31 5 3 8 -4 7 -15 -1 -11 -6 -20 -12 -20 -5 0 -2 -7 7 -14 10 -7
14 -17 10 -21 -4 -5 1 -5 11 -2 10 4 16 3 12 -2 -3 -5 1 -12 7 -15 7 -3 0 -3
-15 -1 -24 3 -27 2 -17 -10 6 -8 9 -19 5 -25 -4 -7 2 -14 14 -17 23 -6 28 -19
9 -26 -8 -3 -6 -6 5 -6 9 -1 17 -8 17 -16 0 -9 7 -29 15 -44 18 -36 26 -81 14
-81 -5 0 -9 -8 -8 -17 0 -11 3 -13 6 -5 2 6 8 12 13 12 11 0 7 -19 -9 -49 -7
-13 -9 -21 -4 -18 5 3 15 2 23 -4 8 -5 10 -9 4 -9 -6 0 -10 -21 -10 -53 1 -46
-2 -53 -19 -55 -10 0 -25 4 -33 11 -9 7 -45 10 -96 9 -207 -6 -363 87 -454
271 -24 48 -44 98 -45 110 -1 12 -10 33 -18 47 -9 14 -20 39 -23 55 l-7 30 24
-35 c14 -19 23 -38 20 -43 -2 -4 3 -10 11 -13 9 -3 16 -12 16 -20 0 -8 6 -14
13 -14 7 0 18 -9 25 -21 9 -14 20 -19 33 -16 10 3 17 1 13 -4 -3 -5 2 -9 10
-9 9 0 19 12 22 27 7 28 -11 47 -81 84 -36 19 -76 92 -93 170 -13 60 -7 271 9
302 6 9 8 17 5 17 -2 0 0 17 5 38 6 20 11 72 13 115 3 63 9 85 30 117 14 22
26 44 26 50 0 5 9 10 19 10 10 0 22 7 25 16 10 27 25 5 19 -29z m1642 10 c13
-10 15 -16 6 -21 -17 -11 -41 0 -41 19 0 19 11 19 35 2z m-375 -1 c0 -3 -4 -8
-10 -11 -5 -3 -10 -1 -10 4 0 6 5 11 10 11 6 0 10 -2 10 -4z m47 -2 c-3 -3
-12 -4 -19 -1 -8 3 -5 6 6 6 11 1 17 -2 13 -5z m243 -3 c0 -14 -18 -23 -30
-16 -6 4 -8 11 -5 16 8 12 35 12 35 0z m-1847 -36 c-3 -9 -8 -14 -10 -11 -3 3
-2 9 2 15 9 16 15 13 8 -4z m1032 6 c3 -5 2 -12 -3 -15 -5 -3 -9 1 -9 9 0 17
3 19 12 6z m-1041 -98 c-8 -32 -24 -55 -24 -32 0 26 12 59 21 59 5 0 6 -12 3
-27z m1316 -13 c0 -5 -2 -10 -4 -10 -3 0 -8 5 -11 10 -3 6 -1 10 4 10 6 0 11
-4 11 -10z m-873 -22 c-3 -8 -6 -5 -6 6 -1 11 2 17 5 13 3 -3 4 -12 1 -19z
m1903 -7 c0 -5 3 -18 6 -28 5 -16 4 -16 -8 -2 -7 9 -17 16 -23 17 -20 1 -16
22 4 22 12 0 21 -4 21 -9z m-2357 -28 c-3 -7 -9 -13 -14 -13 -5 0 -9 6 -9 13
0 8 6 14 14 14 8 0 12 -6 9 -14z m-1 -58 c-2 -14 -8 -25 -13 -25 -5 0 -9 11
-9 25 0 14 6 25 14 25 9 0 12 -8 8 -25z m533 -28 c-4 -9 -13 -13 -20 -10 -11
4 -12 9 -2 24 13 21 31 10 22 -14z m-510 -70 c4 -23 14 -52 23 -65 13 -20 16
-21 32 -7 21 19 26 19 34 -1 5 -14 4 -15 -7 -5 -11 9 -17 8 -25 -2 -12 -14 -5
-57 9 -57 14 0 26 -39 48 -143 31 -150 5 -130 -44 33 -9 30 -23 67 -31 82 -8
14 -14 40 -14 57 0 17 -4 31 -9 31 -5 0 -11 8 -14 18 -4 9 -13 35 -21 57 -20
53 -21 72 -2 56 8 -7 18 -31 21 -54z m52 16 c-3 -10 -5 -4 -5 12 0 17 2 24 5
18 2 -7 2 -21 0 -30z m23 -43 c0 -13 -5 -18 -14 -14 -8 3 -12 12 -9 20 8 21
23 17 23 -6z m613 -172 c6 -22 5 -22 -8 -4 -17 22 -20 40 -6 32 5 -3 11 -16
14 -28z m1646 -24 c-6 -8 -15 -12 -18 -8 -3 4 0 9 7 11 6 3 9 10 6 15 -4 7 -2
8 5 4 9 -6 9 -11 0 -22z m-108 -11 c13 -16 12 -17 -3 -4 -10 7 -18 15 -18 17
0 8 8 3 21 -13z m150 -18 c1 -5 1 -18 0 -27 -2 -13 3 -16 14 -12 12 5 13 9 5
14 -9 6 -9 9 0 15 7 4 16 2 20 -5 4 -7 12 -10 17 -7 5 3 15 -3 22 -15 7 -11 8
-17 2 -13 -6 3 -11 2 -11 -4 0 -5 5 -13 10 -16 15 -9 12 -25 -4 -19 -8 3 -17
0 -21 -5 -3 -6 -11 -9 -16 -6 -5 4 -9 2 -9 -2 0 -5 -9 -9 -19 -9 -11 0 -17 4
-15 8 3 4 1 8 -5 8 -5 0 -12 -6 -14 -12 -4 -10 -8 -9 -17 2 -9 12 -10 11 -5
-6 5 -19 2 -21 -22 -16 -24 4 -25 6 -8 12 17 6 16 7 -8 12 -15 3 -30 1 -33 -3
-10 -17 -37 -10 -30 7 4 11 2 15 -7 11 -8 -3 -13 3 -14 14 -1 11 5 19 13 19
24 0 29 -4 26 -21 -2 -12 5 -16 27 -15 16 1 27 4 25 8 -8 12 8 37 21 32 7 -3
15 2 19 12 5 14 4 15 -9 4 -8 -7 -15 -9 -15 -4 0 4 -11 -3 -25 -16 -22 -21
-25 -22 -25 -5 0 10 3 15 7 12 9 -9 34 13 27 24 -3 5 1 6 9 3 9 -3 16 3 20 15
5 21 46 26 48 6z m-131 -25 c0 -5 -10 -10 -22 -10 -19 0 -20 2 -8 10 19 13 30
13 30 0z m60 -284 c0 -3 -4 -8 -10 -11 -5 -3 -10 -1 -10 4 0 6 5 11 10 11 6 0
10 -2 10 -4z m30 -30 c0 -2 -7 -7 -16 -10 -8 -3 -12 -2 -9 4 6 10 25 14 25 6z
m-60 -51 c0 -17 -27 -27 -36 -13 -4 7 -3 8 4 4 11 -7 17 6 13 27 -1 5 3 6 9 2
5 -3 10 -12 10 -20z m58 1 c9 -19 8 -25 -4 -30 -8 -3 -14 1 -14 9 0 8 -7 15
-15 15 -9 0 -12 6 -9 15 9 23 29 18 42 -9z m22 20 c0 -3 -4 -8 -10 -11 -5 -3
-10 -1 -10 4 0 6 5 11 10 11 6 0 10 -2 10 -4z m210 -78 c0 -4 -4 -8 -9 -8 -6
0 -12 4 -15 8 -3 5 1 9 9 9 8 0 15 -4 15 -9z m177 -80 c-3 -7 -5 -2 -5 12 0
14 2 19 5 13 2 -7 2 -19 0 -25z m-967 -18 c0 -5 -8 -10 -17 -10 -15 0 -16 2
-3 10 19 12 20 12 20 0z m-837 -75 c4 -8 1 -17 -6 -21 -7 -4 -9 -4 -5 1 4 4 3
14 -3 22 -7 8 -8 13 -1 13 5 0 12 -7 15 -15z m1770 -222 c-7 -2 -19 -2 -25 0
-7 3 -2 5 12 5 14 0 19 -2 13 -5z m-646 -77 c0 -25 -3 -33 -13 -29 -17 6 -17
5 -4 37 13 34 16 33 17 -8z m103 -26 c-7 -14 -4 -22 13 -34 12 -9 16 -14 8
-10 -11 6 -13 3 -7 -12 4 -10 4 -15 0 -11 -4 4 -13 2 -19 -3 -9 -8 -12 -4 -11
12 1 13 -2 31 -7 42 -6 13 -6 16 2 11 8 -5 10 2 5 22 -7 25 -6 27 9 14 12 -9
14 -18 7 -31z m80 15 c9 5 11 4 6 -3 -4 -7 -1 -12 10 -12 13 0 14 -3 4 -15 -7
-8 -10 -24 -7 -35 3 -11 2 -18 -3 -15 -4 2 -10 18 -13 35 -4 18 -13 30 -22 30
-16 0 -20 12 -8 23 4 4 10 2 14 -4 4 -6 12 -8 19 -4z m-139 -28 c-10 -9 -11
-8 -5 6 3 10 9 15 12 12 3 -3 0 -11 -7 -18z m-351 -3 c0 -8 -4 -12 -10 -9 -5
3 -10 10 -10 16 0 5 5 9 10 9 6 0 10 -7 10 -16z m194 -2 c3 -5 -1 -9 -9 -9 -8
0 -12 4 -9 9 3 4 7 8 9 8 2 0 6 -4 9 -8z m91 -1 c-3 -5 -1 -12 4 -15 13 -8 7
-59 -8 -64 -25 -8 -8 -17 34 -17 30 0 45 4 45 12 0 13 -13 17 -40 13 -12 -2
-11 2 4 19 16 18 20 18 33 6 8 -8 13 -25 11 -37 -3 -20 -8 -23 -45 -20 -26 2
-43 -1 -43 -7 0 -6 -7 -8 -15 -5 -8 4 -21 2 -28 -4 -7 -6 -21 -6 -36 -1 -18 7
-21 12 -12 23 6 7 8 16 4 19 -3 4 2 7 13 7 14 1 11 5 -11 16 -16 8 -21 12 -11
9 16 -5 17 -3 6 10 -10 12 -10 15 4 15 9 0 16 -5 16 -11 0 -16 26 -39 44 -39
25 0 18 19 -9 26 -14 3 -25 10 -25 15 0 6 8 5 19 -1 22 -11 30 -4 26 23 -2 10
3 17 11 17 9 0 13 -4 9 -9z m45 -11 c8 -5 11 -10 5 -10 -5 0 -17 5 -25 10 -8
5 -10 10 -5 10 6 0 17 -5 25 -10z m140 0 c0 -5 -5 -10 -11 -10 -5 0 -7 5 -4
10 3 6 8 10 11 10 2 0 4 -4 4 -10z m-1290 -9 c0 -5 3 -16 6 -25 3 -9 2 -16 -4
-16 -5 0 -12 11 -14 25 -3 14 -1 25 3 25 5 0 9 -4 9 -9z m865 -11 c-3 -5 -2
-10 3 -10 6 0 13 -7 16 -16 5 -13 4 -14 -7 -6 -8 7 -16 9 -20 6 -3 -3 -4 2 -2
13 5 24 4 23 11 23 3 0 2 -4 -1 -10z m59 -11 c-31 -12 -40 -9 -20 6 10 8 24
11 29 8 6 -4 2 -10 -9 -14z m50 -10 c-6 -11 -24 -2 -24 11 0 5 7 7 15 4 8 -4
12 -10 9 -15z m316 17 c0 -2 -7 -7 -16 -10 -8 -3 -12 -2 -9 4 6 10 25 14 25 6z
m-690 -31 c0 -7 -30 -13 -34 -7 -3 4 4 9 15 9 10 1 19 0 19 -2z m334 -14 c-3
-3 -9 -6 -12 -6 -4 -1 -17 -6 -28 -13 -22 -12 -34 -7 -34 12 0 6 5 4 10 -4 6
-9 10 -10 10 -3 0 6 8 13 18 15 26 6 43 5 36 -1z m526 5 c0 -3 -4 -8 -10 -11
-5 -3 -10 -1 -10 4 0 6 5 11 10 11 6 0 10 -2 10 -4z m-1430 -10 c0 -3 -4 -8
-10 -11 -5 -3 -10 -1 -10 4 0 6 5 11 10 11 6 0 10 -2 10 -4z m767 -11 c0 -8
-4 -15 -9 -15 -10 0 -11 14 -1 23 9 10 10 9 10 -8z m193 -25 c0 -5 -8 -10 -17
-10 -15 0 -16 2 -3 10 19 12 20 12 20 0z m-369 -37 c13 -16 12 -17 -3 -4 -17
13 -22 21 -14 21 2 0 10 -8 17 -17z m44 -43 c3 -5 1 -10 -4 -10 -6 0 -11 5
-11 10 0 6 2 10 4 10 3 0 8 -4 11 -10z m-634 -81 c6 -13 7 -19 1 -15 -6 3 -12
0 -15 -6 -2 -7 -4 -1 -3 14 1 34 2 34 17 7z m1173 -23 c19 -41 13 -66 -15 -59
-24 7 -41 35 -34 57 3 9 7 23 10 32 7 21 19 11 39 -30z m178 -178 c-7 -7 -12
-8 -12 -2 0 6 3 14 7 17 3 4 9 5 12 2 2 -3 -1 -11 -7 -17z m68 -18 c6 -11 8
-20 6 -20 -3 0 -10 9 -16 20 -6 11 -8 20 -6 20 3 0 10 -9 16 -20z m-1420 -25
c0 -8 -2 -15 -4 -15 -2 0 -6 7 -10 15 -3 8 -1 15 4 15 6 0 10 -7 10 -15z
m1380 -65 c0 -5 -5 -10 -11 -10 -5 0 -7 5 -4 10 3 6 8 10 11 10 2 0 4 -4 4
-10z m26 -27 c-3 -8 -1 -11 4 -8 6 3 10 2 10 -4 0 -5 -6 -11 -12 -14 -17 -5
-38 3 -38 14 0 15 24 38 33 32 5 -3 6 -12 3 -20z m102 -7 c15 5 15 4 2 -5 -23
-16 -30 -13 -29 12 1 16 3 17 6 5 3 -11 11 -15 21 -12z m-1447 -3 c13 -16 12
-17 -3 -4 -17 13 -22 21 -14 21 2 0 10 -8 17 -17z m1466 -21 c10 -6 9 -14 -1
-34 -8 -15 -12 -29 -9 -32 3 -3 -6 0 -21 7 -14 7 -26 19 -26 27 0 13 1 13 10
0 8 -12 11 -13 19 -1 7 11 9 11 14 0 4 -10 6 -9 6 4 1 9 -6 17 -15 17 -8 0
-12 5 -9 10 7 12 16 12 32 2z m-191 -21 c-4 -6 -13 -8 -20 -5 -8 3 -17 1 -21
-5 -7 -13 -25 -15 -25 -2 0 8 61 30 69 25 1 -1 0 -7 -3 -13z m241 -16 c0 -8
-4 -12 -9 -9 -5 3 -6 10 -3 15 9 13 12 11 12 -6z m43 -31 c0 4 7 1 15 -8 8 -8
15 -16 15 -18 0 -6 -65 -2 -92 6 -30 9 -39 36 -10 31 9 -1 16 -8 14 -14 -1 -8
4 -8 17 1 11 7 17 17 15 23 -3 5 2 1 10 -9 9 -11 16 -16 16 -12z m-640 -66 c8
-3 22 -2 31 3 13 7 16 3 14 -19 -3 -40 -4 -42 -20 -36 -10 4 -15 0 -15 -11 0
-9 5 -13 10 -10 6 3 10 -1 10 -9 0 -18 -8 -20 -29 -7 -7 5 -11 14 -7 20 4 5
-2 16 -14 23 -11 7 -20 16 -20 19 0 7 44 4 58 -5 5 -3 9 1 9 9 0 8 -3 14 -6
13 -3 0 -18 0 -33 1 -21 1 -26 5 -21 17 3 9 9 11 12 6 3 -5 13 -11 21 -14z
m634 10 c-3 -4 -11 -5 -19 -1 -21 7 -19 12 4 10 11 0 18 -5 15 -9z m-1424 -18
c0 -5 -7 -7 -15 -4 -8 4 -15 8 -15 10 0 2 7 4 15 4 8 0 15 -4 15 -10z m31 -7
c13 -16 12 -17 -3 -4 -17 13 -22 21 -14 21 2 0 10 -8 17 -17z m909 -13 c0 -5
-2 -10 -4 -10 -3 0 -8 5 -11 10 -3 6 -1 10 4 10 6 0 11 -4 11 -10z m-1110 -10
c0 -5 -5 -10 -11 -10 -5 0 -7 5 -4 10 3 6 8 10 11 10 2 0 4 -4 4 -10z m193 -4
c4 -10 1 -13 -8 -9 -8 3 -12 9 -9 14 7 12 11 11 17 -5z m844 -4 c-13 -15 -14
-21 -4 -33 6 -8 3 -6 -8 3 -19 18 -19 18 0 33 27 20 31 19 12 -3z m48 7 c11
-16 1 -19 -13 -3 -7 8 -8 14 -3 14 5 0 13 -5 16 -11z m58 -41 c-4 -7 -6 -22
-4 -33 3 -23 -1 -20 -19 14 -6 13 -7 21 -2 17 6 -3 13 -2 17 4 3 5 8 10 11 10
3 0 2 -6 -3 -12z m-935 -33 c-3 -3 -9 2 -12 12 -6 14 -5 15 5 6 7 -7 10 -15 7
-18z m-138 -4 c7 -14 7 -22 0 -26 -8 -5 -7 -11 1 -21 10 -12 9 -13 -6 -8 -13
5 -16 4 -11 -5 5 -7 16 -11 25 -8 13 3 17 -2 16 -17 -1 -12 3 -24 9 -28 7 -5
5 -8 -6 -8 -9 0 -18 6 -21 13 -2 7 -8 8 -13 3 -5 -5 -4 -11 4 -13 6 -3 10 -9
7 -14 -4 -5 2 -6 11 -2 12 5 15 3 9 -6 -4 -8 -2 -17 6 -22 8 -5 16 -3 21 4 4
7 6 -3 3 -22 -5 -42 2 -56 21 -40 13 11 19 3 15 -23 0 -4 8 -10 19 -13 11 -4
18 -11 14 -16 -3 -5 -11 -6 -17 -2 -7 3 -3 -4 8 -17 13 -15 15 -21 5 -16 -8 4
-4 -2 9 -13 12 -12 27 -19 32 -16 4 3 6 -4 4 -15 -2 -12 4 -29 15 -40 18 -18
18 -60 -1 -60 -4 0 -6 -9 -4 -20 2 -11 0 -20 -6 -20 -5 0 -9 9 -9 19 0 11 -5
23 -12 27 -6 4 -8 3 -5 -4 5 -6 -2 -6 -18 1 l-24 12 22 7 c20 5 20 6 -5 7 -18
1 -28 6 -28 17 0 8 -5 12 -10 9 -6 -3 -13 2 -17 11 -11 28 -36 54 -46 47 -6
-3 -7 -1 -3 5 4 7 3 12 -2 12 -6 0 -13 11 -16 25 -4 14 -11 25 -17 25 -8 0 -8
4 -2 13 14 18 10 42 -8 40 -11 -2 -16 7 -18 35 -4 67 -5 72 -14 72 -4 0 -7 17
-7 38 1 20 -1 46 -3 57 -4 19 8 26 55 34 4 0 12 -8 18 -18z m955 9 c3 -5 -1
-10 -9 -10 -9 0 -16 5 -16 10 0 6 4 10 9 10 6 0 13 -4 16 -10z m155 -10 c0 -5
-7 -10 -16 -10 -8 0 -12 5 -9 10 3 6 10 10 16 10 5 0 9 -4 9 -10z m-165 -20
c-3 -5 -12 -10 -18 -10 -7 0 -6 4 3 10 19 12 23 12 15 0z m118 -3 c8 5 8 2 0
-9 -7 -8 -10 -18 -6 -21 3 -4 1 -7 -5 -7 -7 0 -12 12 -11 28 0 15 3 21 6 14 2
-6 10 -9 16 -5z m48 -11 c5 3 9 -2 9 -10 0 -10 -6 -13 -17 -9 -15 5 -14 3 2
-10 18 -14 21 -14 27 1 5 14 7 12 7 -5 1 -13 6 -23 11 -23 6 0 10 -5 10 -10 0
-17 -33 -7 -53 15 -12 14 -20 16 -23 8 -3 -7 -12 -9 -20 -6 -7 3 -11 9 -8 14
3 5 11 6 17 2 7 -4 6 0 -2 10 -12 15 -11 17 3 17 9 0 16 6 17 13 0 9 2 9 6 -1
2 -6 9 -10 14 -6z m-119 -18 c-7 -7 -12 -8 -12 -2 0 6 3 14 7 17 3 4 9 5 12 2
2 -3 -1 -11 -7 -17z m-82 -47 c8 -17 7 -20 -9 -18 -14 1 -17 5 -11 13 6 6 7
14 3 17 -3 4 -3 7 0 7 3 0 11 -9 17 -19z m74 -56 c-8 -12 -12 -24 -9 -27 3 -2
-2 -5 -10 -5 -8 0 -15 4 -15 9 0 4 5 8 11 8 5 0 8 4 5 9 -4 5 0 11 6 14 10 3
11 9 1 26 -19 31 -16 36 6 10 16 -20 17 -26 5 -44z m-353 3 c-3 -21 -6 -26 -9
-15 -3 17 3 47 11 47 2 0 1 -15 -2 -32z m85 -20 c10 -12 13 -18 5 -13 -11 6
-13 4 -7 -10 5 -15 4 -16 -8 -6 -8 7 -14 21 -13 32 2 23 0 23 23 -3z m164 12
c0 -5 -5 -10 -11 -10 -5 0 -7 5 -4 10 3 6 8 10 11 10 2 0 4 -4 4 -10z m230
-14 c0 -3 -4 -8 -10 -11 -5 -3 -10 -1 -10 4 0 6 5 11 10 11 6 0 10 -2 10 -4z
m-120 -40 c0 -6 5 -4 11 4 9 13 10 13 6 0 -2 -8 -10 -14 -16 -12 -6 1 -11 -3
-11 -9 0 -5 -4 -7 -10 -4 -15 9 -12 32 5 32 8 0 15 -5 15 -11z m-10 -46 c0 -5
-7 -10 -16 -10 -8 0 -12 5 -9 10 3 6 10 10 16 10 5 0 9 -4 9 -10z m13 -30 c-6
-24 -16 -25 -34 -3 -12 15 -12 16 3 10 10 -3 20 -2 23 3 10 16 13 11 8 -10z
m-18 -30 c3 -6 -4 -10 -17 -10 -18 0 -20 2 -8 10 19 12 18 12 25 0z m-40 -50
c0 -7 -6 -15 -14 -18 -8 -3 -11 0 -7 7 4 6 3 11 -2 11 -6 0 -12 7 -15 14 -5
12 -1 13 16 7 12 -5 22 -14 22 -21z m330 20 c-28 -12 -37 -12 -30 0 3 6 16 10
28 9 21 0 21 -1 2 -9z m173 -58 c15 12 16 11 4 -4 -17 -21 -43 -13 -34 10 6
15 7 15 10 -1 3 -15 6 -16 20 -5z m-27 -55 c-10 -9 -11 -8 -5 6 3 10 9 15 12
12 3 -3 0 -11 -7 -18z m-786 3 c3 -6 -1 -7 -9 -4 -18 7 -21 14 -7 14 6 0 13
-4 16 -10z m114 1 c9 -6 6 -8 -13 -8 -14 0 -23 3 -20 8 7 11 15 11 33 0z m622
-38 c-12 -20 -14 -14 -5 12 4 9 9 14 11 11 3 -2 0 -13 -6 -23z m-588 -54 c-9
-9 -12 -7 -10 9 1 14 5 18 11 12 7 -7 6 -14 -1 -21z m727 10 c0 -4 -7 -6 -15
-3 -8 4 -15 10 -15 15 0 4 7 6 15 3 8 -4 15 -10 15 -15z m-637 -49 c-5 -20
-23 -26 -36 -13 -4 3 3 12 16 19 12 6 23 12 24 13 0 1 -1 -8 -4 -19z m634 -52
c-3 -8 -6 -5 -6 6 -1 11 2 17 5 13 3 -3 4 -12 1 -19z m-532 -7 c3 -5 1 -12 -5
-16 -5 -3 -10 1 -10 9 0 18 6 21 15 7z m49 -36 c3 -8 2 -15 -3 -15 -5 0 -14 7
-21 15 -10 12 -10 15 3 15 8 0 17 -7 21 -15z m80 -53 c3 -5 -1 -9 -9 -9 -8 0
-12 4 -9 9 3 4 7 8 9 8 2 0 6 -4 9 -8z m43 -18 c-3 -3 -12 -4 -19 -1 -8 3 -5
6 6 6 11 1 17 -2 13 -5z m37 -9 c-4 -8 -10 -12 -15 -9 -14 8 -10 24 6 24 9 0
12 -6 9 -15z m516 -25 c0 -5 -4 -10 -10 -10 -5 0 -10 5 -10 10 0 6 5 10 10 10
6 0 10 -4 10 -10z m268 -15 c-3 -3 -9 2 -12 12 -6 14 -5 15 5 6 7 -7 10 -15 7
-18z m-78 1 c0 -3 -4 -8 -10 -11 -5 -3 -10 -1 -10 4 0 6 5 11 10 11 6 0 10 -2
10 -4z m-270 -711 c7 -9 8 -15 2 -15 -5 0 -12 7 -16 15 -3 8 -4 15 -2 15 2 0
9 -7 16 -15z m50 -5 c0 -5 -4 -10 -10 -10 -5 0 -10 5 -10 10 0 6 5 10 10 10 6
0 10 -4 10 -10z m-346 -55 c3 -8 1 -15 -4 -15 -6 0 -10 7 -10 15 0 8 2 15 4
15 2 0 6 -7 10 -15z"/>
<path d="M3085 6441 c-3 -5 -2 -12 3 -15 5 -3 9 1 9 9 0 17 -3 19 -12 6z"/>
<path d="M3136 6397 c3 -10 9 -15 12 -12 3 3 0 11 -7 18 -10 9 -11 8 -5 -6z"/>
<path d="M3050 6373 c0 -4 5 -15 10 -23 8 -13 10 -13 10 2 0 9 -4 20 -10 23
-5 3 -10 3 -10 -2z"/>
<path d="M3030 6351 c0 -12 5 -21 10 -21 6 0 10 6 10 14 0 8 -4 18 -10 21 -5
3 -10 -3 -10 -14z"/>
<path d="M3028 6269 c-15 -16 -15 -17 9 -15 15 2 27 10 29 18 2 20 -17 18 -38
-3z"/>
<path d="M3032 6216 c-14 -32 8 -42 40 -17 13 10 28 16 35 14 16 -6 26 14 12
23 -8 4 -9 3 -5 -4 8 -13 -28 -12 -40 1 -14 14 -31 7 -42 -17z"/>
<path d="M3083 6181 c0 -11 4 -18 8 -15 4 2 10 -4 13 -13 8 -19 21 -9 31 26 6
21 5 22 -8 10 -8 -8 -12 -18 -9 -23 3 -5 0 -6 -6 -2 -7 4 -12 14 -12 22 0 8
-4 14 -9 14 -6 0 -9 -9 -8 -19z"/>
<path d="M3145 6170 c-3 -5 1 -10 9 -10 9 0 16 5 16 10 0 6 -4 10 -9 10 -6 0
-13 -4 -16 -10z"/>
<path d="M3115 6100 c3 -5 8 -10 11 -10 2 0 4 5 4 10 0 6 -5 10 -11 10 -5 0
-7 -4 -4 -10z"/>
<path d="M3063 6071 c-8 -12 -9 -22 -3 -26 14 -9 52 14 47 28 -6 20 -31 19
-44 -2z"/>
<path d="M2987 6063 c-4 -3 -7 -11 -7 -17 0 -6 5 -5 12 2 6 6 9 14 7 17 -3 3
-9 2 -12 -2z"/>
<path d="M3096 5983 c-6 -14 -5 -15 5 -6 7 7 10 15 7 18 -3 3 -9 -2 -12 -12z"/>
<path d="M3008 5949 c6 -7 12 -21 12 -31 0 -10 5 -18 10 -18 6 0 10 5 10 11 0
5 4 8 9 4 5 -3 12 -1 16 5 3 5 0 10 -7 11 -7 0 -4 4 7 9 17 8 15 9 -10 8 -17
-1 -37 2 -45 7 -12 6 -13 5 -2 -6z"/>
<path d="M3180 5896 c0 -2 7 -7 16 -10 8 -3 12 -2 9 4 -6 10 -25 14 -25 6z"/>
<path d="M3216 5875 c-3 -9 -11 -13 -17 -9 -8 5 -9 3 -5 -5 5 -7 14 -10 20 -8
7 3 13 -1 13 -8 0 -7 -8 -10 -19 -7 -10 2 -18 -1 -18 -7 0 -7 4 -10 9 -7 15
10 20 -22 5 -34 -16 -14 -19 -35 -4 -25 6 3 10 0 11 -7 0 -7 5 -2 10 12 10 24
14 35 23 79 6 26 -19 48 -28 26z"/>
<path d="M3936 5861 c-7 -10 18 -34 27 -25 7 8 -3 34 -13 34 -5 0 -11 -4 -14
-9z"/>
<path d="M3147 5839 c7 -7 15 -10 18 -7 3 3 -2 9 -12 12 -14 6 -15 5 -6 -5z"/>
<path d="M3024 5802 c3 -5 0 -12 -6 -15 -10 -3 -10 -7 0 -20 11 -13 11 -19 0
-36 -7 -12 -20 -21 -28 -22 -8 0 -4 -5 9 -10 17 -7 27 -6 32 2 4 6 12 8 19 4
9 -5 11 -4 6 4 -4 6 -2 18 4 26 10 12 9 15 -6 16 -11 0 -14 3 -6 6 6 2 12 9
12 15 0 6 -7 8 -14 5 -10 -4 -13 -1 -10 7 3 8 0 17 -7 22 -7 4 -10 3 -5 -4z"/>
<path d="M2980 5775 c0 -16 22 -45 31 -40 15 10 11 23 -11 35 -11 6 -20 8 -20
5z"/>
<path d="M3958 5683 c7 -3 16 -2 19 1 4 3 -2 6 -13 5 -11 0 -14 -3 -6 -6z"/>
<path d="M3988 5663 c7 -3 16 -2 19 1 4 3 -2 6 -13 5 -11 0 -14 -3 -6 -6z"/>
<path d="M3005 5540 c-3 -5 -1 -10 4 -10 6 0 11 5 11 10 0 6 -2 10 -4 10 -3 0
-8 -4 -11 -10z"/>
<path d="M2970 5525 c0 -14 7 -21 22 -22 16 -2 19 0 9 6 -7 5 -17 15 -22 22
-7 11 -9 9 -9 -6z"/>
<path d="M3122 5454 c3 -17 21 -21 26 -6 1 5 -4 12 -13 16 -11 4 -15 1 -13
-10z"/>
<path d="M4383 5463 c-7 -2 -13 -12 -13 -20 0 -9 6 -13 14 -10 7 3 19 0 25 -6
8 -8 11 -8 11 0 0 6 -7 14 -16 17 -8 3 -12 10 -9 16 7 11 6 11 -12 3z"/>
<path d="M4345 5429 c4 -6 -2 -13 -13 -16 -11 -2 -22 -13 -25 -24 -4 -13 -10
-17 -23 -12 -12 4 -15 3 -10 -5 4 -7 2 -12 -3 -12 -6 0 -11 -7 -11 -15 0 -19
10 -19 46 0 16 8 23 15 16 15 -7 0 -11 4 -8 9 3 5 16 7 29 4 18 -4 19 -3 7 6
-8 6 -10 11 -4 11 6 0 12 11 12 25 0 14 -5 25 -10 25 -5 0 -6 -5 -3 -11z"/>
<path d="M4383 5406 c-9 -11 -8 -15 6 -19 14 -3 17 0 14 14 -6 22 -5 22 -20 5z"/>
<path d="M3150 5359 c0 -5 5 -7 10 -4 6 3 10 8 10 11 0 2 -4 4 -10 4 -5 0 -10
-5 -10 -11z"/>
<path d="M3160 5141 c0 -6 4 -13 10 -16 6 -3 7 1 4 9 -7 18 -14 21 -14 7z"/>
<path d="M4080 5000 c0 -5 5 -10 11 -10 5 0 7 5 4 10 -3 6 -8 10 -11 10 -2 0
-4 -4 -4 -10z"/>
<path d="M3987 4977 c-2 -6 2 -18 9 -25 12 -11 14 -9 14 7 0 23 -16 36 -23 18z"/>
<path d="M3481 4894 c0 -11 3 -14 6 -6 3 7 2 16 -1 19 -3 4 -6 -2 -5 -13z"/>
<path d="M3620 4850 c0 -5 5 -10 10 -10 6 0 10 5 10 10 0 6 -4 10 -10 10 -5 0
-10 -4 -10 -10z"/>
<path d="M3445 4770 c3 -5 8 -10 11 -10 2 0 4 5 4 10 0 6 -5 10 -11 10 -5 0
-7 -4 -4 -10z"/>
<path d="M3586 4757 c3 -10 9 -15 12 -12 3 3 0 11 -7 18 -10 9 -11 8 -5 -6z"/>
<path d="M3453 4216 c0 -8 6 -12 14 -9 7 3 10 9 7 14 -8 14 -21 11 -21 -5z"/>
<path d="M3460 4180 c-9 -6 -10 -10 -3 -10 6 0 15 5 18 10 8 12 4 12 -15 0z"/>
<path d="M3300 4120 c0 -5 5 -10 11 -10 5 0 7 5 4 10 -3 6 -8 10 -11 10 -2 0
-4 -4 -4 -10z"/>
<path d="M3526 4083 c-4 -9 -4 -14 0 -10 4 4 14 1 23 -6 14 -11 15 -10 1 8 -8
11 -15 21 -16 23 -1 2 -5 -5 -8 -15z"/>
<path d="M3245 4058 c3 -11 7 -23 11 -27 4 -3 4 2 1 11 -3 9 -1 18 6 21 6 2 4
6 -5 10 -13 4 -16 1 -13 -15z"/>
<path d="M4035 4050 c3 -5 8 -10 11 -10 2 0 4 5 4 10 0 6 -5 10 -11 10 -5 0
-7 -4 -4 -10z"/>
<path d="M3521 4037 c-8 -10 -7 -14 2 -14 8 0 14 6 14 14 0 7 -1 13 -2 13 -2
0 -8 -6 -14 -13z"/>
<path d="M4010 4041 c0 -6 4 -13 10 -16 6 -3 7 1 4 9 -7 18 -14 21 -14 7z"/>
<path d="M4130 4010 c0 -5 7 -7 15 -4 8 4 15 8 15 10 0 2 -7 4 -15 4 -8 0 -15
-4 -15 -10z"/>
<path d="M4170 3999 c0 -11 4 -18 10 -14 5 3 7 12 3 20 -7 21 -13 19 -13 -6z"/>
<path d="M3290 3981 c0 -11 4 -22 9 -25 4 -3 6 6 3 19 -5 30 -12 33 -12 6z"/>
<path d="M3537 3979 c7 -7 15 -10 18 -7 3 3 -2 9 -12 12 -14 6 -15 5 -6 -5z"/>
<path d="M3576 3981 c-3 -5 1 -11 9 -14 9 -4 12 -1 8 9 -6 16 -10 17 -17 5z"/>
<path d="M4216 3965 c-3 -8 -10 -15 -16 -15 -6 0 -8 5 -4 11 4 8 0 8 -15 0
-23 -13 -29 -26 -7 -18 7 3 18 1 24 -5 8 -8 13 -7 18 5 3 9 10 14 15 11 5 -3
6 2 3 10 -8 20 -10 20 -18 1z"/>
<path d="M4099 3949 c-8 -16 -8 -20 1 -17 6 2 11 7 10 12 -1 5 4 13 12 17 9 6
9 9 1 9 -7 0 -17 -10 -24 -21z"/>
<path d="M3595 3932 c-3 -9 -3 -13 1 -9 4 4 12 -1 19 -9 9 -13 12 -14 12 -2 0
7 -6 19 -13 25 -9 9 -14 8 -19 -5z"/>
<path d="M4136 3933 c-6 -14 -5 -15 5 -6 7 7 10 15 7 18 -3 3 -9 -2 -12 -12z"/>
<path d="M3643 3896 c3 -8 2 -16 -2 -18 -4 -2 -4 -14 0 -28 l7 -25 7 23 c4 12
11 22 16 22 5 0 4 -11 -1 -25 -7 -19 -6 -25 4 -25 18 0 16 49 -4 73 -17 21
-34 23 -27 3z"/>
<path d="M4118 3903 c7 -3 16 -2 19 1 4 3 -2 6 -13 5 -11 0 -14 -3 -6 -6z"/>
<path d="M4185 3900 c-3 -5 -1 -10 4 -10 6 0 11 5 11 10 0 6 -2 10 -4 10 -3 0
-8 -4 -11 -10z"/>
<path d="M4215 3900 c-3 -5 -1 -10 4 -10 6 0 11 5 11 10 0 6 -2 10 -4 10 -3 0
-8 -4 -11 -10z"/>
<path d="M4254 3882 c3 -5 0 -12 -6 -15 -10 -4 -10 -7 -1 -16 7 -6 11 -8 8 -5
-3 4 0 13 6 20 7 8 6 14 -2 20 -7 4 -9 3 -5 -4z"/>
<path d="M4320 3865 c5 -7 6 -16 2 -20 -4 -5 2 -5 13 0 11 4 26 8 33 8 6 0 12
6 12 14 0 15 -21 13 -32 -2 -5 -6 -8 -6 -8 1 0 6 -7 11 -15 11 -10 0 -12 -4
-5 -12z"/>
<path d="M3706 3808 c4 -31 3 -39 -5 -28 -5 8 -13 12 -16 9 -3 -4 1 -12 9 -18
12 -10 16 -9 24 6 13 25 10 65 -6 71 -9 3 -11 -7 -6 -40z"/>
<path d="M4117 3839 c7 -7 15 -10 18 -7 3 3 -2 9 -12 12 -14 6 -15 5 -6 -5z"/>
<path d="M4476 3838 c3 -5 10 -6 15 -3 13 9 11 12 -6 12 -8 0 -12 -4 -9 -9z"/>
<path d="M4030 3836 c0 -9 30 -14 35 -6 4 6 -3 10 -14 10 -12 0 -21 -2 -21 -4z"/>
<path d="M4330 3824 c-7 -8 -10 -17 -6 -21 3 -3 6 -1 6 5 0 13 21 12 31 -2 4
-5 11 -7 17 -5 6 2 0 12 -13 21 -20 15 -24 16 -35 2z"/>
<path d="M3640 3816 c0 -2 8 -10 18 -17 15 -13 16 -12 3 4 -13 16 -21 21 -21
13z"/>
<path d="M3685 3810 c-3 -5 -1 -10 4 -10 6 0 11 5 11 10 0 6 -2 10 -4 10 -3 0
-8 -4 -11 -10z"/>
<path d="M4230 3790 c0 -5 -7 -7 -16 -3 -14 5 -15 3 -5 -15 15 -28 31 -37 31
-17 0 10 -5 13 -12 9 -7 -5 -8 -3 -3 6 6 10 11 9 21 -5 7 -9 18 -15 24 -13 6
2 0 13 -14 26 -14 12 -26 18 -26 12z"/>
<path d="M4082 3757 c-6 -7 -7 -18 -3 -26 6 -9 11 -10 15 -2 4 6 2 11 -5 11
-8 0 -8 4 1 15 7 8 10 15 7 15 -2 0 -9 -6 -15 -13z"/>
<path d="M4011 3743 c-9 -10 -10 -18 -3 -25 6 -6 8 -16 6 -23 -3 -7 0 -16 7
-21 8 -4 10 -3 5 4 -4 7 -2 12 5 12 10 0 10 3 1 12 -14 14 -16 42 -2 33 6 -3
10 -2 10 4 0 17 -15 19 -29 4z"/>
<path d="M4188 3743 c7 -3 16 -2 19 1 4 3 -2 6 -13 5 -11 0 -14 -3 -6 -6z"/>
<path d="M4111 3684 c0 -11 3 -14 6 -6 3 7 2 16 -1 19 -3 4 -6 -2 -5 -13z"/>
<path d="M4040 3669 c0 -5 5 -7 10 -4 6 3 10 8 10 11 0 2 -4 4 -10 4 -5 0 -10
-5 -10 -11z"/>
<path d="M4083 3663 c4 -3 2 -12 -4 -20 -9 -10 -8 -13 0 -13 7 0 10 -4 7 -9
-3 -4 6 -6 19 -3 23 4 24 2 15 -27 -5 -19 -5 -29 1 -26 5 4 9 15 9 26 0 10 6
19 13 20 6 0 -4 8 -23 16 -19 9 -29 18 -22 20 14 5 6 23 -10 23 -6 0 -8 -3 -5
-7z"/>
<path d="M3565 3630 c3 -5 8 -10 11 -10 2 0 4 5 4 10 0 6 -5 10 -11 10 -5 0
-7 -4 -4 -10z"/>
<path d="M3575 3600 c-3 -5 -1 -10 4 -10 6 0 11 5 11 10 0 6 -2 10 -4 10 -3 0
-8 -4 -11 -10z"/>
<path d="M3600 3580 c0 -11 4 -20 9 -20 5 0 7 9 4 20 -3 11 -7 20 -9 20 -2 0
-4 -9 -4 -20z"/>
<path d="M4159 3578 c8 -10 11 -19 8 -19 -4 -1 -11 -2 -16 -3 -18 -2 -21 -13
-3 -13 9 0 21 5 25 11 5 7 6 4 3 -7 -3 -11 -8 -29 -10 -40 -2 -12 -1 -16 1 -9
3 7 8 10 13 7 4 -3 13 1 19 9 8 10 3 21 -22 48 -17 19 -26 26 -18 16z"/>
<path d="M3548 3553 c7 -3 16 -2 19 1 4 3 -2 6 -13 5 -11 0 -14 -3 -6 -6z"/>
<path d="M3505 3529 c-3 -4 2 -6 10 -5 21 3 28 13 10 13 -9 0 -18 -4 -20 -8z"/>
<path d="M3541 3519 c-13 -11 -18 -19 -12 -19 6 0 8 -7 5 -15 -7 -18 22 -21
30 -2 3 8 8 7 16 -5 6 -10 18 -18 25 -18 17 0 20 -16 5 -25 -5 -3 -10 -11 -10
-16 0 -6 5 -7 10 -4 15 9 51 -5 44 -17 -10 -15 23 -37 46 -31 11 3 20 12 20
21 0 12 -3 13 -12 4 -7 -7 -21 -12 -32 -12 -17 0 -18 2 -6 9 8 6 17 8 20 6 4
-2 7 2 7 10 0 8 -3 13 -6 11 -15 -8 -46 13 -51 35 -3 13 -16 29 -29 35 -12 6
-22 14 -21 18 0 4 -5 13 -13 20 -11 11 -17 10 -36 -5z"/>
<path d="M3640 3510 c8 -5 22 -9 30 -9 10 0 8 3 -5 9 -27 12 -43 12 -25 0z"/>
<path d="M3648 3483 c7 -3 16 -2 19 1 4 3 -2 6 -13 5 -11 0 -14 -3 -6 -6z"/>
<path d="M3710 3476 c0 -13 -5 -17 -20 -13 -22 6 -25 0 -11 -22 5 -7 14 -10
20 -7 6 4 11 2 11 -3 0 -6 5 -11 11 -11 5 0 7 5 4 10 -3 6 4 14 17 19 22 9 22
9 3 17 -11 4 -23 12 -27 18 -5 7 -8 3 -8 -8z"/>
<path d="M3790 3450 c5 -9 6 -21 2 -26 -11 -17 -40 -24 -46 -11 -3 8 -5 7 -6
-3 -1 -8 -3 -23 -5 -32 -2 -10 1 -18 7 -18 6 0 7 8 4 17 -4 10 -4 14 0 10 4
-4 13 -2 21 4 10 9 13 6 14 -12 0 -22 1 -23 8 -4 5 11 7 23 4 28 -2 4 3 7 12
7 13 0 14 4 5 20 -6 11 -9 24 -6 29 3 4 -1 8 -9 8 -10 0 -11 -5 -5 -17z"/>
<path d="M3761 3364 c0 -11 3 -14 6 -6 3 7 2 16 -1 19 -3 4 -6 -2 -5 -13z"/>
<path d="M4191 3366 c-7 -8 -22 -12 -34 -9 -13 3 -18 1 -12 -4 6 -4 13 -12 16
-16 4 -4 14 0 24 9 14 14 21 15 36 6 22 -14 25 -7 5 14 -18 17 -21 17 -35 0z"/>
<path d="M3726 3343 c-6 -6 39 -33 56 -33 13 0 -13 24 -34 32 -9 4 -19 4 -22
1z"/>
<path d="M3790 3336 c0 -2 7 -7 16 -10 8 -3 12 -2 9 4 -6 10 -25 14 -25 6z"/>
<path d="M4204 3321 c4 -5 1 -11 -6 -13 -8 -3 -6 -6 4 -10 11 -5 18 0 21 13 3
12 0 19 -10 19 -8 0 -12 -4 -9 -9z"/>
<path d="M3728 3313 c7 -3 16 -2 19 1 4 3 -2 6 -13 5 -11 0 -14 -3 -6 -6z"/>
<path d="M3885 3309 c-3 -4 2 -6 10 -5 21 3 28 13 10 13 -9 0 -18 -4 -20 -8z"/>
<path d="M4156 3312 c-3 -5 1 -9 9 -9 8 0 12 4 9 9 -3 4 -7 8 -9 8 -2 0 -6 -4
-9 -8z"/>
<path d="M4120 3287 c0 -9 -5 -17 -11 -17 -5 0 -7 -5 -3 -11 5 -8 9 -8 14 1 5
8 13 9 21 4 11 -6 11 -3 -1 12 -8 10 -16 21 -17 23 -2 2 -3 -3 -3 -12z"/>
<path d="M3925 3270 c3 -5 8 -10 11 -10 2 0 4 5 4 10 0 6 -5 10 -11 10 -5 0
-7 -4 -4 -10z"/>
<path d="M3815 3230 c3 -5 8 -10 11 -10 2 0 4 5 4 10 0 6 -5 10 -11 10 -5 0
-7 -4 -4 -10z"/>
<path d="M3960 3164 c0 -7 6 -16 13 -20 6 -4 9 -4 5 1 -4 4 -3 13 2 20 7 8 5
12 -5 12 -8 0 -15 -6 -15 -13z"/>
<path d="M3595 6110 c4 -6 11 -8 16 -5 14 9 11 15 -7 15 -8 0 -12 -5 -9 -10z"/>
<path d="M2503 5425 c-3 -9 -3 -18 0 -22 3 -3 0 -12 -8 -20 -18 -17 -10 -62
14 -81 9 -7 32 -12 51 -10 28 2 36 8 38 27 4 23 -25 92 -41 99 -4 2 -4 9 0 15
4 7 -2 5 -12 -3 -11 -9 -16 -10 -11 -2 4 7 1 12 -9 12 -8 0 -18 -7 -22 -15z"/>
<path d="M2715 5340 c-4 -16 -13 -30 -21 -30 -8 0 -14 -7 -14 -15 0 -8 3 -14
8 -14 20 3 32 -3 32 -17 0 -9 -5 -13 -12 -9 -7 4 -4 0 7 -9 11 -8 25 -20 32
-26 7 -5 18 -10 26 -10 7 0 17 -4 23 -10 5 -5 15 -5 23 -1 11 7 11 15 1 47
-13 39 -74 124 -90 124 -5 0 -11 -13 -15 -30z"/>
<path d="M3031 5014 c0 -11 3 -14 6 -6 3 7 2 16 -1 19 -3 4 -6 -2 -5 -13z"/>
<path d="M4590 5436 c0 -2 7 -7 16 -10 8 -3 12 -2 9 4 -6 10 -25 14 -25 6z"/>
<path d="M4666 5365 c-3 -8 -1 -17 3 -20 5 -3 11 2 15 10 3 8 1 17 -3 20 -5 3
-11 -2 -15 -10z"/>
<path d="M4223 4380 c-13 -5 -23 -13 -23 -16 0 -4 3 -4 7 -1 3 4 12 2 18 -3 8
-7 18 -4 30 10 20 22 8 26 -32 10z"/>
<path d="M3285 3560 c-3 -5 1 -10 10 -10 9 0 13 5 10 10 -3 6 -8 10 -10 10 -2
0 -7 -4 -10 -10z"/>
<path d="M3298 3483 c7 -3 16 -2 19 1 4 3 -2 6 -13 5 -11 0 -14 -3 -6 -6z"/>
<path d="M3350 3331 c0 -5 5 -13 10 -16 6 -3 10 -2 10 4 0 5 -4 13 -10 16 -5
3 -10 2 -10 -4z"/>
<path d="M5450 8035 c-11 -13 -10 -14 4 -9 9 3 16 10 16 15 0 13 -6 11 -20 -6z"/>
<path d="M6216 7841 c-18 -7 -18 -8 -2 -14 10 -4 27 -7 38 -7 17 0 18 3 8 15
-14 17 -16 17 -44 6z"/>
<path d="M3275 6511 c-3 -5 -1 -12 5 -16 5 -3 10 1 10 9 0 18 -6 21 -15 7z"/>
<path d="M3320 6430 c12 -12 18 -26 14 -32 -4 -7 -3 -8 5 -4 6 4 9 12 6 17 -4
5 5 5 20 -1 31 -12 85 -2 64 11 -8 4 -19 3 -26 -3 -8 -6 -17 -8 -21 -4 -4 4 2
14 12 22 23 16 9 18 -30 4 -19 -8 -30 -8 -38 0 -5 5 -14 10 -18 10 -4 0 1 -9
12 -20z"/>
<path d="M3450 6421 c0 -6 4 -13 10 -16 6 -3 7 1 4 9 -7 18 -14 21 -14 7z"/>
<path d="M5640 6420 c-9 -6 -51 -7 -107 -3 -81 5 -93 4 -93 -10 0 -11 -17 -19
-55 -28 -30 -7 -55 -16 -55 -21 0 -4 -5 -8 -11 -8 -17 0 -48 -40 -43 -55 5
-13 -22 -29 -35 -21 -16 10 2 -54 19 -69 10 -9 16 -23 13 -31 -3 -10 0 -12 10
-8 8 3 18 1 22 -5 3 -6 2 -11 -4 -11 -6 0 -8 -7 -4 -16 3 -8 11 -13 17 -11 7
3 13 -4 13 -14 1 -11 -5 -19 -13 -19 -19 0 -18 -16 1 -24 8 -3 15 -11 15 -18
0 -9 -3 -9 -10 2 -5 8 -11 12 -14 10 -2 -3 4 -15 14 -27 15 -20 20 -21 30 -8
7 8 19 15 27 15 11 0 13 -3 5 -12 -16 -20 -26 -88 -13 -88 6 0 11 5 11 11 0 8
5 7 15 -1 9 -7 13 -20 10 -29 -5 -12 -3 -13 5 -4 8 7 22 8 39 4 14 -5 32 -6
38 -4 7 3 16 -3 20 -12 5 -14 8 -12 18 11 13 32 -1 56 -42 68 l-22 7 21 25
c27 31 30 30 51 -6 10 -16 15 -30 11 -30 -3 0 -1 -7 6 -15 16 -19 190 -20 246
0 39 13 46 23 59 88 3 17 12 27 23 27 24 -1 87 -34 85 -46 0 -5 19 -10 43 -11
24 -1 44 0 44 3 0 14 -22 44 -32 44 -13 0 -101 40 -108 50 -9 12 -73 40 -92
40 -10 0 -18 5 -18 10 0 6 -6 10 -14 10 -8 0 -18 6 -22 13 -4 6 -4 9 1 5 4 -4
14 -3 21 3 7 6 25 8 41 5 65 -13 89 -19 98 -26 6 -4 24 -11 41 -14 30 -7 60
-31 121 -98 37 -41 73 -55 73 -30 0 19 -126 142 -145 142 -7 0 -26 7 -41 15
-16 8 -46 15 -66 15 -20 0 -40 5 -43 10 -4 6 -15 8 -24 5 -23 -7 -48 2 -55 21
-3 9 -1 12 4 9 6 -3 10 -2 10 3 0 6 21 10 48 11 119 3 205 0 247 -8 25 -5 45
-5 45 0 0 5 9 9 21 9 11 0 19 5 17 12 -4 12 -35 21 -80 22 -16 1 -28 6 -28 11
0 6 -5 3 -10 -5 -7 -11 -10 -11 -10 -2 0 7 -5 10 -10 7 -6 -3 -17 1 -25 9 -14
13 -13 16 2 26 15 10 15 11 1 6 -9 -2 -19 2 -22 10 -3 8 -14 14 -23 14 -10 0
-28 7 -40 15 -23 16 -60 15 -71 -2 -11 -16 -52 -23 -52 -8 0 17 -22 25 -52 18
-18 -4 -20 -3 -8 6 12 8 8 11 -20 11 -19 0 -44 3 -55 5 -11 3 -27 1 -35 -5z
m62 -32 c-7 -7 -12 -8 -12 -2 0 14 12 26 19 19 2 -3 -1 -11 -7 -17z m52 -148
c-10 -4 -23 -5 -28 -2 -13 7 16 21 32 14 13 -4 12 -7 -4 -12z m-10 -45 c4 -11
-1 -15 -19 -15 -25 0 -39 12 -28 24 12 11 41 6 47 -9z m65 -89 c9 -10 8 -15
-2 -19 -19 -7 -41 8 -33 22 10 15 21 14 35 -3z m-99 -11 c0 -8 -6 -15 -14 -15
-17 0 -28 14 -19 24 12 12 33 6 33 -9z"/>
<path d="M3250 6390 c0 -5 5 -10 11 -10 5 0 7 5 4 10 -3 6 -8 10 -11 10 -2 0
-4 -4 -4 -10z"/>
<path d="M6631 6384 c0 -11 3 -14 6 -6 3 7 2 16 -1 19 -3 4 -6 -2 -5 -13z"/>
<path d="M6863 6270 c-29 -17 -45 -50 -25 -50 4 0 17 -15 28 -33 19 -28 30
-80 48 -227 4 -32 27 -80 38 -80 5 0 9 -30 7 -67 -4 -135 4 -134 49 2 33 102
33 128 3 269 -25 115 -51 180 -79 195 -28 15 -32 14 -69 -9z"/>
<path d="M5550 5890 c0 -5 4 -10 9 -10 6 0 13 5 16 10 3 6 -1 10 -9 10 -9 0
-16 -4 -16 -10z"/>
<path d="M5648 5883 c7 -3 16 -2 19 1 4 3 -2 6 -13 5 -11 0 -14 -3 -6 -6z"/>
<path d="M5569 5863 c0 -10 -3 -13 -6 -5 -2 6 -13 12 -24 12 -14 0 -19 -7 -19
-29 0 -30 19 -45 45 -35 8 4 15 1 15 -6 0 -6 5 -8 10 -5 6 3 10 2 10 -4 0 -6
12 -8 30 -4 17 3 30 1 30 -4 0 -5 23 -9 51 -10 52 0 52 0 28 18 -13 9 -27 15
-32 12 -4 -3 -18 3 -29 14 -20 16 -21 17 -15 1 10 -29 -7 -20 -25 13 -14 24
-22 29 -39 24 -14 -5 -19 -3 -15 3 3 6 2 13 -4 17 -5 3 -10 -2 -11 -12z"/>
<path d="M5778 5773 c7 -3 16 -2 19 1 4 3 -2 6 -13 5 -11 0 -14 -3 -6 -6z"/>
<path d="M5460 5260 c0 -11 29 -61 41 -70 3 -3 9 -15 13 -27 4 -14 15 -23 27
-23 10 0 19 -4 19 -10 0 -15 67 -80 74 -72 4 3 4 -1 0 -11 -4 -12 -1 -17 10
-17 9 0 16 -7 16 -16 0 -8 18 -34 40 -56 22 -23 40 -47 40 -55 0 -7 5 -13 10
-13 14 0 56 -43 52 -54 -2 -5 4 -6 12 -3 8 3 26 -5 40 -18 13 -12 28 -20 32
-16 4 3 4 -2 1 -11 -6 -16 3 -23 26 -19 4 1 11 -7 14 -16 4 -10 20 -33 37 -50
16 -18 34 -43 41 -55 6 -13 19 -22 28 -22 15 2 22 -14 15 -32 -2 -3 5 -10 15
-15 9 -6 17 -16 17 -23 0 -8 9 -16 20 -19 33 -9 47 -64 50 -205 0 -7 5 -10 11
-7 6 4 8 9 5 12 -3 3 1 17 8 32 9 16 12 45 10 71 -2 25 -5 57 -6 73 0 15 -5
27 -11 27 -5 0 -7 6 -4 13 3 8 -3 33 -14 57 -22 48 -23 53 -10 46 5 -4 11 -2
13 4 1 5 24 -9 51 -31 26 -22 47 -36 47 -31 0 22 -84 115 -116 128 -19 8 -34
17 -34 20 0 3 6 2 13 -2 6 -4 1 5 -12 19 -14 15 -33 27 -43 27 -10 0 -18 5
-18 10 0 6 -6 10 -12 10 -7 0 -29 15 -48 33 -20 17 -41 32 -48 33 -37 3 -39 5
-35 32 4 22 2 24 -7 12 -10 -13 -11 -12 -7 5 4 22 -14 45 -36 45 -7 0 -20 11
-27 25 -7 14 -17 25 -21 25 -5 0 -6 6 -3 14 3 8 -3 16 -16 19 -12 3 -24 15
-27 26 -3 12 -9 21 -14 21 -14 0 -49 33 -49 46 0 6 -13 14 -30 18 -16 3 -30
12 -30 20 0 15 -21 26 -51 26 -10 0 -19 4 -19 10 0 9 -75 50 -92 50 -4 0 -8
-5 -8 -10z"/>
<path d="M5366 4953 c-6 -14 -5 -15 5 -6 7 7 10 15 7 18 -3 3 -9 -2 -12 -12z"/>
<path d="M5544 4134 c5 -14 4 -15 -9 -4 -12 10 -19 10 -27 2 -21 -21 4 -33 34
-18 15 8 30 11 34 8 5 -4 2 1 -5 11 -17 22 -35 22 -27 1z"/>
<path d="M5350 4094 c-16 -9 -41 -13 -69 -11 -44 5 -102 -15 -82 -28 6 -3 11
-4 11 0 0 3 9 1 20 -5 11 -6 20 -17 20 -25 0 -16 -24 -20 -92 -16 -44 3 -55
-23 -13 -31 16 -4 22 -1 18 6 -4 6 0 5 9 -2 20 -16 73 -10 73 9 0 7 13 16 29
19 17 3 29 9 27 14 -1 5 23 20 54 34 30 14 54 30 52 36 -5 16 -29 16 -57 0z"/>
<path d="M4972 4035 c-19 -10 -20 -14 -8 -18 9 -4 16 -2 16 4 0 5 6 9 13 8 25
-3 38 1 32 11 -8 13 -24 11 -53 -5z"/>
<path d="M4900 3728 c0 -16 23 -19 38 -4 15 15 14 16 -11 14 -15 -1 -27 -6
-27 -10z"/>
<path d="M5010 3659 c0 -5 5 -7 10 -4 6 3 10 8 10 11 0 2 -4 4 -10 4 -5 0 -10
-5 -10 -11z"/>
<path d="M4800 3507 c0 -8 7 -14 15 -14 11 0 12 4 4 14 -6 7 -13 13 -15 13 -2
0 -4 -6 -4 -13z"/>
<path d="M4375 3450 c3 -5 8 -10 11 -10 2 0 4 5 4 10 0 6 -5 10 -11 10 -5 0
-7 -4 -4 -10z"/>
<path d="M4590 3444 c0 -8 5 -12 10 -9 6 3 10 10 10 16 0 5 -4 9 -10 9 -5 0
-10 -7 -10 -16z"/>
<path d="M4440 3430 c0 -5 5 -10 10 -10 6 0 10 5 10 10 0 6 -4 10 -10 10 -5 0
-10 -4 -10 -10z"/>
<path d="M4635 3410 c-10 -17 15 -42 30 -30 6 5 16 6 20 2 5 -4 5 -1 1 6 -6
10 -11 10 -21 2 -15 -12 -30 3 -20 20 3 6 4 10 1 10 -3 0 -8 -5 -11 -10z"/>
<path d="M4574 3275 c3 -23 12 -26 13 -5 1 11 -2 20 -7 20 -4 0 -7 -7 -6 -15z"/>
<path d="M4525 3260 c3 -5 10 -10 16 -10 5 0 9 5 9 10 0 6 -7 10 -16 10 -8 0
-12 -4 -9 -10z"/>
<path d="M4783 3176 c1 -11 9 -21 17 -23 10 -3 11 -2 4 4 -6 4 -14 15 -17 23
-5 11 -6 9 -4 -4z"/>
<path d="M6012 3098 c-6 -24 -20 -81 -31 -128 -38 -164 -56 -227 -170 -605
-21 -71 -82 -256 -134 -410 -53 -154 -98 -293 -101 -310 -3 -16 -13 -59 -21
-95 -18 -79 -34 -170 -41 -230 -3 -25 -9 -72 -14 -105 -8 -59 -2 -257 10 -295
1 -3 1 -48 1 -100 0 -52 4 -108 9 -125 4 -16 11 -56 15 -89 4 -32 11 -54 15
-50 11 11 27 114 35 224 6 95 10 119 30 205 8 33 16 73 19 88 3 16 12 47 21
70 8 23 22 76 29 117 7 41 23 111 36 155 36 130 155 362 203 396 5 4 18 4 28
2 14 -4 19 0 21 18 1 26 1 25 11 84 4 22 9 84 12 139 5 128 12 190 35 306 20
98 25 142 35 270 11 140 15 162 29 150 11 -8 11 0 1 45 -7 30 -9 53 -4 49 14
-8 11 15 -12 91 -12 39 -24 92 -28 119 -8 63 -25 69 -39 14z"/>
<path d="M4845 2001 c-10 -17 12 -21 25 -6 10 12 10 15 -3 15 -9 0 -18 -4 -22
-9z"/>
<path d="M4897 1990 c4 -16 8 -18 14 -8 7 10 9 9 9 -4 0 -10 7 -18 15 -18 8 0
15 9 15 20 0 11 -6 20 -14 20 -8 0 -21 3 -29 6 -12 4 -14 0 -10 -16z"/>
<path d="M6351 1835 c-1 -24 14 -50 22 -38 3 4 -1 19 -9 33 -12 22 -13 23 -13
5z"/>
<path d="M5950 1788 c0 -7 5 -20 10 -28 8 -12 10 -9 10 13 0 15 -4 27 -10 27
-5 0 -10 -6 -10 -12z"/>
<path d="M5270 1565 c0 -5 5 -17 10 -25 5 -8 10 -10 10 -5 0 6 -5 17 -10 25
-5 8 -10 11 -10 5z"/>
<path d="M5218 1463 c7 -3 16 -2 19 1 4 3 -2 6 -13 5 -11 0 -14 -3 -6 -6z"/>
<path d="M5253 1434 c-3 -8 -2 -19 3 -24 5 -5 9 1 9 16 0 28 -3 30 -12 8z"/>
<path d="M5223 1412 c0 -12 5 -22 9 -22 11 0 10 12 -2 30 -7 12 -9 10 -7 -8z"/>
<path d="M5287 1396 c-3 -8 1 -22 8 -33 13 -17 14 -17 15 0 0 9 -4 17 -10 17
-5 0 -7 7 -4 15 4 8 4 15 1 15 -3 0 -7 -6 -10 -14z"/>
<path d="M5195 1352 c8 -9 85 -9 85 -1 0 4 -21 7 -46 7 -25 0 -43 -3 -39 -6z"/>
<path d="M5247 1307 c-13 -33 -9 -49 9 -39 9 5 26 7 38 5 12 -3 17 -1 10 4 -6
4 -14 17 -18 28 l-8 20 -8 -20 -7 -20 -4 20 c-4 19 -5 19 -12 2z"/>
<path d="M5107 1013 c-2 -5 0 -28 6 -52 6 -32 11 -40 18 -30 10 16 12 51 3 73
-6 17 -20 21 -27 9z"/>
</g>
</svg>
