<?xml version="1.0" standalone="no"?>
<!DOCTYPE svg PUBLIC "-//W3C//DTD SVG 20010904//EN"
 "http://www.w3.org/TR/2001/REC-SVG-20010904/DTD/svg10.dtd">
<svg version="1.0" xmlns="http://www.w3.org/2000/svg"
 width="960.000000pt" height="960.000000pt" viewBox="0 0 960.000000 960.000000"
 preserveAspectRatio="xMidYMid meet">
<g transform="translate(0.000000,960.000000) scale(0.100000,-0.100000)"
fill="#000000" stroke="none">
<path d="M4640 9318 c-14 -6 -38 -18 -55 -26 -16 -7 -62 -18 -102 -22 -39 -5
-85 -16 -102 -24 -16 -9 -47 -16 -68 -16 -22 0 -66 -7 -98 -16 -57 -15 -98
-14 -137 1 -14 5 -18 2 -18 -12 0 -11 -11 -30 -25 -43 -23 -22 -26 -22 -43 -7
-12 11 -22 13 -32 7 -8 -5 -41 -10 -72 -10 -46 0 -61 -4 -78 -22 -19 -21 -28
-22 -130 -19 -85 2 -119 -1 -155 -14 -46 -18 -48 -22 -57 -104 -2 -19 -13 -27
-48 -38 -25 -8 -58 -15 -75 -16 -18 -1 -29 -7 -28 -14 2 -7 -3 -13 -11 -13 -8
0 -23 -10 -33 -23 -10 -13 -26 -26 -36 -30 -10 -4 -23 -20 -28 -37 -8 -20 -20
-32 -37 -36 -15 -3 -42 -13 -60 -22 -38 -20 -202 -177 -202 -195 0 -7 -11 -33
-25 -59 -30 -57 -30 -54 -4 -61 29 -8 21 -43 -9 -40 -27 3 -134 -102 -153
-151 -7 -17 -18 -38 -25 -46 -19 -22 -19 -78 -2 -127 8 -23 12 -47 7 -54 -4
-8 -1 -18 8 -24 21 -16 10 -45 -18 -45 -12 0 -23 8 -26 20 -6 23 -16 25 -32 6
-8 -10 -6 -20 10 -40 16 -20 19 -30 11 -38 -8 -8 -7 -15 6 -24 15 -12 15 -15
2 -24 -20 -13 -35 -7 -34 13 1 13 -2 14 -16 7 -10 -6 -26 -7 -34 -4 -21 8 -21
-27 -1 -67 12 -21 13 -34 5 -48 -5 -11 -10 -30 -10 -42 0 -13 -10 -33 -22 -46
l-22 -23 27 -28 c34 -36 34 -46 -3 -72 -57 -40 -87 -145 -56 -192 16 -25 13
-58 -5 -58 -5 0 -9 -9 -9 -19 0 -10 -9 -38 -20 -62 -24 -54 -25 -70 -4 -62 21
8 35 -16 23 -38 -6 -11 -5 -20 1 -24 5 -3 10 2 10 13 0 26 45 66 66 58 10 -4
14 -12 10 -22 -4 -9 -11 -37 -18 -63 -6 -25 -15 -51 -20 -57 -5 -7 -2 -27 8
-49 13 -31 14 -46 4 -83 -6 -27 -7 -48 -2 -51 5 -3 12 -85 16 -181 5 -121 12
-188 23 -217 16 -44 27 -53 36 -30 3 6 6 2 6 -10 1 -13 -3 -23 -8 -23 -6 0
-11 -14 -13 -32 -3 -27 -9 -33 -45 -45 -58 -20 -134 -104 -157 -174 -9 -30
-24 -105 -33 -167 -18 -136 -13 -174 46 -312 22 -52 65 -162 96 -245 31 -82
73 -182 92 -222 46 -95 131 -188 198 -218 95 -42 200 -56 250 -33 32 15 73 -5
82 -40 5 -21 7 -22 15 -8 5 9 14 16 19 16 6 0 7 -4 4 -10 -3 -5 -1 -10 4 -10
6 0 11 5 11 10 0 6 5 10 10 10 6 0 3 -11 -5 -24 -13 -19 -14 -29 -6 -45 6 -11
11 -31 11 -45 0 -13 6 -26 13 -29 9 -3 9 -7 -1 -19 -13 -17 -6 -52 9 -42 5 3
9 1 9 -5 0 -5 -4 -11 -10 -13 -15 -5 -14 -47 3 -116 8 -34 15 -63 16 -65 8
-59 15 -87 23 -87 5 0 8 -15 7 -33 -2 -18 0 -37 4 -43 3 -6 7 -28 9 -50 1 -21
7 -43 12 -47 8 -6 8 -10 0 -13 -13 -5 5 -105 20 -116 6 -4 11 -27 11 -53 0
-29 4 -44 11 -41 8 3 12 -12 12 -42 1 -72 10 -201 20 -268 4 -33 7 -93 5 -132
-3 -50 0 -72 8 -72 8 0 9 -4 0 -13 -6 -8 -9 -16 -7 -18 2 -2 7 -52 10 -112 5
-90 4 -107 -9 -107 -8 0 -34 -11 -59 -25 -25 -14 -51 -22 -59 -19 -20 7 -77
-23 -77 -41 0 -8 -9 -29 -20 -47 -14 -23 -20 -51 -20 -89 0 -41 -5 -63 -20
-82 -23 -29 -24 -40 -9 -65 8 -13 9 -30 1 -63 -24 -96 -39 -140 -48 -140 -5 0
-11 22 -14 48 l-6 48 -13 -30 c-16 -37 -17 -55 -7 -128 5 -37 4 -57 -3 -57
-10 0 -31 59 -31 90 -2 57 -42 -111 -56 -233 -7 -62 -34 -107 -63 -107 -10 0
-26 -10 -37 -21 -56 -63 -126 -93 -163 -70 -11 7 -2 15 35 35 27 14 46 25 42
26 -18 1 -126 -32 -163 -50 -23 -11 -47 -20 -53 -20 -15 0 -16 -17 -1 -22 22
-7 -1 -43 -48 -73 -71 -45 -80 -47 -124 -25 l-39 21 -38 -40 c-28 -30 -36 -44
-29 -56 5 -10 4 -22 -4 -32 -19 -22 -120 -89 -148 -98 -14 -4 -51 -24 -84 -44
l-59 -36 -4 -84 c-2 -53 -9 -92 -19 -107 -9 -15 -18 -57 -21 -107 -3 -45 -11
-91 -18 -103 -8 -11 -21 -58 -30 -103 -8 -46 -21 -90 -27 -97 -14 -18 -26
-164 -13 -164 5 0 32 -19 59 -41 l50 -41 7 73 c5 40 12 87 18 104 5 16 14 63
20 104 6 41 19 88 29 105 11 18 21 61 25 101 3 39 13 88 21 110 8 22 14 60 15
85 0 25 6 70 14 100 7 30 17 71 20 91 8 45 11 47 109 89 59 26 80 31 89 22 9
-9 9 -18 0 -38 -9 -17 -10 -55 -6 -120 5 -68 4 -98 -5 -108 -8 -9 -14 -55 -17
-109 -2 -51 -10 -112 -19 -136 -28 -79 -24 -84 48 -76 73 8 87 21 87 84 0 25
5 75 11 111 6 36 12 85 14 110 6 97 18 160 32 171 8 7 50 13 101 13 l87 1 -2
-167 c-2 -142 0 -168 12 -168 9 0 15 10 15 26 0 31 23 28 28 -4 2 -13 11 -22
20 -22 15 0 15 -2 2 -10 -8 -5 -29 -10 -47 -10 -40 0 -43 -5 -49 -82 -2 -34
-12 -75 -23 -93 -22 -38 -34 -95 -23 -113 7 -10 15 -9 42 4 23 12 38 14 49 7
21 -14 26 -40 9 -60 -7 -9 -12 -24 -10 -33 2 -13 -7 -19 -34 -25 -43 -8 -64 6
-45 29 7 8 10 20 6 26 -13 20 -23 9 -30 -33 -4 -23 -11 -49 -15 -58 -5 -8 -9
-42 -10 -75 -1 -32 -7 -121 -12 -197 -14 -195 -13 -199 72 -242 38 -19 71 -35
72 -35 2 0 3 100 4 222 0 250 16 443 39 488 8 16 16 49 17 72 0 24 10 63 21
88 15 35 19 66 18 140 -1 67 3 103 14 124 8 15 15 35 15 42 0 8 5 14 11 14 6
0 9 -7 6 -14 -5 -13 7 -14 77 -9 80 6 84 5 96 -17 9 -17 11 -51 6 -122 -8
-110 -5 -123 25 -107 17 9 97 14 146 10 6 -1 30 -24 53 -53 35 -45 39 -53 26
-66 -12 -12 -10 -20 15 -57 16 -24 36 -45 44 -49 9 -3 15 -18 15 -36 0 -18 9
-39 23 -52 l22 -23 -32 -3 c-34 -3 -40 -12 -45 -77 -3 -28 0 -30 52 -43 81
-19 84 -19 95 5 12 29 19 29 39 -2 9 -14 35 -37 57 -51 53 -33 86 -103 93
-202 5 -74 10 -92 27 -92 18 0 89 -53 102 -75 6 -12 24 -45 39 -72 15 -28 33
-53 41 -56 20 -8 53 14 79 52 13 19 28 34 33 34 6 0 15 -36 21 -79 7 -44 14
-88 17 -99 3 -11 9 -41 12 -68 7 -50 19 -61 30 -26 4 11 17 25 30 31 29 13 22
38 -10 38 -33 0 -40 17 -19 41 28 31 58 21 65 -24 6 -38 15 -54 24 -45 9 9
-12 229 -23 240 -7 7 -7 19 -1 37 21 54 59 54 128 0 63 -50 121 -124 121 -154
0 -27 24 -49 72 -64 20 -7 42 -19 48 -27 7 -7 22 -14 34 -14 13 0 49 -13 82
-28 32 -16 75 -35 94 -42 19 -8 46 -22 59 -32 19 -14 34 -17 80 -12 66 8 81
22 74 73 -6 45 -1 50 70 61 29 5 60 10 70 12 11 2 24 -8 35 -24 l16 -27 -79
-84 c-73 -77 -83 -85 -120 -86 -22 0 -56 3 -74 9 -19 5 -36 8 -38 6 -2 -2 2
-26 8 -55 8 -40 15 -51 30 -51 11 0 22 -7 25 -15 9 -22 51 -18 65 6 9 17 17
20 41 15 17 -3 36 -12 42 -20 9 -12 39 -12 191 -1 227 16 275 23 275 41 0 8
10 14 23 14 12 0 28 4 35 9 7 4 36 4 65 -1 57 -10 193 7 208 26 32 38 79 106
79 114 0 5 9 17 21 27 l20 19 -23 18 c-20 15 -21 20 -10 35 6 10 23 41 36 68
26 55 59 90 74 81 5 -3 15 -26 22 -51 15 -53 30 -43 24 15 -4 34 -2 39 25 49
16 7 42 11 58 9 28 -3 28 -3 28 53 0 35 6 63 15 74 11 14 12 19 3 22 -14 5
-17 69 -7 122 4 17 18 42 33 57 33 33 63 108 48 123 -14 14 12 121 31 129 9 3
23 -4 33 -16 l17 -22 7 28 c10 39 34 62 67 62 37 0 37 18 -3 121 -25 65 -34
79 -47 73 -43 -17 -58 -15 -71 10 -13 23 -11 31 10 73 13 26 32 58 42 70 16
18 17 25 7 44 -7 12 -15 45 -19 73 -5 43 -9 51 -33 57 -30 8 -39 -6 -43 -63
-2 -16 -11 -40 -21 -54 -30 -42 -31 -44 -75 -137 -23 -49 -51 -100 -64 -115
-23 -28 -43 -77 -29 -70 5 2 30 14 57 28 l47 24 22 -22 c16 -15 19 -25 11 -33
-7 -7 -14 -6 -24 4 -17 17 -36 12 -50 -15 -8 -15 -7 -24 6 -38 28 -31 -3 -34
-48 -4 -23 15 -42 26 -43 23 0 -2 -9 2 -18 10 -19 16 -18 24 15 157 11 45 19
95 17 110 l-3 29 -17 -31 c-25 -46 -48 -115 -48 -145 0 -15 -6 -32 -14 -38 -8
-7 -12 -20 -9 -30 2 -10 -7 -41 -21 -69 -41 -80 -31 -204 11 -146 12 16 15 17
23 4 15 -24 12 -48 -10 -70 -12 -12 -25 -32 -30 -45 -17 -44 -33 -29 -28 25
l5 51 -22 -21 c-12 -11 -28 -20 -36 -20 -8 -1 -31 -16 -53 -35 -35 -31 -38
-38 -33 -70 4 -24 -1 -54 -14 -89 -22 -58 -63 -93 -136 -117 -59 -19 -140 -68
-145 -87 -6 -21 -74 -44 -105 -36 -18 5 -25 1 -33 -22 -9 -22 -13 -25 -20 -14
-14 23 -99 -41 -153 -114 -12 -16 -17 -10 -48 50 -22 46 -64 100 -124 164
-110 116 -167 191 -206 273 -32 69 -37 107 -14 107 8 0 15 4 15 9 0 5 9 13 21
16 12 4 33 17 48 28 48 39 161 162 167 182 4 11 23 40 43 65 44 55 91 123 91
134 0 4 16 31 35 60 19 29 35 60 35 69 0 8 6 28 14 44 57 111 81 174 93 238 3
16 11 42 19 57 7 14 25 59 38 100 34 101 68 189 110 283 20 44 36 86 36 94 0
8 6 22 14 30 7 9 35 59 62 111 27 52 61 111 77 131 15 20 27 43 27 52 0 10 5
17 10 17 6 0 10 7 10 15 0 15 11 31 68 95 17 21 32 41 32 44 0 14 40 95 51
101 21 14 99 146 93 158 -4 7 -4 9 1 5 5 -5 17 7 29 25 27 42 66 127 60 127
-3 0 1 7 9 15 9 8 13 24 10 35 -3 11 -1 20 5 20 5 0 13 7 16 16 3 8 2 12 -3 9
-5 -3 -12 -1 -16 5 -3 5 0 10 7 10 24 0 67 199 78 360 20 292 25 334 43 362 8
12 22 47 32 75 9 29 21 55 26 58 5 4 9 14 9 24 0 10 7 24 15 31 8 7 14 18 13
24 -1 6 3 21 10 34 7 12 10 22 7 22 -3 0 0 10 7 23 6 12 13 29 13 37 1 8 9 41
18 73 8 31 11 54 6 51 -5 -3 -9 -11 -9 -19 0 -7 -6 -20 -13 -27 -7 -7 -14 -23
-15 -35 -3 -45 -5 -53 -15 -53 -5 0 -6 16 -2 37 6 33 5 35 -9 24 -9 -7 -13
-18 -10 -23 4 -6 -4 -5 -16 2 -18 9 -24 9 -30 0 -4 -7 -12 -10 -18 -6 -6 3
-18 -1 -27 -10 -13 -14 -14 -19 -3 -26 8 -5 3 -6 -14 -2 -18 4 -28 2 -28 -5 0
-6 9 -11 20 -11 24 0 25 -8 3 -39 -9 -14 -11 -21 -5 -17 7 4 12 3 12 -2 0 -10
-23 -22 -41 -22 -5 0 -9 8 -9 17 0 15 -2 14 -15 -3 -17 -22 -19 -44 -5 -44 5
0 7 7 4 15 -4 10 -2 13 8 10 20 -8 11 -52 -10 -52 -40 0 -43 56 -5 106 16 21
26 45 24 59 -2 18 2 23 16 20 15 -2 18 3 16 35 -1 21 2 37 9 37 7 0 7 4 0 13
-15 18 7 97 28 98 10 0 11 2 3 6 -19 7 -16 41 5 46 13 4 11 5 -5 6 -36 2 -38
1 -38 -6 -2 -22 -18 -53 -27 -53 -5 0 -8 -6 -5 -13 3 -7 -1 -21 -9 -31 -13
-18 -14 -18 -33 5 -11 13 -20 19 -21 12 0 -6 5 -13 11 -15 12 -4 1 -58 -12
-58 -5 0 -22 -14 -39 -32 -17 -17 -33 -28 -37 -25 -3 4 -13 -2 -21 -14 -19
-28 -18 -120 3 -131 11 -7 13 -14 5 -28 -5 -10 -10 -35 -10 -55 0 -29 3 -36
15 -31 19 7 19 1 -1 -18 -14 -15 -14 -16 0 -16 9 0 16 5 16 10 0 6 9 10 21 10
11 0 17 4 14 10 -3 6 1 7 9 4 16 -6 21 -22 18 -56 -1 -10 4 -18 10 -18 7 0 3
-7 -8 -15 -10 -8 -15 -15 -11 -15 4 0 -5 -11 -20 -25 -17 -15 -21 -23 -10 -19
27 10 20 -11 -9 -25 -17 -7 -24 -17 -20 -26 3 -8 1 -15 -5 -15 -6 0 -7 -4 -4
-10 3 -6 -1 -7 -9 -4 -12 4 -13 11 -6 24 5 9 7 20 4 23 -13 12 -33 -6 -39 -35
-4 -18 -15 -32 -26 -35 -15 -4 -17 -11 -12 -31 5 -21 3 -24 -12 -18 -15 5 -16
4 -5 -9 8 -10 9 -15 1 -15 -6 0 -11 -9 -11 -19 0 -11 -9 -22 -19 -26 -12 -3
-18 -12 -15 -20 3 -7 -8 -28 -25 -47 -24 -26 -30 -29 -31 -15 0 14 -7 18 -27
15 -40 -4 -45 -49 -8 -66 14 -6 25 -17 25 -23 0 -7 -8 -5 -20 6 -11 10 -23 15
-27 12 -3 -4 -12 1 -20 11 -13 16 -14 15 -8 -5 4 -13 2 -23 -3 -23 -5 0 -12
-9 -15 -21 -3 -12 -10 -18 -16 -14 -7 4 -10 -3 -8 -17 1 -17 -3 -23 -22 -24
-26 -2 -44 -22 -36 -41 18 -46 18 -48 5 -36 -8 7 -14 27 -14 46 -1 30 -4 33
-33 35 -18 2 -33 -2 -33 -8 0 -5 9 -10 19 -10 10 0 22 -7 25 -16 9 -24 -3 -32
-18 -11 -13 16 -15 16 -39 -3 -14 -11 -30 -20 -36 -20 -19 0 -12 -20 7 -21 13
0 12 -2 -6 -9 -12 -5 -28 -7 -36 -4 -11 4 -13 0 -9 -15 8 -30 -16 -18 -47 23
-29 40 -58 37 -67 -5 -6 -34 -23 -29 -23 7 0 13 -2 24 -5 24 -10 0 -43 -39
-37 -44 3 -3 -6 -6 -20 -6 -22 0 -25 -4 -21 -22 l5 -23 -16 22 c-11 14 -23 20
-38 16 -19 -4 -20 -3 -8 6 13 9 11 11 -7 11 -12 0 -24 8 -26 18 -3 12 -5 11
-6 -6 0 -13 -5 -20 -11 -17 -5 3 -37 7 -70 7 -47 1 -60 5 -60 17 0 14 -2 14
-9 1 -6 -8 -8 -17 -5 -22 4 -7 -27 -28 -41 -28 -4 0 -4 16 -1 35 l7 35 -36
-20 c-39 -22 -85 -18 -85 6 0 8 -6 14 -14 14 -8 0 -27 5 -43 11 -22 8 -24 12
-13 19 12 8 10 10 -7 10 -14 0 -23 -6 -23 -15 0 -21 -30 -31 -41 -14 -7 12 -9
12 -10 -1 0 -8 -4 -4 -8 10 -6 20 -13 25 -40 26 -33 0 -58 24 -46 44 8 12 -5
13 -24 1 -22 -14 -52 5 -44 27 4 9 11 21 17 25 7 5 3 6 -8 3 -12 -4 -26 1 -38
13 -21 23 -44 19 -51 -10 -3 -10 -10 -19 -16 -19 -6 0 -8 6 -5 14 7 17 -32 41
-41 26 -3 -5 -12 -10 -18 -10 -7 0 -4 5 5 11 14 8 15 15 7 35 -8 22 -6 30 13
45 12 11 24 15 28 10 3 -6 11 -6 19 -2 9 6 6 10 -11 15 -17 6 -19 9 -8 13 21
9 40 30 33 37 -4 3 3 6 15 6 29 0 53 11 47 21 -6 9 12 14 78 23 20 3 51 15 69
27 17 13 28 17 23 9 -6 -9 -4 -11 4 -6 7 5 10 14 7 21 -3 10 10 12 60 8 59 -4
64 -3 57 14 -7 17 -6 17 11 0 10 -10 25 -16 32 -13 8 3 14 1 14 -4 0 -6 4 -10
10 -10 5 0 9 6 7 13 -1 7 8 11 26 10 20 -1 27 2 24 11 -4 9 2 12 17 9 13 -3
29 1 37 9 8 7 29 13 47 13 23 0 32 4 32 17 0 13 7 16 31 13 21 -3 29 0 26 8
-2 7 -13 11 -23 9 -18 -2 -18 -2 -1 9 14 8 22 7 36 -5 17 -16 18 -15 14 11 -4
27 -4 27 11 9 9 -11 16 -14 16 -8 0 10 5 10 20 2 17 -9 20 -8 20 10 0 23 22
50 39 50 7 0 9 10 5 25 -4 16 -2 25 6 25 6 0 8 5 5 10 -5 8 -12 7 -22 -2 -13
-10 -18 -9 -29 7 -20 29 -57 65 -68 65 -5 0 0 -10 11 -22 31 -36 36 -48 18
-48 -9 0 -14 4 -10 9 3 5 0 13 -6 16 -6 4 -19 21 -29 37 -16 27 -24 30 -76 33
-33 1 -63 0 -67 -2 -11 -7 -96 -14 -188 -16 -63 -2 -76 0 -71 12 3 8 1 12 -5
8 -5 -3 -20 3 -31 14 l-22 20 0 -20 c0 -14 5 -19 15 -15 11 5 13 2 9 -10 -7
-19 -83 -20 -90 -1 -3 7 -16 10 -30 7 -13 -2 -24 0 -24 6 0 7 14 9 34 7 24 -3
36 0 40 10 3 8 2 14 -2 14 -25 -4 -32 1 -20 15 8 9 17 11 22 5 17 -16 27 -10
17 10 -9 15 -6 22 14 35 13 9 36 16 51 16 15 0 35 6 43 13 17 14 103 32 206
42 76 8 129 21 180 45 46 22 156 44 297 59 54 6 117 17 140 25 24 8 72 17 108
19 36 3 73 8 83 12 9 4 23 2 31 -4 11 -9 18 -8 30 5 16 15 18 15 29 0 10 -14
16 -15 39 -4 27 12 39 48 17 48 -6 0 -7 5 -2 13 4 6 8 24 9 39 1 22 -4 29 -31
38 -18 6 -51 12 -74 13 -26 1 -37 5 -31 12 9 11 -21 55 -39 55 -6 0 -11 5 -11
10 0 14 37 13 42 -2 3 -7 12 -9 23 -5 25 10 14 18 -32 24 -21 2 -43 6 -50 8
-9 3 -11 -5 -6 -28 l5 -32 -31 34 c-33 35 -58 36 -26 1 26 -29 -3 -27 -40 2
l-28 22 5 -22 c4 -12 2 -22 -3 -22 -5 0 -9 4 -9 8 0 10 -52 30 -68 24 -6 -2
-12 -11 -12 -20 0 -13 2 -14 9 -4 6 10 10 10 20 -2 10 -12 10 -19 -2 -37 l-16
-22 -20 34 c-24 39 -25 38 -11 -11 8 -32 8 -33 -5 -16 -13 18 -16 18 -32 4
-15 -13 -43 -15 -158 -12 -124 2 -232 -7 -259 -24 -5 -3 -31 -6 -57 -8 -44 -3
-49 -1 -55 21 -4 16 0 30 10 40 9 9 21 25 26 36 6 10 17 19 25 19 8 0 15 5 15
11 0 7 10 9 25 7 14 -3 29 0 33 6 4 6 21 17 37 24 28 11 28 11 11 -3 -19 -15
-19 -15 2 -15 17 0 22 6 22 25 0 14 4 25 9 25 14 0 6 64 -11 89 -9 13 -14 30
-11 39 5 11 2 14 -10 9 -11 -4 -14 -2 -10 9 3 8 12 13 20 9 11 -4 14 0 11 13
-7 24 8 52 27 52 8 0 15 6 15 14 0 7 16 21 35 30 19 9 46 31 59 49 32 41 61
157 36 142 -5 -3 -10 -1 -10 5 0 6 -4 8 -10 5 -5 -3 -10 -3 -10 2 0 4 -20 7
-45 5 -28 -3 -45 0 -45 7 0 6 -7 8 -15 4 -10 -3 -15 -1 -13 8 3 14 -43 20 -53
6 -3 -4 -20 -9 -37 -10 -18 -1 -32 -5 -32 -9 0 -5 -13 -8 -30 -8 -16 0 -30 -4
-30 -9 0 -15 -41 -24 -53 -12 -6 6 -21 11 -33 11 -25 0 -85 29 -96 47 -5 6
-31 14 -59 18 -29 4 -67 14 -86 21 -18 8 -33 11 -33 8 0 -16 -29 20 -35 44 -4
15 -12 31 -18 35 -9 7 -9 10 0 13 7 3 9 12 6 20 -3 8 -1 14 4 14 12 0 10 37
-2 47 -4 5 -5 2 0 -6 5 -9 3 -12 -6 -9 -8 3 -13 13 -11 22 4 24 -16 46 -35 39
-11 -4 -14 -2 -9 5 4 7 2 12 -3 12 -6 0 -11 -7 -11 -15 0 -9 -9 -15 -25 -15
-19 0 -29 -8 -39 -31 -7 -17 -16 -30 -19 -30 -4 1 -7 -1 -7 -4 0 -7 -29 -35
-64 -62 -16 -13 -26 -23 -23 -23 4 0 -9 -16 -28 -35 -19 -19 -35 -39 -35 -45
0 -5 -7 -10 -15 -10 -8 0 -15 -5 -15 -10 0 -6 -17 -27 -37 -47 -21 -20 -37
-40 -35 -45 1 -5 -9 -14 -23 -20 -14 -6 -25 -16 -25 -21 0 -5 -9 -7 -19 -4
-14 3 -18 1 -14 -10 3 -7 2 -13 -3 -11 -19 5 -51 -25 -46 -44 4 -17 -12 -24
-42 -19 -4 1 -15 -4 -23 -11 -9 -7 -27 -11 -42 -10 -14 1 -33 -2 -41 -8 -13
-9 -13 -11 0 -20 12 -8 11 -10 -8 -10 -13 0 -20 4 -17 10 3 6 -1 10 -9 10 -9
0 -16 -6 -16 -13 0 -7 -9 -13 -20 -14 -11 -1 -20 2 -20 7 0 5 -7 7 -15 4 -8
-4 -15 -2 -15 3 0 12 -56 44 -64 36 -3 -3 -6 -1 -6 6 0 7 -9 6 -26 -5 -21 -14
-25 -15 -24 -3 5 31 -1 49 -15 49 -8 0 -15 5 -15 10 0 6 -5 10 -11 10 -5 0 -8
-4 -4 -9 3 -5 1 -12 -5 -16 -6 -3 -14 4 -19 17 -8 17 -10 19 -10 5 -1 -13 -7
-16 -26 -11 -17 4 -25 2 -25 -7 0 -9 -3 -10 -8 -4 -4 6 -17 16 -29 23 -19 10
-23 10 -23 0 -1 -7 -9 4 -19 26 -12 25 -20 34 -24 25 -4 -10 -6 -10 -6 -1 -1
6 -10 12 -21 12 -11 0 -19 6 -17 13 1 6 -5 11 -15 9 -12 -2 -15 3 -11 19 5 16
3 20 -7 14 -7 -4 -15 -4 -19 1 -3 5 -18 17 -33 26 -23 16 -25 21 -18 54 10 42
4 65 -15 58 -7 -3 -16 0 -21 7 -4 8 -3 10 4 5 7 -4 12 -1 12 9 0 9 -3 14 -7
12 -5 -3 -8 8 -9 23 -1 18 5 31 15 35 14 6 14 8 -3 21 -16 11 -17 14 -4 14 11
0 14 8 12 31 -2 18 0 28 6 24 6 -3 10 -1 10 4 0 6 -8 11 -17 12 -14 0 -12 3 5
10 13 5 21 13 17 18 -6 10 32 51 47 51 4 0 8 7 8 15 0 8 5 15 11 15 5 0 7 5 4
10 -4 6 -3 10 2 9 18 -3 33 2 33 10 0 18 47 61 65 61 10 0 15 3 12 6 -7 7 36
44 51 44 5 0 17 10 26 23 14 20 15 20 10 2 -5 -18 -4 -18 8 -4 14 18 56 34 75
31 7 -2 21 2 31 7 16 8 22 5 32 -14 7 -14 17 -25 22 -25 5 0 7 4 4 9 -8 12
117 10 125 -2 4 -5 26 -9 50 -9 41 1 42 0 25 -14 -18 -13 -17 -14 20 -15 21
-1 44 0 49 1 6 2 37 5 70 7 33 2 61 8 63 13 2 5 9 7 15 4 7 -2 21 3 32 12 11
8 14 13 8 9 -7 -3 -13 -2 -13 3 0 17 13 22 27 10 10 -8 12 -8 8 3 -4 8 -21 25
-38 39 -22 17 -27 19 -17 6 14 -18 14 -19 -7 -8 -29 16 -34 15 -31 -4 2 -13
-7 -18 -46 -20 -26 -2 -54 -8 -62 -15 -11 -9 -14 -8 -14 2 0 11 -2 11 -10 -1
-9 -13 -10 -13 -11 0 -1 8 -1 18 0 23 0 4 -10 7 -24 7 -19 0 -23 -4 -19 -17 3
-11 -5 -5 -20 12 -26 30 -26 30 -32 8 -4 -13 -10 -20 -15 -18 -4 3 -6 12 -3
20 4 9 -2 18 -17 23 -18 7 -20 11 -8 18 19 11 62 17 56 7 -3 -4 26 -8 64 -8
49 -1 69 3 69 12 0 8 -14 11 -40 10 -24 -1 -46 5 -55 13 -13 13 -10 15 20 16
19 0 35 -4 35 -10 0 -8 2 -8 8 0 4 6 40 13 80 16 59 4 72 3 68 -8 -6 -17 6
-18 21 -3 7 7 19 9 28 5 14 -5 15 -9 5 -22 -7 -8 -16 -11 -19 -6 -3 4 -15 8
-26 9 -11 0 -28 3 -37 8 -12 4 -18 3 -18 -5 0 -19 29 -42 45 -36 8 3 25 2 37
-3 17 -6 27 -4 38 9 22 24 50 33 50 15 0 -9 -6 -12 -15 -9 -11 4 -13 2 -9 -9
3 -8 0 -18 -7 -23 -8 -5 -10 -3 -4 6 5 7 -3 5 -17 -6 l-26 -19 21 -12 c12 -7
29 -12 37 -12 10 0 11 2 2 6 -20 8 -3 23 26 24 15 0 22 3 16 5 -13 6 -6 54 11
70 7 7 40 12 76 12 35 -1 85 3 111 7 71 11 118 13 112 4 -10 -16 14 -18 28 -1
15 18 40 84 37 99 -1 4 0 13 1 18 1 6 3 26 4 45 3 58 18 123 33 147 12 18 13
26 4 37 -9 11 -9 15 1 19 10 4 11 7 1 18 -7 7 -13 21 -13 31 0 10 -3 17 -7 17
-21 -3 -33 3 -33 16 0 9 -7 18 -15 21 -8 4 -12 11 -8 17 4 6 0 8 -10 4 -9 -3
-19 -2 -22 4 -4 5 -22 9 -40 7 -21 -1 -41 5 -53 15 -11 10 -22 13 -28 8 -9 -9
-84 0 -116 14 -13 5 -18 3 -18 -9 0 -29 -97 -22 -145 11 -33 22 -51 27 -112
28 -53 1 -73 -2 -73 -12 0 -9 -16 -12 -52 -11 -47 1 -163 -8 -163 -12 0 -1
-21 -3 -47 -4 -26 -1 -53 -8 -60 -15 -11 -11 -5 -13 35 -8 54 5 54 -1 -1 -20
-47 -16 -72 -16 -72 0 0 6 -5 4 -11 -5 -5 -10 -17 -18 -24 -18 -8 0 -14 -6
-13 -12 2 -8 -5 -12 -15 -10 -10 2 -24 -2 -32 -8 -17 -14 -71 -2 -56 13 7 7
14 7 24 -1 8 -7 17 -9 20 -5 15 14 5 23 -27 23 -26 0 -35 -5 -39 -21 -3 -12
-10 -18 -16 -14 -7 4 -6 14 4 29 9 13 13 31 9 40 -3 9 -2 16 2 16 5 0 10 19
11 43 1 23 4 89 7 146 5 77 2 114 -9 147 -8 24 -12 57 -9 73 4 18 -2 46 -15
76 -12 27 -19 50 -16 53 3 3 5 -1 5 -8 0 -7 2 -11 5 -8 4 3 3 17 0 31 -5 18
-16 28 -37 32 -29 7 -30 9 -25 45 4 32 2 39 -14 43 -10 3 -19 11 -19 19 0 11
2 11 9 0 7 -11 9 -11 14 2 5 11 1 16 -13 16 -11 0 -20 5 -20 11 0 5 -4 8 -9 5
-11 -7 -63 19 -54 27 3 4 2 7 -3 7 -5 0 -7 28 -6 61 3 41 0 64 -8 69 -9 5 -3
16 19 35 17 16 31 35 31 44 1 16 25 55 32 49 2 -2 15 8 28 21 14 13 18 21 10
17 -8 -4 -3 4 13 18 15 14 27 29 27 33 0 5 9 14 20 21 11 7 20 18 20 25 0 7
14 28 31 45 18 18 29 35 25 39 -9 9 32 35 44 28 6 -3 10 -1 10 4 0 6 -4 11
-10 11 -5 0 -10 5 -10 10 0 6 10 10 23 10 34 0 61 23 55 48 -5 17 0 21 28 26
18 4 44 4 57 1 14 -4 28 -2 31 4 11 17 56 13 56 -4 0 -20 72 -10 115 17 17 10
42 18 56 18 14 0 36 9 49 20 14 12 31 18 42 14 10 -3 18 -1 18 4 0 5 11 7 25
4 14 -2 25 -3 25 -1 0 2 -7 26 -15 53 -8 27 -14 51 -12 53 2 1 14 -19 26 -45
28 -59 55 -79 76 -58 8 8 15 23 15 33 1 14 4 11 16 -9 15 -30 28 -35 39 -17 4
6 13 8 21 5 8 -3 14 -1 14 4 0 16 19 11 40 -10 29 -29 49 -25 57 11 6 31 6 31
18 9 16 -30 29 -10 20 30 -4 17 -2 30 3 30 13 0 26 -30 30 -70 2 -9 5 -11 12
-4 7 7 5 23 -7 50 -18 44 -33 144 -21 144 4 0 8 -7 8 -15 0 -7 5 -36 11 -64 7
-35 16 -50 30 -54 10 -3 19 -13 19 -22 0 -27 29 8 36 45 7 34 24 51 24 23 1
-16 3 -15 20 6 24 28 25 25 5 -22 -19 -45 -20 -110 -2 -105 6 3 15 18 19 34 7
28 7 28 4 -4 -3 -31 -1 -33 22 -27 20 5 23 3 18 -11 -5 -12 -2 -15 10 -10 9 3
27 -3 41 -14 27 -21 89 -28 77 -9 -3 6 4 4 18 -5 23 -15 26 -14 73 19 27 19
53 35 59 35 6 0 0 -7 -12 -16 -12 -8 -22 -19 -22 -25 0 -18 20 -8 52 27 18 20
42 40 53 46 17 8 17 6 -2 -11 -25 -21 -30 -41 -10 -41 23 0 56 30 73 65 9 19
20 35 25 35 6 0 5 -9 -1 -20 -12 -23 -5 -26 16 -6 7 8 19 16 25 18 7 2 14 22
16 45 1 22 7 51 12 64 9 21 10 18 12 -21 2 -46 2 -55 -8 -102 -5 -27 -4 -28
41 -28 25 0 45 3 43 8 -1 4 8 20 20 35 18 24 25 27 40 17 15 -10 15 -11 1 -6
-10 3 -22 -4 -32 -19 l-15 -23 47 2 c28 2 66 14 94 30 26 14 54 26 63 26 9 0
14 4 11 9 -3 4 6 19 19 31 14 13 25 32 25 42 0 9 9 32 20 50 11 18 20 46 20
62 l0 29 -22 -33 c-35 -51 -54 -50 -26 1 32 58 61 161 62 223 1 13 9 20 28 22
19 2 25 -1 22 -11 -3 -8 -12 -11 -20 -8 -12 4 -14 0 -8 -23 4 -16 8 -31 10
-33 2 -2 -4 -21 -13 -43 -10 -26 -14 -54 -9 -84 6 -45 1 -61 -47 -164 -20 -44
-69 -100 -87 -100 -5 0 -12 -5 -15 -10 -4 -7 2 -9 17 -6 12 3 36 8 52 10 16 3
36 12 46 21 9 8 27 15 39 15 12 0 20 4 17 9 -3 5 1 14 9 21 8 7 15 18 15 25 0
7 7 18 15 25 20 16 19 34 -1 26 -15 -6 -15 4 3 52 11 27 -16 10 -36 -23 -11
-19 -26 -35 -32 -35 -8 0 -7 6 3 18 25 29 38 74 48 171 5 51 11 96 14 98 3 3
12 -11 20 -31 20 -48 27 -46 20 7 -3 25 0 54 7 72 l13 30 4 -32 c4 -39 8 -40
39 -11 13 12 24 17 24 12 1 -5 3 -25 5 -44 2 -19 9 -60 15 -90 6 -30 11 -62
11 -70 -1 -51 -9 -118 -15 -127 -4 -6 -5 -17 -2 -25 3 -7 -8 -22 -25 -33 -46
-31 -35 -36 20 -9 31 15 54 34 60 48 8 22 30 45 30 32 0 -17 -36 -76 -46 -76
-7 0 -17 -6 -21 -14 -4 -7 -18 -18 -30 -25 -41 -21 -27 -34 31 -29 42 3 53 2
49 -9 -3 -7 -13 -14 -22 -14 -9 -1 -20 -2 -26 -4 -5 -1 -16 -3 -24 -3 -9 -1
-4 -10 13 -23 14 -11 30 -17 36 -14 5 3 10 2 10 -3 0 -12 67 -24 150 -28 36
-1 64 -7 63 -12 -1 -6 15 -13 37 -17 45 -8 63 -25 28 -26 l-23 0 21 -11 c21
-10 39 -61 28 -79 -3 -5 4 -9 15 -9 12 0 21 -4 21 -9 0 -5 -10 -7 -22 -4 -19
4 -18 0 11 -25 l35 -30 -27 3 c-15 2 -27 -1 -27 -6 0 -5 6 -9 13 -9 8 0 22 -9
32 -20 10 -11 26 -20 37 -20 10 0 18 -5 18 -11 0 -6 -9 -8 -20 -4 -14 4 -22 1
-26 -10 -5 -12 -14 -15 -33 -10 l-26 6 24 -19 c15 -12 22 -25 18 -35 -4 -10 2
-22 16 -32 19 -13 20 -17 7 -25 -12 -9 -9 -15 20 -40 30 -25 32 -29 14 -30
-11 0 -21 -6 -21 -12 0 -7 -3 -33 -6 -57 -5 -35 -3 -47 11 -57 15 -11 15 -16
4 -35 -10 -16 -11 -24 -2 -29 6 -4 13 -21 15 -39 4 -28 2 -31 -10 -21 -12 10
-15 9 -15 -4 0 -9 7 -16 16 -16 14 0 15 -2 3 -17 -17 -20 -22 -158 -7 -187 8
-15 8 -21 -1 -24 -6 -2 -8 -8 -5 -13 3 -6 12 -45 20 -87 15 -77 16 -85 27
-112 3 -8 7 -24 10 -35 6 -24 54 -161 66 -190 13 -30 62 -231 59 -241 -4 -13
22 -154 34 -186 6 -15 11 -42 12 -60 2 -19 7 -32 14 -31 7 2 12 -9 12 -25 1
-15 7 -38 15 -52 8 -14 14 -37 15 -52 0 -15 4 -30 10 -33 5 -3 8 -23 5 -43
l-5 -37 14 30 15 30 -4 -43 c-7 -81 79 -169 138 -140 23 12 22 18 -9 51 -21
23 -25 34 -20 63 5 22 13 34 23 34 15 0 14 2 -2 13 -12 10 -14 16 -7 21 7 4
12 18 12 32 0 19 -8 28 -35 40 -44 18 -49 58 -10 76 14 6 25 15 25 20 0 5 12
25 27 44 21 28 32 34 56 32 26 -3 32 -9 43 -47 7 -24 16 -64 19 -89 3 -25 8
-49 11 -54 8 -12 32 -10 37 5 7 22 37 -13 37 -44 0 -39 13 -36 29 6 7 19 17
35 22 35 5 0 9 19 9 43 0 23 4 48 9 56 6 10 3 19 -10 30 -12 10 -21 34 -25 66
-7 69 -34 166 -52 188 -11 12 -30 17 -72 17 -50 0 -60 3 -74 25 -21 32 -22 52
-1 35 8 -7 15 -8 15 -3 0 5 14 14 30 20 33 12 41 43 11 43 -10 0 -21 9 -24 20
-4 17 -2 20 13 15 17 -5 18 -2 10 27 -5 18 -11 60 -14 93 -2 33 -7 86 -11 118
-9 68 7 78 32 20 20 -47 30 -22 13 34 -43 147 -45 161 -38 278 3 45 5 50 26
48 30 -4 28 14 -8 70 -21 34 -30 60 -30 90 0 71 -18 160 -47 228 -21 50 -28
87 -33 169 -5 83 -12 119 -34 170 -16 38 -36 113 -46 180 -10 63 -19 116 -19
118 -1 1 -6 2 -11 2 -7 0 -7 -7 0 -20 14 -27 -13 -39 -38 -17 -31 27 -99 56
-119 51 -15 -4 -28 3 -47 29 -14 18 -26 41 -26 49 0 10 -24 20 -80 32 -44 9
-80 19 -80 22 0 2 7 21 15 41 8 19 15 45 15 56 0 15 3 18 11 10 8 -8 22 -1 50
27 41 40 49 60 24 60 -8 0 -15 -7 -15 -15 0 -8 -5 -15 -11 -15 -6 0 -9 7 -5
15 3 9 -3 19 -15 26 -15 8 -19 17 -15 34 3 12 2 36 -3 51 -5 16 -14 48 -21 71
-11 36 -19 44 -49 54 -20 6 -43 18 -52 25 -13 11 -24 9 -76 -16 -53 -24 -63
-26 -74 -14 -16 20 -31 17 -25 -4 4 -13 -3 -25 -24 -40 -35 -27 -40 -27 -40
-4 0 10 -5 23 -11 29 -7 7 -3 18 15 38 22 24 25 34 20 69 -4 22 -14 49 -23 60
-17 20 -83 56 -102 56 -6 0 -37 23 -69 50 -32 28 -82 61 -111 75 -30 14 -74
37 -98 50 -25 14 -62 30 -83 36 -22 5 -54 19 -71 30 -19 11 -50 19 -75 19 -23
0 -71 9 -105 21 -46 16 -98 22 -200 26 -76 4 -140 10 -143 14 -7 12 -54 10
-84 -3z m-140 -79 c0 -5 -4 -9 -10 -9 -5 0 -10 7 -10 16 0 8 5 12 10 9 6 -3
10 -10 10 -16z m250 -45 c0 -9 -5 -14 -12 -12 -18 6 -21 28 -4 28 9 0 16 -7
16 -16z m-372 -52 c4 -14 -27 -16 -47 -3 -8 5 -11 16 -7 26 6 15 9 16 28 3 12
-8 24 -20 26 -26z m312 -7 c0 -8 -4 -15 -10 -15 -5 0 -10 7 -10 15 0 8 5 15
10 15 6 0 10 -7 10 -15z m-765 -46 c-3 -4 -12 -6 -20 -3 -8 4 -13 10 -10 15 3
4 12 6 20 3 8 -4 13 -10 10 -15z m492 -155 c-10 -10 -37 16 -37 34 0 13 4 12
22 -5 12 -13 19 -25 15 -29z m273 -10 c0 -8 -4 -12 -10 -9 -5 3 -10 13 -10 21
0 8 5 12 10 9 6 -3 10 -13 10 -21z m1058 8 c18 -14 21 -23 16 -51 -7 -31 -8
-33 -21 -16 -7 11 -13 27 -13 37 0 10 -4 18 -10 18 -5 0 -10 7 -10 15 0 19 10
19 38 -3z m-692 -211 c15 -86 18 -228 4 -176 -15 51 -51 237 -56 285 l-4 45
21 -39 c12 -22 27 -74 35 -115z m34 105 c0 -5 7 -14 17 -21 10 -7 13 -17 8
-25 -6 -10 -10 -9 -17 4 -5 9 -13 14 -19 11 -5 -4 -9 -3 -10 2 0 4 -2 23 -4
41 -2 29 -1 31 11 15 7 -10 14 -22 14 -27z m86 30 c18 -19 18 -27 -1 -20 -23
9 -30 -23 -16 -75 18 -70 22 -246 7 -321 l-13 -65 1 100 c1 55 -5 154 -12 220
-10 86 -10 128 -3 148 12 31 17 33 37 13z m-456 -17 c0 -5 -4 -9 -10 -9 -5 0
-10 7 -10 16 0 8 5 12 10 9 6 -3 10 -10 10 -16z m180 -41 c0 -38 -3 -49 -10
-38 -16 25 -11 90 7 90 2 0 3 -24 3 -52z m90 -25 c0 -37 -14 -43 -30 -14 -11
22 -13 74 -3 85 11 11 32 -36 33 -71z m527 55 c-3 -8 -6 -5 -6 6 -1 11 2 17 5
13 3 -3 4 -12 1 -19z m-227 -8 c0 -5 -5 -10 -11 -10 -5 0 -7 5 -4 10 3 6 8 10
11 10 2 0 4 -4 4 -10z m61 -23 c-8 -8 -11 -7 -11 4 0 9 3 19 7 23 4 4 9 2 11
-4 3 -7 -1 -17 -7 -23z m-141 -6 c0 -26 -10 -51 -21 -51 -5 0 -9 16 -9 35 0
24 5 35 15 35 8 0 15 -9 15 -19z m820 0 c0 -20 -36 -36 -46 -20 -10 17 5 39
26 39 13 0 20 -7 20 -19z m-747 -29 c3 -4 8 -70 12 -147 6 -131 6 -139 -9
-118 -11 14 -14 31 -10 48 3 14 3 42 -2 63 -6 31 -9 15 -20 -91 -9 -84 -18
-132 -28 -142 -8 -8 -16 -20 -19 -27 -2 -7 -8 -10 -12 -6 -4 4 -3 13 2 20 17
22 31 99 39 218 4 63 10 107 12 98 2 -10 8 -18 12 -18 10 0 2 55 -11 81 -5 9
-5 19 -2 23 9 8 31 8 36 -2z m-2093 -18 c0 -9 -7 -14 -17 -12 -25 5 -28 28 -4
28 12 0 21 -6 21 -16z m2422 -16 c-6 -6 -15 -9 -18 -5 -4 3 -4 14 0 23 5 13 9
15 18 6 9 -9 9 -15 0 -24z m86 -9 c2 -32 1 -33 -13 -15 -18 24 -20 59 -2 54 6
-3 13 -20 15 -39z m-1299 -63 c1 -15 -2 -16 -14 -6 -10 8 -15 29 -14 59 l1 46
13 -40 c8 -22 14 -48 14 -59z m817 38 l-15 -39 0 41 c-1 43 7 60 21 46 5 -5 2
-26 -6 -48z m271 9 c-3 -10 -5 -2 -5 17 0 19 2 27 5 18 2 -10 2 -26 0 -35z
m-1397 -12 c0 -9 -7 -3 -15 13 -19 36 -19 47 0 22 8 -11 15 -27 15 -35z m1244
17 c3 -14 -1 -29 -9 -38 -13 -13 -15 -10 -15 23 0 41 14 50 24 15z m68 -26
c-6 -15 -10 -42 -11 -60 0 -20 -9 -44 -25 -63 -31 -37 -33 -27 -6 42 12 29 18
59 15 67 -3 8 2 26 12 41 20 31 30 13 15 -27z m-1165 -9 c-3 -10 -5 -4 -5 12
0 17 2 24 5 18 2 -7 2 -21 0 -30z m750 5 c-3 -7 -5 -2 -5 12 0 14 2 19 5 13 2
-7 2 -19 0 -25z m-508 -46 c1 -7 -3 -10 -9 -7 -5 3 -10 18 -9 33 0 24 1 25 9
7 5 -11 9 -26 9 -33z m-592 -66 c37 -73 55 -126 40 -120 -12 5 -108 191 -107
209 1 16 40 -36 67 -89z m1112 42 l-1 -43 -8 35 c-8 32 -6 50 6 50 2 0 4 -19
3 -42z m449 8 c-2 -19 0 -32 4 -30 12 8 9 -18 -6 -47 -7 -14 -16 -36 -19 -50
-8 -27 -76 -110 -77 -93 0 7 11 22 25 35 13 13 25 30 25 37 0 7 10 32 21 54
14 28 18 43 10 46 -20 7 -10 82 11 82 6 0 8 -15 6 -34z m-2414 -1 c39 -16 58
-57 37 -78 -9 -9 -20 -7 -48 8 -47 26 -61 48 -44 69 16 19 11 19 55 1z m1366
3 c0 -4 -4 -8 -10 -8 -5 0 -11 -35 -13 -77 l-3 -78 -2 86 c-2 70 1 86 13 86 8
0 15 -4 15 -9z m940 -15 c0 -19 -3 -24 -10 -17 -6 6 -8 18 -4 27 9 24 14 21
14 -10z m600 -2 c0 -12 -20 -25 -27 -18 -7 7 6 27 18 27 5 0 9 -4 9 -9z
m-1412 -72 c-3 -20 -5 -19 -9 9 -3 20 -2 29 4 23 5 -5 7 -19 5 -32z m229 -11
c-3 -7 -5 -2 -5 12 0 14 2 19 5 13 2 -7 2 -19 0 -25z m-922 0 c8 -27 17 -113
10 -106 -11 11 -33 118 -23 118 5 0 10 -6 13 -12z m2130 2 c3 -5 1 -10 -4 -10
-6 0 -11 5 -11 10 0 6 2 10 4 10 3 0 8 -4 11 -10z m-3019 -63 c6 -25 4 -28
-12 -25 -20 4 -29 30 -20 55 8 21 22 7 32 -30z m1805 6 c-12 -20 -14 -14 -5
12 4 9 9 14 11 11 3 -2 0 -13 -6 -23z m258 -76 c0 -61 -5 -100 -15 -117 -13
-21 -14 -22 -9 -3 10 39 12 163 3 156 -6 -3 -5 4 1 15 6 11 8 28 4 38 -4 12
-3 15 5 10 8 -5 12 -39 11 -99z m371 84 c-16 -31 -32 -36 -18 -7 6 14 15 26
20 26 5 0 4 -9 -2 -19z m-61 -37 c-10 -12 -10 -15 1 -12 7 2 15 -3 18 -11 3
-10 0 -12 -12 -8 -13 5 -18 -1 -23 -23 -6 -30 -23 -42 -23 -16 0 8 -6 16 -12
19 -10 3 -8 9 5 24 9 11 17 23 17 28 0 5 8 17 18 28 15 17 17 17 20 3 2 -9 -2
-24 -9 -32z m671 37 c0 -5 -13 -19 -30 -31 -19 -13 -30 -30 -30 -45 0 -13 -8
-30 -18 -37 -10 -7 -29 -33 -43 -58 -28 -51 -69 -78 -82 -55 -10 19 12 63 23
45 9 -15 30 -5 30 14 0 7 14 25 30 39 18 16 30 37 30 51 0 31 46 86 71 86 10
0 19 -4 19 -9z m-2397 -46 c10 -14 14 -25 10 -25 -16 0 -53 31 -53 45 0 20 21
9 43 -20z m774 -32 c-3 -10 -5 -2 -5 17 0 19 2 27 5 18 2 -10 2 -26 0 -35z
m1627 1 c-30 -38 -51 -46 -33 -11 18 34 41 57 50 51 5 -3 -3 -21 -17 -40z
m-2040 20 c3 -8 2 -12 -4 -9 -6 3 -10 10 -10 16 0 14 7 11 14 -7z m1896 -23
c-13 -25 -27 -34 -34 -22 -7 10 20 41 35 41 6 0 6 -7 -1 -19z m219 -7 c-14
-18 -24 -11 -15 11 3 9 11 13 16 10 8 -5 7 -11 -1 -21z m-1594 -31 c-4 -27
-14 -64 -22 -83 -9 -19 -15 -43 -14 -52 1 -10 -3 -18 -8 -18 -15 0 -14 18 3
71 7 24 19 63 25 87 16 56 25 53 16 -5z m-1567 26 c-2 -6 -8 -10 -13 -10 -5 0
-11 4 -13 10 -2 6 4 11 13 11 9 0 15 -5 13 -11z m653 -15 c7 -9 15 -28 16 -43
3 -25 3 -25 -12 -6 -8 11 -19 25 -25 32 -12 15 -13 33 -1 33 5 0 15 -7 22 -16z
m176 -21 c-3 -10 -5 -4 -5 12 0 17 2 24 5 18 2 -7 2 -21 0 -30z m874 10 c-8
-15 -10 -15 -11 -2 0 17 10 32 18 25 2 -3 -1 -13 -7 -23z m-732 -30 c1 -7 -3
-13 -9 -13 -5 0 -10 15 -9 33 0 27 2 29 9 12 5 -11 9 -26 9 -32z m368 0 c-3
-10 -5 -2 -5 17 0 19 2 27 5 18 2 -10 2 -26 0 -35z m1151 4 c-13 -20 -29 -36
-37 -37 -8 0 -12 2 -10 4 2 3 18 20 34 39 38 43 43 40 13 -6z m-371 1 c-3 -7
-5 -2 -5 12 0 14 2 19 5 13 2 -7 2 -19 0 -25z m-173 -22 c-3 -21 -9 -35 -11
-32 -3 3 -2 21 1 42 4 20 10 34 12 31 3 -3 2 -21 -2 -41z m276 -21 c-6 -19
-15 -35 -19 -35 -5 0 -1 21 7 47 9 26 17 42 20 35 2 -6 -2 -28 -8 -47z m149
10 c-12 -19 -25 -35 -31 -35 -11 0 -10 3 17 47 26 43 39 31 14 -12z m-113 -11
c-4 -9 -9 -15 -11 -12 -3 3 -3 13 1 22 4 9 9 15 11 12 3 -3 3 -13 -1 -22z
m889 16 c-3 -5 -11 -10 -16 -10 -6 0 -7 5 -4 10 3 6 11 10 16 10 6 0 7 -4 4
-10z m81 -3 c9 3 14 -1 14 -11 0 -19 -46 -40 -63 -29 -7 3 -9 3 -5 -2 4 -4 -3
-16 -16 -26 -24 -19 -51 -26 -44 -11 25 51 34 62 49 62 10 0 24 6 31 14 7 8
14 10 16 6 2 -5 10 -6 18 -3z m-2137 -42 c0 -5 -4 -3 -9 5 -5 8 -9 22 -9 30 0
16 17 -16 18 -35z m333 13 c-9 -9 -12 -7 -12 12 0 19 3 21 12 12 9 -9 9 -15 0
-24z m-1515 9 c-3 -7 -10 -11 -17 -9 -7 1 -18 -2 -26 -9 -16 -13 -35 -4 -28
14 2 7 20 14 40 14 23 1 34 -3 31 -10z m1319 -55 c-13 -12 -17 8 -10 40 l9 33
3 -33 c2 -19 1 -36 -2 -40z m1854 23 c-7 -8 -17 -15 -22 -15 -6 0 -5 7 2 15 7
8 17 15 22 15 6 0 5 -7 -2 -15z m-1800 -27 c0 -23 -3 -29 -11 -21 -6 6 -8 20
-4 32 9 30 15 26 15 -11z m990 28 c0 -2 -8 -10 -17 -17 -16 -13 -17 -12 -4 4
13 16 21 21 21 13z m-1579 -19 c-1 -12 -15 -9 -19 4 -3 6 1 10 8 8 6 -3 11 -8
11 -12z m656 -22 c-4 -8 -13 -15 -22 -15 -13 0 -12 3 3 18 19 21 27 20 19 -3z
m1683 6 c-10 -20 -47 -37 -57 -28 -8 9 7 28 31 37 33 13 38 12 26 -9z m465
-21 c24 -16 48 -30 53 -30 13 0 42 -45 42 -65 0 -27 -26 -16 -43 20 -11 23
-21 33 -32 29 -15 -6 -95 50 -95 67 0 18 32 9 75 -21z m-537 -7 c-2 -10 -11
-19 -21 -21 -16 -3 -17 -1 -7 17 13 25 33 28 28 4z m123 -26 c-10 -9 -11 -8
-5 6 3 10 9 15 12 12 3 -3 0 -11 -7 -18z m-1192 10 c-2 -1 -14 -11 -26 -21
-13 -11 -23 -16 -23 -13 0 10 31 37 42 37 6 0 9 -1 7 -3z m1331 -89 c0 -6 -6
-5 -15 2 -8 7 -15 14 -15 16 0 2 7 1 15 -2 8 -4 15 -11 15 -16z m308 -2 c3
-12 -1 -17 -10 -14 -7 3 -15 13 -16 22 -3 12 1 17 10 14 7 -3 15 -13 16 -22z
m-313 -67 c12 -19 -5 -23 -22 -6 -16 16 -16 17 -1 17 9 0 20 -5 23 -11z
m-3497 -271 c-6 -18 -28 -21 -28 -4 0 9 7 16 16 16 9 0 14 -5 12 -12z m3557
-188 c3 -5 -1 -10 -10 -10 -9 0 -13 5 -10 10 3 6 8 10 10 10 2 0 7 -4 10 -10z
m-3655 -142 c0 -22 -17 -41 -29 -34 -8 5 -8 13 -1 27 12 21 30 26 30 7z m694
-54 c3 -8 2 -12 -4 -9 -6 3 -10 10 -10 16 0 14 7 11 14 -7z m3460 -410 c9 -24
7 -28 -9 -14 -17 14 -20 30 -6 30 5 0 12 -7 15 -16z m-4 -305 c0 -6 -4 -7 -10
-4 -5 3 -10 11 -10 16 0 6 5 7 10 4 6 -3 10 -11 10 -16z m-2482 -3 c10 -11 -2
-13 -40 -8 -21 2 -38 8 -38 12 0 8 69 5 78 -4z m47 -6 c-3 -5 -10 -10 -16 -10
-5 0 -9 5 -9 10 0 6 7 10 16 10 8 0 12 -4 9 -10z m90 -10 c3 -5 1 -10 -4 -10
-6 0 -11 5 -11 10 0 6 2 10 4 10 3 0 8 -4 11 -10z m-778 -26 c-3 -3 -12 -4
-19 -1 -8 3 -5 6 6 6 11 1 17 -2 13 -5z m561 -316 c11 -14 10 -16 -7 -11 -12
3 -17 11 -14 19 3 8 6 14 7 12 1 -2 7 -11 14 -20z m-18 -68 c0 -5 -7 -10 -16
-10 -8 0 -12 5 -9 10 3 6 10 10 16 10 5 0 9 -4 9 -10z m2410 -40 c0 -5 -4 -10
-10 -10 -5 0 -10 5 -10 10 0 6 5 10 10 10 6 0 10 -4 10 -10z m-2375 -19 c3 -6
-4 -8 -16 -6 -30 6 -37 15 -11 15 11 0 23 -4 27 -9z m2368 -22 c4 -16 3 -18
-9 -8 -16 13 -19 29 -5 29 5 0 11 -9 14 -21z m-2893 -89 c0 -5 -4 -10 -10 -10
-5 0 -10 5 -10 10 0 6 5 10 10 10 6 0 10 -4 10 -10z m39 -11 c-14 -8 -29 -3
-29 11 0 4 9 6 21 3 15 -4 17 -8 8 -14z m231 -38 c0 -5 -9 -11 -20 -14 -22 -6
-28 8 -7 16 19 8 27 8 27 -2z m40 3 c0 -8 -19 -13 -24 -6 -3 5 1 9 9 9 8 0 15
-2 15 -3z m-903 -160 c-3 -3 -12 -4 -19 -1 -8 3 -5 6 6 6 11 1 17 -2 13 -5z
m5 -202 c3 -11 0 -19 -7 -19 -7 0 -10 8 -7 19 2 10 6 18 7 18 1 0 5 -8 7 -18z
m28 -52 c0 -5 -2 -10 -4 -10 -3 0 -8 5 -11 10 -3 6 -1 10 4 10 6 0 11 -4 11
-10z m-15 -39 c3 -5 1 -12 -5 -16 -5 -3 -10 1 -10 9 0 18 6 21 15 7z m30 -21
c0 -16 -4 -30 -10 -30 -5 0 -10 5 -9 10 1 6 2 19 3 30 2 32 17 23 16 -10z
m1360 20 c4 -6 11 -8 16 -5 5 4 9 2 9 -3 0 -15 -30 -71 -42 -78 -7 -5 -8 -2
-4 7 4 8 -1 3 -12 -11 -12 -14 -24 -21 -28 -17 -4 4 -13 2 -20 -4 -16 -13 -44
-5 -44 11 0 6 4 9 9 6 5 -4 7 2 4 12 -3 13 9 30 38 55 42 38 63 45 74 27z
m-1332 -85 c-3 -9 -8 -14 -10 -11 -3 3 -2 9 2 15 9 16 15 13 8 -4z m7 -31 c0
-8 -19 -13 -24 -6 -3 5 1 9 9 9 8 0 15 -2 15 -3z m-10 -49 c7 -9 8 -15 2 -15
-5 0 -12 7 -16 15 -3 8 -4 15 -2 15 2 0 9 -7 16 -15z m10 -52 c0 -21 -3 -24
-9 -14 -5 8 -7 20 -4 28 8 21 13 15 13 -14z m12 -45 c-9 -9 -15 -9 -24 0 -9 9
-7 12 12 12 19 0 21 -3 12 -12z m1061 -44 c9 -3 13 -13 10 -25 -3 -11 0 -19 6
-19 7 0 9 5 5 12 -5 7 -3 8 5 4 9 -6 11 -35 7 -107 -5 -100 -9 -110 -51 -136
-11 -6 -19 -16 -17 -22 1 -7 -9 -4 -23 5 -19 12 -28 14 -38 5 -8 -6 -16 -8
-20 -5 -12 12 -47 -8 -47 -27 0 -11 5 -17 10 -14 6 3 10 -1 10 -9 0 -8 -4 -18
-10 -21 -5 -3 -10 1 -10 9 0 20 -19 31 -33 17 -15 -15 -32 -14 -20 2 15 18 12
46 -3 40 -8 -3 -12 -10 -11 -16 1 -7 -10 -11 -28 -10 -27 2 -28 1 -13 -11 10
-7 15 -16 12 -19 -3 -3 -15 4 -26 15 l-20 20 36 51 c47 69 231 267 247 267 4
0 14 -3 22 -6z m850 -206 c4 -12 4 -24 1 -27 -6 -7 -24 20 -24 37 0 21 17 13
23 -10z m-23 -90 c0 -16 -3 -19 -11 -11 -6 6 -8 16 -5 22 11 17 16 13 16 -11z
m-916 -13 c-7 -16 -24 -21 -24 -6 0 8 7 13 27 20 1 1 0 -6 -3 -14z m36 -10 c0
-8 -7 -15 -16 -15 -14 0 -14 3 -4 15 7 8 14 15 16 15 2 0 4 -7 4 -15z m89 -34
c9 -6 6 -8 -13 -8 -14 0 -23 3 -20 8 7 11 15 11 33 0z m-1012 -53 c-3 -8 -6
-5 -6 6 -1 11 2 17 5 13 3 -3 4 -12 1 -19z m2310 -24 c-3 -3 -12 -4 -19 -1 -8
3 -5 6 6 6 11 1 17 -2 13 -5z m173 -40 c0 -2 -9 0 -20 6 -11 6 -20 13 -20 16
0 2 9 0 20 -6 11 -6 20 -13 20 -16z m-1979 -137 c-15 -15 -14 -27 3 -27 8 0
14 -11 15 -27 1 -52 13 -103 22 -97 8 5 13 -16 10 -43 -1 -7 10 -20 24 -29 18
-11 25 -24 22 -36 -3 -10 0 -18 8 -18 7 0 14 -8 17 -17 5 -24 -27 -120 -35
-106 -4 7 -2 15 4 18 5 4 8 13 5 21 -3 7 -1 16 5 19 13 8 2 25 -17 25 -8 0
-14 -7 -14 -16 0 -8 -5 -12 -10 -9 -6 4 -7 12 -3 18 10 16 11 47 2 47 -4 0 -9
-5 -11 -11 -2 -7 -11 -5 -23 7 -17 17 -17 19 -2 22 9 2 17 7 17 12 0 4 -8 6
-18 3 -24 -6 -48 22 -34 40 11 14 1 50 -13 45 -6 -2 -14 7 -20 20 -6 13 -16
20 -24 17 -11 -4 -11 -3 -2 9 7 8 10 20 6 26 -3 5 2 10 12 10 16 1 16 2 3 13
-8 7 -16 23 -17 37 -1 21 4 26 25 28 15 1 29 7 30 12 2 6 8 7 14 4 6 -4 6 -10
-1 -17z m2304 -177 c3 -5 1 -10 -4 -10 -6 0 -11 5 -11 10 0 6 2 10 4 10 3 0 8
-4 11 -10z m115 -16 c0 -8 -4 -12 -10 -9 -5 3 -10 13 -10 21 0 8 5 12 10 9 6
-3 10 -13 10 -21z m-174 -69 c1 -8 -4 -11 -11 -8 -8 2 -11 11 -8 19 6 16 16
11 19 -11z m70 -122 c-4 -9 0 -13 11 -11 12 2 18 -4 19 -19 1 -24 -10 -30 -21
-12 -4 6 -13 8 -21 5 -16 -6 -19 20 -4 29 8 5 7 11 -1 21 -10 12 -9 13 5 8 10
-4 15 -13 12 -21z m-1769 11 c-3 -3 -12 -4 -19 -1 -8 3 -5 6 6 6 11 1 17 -2
13 -5z m-393 -29 c-6 -16 -24 -21 -24 -7 0 11 11 22 21 22 5 0 6 -7 3 -15z
m-544 -15 c0 -5 -5 -10 -11 -10 -5 0 -7 5 -4 10 3 6 8 10 11 10 2 0 4 -4 4
-10z m1085 0 c3 -5 -1 -10 -10 -10 -9 0 -13 5 -10 10 3 6 8 10 10 10 2 0 7 -4
10 -10z m536 -26 c-5 -16 -10 -21 -10 -12 -1 18 10 51 15 45 2 -1 -1 -16 -5
-33z m-477 12 c-11 -8 -34 -18 -50 -21 l-29 -7 30 21 c17 11 39 21 50 21 19 0
19 0 -1 -14z m1604 -43 c-14 -13 -16 -13 -21 1 -4 10 -1 16 8 16 8 0 15 6 16
13 0 9 2 8 6 -1 3 -8 -1 -21 -9 -29z m-2138 -49 c0 -4 -9 1 -20 11 -11 10 -20
23 -20 28 0 6 9 1 20 -11 11 -12 20 -24 20 -28z m1190 5 c0 -6 -4 -7 -10 -4
-5 3 -10 11 -10 16 0 6 5 7 10 4 6 -3 10 -11 10 -16z m-303 -11 c-3 -8 -6 -5
-6 6 -1 11 2 17 5 13 3 -3 4 -12 1 -19z m33 -97 c0 -6 -4 -13 -10 -16 -5 -3
-10 1 -10 9 0 9 5 16 10 16 6 0 10 -4 10 -9z m-815 -121 c3 -5 1 -10 -4 -10
-6 0 -11 5 -11 10 0 6 2 10 4 10 3 0 8 -4 11 -10z m185 -100 c0 -5 -5 -10 -11
-10 -5 0 -7 5 -4 10 3 6 8 10 11 10 2 0 4 -4 4 -10z m40 -64 c-6 -6 -15 -4
-25 4 -23 19 -18 29 9 17 15 -7 21 -16 16 -21z m1477 0 c-4 -9 1 -17 11 -19
12 -3 11 -5 -5 -6 -17 -1 -23 5 -23 19 0 11 5 20 11 20 6 0 9 -6 6 -14z
m-1525 -18 c-7 -7 -12 -8 -12 -2 0 6 3 14 7 17 3 4 9 5 12 2 2 -3 -1 -11 -7
-17z m1588 -18 c0 -5 -2 -10 -4 -10 -3 0 -8 5 -11 10 -3 6 -1 10 4 10 6 0 11
-4 11 -10z m-1365 -21 c12 -19 -3 -22 -27 -5 l-22 16 21 0 c12 0 25 -5 28 -11z
m1179 -144 c3 -8 1 -15 -4 -15 -6 0 -10 7 -10 15 0 8 2 15 4 15 2 0 6 -7 10
-15z m-274 -30 c0 -2 -7 -5 -15 -9 -9 -3 -15 0 -15 9 0 9 6 12 15 9 8 -4 15
-7 15 -9z m-477 -15 c-6 -21 -21 -35 -29 -27 -4 4 25 47 32 47 1 0 0 -9 -3
-20z m603 -28 c-9 -8 -26 10 -26 26 1 15 2 15 15 -2 8 -11 13 -21 11 -24z
m-96 13 c10 -12 10 -15 -3 -15 -8 0 -17 7 -21 15 -3 8 -2 15 3 15 5 0 14 -7
21 -15z m-555 -5 c-3 -5 -10 -10 -16 -10 -5 0 -9 5 -9 10 0 6 7 10 16 10 8 0
12 -4 9 -10z m420 0 c3 -5 1 -10 -4 -10 -6 0 -11 5 -11 10 0 6 2 10 4 10 3 0
8 -4 11 -10z m-309 -28 c-17 -16 -18 -16 -5 5 7 12 15 20 18 17 3 -2 -3 -12
-13 -22z m-1787 -789 c8 -30 6 -50 -11 -106 -19 -65 -22 -69 -35 -51 -27 35
-4 194 27 194 5 0 14 -17 19 -37z m-62 -365 c3 -28 1 -48 -5 -48 -5 0 -13 29
-17 64 -3 35 -13 86 -21 112 -9 30 -12 61 -7 83 6 32 9 25 26 -64 10 -55 21
-121 24 -147z m140 149 c27 -62 42 -167 24 -167 -6 0 -25 21 -41 47 -25 39
-30 57 -30 110 0 79 16 83 47 10z m253 -122 c38 -47 75 -81 98 -90 35 -15 53
-34 82 -88 16 -29 35 -43 104 -73 30 -14 50 -35 88 -96 32 -50 56 -78 68 -78
20 0 140 -96 140 -111 0 -11 -41 -72 -52 -77 -4 -2 -14 -24 -22 -50 -29 -87
-82 -90 -146 -10 -23 29 -40 62 -40 77 -1 41 -43 105 -73 111 -28 5 -117 112
-117 140 0 8 -8 23 -17 32 -55 50 -123 154 -123 186 0 9 -11 35 -25 57 -14 22
-31 55 -40 73 -8 17 -22 32 -30 32 -25 0 -27 20 -3 29 39 16 43 13 108 -64z
m-522 -18 c7 -18 12 -44 12 -56 0 -32 -58 -131 -76 -131 -12 0 -13 -8 -8 -35
6 -35 6 -35 -30 -35 -30 0 -36 4 -36 21 0 35 19 60 43 57 20 -3 22 2 23 42 0
44 40 170 53 170 4 0 12 -15 19 -33z m404 -108 c20 -41 40 -92 44 -114 7 -37
6 -39 -10 -26 -47 39 -96 147 -96 212 0 28 29 -5 62 -72z m-184 -11 c58 -68
57 -65 29 -127 -14 -31 -28 -65 -32 -76 -6 -19 -7 -19 -20 -2 -7 10 -21 49
-30 86 -14 57 -15 75 -4 110 7 22 16 41 21 41 5 0 21 -14 36 -32z m-152 -83
c7 -19 14 -45 14 -57 0 -26 -42 -112 -70 -143 -12 -13 -16 -30 -13 -51 5 -30
3 -31 -59 -52 -69 -23 -94 -27 -102 -14 -2 4 1 32 7 62 15 65 40 83 105 77
l44 -5 -7 48 c-6 41 -2 55 26 108 18 34 34 62 36 62 2 0 11 -16 19 -35z m-406
-45 c-4 -8 -6 -23 -5 -32 2 -12 -14 -22 -66 -39 -38 -12 -71 -20 -75 -17 -12
13 8 48 27 48 19 0 60 30 42 30 -4 0 0 7 9 14 10 7 31 13 47 12 22 -1 27 -4
21 -16z m868 -68 c29 -48 34 -60 47 -116 6 -27 5 -28 -11 -15 -18 15 -84 145
-84 166 0 26 19 12 48 -35z m-120 -31 c23 -27 42 -57 42 -65 0 -15 -45 -125
-56 -135 -2 -3 -27 19 -54 48 -49 52 -49 53 -36 84 26 61 34 82 40 100 8 26
19 21 64 -32z m-253 -92 l38 -61 -31 -57 c-16 -31 -36 -57 -44 -59 -9 -2 -23
17 -38 47 -19 42 -21 55 -12 78 6 15 16 47 22 71 6 23 14 42 19 42 4 0 25 -28
46 -61z m523 -114 c34 -47 71 -160 57 -173 -9 -9 -61 53 -85 103 -10 22 -22
60 -26 84 -9 57 8 53 54 -14z m-100 -2 c48 -63 55 -81 47 -139 -3 -30 -10 -56
-15 -59 -12 -7 -100 85 -100 104 0 29 24 131 31 131 4 0 21 -17 37 -37z m637
4 c94 -38 177 -86 223 -130 80 -76 92 -91 122 -152 17 -36 35 -65 39 -65 4 0
17 -21 29 -47 46 -104 54 -175 19 -181 -16 -3 -17 -1 -7 17 8 17 8 28 -3 49
-8 15 -24 47 -36 72 -54 113 -110 206 -132 217 -31 16 -35 9 -15 -22 10 -15
15 -34 12 -42 -6 -14 -8 -14 -24 1 -10 9 -28 16 -39 16 -24 0 -34 12 -53 59
-12 30 -12 35 4 46 15 12 13 16 -27 49 -48 39 -104 66 -139 66 -17 0 -19 -3
-10 -12 13 -13 16 -54 4 -62 -10 -6 -37 15 -44 34 -3 8 1 23 10 32 13 16 12
18 -12 29 -17 8 -26 20 -26 36 0 30 9 29 105 -10z m-1775 -17 c0 -5 -5 -10
-11 -10 -5 0 -7 5 -4 10 3 6 8 10 11 10 2 0 4 -4 4 -10z m895 -77 c25 -27 44
-51 45 -55 0 -12 -103 -128 -115 -128 -11 0 -75 81 -75 95 0 17 77 135 88 135
8 0 33 -21 57 -47z m-582 -38 c-4 -15 -36 -12 -41 3 -3 9 3 13 19 10 13 -1 23
-7 22 -13z m-351 -37 c-12 -15 -4 -68 9 -68 5 0 9 -7 9 -15 0 -10 -10 -15 -34
-15 -30 0 -35 4 -41 28 -9 44 9 82 41 82 20 0 24 -3 16 -12z m1457 -83 c23
-30 44 -69 48 -87 3 -18 10 -41 14 -50 12 -23 -6 -32 -25 -12 -44 44 -106 158
-106 195 0 25 32 3 69 -46z m450 16 c46 -32 64 -68 69 -131 4 -60 4 -60 -40
-105 -52 -51 -83 -57 -135 -25 -43 26 -61 55 -74 122 -10 49 -9 61 7 95 34 68
111 88 173 44z m-2269 10 c0 -15 -16 -22 -35 -15 -13 5 -14 8 -3 15 18 12 38
11 38 0z m1704 -64 c24 -35 52 -115 43 -123 -2 -3 -20 15 -40 39 -23 28 -36
55 -37 78 -4 62 -4 62 34 6z m-184 -77 c0 -16 -116 -110 -135 -110 -6 0 -25
19 -42 41 l-32 42 62 68 62 69 43 -47 c23 -26 42 -54 42 -63z m-1545 70 c4 -6
-6 -10 -22 -9 -25 0 -26 1 -8 9 11 5 21 9 22 9 1 1 5 -3 8 -9z m1970 -67 c4
-16 15 -56 26 -91 24 -79 24 -90 -1 -67 -11 10 -20 26 -20 35 0 9 -4 20 -10
26 -15 15 -25 124 -12 124 7 0 14 -12 17 -27z m-1220 -5 c-10 -32 -15 -35 -59
-44 -35 -6 -38 -5 -33 10 4 10 7 26 7 37 0 16 7 19 46 19 42 0 45 -1 39 -22z
m-737 -40 c-6 -18 -28 -21 -28 -4 0 9 7 16 16 16 9 0 14 -5 12 -12z m-44 -7
c3 -5 -1 -12 -10 -15 -22 -9 -24 -8 -24 9 0 16 25 21 34 6z m1946 -78 c54 -78
60 -89 60 -115 0 -39 -13 -35 -53 15 -49 60 -65 98 -58 139 2 15 27 -4 51 -39z
m-1970 7 c0 -5 -7 -10 -15 -10 -8 0 -15 5 -15 10 0 6 7 10 15 10 8 0 15 -4 15
-10z m2445 0 c3 -5 0 -20 -7 -32 -7 -13 -11 -27 -10 -31 1 -5 -2 -6 -8 -2 -11
7 -14 58 -3 68 9 10 21 9 28 -3z m-703 -40 c21 -23 38 -49 38 -58 0 -23 -19
-42 -42 -42 -10 0 -18 -5 -18 -10 0 -6 -8 -14 -17 -17 -10 -4 -24 -13 -31 -20
-16 -15 -32 -8 -32 13 0 11 6 13 20 9 25 -8 25 5 1 55 -11 22 -15 42 -10 46 5
3 9 0 9 -7 0 -12 49 -59 63 -59 17 0 5 31 -23 60 -25 25 -28 34 -20 50 6 11
13 20 17 20 3 0 23 -18 45 -40z m-136 -77 c-10 -10 -19 5 -10 18 6 11 8 11 12
0 2 -7 1 -15 -2 -18z m1044 23 c0 -3 -4 -8 -10 -11 -5 -3 -10 -1 -10 4 0 6 5
11 10 11 6 0 10 -2 10 -4z m-335 -56 c6 -20 7 -20 24 1 20 24 36 20 44 -11 4
-17 0 -20 -25 -20 -37 0 -68 16 -68 35 0 22 18 18 25 -5z m313 -8 c5 -31 -22
-38 -64 -19 -54 26 -45 46 19 44 35 -2 43 -6 45 -25z m82 18 c0 -5 -7 -10 -15
-10 -8 0 -15 5 -15 10 0 6 7 10 15 10 8 0 15 -4 15 -10z m-2700 -10 c0 -5 -7
-10 -15 -10 -8 0 -18 0 -22 -1 -4 0 -9 4 -11 10 -2 6 8 11 22 11 14 0 26 -4
26 -10z m1973 -22 c7 -25 3 -33 -12 -23 -13 8 -15 45 -2 45 5 0 11 -10 14 -22z
m169 -5 c9 -10 18 -29 21 -43 3 -14 11 -40 18 -57 10 -26 11 -35 1 -45 -22
-22 -54 39 -69 130 -6 35 6 41 29 15z m-230 -69 c11 -23 17 -25 50 -21 70 9
105 -51 69 -122 -35 -69 -82 -92 -133 -67 -17 9 -39 16 -50 16 -11 0 -30 18
-48 47 -37 59 -39 83 -5 83 16 0 25 -6 25 -15 0 -8 4 -15 10 -15 10 0 3 27
-11 46 -5 6 -6 14 -2 17 11 12 23 8 23 -7 0 -23 29 -41 43 -27 9 9 7 16 -13
31 -24 18 -24 19 -6 39 25 27 34 26 48 -5z m-1192 -68 c0 -10 -10 -14 -30 -14
-33 1 -40 14 -12 21 32 9 42 7 42 -7z m2021 -43 c6 -16 22 -52 37 -81 33 -65
25 -73 -63 -70 l-60 3 -27 55 c-15 30 -28 67 -28 82 0 23 5 27 33 31 86 10 97
8 108 -20z m-2078 -8 c-3 -8 -9 -15 -14 -15 -10 0 -12 24 -3 33 11 11 24 -3
17 -18z m1799 -44 c10 -29 23 -60 29 -67 7 -8 9 -18 5 -21 -11 -11 -41 12 -44
35 -2 11 -11 23 -20 26 -9 3 -23 9 -29 12 -18 8 -16 -31 2 -46 18 -15 20 -30
4 -30 -33 0 -102 112 -85 139 2 3 30 6 63 6 l58 0 17 -54z m1475 15 c-5 -16
-57 -20 -57 -4 0 8 13 13 30 14 18 1 29 -3 27 -10z m-1838 -90 c17 -18 21 -30
16 -48 -12 -36 -52 -102 -77 -125 -31 -27 -85 -37 -104 -19 -17 18 -18 33 -1
39 9 3 7 9 -5 24 -33 37 -20 60 72 122 55 37 70 38 99 7z m1732 -49 c-13 -13
-26 -3 -16 12 3 6 11 8 17 5 6 -4 6 -10 -1 -17z m-61 -57 c-8 -5 -17 -7 -19
-4 -3 3 1 9 9 14 8 5 17 7 19 4 3 -3 -1 -9 -9 -14z m-40 -25 c0 -2 -10 -9 -22
-15 -22 -11 -22 -10 -4 4 21 17 26 19 26 11z m-773 -57 c29 -29 53 -57 53 -63
0 -11 -83 -45 -111 -45 -29 0 -129 124 -113 140 9 8 45 16 94 19 17 1 40 -14
77 -51z m-414 -3 c15 -51 24 -115 17 -120 -19 -12 -60 90 -60 146 0 23 34 2
43 -26z m-415 2 c35 -28 -7 -50 -47 -25 -15 9 -17 16 -10 30 9 17 30 16 57 -5z
m1167 -256 c-3 -21 -7 -52 -7 -69 -1 -22 -7 -32 -22 -36 -28 -8 -66 -7 -66 0
0 16 87 144 97 144 3 0 2 -17 -2 -39z m-55 13 c0 -8 -17 -36 -39 -62 -21 -26
-44 -57 -50 -69 -14 -28 -61 -32 -61 -5 0 20 120 152 138 152 7 0 12 -7 12
-16z"/>
<path d="M3896 4944 c-4 -10 -1 -14 6 -12 15 5 23 28 10 28 -5 0 -13 -7 -16
-16z"/>
<path d="M3795 4320 c3 -5 11 -10 16 -10 6 0 7 5 4 10 -3 6 -11 10 -16 10 -6
0 -7 -4 -4 -10z"/>
<path d="M3972 1761 c2 -7 7 -12 11 -12 12 1 9 15 -3 20 -7 2 -11 -2 -8 -8z"/>
<path d="M2836 2063 c-6 -14 -5 -15 5 -6 7 7 10 15 7 18 -3 3 -9 -2 -12 -12z"/>
<path d="M4326 1545 c-3 -9 0 -15 9 -15 16 0 20 16 6 24 -5 3 -11 -1 -15 -9z"/>
<path d="M4090 1392 c0 -30 8 -43 52 -81 21 -18 33 -21 57 -16 17 4 31 13 31
20 0 21 -19 28 -36 14 -21 -17 -57 17 -49 48 4 16 -1 25 -14 33 -31 16 -41 12
-41 -18z"/>
<path d="M3857 933 c-21 -6 -47 -53 -47 -87 0 -29 10 -38 30 -26 11 7 11 11 1
24 -18 21 6 81 26 64 7 -6 13 -22 13 -35 0 -32 21 -25 33 10 6 19 5 32 -3 42
-13 15 -21 16 -53 8z"/>
<path d="M5630 8553 c-14 -23 -18 -39 -11 -41 6 -2 11 -10 11 -18 0 -17 16
-19 22 -1 6 17 10 97 4 97 -2 0 -14 -17 -26 -37z"/>
<path d="M5642 8458 c-19 -32 -36 -118 -24 -118 21 1 54 55 61 99 10 61 -7 69
-37 19z"/>
<path d="M6280 8335 c14 -8 35 -14 48 -15 25 0 77 -24 105 -48 27 -23 32 -7 7
25 -28 36 -71 53 -134 53 -49 -1 -50 -1 -26 -15z"/>
<path d="M5619 8303 c-13 -17 -13 -17 6 -3 11 8 22 16 24 17 2 2 0 3 -6 3 -6
0 -17 -8 -24 -17z"/>
<path d="M5551 8241 c-8 -6 -9 -11 -3 -15 6 -3 14 -1 17 5 9 14 2 20 -14 10z"/>
<path d="M5611 8211 c-7 -5 -9 -11 -4 -14 6 -4 19 0 29 8 15 11 16 14 4 15 -8
0 -21 -4 -29 -9z"/>
<path d="M5910 8070 c-13 -8 -13 -10 2 -10 9 0 20 5 23 10 8 13 -5 13 -25 0z"/>
<path d="M5911 8021 c-21 -14 19 -31 71 -31 l43 1 -39 19 c-44 22 -55 24 -75
11z"/>
<path d="M3299 7318 c-5 -11 -5 -48 -1 -43 3 2 10 1 17 -5 8 -6 11 -1 10 17 0
15 -6 28 -12 31 -7 2 -14 2 -14 0z"/>
<path d="M5430 6770 c-9 -6 -10 -10 -3 -10 6 0 15 5 18 10 8 12 4 12 -15 0z"/>
<path d="M5267 6749 c-11 -6 -51 -12 -90 -14 -45 -2 -71 -8 -69 -14 1 -6 -5
-12 -13 -12 -24 -2 -29 -4 -43 -12 -7 -5 -22 -5 -35 -2 -17 5 -18 4 -7 -4 21
-15 5 -25 -19 -11 -14 7 -21 7 -21 0 0 -5 -6 -10 -13 -10 -26 0 -50 -37 -43
-65 5 -19 4 -25 -5 -19 -7 4 -9 3 -5 -4 3 -6 2 -13 -4 -17 -6 -4 -4 -12 6 -23
11 -10 13 -17 5 -20 -14 -5 -15 -32 -1 -32 6 0 10 -7 10 -15 0 -8 3 -15 8 -15
4 0 8 -12 8 -27 1 -16 7 -44 14 -63 21 -58 23 -65 21 -73 -2 -9 54 -34 93 -41
16 -3 26 0 26 7 0 6 7 2 15 -10 8 -12 23 -22 33 -22 9 0 34 -4 54 -9 26 -7 38
-6 42 2 2 6 5 3 5 -6 1 -12 -7 -18 -21 -19 -18 -1 -19 -2 -5 -6 9 -2 15 -9 12
-14 -17 -26 58 8 77 35 5 7 8 4 8 -6 0 -10 4 -18 9 -18 18 0 22 19 10 42 -6
13 -8 20 -4 16 4 -4 22 -1 41 7 47 19 128 22 151 4 16 -13 17 -13 4 4 -14 17
-10 21 22 18 9 -1 17 2 17 8 0 6 6 8 13 5 8 -3 19 2 26 10 9 11 19 13 37 6 16
-7 24 -6 24 1 0 6 9 9 20 6 11 -3 23 -1 26 4 8 13 82 8 121 -8 44 -18 59 -17
43 2 -10 13 -8 13 16 1 16 -8 40 -17 54 -21 20 -6 23 -5 13 6 -15 15 -17 33
-4 25 16 -10 42 6 36 22 -3 8 3 21 12 29 10 8 12 11 4 7 -9 -4 -12 -3 -8 3 4
7 20 8 42 3 20 -4 32 -4 29 1 -7 11 15 51 25 45 6 -4 6 18 -3 69 -4 28 -39 85
-51 84 -28 -3 -56 15 -52 32 3 13 -3 21 -22 28 -26 9 -25 9 9 11 l35 1 -44 18
c-30 12 -40 20 -30 24 8 4 3 4 -11 0 -27 -7 -35 -7 -92 3 -25 4 -38 2 -38 -5
0 -6 10 -11 23 -12 13 0 16 -3 8 -6 -14 -6 -87 14 -107 29 -6 4 -14 5 -17 2
-3 -3 -36 -8 -73 -10 -37 -2 -65 -2 -62 1 13 13 66 22 80 14 11 -6 18 -4 22 6
3 10 -1 15 -12 16 -9 1 -42 3 -72 5 -30 2 -64 0 -75 -5 -60 -25 -97 -33 -108
-22 -12 12 -38 15 -34 4 3 -11 -14 -14 -36 -7 -9 3 -15 10 -12 15 4 5 -3 9
-15 9 -12 0 -18 5 -15 10 8 12 5 12 -18 -1z m270 -15 c-3 -3 -12 -4 -19 -1 -8
3 -5 6 6 6 11 1 17 -2 13 -5z m-52 -24 c3 -5 2 -10 -4 -10 -5 0 -13 5 -16 10
-3 6 -2 10 4 10 5 0 13 -4 16 -10z m-268 -16 c-3 -3 -12 -4 -19 -1 -8 3 -5 6
6 6 11 1 17 -2 13 -5z m198 -14 c-3 -5 0 -10 7 -11 7 0 4 -4 -7 -9 -27 -12
-47 -12 -41 -1 3 5 -1 12 -10 15 -23 9 -36 7 -29 -4 4 -6 -5 -10 -19 -10 -14
0 -26 5 -26 11 0 5 -4 7 -10 4 -5 -3 -10 -2 -10 2 0 5 34 10 76 12 51 1 74 -2
69 -9z m515 -16 c0 -8 -4 -12 -10 -9 -5 3 -10 10 -10 16 0 5 5 9 10 9 6 0 10
-7 10 -16z m-417 -151 c-7 -2 -13 -11 -13 -19 0 -15 -16 -19 -24 -5 -3 4 -17
6 -31 3 -14 -2 -25 0 -25 6 0 6 10 13 23 15 31 6 84 6 70 0z m42 -13 c3 -5 1
-10 -4 -10 -6 0 -11 5 -11 10 0 6 2 10 4 10 3 0 8 -4 11 -10z m-145 -10 c0 -5
-8 -10 -17 -11 -10 0 -26 -2 -37 -4 -24 -5 -7 12 19 18 32 8 35 7 35 -3z m254
4 c8 -3 13 -11 10 -19 -3 -7 6 -25 19 -41 l24 -28 -5 33 c-3 23 -7 29 -13 20
-6 -10 -9 -10 -9 -2 0 13 19 28 26 20 3 -3 7 -18 8 -33 2 -16 4 -33 5 -37 0
-5 5 -6 11 -2 6 4 6 15 -1 32 -5 14 -7 28 -4 31 3 4 8 -4 12 -16 3 -12 10 -19
15 -16 7 4 7 0 0 -12 -5 -11 -7 -25 -5 -31 5 -14 -9 -17 -21 -5 -4 4 -11 7
-14 8 -13 1 -87 39 -100 52 -17 15 -32 16 -32 0 0 -6 -3 -8 -7 -4 -4 4 -8 15
-8 24 0 15 9 19 67 31 3 0 13 -2 22 -5z m-364 -41 c0 -4 -10 -17 -22 -30 -22
-23 -58 -31 -58 -13 0 6 6 10 13 10 8 0 22 9 32 20 18 20 35 26 35 13z m21
-159 c14 -17 5 -18 -24 -2 -31 16 -47 34 -47 53 0 12 5 15 16 11 11 -4 15 -2
11 8 -3 8 -1 17 6 19 7 2 15 -12 19 -36 4 -21 13 -45 19 -53z"/>
<path d="M5260 6336 c0 -2 7 -9 15 -16 12 -10 15 -10 15 4 0 9 -7 16 -15 16
-8 0 -15 -2 -15 -4z"/>
<path d="M4196 6711 c-3 -5 -15 -7 -25 -4 -10 3 -21 0 -25 -5 -11 -19 58 -18
77 0 16 17 16 18 -2 18 -11 0 -22 -4 -25 -9z"/>
<path d="M4340 6690 c0 -5 5 -10 11 -10 5 0 7 5 4 10 -3 6 -8 10 -11 10 -2 0
-4 -4 -4 -10z"/>
<path d="M5701 6284 c0 -11 3 -14 6 -6 3 7 2 16 -1 19 -3 4 -6 -2 -5 -13z"/>
<path d="M5555 6240 c3 -5 10 -10 16 -10 5 0 9 5 9 10 0 6 -7 10 -16 10 -8 0
-12 -4 -9 -10z"/>
<path d="M5400 6229 c0 -5 5 -7 10 -4 6 3 10 8 10 11 0 2 -4 4 -10 4 -5 0 -10
-5 -10 -11z"/>
<path d="M5505 6220 c-3 -5 -1 -10 4 -10 6 0 11 5 11 10 0 6 -2 10 -4 10 -3 0
-8 -4 -11 -10z"/>
<path d="M5415 6201 c-7 -12 12 -24 25 -16 11 7 4 25 -10 25 -5 0 -11 -4 -15
-9z"/>
<path d="M5380 6145 c-10 -13 -9 -15 9 -15 11 0 21 5 21 11 0 6 7 9 15 5 8 -3
15 -1 15 4 0 16 -46 12 -60 -5z"/>
<path d="M5460 6143 c0 -7 -7 -13 -15 -13 -8 0 -15 -4 -15 -9 0 -11 123 -22
133 -12 5 5 -13 11 -39 14 -25 2 -50 11 -55 18 -6 10 -9 11 -9 2z"/>
<path d="M3926 6114 c-10 -25 -7 -34 9 -28 8 4 15 15 15 25 0 23 -16 25 -24 3z"/>
<path d="M5580 6108 c0 -4 14 -8 30 -8 17 0 30 2 30 4 0 2 -13 6 -30 8 -16 3
-30 1 -30 -4z"/>
<path d="M6400 6065 c0 -8 4 -15 10 -15 5 0 7 7 4 15 -4 8 -8 15 -10 15 -2 0
-4 -7 -4 -15z"/>
<path d="M4485 5980 c-7 -12 -8 -11 27 -16 15 -1 31 2 34 8 5 7 1 9 -9 5 -9
-3 -19 -2 -22 3 -8 13 -22 13 -30 0z"/>
<path d="M3725 5959 c-4 -5 11 -9 31 -9 21 0 34 3 31 7 -11 10 -56 12 -62 2z"/>
<path d="M4465 5950 c-3 -5 -1 -10 4 -10 6 0 11 5 11 10 0 6 -2 10 -4 10 -3 0
-8 -4 -11 -10z"/>
<path d="M4486 5929 c-23 -22 -19 -30 12 -22 23 6 26 11 14 29 -5 8 -13 5 -26
-7z"/>
<path d="M4516 5895 c-17 -13 -14 -41 3 -30 7 4 23 46 18 45 -1 0 -10 -7 -21
-15z"/>
<path d="M4470 5875 c0 -8 5 -15 10 -15 6 0 10 7 10 15 0 8 -4 15 -10 15 -5 0
-10 -7 -10 -15z"/>
<path d="M4480 5833 c0 -5 5 -15 10 -23 8 -13 10 -13 10 2 0 9 6 19 13 21 6 3
2 6 -10 6 -13 1 -23 -2 -23 -6z"/>
<path d="M5193 5641 c-21 -6 -21 -7 14 -66 20 -33 39 -71 43 -85 4 -14 14 -25
24 -25 9 0 21 -7 26 -15 5 -8 10 -11 10 -6 0 4 16 -5 35 -20 19 -16 48 -39 65
-52 16 -13 30 -28 30 -33 0 -12 62 -68 76 -69 6 0 18 -8 25 -17 21 -25 100
-73 122 -73 10 0 33 -11 51 -25 18 -14 36 -25 40 -25 7 0 60 -36 82 -55 6 -5
28 -23 48 -39 39 -31 89 -125 101 -190 7 -42 25 -33 20 10 -1 13 2 21 6 18 5
-3 9 6 9 20 0 14 6 26 13 26 9 0 8 3 -2 9 -8 5 -11 17 -7 28 4 13 -1 26 -14
38 -11 10 -17 22 -14 27 11 18 -63 115 -103 135 -21 10 -37 24 -35 31 2 11
-11 16 -31 13 -4 -1 -17 8 -29 19 -12 11 -29 20 -39 20 -9 0 -19 7 -23 15 -3
8 -12 15 -19 15 -8 0 -20 7 -27 15 -11 13 -14 13 -25 -2 -8 -10 -17 -15 -21
-10 -4 4 -3 7 3 7 19 0 3 36 -17 37 -26 2 -71 33 -64 44 3 5 1 9 -4 9 -14 0
-57 41 -54 51 1 5 -6 12 -15 16 -10 4 -43 33 -72 65 -30 32 -60 58 -65 58 -6
0 -26 14 -45 30 -18 17 -42 30 -52 30 -10 0 -24 6 -31 13 -7 7 -23 11 -35 8z"/>
<path d="M6707 5585 c-15 -19 -34 -35 -41 -35 -30 0 -68 -64 -49 -83 7 -8 51
18 71 42 17 20 55 101 50 106 -2 2 -16 -11 -31 -30z"/>
<path d="M6430 5570 c-26 -26 -26 -42 1 -38 23 3 45 43 29 53 -5 3 -18 -3 -30
-15z"/>
<path d="M6362 5415 c0 -16 2 -22 5 -12 2 9 2 23 0 30 -3 6 -5 -1 -5 -18z"/>
<path d="M3900 5234 c0 -8 5 -12 10 -9 6 4 8 11 5 16 -9 14 -15 11 -15 -7z"/>
<path d="M6553 5186 c-29 -16 -53 -34 -53 -38 0 -9 63 22 94 47 35 27 12 22
-41 -9z"/>
<path d="M6468 5135 c-3 -3 -23 -7 -44 -9 -47 -5 -74 -15 -74 -27 0 -5 8 -9
18 -9 25 0 111 30 118 41 5 9 -9 13 -18 4z"/>
<path d="M5075 5080 c-3 -5 1 -10 9 -10 9 0 16 5 16 10 0 6 -4 10 -9 10 -6 0
-13 -4 -16 -10z"/>
<path d="M5730 5061 c0 -11 53 -51 68 -51 22 0 21 18 -1 32 -31 21 -67 31 -67
19z"/>
<path d="M5185 5050 c-3 -5 -1 -10 4 -10 6 0 11 5 11 10 0 6 -2 10 -4 10 -3 0
-8 -4 -11 -10z"/>
<path d="M5145 5040 c3 -5 10 -10 16 -10 5 0 9 5 9 10 0 6 -7 10 -16 10 -8 0
-12 -4 -9 -10z"/>
<path d="M5330 5026 c0 -2 7 -7 16 -10 8 -3 12 -2 9 4 -6 10 -25 14 -25 6z"/>
<path d="M5720 4979 c0 -4 11 -6 25 -6 14 0 25 3 25 8 0 5 -11 8 -25 7 -14 -1
-25 -5 -25 -9z"/>
<path d="M5175 4960 c-3 -5 1 -13 10 -16 22 -9 29 1 11 15 -10 8 -16 9 -21 1z"/>
<path d="M5776 4933 c3 -16 10 -32 16 -38 8 -7 9 -5 5 6 -4 12 0 15 19 11 22
-4 29 -13 25 -34 0 -5 4 -8 10 -8 6 0 9 7 5 15 -5 13 -2 14 17 5 22 -11 22
-11 -1 9 -13 11 -21 24 -18 29 2 4 -7 9 -22 10 -14 1 -31 7 -36 12 -17 17 -25
11 -20 -17z"/>
<path d="M5668 4913 c7 -3 16 -2 19 1 4 3 -2 6 -13 5 -11 0 -14 -3 -6 -6z"/>
<path d="M5750 4810 c0 -5 -8 -7 -17 -4 -14 5 -15 4 -4 -4 7 -5 17 -15 21 -22
5 -8 9 -3 12 14 3 14 1 26 -3 26 -5 0 -9 -4 -9 -10z"/>
<path d="M6130 4709 c0 -5 5 -7 10 -4 6 3 10 8 10 11 0 2 -4 4 -10 4 -5 0 -10
-5 -10 -11z"/>
<path d="M6181 4688 c-1 -9 4 -20 9 -23 6 -4 7 -12 4 -18 -4 -8 -2 -7 7 1 10
9 10 15 3 20 -6 4 -14 14 -17 22 -4 12 -6 12 -6 -2z"/>
<path d="M6332 4610 c0 -14 2 -19 5 -12 2 6 2 18 0 25 -3 6 -5 1 -5 -13z"/>
<path d="M6186 4607 c3 -10 9 -15 12 -12 3 3 0 11 -7 18 -10 9 -11 8 -5 -6z"/>
<path d="M5820 4562 c0 -5 7 -15 15 -22 8 -7 15 -8 15 -2 0 5 -7 15 -15 22 -8
7 -15 8 -15 2z"/>
<path d="M6215 4480 c-3 -5 1 -13 10 -16 22 -9 29 1 11 15 -10 8 -16 9 -21 1z"/>
<path d="M3236 4391 c-4 -7 -5 -15 -2 -18 9 -9 19 4 14 18 -4 11 -6 11 -12 0z"/>
<path d="M4688 4293 c7 -3 16 -2 19 1 4 3 -2 6 -13 5 -11 0 -14 -3 -6 -6z"/>
<path d="M5060 4275 c0 -9 6 -12 15 -9 8 4 12 10 9 15 -8 14 -24 10 -24 -6z"/>
<path d="M5225 4140 c3 -5 8 -10 11 -10 2 0 4 5 4 10 0 6 -5 10 -11 10 -5 0
-7 -4 -4 -10z"/>
<path d="M5905 4140 c3 -5 8 -10 11 -10 2 0 4 5 4 10 0 6 -5 10 -11 10 -5 0
-7 -4 -4 -10z"/>
<path d="M4482 3651 c2 -7 7 -12 11 -12 12 1 9 15 -3 20 -7 2 -11 -2 -8 -8z"/>
<path d="M5580 3616 c0 -9 5 -16 10 -16 6 0 10 4 10 9 0 6 -4 13 -10 16 -5 3
-10 -1 -10 -9z"/>
<path d="M4570 3610 c0 -5 7 -7 15 -4 8 4 15 8 15 10 0 2 -7 4 -15 4 -8 0 -15
-4 -15 -10z"/>
<path d="M4630 3560 c-9 -6 -10 -10 -3 -10 6 0 15 5 18 10 8 12 4 12 -15 0z"/>
<path d="M6228 3139 c-3 -298 -2 -349 9 -360 8 -8 13 0 18 30 4 23 10 41 14
41 14 0 33 -126 41 -270 11 -184 -1 -299 -51 -504 -21 -88 -39 -168 -39 -178
0 -21 -28 -75 -65 -127 -14 -19 -25 -40 -25 -47 0 -29 22 -12 57 44 41 64 78
188 118 397 41 215 45 237 66 326 10 47 19 95 19 105 0 10 4 25 9 33 7 11 12
7 25 -15 l15 -29 1 33 c0 25 4 32 19 32 16 0 21 -8 23 -37 3 -35 4 -33 12 19
11 74 3 104 -29 112 -22 6 -25 12 -25 52 0 37 4 47 20 51 28 7 25 29 -7 61
-31 30 -55 88 -47 114 3 10 -8 29 -29 50 -18 18 -49 56 -69 83 -20 28 -46 59
-58 70 l-21 19 -1 -105z"/>
<path d="M6521 2559 c-20 -26 -28 -29 -54 -23 l-30 6 6 -68 c4 -38 7 -88 7
-112 0 -57 16 -51 53 19 16 30 37 70 48 88 16 27 19 45 14 78 -3 24 -9 43 -13
42 -4 0 -18 -14 -31 -30z"/>
<path d="M6680 2446 c0 -17 37 -46 58 -46 8 0 46 -14 85 -31 104 -44 106 -45
177 -66 47 -14 64 -24 62 -35 -1 -8 5 -21 13 -28 8 -7 15 -10 15 -7 0 3 21 -3
46 -14 32 -15 49 -17 58 -10 25 21 235 -51 237 -82 2 -44 11 -84 28 -120 11
-24 23 -55 26 -70 10 -39 27 -33 20 7 -4 19 -2 36 3 40 20 12 62 -14 76 -46
14 -33 14 -33 9 22 -3 30 -12 67 -19 81 -15 30 -10 39 20 39 15 0 17 3 9 11
-11 11 -103 52 -153 69 -14 4 -87 37 -162 74 -76 36 -142 66 -147 66 -6 0 -25
8 -43 18 -56 31 -295 115 -390 136 -21 5 -28 3 -28 -8z m430 -180 c0 -3 -4 -8
-10 -11 -5 -3 -10 -1 -10 4 0 6 5 11 10 11 6 0 10 -2 10 -4z"/>
<path d="M6690 2352 c0 -27 41 -57 73 -53 15 1 34 -3 42 -9 18 -15 35 -5 35
20 0 13 -9 22 -27 26 -16 3 -48 12 -72 20 -55 17 -51 18 -51 -4z"/>
<path d="M7570 2200 c19 -11 42 -19 50 -19 8 0 -5 8 -29 19 -55 25 -67 25 -21
0z"/>
<path d="M7092 2133 c4 -36 12 -71 18 -78 6 -7 30 -15 53 -17 23 -3 51 -8 61
-13 17 -8 19 -5 13 30 -7 45 -39 125 -49 125 -5 0 -8 -4 -8 -9 0 -14 -52 -23
-63 -12 -8 8 -7 11 1 11 23 0 12 25 -11 26 -23 2 -23 0 -15 -63z"/>
<path d="M6744 2154 c12 -70 14 -71 64 -77 26 -3 54 -7 62 -9 12 -2 15 7 13
41 -1 25 -8 50 -15 57 -7 7 -39 16 -72 20 l-59 7 7 -39z"/>
<path d="M6539 2138 c-12 -18 -46 -58 -75 -88 -42 -44 -53 -64 -59 -100 -4
-25 -13 -71 -21 -104 -8 -32 -13 -61 -10 -64 9 -8 105 106 159 190 9 15 24 56
32 90 26 110 16 137 -26 76z"/>
<path d="M7625 2070 c3 -5 13 -10 21 -10 8 0 12 5 9 10 -3 6 -13 10 -21 10 -8
0 -12 -4 -9 -10z"/>
<path d="M7780 2014 c0 -3 9 -21 20 -39 17 -27 26 -32 59 -32 46 0 61 -8 61
-33 0 -10 5 -22 10 -25 25 -15 7 -27 -35 -23 -53 4 -55 -4 -25 -71 17 -35 24
-42 41 -38 12 3 33 1 46 -4 25 -9 25 -10 7 -30 -11 -12 -28 -25 -40 -29 -18
-7 -20 -15 -17 -76 1 -37 9 -90 17 -118 8 -28 18 -82 22 -121 3 -38 15 -89 25
-113 l19 -43 45 37 c25 21 45 41 45 44 -1 12 -17 31 -26 29 -5 -2 -25 0 -45 4
-35 7 -36 9 -36 52 0 25 4 45 9 45 4 0 8 5 8 10 0 6 -7 10 -15 10 -8 0 -15 5
-15 10 0 6 6 10 14 10 28 0 46 -12 46 -32 0 -19 29 -83 34 -76 8 8 -13 197
-23 216 -6 11 -14 62 -18 112 -5 75 -12 102 -40 157 -18 37 -33 79 -33 94 0
22 -8 30 -47 47 -56 23 -113 37 -113 26z m214 -413 c-5 -5 -63 20 -69 29 -3 5
10 17 28 29 l32 20 6 -37 c4 -20 5 -39 3 -41z"/>
<path d="M8150 2001 c0 -5 53 -27 118 -50 64 -23 149 -57 187 -75 39 -19 80
-37 92 -41 37 -10 34 12 -5 28 -40 18 -261 103 -302 117 -71 24 -90 28 -90 21z"/>
<path d="M1870 1907 c-69 -35 -154 -73 -190 -86 -36 -13 -87 -36 -115 -51 -27
-15 -81 -39 -120 -54 -109 -43 -225 -99 -225 -109 0 -16 51 2 155 54 55 27
140 62 188 79 49 16 110 42 135 57 44 27 130 70 212 107 37 17 98 51 108 60
20 20 -40 -3 -148 -57z"/>
<path d="M6784 1907 c4 -23 10 -45 14 -48 4 -4 36 -9 71 -12 l63 -5 -6 41 c-4
23 -11 46 -15 50 -5 5 -37 10 -71 12 l-62 4 6 -42z"/>
<path d="M7145 1883 c9 -51 20 -60 88 -66 54 -5 57 -4 57 16 -1 12 -7 35 -13
51 -12 28 -17 30 -76 33 l-63 4 7 -38z"/>
<path d="M8175 1893 c4 -10 12 -36 18 -58 5 -22 17 -65 27 -95 25 -76 40 -153
40 -205 0 -25 4 -45 8 -45 10 0 62 53 62 63 0 4 -11 7 -25 7 -14 0 -25 4 -25
9 0 15 40 24 54 12 10 -8 17 -6 29 7 13 15 15 28 7 80 -5 35 -18 80 -29 100
-12 20 -26 49 -32 63 -7 19 -28 35 -68 53 -69 31 -76 32 -66 9z m85 -58 c0 -8
-7 -15 -15 -15 -16 0 -20 12 -8 23 11 12 23 8 23 -8z m50 -189 c0 -3 -4 -8
-10 -11 -5 -3 -10 -1 -10 4 0 6 5 11 10 11 6 0 10 -2 10 -4z"/>
<path d="M7493 1875 c-3 -8 3 -31 14 -52 16 -34 22 -38 58 -38 22 -1 50 -4 63
-9 19 -6 22 -4 22 16 -1 13 -9 38 -18 56 -16 32 -21 34 -75 37 -43 3 -60 0
-64 -10z"/>
<path d="M6826 1721 c-3 -4 0 -28 7 -52 l13 -43 69 1 70 2 -3 31 c-5 61 -16
70 -87 70 -35 0 -66 -4 -69 -9z"/>
<path d="M1668 1678 c-57 -26 -68 -35 -74 -61 -3 -17 -14 -47 -24 -67 -10 -19
-21 -64 -25 -99 -4 -39 -14 -76 -26 -92 -25 -36 -24 -44 8 -69 18 -14 35 -19
50 -15 23 5 32 -8 13 -20 -8 -5 -7 -11 1 -21 10 -12 16 -4 35 43 13 32 24 68
24 80 0 24 22 112 39 155 5 15 12 44 15 65 2 21 11 58 20 83 8 24 14 45 13 47
-2 1 -33 -12 -69 -29z m-58 -274 c0 -22 -3 -24 -22 -18 -31 9 -31 9 -24 39 6
22 9 24 26 15 12 -6 20 -21 20 -36z"/>
<path d="M7199 1705 c-9 -8 6 -72 21 -90 7 -8 21 -15 32 -15 10 0 34 -6 53
-14 19 -8 37 -11 40 -6 8 13 -12 91 -27 106 -14 14 -109 30 -119 19z"/>
<path d="M6097 1668 c-26 -36 -85 -160 -67 -142 6 6 19 25 28 42 9 17 30 51
46 77 34 54 29 71 -7 23z"/>
<path d="M6515 1645 c-15 -31 -26 -57 -24 -59 2 -2 30 1 62 7 49 9 57 13 57
33 0 43 -18 74 -43 74 -19 0 -30 -12 -52 -55z"/>
<path d="M7615 1683 c-27 -3 -53 -9 -56 -15 -7 -11 9 -76 24 -95 6 -8 32 -13
63 -13 36 0 54 -4 54 -12 0 -9 4 -8 10 2 6 8 7 29 4 45 -8 38 -34 96 -43 93
-3 -1 -28 -3 -56 -5z"/>
<path d="M1323 1558 c-18 -11 -33 -23 -33 -27 0 -10 49 -56 54 -50 4 5 18 99
14 98 -2 0 -18 -10 -35 -21z"/>
<path d="M7716 1474 l5 -42 -47 9 c-26 5 -50 7 -52 4 -6 -5 9 -71 27 -120 6
-16 13 -43 16 -58 3 -15 10 -25 15 -22 5 3 7 19 3 35 -3 17 -1 30 4 30 18 0
53 -41 58 -68 4 -15 10 -35 16 -44 9 -19 12 -48 4 -48 -2 0 -20 8 -40 17 -19
9 -38 14 -41 10 -12 -12 17 -118 37 -138 25 -25 31 -24 67 6 30 25 33 52 9 83
-12 15 -24 73 -37 172 -11 84 -28 165 -41 195 -6 14 -7 7 -3 -21z"/>
<path d="M6884 1454 c3 -26 12 -57 20 -68 7 -12 17 -36 20 -54 4 -17 12 -32
17 -32 12 0 12 37 -1 45 -21 13 -9 25 24 25 53 0 67 -8 60 -36 -3 -13 -3 -32
2 -41 4 -10 8 -30 8 -45 1 -31 -14 -35 -57 -19 -19 8 -27 6 -31 -4 -7 -18 13
-137 25 -149 5 -6 9 -26 9 -45 0 -51 9 -59 65 -63 46 -3 50 -5 56 -35 3 -18 5
-34 3 -36 -2 -2 -23 -1 -46 2 -38 5 -43 9 -48 36 -5 26 -7 22 -13 -25 -7 -56
0 -114 27 -210 9 -30 16 -74 16 -98 0 -40 1 -42 20 -32 25 13 26 58 3 76 -16
12 -16 15 -3 23 12 8 12 13 -5 30 -24 28 -15 34 33 26 44 -7 61 -35 36 -59
-16 -16 -19 -36 -5 -36 5 0 17 -3 25 -6 15 -6 16 3 12 78 -5 97 -15 158 -27
174 -5 6 -14 55 -20 110 -6 54 -21 146 -35 204 -13 58 -28 138 -34 179 -16
117 -23 125 -99 129 l-64 3 7 -47z m191 -404 c3 -5 2 -10 -3 -10 -5 0 -14 -12
-21 -26 -9 -21 -14 -24 -26 -14 -16 13 -20 42 -8 53 10 11 51 8 58 -3z"/>
<path d="M6580 1463 c-30 -8 -59 -18 -64 -23 -11 -11 3 -87 20 -105 12 -12 19
-12 49 1 19 8 43 14 54 14 11 0 22 4 25 9 7 11 -12 109 -22 114 -4 2 -32 -2
-62 -10z"/>
<path d="M7248 1475 c-7 -7 9 -104 21 -130 14 -29 31 -131 31 -184 0 -25 12
-77 25 -116 14 -38 25 -78 25 -87 0 -9 4 -28 10 -43 8 -22 12 -24 24 -13 10 9
11 15 2 20 -6 5 -2 8 11 8 12 0 30 3 40 6 16 5 16 4 -1 -10 -19 -16 -19 -16 6
-16 24 0 46 -15 36 -25 -2 -2 -27 -6 -56 -8 -29 -2 -55 -6 -58 -9 -6 -7 6 -81
16 -98 6 -9 25 -1 71 30 35 24 65 44 67 46 2 1 -3 15 -11 31 -15 28 -31 115
-42 226 -3 32 -12 69 -20 81 -9 13 -18 47 -22 75 -3 28 -10 51 -16 51 -5 0 -7
-13 -5 -30 4 -25 1 -30 -17 -30 -11 0 -26 -5 -33 -12 -18 -18 -39 9 -46 60 -6
46 -7 45 64 46 34 1 35 2 32 36 -4 54 -24 76 -74 83 -24 3 -51 9 -59 12 -8 3
-18 3 -21 0z m170 -262 c-3 -19 -48 -29 -76 -18 -13 6 -9 10 18 20 49 19 62
18 58 -2z m12 -198 c0 -9 -6 -15 -14 -13 -8 2 -22 -6 -30 -17 -13 -19 -15 -19
-21 -2 -12 28 2 47 35 47 20 0 30 -5 30 -15z"/>
<path d="M2952 1337 c-6 -7 -12 -30 -14 -51 l-3 -39 70 2 c38 2 72 4 74 6 7 8
18 84 13 90 -11 11 -130 5 -140 -8z"/>
<path d="M2209 1283 c-13 -28 -23 -73 -24 -108 -3 -76 -15 -157 -25 -170 -8
-10 -14 -96 -11 -167 1 -33 7 -40 64 -78 l62 -42 7 94 c15 177 18 334 8 318
-5 -8 -10 -32 -10 -52 0 -27 -4 -38 -15 -38 -8 0 -15 5 -15 10 0 6 -11 10 -25
10 -14 0 -25 -5 -25 -12 0 -6 -3 -9 -6 -6 -3 4 -3 31 1 62 l7 55 54 7 c29 3
58 11 63 18 5 6 11 31 13 55 l3 45 -51 -3 c-50 -2 -51 -2 -47 23 8 40 -4 31
-28 -21z"/>
<path d="M5793 1274 c-22 -20 -23 -24 -8 -19 11 4 28 9 37 12 21 6 32 33 13
33 -8 0 -27 -12 -42 -26z"/>
<path d="M6560 1275 c0 -8 4 -15 9 -15 5 0 11 7 15 15 3 9 0 15 -9 15 -8 0
-15 -7 -15 -15z"/>
<path d="M6627 1217 l-59 -10 7 -46 c12 -76 16 -80 87 -74 35 3 67 9 71 13 16
14 -23 133 -42 129 -3 -1 -32 -6 -64 -12z"/>
<path d="M7680 1220 c0 -13 18 -22 24 -11 3 5 -1 11 -9 15 -8 3 -15 1 -15 -4z"/>
<path d="M5700 1105 c-53 -27 -161 -130 -208 -198 -18 -26 -30 -47 -27 -47 9
0 172 126 213 164 33 31 78 94 71 101 -2 1 -24 -7 -49 -20z"/>
<path d="M2935 1111 c-32 -7 -42 -29 -44 -92 l-1 -35 60 4 60 4 -6 -48 c-8
-62 -20 -85 -42 -82 -9 2 -17 -3 -17 -11 0 -17 -31 -38 -41 -28 -4 3 -2 13 4
20 9 10 9 16 0 25 -8 8 -8 15 2 27 10 12 10 18 0 30 -6 8 -9 19 -5 25 3 5 1
10 -4 10 -6 0 -11 -15 -11 -33 0 -18 -4 -58 -10 -88 -12 -67 -13 -137 -3 -308
l8 -134 69 -29 c38 -15 73 -28 78 -28 9 0 1 100 -13 145 -5 17 -9 75 -8 130 0
55 0 151 0 213 0 68 5 129 13 155 8 23 16 63 20 90 l6 47 -43 -1 c-23 -1 -55
-4 -72 -8z"/>
<path d="M6374 1012 l7 -51 -52 6 -52 6 7 -68 c4 -37 11 -76 16 -85 5 -10 12
-80 15 -157 8 -190 10 -197 65 -201 25 -2 50 -8 56 -13 17 -14 5 -56 -19 -63
-17 -4 -18 -7 -7 -20 7 -9 18 -16 26 -16 7 0 16 -9 19 -20 13 -39 21 -19 14
33 -4 28 -8 81 -9 117 0 36 -9 98 -20 139 -11 41 -20 83 -20 94 0 13 -5 17
-16 13 -9 -3 -17 -6 -20 -6 -2 0 -1 -7 2 -15 4 -8 10 -12 15 -9 13 7 11 -10
-2 -23 -7 -7 -6 -15 5 -26 23 -23 20 -27 -16 -20 -53 10 -61 21 -54 74 4 26 2
58 -3 72 -11 29 3 47 22 28 6 -6 20 -12 32 -12 17 -1 17 -2 2 -6 -14 -4 -16
-8 -6 -19 6 -8 17 -14 24 -14 16 0 12 160 -4 203 -6 16 -11 43 -11 62 0 19 -5
37 -11 41 -9 5 -10 -7 -5 -44z"/>
<path d="M6720 1028 c1 -7 7 -24 15 -38 14 -24 14 -24 15 -3 0 28 -10 53 -21
53 -5 0 -9 -6 -9 -12z"/>
<path d="M6620 1006 c0 -14 5 -28 10 -31 6 -4 10 7 10 24 0 17 -4 31 -10 31
-5 0 -10 -11 -10 -24z"/>
<path d="M5698 938 c-21 -33 -29 -58 -18 -58 11 0 50 54 50 69 0 18 -17 12
-32 -11z"/>
<path d="M6745 940 c-4 -7 -24 -8 -54 -4 -32 4 -51 2 -55 -5 -14 -23 6 -119
31 -153 14 -18 23 -26 20 -17 -4 12 2 18 20 22 47 9 60 -1 61 -46 1 -55 7 -95
15 -104 16 -16 4 -23 -38 -23 -44 0 -45 1 -46 33 -1 17 -1 40 0 50 1 9 -3 17
-9 17 -14 0 -5 -222 11 -252 10 -18 18 -20 70 -16 32 2 61 6 63 9 4 4 -4 70
-23 184 -6 33 -15 109 -20 168 -10 102 -30 163 -46 137z"/>
<path d="M3245 828 c-4 -14 -8 -94 -11 -179 -6 -230 -6 -238 1 -315 l6 -72 65
-21 c35 -11 67 -21 69 -21 7 0 6 140 -2 313 -4 109 -8 135 -18 127 -17 -14
-95 -1 -95 16 0 15 60 29 90 21 13 -3 23 1 29 11 12 25 21 106 13 119 -4 6
-37 14 -74 18 -65 7 -67 7 -73 -17z m95 -262 c10 -28 4 -36 -30 -36 -34 0 -40
7 -33 41 4 21 9 25 30 21 13 -2 28 -14 33 -26z"/>
<path d="M5583 811 c-21 -16 -50 -32 -64 -36 -55 -17 -138 -66 -187 -110 -57
-52 -62 -66 -13 -40 18 9 62 25 98 36 73 23 102 39 142 80 34 35 74 89 68 95
-2 2 -22 -9 -44 -25z"/>
<path d="M5335 520 c-3 -5 -2 -10 4 -10 5 0 13 5 16 10 3 6 2 10 -4 10 -5 0
-13 -4 -16 -10z"/>
<path d="M3605 455 c-3 -35 -4 -69 0 -75 3 -5 28 -10 54 -10 26 0 52 -5 58
-11 22 -22 35 1 28 50 -10 66 -18 77 -74 95 -27 9 -52 16 -54 16 -3 0 -8 -29
-12 -65z"/>
<path d="M6094 435 c-3 -8 -1 -27 4 -42 10 -27 10 -26 11 15 1 43 -5 54 -15
27z"/>
<path d="M6346 393 c4 -27 7 -67 7 -90 0 -24 1 -43 2 -43 15 0 65 24 65 32 0
5 -4 7 -9 4 -14 -9 -41 4 -41 20 0 8 4 14 9 14 10 0 3 67 -10 93 -19 34 -30
18 -23 -30z"/>
<path d="M6020 410 c0 -5 7 -10 16 -10 8 0 12 5 9 10 -3 6 -10 10 -16 10 -5 0
-9 -4 -9 -10z"/>
<path d="M6040 369 c0 -5 5 -7 10 -4 6 3 10 8 10 11 0 2 -4 4 -10 4 -5 0 -10
-5 -10 -11z"/>
<path d="M3607 293 c-4 -38 -7 -84 -7 -104 l0 -37 65 -16 c84 -21 84 -21 76
16 -6 29 -11 33 -46 36 -21 1 -41 4 -43 7 -7 7 -24 81 -27 118 -5 61 -12 53
-18 -20z"/>
<path d="M5987 305 c-8 -48 5 -151 18 -149 6 1 40 9 76 19 l66 17 -5 52 c-6
63 -19 93 -35 77 -6 -6 -32 -11 -58 -11 -37 0 -48 4 -51 18 -3 9 -7 -1 -11
-23z"/>
<path d="M4094 236 c5 -22 2 -24 -54 -35 l-60 -12 0 -58 0 -59 63 -11 c103
-18 99 -21 91 57 -4 37 -11 75 -15 84 -5 9 -9 26 -9 37 0 12 -5 21 -11 21 -7
0 -9 -9 -5 -24z"/>
<path d="M4365 199 c-9 -14 3 -123 17 -155 11 -25 23 -30 32 -16 8 14 91 8 89
-6 -5 -21 14 -13 20 9 8 31 -4 121 -20 145 -9 15 -25 21 -55 22 -23 1 -50 4
-59 7 -10 3 -20 1 -24 -6z"/>
<path d="M4840 171 c0 -5 5 -13 10 -16 6 -3 10 -2 10 4 0 5 -4 13 -10 16 -5 3
-10 2 -10 -4z"/>
</g>
</svg>
