<?xml version="1.0" standalone="no"?>
<!DOCTYPE svg PUBLIC "-//W3C//DTD SVG 20010904//EN"
 "http://www.w3.org/TR/2001/REC-SVG-20010904/DTD/svg10.dtd">
<svg version="1.0" xmlns="http://www.w3.org/2000/svg"
 width="960.000000pt" height="960.000000pt" viewBox="0 0 960.000000 960.000000"
 preserveAspectRatio="xMidYMid meet">
<g transform="translate(0.000000,960.000000) scale(0.100000,-0.100000)"
fill="#000000" stroke="none">
<path d="M4955 9223 c-35 -8 -154 -15 -285 -17 -261 -5 -317 -17 -452 -92 -88
-49 -226 -104 -260 -104 -11 0 -38 -10 -60 -22 -33 -19 -36 -23 -21 -29 15 -6
13 -8 -7 -8 -14 -1 -40 -10 -58 -21 -18 -11 -44 -20 -58 -20 -54 0 -258 -76
-251 -94 3 -7 -16 -11 -52 -11 -50 0 -56 -2 -59 -22 -4 -24 -18 -31 -24 -12
-6 17 -59 2 -92 -26 -16 -14 -33 -25 -38 -25 -14 0 -68 -63 -68 -79 0 -8 -4
-28 -10 -45 -5 -17 -12 -43 -15 -58 -4 -22 -10 -27 -36 -26 -21 1 -39 -8 -57
-26 -27 -28 -27 -28 -3 -21 17 5 22 4 19 -6 -3 -8 -14 -15 -26 -17 -12 -2 -22
-7 -22 -12 0 -5 -12 -22 -26 -37 -15 -15 -38 -50 -51 -78 -13 -27 -33 -62 -45
-76 -11 -15 -24 -44 -28 -65 -5 -22 -22 -77 -38 -123 -25 -67 -28 -88 -20
-107 8 -18 8 -27 -3 -40 -12 -15 -14 -14 -21 3 -6 13 -7 11 -3 -9 3 -14 0 -28
-6 -30 -13 -4 -21 -46 -23 -116 -1 -38 -6 -57 -18 -66 -10 -7 -18 -20 -18 -29
0 -9 -6 -20 -14 -24 -22 -13 -30 -52 -11 -59 14 -6 14 -8 -1 -25 -12 -13 -15
-29 -11 -58 3 -25 0 -47 -8 -58 -7 -9 -11 -23 -8 -29 2 -7 0 -15 -6 -19 -17
-10 -13 -96 9 -203 19 -94 20 -158 6 -252 -5 -39 -5 -41 5 -17 6 15 15 27 21
27 6 0 8 -11 3 -27 -3 -16 -7 -63 -8 -106 -2 -75 -2 -77 15 -55 26 33 22 7 -7
-50 -27 -53 -30 -66 -16 -58 5 3 9 -12 9 -34 1 -22 8 -55 16 -72 10 -20 16
-58 16 -105 0 -56 4 -77 18 -91 11 -11 18 -36 19 -75 3 -55 2 -57 -22 -57 -14
0 -25 -4 -25 -9 0 -9 62 -59 96 -77 27 -14 34 -9 57 39 21 46 22 68 3 61 -12
-5 -13 0 -5 31 7 26 7 40 -1 50 -8 10 -8 20 -2 31 6 12 7 27 1 43 -6 13 -7 32
-3 40 12 31 16 82 6 94 -11 14 -4 127 8 127 4 0 11 7 14 16 5 13 2 15 -14 11
-21 -5 -28 7 -10 18 6 3 10 16 10 27 0 12 9 31 20 43 24 26 39 87 20 83 -8 -2
-19 7 -25 19 -8 16 -15 19 -22 12 -8 -8 -13 -7 -18 1 -4 7 -2 16 5 20 6 4 12
11 12 16 0 5 4 16 9 24 6 11 9 7 9 -15 0 -23 3 -27 10 -15 9 13 11 13 20 0 8
-12 12 -9 22 18 7 17 16 32 20 32 4 0 8 6 8 14 0 8 9 30 19 48 11 18 22 51 25
73 4 21 14 47 23 57 9 11 18 26 19 34 1 9 6 23 10 32 3 9 8 30 10 45 2 16 9
37 15 48 9 19 9 19 -10 10 -34 -19 -36 -12 -5 18 32 31 37 68 15 95 -14 16 -7
21 26 17 6 -1 14 3 18 9 6 10 -14 14 -45 10 -8 -1 4 11 28 27 23 15 42 34 42
43 0 8 9 21 20 28 11 7 20 23 20 36 0 12 9 31 20 41 11 10 20 24 20 31 0 7 18
32 40 55 22 23 40 46 40 49 0 4 11 15 25 24 14 9 23 21 20 26 -4 6 13 10 40
10 28 0 44 4 40 10 -4 6 7 8 27 5 18 -3 27 -2 19 1 -25 12 41 31 90 27 26 -3
50 0 53 6 4 6 15 7 30 2 25 -10 148 11 153 26 2 5 17 8 33 5 16 -2 38 -1 47 3
10 4 43 8 73 9 38 1 54 5 53 14 -4 16 3 15 31 -3 29 -19 127 -13 141 9 8 13
13 12 42 -5 18 -11 33 -19 33 -17 0 2 -4 18 -9 36 -13 45 -2 40 39 -17 34 -46
37 -48 75 -43 46 6 64 24 66 67 1 17 5 -1 10 -38 9 -77 12 -85 33 -68 8 7 19
10 24 7 6 -3 15 1 21 8 10 12 16 12 38 1 14 -8 30 -19 34 -26 6 -10 13 -10 33
-1 13 6 40 9 58 6 28 -5 41 0 77 30 42 35 56 40 94 36 10 -1 30 6 43 15 17 11
38 15 61 12 27 -4 45 1 79 25 24 16 49 26 54 23 6 -4 17 -1 25 5 12 10 15 9
15 -4 0 -22 19 -20 47 6 21 19 23 20 23 4 0 -15 3 -16 15 -6 9 7 18 10 22 6 4
-3 16 2 27 13 32 28 64 36 62 14 -2 -28 62 -24 84 5 21 25 30 28 30 8 0 -12 7
-13 32 -5 23 6 34 6 37 -2 2 -6 14 0 28 13 16 14 27 19 30 12 7 -19 80 15 113
53 16 18 34 33 40 33 5 0 10 5 10 10 0 6 5 10 10 10 22 0 8 -25 -35 -63 -50
-45 -55 -57 -24 -57 11 0 17 5 14 10 -4 6 8 10 30 10 20 0 34 -4 31 -9 -7 -11
21 -35 62 -51 38 -15 51 -8 31 17 -7 10 -1 7 14 -6 31 -28 33 -33 12 -25 -8 4
-15 1 -15 -5 0 -6 14 -14 30 -17 34 -7 41 -24 9 -24 -11 0 -17 -4 -14 -10 4
-7 24 -8 50 -5 29 5 45 3 50 -6 6 -9 3 -11 -8 -6 -9 3 -19 2 -22 -3 -4 -6 5
-10 18 -10 22 0 46 -14 100 -60 9 -8 17 -22 17 -31 0 -10 17 -31 37 -48 21
-17 32 -31 25 -31 -22 0 -13 -19 13 -26 13 -3 24 -9 23 -13 0 -3 1 -9 2 -13 1
-5 3 -12 4 -18 0 -5 10 -16 21 -24 11 -9 15 -16 7 -16 -9 0 -8 -6 4 -25 8 -13
13 -29 10 -34 -4 -5 -2 -12 4 -16 6 -4 8 -11 5 -16 -4 -5 4 -14 17 -20 28 -12
55 -49 37 -49 -8 0 -9 -4 0 -13 6 -8 8 -17 4 -20 -3 -4 0 -14 8 -24 12 -15 12
-16 -3 -10 -24 9 -23 -5 2 -21 23 -14 27 -34 5 -26 -22 9 -18 -6 9 -35 37 -40
99 -144 83 -138 -13 5 -13 1 1 -23 9 -16 19 -24 23 -19 6 10 69 -60 69 -76 0
-3 11 -21 25 -39 14 -18 25 -42 25 -52 0 -11 9 -36 19 -57 20 -39 35 -87 27
-87 -3 0 -14 10 -26 22 -24 27 -26 17 -3 -19 10 -14 18 -32 19 -39 1 -6 7 -20
14 -31 9 -14 10 -14 6 -1 -3 9 2 19 11 22 10 4 13 2 10 -8 -3 -7 0 -19 6 -25
8 -8 8 -14 0 -22 -17 -17 -4 -39 24 -39 22 0 25 -4 21 -29 -3 -18 0 -29 6 -28
6 1 11 -7 11 -17 0 -11 6 -21 13 -24 6 -2 12 -11 12 -20 1 -25 27 -55 40 -47
9 5 10 1 5 -15 -5 -15 -3 -20 3 -16 16 10 25 -13 12 -29 -10 -12 -10 -18 -1
-29 10 -12 9 -13 -8 -9 -18 5 -19 2 -10 -30 5 -20 8 -52 6 -73 -9 -78 12 -92
75 -49 20 14 41 25 46 25 5 0 17 9 27 20 18 19 17 20 -3 20 -12 0 -22 -4 -22
-10 0 -5 -11 -10 -24 -10 -16 0 -25 7 -29 23 -5 19 -4 20 6 5 10 -15 12 -15
29 4 10 11 15 25 12 29 -3 5 -1 9 4 9 5 0 12 38 16 85 6 68 4 90 -9 116 -9 17
-11 28 -5 24 8 -5 9 3 3 32 -12 55 -8 143 6 152 18 12 16 269 -2 288 -4 3 0
11 7 18 17 18 12 119 -8 167 -22 52 -21 71 4 63 26 -8 28 20 3 34 -10 6 -13
11 -6 11 34 1 -7 198 -53 253 -13 16 -24 37 -24 48 0 10 -6 19 -12 19 -10 0
-10 2 -1 8 9 6 9 18 -3 52 -9 26 -14 63 -11 87 3 28 0 46 -9 54 -7 6 -16 20
-20 32 -3 11 -15 29 -25 40 -10 11 -16 24 -13 28 2 4 0 10 -6 14 -6 4 -8 11
-5 16 4 5 1 9 -4 9 -6 0 -20 8 -31 18 l-21 17 21 5 c18 5 19 7 6 32 -25 47
-29 85 -11 95 13 8 6 19 -43 64 -32 30 -62 67 -66 82 -4 17 -17 32 -32 37 -21
8 -23 13 -14 30 9 16 4 30 -24 74 -38 59 -60 76 -100 76 -14 0 -28 5 -32 12
-5 7 -10 3 -16 -12 -6 -17 -12 -20 -19 -13 -8 8 -7 17 1 33 11 20 7 26 -32 63
-27 25 -42 47 -40 59 2 10 -2 35 -8 54 -9 27 -23 41 -54 56 -77 37 -94 48
-110 73 -10 15 -29 26 -53 30 -45 8 -68 17 -193 78 -52 26 -101 47 -107 47 -7
0 -39 9 -70 20 -32 11 -92 21 -133 23 -42 3 -89 11 -105 19 -17 9 -61 21 -100
27 -38 7 -106 28 -150 47 -107 45 -156 53 -230 37z m1520 -723 c3 -5 2 -10 -4
-10 -5 0 -13 5 -16 10 -3 6 -2 10 4 10 5 0 13 -4 16 -10z m-3415 -100 c0 -5
-4 -10 -10 -10 -5 0 -10 5 -10 10 0 6 5 10 10 10 6 0 10 -4 10 -10z m-25 -20
c3 -5 1 -10 -4 -10 -6 0 -11 5 -11 10 0 6 2 10 4 10 3 0 8 -4 11 -10z m35 -30
c0 -5 -4 -10 -10 -10 -5 0 -10 5 -10 10 0 6 5 10 10 10 6 0 10 -4 10 -10z
m2624 -170 c-15 -22 -27 -40 -28 -40 -8 0 4 51 15 63 29 34 39 17 13 -23z
m-2044 -18 c0 -15 -2 -15 -10 -2 -13 20 -13 33 0 25 6 -3 10 -14 10 -23z m28
-67 c-3 -3 -9 2 -12 12 -6 14 -5 15 5 6 7 -7 10 -15 7 -18z m2507 -295 c-3 -5
-13 -10 -21 -10 -8 0 -14 5 -14 10 0 6 9 10 21 10 11 0 17 -4 14 -10z m-3375
-40 c0 -5 -5 -10 -11 -10 -5 0 -7 5 -4 10 3 6 8 10 11 10 2 0 4 -4 4 -10z
m3416 -35 c25 -19 14 -19 -22 0 -16 8 -22 15 -13 15 8 0 24 -7 35 -15z m-3511
-135 c3 -5 1 -10 -4 -10 -6 0 -11 5 -11 10 0 6 2 10 4 10 3 0 8 -4 11 -10z
m25 -60 c0 -5 -4 -10 -10 -10 -5 0 -10 5 -10 10 0 6 5 10 10 10 6 0 10 -4 10
-10z m4155 -120 c3 -5 1 -10 -4 -10 -6 0 -11 5 -11 10 0 6 2 10 4 10 3 0 8 -4
11 -10z m11 -188 c-4 -3 -14 2 -24 12 -16 18 -16 18 6 6 13 -6 21 -14 18 -18z
m-4196 -42 c0 -5 -4 -10 -10 -10 -5 0 -10 5 -10 10 0 6 5 10 10 10 6 0 10 -4
10 -10z m3860 -26 c0 -8 -4 -12 -10 -9 -5 3 -10 10 -10 16 0 5 5 9 10 9 6 0
10 -7 10 -16z m-70 -14 c0 -5 -2 -10 -4 -10 -3 0 -8 5 -11 10 -3 6 -1 10 4 10
6 0 11 -4 11 -10z m62 -18 c3 8 6 9 11 1 12 -18 -21 -23 -35 -5 -11 15 -11 16
4 4 13 -10 17 -10 20 0z m-3648 -137 c-6 -16 -24 -21 -24 -7 0 11 11 22 21 22
5 0 6 -7 3 -15z m-44 -139 c0 -2 -7 -9 -15 -16 -12 -10 -15 -10 -15 4 0 9 7
16 15 16 8 0 15 -2 15 -4z m13 -52 c-10 -16 -17 -30 -15 -33 2 -3 -2 -7 -8 -9
-8 -3 -10 3 -5 17 4 14 2 21 -6 21 -7 0 1 11 17 25 34 29 43 18 17 -21z"/>
<path d="M6375 7210 c3 -5 11 -10 16 -10 6 0 7 5 4 10 -3 6 -11 10 -16 10 -6
0 -7 -4 -4 -10z"/>
<path d="M3016 6995 c-3 -8 -1 -15 3 -15 5 0 11 7 15 15 3 8 1 15 -3 15 -5 0
-11 -7 -15 -15z"/>
<path d="M3010 6945 c6 -15 5 -25 0 -27 -6 -2 -14 -18 -19 -36 -12 -39 3 -40
30 -1 20 27 16 74 -7 83 -10 4 -11 0 -4 -19z"/>
<path d="M2947 6783 c-4 -3 -7 -11 -7 -17 0 -6 5 -5 12 2 6 6 9 14 7 17 -3 3
-9 2 -12 -2z"/>
<path d="M6636 6575 c4 -8 8 -15 10 -15 2 0 4 7 4 15 0 8 -4 15 -10 15 -5 0
-7 -7 -4 -15z"/>
<path d="M6723 6525 c7 -14 16 -25 20 -25 9 0 -9 36 -22 44 -5 4 -4 -5 2 -19z"/>
<path d="M5325 6492 c-22 -8 -72 -16 -110 -16 -68 -2 -73 -3 -133 -49 -63 -49
-78 -77 -42 -77 12 0 32 -7 46 -16 21 -14 42 -16 127 -11 56 3 131 15 167 26
108 32 170 42 287 46 116 4 168 16 128 31 -11 4 -22 10 -25 13 -7 8 -85 31
-140 40 -25 5 -57 13 -72 19 -38 16 -185 12 -233 -6z"/>
<path d="M6681 6464 c0 -11 3 -14 6 -6 3 7 2 16 -1 19 -3 4 -6 -2 -5 -13z"/>
<path d="M3780 6423 c-19 -3 -40 -9 -46 -14 -6 -5 -19 -7 -28 -3 -10 4 -16 1
-16 -9 0 -16 -26 -30 -41 -22 -10 7 -108 -18 -135 -33 -17 -10 -16 -12 11 -13
17 -1 38 -2 48 -1 34 3 16 -16 -33 -34 -48 -17 -66 -34 -36 -34 8 0 50 7 93
15 92 18 242 19 368 4 112 -14 158 -14 163 0 2 6 11 11 21 11 9 0 24 9 33 20
17 19 16 20 -8 37 -15 10 -36 27 -48 39 -16 17 -39 23 -106 28 -135 11 -202
14 -240 9z"/>
<path d="M5998 6373 c6 -2 18 -2 25 0 6 3 1 5 -13 5 -14 0 -19 -2 -12 -5z"/>
<path d="M5214 6250 c-48 -24 -116 -90 -93 -90 9 0 24 9 34 20 23 26 39 26 25
1 -21 -40 -9 -42 39 -7 27 20 55 36 63 36 8 0 19 5 26 12 6 6 14 9 18 6 12
-12 -31 -56 -76 -79 -43 -22 -92 -71 -128 -132 -15 -24 -15 -28 -1 -43 12 -11
26 -14 53 -9 20 4 36 11 36 15 0 5 -14 20 -32 35 -25 21 -29 28 -17 36 8 5 22
9 31 9 10 0 22 9 28 20 10 19 78 60 100 60 5 0 10 -13 10 -28 0 -15 13 -49 30
-75 l30 -47 87 0 c107 0 136 12 144 60 8 49 26 80 48 80 20 0 51 -30 51 -48 0
-7 12 -12 28 -12 15 0 38 -3 51 -7 36 -9 22 17 -25 48 -57 38 -165 95 -195
102 -14 4 -31 18 -37 32 -13 29 -27 32 -36 9 -4 -10 -14 -14 -26 -11 -11 3
-23 1 -26 -5 -3 -5 -15 -7 -26 -5 -11 3 -31 2 -44 -3 -20 -8 -24 -6 -24 11 0
11 3 18 8 16 4 -3 16 -1 27 4 13 5 -9 8 -60 8 -61 1 -90 -4 -121 -19z m272
-110 c8 0 14 -5 14 -10 0 -15 -53 -6 -58 10 -3 9 1 11 12 7 10 -4 24 -7 32 -7z
m-68 -38 c4 -26 -19 -30 -39 -6 -10 13 -10 17 2 25 20 13 34 6 37 -19z m132
13 c0 -8 -7 -15 -15 -15 -8 0 -15 7 -15 15 0 8 7 15 15 15 8 0 15 -7 15 -15z
m-372 -117 c-3 -7 -11 -13 -18 -13 -7 0 -15 6 -17 13 -3 7 4 12 17 12 13 0 20
-5 18 -12z"/>
<path d="M3278 6229 c-10 -5 -18 -15 -18 -21 0 -14 50 -1 70 18 12 12 11 14
-10 14 -14 0 -33 -5 -42 -11z"/>
<path d="M7047 6211 c-18 -6 -18 -8 -2 -21 21 -18 43 -62 38 -77 -2 -6 5 -14
16 -18 35 -11 62 -69 76 -166 16 -103 8 -175 -24 -214 -10 -14 -20 -22 -23
-20 -2 2 -5 -14 -7 -37 -1 -23 -8 -69 -16 -102 -37 -153 -9 -103 69 129 68
198 67 182 15 400 -27 111 -74 153 -142 126z"/>
<path d="M3997 6204 c-8 -8 11 -34 24 -34 5 0 18 -9 29 -20 21 -21 70 -27 70
-9 0 7 13 9 38 5 l37 -7 -30 20 c-45 31 -153 59 -168 45z"/>
<path d="M5829 6170 c19 -16 37 -27 40 -24 7 7 -50 54 -64 54 -5 -1 5 -14 24
-30z"/>
<path d="M6612 6166 c1 -20 8 -38 20 -45 21 -13 22 -11 6 40 -14 48 -28 51
-26 5z"/>
<path d="M3785 6112 c-27 -13 -57 -28 -65 -33 -8 -5 -31 -17 -50 -28 -19 -11
-60 -42 -90 -69 -48 -43 -53 -51 -41 -65 12 -15 16 -14 53 6 22 12 44 32 49
44 8 21 63 63 81 63 4 0 12 -18 18 -40 6 -21 26 -56 45 -76 35 -37 35 -37 97
-30 128 14 128 14 154 70 13 28 24 61 24 74 0 12 3 22 6 22 11 0 78 -44 94
-61 10 -12 21 -15 35 -10 19 8 19 8 -4 20 -12 7 -46 30 -74 52 -29 21 -57 39
-63 39 -6 0 -16 6 -22 13 -7 8 -40 13 -87 15 -42 1 -84 6 -93 10 -11 6 -34 0
-67 -16z m113 -68 c12 -4 22 -11 22 -16 0 -14 -53 -5 -58 10 -4 13 2 15 36 6z
m96 -10 c7 -19 -10 -44 -29 -44 -19 0 -38 28 -31 45 7 20 52 19 60 -1z m-156
-16 c18 -18 15 -36 -9 -48 -24 -13 -49 2 -49 30 0 28 37 39 58 18z"/>
<path d="M3565 6090 c-3 -6 1 -7 9 -4 18 7 21 14 7 14 -6 0 -13 -4 -16 -10z"/>
<path d="M6609 6078 c4 -12 13 -24 20 -26 9 -3 9 2 0 22 -15 32 -32 35 -20 4z"/>
<path d="M7075 6060 c3 -5 8 -10 11 -10 2 0 4 5 4 10 0 6 -5 10 -11 10 -5 0
-7 -4 -4 -10z"/>
<path d="M2600 6040 c-12 -12 -20 -34 -21 -57 0 -21 -2 -47 -5 -58 -2 -11 -5
-72 -6 -135 -3 -111 -2 -117 27 -174 34 -66 43 -55 23 26 -9 36 -11 72 -6 113
4 33 10 85 13 115 7 66 35 151 53 157 9 4 10 9 1 19 -17 20 -56 17 -79 -6z"/>
<path d="M6625 6030 c3 -5 8 -10 11 -10 2 0 4 5 4 10 0 6 -5 10 -11 10 -5 0
-7 -4 -4 -10z"/>
<path d="M4198 5963 c-10 -2 -18 -12 -18 -22 0 -9 -6 -23 -12 -30 -11 -10 -3
-12 37 -9 36 2 50 7 50 18 0 10 -8 14 -25 12 -19 -2 -22 0 -12 10 13 13 16 29
5 27 -5 -1 -16 -3 -25 -6z"/>
<path d="M7084 5928 c3 -12 8 -50 11 -82 11 -94 24 -112 23 -31 0 85 -9 127
-26 133 -9 3 -11 -3 -8 -20z"/>
<path d="M4125 5910 c-3 -5 1 -10 9 -10 9 0 16 5 16 10 0 6 -4 10 -9 10 -6 0
-13 -4 -16 -10z"/>
<path d="M6775 5817 c-17 -42 -19 -73 -5 -82 6 -3 10 -15 10 -26 0 -10 4 -19
9 -19 4 0 19 -20 32 -45 13 -25 27 -45 30 -45 16 0 17 32 3 67 -10 24 -14 55
-12 85 4 42 2 50 -23 74 l-29 27 -15 -36z"/>
<path d="M2910 5661 c0 -19 12 -41 20 -36 10 6 1 45 -11 45 -5 0 -9 -4 -9 -9z"/>
<path d="M6901 5434 c-7 -19 -23 -40 -37 -46 -28 -13 -31 -25 -6 -30 44 -9
116 32 94 54 -6 6 -8 17 -5 25 5 13 -11 32 -27 33 -4 0 -12 -16 -19 -36z"/>
<path d="M7081 5434 c0 -11 3 -14 6 -6 3 7 2 16 -1 19 -3 4 -6 -2 -5 -13z"/>
<path d="M6694 5358 c-10 -13 -25 -33 -32 -46 -10 -19 -10 -23 3 -28 31 -12
63 6 82 45 l20 40 -21 5 c-30 8 -31 8 -52 -16z"/>
<path d="M2839 5337 c13 -16 12 -21 -12 -43 -33 -31 -34 -41 -2 -56 19 -8 31
-8 51 1 l27 12 -22 23 c-11 12 -21 29 -21 38 0 9 -8 22 -17 29 -16 13 -17 12
-4 -4z"/>
<path d="M6980 5275 c-7 -8 -8 -15 -2 -15 5 0 15 7 22 15 7 8 8 15 2 15 -5 0
-15 -7 -22 -15z"/>
<path d="M2932 5253 c-18 -7 -5 -23 19 -23 16 0 20 -6 17 -27 -2 -22 3 -29 30
-40 42 -17 43 0 2 45 -16 18 -30 37 -30 43 0 10 -17 11 -38 2z"/>
<path d="M4866 4969 c-32 -25 -33 -40 -2 -76 l24 -27 30 32 c16 17 37 32 46
32 25 0 32 31 11 46 -28 20 -79 17 -109 -7z"/>
<path d="M4330 4965 c-10 -12 -10 -21 -2 -40 12 -27 16 -28 47 -16 12 5 30 3
48 -6 36 -18 34 -2 -4 42 -33 38 -68 45 -89 20z"/>
<path d="M5365 4230 c-16 -4 -48 -8 -70 -9 -22 -1 -46 -5 -53 -10 -8 -4 45 -8
122 -7 134 1 160 7 110 26 -29 11 -65 11 -109 0z"/>
<path d="M4580 4210 c-8 -5 -43 -10 -77 -10 -35 0 -63 -4 -63 -10 0 -5 9 -10
21 -10 11 0 40 -14 64 -31 56 -40 157 -54 220 -30 54 21 113 61 90 61 -9 0
-31 6 -48 14 -39 17 -187 28 -207 16z"/>
<path d="M4867 4193 c-12 -11 -8 -23 7 -23 7 0 19 7 26 15 10 12 9 15 -7 15
-11 0 -23 -3 -26 -7z"/>
<path d="M4023 4177 c-25 -7 -33 -16 -33 -33 0 -13 3 -24 8 -24 4 0 48 5 97
11 106 12 158 26 152 42 -5 15 -179 18 -224 4z"/>
<path d="M6480 3563 c0 -171 -15 -270 -51 -333 -7 -14 -15 -38 -16 -55 -2 -37
-9 -76 -24 -135 -6 -25 -12 -63 -13 -85 -3 -65 -28 -179 -43 -196 -7 -9 -10
-18 -7 -22 3 -3 -1 -27 -10 -53 -8 -25 -13 -50 -10 -55 3 -5 1 -9 -5 -9 -8 0
-22 -58 -26 -102 0 -3 -3 -10 -7 -14 -5 -4 -8 -17 -8 -28 0 -33 -48 -128 -84
-166 -19 -19 -49 -58 -68 -86 -35 -52 -49 -70 -80 -105 -10 -10 -18 -25 -18
-31 -1 -7 -29 -41 -63 -76 -35 -34 -74 -80 -88 -101 -13 -21 -39 -48 -57 -60
-21 -14 -32 -28 -28 -37 3 -8 2 -14 -3 -14 -13 0 -91 -76 -91 -89 0 -22 -221
-230 -251 -236 -16 -4 -38 -20 -50 -37 -12 -16 -39 -43 -61 -59 -22 -15 -52
-48 -67 -71 -16 -24 -44 -63 -64 -86 -21 -24 -37 -52 -37 -61 0 -22 -80 -89
-103 -85 -14 2 -17 -5 -17 -39 0 -23 -15 -81 -35 -132 -19 -49 -41 -119 -50
-154 -25 -97 -52 -163 -80 -193 -31 -33 -45 -35 -45 -8 0 18 -11 25 -34 21
-20 -4 -45 11 -40 24 3 7 -3 16 -15 20 -12 3 -21 10 -21 15 0 5 -9 12 -21 15
-15 5 -18 10 -10 18 18 18 13 25 -15 19 -20 -4 -26 0 -31 17 -4 15 -11 20 -21
16 -8 -3 -19 0 -23 7 -6 10 -15 9 -39 -5 l-31 -19 -79 77 c-64 63 -82 87 -94
129 -28 93 -48 171 -51 203 -2 17 -10 46 -18 65 -7 18 -19 60 -26 93 -7 33
-18 74 -25 90 -7 17 -19 51 -27 78 -7 26 -16 47 -20 47 -6 0 -8 10 -12 58 -2
15 -8 37 -15 50 -7 12 -10 22 -6 22 4 0 0 8 -8 18 -18 19 -68 123 -68 140 0 6
-16 31 -35 56 -19 26 -35 50 -35 55 0 5 -13 23 -30 39 -16 17 -30 35 -30 40 0
16 -23 55 -58 100 -19 23 -35 48 -36 56 -1 7 -14 28 -29 45 -28 34 -34 51 -17
51 6 0 15 -11 20 -25 5 -14 14 -25 20 -25 16 0 13 8 -25 65 -21 31 -33 59 -29
68 3 9 -1 29 -10 44 -34 63 -66 154 -71 203 0 3 -10 20 -23 37 -17 24 -19 31
-8 27 16 -6 23 11 8 20 -8 5 -48 103 -107 261 -15 39 -33 84 -40 100 -31 67
-67 239 -86 405 -11 96 -21 189 -21 205 0 17 -3 34 -6 38 -6 12 -111 -92 -181
-178 -31 -39 -85 -121 -121 -183 -63 -110 -123 -207 -205 -332 -201 -306 -256
-387 -315 -465 -87 -115 -93 -120 -170 -146 -73 -25 -75 -26 -255 -104 -71
-31 -134 -60 -140 -65 -12 -10 -99 -43 -290 -110 -282 -99 -422 -149 -520
-185 -55 -20 -117 -42 -138 -49 l-38 -12 83 -99 c261 -315 646 -658 1008 -899
1313 -874 2963 -1047 4437 -465 205 81 548 254 738 371 338 210 586 408 893
715 123 123 222 227 220 232 -2 5 -79 48 -173 96 -93 49 -205 107 -248 131
-43 24 -144 77 -225 118 -142 72 -275 144 -336 183 -18 11 -44 46 -66 88 -41
80 -200 420 -200 429 0 3 -36 81 -81 173 -212 438 -264 532 -357 641 -67 79
-188 178 -254 210 -5 2 -8 -72 -8 -165z m-2756 -1366 c3 3 6 1 6 -4 0 -6 -6
-13 -12 -16 -16 -5 2 -42 43 -87 16 -17 31 -41 33 -52 1 -12 13 -29 25 -39 12
-10 20 -23 16 -29 -3 -5 0 -10 7 -10 10 0 10 -2 -1 -9 -12 -8 -11 -13 6 -35
11 -14 23 -23 26 -19 4 3 2 -8 -2 -25 -7 -23 -6 -32 5 -36 8 -3 14 -12 14 -20
0 -8 6 -21 13 -28 6 -8 20 -29 30 -47 15 -29 15 -33 2 -27 -13 5 -15 1 -10
-17 12 -41 30 -77 38 -77 5 0 5 -4 2 -10 -3 -5 2 -21 11 -35 9 -14 14 -25 11
-25 -3 0 3 -26 14 -57 12 -32 23 -71 26 -88 3 -16 9 -35 14 -41 6 -7 12 -21
14 -32 3 -16 0 -19 -13 -15 -15 6 -14 3 2 -15 11 -12 16 -22 11 -22 -4 0 -2
-7 5 -15 7 -9 14 -33 15 -53 1 -21 7 -48 14 -59 6 -12 8 -29 5 -37 -3 -9 1
-23 10 -31 17 -18 22 -65 6 -65 -5 0 -7 6 -4 13 3 9 -4 13 -22 12 -26 0 -28 3
-40 75 -7 41 -15 90 -18 110 -17 118 -51 220 -94 283 -19 26 -43 68 -54 94
-11 25 -46 78 -77 117 -76 94 -97 132 -105 186 -10 74 -12 150 -3 150 4 0 4 8
-1 18 -12 23 -24 117 -16 125 4 3 14 2 24 -3 10 -5 20 -6 24 -3z m1586 -1068
c0 -6 -4 -7 -10 -4 -5 3 -10 11 -10 16 0 6 5 7 10 4 6 -3 10 -11 10 -16z
m-1320 -70 c0 -6 -4 -7 -10 -4 -5 3 -10 11 -10 16 0 6 5 7 10 4 6 -3 10 -11
10 -16z m-15 -49 c3 -5 -1 -10 -10 -10 -9 0 -13 5 -10 10 3 6 8 10 10 10 2 0
7 -4 10 -10z m193 -155 c99 -42 141 -143 92 -222 -63 -104 -270 -13 -270 119
0 25 8 46 27 68 43 52 86 61 151 35z m809 -77 c-3 -8 -6 -5 -6 6 -1 11 2 17 5
13 3 -3 4 -12 1 -19z m-16 -81 c-13 -13 -15 21 -3 50 6 15 8 13 10 -11 2 -16
-1 -33 -7 -39z m-19 -59 c-6 -6 -7 0 -4 19 5 21 7 23 10 9 2 -10 0 -22 -6 -28z
m-27 -67 c-21 -43 -29 -39 -8 4 9 19 18 33 21 31 2 -2 -4 -18 -13 -35z m868
-243 c4 -31 4 -78 0 -105 -8 -44 -11 -48 -40 -51 -45 -4 -73 34 -73 102 0 73
32 119 80 114 22 -3 26 -9 33 -60z m-2103 21 c0 -5 -4 -9 -10 -9 -5 0 -10 7
-10 16 0 8 5 12 10 9 6 -3 10 -10 10 -16z"/>
<path d="M3682 2180 c0 -14 2 -19 5 -12 2 6 2 18 0 25 -3 6 -5 1 -5 -13z"/>
<path d="M4100 3051 c0 -5 7 -11 15 -15 8 -3 15 -1 15 3 0 5 -7 11 -15 15 -8
3 -15 1 -15 -3z"/>
<path d="M4150 3012 c0 -5 6 -13 13 -16 6 -3 26 -15 42 -26 91 -58 181 -102
270 -130 55 -18 109 -36 120 -41 29 -13 150 -29 221 -29 60 0 223 29 274 48
21 8 22 11 8 17 -9 3 -27 0 -40 -8 -18 -12 -35 -13 -82 -6 -34 6 -63 6 -70 1
-19 -15 -242 -7 -268 10 -13 8 -46 17 -74 20 -33 3 -86 22 -155 56 -57 28
-116 54 -131 58 -16 3 -28 12 -28 19 0 7 -15 15 -32 18 -18 3 -41 8 -50 12
-10 4 -18 3 -18 -3z"/>
<path d="M5230 2885 c-7 -8 -19 -15 -27 -15 -18 0 -76 -30 -70 -36 7 -7 106
23 123 37 14 11 10 29 -5 29 -5 0 -14 -7 -21 -15z"/>
</g>
</svg>
