<?xml version="1.0" standalone="no"?>
<!DOCTYPE svg PUBLIC "-//W3C//DTD SVG 20010904//EN"
 "http://www.w3.org/TR/2001/REC-SVG-20010904/DTD/svg10.dtd">
<svg version="1.0" xmlns="http://www.w3.org/2000/svg"
 width="960.000000pt" height="960.000000pt" viewBox="0 0 960.000000 960.000000"
 preserveAspectRatio="xMidYMid meet">
<g transform="translate(0.000000,960.000000) scale(0.100000,-0.100000)"
fill="#000000" stroke="none">
<path d="M4945 9234 c-37 -9 -148 -15 -285 -18 -263 -4 -282 -9 -480 -109 -69
-34 -152 -69 -185 -77 -65 -15 -135 -45 -135 -59 0 -12 -72 -40 -131 -51 -61
-12 -205 -67 -224 -86 -8 -9 -19 -13 -24 -9 -5 3 -12 2 -15 -3 -3 -5 -19 -7
-36 -4 -25 4 -32 0 -37 -16 -4 -17 -11 -20 -34 -15 -28 5 -64 -11 -97 -44 -7
-7 -20 -13 -27 -13 -24 0 -62 -62 -78 -129 -9 -35 -18 -66 -20 -68 -3 -2 -17
-6 -33 -9 -30 -5 -74 -40 -74 -58 0 -6 5 -5 12 2 15 15 28 16 28 2 0 -5 -10
-12 -22 -16 -25 -6 -73 -66 -108 -134 -13 -25 -33 -59 -46 -76 -13 -17 -24
-41 -24 -53 0 -13 -11 -51 -25 -85 -33 -82 -55 -157 -45 -151 12 8 21 -11 14
-29 -8 -21 -21 -20 -28 2 -3 9 -4 3 -2 -15 1 -21 -3 -34 -12 -38 -8 -3 -11
-12 -8 -21 4 -9 1 -23 -5 -30 -7 -9 -10 -34 -7 -64 4 -44 2 -51 -18 -65 -13
-9 -24 -24 -24 -35 0 -11 -4 -20 -9 -20 -16 0 -23 -40 -11 -55 10 -12 10 -18
0 -30 -8 -9 -11 -30 -8 -53 4 -23 0 -45 -8 -56 -7 -10 -10 -24 -8 -31 3 -7 1
-16 -5 -20 -17 -10 -13 -107 9 -205 19 -85 20 -141 6 -250 -5 -41 -5 -42 6
-17 14 32 33 37 23 5 -4 -13 -9 -59 -11 -103 -2 -44 -5 -91 -8 -105 -3 -14 4
-5 15 20 12 25 23 40 25 34 6 -15 -41 -96 -50 -87 -5 5 -6 -1 -4 -12 2 -11 10
-19 16 -18 8 2 11 -8 8 -30 -2 -17 5 -54 15 -80 11 -28 19 -73 19 -110 0 -76
8 -107 26 -107 16 0 19 -16 4 -25 -7 -4 -7 -12 0 -25 5 -10 10 -28 10 -39 0
-17 -6 -21 -30 -21 -16 0 -30 -3 -30 -7 0 -10 54 -53 97 -78 31 -18 33 -18 52
-1 12 11 21 14 26 7 9 -16 25 -13 19 3 -3 8 0 17 6 21 8 5 9 10 2 14 -6 3 -8
18 -5 33 3 16 10 25 16 21 6 -4 7 -1 2 7 -4 7 -8 29 -7 49 1 34 0 35 -13 17
-14 -19 -15 -18 -14 15 0 19 3 28 6 21 9 -22 23 -1 23 35 0 32 -2 35 -25 31
-29 -6 -30 -3 -9 47 12 30 13 44 5 62 -18 38 -13 73 14 105 14 16 23 33 20 38
-3 4 2 10 10 14 8 3 15 15 15 27 0 13 17 38 41 60 23 21 39 44 37 51 -3 7 6
21 19 31 22 18 28 56 10 73 -11 11 -8 102 3 109 6 3 10 15 10 26 0 10 5 19 10
19 6 0 10 7 10 16 0 10 -5 12 -12 7 -19 -11 -38 -13 -38 -3 0 5 8 14 18 20 14
9 13 10 -6 5 -20 -6 -23 -4 -20 12 2 10 11 17 21 17 9 -1 18 3 18 10 2 13 5
29 8 36 5 10 11 56 11 79 0 13 7 32 15 41 15 17 39 119 30 128 -3 3 2 16 11
30 8 13 13 26 10 29 -3 3 15 32 40 64 25 33 42 64 39 69 -3 6 -2 10 2 10 10 0
46 58 50 80 1 8 12 23 25 33 13 9 40 31 62 49 31 25 42 29 56 20 20 -12 63 -5
54 9 -3 5 7 9 21 9 15 0 35 5 46 11 11 6 41 11 67 11 26 1 52 5 59 10 7 5 14
5 18 -2 7 -12 45 -14 45 -2 0 16 105 41 193 46 49 4 99 9 112 12 13 3 31 1 42
-4 21 -12 123 5 123 20 0 5 12 0 26 -11 34 -27 44 -26 44 2 0 20 2 20 25 -10
33 -41 76 -56 104 -37 25 18 41 11 41 -17 0 -10 6 -20 13 -20 28 -3 53 4 69
18 14 13 17 12 23 -6 6 -19 38 -29 70 -21 6 2 37 4 69 6 33 2 64 8 70 14 6 6
6 10 0 10 -5 0 4 7 20 15 15 8 38 12 50 9 14 -3 36 4 61 22 26 18 55 28 81 29
25 1 54 11 73 24 17 12 36 19 41 16 6 -4 17 -1 25 5 11 9 15 9 15 1 0 -17 31
-13 52 6 18 16 18 16 12 0 -3 -9 -1 -17 4 -17 22 0 66 22 82 40 21 24 32 15
23 -19 -6 -26 -6 -26 15 -8 13 12 32 18 54 16 18 -2 44 3 58 11 14 7 38 13 53
12 25 -2 84 10 123 25 8 3 14 -1 14 -11 0 -9 8 -16 20 -16 24 0 27 18 5 26
-12 5 -13 10 -4 20 13 16 33 19 24 4 -11 -19 18 -50 42 -44 23 6 33 -11 11
-18 -26 -9 5 -27 57 -33 31 -4 58 -11 61 -16 3 -5 14 -9 25 -9 10 0 19 -4 19
-9 0 -5 14 -12 31 -16 17 -4 40 -12 52 -18 44 -24 117 -81 117 -92 0 -6 16
-25 35 -40 24 -20 31 -32 22 -37 -9 -5 -6 -12 9 -23 31 -21 66 -83 51 -88 -8
-3 -7 -10 5 -23 9 -10 20 -32 24 -47 3 -16 13 -31 21 -34 11 -4 12 -8 3 -13
-9 -5 -4 -24 18 -68 20 -43 26 -64 19 -71 -8 -8 0 -21 24 -43 40 -37 83 -98
59 -83 -8 5 -25 10 -38 11 l-23 3 25 -20 c14 -11 26 -28 26 -37 0 -12 -3 -13
-12 -4 -24 24 -29 11 -8 -18 12 -16 26 -30 32 -30 7 0 6 5 -1 14 -19 23 4 28
24 6 10 -11 13 -20 8 -20 -6 0 -14 -7 -17 -16 -3 -8 -2 -13 3 -10 9 6 38 -20
61 -54 18 -27 57 -75 85 -105 20 -21 45 -68 45 -85 0 -5 -7 -7 -15 -4 -20 8
-19 4 11 -63 15 -32 32 -76 39 -98 7 -22 18 -39 25 -37 7 1 9 -5 5 -17 -3 -12
3 -29 18 -47 24 -30 41 -63 39 -76 -1 -5 2 -8 8 -8 5 0 10 -4 10 -10 0 -21
-20 -9 -26 15 -3 14 -10 25 -14 25 -5 0 -12 9 -15 20 -7 23 -45 27 -45 5 0 -8
5 -15 10 -15 6 0 10 -9 10 -20 0 -11 7 -20 15 -20 8 0 16 -8 16 -17 4 -51 7
-65 19 -76 10 -9 11 -7 6 10 -4 13 -2 24 6 29 14 9 51 14 43 6 -3 -3 3 -11 13
-19 15 -13 14 -14 -10 -8 -16 3 -28 1 -28 -5 0 -5 4 -10 8 -10 4 0 16 -13 25
-30 11 -18 14 -30 7 -30 -6 0 -9 -4 -6 -8 2 -4 7 -32 11 -62 3 -29 8 -57 11
-62 9 -15 37 -8 70 17 18 14 36 25 41 25 4 0 24 14 43 31 34 30 34 30 9 25
-19 -4 -29 -1 -33 10 -8 21 -8 39 1 30 11 -10 36 94 34 139 -1 22 -6 42 -12
43 -5 2 -14 13 -21 25 -10 20 -10 21 6 8 16 -14 16 -12 0 29 -24 58 -24 135
-2 152 15 11 16 28 13 118 -2 58 -4 115 -4 127 -1 12 -5 33 -10 46 -7 18 -5
26 9 35 15 9 17 17 10 42 -5 17 -6 38 -3 46 3 8 -2 32 -11 53 -29 74 -28 109
2 79 15 -15 15 -6 1 81 -18 111 -30 154 -54 203 -30 61 -68 213 -61 244 7 27
-3 51 -43 104 -26 35 -28 38 -30 65 0 8 -6 15 -11 15 -6 0 -20 9 -32 20 -18
16 -19 20 -5 20 8 0 19 -4 22 -10 3 -5 11 -10 17 -10 7 0 5 7 -4 18 -19 23
-40 73 -33 80 2 3 0 11 -7 19 -8 10 -7 17 6 26 16 12 12 18 -39 67 -32 29 -59
58 -60 64 -12 44 -19 56 -37 56 -17 0 -19 5 -15 27 9 50 -68 153 -116 153 -23
0 -42 13 -87 62 -48 50 -59 69 -63 105 -6 54 -13 63 -84 99 -31 16 -70 44 -86
62 -23 25 -37 32 -67 32 -21 0 -43 7 -50 15 -7 8 -22 15 -34 15 -11 0 -58 20
-104 45 -45 24 -99 47 -120 51 -20 4 -50 13 -66 21 -16 8 -61 16 -100 18 -39
1 -99 12 -133 24 -34 12 -73 21 -85 21 -26 1 -106 26 -193 62 -78 33 -127 38
-200 22z m1411 -659 c-8 -23 -25 -9 -19 16 4 13 9 17 16 10 5 -5 7 -17 3 -26z
m119 -65 c3 -5 2 -10 -4 -10 -5 0 -13 5 -16 10 -3 6 -2 10 4 10 5 0 13 -4 16
-10z m-3415 -100 c0 -5 -4 -10 -10 -10 -5 0 -10 5 -10 10 0 6 5 10 10 10 6 0
10 -4 10 -10z m10 -50 c0 -5 -4 -10 -10 -10 -5 0 -10 5 -10 10 0 6 5 10 10 10
6 0 10 -4 10 -10z m2640 -234 c0 -2 -7 -9 -15 -16 -13 -11 -14 -10 -9 4 5 14
24 23 24 12z m65 -96 c3 -5 1 -10 -4 -10 -6 0 -11 5 -11 10 0 6 2 10 4 10 3 0
8 -4 11 -10z m89 -46 c5 -14 4 -15 -9 -4 -17 14 -19 20 -6 20 5 0 12 -7 15
-16z m-3124 -444 c0 -5 -4 -10 -10 -10 -5 0 -10 5 -10 10 0 6 5 10 10 10 6 0
10 -4 10 -10z m4160 -300 c0 -5 -2 -10 -4 -10 -3 0 -8 5 -11 10 -3 6 -1 10 4
10 6 0 11 -4 11 -10z m-392 -181 c-3 -8 -7 -3 -11 10 -4 17 -3 21 5 13 5 -5 8
-16 6 -23z m27 -39 c3 -5 1 -10 -4 -10 -6 0 -11 5 -11 10 0 6 2 10 4 10 3 0 8
-4 11 -10z m-3569 -88 c-18 -16 -18 -16 -6 6 6 13 14 21 18 18 3 -4 -2 -14
-12 -24z m-3 -49 c-3 -7 -6 -13 -8 -13 -2 0 -5 6 -8 13 -3 8 1 14 8 14 7 0 11
-6 8 -14z m8 -106 c-10 -9 -11 -8 -5 6 3 10 9 15 12 12 3 -3 0 -11 -7 -18z
m-31 -47 c-6 -11 -13 -20 -16 -20 -2 0 0 9 6 20 6 11 13 20 16 20 2 0 0 -9 -6
-20z m-58 -112 c-7 -7 -12 -8 -12 -2 0 14 12 26 19 19 2 -3 -1 -11 -7 -17z
m3996 -271 c6 3 12 0 12 -6 0 -20 -29 -11 -40 12 -9 19 -9 20 2 6 7 -9 19 -14
26 -12z"/>
<path d="M6497 6959 c4 -13 8 -18 11 -10 2 7 -1 18 -6 23 -8 8 -9 4 -5 -13z"/>
<path d="M5385 6519 c-38 -3 -83 -12 -100 -18 -16 -7 -46 -10 -66 -7 -48 8
-90 -8 -156 -57 -69 -52 -69 -70 2 -96 75 -28 153 -27 278 5 56 14 127 32 157
39 59 15 221 20 395 12 33 -1 66 -6 74 -11 7 -5 46 -11 85 -13 89 -5 69 12
-24 21 -48 4 -68 11 -78 25 -10 15 -21 18 -47 14 -19 -3 -45 -3 -58 1 -20 5
-23 11 -19 35 4 32 -3 37 -70 45 -21 3 -38 1 -38 -4 0 -6 6 -10 14 -10 8 0 27
-5 43 -11 19 -7 24 -12 14 -18 -16 -10 -68 0 -161 32 -77 27 -105 29 -245 16z"/>
<path d="M5846 6487 c6 -16 64 -21 64 -5 0 5 -7 8 -15 5 -8 -4 -17 -2 -20 3
-9 15 -35 12 -29 -3z"/>
<path d="M3710 6435 c-124 -16 -113 -13 -105 -24 7 -13 -33 -34 -51 -27 -8 3
-14 2 -14 -2 0 -4 -14 -13 -32 -20 -25 -9 -30 -14 -20 -24 7 -7 12 -15 12 -19
0 -11 -58 -32 -69 -25 -5 4 -12 2 -16 -4 -3 -5 -21 -10 -38 -10 -40 0 -121
-42 -126 -65 -5 -28 57 -11 95 26 31 30 35 31 87 25 37 -5 81 -2 132 9 94 19
360 21 455 2 86 -16 118 -12 158 22 l34 27 -31 45 c-35 53 -79 71 -164 68 -29
-1 -86 1 -127 4 -41 3 -122 -1 -180 -8z"/>
<path d="M6628 6374 c-3 -3 -4 -27 -1 -54 2 -29 -1 -51 -7 -55 -7 -5 -5 -12 7
-22 17 -13 16 -14 -10 -8 -26 5 -28 4 -22 -15 14 -43 13 -90 -1 -90 -16 0 -19
-16 -4 -25 6 -4 8 -10 6 -14 -3 -4 -1 -13 4 -21 5 -9 5 -20 -2 -28 -8 -9 -8
-16 1 -25 10 -9 11 -8 5 8 -6 18 -5 18 16 -3 12 -13 24 -21 26 -19 4 4 -6 52
-22 106 -9 30 13 20 27 -13 7 -16 7 -13 3 14 -8 53 -7 70 10 135 13 52 13 61
1 75 -8 9 -15 24 -15 33 0 17 -14 30 -22 21z"/>
<path d="M5240 6276 c-19 -7 -46 -18 -60 -24 -23 -9 -100 -84 -100 -97 0 -12
56 9 72 26 24 28 31 23 13 -11 -22 -42 0 -40 52 5 23 19 51 35 62 35 36 0 23
-20 -30 -45 -76 -35 -162 -156 -131 -187 13 -13 139 3 133 17 -2 6 -13 9 -23
7 -18 -3 -67 34 -68 51 0 4 10 7 23 7 14 0 32 12 45 29 23 31 79 64 93 55 5
-3 9 -15 9 -27 0 -12 11 -40 24 -61 13 -22 22 -46 19 -53 -4 -10 16 -13 91
-13 121 0 152 13 161 68 8 46 25 82 39 82 18 0 56 -30 56 -44 0 -14 101 -38
113 -27 11 10 -29 43 -98 81 -131 71 -148 80 -162 80 -7 0 -18 11 -23 25 -11
28 -37 33 -46 10 -4 -8 -10 -15 -15 -15 -5 0 -9 7 -9 15 0 8 -7 15 -15 15 -9
0 -12 -6 -8 -16 4 -12 0 -15 -18 -12 -13 1 -23 7 -21 13 8 24 -122 33 -178 11z
m248 -126 c10 0 13 -3 6 -10 -11 -11 -54 -2 -54 12 0 6 7 7 16 4 9 -3 23 -6
32 -6z m62 -26 c0 -17 -22 -14 -28 4 -2 7 3 12 12 12 9 0 16 -7 16 -16z m-130
-15 c0 -25 -33 -22 -38 4 -2 12 3 17 17 17 15 0 21 -6 21 -21z m-250 -104 c0
-9 -6 -12 -16 -8 -13 5 -13 7 -2 14 17 11 18 11 18 -6z"/>
<path d="M7047 6221 c-18 -6 -18 -8 -2 -21 22 -18 43 -62 38 -77 -3 -7 0 -13
6 -13 18 0 72 -60 77 -85 2 -14 6 -42 9 -63 2 -20 7 -56 10 -80 11 -67 -29
-193 -55 -177 -3 2 -7 -15 -9 -37 -1 -23 -8 -69 -16 -102 -19 -79 -18 -100 1
-56 9 19 17 40 18 45 1 6 4 15 8 20 3 6 26 74 51 153 l46 142 -14 94 c-33 222
-79 292 -168 257z"/>
<path d="M3958 6213 c-21 -2 -38 -8 -38 -13 0 -8 27 -23 45 -25 6 -1 24 -8 40
-17 17 -9 49 -20 70 -24 22 -4 51 -15 64 -26 13 -10 27 -16 30 -12 3 3 -2 11
-12 18 -17 13 -24 36 -9 36 4 -1 18 -7 32 -15 40 -23 54 -19 33 10 -38 51
-148 81 -255 68z"/>
<path d="M5790 6207 c0 -8 92 -69 96 -64 7 7 -68 67 -83 67 -7 0 -13 -1 -13
-3z"/>
<path d="M3821 6157 c-6 -15 -19 -30 -28 -33 -28 -9 -66 -27 -93 -45 -84 -54
-116 -76 -147 -105 -31 -28 -33 -34 -22 -52 13 -21 13 -21 61 6 29 16 48 34
48 44 0 14 67 68 84 68 2 0 7 -12 11 -27 7 -31 39 -85 62 -108 18 -18 101 -20
170 -4 44 10 50 15 71 60 12 26 22 57 22 69 0 13 7 20 18 20 28 0 92 -61 95
-90 2 -22 -2 -25 -35 -28 -68 -6 -40 -22 37 -22 116 0 112 20 -29 145 -6 6
-41 25 -76 42 -53 27 -79 33 -140 35 -68 3 -76 5 -87 28 l-12 24 -10 -27z m90
-107 c5 0 9 -5 9 -10 0 -8 -29 -9 -58 -1 -2 1 0 6 3 12 4 6 14 8 22 5 8 -3 19
-6 24 -6z m78 -4 c9 -11 8 -18 -4 -30 -20 -20 -29 -20 -45 -1 -10 12 -10 18 0
30 16 19 34 19 49 1z m-145 -32 c9 -22 -1 -34 -29 -34 -27 0 -39 14 -31 35 7
20 52 19 60 -1z m366 -34 c0 -5 -7 -10 -15 -10 -8 0 -15 5 -15 10 0 6 7 10 15
10 8 0 15 -4 15 -10z"/>
<path d="M3554 6096 c-28 -19 -59 -47 -69 -63 -16 -26 -14 -25 21 8 22 20 54
45 72 55 17 10 32 22 32 26 0 11 0 11 -56 -26z"/>
<path d="M2921 6104 c0 -11 3 -14 6 -6 3 7 2 16 -1 19 -3 4 -6 -2 -5 -13z"/>
<path d="M2912 6069 c2 -6 8 -10 13 -10 5 0 11 4 13 10 2 6 -4 11 -13 11 -9 0
-15 -5 -13 -11z"/>
<path d="M2600 6050 c-11 -11 -20 -32 -21 -47 0 -16 -2 -35 -3 -43 -2 -8 -6
-65 -10 -127 -8 -120 1 -164 44 -235 16 -27 20 -29 20 -12 0 11 -6 42 -14 67
-11 36 -12 64 -5 115 5 37 11 92 14 122 6 57 41 150 58 150 5 0 4 7 -3 15 -17
21 -56 19 -80 -5z"/>
<path d="M7093 5879 c10 -116 29 -146 23 -35 -3 49 -11 94 -17 100 -9 8 -10
-7 -6 -65z"/>
<path d="M6770 5816 c-10 -35 -9 -51 1 -80 7 -20 16 -36 20 -36 4 0 14 -16 23
-35 10 -20 21 -33 26 -30 6 3 7 -1 4 -9 -3 -9 -2 -16 4 -16 19 0 21 31 6 77
-10 30 -14 63 -10 90 5 38 3 44 -23 63 -16 11 -31 20 -34 20 -2 0 -10 -20 -17
-44z"/>
<path d="M2900 5681 c0 -24 21 -61 35 -61 19 0 19 4 0 40 -15 29 -35 40 -35
21z"/>
<path d="M6910 5475 c0 -24 -47 -85 -66 -85 -25 0 -15 -17 13 -23 30 -6 86 13
98 33 8 13 -3 85 -12 76 -3 -3 -12 -1 -20 5 -10 9 -13 7 -13 -6z"/>
<path d="M6694 5368 c-54 -65 -50 -99 10 -74 25 10 40 25 47 46 6 16 15 30 21
30 5 0 6 5 3 10 -11 18 -61 11 -81 -12z"/>
<path d="M2835 5340 c5 -16 1 -26 -14 -36 -28 -20 -26 -42 4 -56 18 -8 31 -8
50 0 l24 11 -25 45 c-29 51 -50 71 -39 36z"/>
<path d="M7019 5323 c-13 -16 -12 -17 4 -4 9 7 17 15 17 17 0 8 -8 3 -21 -13z"/>
<path d="M6974 5279 c-19 -22 -19 -22 3 -10 24 12 39 31 25 31 -5 0 -17 -10
-28 -21z"/>
<path d="M2927 5263 c-12 -12 -7 -22 13 -28 15 -5 19 -12 15 -26 -5 -15 1 -23
29 -34 19 -8 38 -15 41 -15 13 0 2 27 -27 66 -31 40 -55 53 -71 37z"/>
<path d="M2775 5150 c3 -5 8 -10 11 -10 2 0 4 5 4 10 0 6 -5 10 -11 10 -5 0
-7 -4 -4 -10z"/>
<path d="M4868 4984 c-32 -17 -34 -33 -13 -74 20 -38 34 -38 70 0 16 17 37 30
46 30 29 0 34 22 9 42 -27 22 -75 23 -112 2z"/>
<path d="M4333 4983 c-17 -6 -16 -48 1 -62 8 -7 25 -9 40 -5 17 4 35 0 52 -11
35 -23 40 -13 14 30 -30 49 -66 65 -107 48z"/>
<path d="M5375 4245 c-27 -7 -73 -14 -102 -14 -28 -1 -55 -5 -58 -11 -4 -6 48
-9 145 -7 82 1 150 5 150 9 0 10 -29 24 -60 30 -14 3 -47 -1 -75 -7z"/>
<path d="M4555 4219 c-16 -5 -49 -8 -72 -7 -47 2 -67 -8 -37 -18 51 -16 74
-27 74 -34 0 -11 57 -31 100 -36 19 -2 47 -6 62 -9 30 -5 89 17 127 46 13 10
35 19 50 19 30 0 59 16 48 26 -4 4 -24 2 -45 -5 -33 -11 -43 -11 -69 2 -36 19
-195 29 -238 16z"/>
<path d="M4098 4201 c-101 -7 -128 -23 -108 -61 9 -17 17 -20 38 -15 14 3 57
9 96 11 38 3 78 12 90 20 11 7 31 14 43 14 13 0 23 4 23 8 0 13 -47 32 -73 30
-12 0 -61 -4 -109 -7z"/>
<path d="M6480 3578 c0 -184 -10 -233 -64 -338 -19 -37 -36 -76 -38 -86 -2
-11 -7 -22 -13 -26 -6 -5 -5 -12 3 -20 14 -14 17 -98 3 -98 -18 0 -27 -74 -16
-127 4 -17 2 -21 -10 -16 -13 4 -15 0 -9 -21 4 -16 1 -32 -6 -41 -7 -8 -14
-29 -16 -47 -2 -17 -8 -36 -13 -42 -4 -6 -9 -26 -9 -45 0 -18 -8 -41 -17 -51
-9 -10 -15 -24 -14 -32 5 -24 -11 -117 -21 -123 -6 -4 -8 -10 -5 -15 10 -16
-19 -76 -55 -115 -31 -34 -86 -103 -185 -234 -11 -14 -24 -31 -30 -38 -5 -7
-28 -33 -50 -59 -22 -26 -73 -80 -112 -119 -40 -40 -73 -79 -73 -87 0 -9 -6
-18 -14 -21 -8 -3 -39 -38 -69 -79 -88 -115 -164 -188 -222 -212 -17 -7 -39
-25 -48 -40 -10 -14 -36 -39 -58 -55 -22 -16 -52 -47 -66 -68 -14 -21 -43 -58
-64 -82 -22 -24 -39 -52 -39 -62 0 -19 -63 -83 -83 -85 -7 0 -20 -2 -29 -2
-13 -2 -16 -10 -12 -34 3 -31 -13 -107 -26 -118 -3 -3 -26 -72 -50 -153 -24
-81 -47 -150 -52 -153 -4 -3 -8 -14 -8 -24 0 -16 -7 -19 -40 -17 -22 1 -40 5
-40 10 0 4 5 5 12 1 7 -4 8 -3 4 5 -5 7 -18 11 -29 10 -43 -3 -54 1 -34 12 19
11 23 29 5 29 -26 0 -47 31 -41 63 3 25 0 35 -16 45 -12 7 -21 8 -21 3 0 -6 8
-15 18 -20 10 -6 12 -11 4 -11 -7 0 -11 -4 -8 -9 3 -5 -2 -12 -11 -16 -10 -3
-19 -2 -21 4 -2 5 -10 7 -18 4 -8 -3 -14 1 -14 11 0 9 -7 16 -15 16 -8 0 -15
9 -15 21 0 14 -6 19 -17 17 -10 -1 -24 1 -30 5 -9 5 -13 2 -13 -9 0 -13 -3
-14 -15 -4 -12 10 -15 9 -15 -6 0 -11 -4 -25 -9 -33 -8 -12 -23 -1 -76 50 -66
64 -66 65 -96 174 -17 61 -34 130 -38 155 -5 25 -16 71 -25 102 -9 32 -18 72
-21 89 -3 18 -11 41 -17 53 -11 20 -18 50 -21 89 -1 9 -5 17 -9 17 -4 0 -8 9
-8 20 0 10 -6 23 -12 27 -7 4 -14 19 -15 33 -3 42 -15 84 -28 100 -7 8 -25 44
-40 80 -15 36 -33 72 -41 81 -8 8 -14 21 -14 27 0 7 -4 12 -9 12 -5 0 -21 24
-35 53 -13 29 -34 61 -45 71 -12 11 -21 24 -21 30 0 6 -15 29 -32 51 -33 40
-44 92 -23 108 6 4 1 7 -10 5 -15 -2 -19 2 -17 18 1 11 -7 29 -18 39 -24 22
-29 55 -5 35 17 -15 19 -7 5 21 -6 10 -17 19 -25 19 -9 0 -15 10 -15 24 0 13
-5 26 -10 28 -6 2 -11 22 -13 45 -1 24 -8 45 -15 48 -7 3 -12 13 -10 22 3 21
-19 81 -40 105 -8 10 -12 26 -9 37 3 11 -1 28 -9 38 -7 10 -14 26 -14 35 0 9
-6 23 -13 30 -7 7 -19 29 -27 48 -7 19 -28 68 -47 108 -18 40 -33 78 -33 85 0
7 -6 21 -13 32 -7 11 -21 47 -30 80 -50 182 -56 216 -77 440 -6 66 -14 126
-16 134 -6 19 -137 -110 -203 -199 -27 -36 -81 -121 -121 -190 -39 -69 -100
-168 -134 -220 -35 -52 -80 -122 -101 -155 -21 -33 -47 -73 -58 -90 -12 -16
-48 -70 -81 -120 -66 -100 -166 -235 -204 -277 -15 -17 -51 -36 -91 -48 -36
-12 -75 -26 -86 -31 -96 -43 -251 -109 -258 -109 -5 0 -21 -9 -36 -20 -32 -22
-102 -49 -311 -120 -141 -48 -311 -109 -515 -185 -55 -21 -117 -42 -137 -48
-21 -6 -38 -14 -38 -17 0 -16 177 -218 310 -354 389 -400 791 -694 1290 -945
952 -479 2022 -625 3080 -420 709 138 1431 465 1999 907 222 173 460 393 634
586 l80 89 -149 74 c-82 41 -201 103 -264 138 -63 34 -164 87 -225 118 -116
58 -362 192 -380 207 -17 14 -177 346 -260 540 -16 36 -52 112 -80 170 -29 58
-79 159 -110 225 -99 205 -179 329 -280 431 -73 74 -188 164 -210 164 -3 0 -5
-73 -5 -162z m-2740 -1473 c11 -13 8 -15 -13 -15 -26 0 -42 12 -30 24 11 11
30 7 43 -9z m18 -46 c3 -8 16 -28 29 -45 13 -17 21 -38 18 -46 -3 -8 6 -25 20
-38 15 -14 25 -34 25 -52 0 -16 9 -38 20 -50 11 -12 20 -32 20 -45 0 -14 4
-22 8 -19 4 2 9 -6 10 -20 1 -13 9 -41 17 -61 9 -20 13 -43 11 -50 -3 -7 -1
-13 5 -13 6 0 8 -4 5 -9 -3 -5 1 -12 10 -15 9 -3 14 -12 11 -19 -2 -6 2 -24
10 -39 10 -20 10 -28 2 -28 -8 0 -7 -6 3 -17 9 -10 21 -29 28 -42 11 -21 10
-23 -3 -18 -13 5 -12 -1 4 -28 13 -21 16 -36 10 -40 -10 -6 -27 26 -50 98 -7
20 -16 37 -20 37 -4 0 -29 39 -55 88 -26 48 -67 112 -91 142 -80 99 -111 163
-84 172 7 2 7 12 -1 32 -8 23 -8 31 2 38 8 5 9 11 3 16 -5 4 -11 13 -12 20
-11 50 -5 69 19 67 12 -1 24 -8 26 -16z m278 -758 c-3 -5 1 -14 8 -20 10 -8
13 -23 9 -45 -3 -20 -1 -36 6 -40 16 -10 14 -26 -4 -26 -9 0 -16 14 -20 38 -3
20 -8 49 -10 63 -2 15 -1 29 2 33 9 9 15 7 9 -3z m28 -215 c2 -14 -1 -23 -5
-20 -5 3 -9 17 -9 31 0 32 11 24 14 -11z m-74 -16 c0 -5 -2 -10 -4 -10 -3 0
-8 5 -11 10 -3 6 -1 10 4 10 6 0 11 -4 11 -10z m235 -240 c55 -54 70 -94 56
-148 -19 -68 -70 -95 -150 -80 -115 21 -175 135 -120 225 27 44 51 54 117 50
47 -3 58 -9 97 -47z m736 -107 c-8 -15 -10 -15 -11 -2 0 17 10 32 18 25 2 -3
-1 -13 -7 -23z m810 -333 c5 0 9 -15 7 -33 -1 -18 2 -38 6 -45 11 -19 -4 -82
-21 -82 -7 0 -13 -6 -12 -12 3 -28 -2 -38 -19 -38 -31 0 -55 36 -60 91 -7 77
29 136 76 123 8 -2 18 -4 23 -4z m-2091 -31 c0 -5 -4 -9 -10 -9 -5 0 -10 7
-10 16 0 8 5 12 10 9 6 -3 10 -10 10 -16z"/>
<path d="M3952 3186 c7 -8 17 -12 22 -9 4 3 2 9 -5 14 -22 13 -31 11 -17 -5z"/>
<path d="M3991 3153 c10 -24 208 -178 287 -223 89 -50 277 -118 390 -140 75
-15 259 -8 347 14 195 47 237 64 385 156 8 5 30 17 48 26 17 9 32 20 32 25 0
16 -30 9 -47 -11 -10 -11 -25 -20 -35 -20 -10 0 -18 -4 -18 -8 0 -4 -16 -14
-35 -21 -19 -7 -35 -17 -35 -22 0 -5 -18 -9 -40 -9 -22 0 -40 -4 -40 -10 0 -5
-7 -10 -16 -10 -9 0 -32 -10 -51 -21 -23 -15 -43 -19 -63 -16 -19 4 -32 1 -41
-10 -11 -12 -26 -14 -82 -8 -47 4 -73 3 -83 -6 -8 -7 -25 -9 -41 -4 -33 8
-123 16 -175 16 -21 0 -38 3 -38 7 0 4 -21 14 -47 21 -26 6 -56 19 -65 28 -11
10 -18 12 -18 5 0 -7 -4 -12 -10 -12 -5 0 -7 6 -4 14 4 10 -9 15 -46 20 -62 8
-80 15 -80 30 0 6 -12 12 -26 13 -30 1 -125 50 -137 70 -4 7 -17 13 -27 13
-11 0 -20 7 -20 15 0 9 -10 16 -27 17 -16 0 -33 2 -40 2 -6 1 -22 11 -35 22
-28 26 -72 50 -67 37z"/>
<path d="M4875 1061 c-3 -5 -1 -12 5 -16 5 -3 10 1 10 9 0 18 -6 21 -15 7z"/>
<path d="M4740 700 c0 -5 5 -10 11 -10 5 0 7 5 4 10 -3 6 -8 10 -11 10 -2 0
-4 -4 -4 -10z"/>
<path d="M4840 620 c0 -5 5 -10 11 -10 5 0 7 5 4 10 -3 6 -8 10 -11 10 -2 0
-4 -4 -4 -10z"/>
</g>
</svg>
