<?xml version="1.0" standalone="no"?>
<!DOCTYPE svg PUBLIC "-//W3C//DTD SVG 20010904//EN"
 "http://www.w3.org/TR/2001/REC-SVG-20010904/DTD/svg10.dtd">
<svg version="1.0" xmlns="http://www.w3.org/2000/svg"
 width="960.000000pt" height="960.000000pt" viewBox="0 0 960.000000 960.000000"
 preserveAspectRatio="xMidYMid meet">
<g transform="translate(0.000000,960.000000) scale(0.100000,-0.100000)"
fill="#000000" stroke="none">
<path d="M4977 9218 c-17 -9 -216 -30 -281 -29 -15 0 -34 5 -40 11 -9 7 -19 5
-32 -4 -19 -15 -62 -12 -96 5 -10 6 -19 5 -23 -1 -3 -5 -24 -10 -46 -10 -21 0
-47 -4 -57 -9 -9 -5 -37 -15 -62 -22 -25 -7 -81 -33 -125 -57 -83 -47 -221
-102 -255 -102 -11 0 -38 -10 -62 -22 -40 -21 -41 -23 -18 -28 21 -5 19 -7
-17 -13 -23 -4 -48 -14 -57 -22 -9 -9 -33 -15 -60 -15 -25 0 -46 -4 -46 -9 0
-5 -19 -12 -42 -16 -57 -10 -68 -18 -38 -27 18 -5 13 -6 -15 -3 -54 6 -114
-27 -93 -52 11 -14 11 -15 -7 -6 -11 6 -40 10 -65 9 -39 -1 -45 -4 -48 -23 -2
-13 -10 -23 -18 -23 -8 0 -12 5 -9 10 14 23 -45 8 -80 -20 -21 -16 -44 -30
-51 -30 -23 0 -64 -74 -78 -141 -12 -62 -14 -64 -45 -66 -19 -1 -44 -11 -57
-24 -26 -24 -34 -49 -9 -29 9 7 18 10 21 7 10 -10 -6 -27 -27 -27 -10 0 -19
-6 -19 -12 0 -7 -11 -23 -25 -36 -13 -13 -36 -49 -51 -80 -15 -31 -36 -65 -46
-75 -10 -10 -20 -30 -23 -45 -5 -26 -10 -42 -56 -170 -14 -41 -16 -59 -8 -74
11 -21 6 -48 -10 -48 -5 0 -12 8 -14 18 -2 9 -3 3 -1 -15 2 -22 -6 -44 -22
-69 -23 -34 -25 -41 -15 -80 11 -43 7 -74 -10 -74 -6 0 -21 -8 -36 -17 -23
-16 -24 -17 -7 -24 17 -7 16 -8 -5 -8 -19 -1 -22 -5 -17 -23 3 -13 6 -26 6
-30 0 -5 7 -8 17 -8 14 0 14 -2 -2 -20 -13 -14 -16 -30 -12 -59 3 -25 0 -47
-9 -59 -7 -11 -11 -22 -7 -25 3 -4 0 -13 -7 -22 -13 -15 -10 -95 6 -180 4 -22
8 -52 8 -67 1 -16 4 -28 9 -28 7 0 4 -75 -7 -180 -5 -50 -5 -52 6 -22 13 39
33 44 22 5 -4 -16 -8 -62 -9 -103 0 -41 -4 -86 -8 -100 -4 -14 3 -5 14 20 12
25 23 40 25 34 6 -14 -41 -96 -49 -87 -4 3 -7 -6 -7 -22 0 -23 2 -25 14 -15
13 10 14 3 11 -45 -2 -30 0 -53 4 -51 20 12 34 -45 29 -116 -6 -82 3 -121 27
-112 11 5 14 2 9 -10 -3 -9 -10 -14 -14 -11 -21 13 -21 -20 0 -35 32 -24 20
-50 -23 -50 -48 0 -65 -23 -29 -39 15 -7 49 -27 76 -44 27 -17 63 -31 80 -31
28 -1 31 -5 37 -39 3 -21 13 -43 22 -50 8 -7 17 -23 19 -37 2 -18 11 -2 31 57
22 65 26 87 17 103 -6 11 -16 17 -22 14 -7 -5 -9 -1 -5 9 3 10 3 17 -2 17 -5
0 -11 -9 -14 -21 -4 -13 -10 -18 -17 -14 -7 4 -8 10 -4 14 21 15 38 61 27 72
-6 6 -9 18 -6 27 4 10 2 13 -5 8 -14 -8 -14 -3 -3 47 5 20 5 39 1 42 -4 2 -4
23 0 45 7 37 6 40 -9 27 -26 -22 -51 -28 -51 -12 0 7 8 16 18 19 14 5 18 15
16 47 -1 23 -7 46 -13 52 -22 22 -10 54 43 110 30 31 49 58 43 60 -10 3 13 46
45 81 10 11 18 25 18 32 0 7 12 14 27 16 19 2 29 10 34 31 4 15 3 27 -2 27 -5
0 -9 7 -9 15 0 8 -6 15 -13 15 -17 0 -18 30 -3 49 9 12 8 13 -6 9 -15 -6 -15
-3 -1 38 8 24 19 46 24 50 12 7 12 44 0 44 -6 0 -13 -4 -16 -10 -3 -5 -14 -10
-23 -10 -14 0 -15 2 -3 9 14 9 17 16 26 71 2 14 4 25 5 25 3 0 10 51 10 74 0
13 7 32 16 42 10 11 17 38 18 71 1 29 7 63 14 75 6 12 9 29 6 37 -4 10 0 18
10 22 9 3 16 11 16 18 0 6 16 28 35 49 25 27 30 37 18 37 -13 0 -9 9 15 33 18
18 32 40 32 48 0 8 14 28 30 44 17 16 30 35 30 42 0 7 6 13 13 13 8 0 22 8 31
19 11 13 28 18 52 16 18 -1 34 2 34 7 0 4 12 8 26 8 14 0 23 4 20 9 -9 14 13
18 74 16 30 -2 58 2 61 7 4 7 19 6 43 -2 30 -9 39 -9 58 4 12 9 32 16 43 16
12 0 26 5 31 10 6 6 43 11 83 12 40 1 74 5 77 9 2 3 16 4 30 1 23 -4 26 -2 20
13 -6 16 -5 16 17 2 28 -18 104 -30 112 -17 3 6 15 10 26 10 10 0 19 7 19 16
0 11 8 9 35 -12 l35 -26 0 25 c0 14 -4 29 -10 32 -5 3 -10 15 -10 26 0 10 5
19 10 19 6 0 10 -7 10 -15 0 -26 63 -105 84 -107 63 -4 86 14 86 69 0 18 4 33
9 33 5 0 5 -19 0 -44 -4 -24 -4 -56 0 -72 7 -24 12 -28 36 -26 15 2 34 10 42
18 13 13 18 12 41 -11 18 -19 32 -24 47 -20 11 4 44 9 74 11 40 2 58 9 76 28
27 29 65 43 74 27 8 -13 61 9 82 35 9 11 23 14 48 9 29 -4 45 0 81 25 25 16
47 25 49 19 2 -6 11 -3 22 7 17 16 19 16 19 1 0 -23 19 -21 48 6 l24 22 -7
-24 c-6 -20 -4 -23 10 -18 9 4 21 7 25 7 5 0 19 11 32 24 13 13 33 27 44 30
19 6 21 3 16 -20 -4 -25 -3 -26 19 -21 13 4 32 7 42 7 9 0 23 11 29 25 13 30
33 34 25 5 -4 -16 -2 -18 13 -10 9 5 20 7 23 3 4 -3 13 0 22 7 13 11 14 10 9
-5 -6 -16 -5 -16 17 -4 13 7 27 12 31 11 20 -5 100 43 136 83 40 44 62 56 62
35 0 -11 -27 -39 -69 -73 -29 -23 -23 -40 17 -48 17 -3 29 -2 26 2 -10 17 15
9 52 -16 20 -14 45 -25 54 -25 10 0 23 -7 30 -15 7 -8 19 -15 27 -15 8 0 11
-5 8 -10 -4 -6 -11 -8 -16 -5 -5 4 -9 1 -9 -5 0 -13 48 -32 61 -24 5 3 9 1 9
-5 0 -6 12 -14 28 -17 34 -9 84 -43 77 -54 -3 -4 4 -10 15 -13 13 -3 18 -11
14 -20 -3 -9 2 -20 13 -26 45 -26 58 -41 44 -50 -11 -7 -8 -13 13 -26 14 -10
26 -26 26 -36 0 -11 7 -22 16 -26 15 -6 15 -7 1 -18 -15 -11 -15 -13 1 -31 10
-10 17 -28 17 -39 0 -11 4 -26 10 -34 7 -10 6 -16 -3 -19 -8 -2 -4 -10 12 -23
15 -12 23 -26 19 -34 -3 -9 0 -22 7 -30 7 -8 10 -22 6 -30 -3 -8 -1 -15 4 -15
6 0 9 -3 8 -7 -5 -19 15 -51 37 -61 31 -14 34 -36 4 -27 -15 5 -19 4 -15 -4 4
-6 2 -11 -5 -11 -6 0 -1 -9 12 -20 l24 -20 -29 6 c-26 6 -27 5 -17 -15 7 -12
16 -19 21 -16 6 4 7 -1 3 -11 -4 -12 -3 -15 6 -10 7 5 18 -8 32 -39 16 -37 24
-45 40 -40 15 5 19 2 19 -14 0 -12 5 -21 10 -21 6 0 9 -3 8 -7 -1 -5 5 -19 13
-33 66 -105 79 -129 79 -142 0 -22 30 -78 41 -78 6 0 8 -4 5 -9 -8 -13 17 -71
31 -71 7 0 13 -5 13 -11 0 -5 -4 -7 -10 -4 -6 4 -10 -6 -9 -22 0 -23 2 -25 8
-9 6 16 9 17 16 6 15 -23 14 -72 -1 -66 -10 4 -13 -5 -11 -34 1 -21 4 -36 6
-34 5 5 41 -47 41 -58 0 -4 -6 -5 -13 -2 -8 3 -13 -3 -13 -16 0 -11 4 -20 8
-20 4 0 8 -13 8 -30 0 -16 -3 -30 -7 -30 -18 1 -31 17 -30 35 1 11 -5 21 -16
23 -16 3 -16 1 3 -32 11 -20 15 -36 9 -36 -12 0 -1 -43 12 -48 5 -2 9 -8 9
-14 0 -6 -6 -8 -13 -5 -10 4 -13 -2 -9 -19 2 -14 0 -24 -7 -24 -6 0 -11 -9
-11 -19 0 -11 -6 -22 -12 -24 -9 -4 -10 -8 -2 -14 17 -12 34 -50 27 -57 -4 -4
-13 4 -21 16 -12 21 -13 19 -6 -22 3 -25 7 -67 9 -95 3 -70 16 -135 26 -135 5
0 8 6 6 13 -1 6 6 11 15 9 28 -5 35 53 16 128 -2 8 0 5 6 -7 5 -13 12 -23 15
-23 3 0 7 34 8 75 1 58 6 83 24 112 16 25 19 38 11 41 -7 2 -12 17 -12 32 0
16 -4 32 -10 35 -5 3 -10 11 -10 16 0 6 4 8 9 5 19 -12 39 5 35 30 -2 13 0 24
6 24 5 0 11 -12 12 -27 2 -41 5 -53 28 -108 5 -11 12 -30 15 -42 8 -30 30 -29
73 3 44 34 146 84 172 84 10 0 22 -5 25 -10 4 -6 11 -8 16 -5 5 4 3 13 -6 21
-21 21 -152 17 -165 -5 -8 -14 -9 -14 -10 0 0 8 5 20 12 27 6 6 10 33 9 59 -1
26 4 71 10 99 8 37 9 56 0 72 -6 12 -7 22 -1 24 5 2 2 27 -7 59 -16 59 -12
109 10 109 16 0 21 208 5 227 -5 7 -7 16 -4 22 4 5 1 21 -6 36 -10 22 -9 28 8
40 16 11 20 23 18 62 -2 26 -9 64 -18 84 -19 46 -27 89 -16 89 5 0 12 -5 15
-10 10 -16 27 0 20 19 -9 22 -14 55 -19 121 -5 66 -30 133 -63 166 -13 13 -23
35 -23 52 0 16 -8 53 -18 83 -20 59 -18 99 3 99 9 0 6 9 -10 26 -14 15 -25 32
-25 39 0 6 -11 22 -25 35 -13 12 -24 25 -23 29 2 21 -4 41 -12 41 -6 0 -20 9
-32 20 -27 25 -3 28 25 3 16 -15 14 -8 -8 32 -15 27 -28 66 -29 86 -1 28 -13
49 -50 89 -26 30 -50 67 -53 83 -4 18 -15 32 -29 38 -27 10 -28 13 -14 40 8
15 6 24 -10 41 -11 12 -20 27 -20 34 0 21 -60 64 -90 64 -16 0 -32 5 -36 12
-5 7 -10 3 -16 -12 -6 -17 -12 -20 -19 -13 -8 8 -7 17 1 33 11 20 7 26 -30 61
-36 34 -42 46 -44 84 -2 49 -27 85 -59 85 -11 0 -29 8 -39 17 -10 9 -29 18
-40 20 -12 2 -22 4 -22 6 -1 1 -9 16 -18 32 -13 24 -25 31 -60 36 -24 3 -56
12 -73 21 -117 60 -207 97 -247 103 -27 3 -48 10 -48 14 0 12 -63 23 -137 26
-34 0 -67 6 -75 12 -14 12 -86 29 -102 24 -6 -1 -26 4 -45 12 -20 8 -54 20
-76 27 -22 7 -62 23 -90 35 -60 27 -133 38 -158 23z m-342 -68 c10 -11 16 -20
13 -20 -3 0 -13 9 -23 20 -10 11 -16 20 -13 20 3 0 13 -9 23 -20z m-480 -148
c-3 -3 -11 0 -18 7 -9 10 -8 11 6 5 10 -3 15 -9 12 -12z m-18 -38 c2 -6 -11
-8 -34 -6 -31 4 -34 6 -18 13 25 10 47 7 52 -7z m1653 -5 c0 -5 -4 -9 -10 -9
-5 0 -10 7 -10 16 0 8 5 12 10 9 6 -3 10 -10 10 -16z m115 -99 c3 -5 1 -10 -4
-10 -6 0 -11 5 -11 10 0 6 2 10 4 10 3 0 8 -4 11 -10z m561 -365 c10 -8 15
-14 9 -14 -5 0 -19 6 -29 14 -11 8 -15 15 -10 15 6 0 19 -7 30 -15z m-3401
-105 c3 -5 0 -10 -9 -10 -8 0 -16 -6 -19 -12 -2 -7 -8 -10 -12 -6 -7 7 14 37
27 38 4 0 10 -4 13 -10z m2767 -32 c-7 -7 -12 -8 -12 -2 0 14 12 26 19 19 2
-3 -1 -11 -7 -17z m-2762 -18 c0 -5 -4 -10 -9 -10 -6 0 -13 5 -16 10 -3 6 1
10 9 10 9 0 16 -4 16 -10z m2720 -57 c-1 -5 -10 -24 -21 -43 -11 -19 -18 -27
-15 -17 4 11 9 30 12 43 6 22 25 35 24 17z m-72 -80 c-9 -10 -25 -34 -37 -53
l-21 -35 2 30 c2 33 33 75 56 75 13 0 13 -2 0 -17z m-2058 -63 c0 -9 5 -21 11
-27 6 -6 9 -17 7 -25 -5 -14 -40 48 -52 92 l-7 25 20 -25 c11 -14 21 -32 21
-40z m2120 30 c0 -5 -2 -10 -4 -10 -3 0 -8 5 -11 10 -3 6 -1 10 4 10 6 0 11
-4 11 -10z m-1498 -25 c3 -14 1 -28 -3 -31 -5 -3 -9 1 -9 10 0 8 -3 21 -6 30
-3 9 -2 16 4 16 5 0 12 -11 14 -25z m-872 -56 c0 -6 -4 -7 -10 -4 -5 3 -10 11
-10 16 0 6 5 7 10 4 6 -3 10 -11 10 -16z m50 -29 c0 -5 -2 -10 -4 -10 -3 0 -8
5 -11 10 -3 6 -1 10 4 10 6 0 11 -4 11 -10z m-650 -310 c0 -5 -5 -10 -11 -10
-5 0 -7 5 -4 10 3 6 8 10 11 10 2 0 4 -4 4 -10z m-90 -175 c11 -13 10 -14 -4
-9 -9 3 -16 10 -16 15 0 13 6 11 20 -6z m20 -55 c0 -5 -4 -10 -10 -10 -5 0
-10 5 -10 10 0 6 5 10 10 10 6 0 10 -4 10 -10z m4160 -300 c0 -5 -2 -10 -4
-10 -3 0 -8 5 -11 10 -3 6 -1 10 4 10 6 0 11 -4 11 -10z m-4190 -50 c0 -5 -4
-10 -10 -10 -5 0 -10 5 -10 10 0 6 5 10 10 10 6 0 10 -4 10 -10z m345 -59 c-7
-23 -25 -29 -25 -8 0 14 21 39 28 33 2 -3 1 -14 -3 -25z m3456 -138 c13 -16
12 -17 -3 -4 -10 7 -18 15 -18 17 0 8 8 3 21 -13z m36 -45 c27 -31 36 -48 25
-48 -5 0 -22 16 -36 35 -30 39 -21 48 11 13z m-3575 -10 c-7 -7 -12 -8 -12 -2
0 14 12 26 19 19 2 -3 -1 -11 -7 -17z m3713 -348 c3 -5 1 -10 -4 -10 -6 0 -11
5 -11 10 0 6 2 10 4 10 3 0 8 -4 11 -10z m-11 -135 c3 -8 1 -15 -4 -15 -6 0
-10 7 -10 15 0 8 2 15 4 15 2 0 6 -7 10 -15z m-3719 -334 c3 -5 1 -12 -5 -16
-5 -3 -10 1 -10 9 0 18 6 21 15 7z"/>
<path d="M5720 7991 c0 -5 16 -11 35 -13 27 -3 32 -1 23 9 -12 15 -58 18 -58
4z"/>
<path d="M5807 7969 c7 -7 15 -10 18 -7 3 3 -2 9 -12 12 -14 6 -15 5 -6 -5z"/>
<path d="M2972 6528 c-14 -14 -16 -28 -3 -28 5 0 11 9 14 20 6 23 5 24 -11 8z"/>
<path d="M5510 6519 c-14 -4 -60 -7 -103 -8 -43 -1 -86 -5 -96 -11 -10 -5 -38
-10 -62 -10 -111 -4 -171 -28 -242 -97 -25 -25 -19 -67 11 -71 16 -2 22 -8 18
-18 -4 -9 2 -14 17 -14 24 0 92 -22 103 -33 4 -4 -11 -22 -32 -41 -63 -56 -82
-78 -87 -97 -7 -25 8 -33 34 -18 16 8 23 8 29 0 3 -7 14 -9 23 -5 33 12 34 -7
5 -62 -42 -78 -34 -89 67 -90 54 -1 80 -5 86 -15 8 -12 11 -11 19 2 12 21 125
35 145 19 9 -7 15 -7 19 -1 4 6 27 8 56 4 43 -5 54 -2 83 20 29 22 33 30 29
60 -2 22 2 44 13 60 14 23 20 24 41 15 26 -12 29 -20 14 -47 -8 -17 -5 -18 33
-14 23 3 61 0 84 -5 23 -5 44 -7 47 -5 8 9 -6 33 -19 33 -7 0 -19 7 -26 16 -7
9 -40 29 -74 46 -33 16 -80 40 -104 54 -24 13 -52 24 -63 24 -10 0 -18 7 -18
16 0 12 9 14 43 11 87 -10 156 -38 229 -93 75 -56 95 -66 79 -36 -51 93 -219
147 -496 159 -177 7 -175 21 10 73 91 26 119 29 233 29 72 -1 136 2 142 6 6 4
22 -1 36 -9 17 -12 43 -16 87 -15 77 3 143 -7 183 -28 17 -9 39 -13 48 -10 27
10 -96 106 -146 113 -21 4 -38 10 -38 15 0 13 -31 27 -116 49 -79 22 -127 26
-199 21 -22 -2 -58 1 -80 6 -22 5 -51 6 -65 2z m-60 -279 c0 -5 -4 -10 -10
-10 -5 0 -10 5 -10 10 0 6 5 10 10 10 6 0 10 -4 10 -10z m-175 -76 c-10 -7
-22 -11 -27 -8 -5 3 -1 12 9 19 10 7 22 11 27 8 5 -4 1 -12 -9 -19z m220 -44
c-3 -5 -10 -10 -16 -10 -5 0 -9 5 -9 10 0 6 7 10 16 10 8 0 12 -4 9 -10z
m-175 -14 c0 -7 11 -34 25 -60 14 -26 25 -49 25 -51 0 -2 -38 -3 -85 -2 -75 1
-88 4 -107 24 l-21 23 21 0 c12 0 22 -4 22 -10 0 -23 18 -8 23 20 9 43 97 94
97 56z m220 -1 c0 -8 -2 -15 -4 -15 -2 0 -6 7 -10 15 -3 8 -1 15 4 15 6 0 10
-7 10 -15z m-125 -5 c11 -17 -5 -32 -21 -19 -8 6 -14 15 -14 20 0 12 27 11 35
-1z"/>
<path d="M6575 6519 c-5 -7 -4 -10 3 -5 6 3 13 2 17 -4 8 -14 35 -13 35 1 0 6
-6 9 -14 6 -7 -3 -18 -1 -24 5 -6 6 -12 6 -17 -3z"/>
<path d="M2960 6479 c0 -5 5 -7 10 -4 6 3 10 8 10 11 0 2 -4 4 -10 4 -5 0 -10
-5 -10 -11z"/>
<path d="M3858 6435 c-2 -2 -50 -6 -108 -9 -118 -5 -268 -21 -298 -30 -27 -9
-37 -36 -14 -36 15 0 15 -2 2 -10 -21 -14 -40 -12 -38 3 2 6 -6 12 -17 12 -11
0 -21 -7 -21 -15 -1 -8 -2 -21 -3 -28 0 -7 -13 -18 -28 -25 -16 -6 -30 -15
-33 -19 -3 -4 -16 -9 -28 -11 -12 -2 -28 -9 -35 -16 -10 -10 -7 -11 16 -6 36
9 35 -6 -3 -28 -33 -20 -31 -43 5 -49 31 -6 74 13 105 46 23 25 29 27 80 21
40 -4 80 0 145 16 78 18 109 21 240 16 112 -3 162 -9 198 -23 26 -10 47 -21
47 -25 0 -4 -28 -10 -62 -14 -150 -17 -347 -65 -423 -103 -40 -20 -85 -58
-112 -95 -38 -51 -26 -52 27 -3 27 25 54 46 60 46 7 0 31 16 53 36 38 32 47
35 97 33 46 -2 56 0 58 15 2 9 11 16 20 14 21 -4 27 -27 8 -33 -28 -9 -40 -15
-71 -35 -16 -10 -46 -27 -65 -37 -19 -9 -41 -22 -48 -28 -114 -93 -138 -120
-103 -120 6 0 15 -6 20 -13 5 -9 19 -6 57 13 27 14 57 25 67 25 15 0 15 3 5
21 -12 18 -10 23 17 45 17 13 35 24 40 23 10 0 65 -108 65 -127 0 -21 52 -25
149 -12 53 7 107 12 121 11 66 -6 206 2 211 11 11 18 -2 47 -42 88 -22 22 -36
40 -33 40 4 0 1 7 -6 15 -19 22 7 20 48 -5 l33 -20 -11 20 c-13 25 -5 40 21
40 10 0 19 3 19 8 -1 25 -120 122 -150 122 -12 0 -19 4 -16 9 3 5 17 9 31 9
33 0 41 8 25 27 -10 12 -8 16 13 26 30 14 42 38 27 53 -5 5 -10 19 -10 31 0
24 -33 55 -59 55 -10 0 -31 4 -47 9 -27 9 -239 22 -246 16z m120 -301 c6 -2
12 -8 12 -14 0 -6 -21 -8 -57 -4 -72 7 -86 11 -78 23 5 9 90 6 123 -5z m82
-34 c0 -5 -4 -10 -9 -10 -6 0 -13 5 -16 10 -3 6 1 10 9 10 9 0 16 -4 16 -10z
m-140 -82 c0 -6 -7 -7 -16 -4 -9 3 -22 6 -30 6 -9 0 -13 4 -10 9 7 11 56 2 56
-11z m65 -8 c0 -8 -10 -16 -22 -18 -18 -3 -23 2 -23 18 0 16 5 21 23 18 12 -2
22 -10 22 -18z m140 -12 c19 -18 37 -45 41 -60 6 -26 5 -27 -30 -21 -20 3 -49
0 -66 -7 -40 -17 -47 -7 -27 35 9 20 17 47 17 60 0 35 23 32 65 -7z m-290 -13
c0 -13 -8 -21 -22 -23 -19 -3 -23 1 -23 23 0 22 4 26 23 23 14 -2 22 -10 22
-23z m370 -25 c3 -5 1 -10 -4 -10 -6 0 -11 5 -11 10 0 6 2 10 4 10 3 0 8 -4
11 -10z"/>
<path d="M7033 6203 c-9 -3 -9 -10 3 -28 8 -13 17 -47 19 -77 5 -66 21 -185
43 -303 21 -116 19 -178 -7 -298 -33 -153 -50 -182 -143 -247 -49 -34 -59 -58
-34 -79 22 -18 44 1 97 83 84 129 219 502 219 604 0 132 -41 292 -85 329 -25
22 -79 30 -112 16z m113 -229 c0 -21 8 -67 18 -101 11 -36 15 -70 11 -80 -5
-10 -9 -25 -9 -33 -1 -8 -8 -16 -17 -18 -13 -2 -16 11 -17 90 0 51 -4 115 -7
142 -6 38 -4 47 6 44 9 -3 14 -20 15 -44z"/>
<path d="M5028 6059 c-6 -18 2 -59 13 -59 17 0 19 20 6 46 -10 18 -16 23 -19
13z"/>
<path d="M2587 6038 c-17 -13 -21 -44 -33 -245 -7 -117 6 -173 59 -257 17 -27
32 -54 34 -60 1 -6 6 -24 12 -41 8 -27 9 -24 10 28 1 32 -4 67 -10 78 -17 33
-39 127 -39 168 0 22 7 72 15 114 9 41 15 78 13 83 -5 15 23 72 37 78 10 3 12
-5 8 -34 -3 -20 -1 -45 4 -55 8 -14 13 -8 27 35 l17 53 -32 33 c-25 26 -41 34
-69 34 -20 0 -44 -6 -53 -12z"/>
<path d="M4290 5966 c0 -2 7 -7 16 -10 8 -3 12 -2 9 4 -6 10 -25 14 -25 6z"/>
<path d="M2928 5922 c7 -5 14 -25 15 -45 2 -40 13 -36 26 11 8 25 7 32 -4 32
-7 0 -22 3 -32 6 -13 4 -14 3 -5 -4z"/>
<path d="M5258 5868 c-16 -18 -38 -28 -67 -32 -24 -2 -51 -12 -60 -22 -9 -9
-10 -14 -3 -10 6 4 12 3 12 -3 0 -5 12 -14 28 -19 l27 -10 -25 -10 -25 -11 27
0 c15 -1 30 3 33 9 3 5 19 7 35 3 29 -5 42 9 20 22 -19 12 -11 26 9 15 29 -15
37 -13 49 15 10 21 8 29 -12 52 l-23 27 -25 -26z m52 -46 c0 -4 -9 -8 -20 -9
-22 -2 -27 13 -7 20 14 5 27 -1 27 -11z"/>
<path d="M2730 5866 c0 -9 5 -16 10 -16 6 0 10 4 10 9 0 6 -4 13 -10 16 -5 3
-10 -1 -10 -9z"/>
<path d="M6781 5833 c-9 -18 -41 -121 -41 -134 0 -4 9 -9 20 -12 12 -3 20 -14
20 -25 0 -12 5 -24 10 -27 6 -3 10 -15 10 -25 0 -10 3 -20 8 -22 4 -1 17 -15
28 -30 19 -24 21 -38 16 -100 -1 -10 -9 -18 -17 -18 -8 0 -15 -4 -15 -10 0 -5
7 -7 15 -4 22 9 19 -22 -2 -32 -29 -12 -83 -15 -83 -4 0 21 -39 -10 -70 -54
-32 -47 -38 -75 -17 -77 54 -5 127 31 127 63 0 22 16 27 71 21 47 -6 93 11
118 41 17 20 18 100 1 131 -7 14 -22 27 -32 31 -11 3 -17 8 -14 11 3 3 0 11
-7 19 -28 32 -35 42 -50 84 -17 45 -19 90 -5 90 22 0 4 41 -27 60 -19 12 -35
26 -35 31 0 15 -19 10 -29 -8z"/>
<path d="M4206 5774 c-48 -24 -63 -23 -86 8 -7 10 -50 -2 -50 -13 0 -5 16 -9
35 -9 42 0 45 -12 8 -30 -28 -13 -28 -13 30 -27 47 -11 61 -11 71 -1 7 7 32
29 54 48 47 40 53 54 18 40 -15 -5 -26 -5 -28 0 -2 5 -25 -2 -52 -16z"/>
<path d="M2894 5679 c-3 -6 -3 -37 0 -69 4 -32 3 -61 -2 -64 -11 -7 -3 -66 9
-66 5 0 13 8 16 18 4 9 15 28 25 41 24 32 23 56 -7 108 -28 47 -30 49 -41 32z"/>
<path d="M2870 5450 c0 -5 5 -10 10 -10 6 0 10 5 10 10 0 6 -4 10 -10 10 -5 0
-10 -4 -10 -10z"/>
<path d="M2814 5385 c3 -9 2 -13 -3 -10 -11 6 -24 -12 -28 -39 -2 -11 -8 -25
-13 -32 -11 -12 5 -62 25 -77 5 -4 31 -6 57 -5 49 2 83 -15 74 -38 -6 -16 10
-28 59 -42 49 -14 62 -3 41 34 -26 49 -52 72 -81 76 -15 2 -31 10 -35 18 -42
89 -58 114 -79 121 -19 8 -22 6 -17 -6z"/>
<path d="M2730 5158 c1 -7 19 -33 41 -58 31 -35 41 -42 48 -31 13 21 -5 53
-44 79 -40 25 -45 27 -45 10z"/>
<path d="M4879 4972 c-38 -19 -46 -41 -29 -82 18 -42 39 -45 75 -10 17 16 41
30 53 30 31 0 39 27 16 50 -29 27 -76 32 -115 12z"/>
<path d="M4316 4961 c-12 -13 -15 -27 -10 -45 8 -34 31 -47 62 -35 18 7 31 5
48 -6 27 -17 54 -20 54 -5 0 6 -11 28 -25 49 -40 59 -97 78 -129 42z"/>
<path d="M4500 4250 c0 -4 7 -11 16 -14 8 -3 12 -10 9 -16 -9 -15 -100 -12
-139 4 -29 12 -43 12 -101 0 -37 -8 -72 -17 -77 -20 -6 -4 -46 -8 -90 -11 -82
-4 -148 -23 -148 -43 0 -6 5 -20 10 -31 9 -17 22 -19 101 -19 50 0 99 -4 109
-10 14 -7 23 -6 34 5 8 8 18 15 23 15 5 0 24 11 43 24 19 12 52 26 73 30 33 6
38 5 35 -11 -3 -14 4 -17 38 -14 34 2 47 -3 70 -26 22 -22 38 -28 71 -28 28
-1 53 -8 74 -24 48 -36 119 -34 119 3 0 16 21 26 54 26 13 0 42 14 64 30 23
17 49 30 57 30 8 0 15 4 15 10 0 20 84 32 170 24 47 -4 101 -7 120 -6 19 1 89
3 154 5 130 4 155 16 90 43 -24 10 -52 14 -78 10 -46 -7 -313 -24 -479 -31
-80 -3 -114 -1 -130 9 -16 10 -38 12 -80 7 -45 -6 -78 -2 -143 15 -46 11 -84
18 -84 14z m-130 -40 c0 -14 -37 -31 -55 -24 -14 6 -14 8 2 20 21 16 53 18 53
4z"/>
<path d="M6480 3553 c0 -140 -3 -182 -21 -253 -12 -47 -28 -90 -35 -96 -10 -8
-11 -19 -5 -40 4 -16 4 -39 0 -52 -6 -15 -5 -22 3 -22 9 0 9 -3 0 -12 -7 -7
-12 -20 -12 -30 0 -10 -4 -18 -8 -18 -15 0 -28 -55 -21 -90 4 -19 4 -41 0 -50
-5 -8 -11 -44 -15 -78 -3 -35 -9 -69 -13 -75 -4 -7 -8 -16 -9 -22 -1 -5 -12
-39 -24 -75 -12 -36 -24 -85 -27 -110 -2 -25 -11 -55 -19 -67 -8 -12 -23 -45
-34 -73 -11 -28 -36 -68 -56 -90 -45 -48 -84 -101 -84 -113 0 -5 -11 -20 -25
-33 -14 -13 -25 -27 -25 -32 0 -5 -9 -17 -20 -27 -11 -10 -20 -24 -20 -30 0
-7 -7 -18 -15 -25 -8 -7 -13 -15 -10 -19 5 -8 -31 -42 -37 -35 -8 7 -59 -56
-53 -65 2 -5 -5 -11 -16 -14 -15 -4 -20 -11 -15 -22 3 -9 0 -18 -9 -21 -20 -8
-135 -145 -129 -155 2 -4 -16 -22 -41 -39 -24 -17 -49 -40 -55 -50 -6 -11 -15
-20 -21 -20 -6 0 -44 -29 -84 -65 -40 -36 -78 -65 -84 -65 -7 0 -39 -27 -73
-60 -33 -33 -64 -60 -68 -60 -10 0 -117 -147 -142 -194 -9 -17 -35 -51 -58
-75 -55 -57 -100 -161 -71 -161 14 0 1 -72 -15 -91 -8 -9 -23 -56 -33 -105
-11 -49 -26 -105 -34 -124 -21 -48 -55 -90 -70 -85 -7 3 -24 -21 -41 -58 -54
-116 -61 -129 -70 -134 -5 -3 -6 0 -4 8 3 8 -11 42 -30 77 -18 34 -31 62 -28
62 3 0 -2 9 -11 20 -10 11 -24 20 -33 20 -8 0 -28 21 -44 46 -16 26 -86 106
-155 178 l-126 132 -23 90 c-13 49 -28 103 -33 120 -5 17 -9 40 -9 53 0 19
-31 129 -61 216 -6 17 -13 43 -15 59 -2 16 -8 34 -13 40 -12 15 -41 96 -41
117 0 9 -7 22 -15 29 -9 7 -14 19 -11 26 3 8 -3 19 -13 26 -10 7 -21 30 -25
51 -10 53 -39 117 -70 152 -14 17 -32 38 -41 47 -8 10 -15 21 -15 24 0 3 -7
12 -16 21 -8 9 -13 22 -10 29 3 8 0 13 -7 11 -7 -1 -11 3 -10 10 2 7 -4 10
-12 7 -19 -8 -33 25 -16 36 9 5 5 13 -13 28 -14 11 -26 27 -26 35 0 29 -12 47
-31 47 -18 0 -23 15 -22 58 1 6 -3 12 -8 12 -5 0 -9 5 -9 12 0 6 7 4 18 -5 33
-30 34 -18 1 30 -18 25 -27 43 -21 39 17 -10 15 20 -2 52 -24 43 -56 123 -56
138 0 8 -4 14 -9 14 -6 0 -9 9 -8 20 1 11 6 20 11 20 5 0 7 3 3 6 -3 3 -8 5
-12 4 -7 -1 -35 46 -35 57 0 3 7 3 15 -1 8 -3 15 -1 15 4 0 6 -3 10 -7 10 -5
0 -17 12 -27 27 -11 14 -14 23 -8 19 16 -10 15 5 -3 30 -8 12 -26 52 -40 90
-14 38 -29 78 -34 89 -6 11 -26 70 -46 130 -43 133 -70 279 -86 483 -7 84 -16
152 -19 152 -9 0 -160 -157 -197 -205 -17 -22 -61 -92 -98 -155 -118 -202
-138 -234 -176 -285 -20 -28 -48 -73 -63 -100 -14 -28 -46 -77 -70 -110 -24
-33 -61 -87 -81 -120 -20 -33 -80 -118 -133 -189 -96 -127 -98 -129 -155 -147
-61 -18 -152 -54 -252 -100 -33 -15 -71 -30 -85 -34 -14 -4 -43 -18 -65 -30
-22 -13 -58 -28 -80 -35 -22 -7 -45 -16 -50 -20 -6 -5 -55 -23 -110 -41 -55
-17 -104 -35 -110 -39 -5 -4 -23 -10 -40 -14 -16 -4 -57 -18 -90 -31 -33 -13
-97 -35 -142 -49 -45 -15 -94 -33 -110 -41 -15 -8 -34 -15 -41 -15 -7 0 -31
-9 -55 -19 -23 -11 -68 -28 -101 -39 l-59 -18 79 -94 c177 -212 443 -469 691
-667 300 -240 695 -477 1052 -633 742 -323 1575 -453 2397 -375 162 16 198 24
207 49 4 9 16 16 27 16 20 0 20 1 5 30 -14 27 -14 30 0 30 8 0 15 -8 15 -17 0
-10 7 -27 15 -37 8 -10 12 -24 8 -29 -4 -6 0 -8 11 -4 10 4 27 7 39 7 12 0 28
4 36 9 12 8 12 12 2 25 -8 9 -9 16 -3 16 5 0 16 -9 23 -20 14 -19 15 -19 109
0 179 36 311 74 306 87 -3 7 -1 13 4 13 6 0 10 -5 10 -11 0 -14 36 -6 200 48
608 199 1149 507 1657 940 132 113 473 457 472 476 0 7 -67 45 -149 85 -81 40
-185 93 -231 118 -46 26 -163 87 -259 137 -96 50 -191 100 -210 112 -19 11
-60 34 -90 49 -68 35 -74 43 -140 186 -29 63 -72 156 -96 207 -24 50 -44 94
-44 98 0 8 -84 184 -231 480 -75 152 -137 263 -167 300 -26 33 -58 75 -70 92
-38 53 -180 170 -244 201 -5 2 -8 -72 -8 -165z m-2790 -1258 c0 -5 -5 -3 -10
5 -5 8 -10 20 -10 25 0 6 5 3 10 -5 5 -8 10 -19 10 -25z m3 -29 c10 10 53 -90
62 -143 3 -21 43 -85 58 -91 4 -2 7 -8 7 -14 0 -5 9 -21 20 -35 11 -14 20 -37
20 -50 0 -13 8 -33 19 -44 16 -17 27 -47 35 -94 4 -19 19 -50 33 -66 8 -9 13
-20 12 -25 -2 -5 2 -20 8 -34 6 -14 18 -47 26 -75 9 -27 25 -75 37 -105 11
-30 23 -71 25 -90 2 -19 17 -72 34 -117 16 -46 27 -92 24 -103 -3 -11 0 -20 6
-20 6 0 11 -11 11 -25 0 -14 4 -25 9 -25 6 0 13 -20 17 -45 3 -25 10 -48 15
-51 5 -3 9 -16 9 -30 0 -13 5 -24 12 -24 6 0 9 -3 5 -6 -5 -5 -127 56 -147 73
-2 2 -7 38 -11 79 -8 75 -15 116 -45 229 -8 33 -18 71 -21 85 -3 14 -20 45
-37 70 -17 25 -41 67 -53 93 -12 26 -49 80 -81 120 -32 40 -74 95 -93 122 -19
28 -38 53 -43 57 -5 3 -11 16 -13 28 -2 17 1 21 12 16 9 -3 14 -2 11 3 -3 4
-7 64 -10 132 -3 83 -9 138 -20 163 -9 21 -16 50 -16 64 l0 26 28 -27 c16 -15
31 -24 35 -21z m77 -16 c0 -5 -5 -10 -11 -10 -5 0 -7 5 -4 10 3 6 8 10 11 10
2 0 4 -4 4 -10z m-15 -40 c3 -5 1 -10 -4 -10 -6 0 -11 5 -11 10 0 6 2 10 4 10
3 0 8 -4 11 -10z m55 -100 c0 -5 -7 -7 -15 -4 -8 4 -15 8 -15 10 0 2 7 4 15 4
8 0 15 -4 15 -10z m2290 -40 c0 -5 -4 -10 -10 -10 -5 0 -10 5 -10 10 0 6 5 10
10 10 6 0 10 -4 10 -10z m-28 -32 c-15 -15 -16 -58 -2 -58 6 0 10 -8 10 -17 0
-14 -6 -11 -24 12 -23 29 -24 52 -2 67 18 12 31 9 18 -4z m25 -90 c-3 -8 -6
-5 -6 6 -1 11 2 17 5 13 3 -3 4 -12 1 -19z m-180 -88 c-8 -12 -18 -17 -21 -12
-7 11 23 46 31 38 3 -3 -2 -14 -10 -26z m139 19 c3 -6 -1 -18 -10 -27 -16 -16
-18 -16 -32 2 -11 16 -11 22 -1 28 17 11 35 10 43 -3z m-88 -31 c7 -7 12 -21
12 -32 0 -19 -1 -19 -20 2 -30 32 -23 61 8 30z m-48 -41 c8 -7 21 -24 29 -39
13 -25 12 -30 -4 -48 -24 -27 -37 -12 -26 28 6 20 6 30 0 27 -5 -4 -9 -1 -9 4
0 6 -7 11 -15 11 -9 0 -12 6 -9 15 7 18 14 18 34 2z m-45 -64 c0 -12 3 -25 8
-29 4 -4 7 -21 7 -38 l0 -31 -24 25 c-27 28 -43 70 -27 70 6 0 11 7 11 16 0 9
6 14 13 11 6 -2 12 -13 12 -24z m-3713 -408 c0 -5 -5 -11 -11 -13 -6 -2 -11 4
-11 13 0 9 5 15 11 13 6 -2 11 -8 11 -13z m3179 -115 c50 -26 56 -42 31 -77
-11 -16 -23 -45 -27 -66 -8 -44 -20 -48 -30 -10 -3 15 -15 39 -25 53 l-19 27
25 12 c18 8 24 17 22 34 -2 12 -9 21 -16 20 -6 -2 -12 4 -12 12 0 19 3 19 51
-5z m2144 10 c22 -9 16 -13 -37 -24 -30 -7 -36 2 -16 22 14 14 24 14 53 2z
m-3531 -20 c16 -6 26 -17 26 -29 0 -18 -8 -20 -62 -23 -53 -3 -64 -6 -74 -25
-6 -13 -14 -20 -17 -16 -23 22 20 93 56 93 18 0 19 -2 7 -10 -12 -8 -11 -10 8
-10 13 0 22 6 22 15 0 18 1 18 34 5z m3461 -50 c3 -5 -1 -10 -9 -10 -9 0 -16
5 -16 10 0 6 4 10 9 10 6 0 13 -4 16 -10z m-25 -50 c0 -5 -4 -10 -9 -10 -6 0
-13 5 -16 10 -3 6 1 10 9 10 9 0 16 -4 16 -10z m-3540 -16 c0 -12 -34 -64 -42
-64 -14 0 -9 33 9 52 16 18 33 24 33 12z m229 -106 c19 -13 36 -29 39 -36 4
-14 -78 39 -98 63 -20 25 -35 17 -34 -17 1 -22 6 -34 17 -36 9 -2 19 -12 22
-23 4 -10 11 -19 16 -19 5 0 9 -4 9 -10 0 -17 -22 -11 -46 11 l-23 21 4 -31
c4 -28 2 -30 -16 -18 -10 6 -19 22 -19 34 0 12 -4 24 -9 27 -10 7 7 86 19 86
4 0 5 12 2 28 -5 26 -4 26 39 -15 24 -24 59 -53 78 -65z m3276 82 c3 -5 -1
-10 -9 -10 -9 0 -16 5 -16 10 0 6 4 10 9 10 6 0 13 -4 16 -10z m-3250 -150 c3
-5 -1 -10 -9 -10 -9 0 -16 5 -16 10 0 6 4 10 9 10 6 0 13 -4 16 -10z m-110
-60 c3 -5 -1 -10 -10 -10 -9 0 -13 5 -10 10 3 6 8 10 10 10 2 0 7 -4 10 -10z
m156 0 c42 -12 125 -94 135 -134 9 -36 -18 -106 -50 -130 -43 -33 -111 -27
-169 13 -48 32 -87 92 -87 131 0 12 13 41 30 64 16 24 26 47 22 51 -4 5 -2 6
3 2 6 -3 17 -2 25 4 19 11 46 11 91 -1z m-401 -124 c0 -3 -4 -8 -10 -11 -5 -3
-10 -1 -10 4 0 6 5 11 10 11 6 0 10 -2 10 -4z m2635 -17 c11 -17 -1 -21 -15
-4 -8 9 -8 15 -2 15 6 0 14 -5 17 -11z m-44 -22 c-1 -12 -15 -9 -19 4 -3 6 1
10 8 8 6 -3 11 -8 11 -12z m-3571 -11 c0 -3 -4 -8 -10 -11 -5 -3 -10 -1 -10 4
0 6 5 11 10 11 6 0 10 -2 10 -4z m3525 -16 c3 -5 2 -10 -4 -10 -5 0 -13 5 -16
10 -3 6 -2 10 4 10 5 0 13 -4 16 -10z m-3475 -14 c0 -3 -4 -8 -10 -11 -5 -3
-10 -1 -10 4 0 6 5 11 10 11 6 0 10 -2 10 -4z m40 -26 c0 -5 -5 -10 -11 -10
-5 0 -7 5 -4 10 3 6 8 10 11 10 2 0 4 -4 4 -10z m3390 0 c0 -5 -2 -10 -4 -10
-3 0 -8 5 -11 10 -3 6 -1 10 4 10 6 0 11 -4 11 -10z m-3340 -30 c0 -5 -5 -10
-11 -10 -5 0 -7 5 -4 10 3 6 8 10 11 10 2 0 4 -4 4 -10z m2200 -14 c0 -14 -29
-31 -38 -21 -6 6 18 35 29 35 5 0 9 -6 9 -14z m-1077 -17 c4 -16 3 -18 -9 -8
-16 13 -19 29 -5 29 5 0 11 -9 14 -21z m-1073 -3 c0 -3 -4 -8 -10 -11 -5 -3
-10 -1 -10 4 0 6 5 11 10 11 6 0 10 -2 10 -4z m1155 -26 c3 -5 1 -10 -4 -10
-6 0 -11 5 -11 10 0 6 2 10 4 10 3 0 8 -4 11 -10z m-1120 -20 c-3 -5 -11 -10
-16 -10 -6 0 -7 5 -4 10 3 6 11 10 16 10 6 0 7 -4 4 -10z m1052 -6 c-3 -3 -12
-4 -19 -1 -8 3 -5 6 6 6 11 1 17 -2 13 -5z m1457 -61 c10 -26 0 -25 -18 1 -13
20 -13 24 -2 20 8 -3 17 -13 20 -21z m-581 -28 c-3 -9 -8 -14 -10 -11 -3 3 -2
9 2 15 9 16 15 13 8 -4z m-1205 -130 c-2 -11 -12 -21 -23 -23 -16 -2 -23 6
-33 40 -32 109 -23 129 24 56 19 -29 33 -62 32 -73z m1137 108 c-5 -10 -11
-36 -14 -57 -6 -42 -31 -63 -31 -27 0 29 30 101 42 101 6 0 7 -7 3 -17z m911
-21 c42 -28 60 -161 27 -200 -30 -35 -68 -38 -97 -8 -51 50 -30 198 28 209 12
2 23 5 26 5 3 1 10 -2 16 -6z m374 -12 c0 -5 -7 -7 -15 -4 -8 4 -15 8 -15 10
0 2 7 4 15 4 8 0 15 -4 15 -10z m-570 -40 c0 -5 -4 -10 -10 -10 -5 0 -10 5
-10 10 0 6 5 10 10 10 6 0 10 -4 10 -10z m33 -190 c3 -11 1 -18 -4 -14 -5 3
-9 12 -9 20 0 20 7 17 13 -6z"/>
<path d="M3850 3251 c0 -5 12 -17 28 -27 15 -9 39 -30 54 -46 14 -15 28 -28
31 -28 3 0 20 -15 39 -32 72 -70 187 -157 265 -202 156 -90 379 -156 527 -156
159 0 395 54 496 114 30 18 85 50 123 70 37 20 67 44 67 51 0 21 -6 19 -64
-18 -28 -18 -64 -39 -81 -46 -16 -7 -37 -17 -46 -22 -9 -4 -26 -5 -38 -2 -12
3 -21 1 -21 -6 0 -6 -9 -11 -19 -11 -11 0 -32 -11 -47 -25 -30 -28 -53 -32
-73 -12 -10 10 -15 8 -29 -10 -16 -20 -21 -21 -67 -12 -53 10 -95 5 -106 -13
-5 -8 -21 -7 -53 2 -25 7 -55 10 -68 7 -13 -3 -31 0 -41 8 -14 10 -26 11 -49
3 -25 -9 -32 -8 -40 6 -5 9 -13 14 -18 11 -9 -6 -78 23 -97 41 -6 6 -36 14
-66 18 -69 8 -87 14 -87 32 0 9 -11 14 -30 14 -30 0 -130 54 -130 71 0 5 -9 9
-20 9 -11 0 -23 7 -26 15 -4 8 -15 15 -25 15 -10 0 -19 5 -19 11 0 7 -9 9 -24
5 -16 -4 -26 -1 -29 9 -4 8 -24 23 -47 35 -22 11 -40 27 -40 35 0 7 -8 16 -17
19 -10 3 -29 16 -43 28 -34 30 -70 50 -70 39z m660 -361 c0 -5 -5 -10 -11 -10
-5 0 -7 5 -4 10 3 6 8 10 11 10 2 0 4 -4 4 -10z"/>
</g>
</svg>
