<?xml version="1.0" encoding="utf-8"?>
<!-- Generator: Adobe Illustrator 22.0.1, SVG Export Plug-In . SVG Version: 6.00 Build 0)  -->
<svg version="1.1" id="Layer_1" xmlns="http://www.w3.org/2000/svg" xmlns:xlink="http://www.w3.org/1999/xlink" x="0px" y="0px"
	 viewBox="0 0 56.7 56.7" style="enable-background:new 0 0 56.7 56.7;" xml:space="preserve">
<style type="text/css">
	.st0{fill:#FFFFFF;}
</style>
<g>
	<path class="st0" d="M26.6,24.5c0.2-0.1,0.4-0.1,0.7-0.1c0.1,0,0.3,0,0.5,0c0.3,0,0.7,0.1,1.3,0.1l-2.4-6.8
		c-0.6-1.7-1.1-2.9-1.4-3.4c-0.3-0.5-0.7-0.8-1.1-0.8c-0.3,0-0.6,0.1-0.7,0.4c-0.2,0.2-0.3,0.5-0.3,0.9c0,0.7,0.3,1.8,0.8,3.5
		c0.5,1.7,1.3,3.8,2.3,6.5C26.3,24.7,26.5,24.6,26.6,24.5z"/>
	<path class="st0" d="M29.3,33.3c0.4-0.4,0.7-0.8,1.1-1.2c0.4-0.4,0.8-0.7,1.2-1c-0.6,0-1.2-0.1-1.8-0.2c-0.6-0.1-1.1-0.2-1.6-0.4
		c0.2,0.5,0.4,0.9,0.6,1.4C29,32.4,29.1,32.9,29.3,33.3z"/>
	<path class="st0" d="M37.2,27.7c-0.6-0.5-1.8-0.9-3.5-1.3c-1.7-0.4-3.5-0.6-5.4-0.6c-0.5,0-0.9,0.1-1.1,0.3
		c-0.2,0.2-0.3,0.5-0.3,0.9c0,1,0.6,1.7,1.7,2.2c1.1,0.4,2.9,0.7,5.4,0.7h0.9c0.2,0,0.4,0.1,0.5,0.2c0.1,0.2,0.2,0.4,0.3,0.7
		c-0.2,0.2-0.8,0.5-1.5,0.8c-0.8,0.3-1.4,0.6-1.8,0.9c-0.9,0.6-1.6,1.4-2.1,2.3c-0.5,0.9-0.8,1.7-0.8,2.5c0,0.5,0.1,1.1,0.3,1.7
		c0.2,0.7,0.3,1.1,0.3,1.3v0.2l0,0.2c-0.6,0-1.1-0.4-1.5-1.1c-0.4-0.7-0.6-1.7-0.6-2.8v-0.2c-0.1,0.1-0.2,0.2-0.3,0.2
		c-0.1,0-0.2,0.1-0.4,0.1c-0.1,0-0.3,0-0.4,0c-0.1,0-0.2-0.1-0.4-0.1c0,0.2,0.1,0.3,0.1,0.5s0,0.3,0,0.4c0,0.5-0.2,1-0.6,1.4
		c-0.4,0.4-0.9,0.6-1.5,0.6c-0.9,0-1.9-0.4-2.8-1.3c-0.9-0.9-1.4-1.8-1.4-2.6c0-0.2,0-0.3,0.1-0.4c0-0.1,0.1-0.2,0.2-0.3
		c0.2,0.2,0.5,0.6,0.9,1.1c1,1.3,1.9,2,2.7,2c0.3,0,0.5-0.1,0.7-0.3c0.2-0.2,0.3-0.4,0.3-0.5c0-0.2-0.1-0.6-0.4-1.1
		c-0.3-0.5-0.7-1.1-1.2-1.7c-0.6-0.7-1.1-1.3-1.5-1.6c-0.4-0.3-0.7-0.5-0.9-0.5c-0.5,0-1,0.3-1.4,0.8c-0.4,0.5-0.6,1.2-0.6,1.9
		c0,0.6,0.1,1.3,0.4,2c0.3,0.7,0.7,1.5,1.3,2.2c0.9,1.2,1.9,2,3.2,2.7c1.3,0.6,2.7,0.9,4.2,0.9c2.8,0,5.2-1.1,7.2-3.2
		c1.9-2.1,2.9-4.8,2.9-8c0-1-0.1-1.8-0.2-2.3C37.8,28.4,37.5,28,37.2,27.7z"/>
	<path class="st0" d="M23.8,32.4c0.6,0.9,1.2,1.5,1.8,2c0.6,0.5,1,0.7,1.4,0.7c0.2,0,0.5-0.1,0.7-0.3c0.2-0.2,0.3-0.5,0.3-0.7
		c0-0.3-0.2-0.9-0.6-1.9c-0.4-1-0.9-2-1.5-3c-0.4-0.7-0.9-1.3-1.3-1.7c-0.4-0.4-0.8-0.6-1.2-0.6c-0.3,0-0.6,0.2-1,0.6
		c-0.4,0.4-0.6,0.7-0.6,1.1c0,0.4,0.2,0.9,0.5,1.6C22.7,30.9,23.2,31.6,23.8,32.4z"/>
	<path class="st0" d="M28.6,4.1C15,4.1,3.9,15.1,3.9,28.7c0,13.6,11,24.6,24.6,24.6c13.6,0,24.6-11,24.6-24.6
		C53.2,15.1,42.2,4.1,28.6,4.1z M36.3,40.4c-2.2,2.3-5,3.5-8.5,3.5c-1.4,0-2.7-0.2-4-0.7c-1.3-0.5-2.4-1.2-3.3-2
		c-1.1-1-1.8-2-2.4-3.1c-0.5-1.1-0.8-2.2-0.8-3.3c0-1.3,0.3-2.2,0.8-2.9c0.5-0.7,1.4-1.2,2.6-1.4c-0.2-0.5-0.4-0.9-0.5-1.3
		c-0.1-0.4-0.2-0.6-0.2-0.8c0-0.7,0.3-1.3,1-2c0.7-0.7,1.3-1,2-1c0.3,0,0.5,0,0.8,0.1c0.3,0.1,0.6,0.3,1,0.5
		c-1.1-3.2-1.9-5.6-2.5-7.4c-0.5-1.7-0.8-2.9-0.8-3.6c0-0.9,0.2-1.6,0.7-2.2c0.5-0.5,1.1-0.8,1.9-0.8c1.4,0,3.1,3.1,5.2,9.2
		c0.4,1.1,0.6,1.9,0.8,2.4c0.2-0.5,0.4-1.1,0.7-1.9c2.1-6.1,3.9-9.1,5.4-9.1c0.7,0,1.3,0.3,1.8,0.8c0.4,0.5,0.7,1.2,0.7,2
		c0,0.6-0.2,1.8-0.7,3.5c-0.5,1.7-1.2,3.9-2.2,6.7c1.3,0.2,2.2,0.8,2.8,1.7c0.5,0.9,0.8,2.2,0.8,4.1C39.7,35.1,38.6,38.1,36.3,40.4z
		"/>
	<path class="st0" d="M36.8,18.7c0.5-1.7,0.8-2.8,0.8-3.2c0-0.4-0.1-0.8-0.3-1c-0.2-0.2-0.4-0.4-0.8-0.4c-0.4,0-0.8,0.3-1.2,1
		c-0.4,0.7-0.9,1.8-1.4,3.3l-2.2,6.3l2.8,0.5C35.5,22.6,36.2,20.4,36.8,18.7z"/>
</g>
</svg>
